<?xml version="1.0" encoding="iso-8859-1"?>
<!-- Generator: Adobe Illustrator 29.8.4, SVG Export Plug-In . SVG Version: 9.03 Build 0)  -->
<svg version="1.1" id="Layer_1" xmlns="http://www.w3.org/2000/svg" xmlns:xlink="http://www.w3.org/1999/xlink" x="0px" y="0px"
	 viewBox="0 0 1500 292" enable-background="new 0 0 1500 292" xml:space="preserve">
<rect id="bg-white" fill="#FFFFFF" width="1500" height="292"/>
<line fill="none" stroke="#8F7200" stroke-width="16" stroke-linecap="round" stroke-miterlimit="10" x1="90" y1="244" x2="1410" y2="244"/>
<circle fill="#FFFFFF" stroke="#000000" stroke-width="6" stroke-miterlimit="10" cx="90" cy="244" r="10"/>
<g>
	<path d="M98.35,223.77l-10.72-6.28l0.55-1.5l8.5-0.4l-6.21-5.88l0.55-1.52l12.17,2.3l-0.81,2.22l-7.32-1.51l5.98,5.67l-0.22,0.61
		l-8.19,0.41l6.54,3.66L98.35,223.77z"/>
	<path d="M97.63,202.23c0.45-1.23,1.17-2.1,2.17-2.6s2.08-0.55,3.24-0.13c1.16,0.42,1.96,1.15,2.39,2.19
		c0.43,1.05,0.43,2.19-0.02,3.43c-0.45,1.25-1.19,2.11-2.2,2.61c-1.01,0.5-2.09,0.54-3.23,0.12c-1.15-0.42-1.94-1.15-2.37-2.2
		C97.17,204.6,97.18,203.46,97.63,202.23z M99.46,202.92c-0.21,0.57-0.19,1.13,0.06,1.68c0.25,0.55,0.66,0.93,1.23,1.14
		c0.57,0.21,1.13,0.19,1.67-0.07c0.55-0.26,0.93-0.67,1.14-1.24c0.21-0.57,0.19-1.14-0.07-1.69c-0.25-0.55-0.66-0.92-1.23-1.13
		c-0.57-0.21-1.12-0.18-1.67,0.07C100.05,201.94,99.67,202.35,99.46,202.92z"/>
	<path d="M101.11,192.67c0.45-1.23,1.17-2.1,2.17-2.6s2.08-0.55,3.24-0.13s1.96,1.15,2.39,2.19c0.43,1.05,0.43,2.19-0.02,3.43
		c-0.45,1.25-1.19,2.11-2.2,2.61c-1.01,0.5-2.09,0.54-3.23,0.12c-1.15-0.42-1.94-1.15-2.37-2.2S100.66,193.9,101.11,192.67z
		 M102.94,193.37c-0.21,0.57-0.19,1.13,0.06,1.68s0.66,0.93,1.23,1.14c0.57,0.21,1.13,0.19,1.67-0.07c0.55-0.26,0.93-0.67,1.13-1.24
		s0.19-1.14-0.07-1.69c-0.25-0.55-0.66-0.92-1.23-1.13c-0.57-0.21-1.12-0.18-1.67,0.07C103.53,192.38,103.15,192.8,102.94,193.37z"
		/>
	<path d="M100.13,179.46l0.75-2.05l12.67,4.61l-0.75,2.05l-0.95-0.35c0.55,0.92,0.66,1.88,0.29,2.88c-0.36,1-1.04,1.71-2.04,2.12
		s-2.04,0.42-3.14,0.03c-1.1-0.4-1.91-1.09-2.41-2.04c-0.5-0.96-0.57-1.93-0.22-2.9s1.05-1.66,2.08-2.05L100.13,179.46z
		 M106.42,183.82c-0.21,0.58-0.19,1.14,0.06,1.68c0.25,0.55,0.66,0.92,1.23,1.13c0.57,0.21,1.13,0.19,1.67-0.07
		c0.55-0.26,0.92-0.66,1.13-1.23c0.2-0.56,0.18-1.12-0.07-1.67c-0.25-0.55-0.66-0.92-1.23-1.13c-0.57-0.21-1.12-0.18-1.67,0.06
		C107,182.83,106.62,183.25,106.42,183.82z"/>
	<path d="M102.97,174.82c0.12-0.34,0.34-0.59,0.67-0.74c0.33-0.15,0.66-0.16,1-0.04c0.34,0.12,0.59,0.36,0.74,0.68
		c0.16,0.33,0.18,0.67,0.05,1.01c-0.12,0.34-0.35,0.58-0.68,0.74c-0.33,0.15-0.67,0.17-1.01,0.04c-0.34-0.12-0.59-0.36-0.74-0.69
		C102.85,175.5,102.85,175.16,102.97,174.82z M107.66,175.4l7.33,2.67l-0.74,2.04l-7.33-2.67L107.66,175.4z"/>
	<path d="M114.98,167.72l-2,5.49c1.33,0.42,2.2,0.06,2.61-1.08c0.26-0.71,0.14-1.41-0.35-2.1l0.99-1.78
		c1.29,1.19,1.62,2.65,0.98,4.42c-0.44,1.2-1.14,2.02-2.11,2.48c-0.97,0.46-2.04,0.47-3.22,0.04s-2-1.12-2.45-2.08
		c-0.45-0.96-0.47-2.01-0.05-3.18c0.42-1.17,1.11-1.95,2.06-2.37c0.95-0.41,2.03-0.39,3.26,0.06L114.98,167.72z M111.7,172.67
		l1.26-3.47c-1.05-0.13-1.75,0.28-2.09,1.21C110.55,171.31,110.84,172.16,111.7,172.67z"/>
</g>
<circle fill="#FFFFFF" stroke="#000000" stroke-width="6" stroke-miterlimit="10" cx="140.77" cy="244" r="10"/>
<g>
	<path d="M149.34,223.16l-11.28-4.11l1.02-2.79c0.46-1.27,1.02-2.11,1.68-2.5c0.77-0.48,1.67-0.54,2.67-0.18
		c0.62,0.23,1.11,0.56,1.46,1.01c0.16,0.23,0.28,0.59,0.38,1.06c0.4-0.62,0.81-1.02,1.25-1.21c0.73-0.34,1.56-0.35,2.47-0.02
		c0.92,0.33,1.55,0.94,1.9,1.8c0.35,0.87,0.3,1.91-0.15,3.14L149.34,223.16z M143.56,218.56l0.23-0.63
		c0.42-1.14,0.13-1.89-0.84-2.24s-1.67,0.03-2.07,1.14l-0.24,0.66L143.56,218.56z M148.37,220.31l0.35-0.95
		c0.53-1.46,0.28-2.39-0.75-2.76c-0.57-0.21-1.07-0.14-1.5,0.2c-0.33,0.24-0.64,0.76-0.93,1.54l-0.3,0.83L148.37,220.31z"/>
	<path d="M147.45,205.56l0.75-2.05l7.33,2.67l-0.75,2.05l-0.95-0.35c0.55,0.92,0.65,1.88,0.29,2.87c-0.36,1-1.04,1.71-2.04,2.12
		c-0.99,0.42-2.04,0.42-3.14,0.03c-1.1-0.4-1.91-1.09-2.41-2.05s-0.57-1.93-0.22-2.9c0.36-0.97,1.05-1.66,2.08-2.05L147.45,205.56z
		 M148.4,207.97c-0.21,0.58-0.19,1.14,0.06,1.68c0.25,0.55,0.66,0.92,1.23,1.13c0.57,0.21,1.13,0.19,1.67-0.07
		c0.55-0.26,0.92-0.66,1.13-1.23c0.2-0.56,0.18-1.12-0.07-1.67c-0.25-0.55-0.66-0.92-1.23-1.13c-0.57-0.21-1.12-0.18-1.67,0.06
		C148.98,206.98,148.61,207.4,148.4,207.97z"/>
	<path d="M156.04,201.29l-7.47,1.21l0.87-2.39l4.96-0.68l-3.4-3.6l0.86-2.35l9.08,10.01l-0.84,2.32L156.04,201.29z"/>
	<path d="M155.27,189.4c-0.48,0.31-0.78,0.62-0.89,0.92s-0.13,0.55-0.08,0.75c0.07,0.2,0.19,0.33,0.36,0.39
		c0.17,0.06,0.34,0.04,0.51-0.08c0.16-0.12,0.45-0.43,0.85-0.92c0.41-0.5,0.76-0.86,1.07-1.05c0.57-0.4,1.22-0.47,1.95-0.21
		c0.74,0.27,1.25,0.78,1.53,1.53c0.29,0.76,0.26,1.59-0.06,2.49c-0.4,1.11-1.14,1.88-2.23,2.33l-0.86-1.53
		c0.78-0.36,1.28-0.84,1.49-1.42c0.19-0.52-0.02-1.07-0.46-1.22c-0.22-0.08-0.41-0.08-0.58,0.02c-0.16,0.1-0.46,0.4-0.89,0.92
		c-0.43,0.52-0.77,0.86-1.03,1.02c-0.52,0.36-1.11,0.42-1.79,0.17s-1.15-0.7-1.41-1.35c-0.26-0.65-0.23-1.39,0.07-2.21
		c0.3-0.83,0.84-1.49,1.62-2L155.27,189.4z"/>
	<path d="M149.25,183.99l0.75-2.05l6.29,2.29c-0.56-0.89-0.68-1.79-0.35-2.72c0.34-0.92,0.89-1.53,1.67-1.81
		c0.6-0.22,1.36-0.16,2.28,0.17l4.6,1.67l-0.75,2.05l-4.01-1.46c-0.59-0.21-1.02-0.29-1.3-0.24c-0.48,0.08-0.82,0.41-1.03,0.98
		c-0.38,1.03,0.12,1.8,1.5,2.3l3.76,1.37l-0.75,2.05L149.25,183.99z"/>
	<path d="M159.03,173.02c0.45-1.23,1.18-2.1,2.17-2.6c1-0.51,2.08-0.55,3.24-0.13s1.96,1.15,2.39,2.19
		c0.43,1.05,0.43,2.19-0.02,3.43c-0.45,1.25-1.19,2.11-2.2,2.61c-1.01,0.5-2.09,0.54-3.23,0.12c-1.15-0.42-1.94-1.15-2.37-2.2
		C158.57,175.39,158.59,174.25,159.03,173.02z M160.87,173.71c-0.21,0.57-0.19,1.13,0.06,1.68s0.66,0.93,1.23,1.14
		c0.57,0.21,1.13,0.19,1.67-0.07c0.55-0.26,0.93-0.67,1.13-1.24c0.21-0.57,0.19-1.14-0.07-1.69c-0.25-0.55-0.66-0.92-1.23-1.13
		c-0.57-0.21-1.12-0.18-1.67,0.07C161.45,172.72,161.07,173.14,160.87,173.71z"/>
	<path d="M169.42,167.99l-0.75,2.05l-7.33-2.67l0.75-2.05l1.11,0.41c-0.72-0.83-0.91-1.71-0.57-2.62c0.1-0.29,0.27-0.57,0.51-0.83
		l1.8,0.98c-0.29,0.24-0.49,0.54-0.6,0.88c-0.43,1.17,0.1,2.03,1.56,2.56L169.42,167.99z"/>
	<path d="M170.17,155.58l-2,5.49c1.33,0.42,2.2,0.06,2.61-1.08c0.26-0.71,0.14-1.41-0.35-2.1l0.99-1.78
		c1.29,1.19,1.62,2.66,0.98,4.42c-0.44,1.2-1.14,2.02-2.11,2.48c-0.97,0.46-2.04,0.47-3.22,0.04c-1.18-0.43-2-1.12-2.45-2.08
		c-0.46-0.96-0.47-2.01-0.05-3.18c0.42-1.17,1.11-1.95,2.06-2.37s2.03-0.39,3.26,0.06L170.17,155.58z M166.89,160.54l1.26-3.47
		c-1.05-0.13-1.75,0.28-2.09,1.21C165.73,159.18,166.03,160.02,166.89,160.54z"/>
</g>
<circle fill="#FFFFFF" stroke="#000000" stroke-width="6" stroke-miterlimit="10" cx="191.54" cy="244" r="10"/>
<g>
	<path d="M196.73,219.44l4.18,1.52l-0.8,2.2l-11.28-4.11l1.2-3.3c0.27-0.73,0.55-1.3,0.83-1.7c0.29-0.4,0.66-0.72,1.11-0.97
		c0.97-0.52,2-0.57,3.06-0.19s1.82,1.02,2.26,1.88c0.44,0.86,0.42,1.94-0.05,3.24L196.73,219.44z M194.82,218.74l0.32-0.89
		c0.5-1.38,0.21-2.26-0.88-2.66c-1.15-0.42-1.89,0.05-2.46,1.59l-0.28,0.76L194.82,218.74z"/>
	<path d="M192,209.19c0.12-0.34,0.34-0.59,0.67-0.74s0.66-0.16,1-0.04c0.34,0.12,0.59,0.36,0.74,0.68c0.16,0.33,0.18,0.67,0.05,1.01
		s-0.35,0.58-0.68,0.74s-0.67,0.17-1.01,0.04c-0.34-0.12-0.59-0.36-0.74-0.69C191.88,209.86,191.88,209.52,192,209.19z
		 M196.69,209.76l7.33,2.67l-0.74,2.04l-7.33-2.67L196.69,209.76z"/>
	<path d="M197.39,207.83l0.75-2.05l0.92,0.33c-0.61-0.93-0.67-1.72-0.31-2.71c0.33-0.9,0.88-1.51,1.65-1.81
		c0.58-0.23,1.33-0.17,2.24,0.16l4.65,1.69l-0.75,2.05l-4.06-1.48c-0.56-0.2-0.98-0.28-1.26-0.22c-0.47,0.07-0.8,0.4-1.01,0.99
		c-0.38,1.03,0.11,1.8,1.47,2.29l3.79,1.38l-0.75,2.05L197.39,207.83z"/>
	<path d="M207.29,193.07l-2,5.49c1.33,0.42,2.2,0.06,2.61-1.08c0.26-0.71,0.14-1.41-0.35-2.1l0.99-1.78
		c1.29,1.19,1.62,2.65,0.98,4.42c-0.44,1.2-1.14,2.02-2.11,2.48s-2.04,0.47-3.22,0.04s-2-1.12-2.45-2.08
		c-0.45-0.96-0.47-2.01-0.05-3.18c0.42-1.16,1.11-1.95,2.06-2.37s2.03-0.39,3.26,0.06L207.29,193.07z M204.01,198.02l1.26-3.47
		c-1.05-0.13-1.75,0.28-2.09,1.21C202.86,196.67,203.15,197.51,204.01,198.02z"/>
	<path d="M208.1,185.39c-0.62,0.38-1.03,0.87-1.24,1.46c-0.21,0.59-0.2,1.14,0.04,1.69c0.24,0.55,0.66,0.92,1.25,1.14
		c0.59,0.22,1.15,0.2,1.69-0.07c0.54-0.26,0.91-0.69,1.13-1.28c0.22-0.6,0.22-1.22,0-1.89l1.99,0.72c0.09,0.71,0.01,1.39-0.22,2.04
		c-0.42,1.14-1.13,1.96-2.16,2.45c-1.01,0.5-2.08,0.54-3.18,0.14c-1.1-0.4-1.89-1.13-2.37-2.17c-0.47-1.04-0.5-2.14-0.09-3.28
		c0.24-0.67,0.62-1.23,1.11-1.7L208.1,185.39z"/>
	<path d="M214.5,183.63l-0.75,2.05l-7.33-2.67l0.75-2.05l1.11,0.41c-0.72-0.83-0.91-1.71-0.57-2.62c0.1-0.29,0.27-0.57,0.51-0.83
		l1.8,0.98c-0.29,0.24-0.49,0.54-0.6,0.88c-0.43,1.17,0.1,2.03,1.56,2.56L214.5,183.63z"/>
	<path d="M215.24,171.23l-2,5.49c1.33,0.42,2.2,0.06,2.61-1.08c0.26-0.71,0.14-1.41-0.35-2.1l0.99-1.78
		c1.29,1.19,1.62,2.66,0.98,4.42c-0.44,1.2-1.14,2.02-2.11,2.48c-0.97,0.46-2.04,0.47-3.22,0.04c-1.18-0.43-2-1.12-2.45-2.08
		c-0.45-0.96-0.47-2.01-0.05-3.18c0.42-1.17,1.11-1.95,2.06-2.37s2.03-0.39,3.26,0.06L215.24,171.23z M211.96,176.18l1.26-3.47
		c-1.05-0.13-1.75,0.28-2.09,1.21C210.81,174.82,211.1,175.67,211.96,176.18z"/>
	<path d="M214.94,164.95c-0.48,0.31-0.78,0.62-0.89,0.92c-0.11,0.31-0.13,0.55-0.08,0.75c0.07,0.2,0.19,0.33,0.36,0.39
		c0.17,0.06,0.34,0.04,0.51-0.08c0.16-0.12,0.45-0.43,0.85-0.92c0.41-0.5,0.76-0.85,1.07-1.05c0.57-0.4,1.22-0.47,1.96-0.21
		s1.25,0.78,1.53,1.53c0.29,0.76,0.26,1.59-0.07,2.49c-0.4,1.11-1.14,1.88-2.23,2.33l-0.86-1.53c0.78-0.36,1.28-0.83,1.49-1.42
		c0.19-0.52-0.02-1.07-0.46-1.22c-0.22-0.08-0.41-0.08-0.58,0.02c-0.16,0.1-0.46,0.41-0.89,0.92c-0.43,0.52-0.77,0.86-1.03,1.02
		c-0.52,0.36-1.11,0.42-1.79,0.17c-0.69-0.25-1.15-0.7-1.41-1.35c-0.26-0.65-0.23-1.39,0.07-2.21c0.3-0.83,0.84-1.49,1.62-2
		L214.94,164.95z"/>
	<path d="M216.85,159.9l5.55,2.02l-0.75,2.05l-5.55-2.02l-0.29,0.81l-1.78-0.65l0.29-0.81l-2.5-0.91l0.75-2.05l2.5,0.91l0.53-1.45
		l1.78,0.65L216.85,159.9z"/>
</g>
<circle fill="#FFFFFF" stroke="#000000" stroke-width="6" stroke-miterlimit="10" cx="242.31" cy="244" r="10"/>
<g>
	<path d="M245.05,221.69c-1.66-0.6-2.85-1.7-3.56-3.29c-0.71-1.59-0.76-3.23-0.14-4.94c0.62-1.71,1.71-2.93,3.28-3.68
		s3.18-0.82,4.85-0.21c1.46,0.53,2.62,1.55,3.45,3.05l2.48-1.16l-0.59,2.29l-1.37,0.56c0.22,1.14,0.12,2.28-0.28,3.42
		c-0.63,1.73-1.72,2.97-3.27,3.73C248.32,222.21,246.71,222.29,245.05,221.69z M250.68,213.56c-0.44-0.82-1.17-1.42-2.18-1.79
		c-1.02-0.37-2.02-0.33-3.04,0.14c-1.01,0.46-1.71,1.23-2.1,2.29c-0.39,1.07-0.35,2.11,0.14,3.11c0.48,1.01,1.28,1.71,2.38,2.11
		c1.11,0.4,2.16,0.37,3.15-0.08c1-0.45,1.68-1.2,2.07-2.26c0.23-0.64,0.28-1.23,0.14-1.79l-2.92,1.41l0.64-2.35L250.68,213.56z"/>
	<path d="M249.16,205.09l4.15,1.51c1.11,0.41,1.86,0.12,2.22-0.88c0.36-1-0.02-1.7-1.13-2.1l-4.15-1.51l0.75-2.05l4.48,1.63
		c1.98,0.72,2.62,2.38,1.79,4.66c-0.83,2.28-2.39,3.15-4.37,2.43l-4.48-1.63L249.16,205.09z"/>
	<path d="M258.32,192.35l-2,5.49c1.33,0.42,2.2,0.06,2.61-1.08c0.26-0.71,0.14-1.41-0.35-2.1l0.99-1.78
		c1.29,1.19,1.62,2.65,0.98,4.42c-0.44,1.2-1.14,2.02-2.11,2.48c-0.97,0.46-2.04,0.47-3.22,0.04c-1.18-0.43-2-1.12-2.45-2.08
		c-0.45-0.96-0.47-2.01-0.05-3.18c0.42-1.16,1.11-1.95,2.06-2.37c0.95-0.41,2.03-0.39,3.26,0.06L258.32,192.35z M255.04,197.3
		l1.26-3.47c-1.05-0.13-1.75,0.28-2.09,1.21C253.89,195.95,254.18,196.79,255.04,197.3z"/>
	<path d="M261.51,183.6l-2,5.49c1.33,0.42,2.2,0.06,2.61-1.08c0.26-0.71,0.14-1.41-0.35-2.1l0.99-1.78
		c1.29,1.19,1.62,2.66,0.98,4.42c-0.44,1.2-1.14,2.02-2.11,2.48s-2.04,0.47-3.22,0.04c-1.18-0.43-2-1.12-2.45-2.08
		c-0.46-0.96-0.47-2.01-0.05-3.18c0.42-1.17,1.11-1.95,2.06-2.37c0.95-0.41,2.03-0.39,3.26,0.06L261.51,183.6z M258.23,188.55
		l1.26-3.47c-1.05-0.13-1.75,0.28-2.09,1.21C257.08,187.19,257.37,188.04,258.23,188.55z"/>
	<path d="M258.08,180.59l0.75-2.05l0.92,0.33c-0.61-0.93-0.67-1.72-0.31-2.71c0.33-0.9,0.88-1.51,1.65-1.81
		c0.58-0.23,1.33-0.17,2.24,0.16l4.65,1.69l-0.75,2.05l-4.06-1.48c-0.56-0.2-0.98-0.28-1.26-0.22c-0.47,0.07-0.8,0.4-1.01,0.99
		c-0.38,1.03,0.11,1.8,1.47,2.29l3.79,1.38l-0.75,2.05L258.08,180.59z"/>
	<path d="M264.52,168.2c-0.48,0.31-0.78,0.62-0.89,0.92c-0.11,0.31-0.13,0.55-0.08,0.75c0.07,0.2,0.19,0.33,0.36,0.39
		c0.17,0.06,0.34,0.04,0.51-0.08c0.16-0.12,0.45-0.43,0.85-0.92c0.41-0.5,0.76-0.85,1.07-1.05c0.57-0.4,1.22-0.47,1.95-0.21
		c0.74,0.27,1.25,0.78,1.53,1.53c0.29,0.76,0.26,1.59-0.07,2.49c-0.4,1.11-1.14,1.88-2.23,2.33l-0.86-1.53
		c0.78-0.36,1.28-0.83,1.49-1.42c0.19-0.52-0.02-1.07-0.46-1.22c-0.22-0.08-0.41-0.08-0.58,0.02c-0.16,0.1-0.46,0.41-0.89,0.92
		c-0.43,0.52-0.77,0.86-1.03,1.02c-0.52,0.36-1.11,0.42-1.79,0.17c-0.69-0.25-1.15-0.7-1.41-1.35c-0.26-0.65-0.23-1.39,0.07-2.21
		c0.3-0.83,0.84-1.49,1.62-2L264.52,168.2z"/>
	<path d="M264.34,163.39l4.85-0.42l-3.45-3.42l0.84-2.3l6.1,6.5l-0.34,0.92l-8.84,1.02L264.34,163.39z"/>
	<path d="M263.01,153.58c0.12-0.34,0.34-0.59,0.67-0.74c0.33-0.15,0.66-0.16,1-0.04c0.34,0.12,0.59,0.36,0.74,0.68
		c0.16,0.33,0.18,0.67,0.05,1.01c-0.12,0.34-0.35,0.58-0.68,0.74c-0.33,0.15-0.67,0.17-1.01,0.04c-0.34-0.12-0.59-0.36-0.74-0.69
		C262.89,154.26,262.88,153.92,263.01,153.58z M267.7,154.15l7.33,2.67l-0.74,2.04l-7.33-2.67L267.7,154.15z"/>
	<path d="M275.02,146.47l-2,5.49c1.33,0.42,2.2,0.06,2.61-1.08c0.26-0.71,0.14-1.41-0.35-2.1l0.99-1.78
		c1.29,1.19,1.62,2.65,0.98,4.42c-0.44,1.2-1.14,2.02-2.11,2.48c-0.97,0.46-2.04,0.47-3.22,0.04s-2-1.12-2.45-2.08
		c-0.46-0.96-0.47-2.01-0.05-3.18c0.42-1.17,1.11-1.95,2.06-2.37c0.95-0.41,2.03-0.39,3.26,0.06L275.02,146.47z M271.74,151.42
		l1.26-3.47c-1.05-0.13-1.75,0.28-2.09,1.21C270.59,150.07,270.88,150.92,271.74,151.42z"/>
	<path d="M271.95,142.47l4.93-0.39l-3.7-3.61l0.32-0.88l5.22-0.36l-3.58-3.52l0.83-2.29l6.1,6.51l-0.34,0.92l-5.17,0.37l3.73,3.57
		l-0.34,0.94l-8.84,1.04L271.95,142.47z"/>
</g>
<circle fill="#FFFFFF" stroke="#000000" stroke-width="6" stroke-miterlimit="10" cx="293.08" cy="244" r="10"/>
<g>
	<path d="M291.17,216.85l9.37,3.41l1.26-3.47l1.91,0.69l-2.06,5.67l-11.28-4.11L291.17,216.85z"/>
	<path d="M292.89,210.98c0.12-0.34,0.34-0.58,0.67-0.74c0.33-0.15,0.66-0.16,1-0.04s0.59,0.35,0.74,0.68
		c0.16,0.33,0.18,0.67,0.05,1.01c-0.12,0.34-0.35,0.58-0.68,0.74s-0.67,0.17-1.01,0.04c-0.34-0.12-0.59-0.36-0.74-0.69
		C292.77,211.66,292.76,211.32,292.89,210.98z M297.58,211.55l7.33,2.67l-0.74,2.04l-7.33-2.67L297.58,211.55z"/>
	<path d="M298.28,209.62l0.75-2.05l0.92,0.33c-0.61-0.93-0.67-1.72-0.31-2.71c0.33-0.9,0.88-1.5,1.65-1.81
		c0.58-0.23,1.33-0.17,2.24,0.16l4.65,1.69l-0.75,2.05l-4.06-1.48c-0.56-0.2-0.98-0.28-1.26-0.22c-0.47,0.07-0.8,0.4-1.01,0.99
		c-0.38,1.03,0.11,1.8,1.47,2.29l3.79,1.38l-0.75,2.05L298.28,209.62z"/>
	<path d="M305.8,195.93c-0.62,0.38-1.03,0.87-1.24,1.46c-0.21,0.59-0.2,1.14,0.04,1.69c0.24,0.55,0.66,0.92,1.25,1.14
		c0.6,0.22,1.15,0.2,1.69-0.07c0.54-0.26,0.91-0.69,1.13-1.28c0.22-0.59,0.22-1.22,0-1.89l1.99,0.72c0.09,0.71,0.01,1.39-0.22,2.04
		c-0.42,1.14-1.13,1.96-2.16,2.45c-1.01,0.5-2.08,0.54-3.18,0.14c-1.1-0.4-1.89-1.13-2.37-2.17c-0.47-1.04-0.5-2.14-0.09-3.28
		c0.24-0.67,0.62-1.23,1.11-1.7L305.8,195.93z"/>
	<path d="M305.28,189.67c0.45-1.23,1.17-2.1,2.17-2.6c1-0.51,2.08-0.55,3.24-0.13s1.96,1.15,2.39,2.19
		c0.43,1.05,0.43,2.19-0.02,3.43s-1.19,2.11-2.2,2.61c-1.01,0.5-2.09,0.54-3.23,0.12s-1.94-1.15-2.37-2.2
		C304.82,192.04,304.83,190.9,305.28,189.67z M307.11,190.36c-0.21,0.57-0.19,1.13,0.06,1.68c0.25,0.55,0.66,0.93,1.23,1.14
		c0.57,0.21,1.13,0.19,1.67-0.07c0.55-0.26,0.93-0.67,1.13-1.24c0.21-0.57,0.19-1.14-0.07-1.69c-0.25-0.55-0.66-0.92-1.23-1.13
		c-0.57-0.21-1.12-0.18-1.67,0.07C307.7,189.38,307.32,189.79,307.11,190.36z"/>
	<path d="M303,180.03l12.67,4.61l-0.75,2.05l-12.67-4.61L303,180.03z"/>
	<path d="M309.06,180.01l0.75-2.05l0.92,0.33c-0.61-0.93-0.67-1.72-0.31-2.71c0.33-0.9,0.88-1.51,1.65-1.81
		c0.58-0.23,1.33-0.17,2.24,0.16l4.65,1.69l-0.75,2.05l-4.06-1.48c-0.56-0.2-0.98-0.28-1.26-0.22c-0.47,0.07-0.8,0.4-1.01,0.99
		c-0.38,1.03,0.11,1.8,1.47,2.29l3.79,1.38l-0.75,2.05L309.06,180.01z"/>
	<path d="M314.12,159.73l-1.37,3.77l2.51,0.91l1.29-3.53l1.91,0.69l-1.29,3.54l4.96,1.8l-0.8,2.2l-11.28-4.11l2.17-5.97
		L314.12,159.73z"/>
	<path d="M312.78,156.33c0.12-0.34,0.34-0.59,0.67-0.74c0.33-0.15,0.66-0.16,1-0.04c0.34,0.12,0.59,0.35,0.74,0.68
		c0.16,0.33,0.18,0.67,0.05,1.01c-0.12,0.34-0.35,0.58-0.68,0.74c-0.33,0.15-0.67,0.17-1.01,0.04c-0.34-0.12-0.59-0.36-0.74-0.69
		C312.66,157.01,312.65,156.67,312.78,156.33z M317.47,156.9l7.33,2.67l-0.74,2.04l-7.33-2.67L317.47,156.9z"/>
	<path d="M324.79,149.22l-2,5.49c1.33,0.42,2.2,0.06,2.61-1.08c0.26-0.71,0.14-1.41-0.35-2.1l0.99-1.78
		c1.29,1.19,1.62,2.65,0.98,4.42c-0.44,1.2-1.14,2.02-2.11,2.48c-0.97,0.46-2.04,0.47-3.22,0.04s-2-1.12-2.45-2.08
		c-0.45-0.96-0.47-2.01-0.05-3.18c0.42-1.17,1.11-1.95,2.06-2.37s2.03-0.39,3.26,0.06L324.79,149.22z M321.51,154.18l1.26-3.47
		c-1.05-0.13-1.75,0.28-2.09,1.21C320.36,152.82,320.65,153.67,321.51,154.18z"/>
	<path d="M316.78,142.17l12.67,4.61l-0.75,2.05l-12.67-4.61L316.78,142.17z"/>
	<path d="M319.53,134.6l0.75-2.05l12.67,4.61l-0.75,2.05l-0.95-0.35c0.55,0.92,0.66,1.88,0.29,2.88c-0.36,1-1.04,1.71-2.04,2.12
		c-0.99,0.42-2.04,0.43-3.14,0.03c-1.1-0.4-1.91-1.09-2.41-2.04s-0.57-1.93-0.21-2.9c0.35-0.97,1.05-1.66,2.08-2.05L319.53,134.6z
		 M325.82,138.96c-0.21,0.58-0.19,1.14,0.06,1.68c0.25,0.55,0.66,0.92,1.23,1.13c0.57,0.21,1.13,0.19,1.67-0.07
		c0.55-0.26,0.92-0.66,1.13-1.23c0.21-0.56,0.18-1.12-0.07-1.67c-0.25-0.55-0.66-0.92-1.23-1.13c-0.57-0.21-1.12-0.18-1.67,0.06
		C326.41,137.97,326.03,138.39,325.82,138.96z"/>
	<path d="M329.5,129.16c-0.48,0.31-0.78,0.62-0.89,0.92s-0.13,0.55-0.08,0.75c0.07,0.2,0.19,0.33,0.36,0.39
		c0.17,0.06,0.34,0.04,0.5-0.08c0.16-0.12,0.45-0.43,0.85-0.92c0.41-0.5,0.76-0.86,1.07-1.05c0.57-0.4,1.22-0.47,1.95-0.21
		c0.74,0.27,1.25,0.78,1.53,1.53c0.29,0.76,0.26,1.59-0.06,2.49c-0.4,1.11-1.14,1.88-2.23,2.33l-0.86-1.53
		c0.78-0.36,1.28-0.84,1.49-1.42c0.19-0.52-0.02-1.07-0.46-1.22c-0.22-0.08-0.41-0.08-0.58,0.02c-0.16,0.1-0.46,0.4-0.89,0.92
		c-0.43,0.52-0.77,0.86-1.03,1.02c-0.52,0.36-1.11,0.42-1.79,0.17s-1.15-0.7-1.41-1.35c-0.26-0.65-0.23-1.39,0.07-2.21
		s0.84-1.49,1.62-2L329.5,129.16z"/>
</g>
<circle fill="#FFFFFF" stroke="#000000" stroke-width="6" stroke-miterlimit="10" cx="343.85" cy="244" r="10"/>
<g>
	<path d="M352.42,223.16l-11.54-4.2l0.55-1.52l10.35-4.01l-7.6-2.77l0.8-2.2l11.5,4.19l-0.56,1.53l-10.35,4l7.63,2.78L352.42,223.16
		z"/>
	<path d="M356.43,201.79l-2,5.49c1.33,0.42,2.2,0.06,2.61-1.08c0.26-0.71,0.14-1.41-0.35-2.1l0.99-1.78
		c1.29,1.19,1.62,2.66,0.98,4.42c-0.44,1.2-1.14,2.02-2.11,2.48c-0.97,0.46-2.04,0.47-3.22,0.04c-1.18-0.43-2-1.12-2.45-2.08
		c-0.45-0.96-0.47-2.01-0.05-3.18c0.42-1.16,1.11-1.95,2.06-2.37c0.95-0.41,2.03-0.39,3.26,0.06L356.43,201.79z M353.15,206.74
		l1.26-3.47c-1.05-0.13-1.75,0.28-2.09,1.21C351.99,205.39,352.28,206.23,353.15,206.74z"/>
	<path d="M353.36,197.79l4.93-0.38l-3.7-3.61l0.32-0.88l5.22-0.36l-3.58-3.52l0.83-2.29l6.09,6.51l-0.34,0.92l-5.17,0.37l3.73,3.57
		l-0.34,0.94l-8.84,1.04L353.36,197.79z"/>
	<path d="M357.19,174.16c0.61-1.68,1.69-2.88,3.26-3.63c1.56-0.75,3.18-0.82,4.84-0.21c1.66,0.6,2.84,1.7,3.55,3.28
		c0.71,1.58,0.74,3.23,0.12,4.93s-1.71,2.92-3.27,3.65c-1.57,0.73-3.17,0.79-4.82,0.19c-1.65-0.6-2.83-1.7-3.53-3.3
		C356.63,177.47,356.58,175.84,357.19,174.16z M359.19,174.92c-0.38,1.03-0.32,2.06,0.16,3.07c0.48,1.02,1.26,1.72,2.34,2.11
		c1.07,0.39,2.13,0.35,3.15-0.11c1.03-0.46,1.73-1.2,2.11-2.24s0.32-2.07-0.17-3.08c-0.49-1.01-1.28-1.71-2.35-2.1
		c-1.07-0.39-2.12-0.36-3.14,0.1C360.27,173.13,359.57,173.89,359.19,174.92z"/>
	<path d="M372.27,168.61l-0.75,2.05l-7.33-2.67l0.75-2.05l1.11,0.41c-0.72-0.83-0.91-1.71-0.57-2.62c0.11-0.29,0.27-0.57,0.51-0.83
		l1.8,0.98c-0.29,0.24-0.49,0.54-0.6,0.88c-0.43,1.17,0.09,2.03,1.56,2.56L372.27,168.61z"/>
	<path d="M370.61,157.34c-0.62,0.38-1.03,0.87-1.24,1.46c-0.21,0.59-0.2,1.14,0.04,1.69s0.66,0.92,1.25,1.14s1.15,0.2,1.69-0.07
		c0.54-0.26,0.91-0.69,1.13-1.28c0.22-0.59,0.22-1.22,0-1.89l1.99,0.72c0.09,0.71,0.01,1.39-0.22,2.04
		c-0.41,1.14-1.13,1.95-2.16,2.45c-1.01,0.5-2.08,0.54-3.18,0.14c-1.1-0.4-1.89-1.13-2.37-2.17c-0.47-1.04-0.5-2.14-0.09-3.28
		c0.24-0.67,0.62-1.23,1.12-1.7L370.61,157.34z"/>
	<path d="M363.66,152.85l0.75-2.05l6.29,2.29c-0.57-0.89-0.68-1.79-0.35-2.72c0.34-0.92,0.89-1.53,1.67-1.81
		c0.6-0.22,1.36-0.16,2.28,0.17l4.6,1.67l-0.75,2.05l-4-1.46c-0.59-0.21-1.02-0.29-1.3-0.24c-0.48,0.08-0.82,0.41-1.03,0.98
		c-0.38,1.03,0.12,1.8,1.5,2.3l3.76,1.37l-0.75,2.05L363.66,152.85z"/>
	<path d="M374.33,140.17l0.75-2.05l7.33,2.67l-0.75,2.05l-0.95-0.35c0.55,0.92,0.65,1.88,0.29,2.87c-0.36,1-1.04,1.71-2.04,2.12
		c-0.99,0.42-2.04,0.42-3.14,0.03c-1.1-0.4-1.91-1.09-2.41-2.05s-0.57-1.93-0.22-2.9c0.36-0.97,1.05-1.66,2.08-2.05L374.33,140.17z
		 M375.27,142.58c-0.21,0.58-0.19,1.14,0.06,1.68c0.25,0.55,0.66,0.92,1.23,1.13c0.57,0.21,1.13,0.19,1.67-0.07
		c0.55-0.26,0.93-0.66,1.13-1.23s0.18-1.12-0.07-1.67c-0.25-0.55-0.66-0.92-1.23-1.13c-0.57-0.21-1.12-0.18-1.67,0.06
		C375.86,141.6,375.48,142.01,375.27,142.58z"/>
	<path d="M383.86,136.78l-0.75,2.05l-7.33-2.67l0.75-2.05l1.11,0.41c-0.72-0.83-0.91-1.71-0.57-2.62c0.11-0.29,0.27-0.56,0.51-0.83
		l1.8,0.98c-0.28,0.24-0.49,0.53-0.6,0.88c-0.43,1.17,0.09,2.03,1.56,2.56L383.86,136.78z"/>
	<path d="M374.68,122.58l0.75-2.05l12.67,4.61l-0.75,2.05l-0.95-0.35c0.55,0.92,0.65,1.88,0.29,2.87c-0.36,1-1.04,1.71-2.04,2.12
		c-0.99,0.42-2.04,0.42-3.14,0.03c-1.1-0.4-1.91-1.09-2.41-2.05c-0.5-0.96-0.57-1.93-0.22-2.9c0.36-0.97,1.05-1.66,2.08-2.05
		L374.68,122.58z M380.97,126.94c-0.21,0.58-0.19,1.14,0.06,1.68c0.25,0.55,0.66,0.92,1.23,1.13c0.57,0.21,1.13,0.19,1.67-0.07
		c0.55-0.26,0.92-0.66,1.13-1.23c0.2-0.56,0.18-1.12-0.07-1.67c-0.25-0.55-0.66-0.92-1.23-1.13c-0.57-0.21-1.12-0.18-1.67,0.06
		C381.55,125.95,381.17,126.37,380.97,126.94z"/>
</g>
<circle fill="#FFFFFF" stroke="#000000" stroke-width="6" stroke-miterlimit="10" cx="394.62" cy="244" r="10"/>
<g>
	<path d="M395.54,218c0.32,0.12,0.63,0.1,0.91-0.07c0.29-0.17,0.75-0.62,1.4-1.39c0.65-0.76,1.22-1.28,1.72-1.55
		c0.81-0.47,1.73-0.5,2.8-0.11s1.81,1.07,2.23,2.04c0.42,0.97,0.43,2.04,0,3.22c-0.58,1.59-1.77,2.62-3.56,3.09l-0.85-1.92
		c1.19-0.16,1.98-0.77,2.36-1.81c0.18-0.5,0.19-0.98,0.01-1.42c-0.18-0.43-0.5-0.73-0.97-0.91c-0.47-0.17-0.92-0.11-1.35,0.19
		c-0.21,0.14-0.66,0.62-1.33,1.43c-0.68,0.81-1.33,1.34-1.94,1.6c-0.61,0.25-1.29,0.24-2.03-0.03c-0.95-0.35-1.61-0.96-1.99-1.86
		s-0.39-1.84-0.02-2.86c0.46-1.25,1.28-2.21,2.46-2.86l1.08,1.7c-0.81,0.31-1.33,0.81-1.57,1.5c-0.17,0.45-0.18,0.87-0.05,1.26
		C394.99,217.63,395.22,217.88,395.54,218z"/>
	<path d="M393.74,209.68l0.75-2.05l6.29,2.29c-0.56-0.89-0.69-1.79-0.35-2.72c0.34-0.93,0.89-1.53,1.67-1.81
		c0.6-0.22,1.36-0.16,2.28,0.17l4.6,1.67l-0.75,2.05l-4-1.46c-0.59-0.21-1.02-0.29-1.3-0.24c-0.48,0.08-0.82,0.41-1.03,0.98
		c-0.38,1.03,0.12,1.8,1.5,2.3l3.76,1.37l-0.75,2.05L393.74,209.68z"/>
	<path d="M408.99,196.87l-2,5.49c1.33,0.42,2.2,0.06,2.61-1.08c0.26-0.71,0.14-1.41-0.35-2.1l0.99-1.78
		c1.29,1.19,1.62,2.65,0.98,4.42c-0.44,1.2-1.14,2.02-2.11,2.48c-0.97,0.46-2.04,0.47-3.22,0.04s-2-1.12-2.45-2.08
		c-0.45-0.96-0.47-2.01-0.05-3.18c0.42-1.17,1.11-1.95,2.06-2.37c0.95-0.41,2.03-0.39,3.26,0.06L408.99,196.87z M405.71,201.82
		l1.26-3.47c-1.05-0.13-1.75,0.28-2.09,1.21C404.55,200.47,404.85,201.31,405.71,201.82z"/>
	<path d="M413.63,194.48l-0.75,2.05l-7.33-2.67l0.75-2.05l1.11,0.41c-0.72-0.83-0.91-1.71-0.57-2.62c0.11-0.29,0.27-0.57,0.51-0.83
		l1.8,0.98c-0.29,0.24-0.49,0.54-0.6,0.88c-0.43,1.17,0.09,2.03,1.56,2.56L413.63,194.48z"/>
	<path d="M403.2,183.72l6.29,2.29c-0.54-0.97-0.63-1.95-0.27-2.92s1.03-1.67,2.02-2.08s2.04-0.42,3.16-0.01
		c1.11,0.41,1.92,1.08,2.41,2.04c0.49,0.96,0.56,1.93,0.2,2.93c-0.36,1-1.06,1.67-2.08,2.02l0.95,0.35l-0.75,2.05l-12.67-4.61
		L403.2,183.72z M410.82,184.41c-0.21,0.57-0.18,1.12,0.07,1.67c0.25,0.55,0.66,0.92,1.23,1.13c0.57,0.21,1.13,0.19,1.67-0.07
		c0.55-0.26,0.92-0.66,1.13-1.23c0.2-0.56,0.18-1.12-0.07-1.67c-0.25-0.55-0.65-0.93-1.22-1.14c-0.57-0.21-1.12-0.18-1.67,0.07
		C411.4,183.44,411.02,183.84,410.82,184.41z"/>
	<path d="M412.46,174.18c0.45-1.23,1.17-2.1,2.17-2.6c1-0.51,2.08-0.55,3.24-0.13s1.96,1.15,2.39,2.19
		c0.43,1.05,0.43,2.19-0.02,3.43c-0.45,1.25-1.19,2.11-2.2,2.61c-1.01,0.5-2.09,0.54-3.23,0.12c-1.15-0.42-1.94-1.15-2.37-2.2
		S412.01,175.41,412.46,174.18z M414.29,174.88c-0.21,0.57-0.19,1.13,0.06,1.68s0.66,0.93,1.23,1.14c0.57,0.21,1.13,0.19,1.67-0.07
		c0.55-0.26,0.93-0.67,1.13-1.24s0.19-1.14-0.07-1.69c-0.25-0.55-0.66-0.92-1.23-1.13c-0.57-0.21-1.12-0.18-1.67,0.07
		C414.87,173.89,414.5,174.3,414.29,174.88z"/>
	<path d="M415.52,166.48l4.15,1.51c1.12,0.41,1.86,0.11,2.22-0.88c0.36-1-0.02-1.7-1.13-2.11l-4.15-1.51l0.75-2.05l4.49,1.63
		c1.98,0.72,2.62,2.38,1.79,4.66c-0.83,2.28-2.39,3.15-4.37,2.43l-4.49-1.63L415.52,166.48z"/>
	<path d="M426.14,160.11l-0.75,2.05l-7.33-2.67l0.75-2.05l1.12,0.41c-0.72-0.83-0.91-1.71-0.57-2.62c0.1-0.29,0.27-0.57,0.51-0.83
		l1.8,0.98c-0.28,0.24-0.48,0.54-0.6,0.88c-0.43,1.17,0.09,2.03,1.56,2.56L426.14,160.11z"/>
	<path d="M420.31,153.34l0.75-2.05l0.92,0.33c-0.61-0.93-0.67-1.72-0.31-2.71c0.33-0.9,0.88-1.5,1.65-1.81
		c0.58-0.23,1.33-0.17,2.24,0.16l4.65,1.69l-0.75,2.05l-4.06-1.48c-0.56-0.2-0.98-0.28-1.26-0.22c-0.47,0.07-0.8,0.4-1.01,0.99
		c-0.38,1.03,0.11,1.8,1.47,2.29l3.79,1.38l-0.75,2.05L420.31,153.34z"/>
	<path d="M430.2,138.58l-2,5.49c1.33,0.42,2.2,0.06,2.61-1.08c0.26-0.71,0.14-1.41-0.35-2.1l0.99-1.78
		c1.29,1.19,1.62,2.65,0.98,4.42c-0.44,1.2-1.14,2.02-2.11,2.48c-0.97,0.46-2.04,0.47-3.22,0.04c-1.18-0.43-2-1.12-2.45-2.08
		c-0.46-0.96-0.47-2.01-0.05-3.18c0.42-1.16,1.11-1.95,2.06-2.37c0.95-0.41,2.03-0.39,3.26,0.06L430.2,138.58z M426.92,143.53
		l1.26-3.47c-1.05-0.13-1.75,0.28-2.09,1.21C425.77,142.17,426.06,143.02,426.92,143.53z"/>
</g>
<circle fill="#FFFFFF" stroke="#000000" stroke-width="6" stroke-miterlimit="10" cx="445.38" cy="244" r="10"/>
<g>
	<path d="M454.76,220.96l-0.8,2.2l-11.28-4.11l0.8-2.2l4.77,1.74l-3.26-5.88l1.01-2.78l3.47,6.67l7.9-2.81l-1.05,2.89l-6.53,2.16
		l0.17,0.37L454.76,220.96z"/>
	<path d="M446.5,207.38c0.12-0.34,0.34-0.59,0.67-0.74s0.66-0.16,1-0.04c0.34,0.12,0.59,0.36,0.74,0.68
		c0.16,0.33,0.18,0.67,0.05,1.01c-0.12,0.34-0.35,0.58-0.68,0.74s-0.67,0.17-1.01,0.04c-0.34-0.12-0.59-0.35-0.74-0.69
		C446.39,208.05,446.38,207.71,446.5,207.38z M451.2,207.95l7.33,2.67l-0.74,2.04l-7.33-2.67L451.2,207.95z"/>
	<path d="M456.14,201.34c-0.62,0.38-1.03,0.87-1.24,1.46c-0.21,0.59-0.2,1.14,0.04,1.69c0.24,0.55,0.66,0.92,1.25,1.14
		c0.59,0.22,1.15,0.2,1.69-0.07c0.54-0.26,0.91-0.69,1.13-1.28c0.22-0.59,0.22-1.22,0-1.89l1.99,0.72c0.09,0.71,0.01,1.39-0.22,2.04
		c-0.42,1.14-1.13,1.95-2.16,2.45c-1.01,0.5-2.08,0.54-3.18,0.14c-1.1-0.4-1.89-1.13-2.37-2.17c-0.47-1.04-0.5-2.14-0.09-3.28
		c0.24-0.67,0.62-1.23,1.11-1.7L456.14,201.34z"/>
	<path d="M449.18,196.86l0.75-2.05l6.29,2.29c-0.56-0.89-0.68-1.79-0.35-2.72c0.34-0.92,0.89-1.53,1.67-1.81
		c0.6-0.22,1.36-0.16,2.28,0.17l4.6,1.67l-0.75,2.05l-4.01-1.46c-0.59-0.21-1.02-0.29-1.3-0.24c-0.48,0.08-0.82,0.41-1.03,0.98
		c-0.38,1.03,0.12,1.8,1.5,2.3l3.76,1.37l-0.75,2.05L449.18,196.86z"/>
	<path d="M453.84,187.21c0.12-0.34,0.34-0.58,0.67-0.74c0.33-0.15,0.66-0.16,1-0.04c0.34,0.12,0.59,0.36,0.74,0.68
		c0.16,0.33,0.18,0.67,0.05,1.01c-0.12,0.34-0.35,0.58-0.68,0.74s-0.67,0.17-1.01,0.04c-0.34-0.12-0.59-0.36-0.74-0.69
		C453.73,187.89,453.72,187.55,453.84,187.21z M458.54,187.78l7.33,2.67l-0.74,2.04l-7.33-2.67L458.54,187.78z"/>
	<path d="M469.19,175.38l1.91,0.69l-3.22,8.85l-7.37-8.93l-1.7,4.66l-1.91-0.7l3.02-8.29l7.37,8.91L469.19,175.38z"/>
	<path d="M460.33,171.77l-0.41-1.83l3.3-1.1l0.32,1.23L460.33,171.77z M465.11,169.71l7.33,2.67l-0.75,2.05l-7.33-2.67
		L465.11,169.71z"/>
	<path d="M461.22,163.8l6.29,2.29c-0.54-0.97-0.63-1.95-0.27-2.92s1.03-1.67,2.02-2.08c0.99-0.42,2.04-0.42,3.16-0.01
		c1.11,0.41,1.92,1.08,2.41,2.04c0.49,0.96,0.56,1.93,0.2,2.93c-0.36,1-1.06,1.67-2.08,2.02l0.95,0.35l-0.75,2.05l-12.67-4.61
		L461.22,163.8z M468.84,164.49c-0.21,0.57-0.18,1.12,0.07,1.67c0.25,0.55,0.66,0.92,1.23,1.13c0.57,0.21,1.13,0.19,1.67-0.07
		c0.55-0.26,0.92-0.67,1.13-1.23c0.2-0.56,0.18-1.12-0.07-1.67c-0.25-0.55-0.65-0.93-1.22-1.14c-0.57-0.21-1.12-0.18-1.67,0.07
		C469.42,163.52,469.04,163.92,468.84,164.49z"/>
	<path d="M465.27,158.19l-0.41-1.83l3.3-1.1l0.32,1.23L465.27,158.19z M470.05,156.13l7.33,2.67l-0.75,2.05l-7.33-2.67
		L470.05,156.13z"/>
</g>
<circle fill="#FFFFFF" stroke="#000000" stroke-width="6" stroke-miterlimit="10" cx="496.15" cy="244" r="10"/>
<g>
	<path d="M493.82,218.02l8.6,0.26l-6.78-5.59l0.44-1.2l8.73,0.21l-6.7-5.5l0.84-2.32l9.96,8.43l-0.56,1.54l-8.29-0.18l6.42,5.32
		l-0.56,1.54l-12.96-0.2L493.82,218.02z"/>
	<path d="M509.66,199.24l-2,5.49c1.33,0.42,2.2,0.06,2.61-1.08c0.26-0.71,0.14-1.41-0.35-2.1l0.99-1.78
		c1.29,1.19,1.62,2.66,0.98,4.42c-0.44,1.2-1.14,2.02-2.11,2.48c-0.97,0.46-2.04,0.47-3.22,0.04c-1.18-0.43-2-1.12-2.45-2.08
		c-0.46-0.96-0.47-2.01-0.05-3.18c0.42-1.17,1.11-1.95,2.06-2.37c0.95-0.41,2.03-0.39,3.26,0.06L509.66,199.24z M506.38,204.19
		l1.26-3.47c-1.05-0.13-1.75,0.28-2.09,1.21C505.23,202.84,505.52,203.68,506.38,204.19z"/>
	<path d="M509.35,192.96c-0.48,0.31-0.78,0.62-0.89,0.92c-0.11,0.3-0.13,0.55-0.08,0.75c0.07,0.2,0.19,0.33,0.36,0.39
		c0.17,0.06,0.34,0.04,0.5-0.08c0.16-0.12,0.45-0.43,0.85-0.93c0.41-0.5,0.76-0.85,1.07-1.05c0.57-0.4,1.22-0.47,1.95-0.21
		c0.74,0.27,1.25,0.78,1.53,1.53c0.29,0.76,0.26,1.59-0.06,2.49c-0.4,1.11-1.14,1.88-2.23,2.33l-0.86-1.53
		c0.78-0.36,1.28-0.83,1.49-1.42c0.19-0.52-0.02-1.06-0.46-1.22c-0.22-0.08-0.41-0.08-0.58,0.02c-0.16,0.1-0.46,0.4-0.89,0.92
		c-0.43,0.52-0.77,0.86-1.03,1.02c-0.52,0.36-1.11,0.42-1.79,0.17c-0.69-0.25-1.15-0.7-1.41-1.35c-0.26-0.65-0.23-1.38,0.07-2.21
		s0.84-1.49,1.62-2L509.35,192.96z"/>
	<path d="M511.27,187.92l5.55,2.02l-0.75,2.05l-5.55-2.02l-0.29,0.81l-1.78-0.65l0.29-0.81l-2.5-0.91l0.75-2.05l2.5,0.91l0.53-1.45
		l1.78,0.65L511.27,187.92z"/>
	<path d="M505.8,180.79l6.29,2.29c-0.54-0.97-0.63-1.95-0.27-2.92c0.35-0.97,1.03-1.67,2.02-2.08c0.99-0.41,2.04-0.42,3.16-0.01
		c1.11,0.41,1.92,1.08,2.41,2.04s0.56,1.93,0.2,2.93c-0.36,1-1.06,1.67-2.08,2.02l0.95,0.35l-0.75,2.05l-12.67-4.61L505.8,180.79z
		 M513.42,181.48c-0.21,0.57-0.18,1.12,0.07,1.67c0.25,0.55,0.67,0.92,1.23,1.13c0.57,0.21,1.13,0.19,1.67-0.07
		c0.55-0.26,0.92-0.66,1.13-1.23c0.2-0.56,0.18-1.12-0.07-1.67c-0.25-0.55-0.65-0.93-1.22-1.14c-0.57-0.21-1.12-0.18-1.67,0.07
		C514,180.51,513.63,180.91,513.42,181.48z"/>
	<path d="M515.06,171.25c0.45-1.23,1.17-2.1,2.17-2.6c1-0.51,2.08-0.55,3.24-0.13s1.96,1.15,2.39,2.19
		c0.43,1.05,0.43,2.19-0.02,3.43c-0.45,1.25-1.19,2.11-2.2,2.61c-1.01,0.5-2.09,0.54-3.23,0.12c-1.15-0.42-1.94-1.15-2.37-2.2
		C514.6,173.62,514.61,172.48,515.06,171.25z M516.89,171.94c-0.21,0.57-0.19,1.13,0.06,1.68s0.66,0.93,1.23,1.14
		c0.57,0.21,1.13,0.19,1.67-0.07c0.55-0.26,0.93-0.67,1.14-1.24c0.21-0.57,0.19-1.14-0.07-1.69c-0.25-0.55-0.66-0.92-1.23-1.13
		c-0.57-0.21-1.12-0.18-1.67,0.07C517.48,170.96,517.1,171.37,516.89,171.94z"/>
	<path d="M525.45,166.22l-0.75,2.05l-7.33-2.67l0.75-2.05l1.12,0.41c-0.72-0.83-0.91-1.71-0.57-2.62c0.1-0.29,0.27-0.57,0.51-0.83
		l1.8,0.98c-0.28,0.24-0.48,0.54-0.6,0.88c-0.43,1.17,0.09,2.03,1.56,2.56L525.45,166.22z"/>
	<path d="M520.73,155.69c0.45-1.23,1.18-2.1,2.17-2.6c1-0.51,2.08-0.55,3.24-0.13s1.96,1.15,2.39,2.19
		c0.43,1.05,0.43,2.19-0.02,3.43c-0.45,1.25-1.19,2.11-2.2,2.61c-1.01,0.5-2.09,0.54-3.23,0.12c-1.15-0.42-1.94-1.15-2.37-2.2
		C520.26,158.06,520.28,156.92,520.73,155.69z M522.56,156.38c-0.21,0.57-0.19,1.13,0.06,1.68c0.25,0.55,0.66,0.93,1.23,1.14
		c0.57,0.21,1.13,0.19,1.67-0.07c0.55-0.26,0.93-0.67,1.13-1.24c0.21-0.57,0.19-1.14-0.07-1.69c-0.25-0.55-0.66-0.92-1.23-1.13
		c-0.57-0.21-1.12-0.18-1.67,0.07C523.14,155.4,522.77,155.81,522.56,156.38z"/>
</g>
<circle fill="#FFFFFF" stroke="#000000" stroke-width="6" stroke-miterlimit="10" cx="546.92" cy="244" r="10"/>
<g>
	<path d="M556.78,219.62l-0.8,2.21l-9.37-3.41l-0.92,2.52l-1.91-0.69l2.64-7.26l1.91,0.69l-0.92,2.54L556.78,219.62z"/>
	<path d="M551.31,211.85l4.15,1.51c1.11,0.41,1.86,0.12,2.22-0.88c0.36-1-0.02-1.7-1.13-2.1l-4.15-1.51l0.75-2.05l4.49,1.63
		c1.98,0.72,2.62,2.38,1.79,4.66c-0.83,2.28-2.39,3.15-4.37,2.43l-4.48-1.63L551.31,211.85z"/>
	<path d="M553.86,204.86l0.75-2.05l0.92,0.33c-0.61-0.93-0.67-1.72-0.31-2.71c0.33-0.9,0.88-1.5,1.65-1.81
		c0.58-0.23,1.33-0.17,2.24,0.16l4.65,1.69l-0.75,2.05l-4.06-1.48c-0.56-0.2-0.98-0.28-1.26-0.22c-0.47,0.07-0.8,0.4-1.01,0.99
		c-0.38,1.03,0.11,1.8,1.47,2.29l3.79,1.38l-0.75,2.05L553.86,204.86z"/>
	<path d="M557.14,195.84l0.75-2.05l0.92,0.33c-0.61-0.93-0.67-1.72-0.31-2.71c0.33-0.9,0.88-1.5,1.65-1.81
		c0.58-0.23,1.33-0.17,2.24,0.16l4.65,1.69l-0.75,2.05l-4.06-1.48c-0.56-0.21-0.98-0.28-1.26-0.22c-0.47,0.07-0.8,0.4-1.01,0.99
		c-0.38,1.03,0.11,1.8,1.47,2.29l3.79,1.38l-0.75,2.05L557.14,195.84z"/>
	<path d="M567.04,181.09l-2,5.49c1.33,0.42,2.2,0.06,2.61-1.08c0.26-0.71,0.14-1.41-0.35-2.1l0.99-1.78
		c1.29,1.19,1.62,2.65,0.98,4.42c-0.44,1.2-1.14,2.02-2.11,2.48s-2.04,0.47-3.22,0.04c-1.18-0.43-2-1.12-2.45-2.08
		c-0.45-0.96-0.47-2.01-0.05-3.18c0.42-1.17,1.11-1.95,2.06-2.37s2.03-0.39,3.26,0.06L567.04,181.09z M563.76,186.04l1.26-3.47
		c-1.05-0.13-1.75,0.28-2.09,1.21C562.61,184.68,562.9,185.53,563.76,186.04z"/>
	<path d="M570.59,178.23l-7.47,1.21l0.87-2.39l4.96-0.68l-3.41-3.6l0.86-2.35l9.08,10.01l-0.84,2.32L570.59,178.23z"/>
	<path d="M563.21,166.17l0.91-1.8l3.63,4.02l-0.65,1.24L563.21,166.17z"/>
	<path d="M571.73,161.08c-0.48,0.31-0.78,0.62-0.89,0.92s-0.13,0.55-0.08,0.75c0.07,0.2,0.19,0.33,0.36,0.39
		c0.17,0.06,0.34,0.04,0.5-0.08c0.16-0.12,0.45-0.43,0.85-0.92c0.41-0.5,0.76-0.85,1.07-1.05c0.57-0.4,1.22-0.47,1.95-0.21
		c0.74,0.27,1.25,0.78,1.53,1.53c0.29,0.76,0.26,1.59-0.06,2.49c-0.4,1.11-1.14,1.88-2.23,2.33l-0.86-1.53
		c0.78-0.36,1.28-0.84,1.49-1.42c0.19-0.52-0.02-1.07-0.46-1.22c-0.22-0.08-0.41-0.08-0.58,0.02c-0.16,0.1-0.46,0.41-0.89,0.92
		c-0.43,0.52-0.77,0.86-1.03,1.02c-0.52,0.36-1.11,0.42-1.79,0.17s-1.15-0.7-1.41-1.35c-0.26-0.65-0.23-1.39,0.07-2.21
		c0.3-0.83,0.84-1.49,1.62-2L571.73,161.08z"/>
	<path d="M576.66,152.01l4.18,1.52l-0.8,2.2l-11.28-4.11l1.2-3.29c0.27-0.74,0.55-1.3,0.83-1.7c0.29-0.4,0.67-0.72,1.11-0.97
		c0.97-0.52,2-0.57,3.06-0.19s1.82,1.02,2.26,1.88c0.44,0.86,0.42,1.94-0.05,3.24L576.66,152.01z M574.75,151.32l0.33-0.89
		c0.5-1.38,0.21-2.26-0.88-2.66c-1.15-0.42-1.89,0.05-2.46,1.59l-0.28,0.76L574.75,151.32z"/>
	<path d="M577.81,139.05l0.75-2.05l7.33,2.67l-0.75,2.05l-0.95-0.35c0.55,0.92,0.66,1.88,0.29,2.87c-0.36,1-1.04,1.71-2.04,2.12
		s-2.04,0.42-3.14,0.03c-1.1-0.4-1.91-1.09-2.41-2.05c-0.5-0.96-0.57-1.93-0.22-2.9s1.05-1.66,2.08-2.05L577.81,139.05z
		 M578.76,141.46c-0.21,0.58-0.19,1.14,0.06,1.68c0.25,0.55,0.66,0.92,1.23,1.13c0.57,0.21,1.13,0.19,1.67-0.07
		c0.55-0.26,0.92-0.66,1.13-1.23c0.2-0.56,0.18-1.12-0.07-1.67c-0.25-0.55-0.66-0.92-1.23-1.13c-0.57-0.21-1.12-0.18-1.67,0.06
		C579.34,140.47,578.97,140.89,578.76,141.46z"/>
	<path d="M582.43,131.69c-0.48,0.31-0.78,0.62-0.89,0.92c-0.11,0.31-0.13,0.55-0.08,0.75c0.07,0.2,0.19,0.33,0.36,0.39
		c0.17,0.06,0.34,0.04,0.51-0.08c0.16-0.12,0.45-0.43,0.85-0.92c0.41-0.5,0.76-0.85,1.07-1.05c0.57-0.4,1.22-0.47,1.96-0.21
		c0.73,0.27,1.25,0.78,1.53,1.53c0.29,0.76,0.26,1.59-0.07,2.49c-0.4,1.11-1.14,1.88-2.23,2.33l-0.86-1.53
		c0.78-0.36,1.28-0.83,1.49-1.42c0.19-0.52-0.02-1.07-0.46-1.22c-0.22-0.08-0.41-0.08-0.58,0.02c-0.16,0.1-0.46,0.4-0.89,0.92
		s-0.77,0.86-1.03,1.02c-0.52,0.36-1.11,0.42-1.79,0.17s-1.15-0.7-1.41-1.35c-0.26-0.65-0.23-1.39,0.07-2.21
		c0.3-0.83,0.84-1.49,1.62-2L582.43,131.69z"/>
	<path d="M584.34,126.64l5.55,2.02l-0.75,2.05l-5.55-2.02l-0.29,0.81l-1.78-0.65l0.29-0.81l-2.5-0.91l0.75-2.05l2.5,0.91l0.53-1.45
		l1.78,0.65L584.34,126.64z"/>
	<path d="M584.24,121.39l4.15,1.51c1.12,0.41,1.86,0.11,2.22-0.88c0.36-1-0.02-1.7-1.13-2.1l-4.15-1.51l0.75-2.05l4.49,1.63
		c1.98,0.72,2.62,2.38,1.79,4.66c-0.83,2.28-2.39,3.15-4.37,2.43l-4.49-1.63L584.24,121.39z"/>
	<path d="M594.86,115.01l-0.75,2.05l-7.33-2.67l0.75-2.05l1.11,0.41c-0.72-0.83-0.91-1.71-0.57-2.62c0.11-0.29,0.27-0.57,0.51-0.83
		l1.8,0.98c-0.28,0.24-0.49,0.53-0.6,0.88c-0.43,1.17,0.09,2.03,1.56,2.56L594.86,115.01z"/>
	<path d="M595.6,102.61l-2,5.49c1.33,0.42,2.2,0.06,2.61-1.08c0.26-0.71,0.14-1.41-0.35-2.1l0.99-1.78
		c1.29,1.19,1.62,2.65,0.98,4.42c-0.44,1.2-1.14,2.02-2.11,2.48s-2.04,0.47-3.22,0.04c-1.18-0.43-2-1.12-2.45-2.08
		c-0.45-0.96-0.47-2.01-0.05-3.18c0.42-1.16,1.11-1.95,2.06-2.37c0.95-0.41,2.03-0.39,3.26,0.06L595.6,102.61z M592.32,107.56
		l1.26-3.47c-1.05-0.13-1.75,0.28-2.09,1.21C591.17,106.21,591.46,107.05,592.32,107.56z"/>
</g>
<circle fill="#FFFFFF" stroke="#000000" stroke-width="6" stroke-miterlimit="10" cx="597.69" cy="244" r="10"/>
<g>
	<path d="M606.27,223.16l-11.28-4.11l1.02-2.79c0.46-1.27,1.02-2.11,1.68-2.5c0.77-0.48,1.67-0.54,2.67-0.18
		c0.62,0.23,1.11,0.56,1.46,1.01c0.16,0.23,0.28,0.59,0.38,1.06c0.4-0.62,0.81-1.02,1.25-1.21c0.73-0.34,1.56-0.35,2.47-0.02
		c0.92,0.33,1.55,0.94,1.9,1.8c0.35,0.87,0.3,1.91-0.15,3.14L606.27,223.16z M600.48,218.56l0.23-0.63
		c0.42-1.14,0.13-1.89-0.84-2.24s-1.67,0.03-2.07,1.14l-0.24,0.66L600.48,218.56z M605.29,220.31l0.35-0.95
		c0.53-1.46,0.28-2.39-0.75-2.76c-0.57-0.21-1.07-0.14-1.5,0.2c-0.33,0.24-0.64,0.76-0.93,1.54l-0.3,0.83L605.29,220.31z"/>
	<path d="M604.38,205.56l0.75-2.05l7.33,2.67l-0.75,2.05l-0.95-0.35c0.55,0.92,0.65,1.88,0.29,2.87c-0.36,1-1.04,1.71-2.04,2.12
		c-0.99,0.42-2.04,0.42-3.14,0.03c-1.1-0.4-1.91-1.09-2.41-2.05s-0.57-1.93-0.22-2.9c0.36-0.97,1.05-1.66,2.08-2.05L604.38,205.56z
		 M605.32,207.97c-0.21,0.58-0.19,1.14,0.06,1.68c0.25,0.55,0.66,0.92,1.23,1.13c0.57,0.21,1.13,0.19,1.67-0.07
		c0.55-0.26,0.92-0.66,1.13-1.23c0.2-0.56,0.18-1.12-0.07-1.67c-0.25-0.55-0.66-0.92-1.23-1.13c-0.57-0.21-1.12-0.18-1.67,0.06
		C605.9,206.98,605.53,207.4,605.32,207.97z"/>
	<path d="M612.96,201.29l-7.47,1.21l0.87-2.39l4.96-0.68l-3.4-3.6l0.86-2.35l9.08,10.01l-0.84,2.32L612.96,201.29z"/>
	<path d="M609.62,191.15l4.85-0.42l-3.45-3.42l0.84-2.3l6.1,6.49l-0.34,0.93l-8.84,1.02L609.62,191.15z"/>
	<path d="M608.29,181.34c0.12-0.34,0.34-0.59,0.67-0.74c0.33-0.15,0.66-0.16,1-0.04s0.59,0.36,0.74,0.68
		c0.16,0.33,0.18,0.67,0.05,1.01c-0.12,0.34-0.35,0.58-0.68,0.73c-0.33,0.15-0.67,0.17-1.01,0.04s-0.59-0.36-0.74-0.69
		C608.17,182.01,608.17,181.67,608.29,181.34z M612.98,181.91l7.33,2.67l-0.74,2.04l-7.33-2.67L612.98,181.91z"/>
	<path d="M620.3,174.23l-2,5.49c1.33,0.42,2.2,0.06,2.61-1.08c0.26-0.71,0.14-1.41-0.35-2.1l0.99-1.78
		c1.29,1.19,1.62,2.66,0.98,4.42c-0.44,1.2-1.14,2.02-2.11,2.48c-0.97,0.46-2.04,0.47-3.22,0.04c-1.18-0.43-2-1.12-2.45-2.08
		c-0.45-0.96-0.47-2.01-0.05-3.18c0.42-1.16,1.11-1.95,2.06-2.37c0.95-0.41,2.03-0.39,3.26,0.06L620.3,174.23z M617.02,179.18
		l1.26-3.47c-1.05-0.13-1.75,0.28-2.09,1.21C615.87,177.83,616.16,178.67,617.02,179.18z"/>
	<path d="M617.23,170.22l4.93-0.38l-3.7-3.61l0.32-0.88l5.22-0.36l-3.58-3.52l0.83-2.29l6.09,6.51l-0.34,0.92l-5.17,0.37l3.73,3.57
		l-0.34,0.94l-8.84,1.04L617.23,170.22z"/>
</g>
<circle fill="#FFFFFF" stroke="#000000" stroke-width="6" stroke-miterlimit="10" cx="648.46" cy="244" r="10"/>
<g>
	<path d="M653.65,219.44l4.18,1.52l-0.8,2.2l-11.28-4.11l1.2-3.3c0.27-0.73,0.55-1.3,0.83-1.7c0.29-0.4,0.66-0.72,1.11-0.97
		c0.97-0.52,2-0.57,3.06-0.19s1.82,1.02,2.26,1.88c0.44,0.86,0.42,1.94-0.05,3.24L653.65,219.44z M651.75,218.74l0.32-0.89
		c0.5-1.38,0.21-2.26-0.88-2.66c-1.15-0.42-1.89,0.05-2.46,1.59l-0.28,0.76L651.75,218.74z"/>
	<path d="M648.92,209.19c0.12-0.34,0.34-0.59,0.67-0.74s0.66-0.16,1-0.04c0.34,0.12,0.59,0.36,0.74,0.68
		c0.16,0.33,0.18,0.67,0.05,1.01s-0.35,0.58-0.68,0.74s-0.67,0.17-1.01,0.04c-0.34-0.12-0.59-0.36-0.74-0.69
		C648.81,209.86,648.8,209.52,648.92,209.19z M653.61,209.76l7.33,2.67l-0.74,2.04l-7.33-2.67L653.61,209.76z"/>
	<path d="M660.33,202.4l3.76,1.37l-0.75,2.05l-3.89-1.42c-0.57-0.21-0.99-0.31-1.25-0.3c-0.26,0.01-0.49,0.09-0.7,0.25
		s-0.35,0.36-0.44,0.59c-0.17,0.46-0.07,1.04,0.3,1.47c0.18,0.22,0.61,0.44,1.26,0.67l3.76,1.37l-0.75,2.05l-7.33-2.67l0.75-2.05
		l0.85,0.31c-0.49-0.9-0.57-1.81-0.23-2.73c0.34-0.92,1.05-1.49,2.12-1.69c-0.68-0.9-0.84-1.84-0.49-2.82
		c0.36-0.98,0.97-1.56,1.83-1.73c0.52-0.1,1.15-0.02,1.92,0.26l4.73,1.72l-0.75,2.05l-4-1.46c-0.53-0.19-0.94-0.28-1.23-0.26
		c-0.5,0.03-0.84,0.3-1.02,0.8C658.44,201.17,658.96,201.89,660.33,202.4z"/>
	<path d="M655.22,191.89c0.12-0.34,0.34-0.59,0.67-0.74c0.33-0.15,0.66-0.16,1-0.04s0.59,0.36,0.74,0.68
		c0.16,0.33,0.18,0.67,0.05,1.01c-0.12,0.34-0.35,0.58-0.68,0.73c-0.33,0.15-0.67,0.17-1.01,0.04s-0.59-0.36-0.74-0.69
		C655.1,192.57,655.09,192.23,655.22,191.89z M659.91,192.47l7.33,2.67l-0.74,2.04l-7.33-2.67L659.91,192.47z"/>
	<path d="M663.78,187.15c-0.48,0.31-0.78,0.61-0.89,0.92c-0.11,0.3-0.13,0.55-0.08,0.75c0.07,0.2,0.19,0.33,0.36,0.39
		c0.17,0.06,0.34,0.04,0.51-0.08c0.16-0.12,0.45-0.43,0.85-0.93s0.76-0.85,1.07-1.05c0.57-0.4,1.22-0.47,1.96-0.21
		c0.73,0.27,1.25,0.78,1.53,1.53c0.29,0.76,0.26,1.59-0.07,2.49c-0.4,1.11-1.14,1.88-2.23,2.33l-0.86-1.53
		c0.78-0.36,1.28-0.83,1.49-1.42c0.19-0.52-0.02-1.06-0.46-1.22c-0.22-0.08-0.41-0.08-0.58,0.02c-0.16,0.1-0.46,0.4-0.89,0.92
		s-0.77,0.86-1.03,1.02c-0.52,0.36-1.11,0.42-1.79,0.17c-0.69-0.25-1.15-0.7-1.41-1.35c-0.26-0.65-0.23-1.38,0.07-2.21
		s0.84-1.49,1.62-2L663.78,187.15z"/>
	<path d="M659.14,181.1c0.12-0.34,0.34-0.58,0.67-0.74c0.33-0.15,0.66-0.16,1-0.04s0.59,0.36,0.74,0.68
		c0.16,0.33,0.18,0.67,0.05,1.01c-0.12,0.34-0.35,0.58-0.68,0.74c-0.33,0.15-0.67,0.17-1.01,0.04s-0.59-0.36-0.74-0.69
		C659.03,181.78,659.02,181.44,659.14,181.1z M663.83,181.68l7.33,2.67l-0.74,2.04l-7.33-2.67L663.83,181.68z"/>
</g>
<circle fill="#FFFFFF" stroke="#000000" stroke-width="6" stroke-miterlimit="10" cx="699.23" cy="244" r="10"/>
<g>
	<path d="M697.32,216.85l9.37,3.41l1.26-3.47l1.91,0.69l-2.06,5.67l-11.28-4.11L697.32,216.85z"/>
	<path d="M709.81,214.18l-7.47,1.21l0.87-2.39l4.96-0.68l-3.41-3.6l0.86-2.35l9.08,10.01l-0.84,2.32L709.81,214.18z"/>
	<path d="M706.99,201.87c0.45-1.23,1.18-2.1,2.17-2.6c1-0.51,2.08-0.55,3.24-0.13s1.96,1.15,2.39,2.19
		c0.43,1.05,0.43,2.19-0.02,3.43c-0.46,1.25-1.19,2.11-2.21,2.61c-1.01,0.5-2.09,0.54-3.23,0.12c-1.15-0.42-1.94-1.15-2.37-2.2
		C706.53,204.25,706.54,203.1,706.99,201.87z M708.82,202.57c-0.21,0.57-0.19,1.13,0.06,1.68c0.25,0.55,0.66,0.93,1.23,1.14
		c0.57,0.21,1.13,0.19,1.67-0.07c0.55-0.26,0.93-0.67,1.13-1.24c0.21-0.57,0.19-1.14-0.07-1.69c-0.25-0.55-0.66-0.92-1.23-1.13
		c-0.57-0.21-1.12-0.18-1.67,0.07C709.41,201.58,709.03,202,708.82,202.57z"/>
	<path d="M709.31,196.22l0.75-2.05l0.92,0.33c-0.61-0.93-0.67-1.72-0.31-2.71c0.33-0.9,0.88-1.5,1.65-1.81
		c0.58-0.23,1.33-0.17,2.24,0.16l4.65,1.69l-0.75,2.05l-4.06-1.48c-0.56-0.2-0.98-0.28-1.26-0.22c-0.47,0.07-0.8,0.4-1.01,0.99
		c-0.38,1.03,0.11,1.8,1.47,2.29l3.79,1.38l-0.75,2.05L709.31,196.22z"/>
</g>
<circle fill="#FFFFFF" stroke="#000000" stroke-width="6" stroke-miterlimit="10" cx="750" cy="244" r="10"/>
<g>
	<path d="M755.19,219.44l4.18,1.52l-0.8,2.2l-11.28-4.11l1.2-3.3c0.27-0.73,0.55-1.3,0.83-1.7c0.29-0.4,0.66-0.72,1.11-0.97
		c0.97-0.52,2-0.57,3.06-0.19c1.06,0.39,1.82,1.02,2.26,1.88c0.44,0.86,0.42,1.94-0.05,3.24L755.19,219.44z M753.29,218.74
		l0.32-0.89c0.5-1.38,0.21-2.26-0.88-2.66c-1.15-0.42-1.89,0.05-2.46,1.59l-0.28,0.76L753.29,218.74z"/>
	<path d="M756.35,206.47l0.75-2.05l7.33,2.67l-0.75,2.05l-0.95-0.35c0.55,0.92,0.65,1.88,0.29,2.88c-0.36,1-1.04,1.71-2.04,2.12
		c-0.99,0.41-2.04,0.42-3.14,0.03c-1.1-0.4-1.9-1.09-2.41-2.04c-0.5-0.96-0.57-1.93-0.22-2.9c0.36-0.97,1.05-1.66,2.08-2.05
		L756.35,206.47z M757.29,208.89c-0.21,0.58-0.19,1.14,0.06,1.68c0.25,0.55,0.66,0.92,1.23,1.13c0.57,0.21,1.13,0.19,1.67-0.07
		c0.55-0.26,0.93-0.67,1.13-1.23c0.21-0.56,0.18-1.12-0.07-1.67c-0.25-0.55-0.66-0.92-1.23-1.13s-1.12-0.18-1.67,0.06
		C757.88,207.9,757.5,208.32,757.29,208.89z"/>
	<path d="M765.88,203.09l-0.74,2.05l-7.33-2.67l0.75-2.05l1.11,0.41c-0.72-0.83-0.91-1.71-0.57-2.62c0.11-0.29,0.27-0.57,0.51-0.83
		l1.8,0.98c-0.28,0.24-0.48,0.53-0.6,0.88c-0.43,1.17,0.1,2.03,1.56,2.56L765.88,203.09z"/>
	<path d="M755.45,192.32l12.67,4.61l-0.75,2.05l-12.67-4.61L755.45,192.32z"/>
	<path d="M757.54,189.73c0.12-0.34,0.34-0.58,0.67-0.74c0.33-0.15,0.66-0.16,1-0.04c0.34,0.12,0.59,0.36,0.74,0.68
		c0.16,0.33,0.18,0.67,0.05,1.01c-0.12,0.34-0.35,0.58-0.68,0.73c-0.33,0.15-0.67,0.17-1.01,0.04c-0.34-0.12-0.59-0.35-0.74-0.69
		C757.43,190.41,757.42,190.07,757.54,189.73z M762.23,190.3l7.33,2.67l-0.74,2.04l-7.32-2.67L762.23,190.3z"/>
	<path d="M764.98,182.75l0.74-2.05l7.33,2.67l-0.75,2.05l-0.95-0.35c0.55,0.92,0.66,1.88,0.29,2.87c-0.36,1-1.04,1.71-2.04,2.12
		c-0.99,0.42-2.04,0.43-3.14,0.03c-1.1-0.4-1.9-1.09-2.41-2.04s-0.57-1.93-0.22-2.9c0.36-0.97,1.05-1.66,2.08-2.05L764.98,182.75z
		 M765.93,185.17c-0.21,0.58-0.19,1.14,0.06,1.68c0.25,0.55,0.66,0.92,1.23,1.13c0.57,0.21,1.13,0.19,1.67-0.07
		c0.55-0.26,0.92-0.66,1.13-1.23c0.2-0.56,0.18-1.12-0.07-1.67c-0.25-0.55-0.66-0.92-1.23-1.13c-0.57-0.21-1.12-0.18-1.67,0.06
		C766.51,184.18,766.13,184.6,765.93,185.17z"/>
	<path d="M772.46,173.32l3.76,1.37l-0.75,2.05l-3.89-1.42c-0.57-0.21-0.99-0.31-1.25-0.3c-0.26,0.01-0.49,0.09-0.7,0.25
		c-0.21,0.16-0.36,0.36-0.44,0.59c-0.17,0.46-0.07,1.04,0.3,1.47c0.18,0.22,0.61,0.44,1.26,0.67l3.76,1.37l-0.75,2.05l-7.33-2.67
		l0.75-2.05l0.85,0.31c-0.49-0.9-0.57-1.81-0.23-2.73c0.34-0.93,1.05-1.49,2.12-1.69c-0.68-0.9-0.85-1.84-0.49-2.82
		c0.36-0.98,0.97-1.56,1.83-1.73c0.52-0.1,1.15-0.02,1.92,0.26l4.73,1.72l-0.75,2.05l-4.01-1.46c-0.53-0.19-0.94-0.28-1.23-0.26
		c-0.5,0.03-0.84,0.3-1.02,0.8C770.56,172.09,771.08,172.81,772.46,173.32z"/>
	<path d="M777.92,159.65l-2,5.49c1.33,0.42,2.2,0.06,2.61-1.08c0.26-0.71,0.14-1.41-0.35-2.1l0.99-1.78
		c1.29,1.19,1.62,2.66,0.98,4.42c-0.44,1.2-1.14,2.02-2.11,2.48c-0.97,0.46-2.04,0.47-3.22,0.04s-2-1.12-2.45-2.08
		c-0.46-0.96-0.47-2.01-0.05-3.18c0.42-1.17,1.11-1.95,2.06-2.37c0.95-0.41,2.03-0.39,3.26,0.06L777.92,159.65z M774.64,164.6
		l1.26-3.47c-1.05-0.13-1.75,0.28-2.09,1.21C773.49,163.24,773.78,164.09,774.64,164.6z"/>
	<path d="M774.49,156.64l0.75-2.05l0.92,0.33c-0.61-0.93-0.67-1.72-0.31-2.71c0.33-0.9,0.88-1.51,1.65-1.81
		c0.58-0.23,1.32-0.17,2.24,0.16l4.65,1.69l-0.74,2.05l-4.06-1.48c-0.56-0.2-0.98-0.28-1.26-0.22c-0.47,0.07-0.8,0.4-1.01,0.99
		c-0.38,1.03,0.11,1.8,1.47,2.29l3.79,1.38l-0.75,2.05L774.49,156.64z"/>
	<path d="M780.29,146.21l5.55,2.02l-0.75,2.05l-5.55-2.02l-0.29,0.81l-1.78-0.65l0.29-0.81l-2.5-0.91l0.75-2.05l2.5,0.91l0.53-1.45
		l1.78,0.65L780.29,146.21z"/>
</g>
<circle fill="#FFFFFF" stroke="#000000" stroke-width="6" stroke-miterlimit="10" cx="800.77" cy="244" r="10"/>
<g>
	<path d="M805.61,219.31l4.53,1.65l-0.8,2.2l-11.28-4.11l1.19-3.26c0.47-1.28,1.08-2.14,1.84-2.59c0.89-0.52,1.88-0.58,2.94-0.19
		c1.07,0.39,1.78,1.03,2.12,1.92c0.22,0.55,0.27,1.16,0.15,1.81l6.04-1.82l-0.99,2.71l-5.64,1.39L805.61,219.31z M804.05,218.74
		l0.23-0.64c0.51-1.4,0.15-2.38-0.94-2.78c-1.13-0.41-1.95,0.08-2.46,1.5l-0.25,0.68L804.05,218.74z"/>
	<path d="M801.48,208.51c0.12-0.34,0.34-0.59,0.67-0.74c0.33-0.15,0.66-0.16,1-0.04c0.34,0.12,0.59,0.36,0.74,0.68
		c0.16,0.33,0.18,0.67,0.05,1.01c-0.12,0.34-0.35,0.58-0.68,0.73c-0.33,0.15-0.67,0.17-1.01,0.04c-0.34-0.12-0.59-0.36-0.74-0.69
		C801.36,209.19,801.35,208.85,801.48,208.51z M806.17,209.08l7.33,2.67l-0.74,2.04l-7.33-2.67L806.17,209.08z"/>
	<path d="M803.57,199.59l0.75-2.05l12.67,4.61l-0.75,2.05l-0.95-0.35c0.55,0.92,0.66,1.88,0.29,2.88c-0.36,1-1.04,1.71-2.04,2.12
		c-0.99,0.42-2.04,0.43-3.14,0.03c-1.1-0.4-1.91-1.09-2.41-2.04s-0.57-1.93-0.21-2.9c0.35-0.97,1.05-1.66,2.08-2.05L803.57,199.59z
		 M809.86,203.95c-0.21,0.58-0.19,1.14,0.06,1.68c0.25,0.55,0.66,0.92,1.23,1.13c0.57,0.21,1.13,0.19,1.67-0.07
		c0.55-0.26,0.92-0.66,1.13-1.23c0.2-0.56,0.18-1.12-0.07-1.67c-0.25-0.55-0.66-0.92-1.23-1.13c-0.57-0.21-1.12-0.18-1.67,0.06
		C810.44,202.96,810.07,203.38,809.86,203.95z"/>
	<path d="M816.99,191.78l-2,5.49c1.33,0.42,2.2,0.06,2.61-1.08c0.26-0.71,0.14-1.41-0.35-2.1l0.99-1.78
		c1.29,1.19,1.62,2.66,0.98,4.42c-0.44,1.2-1.14,2.02-2.11,2.48s-2.04,0.47-3.22,0.04c-1.18-0.43-2-1.12-2.45-2.08
		c-0.45-0.96-0.47-2.01-0.05-3.18c0.42-1.17,1.11-1.95,2.06-2.37s2.03-0.39,3.26,0.06L816.99,191.78z M813.71,196.73l1.26-3.47
		c-1.05-0.13-1.75,0.28-2.09,1.21C812.56,195.38,812.85,196.22,813.71,196.73z"/>
	<path d="M815.6,183.16l0.75-2.05l7.33,2.67l-0.75,2.05l-0.95-0.35c0.55,0.92,0.65,1.88,0.29,2.87c-0.36,1-1.04,1.71-2.04,2.12
		c-0.99,0.42-2.04,0.42-3.14,0.03c-1.1-0.4-1.91-1.09-2.41-2.05s-0.57-1.93-0.22-2.9c0.36-0.97,1.05-1.66,2.08-2.05L815.6,183.16z
		 M816.55,185.57c-0.21,0.58-0.19,1.14,0.06,1.68c0.25,0.55,0.66,0.92,1.23,1.13c0.57,0.21,1.13,0.19,1.67-0.07
		c0.55-0.26,0.92-0.66,1.13-1.23c0.2-0.56,0.18-1.12-0.07-1.67c-0.25-0.55-0.66-0.92-1.23-1.13c-0.57-0.21-1.12-0.18-1.67,0.06
		C817.13,184.59,816.76,185,816.55,185.57z"/>
	<path d="M817.81,177.11l4.15,1.51c1.12,0.41,1.86,0.11,2.22-0.88c0.36-1-0.02-1.7-1.13-2.11l-4.15-1.51l0.75-2.05l4.48,1.63
		c1.98,0.72,2.62,2.38,1.79,4.66c-0.83,2.28-2.39,3.15-4.37,2.43l-4.48-1.63L817.81,177.11z"/>
</g>
<circle fill="#FFFFFF" stroke="#000000" stroke-width="6" stroke-miterlimit="10" cx="851.54" cy="244" r="10"/>
<g>
	<path d="M853.41,218.76l4.15,1.51c1.12,0.41,1.86,0.11,2.22-0.88c0.36-1-0.02-1.7-1.13-2.1l-4.15-1.51l0.75-2.05l4.49,1.63
		c1.98,0.72,2.62,2.38,1.79,4.66s-2.39,3.15-4.37,2.43l-4.49-1.63L853.41,218.76z"/>
	<path d="M853.86,204.43c0.61-1.68,1.69-2.88,3.26-3.63c1.56-0.75,3.18-0.82,4.84-0.21s2.84,1.7,3.55,3.28s0.74,3.23,0.12,4.93
		s-1.71,2.91-3.27,3.64c-1.57,0.73-3.17,0.79-4.82,0.19c-1.65-0.6-2.83-1.7-3.53-3.3C853.3,207.74,853.25,206.11,853.86,204.43z
		 M855.87,205.19c-0.38,1.03-0.32,2.06,0.16,3.07c0.48,1.02,1.26,1.72,2.34,2.11s2.13,0.35,3.15-0.11s1.73-1.2,2.11-2.24
		c0.38-1.04,0.32-2.07-0.17-3.08s-1.28-1.71-2.35-2.1c-1.07-0.39-2.12-0.36-3.14,0.1C856.95,203.4,856.24,204.16,855.87,205.19z"/>
	<path d="M863.41,196.84l5.55,2.02l-0.75,2.05l-5.55-2.02l-0.29,0.81l-1.78-0.65l0.29-0.81l-2.5-0.91l0.75-2.05l2.5,0.91l0.53-1.45
		l1.78,0.65L863.41,196.84z"/>
	<path d="M865.23,191.82l5.55,2.02l-0.75,2.05l-5.55-2.02l-0.29,0.81l-1.78-0.65l0.29-0.81l-2.5-0.91l0.75-2.05l2.5,0.91l0.53-1.45
		l1.78,0.65L865.23,191.82z"/>
	<path d="M866.42,183.04l0.75-2.05l7.33,2.67l-0.75,2.05l-0.95-0.35c0.55,0.92,0.66,1.88,0.29,2.88c-0.36,1-1.04,1.71-2.04,2.12
		c-0.99,0.42-2.04,0.43-3.14,0.03c-1.1-0.4-1.91-1.09-2.41-2.04c-0.5-0.96-0.57-1.93-0.22-2.9c0.36-0.97,1.05-1.66,2.08-2.05
		L866.42,183.04z M867.36,185.45c-0.21,0.58-0.19,1.14,0.06,1.68c0.25,0.55,0.66,0.92,1.23,1.13c0.57,0.21,1.13,0.19,1.67-0.07
		c0.55-0.26,0.92-0.66,1.13-1.23c0.2-0.56,0.18-1.12-0.07-1.67c-0.25-0.55-0.66-0.92-1.23-1.13c-0.57-0.21-1.12-0.18-1.67,0.06
		C867.95,184.46,867.57,184.88,867.36,185.45z"/>
	<path d="M868.37,177.67l4.93-0.39l-3.7-3.61l0.32-0.88l5.22-0.36l-3.58-3.52l0.83-2.29l6.09,6.51l-0.34,0.93l-5.16,0.36l3.73,3.57
		l-0.34,0.94l-8.84,1.04L868.37,177.67z"/>
	<path d="M874.66,160.39l0.75-2.05l7.33,2.67l-0.75,2.05l-0.95-0.35c0.55,0.92,0.66,1.88,0.29,2.88c-0.36,1-1.04,1.71-2.04,2.12
		c-0.99,0.42-2.04,0.43-3.14,0.03c-1.1-0.4-1.91-1.09-2.41-2.04c-0.5-0.96-0.57-1.93-0.22-2.9s1.05-1.66,2.08-2.05L874.66,160.39z
		 M875.61,162.8c-0.21,0.58-0.19,1.14,0.06,1.68c0.25,0.55,0.66,0.92,1.23,1.13c0.57,0.21,1.13,0.19,1.67-0.07
		c0.55-0.26,0.92-0.66,1.13-1.23c0.2-0.56,0.18-1.12-0.07-1.67c-0.25-0.55-0.66-0.92-1.23-1.13c-0.57-0.21-1.12-0.18-1.67,0.06
		C876.19,161.81,875.81,162.23,875.61,162.8z"/>
</g>
<circle fill="#FFFFFF" stroke="#000000" stroke-width="6" stroke-miterlimit="10" cx="902.31" cy="244" r="10"/>
<g>
	<path d="M900.4,216.85l9.38,3.41l1.26-3.47l1.91,0.69l-2.06,5.67l-11.28-4.11L900.4,216.85z"/>
	<path d="M912.71,207.78l-2,5.49c1.33,0.42,2.2,0.06,2.61-1.08c0.26-0.71,0.14-1.41-0.35-2.1l0.99-1.78
		c1.29,1.19,1.62,2.65,0.98,4.42c-0.44,1.2-1.14,2.02-2.11,2.48c-0.97,0.46-2.04,0.47-3.22,0.04s-2-1.12-2.45-2.08
		c-0.46-0.96-0.47-2.01-0.05-3.18c0.42-1.17,1.11-1.95,2.06-2.37c0.95-0.41,2.03-0.39,3.26,0.06L912.71,207.78z M909.43,212.73
		l1.26-3.47c-1.05-0.13-1.75,0.28-2.09,1.21C908.28,211.38,908.57,212.22,909.43,212.73z"/>
	<path d="M915.89,199.03l-2,5.49c1.33,0.42,2.2,0.06,2.61-1.08c0.26-0.71,0.14-1.41-0.35-2.1l0.99-1.78
		c1.29,1.19,1.62,2.65,0.98,4.42c-0.44,1.2-1.14,2.02-2.11,2.48c-0.97,0.46-2.04,0.47-3.22,0.04c-1.18-0.43-2-1.12-2.45-2.08
		c-0.46-0.96-0.47-2.01-0.05-3.18c0.42-1.17,1.11-1.95,2.06-2.37c0.95-0.41,2.03-0.39,3.26,0.06L915.89,199.03z M912.62,203.98
		l1.26-3.47c-1.05-0.13-1.75,0.28-2.09,1.21C911.46,202.62,911.75,203.47,912.62,203.98z"/>
	<path d="M915.59,192.75c-0.48,0.31-0.78,0.61-0.89,0.92c-0.11,0.3-0.13,0.55-0.08,0.75c0.07,0.2,0.19,0.33,0.36,0.39
		c0.17,0.06,0.34,0.04,0.51-0.08c0.16-0.12,0.45-0.43,0.85-0.93c0.4-0.5,0.76-0.85,1.06-1.05c0.57-0.4,1.22-0.47,1.96-0.21
		c0.74,0.27,1.25,0.78,1.53,1.53c0.29,0.76,0.26,1.59-0.06,2.49c-0.4,1.11-1.14,1.88-2.23,2.33l-0.86-1.53
		c0.78-0.36,1.28-0.83,1.49-1.42c0.19-0.52-0.02-1.06-0.46-1.22c-0.22-0.08-0.41-0.08-0.58,0.02c-0.16,0.1-0.46,0.4-0.89,0.92
		c-0.43,0.52-0.77,0.86-1.03,1.02c-0.52,0.36-1.11,0.42-1.79,0.17c-0.69-0.25-1.15-0.7-1.41-1.35c-0.26-0.65-0.23-1.38,0.07-2.21
		s0.84-1.49,1.62-2L915.59,192.75z"/>
</g>
<circle fill="#FFFFFF" stroke="#000000" stroke-width="6" stroke-miterlimit="10" cx="953.08" cy="244" r="10"/>
<g>
	<path d="M955.53,218.44l1.73-4.77l-4.36-1.59l0.8-2.21l11.28,4.11l-0.8,2.21l-5-1.82l-1.73,4.77l5,1.82l-0.8,2.2l-11.28-4.11
		l0.8-2.2L955.53,218.44z"/>
	<path d="M959.23,207.01l4.15,1.51c1.12,0.41,1.86,0.12,2.22-0.88c0.36-1-0.02-1.7-1.13-2.1l-4.15-1.51l0.75-2.05l4.48,1.63
		c1.98,0.72,2.62,2.38,1.79,4.66c-0.83,2.28-2.39,3.15-4.37,2.43l-4.48-1.63L959.23,207.01z"/>
	<path d="M969.85,200.63l-0.75,2.05l-7.33-2.67l0.75-2.05l1.11,0.41c-0.72-0.83-0.91-1.71-0.57-2.62c0.1-0.29,0.27-0.57,0.51-0.83
		l1.8,0.98c-0.29,0.24-0.49,0.53-0.6,0.88c-0.43,1.17,0.1,2.03,1.56,2.56L969.85,200.63z"/>
	<path d="M960.67,186.43l0.75-2.05l12.67,4.61l-0.75,2.05l-0.95-0.35c0.55,0.92,0.66,1.88,0.29,2.88c-0.36,1-1.04,1.71-2.04,2.12
		s-2.04,0.42-3.14,0.03c-1.1-0.4-1.91-1.09-2.41-2.04c-0.5-0.96-0.57-1.93-0.22-2.9s1.05-1.66,2.08-2.05L960.67,186.43z
		 M966.96,190.79c-0.21,0.58-0.19,1.14,0.06,1.68c0.25,0.55,0.66,0.92,1.23,1.13c0.57,0.21,1.13,0.19,1.67-0.07
		c0.55-0.26,0.92-0.66,1.13-1.23c0.2-0.56,0.18-1.12-0.07-1.67c-0.25-0.55-0.66-0.92-1.23-1.13c-0.57-0.21-1.12-0.18-1.67,0.06
		C967.54,189.8,967.16,190.22,966.96,190.79z"/>
	<path d="M973.49,178.94l3.76,1.37l-0.75,2.05l-3.89-1.42c-0.57-0.21-0.99-0.31-1.25-0.3s-0.49,0.09-0.7,0.25
		c-0.21,0.16-0.35,0.36-0.44,0.59c-0.17,0.46-0.07,1.04,0.3,1.47c0.18,0.22,0.61,0.45,1.26,0.67l3.76,1.37l-0.75,2.05l-7.33-2.67
		l0.75-2.05l0.85,0.31c-0.49-0.9-0.57-1.81-0.23-2.73c0.34-0.92,1.05-1.49,2.12-1.69c-0.68-0.9-0.85-1.84-0.49-2.82
		c0.36-0.98,0.97-1.56,1.83-1.73c0.52-0.1,1.15-0.02,1.92,0.26l4.73,1.72l-0.75,2.05l-4-1.46c-0.53-0.19-0.94-0.28-1.23-0.26
		c-0.5,0.03-0.84,0.3-1.02,0.8C971.59,177.72,972.11,178.44,973.49,178.94z"/>
	<path d="M974.37,165.4l0.75-2.05l7.33,2.67l-0.75,2.05l-0.95-0.35c0.55,0.92,0.66,1.88,0.29,2.88c-0.36,1-1.04,1.71-2.04,2.12
		c-0.99,0.42-2.04,0.42-3.14,0.03c-1.1-0.4-1.91-1.09-2.41-2.04c-0.5-0.96-0.57-1.93-0.22-2.9c0.36-0.97,1.05-1.66,2.08-2.05
		L974.37,165.4z M975.32,167.81c-0.21,0.58-0.19,1.14,0.06,1.68c0.25,0.55,0.66,0.92,1.23,1.13c0.57,0.21,1.13,0.19,1.67-0.07
		c0.55-0.26,0.92-0.67,1.13-1.23c0.2-0.56,0.18-1.12-0.07-1.67c-0.25-0.55-0.66-0.92-1.23-1.13c-0.57-0.21-1.12-0.18-1.67,0.06
		C975.9,166.83,975.53,167.24,975.32,167.81z"/>
	<path d="M975.83,161.4l0.75-2.05l0.92,0.33c-0.61-0.93-0.67-1.72-0.31-2.71c0.33-0.9,0.88-1.5,1.65-1.81
		c0.58-0.23,1.33-0.17,2.24,0.16l4.65,1.69l-0.75,2.05l-4.06-1.48c-0.56-0.2-0.98-0.28-1.26-0.22c-0.47,0.07-0.8,0.4-1.01,0.99
		c-0.38,1.03,0.11,1.8,1.47,2.29l3.79,1.38l-0.75,2.05L975.83,161.4z"/>
</g>
<circle fill="#FFFFFF" stroke="#000000" stroke-width="6" stroke-miterlimit="10" cx="1003.85" cy="244" r="10"/>
<g>
	<path d="M1013.71,219.62l-0.8,2.21l-9.37-3.41l-0.92,2.52l-1.91-0.69l2.64-7.26l1.91,0.69l-0.92,2.54L1013.71,219.62z"/>
	<path d="M1015.59,214.44l-0.75,2.05l-7.33-2.67l0.75-2.05l1.11,0.41c-0.72-0.83-0.91-1.71-0.57-2.62c0.11-0.29,0.27-0.57,0.51-0.83
		l1.8,0.98c-0.28,0.24-0.49,0.54-0.6,0.88c-0.43,1.17,0.09,2.03,1.56,2.56L1015.59,214.44z"/>
	<path d="M1016.33,202.04l-2,5.49c1.33,0.42,2.2,0.06,2.61-1.08c0.26-0.71,0.14-1.41-0.35-2.1l0.99-1.78
		c1.29,1.19,1.62,2.65,0.98,4.42c-0.44,1.2-1.14,2.02-2.11,2.48s-2.04,0.47-3.22,0.04s-2-1.12-2.45-2.08
		c-0.46-0.96-0.47-2.01-0.05-3.18c0.42-1.17,1.11-1.95,2.06-2.37s2.03-0.39,3.26,0.06L1016.33,202.04z M1013.05,206.99l1.26-3.47
		c-1.05-0.13-1.75,0.28-2.09,1.21C1011.9,205.64,1012.19,206.48,1013.05,206.99z"/>
	<path d="M1018.92,193.6l3.76,1.37l-0.75,2.05l-3.89-1.42c-0.57-0.21-0.99-0.31-1.25-0.3s-0.49,0.09-0.7,0.25
		c-0.21,0.16-0.35,0.36-0.44,0.59c-0.17,0.46-0.07,1.04,0.3,1.47c0.18,0.22,0.6,0.44,1.26,0.67l3.76,1.37l-0.75,2.05l-7.33-2.67
		l0.75-2.05l0.85,0.31c-0.49-0.9-0.57-1.81-0.23-2.73c0.34-0.92,1.05-1.49,2.12-1.69c-0.68-0.9-0.85-1.84-0.49-2.82
		c0.36-0.98,0.97-1.56,1.83-1.73c0.51-0.1,1.15-0.02,1.92,0.26l4.73,1.72l-0.75,2.05l-4-1.46c-0.53-0.19-0.94-0.28-1.23-0.26
		c-0.5,0.03-0.84,0.3-1.02,0.8C1017.03,192.38,1017.54,193.1,1018.92,193.6z"/>
	<path d="M1013.17,181.69l6.29,2.29c-0.54-0.97-0.63-1.95-0.27-2.92c0.35-0.97,1.03-1.67,2.02-2.08c0.99-0.42,2.04-0.42,3.16-0.01
		c1.12,0.41,1.92,1.08,2.41,2.04c0.49,0.96,0.56,1.93,0.2,2.93c-0.36,1-1.06,1.67-2.08,2.02l0.95,0.35l-0.75,2.05l-12.67-4.61
		L1013.17,181.69z M1020.79,182.38c-0.21,0.57-0.18,1.12,0.07,1.67s0.66,0.92,1.23,1.13c0.57,0.21,1.13,0.19,1.67-0.07
		c0.55-0.26,0.92-0.66,1.13-1.23c0.21-0.56,0.18-1.12-0.07-1.67c-0.25-0.55-0.65-0.93-1.22-1.14c-0.57-0.21-1.12-0.18-1.67,0.07
		C1021.37,181.41,1020.99,181.81,1020.79,182.38z"/>
	<path d="M1016.67,172.06l12.67,4.61l-0.75,2.05l-12.67-4.61L1016.67,172.06z"/>
	<path d="M1024.77,166.43l0.75-2.05l7.33,2.67l-0.75,2.05l-0.95-0.35c0.55,0.92,0.66,1.88,0.29,2.87c-0.36,1-1.04,1.71-2.04,2.12
		c-0.99,0.42-2.04,0.42-3.14,0.03c-1.1-0.4-1.91-1.09-2.41-2.05s-0.57-1.93-0.21-2.9c0.35-0.97,1.05-1.66,2.08-2.05L1024.77,166.43z
		 M1025.71,168.85c-0.21,0.58-0.19,1.14,0.06,1.68c0.25,0.55,0.66,0.92,1.23,1.13c0.57,0.21,1.13,0.19,1.67-0.07
		c0.55-0.26,0.92-0.66,1.13-1.23c0.21-0.56,0.18-1.12-0.07-1.67c-0.25-0.55-0.66-0.92-1.23-1.13c-0.57-0.21-1.12-0.18-1.67,0.06
		C1026.3,167.86,1025.92,168.28,1025.71,168.85z"/>
	<path d="M1033.35,162.17l-7.47,1.21l0.87-2.39l4.96-0.68l-3.41-3.6l0.86-2.35l9.08,10.01l-0.84,2.32L1033.35,162.17z"/>
</g>
<circle fill="#FFFFFF" stroke="#000000" stroke-width="6" stroke-miterlimit="10" cx="1054.62" cy="244" r="10"/>
<g>
	<path d="M1055.54,218c0.32,0.12,0.63,0.1,0.91-0.07c0.29-0.17,0.75-0.62,1.4-1.39c0.65-0.76,1.22-1.28,1.72-1.55
		c0.81-0.47,1.73-0.5,2.8-0.11s1.81,1.07,2.23,2.04c0.42,0.97,0.43,2.04,0,3.22c-0.58,1.59-1.77,2.62-3.56,3.09l-0.85-1.92
		c1.19-0.16,1.98-0.77,2.36-1.81c0.18-0.5,0.19-0.98,0.01-1.42c-0.18-0.43-0.5-0.73-0.97-0.91c-0.47-0.17-0.92-0.11-1.35,0.19
		c-0.21,0.14-0.66,0.62-1.33,1.43c-0.68,0.81-1.33,1.34-1.94,1.6c-0.61,0.25-1.29,0.24-2.03-0.03c-0.95-0.35-1.61-0.96-1.99-1.86
		s-0.39-1.84-0.02-2.86c0.46-1.25,1.28-2.21,2.46-2.86l1.08,1.7c-0.81,0.31-1.33,0.81-1.57,1.5c-0.17,0.45-0.18,0.87-0.05,1.26
		C1054.99,217.63,1055.22,217.88,1055.54,218z"/>
	<path d="M1061.63,210.18l5.55,2.02l-0.75,2.05l-5.55-2.02l-0.29,0.81l-1.78-0.65l0.29-0.81l-2.5-0.91l0.75-2.05l2.5,0.91l0.53-1.45
		l1.78,0.65L1061.63,210.18z"/>
	<path d="M1063.19,208.42l1.39-3.81l1.7,0.62l-1.39,3.81L1063.19,208.42z"/>
	<path d="M1059.3,198.73l9.37,3.41l1.26-3.47l1.91,0.69l-2.06,5.67l-11.28-4.11L1059.3,198.73z"/>
	<path d="M1067.04,189.79l0.75-2.05l7.33,2.67l-0.75,2.05l-0.95-0.35c0.55,0.92,0.66,1.88,0.29,2.88c-0.36,1-1.04,1.71-2.04,2.12
		c-0.99,0.42-2.04,0.43-3.14,0.03c-1.1-0.4-1.91-1.09-2.41-2.04c-0.5-0.96-0.57-1.93-0.22-2.9c0.36-0.97,1.05-1.66,2.08-2.05
		L1067.04,189.79z M1067.98,192.2c-0.21,0.58-0.19,1.14,0.06,1.68c0.25,0.55,0.66,0.92,1.23,1.13c0.57,0.21,1.13,0.19,1.67-0.07
		c0.55-0.26,0.92-0.66,1.13-1.23s0.18-1.12-0.07-1.67c-0.25-0.55-0.66-0.92-1.23-1.13c-0.57-0.21-1.12-0.18-1.67,0.06
		C1068.57,191.22,1068.19,191.63,1067.98,192.2z"/>
	<path d="M1069.24,183.74l4.15,1.51c1.11,0.41,1.86,0.12,2.22-0.88s-0.02-1.7-1.13-2.11l-4.15-1.51l0.75-2.05l4.49,1.63
		c1.98,0.72,2.62,2.38,1.79,4.66c-0.83,2.28-2.39,3.15-4.37,2.43l-4.48-1.63L1069.24,183.74z"/>
	<path d="M1079.86,177.36l-0.75,2.05l-7.33-2.67l0.75-2.05l1.12,0.41c-0.72-0.83-0.91-1.71-0.57-2.62c0.11-0.29,0.27-0.57,0.51-0.83
		l1.8,0.98c-0.29,0.24-0.49,0.54-0.6,0.88c-0.43,1.17,0.1,2.03,1.56,2.56L1079.86,177.36z"/>
	<path d="M1080.6,164.96l-2,5.49c1.33,0.42,2.2,0.06,2.61-1.08c0.26-0.71,0.14-1.41-0.35-2.1l0.99-1.78
		c1.29,1.19,1.62,2.66,0.98,4.42c-0.44,1.2-1.14,2.02-2.11,2.48s-2.04,0.47-3.22,0.04s-2-1.12-2.45-2.08
		c-0.45-0.96-0.47-2.01-0.05-3.18c0.42-1.17,1.11-1.95,2.06-2.37c0.95-0.41,2.03-0.39,3.26,0.06L1080.6,164.96z M1077.32,169.91
		l1.26-3.47c-1.05-0.13-1.75,0.28-2.09,1.21C1076.17,168.55,1076.46,169.4,1077.32,169.91z"/>
	<path d="M1077.17,161.95l0.75-2.05l0.92,0.33c-0.61-0.93-0.67-1.72-0.31-2.71c0.33-0.9,0.88-1.51,1.65-1.81
		c0.58-0.23,1.33-0.17,2.24,0.16l4.65,1.69l-0.75,2.05l-4.06-1.48c-0.56-0.2-0.98-0.28-1.26-0.22c-0.47,0.07-0.8,0.4-1.01,0.99
		c-0.38,1.03,0.11,1.8,1.47,2.29l3.79,1.38l-0.75,2.05L1077.17,161.95z"/>
	<path d="M1082.98,151.52l5.55,2.02l-0.75,2.05l-5.55-2.02l-0.29,0.81l-1.78-0.65l0.29-0.81l-2.5-0.91l0.75-2.05l2.5,0.91l0.53-1.45
		l1.78,0.65L1082.98,151.52z"/>
</g>
<circle fill="#FFFFFF" stroke="#000000" stroke-width="6" stroke-miterlimit="10" cx="1105.38" cy="244" r="10"/>
<g>
	<path d="M1108.67,212.02c-1.16,0.55-1.92,1.33-2.29,2.34c-0.37,1.01-0.3,2,0.19,2.99c0.49,0.99,1.29,1.69,2.39,2.09
		c1.1,0.4,2.14,0.38,3.14-0.07c0.99-0.44,1.68-1.2,2.07-2.27c0.19-0.53,0.27-1.03,0.23-1.51c-0.04-0.48-0.2-1.03-0.48-1.64
		l2.58,0.94c0.09,1.11-0.02,2.11-0.34,3c-0.61,1.67-1.68,2.88-3.23,3.61c-1.55,0.74-3.14,0.81-4.78,0.21
		c-1.64-0.6-2.83-1.68-3.57-3.27c-0.74-1.59-0.81-3.2-0.21-4.85c0.33-0.92,0.9-1.75,1.7-2.51L1108.67,212.02z"/>
	<path d="M1117.24,210.68l-7.47,1.21l0.87-2.39l4.96-0.68l-3.41-3.6l0.86-2.35l9.08,10.01l-0.84,2.32L1117.24,210.68z"/>
	<path d="M1121.48,202.5l-0.75,2.05l-7.33-2.67l0.75-2.05l1.12,0.41c-0.72-0.83-0.91-1.71-0.57-2.62c0.11-0.29,0.27-0.57,0.51-0.83
		l1.8,0.98c-0.29,0.24-0.48,0.54-0.6,0.88c-0.43,1.17,0.1,2.03,1.56,2.56L1121.48,202.5z"/>
	<path d="M1116.3,193.94l4.85-0.42l-3.45-3.42l0.84-2.3l6.1,6.49l-0.34,0.93l-8.84,1.02L1116.3,193.94z"/>
	<path d="M1114.97,184.12c0.12-0.34,0.34-0.59,0.67-0.74c0.33-0.15,0.66-0.16,1-0.04c0.34,0.12,0.59,0.36,0.74,0.68
		c0.16,0.33,0.18,0.67,0.05,1.01c-0.12,0.34-0.35,0.58-0.68,0.73c-0.33,0.15-0.67,0.17-1.01,0.04c-0.34-0.12-0.59-0.36-0.74-0.69
		C1114.85,184.8,1114.85,184.46,1114.97,184.12z M1119.66,184.7l7.33,2.67l-0.74,2.04l-7.33-2.67L1119.66,184.7z"/>
	<path d="M1115.77,178.77l12.67,4.61l-0.75,2.05l-12.67-4.61L1115.77,178.77z"/>
	<path d="M1117.22,174.76l12.67,4.61l-0.75,2.05l-12.67-4.61L1117.22,174.76z"/>
	<path d="M1129.9,169l-2,5.49c1.33,0.42,2.2,0.06,2.61-1.08c0.26-0.71,0.14-1.41-0.35-2.1l0.99-1.78c1.29,1.19,1.62,2.66,0.98,4.42
		c-0.44,1.2-1.14,2.02-2.11,2.48c-0.97,0.46-2.04,0.47-3.22,0.04c-1.18-0.43-2-1.12-2.45-2.08c-0.46-0.96-0.47-2.01-0.05-3.18
		c0.42-1.17,1.11-1.95,2.06-2.37c0.95-0.41,2.03-0.39,3.26,0.06L1129.9,169z M1126.62,173.96l1.26-3.47
		c-1.05-0.13-1.75,0.28-2.09,1.21C1125.46,172.6,1125.76,173.45,1126.62,173.96z"/>
</g>
<circle fill="#FFFFFF" stroke="#000000" stroke-width="6" stroke-miterlimit="10" cx="1156.15" cy="244" r="10"/>
<g>
	<path d="M1164.73,223.16l-11.28-4.11l1.02-2.79c0.46-1.27,1.02-2.11,1.68-2.5c0.77-0.48,1.67-0.54,2.67-0.18
		c0.62,0.23,1.11,0.56,1.46,1.01c0.16,0.23,0.28,0.59,0.38,1.06c0.4-0.62,0.81-1.02,1.25-1.21c0.73-0.34,1.56-0.35,2.47-0.02
		c0.92,0.33,1.55,0.94,1.9,1.8c0.35,0.87,0.3,1.91-0.15,3.14L1164.73,223.16z M1158.94,218.56l0.23-0.63
		c0.42-1.14,0.13-1.89-0.84-2.24s-1.67,0.03-2.07,1.14l-0.24,0.66L1158.94,218.56z M1163.75,220.31l0.35-0.95
		c0.53-1.46,0.28-2.39-0.75-2.76c-0.57-0.21-1.07-0.14-1.5,0.2c-0.33,0.24-0.64,0.76-0.93,1.54l-0.3,0.83L1163.75,220.31z"/>
	<path d="M1156.19,207.18l12.67,4.61l-0.75,2.05l-12.67-4.61L1156.19,207.18z"/>
	<path d="M1164.29,201.55l0.75-2.05l7.33,2.67l-0.75,2.05l-0.95-0.35c0.55,0.92,0.66,1.88,0.29,2.88s-1.04,1.71-2.04,2.12
		c-0.99,0.42-2.04,0.43-3.14,0.03c-1.1-0.4-1.91-1.09-2.41-2.05c-0.5-0.96-0.57-1.93-0.22-2.9s1.05-1.66,2.08-2.05L1164.29,201.55z
		 M1165.24,203.96c-0.21,0.58-0.19,1.14,0.06,1.68c0.25,0.55,0.67,0.92,1.23,1.13c0.57,0.21,1.13,0.19,1.67-0.07
		c0.55-0.26,0.92-0.66,1.13-1.23c0.2-0.56,0.18-1.12-0.07-1.67c-0.25-0.55-0.66-0.92-1.23-1.13c-0.57-0.21-1.12-0.18-1.67,0.06
		C1165.82,202.98,1165.45,203.39,1165.24,203.96z"/>
	<path d="M1161.79,194.96c0.12-0.34,0.34-0.59,0.67-0.74c0.33-0.15,0.66-0.16,1-0.04c0.34,0.12,0.59,0.36,0.74,0.68
		c0.16,0.33,0.18,0.67,0.05,1.01c-0.12,0.34-0.35,0.58-0.68,0.73c-0.33,0.15-0.67,0.17-1.01,0.04s-0.59-0.36-0.74-0.69
		C1161.67,195.64,1161.67,195.3,1161.79,194.96z M1166.48,195.54l7.33,2.67l-0.74,2.04l-7.33-2.67L1166.48,195.54z"/>
	<path d="M1175.26,194.22l-0.75,2.05l-7.33-2.67l0.75-2.05l1.12,0.41c-0.72-0.83-0.91-1.71-0.57-2.62c0.1-0.29,0.27-0.57,0.51-0.83
		l1.8,0.98c-0.28,0.24-0.48,0.53-0.6,0.88c-0.43,1.17,0.09,2.03,1.56,2.56L1175.26,194.22z"/>
</g>
<circle fill="#FFFFFF" stroke="#000000" stroke-width="6" stroke-miterlimit="10" cx="1206.92" cy="244" r="10"/>
<g>
	<path d="M1215.27,223.77l-10.72-6.28l0.55-1.5l8.5-0.4l-6.21-5.88l0.55-1.52l12.17,2.3l-0.81,2.22l-7.32-1.51l5.98,5.67l-0.22,0.61
		l-8.19,0.41l6.54,3.66L1215.27,223.77z"/>
	<path d="M1214.56,202.23c0.45-1.23,1.17-2.1,2.17-2.6s2.08-0.55,3.24-0.13c1.16,0.42,1.96,1.15,2.39,2.19
		c0.43,1.05,0.43,2.19-0.02,3.43c-0.45,1.25-1.19,2.11-2.2,2.61c-1.01,0.5-2.09,0.54-3.23,0.12c-1.15-0.42-1.94-1.15-2.37-2.2
		C1214.09,204.6,1214.11,203.46,1214.56,202.23z M1216.39,202.92c-0.21,0.57-0.19,1.13,0.06,1.68c0.25,0.55,0.66,0.93,1.23,1.14
		c0.57,0.21,1.13,0.19,1.67-0.07c0.55-0.26,0.93-0.67,1.14-1.24c0.21-0.57,0.19-1.14-0.07-1.69c-0.25-0.55-0.66-0.92-1.23-1.13
		c-0.57-0.21-1.12-0.18-1.67,0.07C1216.97,201.94,1216.6,202.35,1216.39,202.92z"/>
	<path d="M1216.87,196.58l0.75-2.05l0.92,0.33c-0.61-0.93-0.67-1.72-0.31-2.71c0.33-0.9,0.88-1.5,1.65-1.81
		c0.58-0.23,1.33-0.17,2.24,0.16l4.65,1.69l-0.75,2.05l-4.06-1.48c-0.56-0.2-0.98-0.28-1.26-0.22c-0.47,0.07-0.8,0.4-1.01,0.99
		c-0.38,1.03,0.11,1.8,1.47,2.29l3.79,1.38l-0.75,2.05L1216.87,196.58z"/>
	<path d="M1222.68,186.15l5.55,2.02l-0.75,2.05l-5.55-2.02l-0.29,0.81l-1.78-0.65l0.29-0.81l-2.5-0.91l0.75-2.05l2.5,0.91l0.53-1.45
		l1.78,0.65L1222.68,186.15z"/>
	<path d="M1229.93,183.5l-0.75,2.05l-7.33-2.67l0.75-2.05l1.11,0.41c-0.72-0.83-0.91-1.71-0.57-2.62c0.11-0.29,0.27-0.57,0.51-0.83
		l1.8,0.98c-0.29,0.24-0.49,0.53-0.6,0.88c-0.43,1.17,0.09,2.03,1.56,2.56L1229.93,183.5z"/>
	<path d="M1222.59,169.76l1.36,3.37l-1.04,0.74l-1.83-2.95L1222.59,169.76z M1230.68,171.09l-2,5.49c1.33,0.42,2.2,0.06,2.61-1.08
		c0.26-0.71,0.14-1.41-0.35-2.1l0.99-1.78c1.29,1.19,1.62,2.66,0.98,4.42c-0.44,1.2-1.14,2.02-2.11,2.48
		c-0.97,0.46-2.04,0.47-3.22,0.04s-2-1.12-2.45-2.08s-0.47-2.01-0.05-3.18c0.42-1.17,1.11-1.95,2.06-2.37
		c0.95-0.41,2.03-0.39,3.26,0.06L1230.68,171.09z M1227.4,176.04l1.26-3.47c-1.05-0.13-1.75,0.28-2.09,1.21
		C1226.24,174.69,1226.53,175.54,1227.4,176.04z"/>
	<path d="M1229.29,162.47l0.75-2.05l7.33,2.67l-0.75,2.05l-0.95-0.35c0.55,0.92,0.66,1.88,0.29,2.87s-1.04,1.71-2.04,2.12
		c-0.99,0.41-2.04,0.42-3.14,0.03c-1.1-0.4-1.91-1.09-2.41-2.05s-0.57-1.93-0.22-2.9s1.05-1.66,2.08-2.05L1229.29,162.47z
		 M1230.23,164.88c-0.21,0.58-0.19,1.14,0.06,1.68c0.25,0.55,0.67,0.92,1.23,1.13c0.57,0.21,1.13,0.19,1.67-0.07
		c0.55-0.26,0.92-0.67,1.13-1.23c0.2-0.56,0.18-1.12-0.07-1.67c-0.25-0.55-0.66-0.92-1.23-1.13c-0.57-0.21-1.12-0.18-1.67,0.06
		C1230.82,163.9,1230.44,164.31,1230.23,164.88z"/>
	<path d="M1226.15,154.47l12.67,4.61l-0.75,2.05l-12.67-4.61L1226.15,154.47z"/>
</g>
<circle fill="#FFFFFF" stroke="#000000" stroke-width="6" stroke-miterlimit="10" cx="1257.69" cy="244" r="10"/>
<g>
	<path d="M1256.6,214.61l7.62,2.77c1.48,0.54,2.41,1.25,2.8,2.15c0.31,0.76,0.3,1.6-0.04,2.52s-1,1.63-1.98,2.12l-1.13-1.9
		c0.54-0.13,0.89-0.43,1.06-0.91s0.06-0.87-0.33-1.19c-0.24-0.2-0.75-0.44-1.53-0.73l-7.26-2.64L1256.6,214.61z"/>
	<path d="M1268.01,208.02l-2,5.49c1.33,0.42,2.2,0.06,2.61-1.08c0.26-0.71,0.14-1.41-0.35-2.1l0.99-1.78
		c1.29,1.19,1.62,2.65,0.98,4.42c-0.44,1.2-1.14,2.02-2.11,2.48c-0.97,0.46-2.04,0.47-3.22,0.04s-2-1.12-2.45-2.08
		c-0.46-0.96-0.47-2.02-0.05-3.18s1.11-1.95,2.06-2.37c0.95-0.41,2.03-0.39,3.26,0.06L1268.01,208.02z M1264.72,212.97l1.26-3.47
		c-1.05-0.13-1.75,0.28-2.09,1.21C1263.57,211.62,1263.86,212.46,1264.72,212.97z"/>
	<path d="M1266.62,199.4l0.74-2.05l7.33,2.67l-0.75,2.05l-0.95-0.35c0.55,0.92,0.66,1.88,0.29,2.88c-0.36,1-1.04,1.71-2.04,2.12
		c-0.99,0.42-2.04,0.42-3.14,0.03c-1.1-0.4-1.91-1.09-2.41-2.04c-0.5-0.96-0.57-1.93-0.22-2.9c0.36-0.97,1.05-1.66,2.08-2.05
		L1266.62,199.4z M1267.56,201.81c-0.21,0.58-0.19,1.14,0.06,1.68c0.25,0.55,0.66,0.92,1.23,1.13c0.57,0.21,1.13,0.19,1.67-0.07
		c0.55-0.26,0.92-0.66,1.13-1.23c0.2-0.56,0.18-1.12-0.07-1.67c-0.25-0.55-0.66-0.92-1.23-1.13c-0.57-0.21-1.12-0.18-1.67,0.06
		C1268.15,200.82,1267.77,201.24,1267.56,201.81z"/>
	<path d="M1268.07,195.39l0.75-2.05l0.92,0.33c-0.61-0.93-0.67-1.72-0.31-2.71c0.33-0.9,0.88-1.5,1.65-1.81
		c0.58-0.23,1.32-0.17,2.24,0.16l4.65,1.69l-0.74,2.05l-4.06-1.48c-0.56-0.2-0.98-0.28-1.26-0.22c-0.47,0.07-0.8,0.4-1.01,0.99
		c-0.38,1.03,0.11,1.8,1.47,2.29l3.79,1.38l-0.75,2.05L1268.07,195.39z"/>
	<path d="M1271.35,186.38l0.75-2.05l0.92,0.33c-0.61-0.93-0.67-1.72-0.31-2.71c0.33-0.9,0.88-1.5,1.65-1.81
		c0.58-0.23,1.32-0.17,2.24,0.16l4.65,1.69l-0.74,2.05l-4.06-1.48c-0.56-0.21-0.98-0.28-1.26-0.22c-0.47,0.07-0.8,0.4-1.01,0.99
		c-0.38,1.03,0.11,1.8,1.47,2.29l3.79,1.38l-0.75,2.05L1271.35,186.38z"/>
	<path d="M1281.25,171.62l-2,5.49c1.33,0.42,2.2,0.06,2.61-1.08c0.26-0.71,0.14-1.41-0.35-2.1l0.99-1.78
		c1.29,1.19,1.62,2.66,0.98,4.42c-0.44,1.2-1.14,2.02-2.11,2.48c-0.97,0.46-2.04,0.47-3.22,0.04c-1.18-0.43-2-1.12-2.45-2.08
		c-0.46-0.96-0.47-2.02-0.05-3.18s1.11-1.95,2.06-2.37s2.03-0.39,3.26,0.06L1281.25,171.62z M1277.97,176.57l1.26-3.47
		c-1.05-0.13-1.75,0.28-2.09,1.21C1276.82,175.22,1277.11,176.06,1277.97,176.57z"/>
	<path d="M1276.06,156.83l0.75-2.05l12.67,4.61l-0.75,2.05l-0.95-0.35c0.55,0.92,0.65,1.88,0.29,2.87c-0.36,1-1.04,1.71-2.04,2.12
		c-0.99,0.42-2.04,0.42-3.14,0.03c-1.1-0.4-1.9-1.09-2.41-2.05c-0.5-0.96-0.57-1.93-0.22-2.9c0.36-0.97,1.05-1.66,2.08-2.05
		L1276.06,156.83z M1282.35,161.18c-0.21,0.58-0.19,1.14,0.06,1.68c0.25,0.55,0.66,0.92,1.23,1.13c0.57,0.21,1.13,0.19,1.67-0.07
		c0.55-0.26,0.93-0.66,1.13-1.23c0.2-0.56,0.18-1.12-0.07-1.67c-0.25-0.55-0.66-0.92-1.23-1.13c-0.57-0.21-1.12-0.18-1.67,0.06
		C1282.93,160.2,1282.56,160.61,1282.35,161.18z"/>
	<path d="M1279.12,152.03l0.91-1.8l3.63,4.03l-0.65,1.24L1279.12,152.03z"/>
	<path d="M1291.76,145.69l-1.68,4.62l2.02,1.88l-0.85,2.34l-9.74-9.08l0.6-1.66l13.24-0.54l-0.86,2.35L1291.76,145.69z
		 M1289.73,145.74l-4.63,0.1l3.46,3.11L1289.73,145.74z"/>
	<path d="M1296.46,140.19l-0.74,2.05l-7.33-2.67l0.75-2.05l1.11,0.41c-0.72-0.83-0.91-1.71-0.57-2.62c0.11-0.29,0.27-0.57,0.51-0.83
		l1.8,0.98c-0.29,0.24-0.49,0.53-0.6,0.88c-0.43,1.17,0.1,2.03,1.56,2.56L1296.46,140.19z"/>
	<path d="M1294.8,128.92c-0.62,0.38-1.03,0.87-1.24,1.46c-0.21,0.59-0.2,1.14,0.04,1.69c0.24,0.55,0.66,0.92,1.25,1.14
		c0.59,0.22,1.15,0.2,1.69-0.07s0.91-0.69,1.13-1.28c0.22-0.59,0.22-1.22,0.01-1.89l1.99,0.72c0.09,0.71,0.01,1.39-0.22,2.04
		c-0.41,1.14-1.13,1.95-2.15,2.45c-1.02,0.5-2.08,0.54-3.18,0.14c-1.1-0.4-1.89-1.13-2.37-2.17c-0.47-1.04-0.5-2.14-0.09-3.28
		c0.24-0.67,0.62-1.23,1.12-1.7L1294.8,128.92z"/>
</g>
<circle fill="#FFFFFF" stroke="#000000" stroke-width="6" stroke-miterlimit="10" cx="1308.46" cy="244" r="10"/>
<g>
	<path d="M1311.74,212.02c-1.16,0.55-1.92,1.33-2.29,2.34c-0.37,1.01-0.3,2,0.19,2.99c0.49,0.99,1.29,1.69,2.39,2.09
		c1.1,0.4,2.14,0.38,3.14-0.07c0.99-0.44,1.68-1.2,2.07-2.27c0.19-0.53,0.27-1.03,0.23-1.51c-0.04-0.48-0.2-1.03-0.48-1.64
		l2.58,0.94c0.09,1.11-0.02,2.11-0.34,3c-0.61,1.67-1.68,2.88-3.23,3.61c-1.55,0.74-3.14,0.81-4.78,0.21
		c-1.64-0.6-2.83-1.68-3.57-3.27c-0.74-1.59-0.81-3.2-0.21-4.85c0.33-0.92,0.9-1.75,1.7-2.51L1311.74,212.02z"/>
	<path d="M1314.44,206.76c0.45-1.23,1.17-2.1,2.17-2.6s2.08-0.55,3.24-0.13s1.96,1.15,2.39,2.19c0.43,1.05,0.43,2.19-0.02,3.43
		c-0.45,1.25-1.19,2.11-2.2,2.61c-1.01,0.5-2.09,0.54-3.23,0.12c-1.15-0.42-1.94-1.15-2.37-2.2
		C1313.98,209.14,1314,207.99,1314.44,206.76z M1316.28,207.46c-0.21,0.57-0.19,1.13,0.06,1.68c0.25,0.55,0.66,0.93,1.23,1.14
		c0.57,0.21,1.13,0.19,1.67-0.07c0.55-0.26,0.93-0.67,1.14-1.24c0.21-0.57,0.19-1.14-0.07-1.69c-0.25-0.55-0.66-0.92-1.23-1.13
		c-0.57-0.21-1.12-0.18-1.67,0.07C1316.86,206.47,1316.48,206.89,1316.28,207.46z"/>
	<path d="M1316.76,201.11l0.75-2.05l0.92,0.33c-0.61-0.93-0.67-1.72-0.31-2.71c0.33-0.9,0.88-1.51,1.65-1.81
		c0.58-0.23,1.33-0.17,2.24,0.16l4.65,1.69l-0.75,2.05l-4.06-1.48c-0.56-0.2-0.98-0.28-1.26-0.22c-0.47,0.07-0.8,0.4-1.01,0.99
		c-0.38,1.03,0.11,1.8,1.47,2.29l3.79,1.38l-0.75,2.05L1316.76,201.11z"/>
	<path d="M1320.42,191.05l4.85-0.42l-3.45-3.42l0.84-2.3l6.1,6.5l-0.34,0.92l-8.84,1.02L1320.42,191.05z"/>
	<path d="M1329.51,178.53l-2,5.49c1.33,0.42,2.2,0.06,2.61-1.08c0.26-0.71,0.14-1.41-0.35-2.1l0.99-1.78
		c1.29,1.19,1.62,2.66,0.98,4.42c-0.44,1.2-1.14,2.02-2.11,2.48s-2.04,0.47-3.22,0.04c-1.18-0.43-2-1.12-2.45-2.08
		c-0.46-0.96-0.47-2.01-0.05-3.18c0.42-1.16,1.11-1.95,2.06-2.37c0.95-0.41,2.03-0.39,3.26,0.06L1329.51,178.53z M1326.23,183.48
		l1.26-3.47c-1.05-0.13-1.75,0.28-2.09,1.21C1325.08,182.12,1325.37,182.97,1326.23,183.48z"/>
	<path d="M1326.08,175.52l0.75-2.05l0.92,0.33c-0.61-0.93-0.67-1.72-0.31-2.71c0.33-0.9,0.88-1.5,1.65-1.81
		c0.58-0.23,1.33-0.17,2.24,0.16l4.65,1.69l-0.75,2.05l-4.06-1.48c-0.56-0.2-0.98-0.28-1.26-0.22c-0.47,0.07-0.8,0.4-1.01,0.99
		c-0.38,1.03,0.11,1.8,1.47,2.29l3.79,1.38l-0.75,2.05L1326.08,175.52z"/>
	<path d="M1331.88,165.09l5.55,2.02l-0.75,2.05l-5.55-2.02l-0.29,0.81l-1.78-0.65l0.29-0.81l-2.5-0.91l0.75-2.05l2.5,0.91l0.53-1.45
		l1.78,0.65L1331.88,165.09z"/>
	<path d="M1336.03,152.19l1.88-5.15c1.48,0.55,2.53,1.15,3.13,1.8c1.55,1.61,1.98,3.74,1.16,5.98c-0.62,1.71-1.69,2.93-3.2,3.64
		c-1.5,0.71-3.11,0.77-4.82,0.14c-1.71-0.62-2.92-1.7-3.63-3.24c-0.71-1.54-0.75-3.17-0.12-4.91c0.78-2.14,2.25-3.44,4.42-3.87
		l0.33,2.31c-1.36,0.27-2.28,1.04-2.74,2.31c-0.39,1.07-0.34,2.08,0.15,3.06c0.49,0.97,1.29,1.67,2.41,2.08
		c1.12,0.41,2.18,0.4,3.16-0.04c0.98-0.44,1.67-1.18,2.05-2.25c0.29-0.8,0.32-1.55,0.08-2.26c-0.24-0.7-0.7-1.23-1.4-1.56
		l-0.96,2.65L1336.03,152.19z"/>
	<path d="M1332.65,140.84l12.67,4.61l-0.75,2.05l-12.67-4.61L1332.65,140.84z"/>
	<path d="M1345.32,135.08l-2,5.49c1.33,0.42,2.2,0.06,2.61-1.08c0.26-0.71,0.14-1.41-0.35-2.1l0.99-1.78
		c1.29,1.19,1.62,2.65,0.98,4.42c-0.44,1.2-1.14,2.02-2.11,2.48s-2.04,0.47-3.22,0.04c-1.18-0.43-2-1.12-2.45-2.08
		c-0.45-0.96-0.47-2.01-0.05-3.18c0.42-1.16,1.11-1.95,2.06-2.37c0.95-0.41,2.03-0.39,3.26,0.06L1345.32,135.08z M1342.04,140.04
		l1.26-3.47c-1.05-0.13-1.75,0.28-2.09,1.21C1340.89,138.68,1341.18,139.53,1342.04,140.04z"/>
	<path d="M1341.89,132.08l0.75-2.05l0.92,0.33c-0.61-0.93-0.67-1.72-0.31-2.71c0.33-0.9,0.88-1.51,1.65-1.81
		c0.58-0.23,1.33-0.17,2.24,0.16l4.65,1.69l-0.75,2.05l-4.06-1.48c-0.56-0.2-0.98-0.28-1.26-0.22c-0.47,0.07-0.8,0.4-1.01,0.99
		c-0.38,1.03,0.11,1.8,1.47,2.29l3.79,1.38l-0.75,2.05L1341.89,132.08z"/>
</g>
<circle fill="#FFFFFF" stroke="#000000" stroke-width="6" stroke-miterlimit="10" cx="1359.23" cy="244" r="10"/>
<g>
	<path d="M1364.42,219.44l4.18,1.52l-0.8,2.2l-11.28-4.11l1.2-3.3c0.27-0.73,0.55-1.3,0.83-1.7c0.29-0.4,0.66-0.72,1.11-0.97
		c0.97-0.52,2-0.57,3.06-0.19s1.82,1.02,2.26,1.88c0.44,0.86,0.42,1.94-0.05,3.24L1364.42,219.44z M1362.52,218.74l0.32-0.89
		c0.5-1.38,0.21-2.26-0.88-2.66c-1.15-0.42-1.89,0.05-2.46,1.59l-0.28,0.76L1362.52,218.74z"/>
	<path d="M1359.05,207.78l12.67,4.61l-0.75,2.05l-12.67-4.61L1359.05,207.78z"/>
	<path d="M1367.15,202.15l0.75-2.05l7.33,2.67l-0.75,2.05l-0.95-0.35c0.55,0.92,0.66,1.88,0.29,2.88c-0.36,1-1.04,1.71-2.04,2.12
		c-0.99,0.42-2.04,0.43-3.14,0.03c-1.1-0.4-1.91-1.09-2.41-2.04c-0.5-0.96-0.57-1.93-0.21-2.9c0.35-0.97,1.05-1.66,2.08-2.05
		L1367.15,202.15z M1368.1,204.56c-0.21,0.58-0.19,1.14,0.06,1.68c0.25,0.55,0.66,0.92,1.23,1.13c0.57,0.21,1.13,0.19,1.67-0.07
		c0.55-0.26,0.92-0.66,1.13-1.23c0.21-0.56,0.18-1.12-0.07-1.67c-0.25-0.55-0.66-0.92-1.23-1.13c-0.57-0.21-1.12-0.18-1.67,0.06
		C1368.68,203.57,1368.31,203.99,1368.1,204.56z"/>
	<path d="M1372.85,193.46c-0.62,0.38-1.03,0.87-1.24,1.46c-0.21,0.59-0.2,1.14,0.04,1.69s0.66,0.92,1.25,1.14s1.15,0.2,1.69-0.07
		c0.54-0.26,0.91-0.69,1.13-1.28c0.22-0.59,0.22-1.22,0-1.89l1.99,0.72c0.09,0.71,0.01,1.39-0.22,2.04
		c-0.41,1.14-1.13,1.95-2.16,2.45c-1.01,0.5-2.08,0.54-3.18,0.14c-1.1-0.4-1.89-1.13-2.37-2.17c-0.47-1.04-0.5-2.14-0.09-3.28
		c0.24-0.67,0.62-1.23,1.12-1.7L1372.85,193.46z"/>
	<path d="M1377.8,185.34l-2,5.49c1.33,0.42,2.2,0.06,2.61-1.08c0.26-0.71,0.14-1.41-0.35-2.1l0.99-1.78
		c1.29,1.19,1.62,2.65,0.98,4.42c-0.44,1.2-1.14,2.02-2.11,2.48s-2.04,0.47-3.22,0.04s-2-1.12-2.45-2.08
		c-0.45-0.96-0.47-2.01-0.05-3.18c0.42-1.16,1.11-1.95,2.06-2.37c0.95-0.41,2.03-0.39,3.26,0.06L1377.8,185.34z M1374.52,190.29
		l1.26-3.47c-1.05-0.13-1.75,0.28-2.09,1.21C1373.37,188.94,1373.66,189.78,1374.52,190.29z"/>
	<path d="M1372.61,170.54l0.75-2.05l12.67,4.61l-0.75,2.05l-0.95-0.35c0.55,0.92,0.66,1.88,0.29,2.88c-0.36,1-1.04,1.71-2.04,2.12
		c-0.99,0.42-2.04,0.43-3.14,0.03c-1.1-0.4-1.91-1.09-2.41-2.04s-0.57-1.93-0.22-2.9s1.05-1.66,2.08-2.05L1372.61,170.54z
		 M1378.89,174.9c-0.21,0.58-0.19,1.14,0.06,1.68c0.25,0.55,0.66,0.92,1.23,1.13c0.57,0.21,1.13,0.19,1.67-0.07
		c0.55-0.26,0.92-0.66,1.13-1.23c0.2-0.56,0.18-1.12-0.07-1.67c-0.25-0.55-0.66-0.92-1.23-1.13c-0.57-0.21-1.12-0.18-1.67,0.06
		C1379.48,173.91,1379.1,174.33,1378.89,174.9z"/>
	<path d="M1375.67,165.75l0.91-1.8l3.63,4.03l-0.65,1.24L1375.67,165.75z"/>
	<path d="M1379.1,156.23c0.61-1.68,1.69-2.88,3.26-3.63c1.56-0.75,3.18-0.82,4.84-0.21c1.66,0.6,2.84,1.7,3.55,3.28
		c0.71,1.58,0.74,3.23,0.12,4.93c-0.62,1.7-1.71,2.91-3.27,3.64c-1.57,0.73-3.17,0.79-4.82,0.19c-1.65-0.6-2.83-1.7-3.53-3.3
		C1378.54,159.54,1378.49,157.91,1379.1,156.23z M1381.1,156.99c-0.38,1.03-0.32,2.06,0.16,3.07c0.48,1.02,1.26,1.72,2.34,2.11
		s2.13,0.35,3.15-0.11c1.03-0.46,1.73-1.2,2.11-2.25c0.38-1.04,0.32-2.07-0.17-3.08c-0.49-1.01-1.28-1.71-2.35-2.1
		c-1.07-0.39-2.12-0.36-3.14,0.1C1382.18,155.2,1381.48,155.96,1381.1,156.99z"/>
	<path d="M1394.18,150.67l-0.75,2.05l-7.33-2.67l0.75-2.05l1.11,0.41c-0.72-0.83-0.91-1.71-0.57-2.62c0.1-0.29,0.27-0.57,0.51-0.83
		l1.8,0.98c-0.29,0.24-0.49,0.53-0.6,0.88c-0.43,1.17,0.1,2.03,1.56,2.56L1394.18,150.67z"/>
	<path d="M1383.75,139.91l12.67,4.61l-0.75,2.05l-12.67-4.61L1383.75,139.91z"/>
	<path d="M1388.35,132.82l1.36,3.37l-1.04,0.74l-1.83-2.95L1388.35,132.82z M1396.43,134.15l-2,5.49c1.33,0.42,2.2,0.06,2.61-1.08
		c0.26-0.71,0.14-1.41-0.35-2.1l0.99-1.78c1.29,1.19,1.62,2.65,0.98,4.42c-0.44,1.2-1.14,2.02-2.11,2.48
		c-0.97,0.46-2.04,0.47-3.22,0.04c-1.18-0.43-2-1.12-2.45-2.08c-0.45-0.96-0.47-2.01-0.05-3.18c0.42-1.16,1.11-1.95,2.06-2.37
		c0.95-0.41,2.03-0.39,3.26,0.06L1396.43,134.15z M1393.15,139.1l1.26-3.47c-1.05-0.13-1.75,0.28-2.09,1.21
		C1392,137.75,1392.29,138.59,1393.15,139.1z"/>
	<path d="M1395.04,125.53l0.75-2.05l7.33,2.67l-0.75,2.05l-0.95-0.35c0.55,0.92,0.66,1.88,0.29,2.88c-0.36,1-1.04,1.71-2.04,2.12
		s-2.04,0.43-3.14,0.02c-1.1-0.4-1.91-1.09-2.41-2.04c-0.5-0.96-0.57-1.93-0.22-2.9s1.05-1.66,2.08-2.05L1395.04,125.53z
		 M1395.99,127.94c-0.21,0.58-0.19,1.14,0.06,1.68c0.25,0.55,0.67,0.92,1.23,1.13c0.57,0.21,1.13,0.19,1.67-0.07
		c0.55-0.26,0.92-0.66,1.13-1.23c0.21-0.56,0.18-1.12-0.07-1.67c-0.25-0.55-0.66-0.92-1.23-1.13c-0.57-0.21-1.12-0.18-1.67,0.06
		C1396.57,126.95,1396.2,127.37,1395.99,127.94z"/>
	<path d="M1396.5,121.52l0.75-2.05l0.92,0.33c-0.61-0.93-0.67-1.72-0.31-2.71c0.33-0.9,0.88-1.51,1.65-1.81
		c0.58-0.23,1.33-0.17,2.24,0.16l4.65,1.69l-0.75,2.05l-4.06-1.48c-0.56-0.2-0.98-0.28-1.26-0.22c-0.47,0.07-0.8,0.4-1.01,0.99
		c-0.38,1.03,0.11,1.8,1.47,2.29l3.79,1.38l-0.75,2.05L1396.5,121.52z"/>
	<path d="M1402.95,109.13c-0.48,0.31-0.78,0.62-0.89,0.92c-0.11,0.31-0.13,0.55-0.08,0.75c0.07,0.2,0.19,0.33,0.36,0.39
		c0.17,0.06,0.34,0.04,0.5-0.08c0.16-0.12,0.45-0.43,0.85-0.92c0.41-0.5,0.76-0.85,1.07-1.05c0.57-0.4,1.22-0.47,1.95-0.21
		s1.25,0.78,1.53,1.53c0.29,0.76,0.26,1.59-0.07,2.49c-0.4,1.11-1.14,1.88-2.23,2.33l-0.86-1.53c0.78-0.36,1.28-0.84,1.49-1.42
		c0.19-0.52-0.02-1.07-0.46-1.22c-0.22-0.08-0.41-0.08-0.58,0.02c-0.16,0.1-0.46,0.4-0.89,0.92c-0.43,0.52-0.77,0.86-1.03,1.02
		c-0.52,0.36-1.11,0.42-1.79,0.17s-1.15-0.7-1.41-1.35c-0.26-0.65-0.23-1.39,0.07-2.21c0.3-0.83,0.84-1.49,1.62-2L1402.95,109.13z"
		/>
</g>
<circle fill="#FFFFFF" stroke="#000000" stroke-width="6" stroke-miterlimit="10" cx="1410" cy="244" r="10"/>
<g>
	<path d="M1419.86,219.62l-0.8,2.21l-9.37-3.41l-0.92,2.52l-1.91-0.69l2.64-7.26l1.91,0.69l-0.92,2.54L1419.86,219.62z"/>
	<path d="M1421.74,214.44l-0.75,2.05l-7.33-2.67l0.75-2.05l1.11,0.41c-0.72-0.83-0.91-1.71-0.57-2.62c0.11-0.29,0.27-0.57,0.51-0.83
		l1.8,0.98c-0.28,0.24-0.49,0.54-0.6,0.88c-0.43,1.17,0.09,2.03,1.56,2.56L1421.74,214.44z"/>
	<path d="M1411.96,205.07c0.12-0.34,0.34-0.59,0.67-0.74c0.33-0.15,0.66-0.16,1-0.04c0.34,0.12,0.59,0.36,0.74,0.68
		c0.16,0.33,0.18,0.67,0.05,1.01c-0.12,0.34-0.35,0.58-0.68,0.73c-0.33,0.15-0.67,0.17-1.01,0.04c-0.34-0.12-0.59-0.36-0.74-0.69
		C1411.84,205.75,1411.83,205.41,1411.96,205.07z M1416.65,205.65l7.33,2.67l-0.74,2.04l-7.33-2.67L1416.65,205.65z"/>
	<path d="M1423.37,198.28l3.76,1.37l-0.75,2.05l-3.89-1.42c-0.57-0.21-0.99-0.31-1.25-0.3s-0.49,0.09-0.7,0.25
		c-0.21,0.16-0.35,0.36-0.44,0.59c-0.17,0.46-0.07,1.04,0.3,1.47c0.18,0.22,0.6,0.44,1.26,0.67l3.76,1.37l-0.75,2.05l-7.33-2.67
		l0.75-2.05l0.85,0.31c-0.49-0.9-0.57-1.81-0.23-2.73s1.05-1.49,2.12-1.69c-0.68-0.9-0.85-1.84-0.49-2.82
		c0.36-0.98,0.97-1.56,1.83-1.73c0.51-0.1,1.15-0.02,1.92,0.26l4.73,1.72l-0.75,2.05l-4-1.46c-0.53-0.19-0.94-0.28-1.23-0.26
		c-0.5,0.03-0.84,0.3-1.02,0.8C1421.48,197.06,1421.99,197.78,1423.37,198.28z"/>
</g>
<g>
	<path fill="#9B9B9B" d="M692.26,283.22v2.95h-1.43v-7.34h2.12c0.83,0,1.46,0.17,1.87,0.52c0.48,0.4,0.73,0.96,0.73,1.65
		c0,0.7-0.22,1.23-0.66,1.62c-0.27,0.24-0.61,0.4-1.01,0.47l2.31,3.09h-1.76l-1.98-2.95H692.26z M692.26,282.21h0.42
		c0.91,0,1.4-0.41,1.4-1.12c0-0.74-0.46-1.1-1.38-1.1h-0.44V282.21z"/>
	<path fill="#9B9B9B" d="M700.42,281.4h1.33v4.76h-1.33v-0.62c-0.41,0.51-0.94,0.77-1.59,0.77s-1.2-0.24-1.64-0.72
		c-0.45-0.48-0.67-1.09-0.67-1.8s0.23-1.32,0.67-1.81c0.45-0.49,0.99-0.73,1.62-0.73s1.17,0.26,1.61,0.77V281.4z M699.24,282.45
		c-0.38,0-0.69,0.13-0.95,0.39c-0.26,0.26-0.39,0.57-0.39,0.95s0.13,0.69,0.39,0.95c0.26,0.26,0.57,0.39,0.94,0.39
		s0.68-0.13,0.95-0.39c0.26-0.26,0.39-0.57,0.39-0.94c0-0.37-0.13-0.68-0.38-0.95C699.93,282.58,699.61,282.45,699.24,282.45z"/>
	<path fill="#9B9B9B" d="M703.69,278.59c0.22,0,0.41,0.07,0.56,0.23s0.23,0.34,0.23,0.56c0,0.22-0.08,0.41-0.24,0.57
		c-0.16,0.16-0.35,0.24-0.57,0.24s-0.41-0.08-0.56-0.24s-0.24-0.35-0.24-0.57s0.08-0.41,0.24-0.57
		C703.27,278.66,703.46,278.59,703.69,278.59z M704.33,281.4v4.76h-1.33v-4.76H704.33z"/>
	<path fill="#9B9B9B" d="M706.92,277.93v8.24h-1.33v-8.24H706.92z"/>
	<path fill="#9B9B9B" d="M715.04,280.07h-2.45v1.63h2.3v1.24h-2.3v3.22h-1.43v-7.34h3.88V280.07z"/>
	<path fill="#9B9B9B" d="M719.61,281.4h1.33v4.76h-1.33v-0.62c-0.41,0.51-0.94,0.77-1.59,0.77s-1.2-0.24-1.64-0.72
		c-0.45-0.48-0.67-1.09-0.67-1.8s0.23-1.32,0.67-1.81c0.45-0.49,0.99-0.73,1.62-0.73s1.17,0.26,1.61,0.77V281.4z M718.42,282.45
		c-0.38,0-0.69,0.13-0.95,0.39c-0.26,0.26-0.39,0.57-0.39,0.95s0.13,0.69,0.39,0.95c0.26,0.26,0.57,0.39,0.94,0.39
		s0.68-0.13,0.95-0.39c0.26-0.26,0.39-0.57,0.39-0.94c0-0.37-0.13-0.68-0.38-0.95C719.11,282.58,718.79,282.45,718.42,282.45z"/>
	<path fill="#9B9B9B" d="M722.22,281.4h1.33v0.6c0.41-0.54,0.85-0.75,1.49-0.75c0.59,0,1.05,0.19,1.39,0.57
		c0.25,0.29,0.38,0.73,0.38,1.32v3.02h-1.33v-2.64c0-0.37-0.04-0.62-0.13-0.77c-0.14-0.25-0.4-0.38-0.78-0.38
		c-0.67,0-1.01,0.44-1.01,1.32v2.46h-1.33V281.4z"/>
	<path fill="#9B9B9B" d="M730.68,282.52c-0.28-0.21-0.52-0.32-0.71-0.32s-0.34,0.04-0.45,0.11c-0.1,0.08-0.15,0.18-0.15,0.29
		s0.05,0.2,0.15,0.27c0.1,0.07,0.34,0.17,0.71,0.3s0.65,0.26,0.83,0.39c0.35,0.24,0.53,0.6,0.53,1.08s-0.19,0.88-0.56,1.2
		c-0.38,0.32-0.86,0.48-1.44,0.48c-0.72,0-1.32-0.26-1.8-0.79l0.7-0.81c0.37,0.37,0.75,0.56,1.13,0.56c0.34,0,0.61-0.24,0.61-0.52
		c0-0.15-0.04-0.25-0.13-0.33c-0.09-0.07-0.33-0.18-0.71-0.32c-0.39-0.14-0.66-0.26-0.8-0.38c-0.32-0.22-0.47-0.55-0.47-0.99
		s0.16-0.81,0.48-1.09c0.32-0.28,0.75-0.42,1.28-0.42s1.03,0.17,1.49,0.51L730.68,282.52z"/>
	<path fill="#9B9B9B" d="M740.78,280.8c-0.56-0.55-1.17-0.83-1.82-0.83s-1.21,0.25-1.68,0.74c-0.47,0.49-0.7,1.1-0.7,1.81
		c0,0.71,0.23,1.31,0.7,1.79c0.46,0.48,1.04,0.71,1.73,0.71c0.34,0,0.65-0.06,0.92-0.18c0.27-0.12,0.55-0.33,0.84-0.62v1.68
		c-0.62,0.29-1.21,0.43-1.79,0.43c-1.08,0-2-0.37-2.75-1.1s-1.12-1.63-1.12-2.7c0-1.07,0.38-1.98,1.13-2.73s1.67-1.13,2.74-1.13
		c0.6,0,1.19,0.15,1.79,0.45V280.8z"/>
	<path fill="#9B9B9B" d="M745.54,281.4h1.33v4.76h-1.33v-0.62c-0.41,0.51-0.94,0.77-1.59,0.77s-1.2-0.24-1.64-0.72
		c-0.45-0.48-0.67-1.09-0.67-1.8s0.23-1.32,0.67-1.81c0.45-0.49,0.99-0.73,1.62-0.73s1.17,0.26,1.61,0.77V281.4z M744.35,282.45
		c-0.38,0-0.69,0.13-0.95,0.39c-0.26,0.26-0.39,0.57-0.39,0.95s0.13,0.69,0.39,0.95c0.26,0.26,0.57,0.39,0.94,0.39
		s0.68-0.13,0.95-0.39c0.26-0.26,0.39-0.57,0.39-0.94c0-0.37-0.13-0.68-0.38-0.95C745.04,282.58,744.72,282.45,744.35,282.45z"/>
	<path fill="#9B9B9B" d="M748.14,281.4h1.33v0.6c0.41-0.54,0.85-0.75,1.49-0.75c0.59,0,1.05,0.19,1.39,0.57
		c0.25,0.29,0.38,0.73,0.38,1.32v3.02h-1.33v-2.64c0-0.37-0.04-0.62-0.13-0.77c-0.14-0.25-0.4-0.38-0.78-0.38
		c-0.67,0-1.01,0.44-1.01,1.32v2.46h-1.33V281.4z"/>
	<path fill="#9B9B9B" d="M757.65,281.4h1.33v4.76h-1.33v-0.62c-0.41,0.51-0.94,0.77-1.59,0.77c-0.65,0-1.2-0.24-1.64-0.72
		c-0.45-0.48-0.67-1.09-0.67-1.8s0.23-1.32,0.67-1.81c0.45-0.49,0.99-0.73,1.62-0.73c0.63,0,1.17,0.26,1.61,0.77V281.4z
		 M756.47,282.45c-0.38,0-0.69,0.13-0.95,0.39c-0.26,0.26-0.39,0.57-0.39,0.95s0.13,0.69,0.39,0.95c0.26,0.26,0.58,0.39,0.94,0.39
		s0.68-0.13,0.95-0.39c0.26-0.26,0.39-0.57,0.39-0.94c0-0.37-0.13-0.68-0.38-0.95C757.15,282.58,756.84,282.45,756.47,282.45z"/>
	<path fill="#9B9B9B" d="M763.91,277.93h1.33v8.24h-1.33v-0.62c-0.41,0.51-0.94,0.77-1.59,0.77s-1.2-0.24-1.64-0.72
		c-0.45-0.48-0.67-1.09-0.67-1.8s0.23-1.32,0.67-1.81c0.45-0.49,0.99-0.73,1.62-0.73s1.17,0.26,1.61,0.77V277.93z M762.72,282.45
		c-0.38,0-0.69,0.13-0.95,0.39c-0.26,0.26-0.39,0.57-0.39,0.95s0.13,0.69,0.39,0.95c0.26,0.26,0.57,0.39,0.94,0.39
		s0.68-0.13,0.95-0.39c0.26-0.26,0.39-0.57,0.39-0.94c0-0.37-0.13-0.68-0.38-0.95C763.41,282.58,763.09,282.45,762.72,282.45z"/>
	<path fill="#9B9B9B" d="M770.21,281.4h1.33v4.76h-1.33v-0.62c-0.41,0.51-0.94,0.77-1.59,0.77c-0.65,0-1.2-0.24-1.64-0.72
		c-0.45-0.48-0.67-1.09-0.67-1.8s0.23-1.32,0.67-1.81c0.45-0.49,0.99-0.73,1.62-0.73c0.63,0,1.17,0.26,1.61,0.77V281.4z
		 M769.02,282.45c-0.38,0-0.69,0.13-0.95,0.39c-0.26,0.26-0.39,0.57-0.39,0.95s0.13,0.69,0.39,0.95c0.26,0.26,0.57,0.39,0.94,0.39
		s0.68-0.13,0.95-0.39c0.26-0.26,0.39-0.57,0.39-0.94c0-0.37-0.13-0.68-0.38-0.95C769.71,282.58,769.39,282.45,769.02,282.45z"/>
	<path fill="#9B9B9B" d="M774.93,283.09h7.4v1.11h-7.4V283.09z"/>
	<path fill="#9B9B9B" d="M790.6,284.93v1.24h-5.33l2.17-2.46c0.67-0.76,1.11-1.33,1.34-1.69c0.23-0.36,0.34-0.7,0.34-1.01
		c0-0.31-0.11-0.58-0.32-0.79c-0.22-0.21-0.49-0.32-0.8-0.32c-0.32,0-0.58,0.11-0.76,0.32c-0.19,0.21-0.29,0.51-0.31,0.89h-1.53
		c0.05-0.76,0.31-1.36,0.77-1.81c0.46-0.45,1.06-0.67,1.8-0.67c0.74,0,1.35,0.23,1.85,0.67c0.49,0.45,0.74,1.04,0.74,1.76
		s-0.45,1.56-1.33,2.5l-1.28,1.35H790.6z"/>
	<path fill="#9B9B9B" d="M794.45,278.64c0.83,0,1.52,0.38,2.07,1.12c0.5,0.7,0.76,1.62,0.76,2.73s-0.25,2.03-0.76,2.74
		c-0.52,0.7-1.29,1.12-2.08,1.12c-0.85,0-1.54-0.37-2.06-1.1s-0.78-1.65-0.78-2.78s0.25-2.02,0.76-2.72
		C792.92,279.02,793.61,278.64,794.45,278.64z M794.44,279.91c-0.41,0-0.75,0.24-1.02,0.72c-0.27,0.48-0.4,1.1-0.4,1.86
		c0,0.76,0.13,1.38,0.4,1.87c0.26,0.49,0.61,0.73,1.02,0.73c0.41,0,0.76-0.24,1.02-0.72c0.26-0.48,0.39-1.11,0.39-1.86
		c0-0.76-0.13-1.38-0.4-1.86S794.85,279.91,794.44,279.91z"/>
	<path fill="#9B9B9B" d="M803.07,284.93v1.24h-5.33l2.16-2.46c0.67-0.76,1.11-1.33,1.34-1.69c0.23-0.36,0.34-0.7,0.34-1.01
		c0-0.31-0.11-0.58-0.32-0.79c-0.22-0.21-0.49-0.32-0.81-0.32c-0.32,0-0.57,0.11-0.76,0.32c-0.19,0.21-0.3,0.51-0.31,0.89h-1.53
		c0.05-0.76,0.31-1.36,0.77-1.81c0.46-0.45,1.06-0.67,1.8-0.67c0.74,0,1.35,0.23,1.85,0.67c0.49,0.45,0.74,1.04,0.74,1.76
		s-0.45,1.56-1.33,2.5l-1.28,1.35H803.07z"/>
	<path fill="#9B9B9B" d="M809.02,282.04c0.44,0.47,0.66,1.06,0.66,1.79s-0.26,1.33-0.77,1.8c-0.52,0.48-1.19,0.72-2,0.72
		s-1.49-0.24-2.01-0.71c-0.52-0.47-0.79-1.07-0.79-1.81s0.31-1.51,0.92-2.32l2.23-2.98l1.02,0.76l-1.74,2.23
		c0.31-0.12,0.6-0.19,0.86-0.19C808.04,281.34,808.58,281.57,809.02,282.04z M806.91,282.48c-0.38,0-0.7,0.13-0.97,0.39
		c-0.26,0.26-0.4,0.59-0.4,0.98s0.13,0.71,0.4,0.97s0.59,0.4,0.96,0.4s0.69-0.13,0.96-0.4s0.39-0.58,0.39-0.97s-0.13-0.7-0.38-0.97
		C807.61,282.62,807.29,282.48,806.91,282.48z"/>
</g>
<g>
	<path d="M23.11,25.33v24.38h9.02v4.96H17.39V25.33H23.11z"/>
	<path d="M38.04,24.36c0.88,0,1.63,0.3,2.26,0.92s0.92,1.38,0.92,2.26s-0.32,1.65-0.95,2.28c-0.62,0.64-1.4,0.97-2.28,0.97
		s-1.63-0.32-2.26-0.95s-0.95-1.4-0.95-2.28s0.32-1.65,0.97-2.28C36.39,24.66,37.16,24.36,38.04,24.36z M40.64,35.62v19.06h-5.31
		V35.62H40.64z"/>
	<path d="M45.67,35.62H51V38c1.63-2.17,3.39-2.99,5.97-2.99c2.34,0,4.19,0.75,5.54,2.28c1.01,1.14,1.5,2.9,1.5,5.29v12.1h-5.33V44.1
		c0-1.46-0.17-2.49-0.54-3.07c-0.56-1.01-1.59-1.5-3.12-1.5c-2.69,0-4.04,1.76-4.04,5.29v9.86h-5.33V35.62z"/>
	<path d="M87.84,46.02H73.55c0.15,3.42,1.7,5.11,4.66,5.09c1.85,0,3.35-0.86,4.53-2.56l4.92,0.79c-1.65,3.95-4.75,5.93-9.32,5.95
		c-3.12,0-5.59-0.92-7.46-2.77s-2.79-4.3-2.79-7.37s0.9-5.52,2.73-7.37s4.23-2.77,7.26-2.77s5.41,0.92,7.15,2.75s2.6,4.34,2.6,7.54
		V46.02z M73.73,42.62h9.02c-0.58-2.51-2.11-3.78-4.53-3.78C75.88,38.84,74.18,40.21,73.73,42.62z"/>
	<path d="M119.47,52.85c-1.93,1.72-4.45,2.58-7.56,2.58c-4.17,0-7.24-1.65-9.24-4.98c-0.82-1.35-1.25-2.75-1.29-4.21h5.71
		c0.34,2.58,2.13,4.12,4.88,4.12c1.38,0,2.49-0.43,3.37-1.31c0.88-0.86,1.31-1.96,1.31-3.29s-0.43-2.45-1.29-3.35
		c-0.88-0.88-1.96-1.33-3.24-1.33c-0.15,0-0.52,0.02-1.1,0.09v-4.08h0.79c2.47,0,4.04-1.63,4.04-3.97s-1.61-3.95-3.95-3.95
		c-2.32,0-3.63,1.27-3.93,3.82h-5.41c0.82-5.61,4.06-8.4,9.73-8.4c2.69,0,4.86,0.75,6.51,2.23c1.65,1.5,2.47,3.48,2.47,5.91
		c0,2.99-0.92,4.73-3.39,6.25c2.99,1.22,4.49,3.61,4.49,7.18C122.37,48.92,121.4,51.15,119.47,52.85z"/>
	<path d="M145.23,51.6c0.62,3.24,1.5,5.99,2.62,8.23l-4.28,2.32c-1.27-2.41-2.19-4.9-2.77-7.48c-1.05-4.4-1.59-8.85-1.59-13.34
		c0-8.04,1.46-14.82,4.36-20.37l4.28,2.34c-2.38,5.07-3.57,11.15-3.57,18.22C144.28,44.98,144.6,48.36,145.23,51.6z"/>
	<path d="M163.51,54.67h-5.74V30.29h-6.55v-4.96h18.88v4.96h-6.6V54.67z"/>
	<path d="M173.8,54.67V25.33h7.26c3.31,0,5.69,0.58,7.15,1.76c1.76,1.38,2.64,3.37,2.64,5.97c0,1.61-0.37,3.01-1.1,4.19
		c-0.41,0.56-1.12,1.14-2.11,1.76c1.76,0.39,3.03,1.01,3.82,1.85c1.4,1.4,2.11,3.29,2.11,5.67s-0.86,4.34-2.56,5.87
		s-4.15,2.28-7.35,2.28H173.8z M179.52,37.55h1.63c2.96,0,4.45-1.27,4.45-3.8s-1.46-3.8-4.36-3.8h-1.72V37.55z M179.52,50.05h2.47
		c3.8,0,5.71-1.35,5.71-4.04c0-1.48-0.58-2.58-1.72-3.27c-0.84-0.56-2.28-0.84-4.32-0.84h-2.15V50.05z"/>
	<path d="M198.87,54.67V25.33h8.4c4.28,0,7.78,1.14,10.51,3.39c1.65,1.35,2.94,3.01,3.87,4.98s1.38,4.06,1.38,6.25
		s-0.47,4.28-1.4,6.27c-0.95,2-2.26,3.67-3.93,5.05c-2.66,2.26-6.14,3.39-10.46,3.39H198.87z M204.59,49.71h1.55
		c3.5,0,6.1-0.77,7.82-2.34c2-1.74,3.18-4.58,3.18-7.39c0-2.99-1.05-5.44-3.18-7.3c-1.76-1.59-4.36-2.38-7.82-2.38h-1.55V49.71z"/>
	<path d="M231.06,31.56c-0.62-3.24-1.5-5.99-2.62-8.25l4.25-2.34c1.27,2.41,2.19,4.9,2.77,7.48c1.05,4.4,1.59,8.85,1.59,13.34
		c0,8.04-1.46,14.82-4.36,20.37l-4.25-2.32c2.38-5.09,3.57-11.17,3.57-18.22C232,38.17,231.68,34.82,231.06,31.56z"/>
</g>
</svg>
