<?xml version="1.0" encoding="iso-8859-1"?>
<!-- Generator: Adobe Illustrator 29.8.4, SVG Export Plug-In . SVG Version: 9.03 Build 0)  -->
<svg version="1.1" id="Layer_1" xmlns="http://www.w3.org/2000/svg" xmlns:xlink="http://www.w3.org/1999/xlink" x="0px" y="0px"
	 viewBox="0 0 1500 275" enable-background="new 0 0 1500 275" xml:space="preserve">
<rect id="bg-white" fill="#FFFFFF" width="1500" height="275"/>
<line fill="none" stroke="#508128" stroke-width="16" stroke-linecap="round" stroke-miterlimit="10" x1="90" y1="227" x2="1410" y2="227"/>
<circle fill="#FFFFFF" stroke="#000000" stroke-width="6" stroke-miterlimit="10" cx="90" cy="227" r="10"/>
<g>
	<path d="M98.57,206.16l-11.28-4.11l1.02-2.79c0.46-1.27,1.02-2.11,1.68-2.5c0.77-0.48,1.67-0.54,2.67-0.18
		c0.62,0.23,1.11,0.56,1.46,1.01c0.16,0.23,0.28,0.59,0.38,1.06c0.4-0.62,0.81-1.02,1.25-1.21c0.73-0.34,1.56-0.35,2.47-0.02
		c0.92,0.33,1.55,0.94,1.9,1.8c0.35,0.87,0.3,1.91-0.15,3.14L98.57,206.16z M92.79,201.56l0.23-0.63c0.42-1.14,0.13-1.89-0.84-2.24
		s-1.67,0.03-2.07,1.14l-0.24,0.66L92.79,201.56z M97.6,203.31l0.35-0.95c0.53-1.46,0.28-2.39-0.75-2.76
		c-0.57-0.21-1.07-0.14-1.5,0.2c-0.33,0.24-0.64,0.76-0.93,1.54l-0.3,0.83L97.6,203.31z"/>
	<path d="M96.68,188.56l0.75-2.05l7.33,2.67l-0.75,2.05l-0.95-0.35c0.55,0.92,0.65,1.88,0.29,2.87c-0.36,1-1.04,1.71-2.04,2.12
		c-0.99,0.42-2.04,0.42-3.14,0.03c-1.1-0.4-1.91-1.09-2.41-2.05s-0.57-1.93-0.22-2.9c0.36-0.97,1.05-1.66,2.08-2.05L96.68,188.56z
		 M97.63,190.97c-0.21,0.58-0.19,1.14,0.06,1.68c0.25,0.55,0.66,0.92,1.23,1.13c0.57,0.21,1.13,0.19,1.67-0.07
		c0.55-0.26,0.92-0.66,1.13-1.23c0.2-0.56,0.18-1.12-0.07-1.67c-0.25-0.55-0.66-0.92-1.23-1.13c-0.57-0.21-1.12-0.18-1.67,0.06
		C98.21,189.98,97.84,190.4,97.63,190.97z"/>
	<path d="M105.27,184.29l-7.47,1.21l0.87-2.39l4.96-0.68l-3.4-3.6l0.86-2.35l9.08,10.01l-0.84,2.32L105.27,184.29z"/>
	<path d="M101.92,174.15l4.85-0.42l-3.45-3.42l0.84-2.3l6.1,6.49l-0.34,0.93l-8.84,1.02L101.92,174.15z"/>
	<path d="M100.6,164.34c0.12-0.34,0.34-0.59,0.67-0.74c0.33-0.15,0.66-0.16,1-0.04s0.59,0.36,0.74,0.68
		c0.16,0.33,0.18,0.67,0.05,1.01c-0.12,0.34-0.35,0.58-0.68,0.73c-0.33,0.15-0.67,0.17-1.01,0.04s-0.59-0.36-0.74-0.69
		C100.48,165.01,100.47,164.67,100.6,164.34z M105.29,164.91l7.33,2.67l-0.74,2.04l-7.33-2.67L105.29,164.91z"/>
	<path d="M112.61,157.23l-2,5.49c1.33,0.42,2.2,0.06,2.61-1.08c0.26-0.71,0.14-1.41-0.35-2.1l0.99-1.78
		c1.29,1.19,1.62,2.66,0.98,4.42c-0.44,1.2-1.14,2.02-2.11,2.48c-0.97,0.46-2.04,0.47-3.22,0.04c-1.18-0.43-2-1.12-2.45-2.08
		c-0.45-0.96-0.47-2.01-0.05-3.18c0.42-1.16,1.11-1.95,2.06-2.37c0.95-0.41,2.03-0.39,3.26,0.06L112.61,157.23z M109.33,162.18
		l1.26-3.47c-1.05-0.13-1.75,0.28-2.09,1.21C108.18,160.83,108.47,161.67,109.33,162.18z"/>
	<path d="M109.54,153.22l4.93-0.38l-3.7-3.61l0.32-0.88l5.22-0.36l-3.58-3.52l0.83-2.29l6.09,6.51l-0.34,0.92l-5.17,0.37l3.73,3.57
		l-0.34,0.94l-8.84,1.04L109.54,153.22z"/>
</g>
<circle fill="#FFFFFF" stroke="#000000" stroke-width="6" stroke-miterlimit="10" cx="222" cy="227" r="10"/>
<g>
	<path d="M225.28,195.02c-1.16,0.55-1.92,1.33-2.29,2.34c-0.37,1.01-0.3,2,0.19,2.99c0.49,0.99,1.29,1.69,2.39,2.09
		c1.1,0.4,2.14,0.38,3.14-0.07c0.99-0.44,1.68-1.2,2.07-2.27c0.19-0.53,0.27-1.03,0.23-1.51c-0.04-0.48-0.2-1.03-0.48-1.64
		l2.58,0.94c0.09,1.11-0.02,2.11-0.34,3c-0.61,1.67-1.68,2.88-3.23,3.61c-1.55,0.74-3.14,0.81-4.78,0.21
		c-1.64-0.6-2.83-1.68-3.57-3.27c-0.74-1.59-0.81-3.2-0.21-4.85c0.33-0.92,0.9-1.75,1.7-2.51L225.28,195.02z"/>
	<path d="M227.98,189.76c0.45-1.23,1.17-2.1,2.17-2.6s2.08-0.55,3.24-0.13s1.96,1.15,2.39,2.19c0.43,1.05,0.43,2.19-0.02,3.43
		c-0.45,1.25-1.19,2.11-2.2,2.61c-1.01,0.5-2.09,0.54-3.23,0.12c-1.15-0.42-1.94-1.15-2.37-2.2
		C227.52,192.14,227.53,190.99,227.98,189.76z M229.81,190.46c-0.21,0.57-0.19,1.13,0.06,1.68c0.25,0.55,0.66,0.93,1.23,1.14
		c0.57,0.21,1.13,0.19,1.67-0.07c0.55-0.26,0.93-0.67,1.14-1.24c0.21-0.57,0.19-1.14-0.07-1.69c-0.25-0.55-0.66-0.92-1.23-1.13
		c-0.57-0.21-1.12-0.18-1.67,0.07C230.4,189.47,230.02,189.89,229.81,190.46z"/>
	<path d="M238.37,184.73l-0.75,2.05l-7.33-2.67l0.75-2.05l1.12,0.41c-0.72-0.83-0.91-1.71-0.57-2.62c0.1-0.29,0.27-0.57,0.51-0.83
		l1.8,0.98c-0.28,0.24-0.48,0.54-0.6,0.88c-0.43,1.17,0.09,2.03,1.56,2.56L238.37,184.73z"/>
	<path d="M235.66,174.71c-0.48,0.31-0.78,0.62-0.89,0.92s-0.13,0.55-0.08,0.75c0.07,0.2,0.19,0.33,0.36,0.39
		c0.17,0.06,0.34,0.04,0.5-0.08s0.45-0.43,0.85-0.92c0.41-0.5,0.76-0.85,1.07-1.05c0.57-0.4,1.22-0.47,1.95-0.21
		c0.74,0.27,1.25,0.78,1.53,1.53c0.29,0.76,0.26,1.59-0.06,2.49c-0.4,1.11-1.14,1.88-2.23,2.33l-0.86-1.53
		c0.78-0.36,1.28-0.84,1.49-1.42c0.19-0.52-0.02-1.07-0.46-1.22c-0.22-0.08-0.41-0.08-0.58,0.02c-0.16,0.1-0.46,0.4-0.89,0.92
		c-0.43,0.52-0.77,0.86-1.03,1.02c-0.52,0.36-1.11,0.42-1.79,0.17s-1.15-0.7-1.41-1.35c-0.26-0.65-0.23-1.39,0.07-2.21
		c0.3-0.83,0.84-1.49,1.62-2L235.66,174.71z"/>
	<path d="M236.14,167.34c0.45-1.23,1.17-2.1,2.17-2.6c1-0.51,2.08-0.55,3.24-0.13s1.96,1.15,2.39,2.19
		c0.43,1.05,0.43,2.19-0.02,3.43c-0.45,1.25-1.19,2.11-2.2,2.61c-1.01,0.5-2.09,0.54-3.23,0.12c-1.15-0.42-1.94-1.15-2.37-2.2
		C235.68,169.71,235.7,168.57,236.14,167.34z M237.98,168.03c-0.21,0.57-0.19,1.13,0.06,1.68c0.25,0.55,0.66,0.93,1.23,1.14
		c0.57,0.21,1.13,0.19,1.67-0.07c0.55-0.26,0.93-0.67,1.13-1.24c0.21-0.57,0.19-1.14-0.07-1.69c-0.25-0.55-0.66-0.92-1.23-1.13
		c-0.57-0.21-1.12-0.18-1.67,0.07C238.56,167.05,238.18,167.46,237.98,168.03z"/>
	<path d="M236.96,153.5l11.28,4.11l-0.8,2.2l-11.28-4.11L236.96,153.5z"/>
	<path d="M244.27,151.26l5.55,2.02l-0.75,2.05l-5.55-2.02l-0.29,0.81l-1.78-0.65l0.29-0.81l-2.5-0.91l0.75-2.05l2.5,0.91l0.53-1.45
		l1.78,0.65L244.27,151.26z"/>
	<path d="M245.46,142.47l0.75-2.05l7.33,2.67l-0.75,2.05l-0.95-0.35c0.55,0.92,0.66,1.88,0.29,2.87c-0.36,1-1.04,1.71-2.04,2.12
		c-0.99,0.41-2.04,0.42-3.14,0.03c-1.1-0.4-1.91-1.09-2.41-2.05c-0.5-0.96-0.57-1.93-0.22-2.9c0.36-0.97,1.05-1.66,2.08-2.05
		L245.46,142.47z M246.4,144.88c-0.21,0.58-0.19,1.14,0.06,1.68c0.25,0.55,0.66,0.92,1.23,1.13c0.57,0.21,1.13,0.19,1.67-0.07
		c0.55-0.26,0.92-0.67,1.13-1.23c0.2-0.56,0.18-1.12-0.07-1.67c-0.25-0.55-0.66-0.92-1.23-1.13s-1.12-0.18-1.67,0.06
		C246.99,143.9,246.61,144.31,246.4,144.88z"/>
	<path d="M242.32,134.47l12.67,4.61l-0.75,2.05l-12.67-4.61L242.32,134.47z"/>
	<path d="M244.41,131.88c0.12-0.34,0.34-0.58,0.67-0.74c0.33-0.15,0.66-0.16,1-0.04c0.34,0.12,0.59,0.36,0.74,0.68
		c0.16,0.33,0.18,0.67,0.05,1.01c-0.12,0.34-0.35,0.58-0.68,0.74c-0.33,0.15-0.67,0.17-1.01,0.04c-0.34-0.12-0.59-0.36-0.74-0.69
		C244.29,132.56,244.29,132.22,244.41,131.88z M249.1,132.45l7.33,2.67l-0.74,2.04l-7.33-2.67L249.1,132.45z"/>
	<path d="M251.85,124.91l0.75-2.05l7.33,2.67l-0.75,2.05l-0.95-0.35c0.55,0.92,0.66,1.88,0.29,2.87c-0.36,1-1.04,1.71-2.04,2.12
		s-2.04,0.43-3.14,0.03c-1.1-0.4-1.91-1.09-2.41-2.05c-0.5-0.96-0.57-1.93-0.22-2.9s1.05-1.66,2.08-2.05L251.85,124.91z
		 M252.8,127.32c-0.21,0.58-0.19,1.14,0.06,1.68c0.25,0.55,0.67,0.92,1.23,1.13c0.57,0.21,1.13,0.19,1.67-0.07
		c0.55-0.26,0.92-0.66,1.13-1.23c0.21-0.56,0.18-1.12-0.07-1.67c-0.25-0.55-0.66-0.92-1.23-1.13c-0.57-0.21-1.12-0.18-1.67,0.06
		C253.38,126.33,253,126.75,252.8,127.32z"/>
</g>
<circle fill="#FFFFFF" stroke="#000000" stroke-width="6" stroke-miterlimit="10" cx="354" cy="227" r="10"/>
<g>
	<path d="M362.57,206.16l-11.28-4.11l1.18-3.23c0.6-1.64,1.53-2.83,2.77-3.56c0.75-0.45,1.57-0.71,2.46-0.79
		c0.89-0.08,1.75,0.04,2.6,0.35c0.84,0.31,1.58,0.78,2.22,1.42c0.64,0.64,1.1,1.38,1.39,2.22c0.49,1.34,0.44,2.84-0.16,4.5
		L362.57,206.16z M361.46,203.26l0.22-0.59c0.49-1.35,0.56-2.45,0.19-3.33c-0.39-1.01-1.31-1.86-2.4-2.26
		c-1.15-0.42-2.24-0.36-3.25,0.2c-0.86,0.45-1.53,1.34-2.01,2.67l-0.22,0.59L361.46,203.26z"/>
	<path d="M360.4,188.61c0.45-1.23,1.18-2.1,2.17-2.6s2.08-0.55,3.24-0.13s1.96,1.15,2.39,2.19c0.43,1.05,0.43,2.19-0.02,3.43
		c-0.45,1.25-1.19,2.11-2.2,2.61c-1.01,0.5-2.09,0.54-3.23,0.12c-1.15-0.42-1.94-1.15-2.37-2.2
		C359.94,190.98,359.96,189.84,360.4,188.61z M362.24,189.3c-0.21,0.57-0.19,1.13,0.06,1.68c0.25,0.55,0.66,0.93,1.23,1.14
		c0.57,0.21,1.13,0.19,1.67-0.07c0.55-0.26,0.93-0.67,1.14-1.24c0.21-0.57,0.19-1.14-0.07-1.69c-0.25-0.55-0.66-0.92-1.23-1.13
		c-0.57-0.21-1.12-0.18-1.67,0.07C362.82,188.32,362.44,188.73,362.24,189.3z"/>
	<path d="M363.07,181.99l4.93-0.39l-3.7-3.61l0.32-0.88l5.22-0.36l-3.58-3.52l0.83-2.29l6.09,6.51l-0.34,0.92l-5.17,0.36l3.73,3.57
		l-0.34,0.94l-8.84,1.04L363.07,181.99z"/>
	<path d="M363.93,166.64l0.91-1.8l3.63,4.03l-0.65,1.24L363.93,166.64z"/>
	<path d="M372.45,161.54c-0.48,0.31-0.78,0.62-0.89,0.92s-0.13,0.55-0.08,0.75c0.07,0.2,0.19,0.33,0.36,0.39
		c0.17,0.06,0.34,0.04,0.51-0.08c0.16-0.12,0.45-0.43,0.85-0.92c0.41-0.5,0.76-0.86,1.07-1.05c0.57-0.4,1.22-0.47,1.95-0.21
		s1.25,0.78,1.53,1.53c0.29,0.76,0.26,1.59-0.07,2.49c-0.4,1.11-1.14,1.88-2.23,2.33l-0.86-1.53c0.78-0.36,1.28-0.84,1.49-1.42
		c0.19-0.52-0.02-1.07-0.46-1.22c-0.22-0.08-0.41-0.08-0.58,0.02c-0.16,0.1-0.46,0.4-0.89,0.92c-0.43,0.52-0.77,0.86-1.03,1.02
		c-0.52,0.36-1.11,0.42-1.79,0.17s-1.15-0.7-1.41-1.35c-0.26-0.65-0.23-1.38,0.07-2.21c0.3-0.83,0.84-1.49,1.62-2L372.45,161.54z"/>
	<path d="M370.27,149.89l9.37,3.41l1.26-3.47l1.91,0.69l-2.06,5.67l-11.28-4.11L370.27,149.89z"/>
	<path d="M378.01,140.95l0.75-2.05l7.33,2.67l-0.75,2.05l-0.95-0.35c0.55,0.92,0.66,1.88,0.29,2.87c-0.36,1-1.04,1.71-2.04,2.12
		c-0.99,0.41-2.04,0.42-3.14,0.02c-1.1-0.4-1.91-1.09-2.41-2.04c-0.5-0.96-0.57-1.93-0.22-2.9s1.05-1.66,2.08-2.05L378.01,140.95z
		 M378.96,143.36c-0.21,0.58-0.19,1.14,0.06,1.68c0.25,0.55,0.66,0.92,1.23,1.13s1.13,0.19,1.67-0.07c0.55-0.26,0.92-0.66,1.13-1.23
		c0.2-0.56,0.18-1.12-0.07-1.67c-0.25-0.55-0.66-0.92-1.23-1.13c-0.57-0.21-1.12-0.18-1.67,0.06
		C379.54,142.38,379.16,142.79,378.96,143.36z"/>
	<path d="M374.87,132.95l8.02,2.92l-1.68-3.71l1.01-2.78l1.96,4.61l5.46-2.21l-1.03,2.83l-4.14,1.6l0.14,0.3l2.92,1.06l-0.75,2.05
		L374.12,135L374.87,132.95z"/>
	<path d="M389.13,122.83l-2,5.49c1.33,0.42,2.2,0.06,2.61-1.08c0.26-0.71,0.14-1.41-0.35-2.1l0.99-1.78
		c1.29,1.19,1.62,2.65,0.98,4.42c-0.44,1.2-1.14,2.02-2.11,2.48s-2.04,0.47-3.22,0.04c-1.18-0.43-2-1.12-2.45-2.08
		c-0.45-0.96-0.47-2.01-0.05-3.18c0.42-1.17,1.11-1.95,2.06-2.37c0.95-0.41,2.03-0.39,3.26,0.06L389.13,122.83z M385.85,127.79
		l1.26-3.47c-1.05-0.13-1.75,0.28-2.09,1.21C384.7,126.43,384.99,127.27,385.85,127.79z"/>
</g>
<circle fill="#FFFFFF" stroke="#000000" stroke-width="6" stroke-miterlimit="10" cx="486" cy="227" r="10"/>
<g>
	<path d="M489.28,195.02c-1.16,0.55-1.92,1.33-2.29,2.34c-0.37,1.01-0.3,2,0.19,2.99c0.49,0.99,1.29,1.69,2.39,2.09
		c1.1,0.4,2.14,0.38,3.14-0.07c0.99-0.44,1.68-1.2,2.07-2.27c0.19-0.53,0.27-1.03,0.23-1.51c-0.04-0.48-0.2-1.03-0.48-1.64
		l2.58,0.94c0.09,1.11-0.02,2.11-0.34,3c-0.61,1.67-1.68,2.88-3.23,3.61c-1.55,0.74-3.14,0.81-4.78,0.21
		c-1.64-0.6-2.83-1.68-3.57-3.27c-0.74-1.59-0.81-3.2-0.21-4.85c0.33-0.92,0.9-1.75,1.7-2.51L489.28,195.02z"/>
	<path d="M492.87,188.04l0.75-2.05l7.33,2.67l-0.75,2.05l-0.95-0.35c0.55,0.92,0.65,1.88,0.29,2.88c-0.36,1-1.04,1.71-2.04,2.12
		c-0.99,0.42-2.04,0.43-3.14,0.03c-1.1-0.4-1.91-1.09-2.41-2.04c-0.5-0.96-0.57-1.93-0.22-2.9c0.36-0.97,1.05-1.66,2.08-2.05
		L492.87,188.04z M493.82,190.45c-0.21,0.58-0.19,1.14,0.06,1.68c0.25,0.55,0.66,0.92,1.23,1.13c0.57,0.21,1.13,0.19,1.67-0.07
		c0.55-0.26,0.93-0.66,1.13-1.23s0.18-1.12-0.07-1.67c-0.25-0.55-0.66-0.92-1.23-1.13c-0.57-0.21-1.12-0.18-1.67,0.06
		C494.4,189.46,494.03,189.88,493.82,190.45z"/>
	<path d="M502.4,184.65l-0.75,2.05l-7.33-2.67l0.75-2.05l1.11,0.41c-0.72-0.83-0.91-1.71-0.57-2.62c0.11-0.29,0.27-0.57,0.51-0.83
		l1.8,0.98c-0.28,0.24-0.49,0.53-0.6,0.88c-0.43,1.17,0.09,2.03,1.56,2.56L502.4,184.65z"/>
	<path d="M491.97,173.88l12.67,4.61l-0.75,2.05l-12.67-4.61L491.97,173.88z"/>
	<path d="M504.65,168.13l-2,5.49c1.33,0.42,2.2,0.06,2.61-1.08c0.26-0.71,0.14-1.41-0.35-2.1l0.99-1.78
		c1.29,1.19,1.62,2.65,0.98,4.42c-0.44,1.2-1.14,2.02-2.11,2.48s-2.04,0.47-3.22,0.04s-2-1.12-2.45-2.08
		c-0.45-0.96-0.47-2.01-0.05-3.18c0.42-1.16,1.11-1.95,2.06-2.37c0.95-0.41,2.03-0.39,3.26,0.06L504.65,168.13z M501.37,173.08
		l1.26-3.47c-1.05-0.13-1.75,0.28-2.09,1.21C500.21,171.72,500.5,172.57,501.37,173.08z"/>
	<path d="M503.78,163.58l5.55,2.02l-0.75,2.05l-5.55-2.02l-0.29,0.81l-1.78-0.65l0.29-0.81l-2.5-0.91l0.75-2.05l2.5,0.91l0.53-1.45
		l1.78,0.65L503.78,163.58z"/>
	<path d="M504.08,156.52c0.45-1.23,1.18-2.1,2.17-2.6c1-0.51,2.08-0.55,3.24-0.13s1.96,1.15,2.39,2.19
		c0.43,1.05,0.43,2.19-0.02,3.43s-1.19,2.11-2.2,2.61c-1.01,0.5-2.09,0.54-3.23,0.12s-1.94-1.15-2.37-2.2
		C503.62,158.89,503.63,157.75,504.08,156.52z M505.91,157.21c-0.21,0.57-0.19,1.13,0.06,1.68s0.66,0.93,1.23,1.14
		c0.57,0.21,1.13,0.19,1.67-0.07c0.55-0.26,0.93-0.67,1.13-1.24c0.21-0.57,0.19-1.14-0.07-1.69c-0.25-0.55-0.66-0.92-1.23-1.13
		c-0.57-0.21-1.12-0.18-1.67,0.07C506.5,156.23,506.12,156.64,505.91,157.21z"/>
	<path d="M506.4,150.87l0.75-2.05l0.92,0.33c-0.61-0.93-0.67-1.72-0.31-2.71c0.33-0.9,0.88-1.51,1.65-1.81
		c0.58-0.23,1.33-0.17,2.24,0.16l4.65,1.69l-0.75,2.05l-4.06-1.48c-0.56-0.2-0.98-0.28-1.26-0.22c-0.47,0.07-0.8,0.4-1.01,0.99
		c-0.38,1.03,0.11,1.8,1.47,2.29l3.79,1.38l-0.75,2.05L506.4,150.87z"/>
</g>
<circle fill="#FFFFFF" stroke="#000000" stroke-width="6" stroke-miterlimit="10" cx="618" cy="227" r="10"/>
<g>
	<path d="M626.35,206.77l-10.72-6.28l0.55-1.5l8.5-0.4l-6.21-5.88l0.55-1.52l12.17,2.3l-0.81,2.22l-7.32-1.51l5.98,5.67l-0.22,0.61
		l-8.19,0.41l6.54,3.66L626.35,206.77z"/>
	<path d="M625.63,185.23c0.45-1.23,1.17-2.1,2.17-2.6s2.08-0.55,3.24-0.13c1.16,0.42,1.96,1.15,2.39,2.19
		c0.43,1.05,0.43,2.19-0.02,3.43c-0.45,1.25-1.19,2.11-2.2,2.61c-1.01,0.5-2.09,0.54-3.23,0.12c-1.15-0.42-1.94-1.15-2.37-2.2
		C625.17,187.6,625.18,186.46,625.63,185.23z M627.46,185.92c-0.21,0.57-0.19,1.13,0.06,1.68c0.25,0.55,0.66,0.93,1.23,1.14
		c0.57,0.21,1.13,0.19,1.67-0.07c0.55-0.26,0.93-0.67,1.14-1.24c0.21-0.57,0.19-1.14-0.07-1.69c-0.25-0.55-0.66-0.92-1.23-1.13
		c-0.57-0.21-1.12-0.18-1.67,0.07C628.05,184.94,627.67,185.35,627.46,185.92z"/>
	<path d="M629.11,175.67c0.45-1.23,1.17-2.1,2.17-2.6s2.08-0.55,3.24-0.13s1.96,1.15,2.39,2.19c0.43,1.05,0.43,2.19-0.02,3.43
		c-0.45,1.25-1.19,2.11-2.2,2.61c-1.01,0.5-2.09,0.54-3.23,0.12c-1.15-0.42-1.94-1.15-2.37-2.2S628.66,176.9,629.11,175.67z
		 M630.94,176.37c-0.21,0.57-0.19,1.13,0.06,1.68s0.66,0.93,1.23,1.14c0.57,0.21,1.13,0.19,1.67-0.07c0.55-0.26,0.93-0.67,1.13-1.24
		s0.19-1.14-0.07-1.69c-0.25-0.55-0.66-0.92-1.23-1.13c-0.57-0.21-1.12-0.18-1.67,0.07C631.53,175.38,631.15,175.8,630.94,176.37z"
		/>
	<path d="M631.43,170.02l0.75-2.05l0.92,0.33c-0.61-0.93-0.67-1.72-0.31-2.71c0.33-0.9,0.88-1.51,1.65-1.81
		c0.58-0.23,1.33-0.17,2.24,0.16l4.65,1.69l-0.75,2.05l-4.06-1.48c-0.56-0.2-0.98-0.28-1.26-0.22c-0.47,0.07-0.8,0.4-1.01,0.99
		c-0.38,1.03,0.11,1.8,1.47,2.29l3.79,1.38l-0.75,2.05L631.43,170.02z"/>
	<path d="M641.33,155.27l-2,5.49c1.33,0.42,2.2,0.06,2.61-1.08c0.26-0.71,0.14-1.41-0.35-2.1l0.99-1.78
		c1.29,1.19,1.62,2.65,0.98,4.42c-0.44,1.2-1.14,2.02-2.11,2.48s-2.04,0.47-3.22,0.04c-1.18-0.43-2-1.12-2.45-2.08
		c-0.45-0.96-0.47-2.01-0.05-3.18c0.42-1.17,1.11-1.95,2.06-2.37c0.95-0.41,2.03-0.39,3.26,0.06L641.33,155.27z M638.05,160.22
		l1.26-3.47c-1.05-0.13-1.75,0.28-2.09,1.21C636.89,158.86,637.18,159.71,638.05,160.22z"/>
	<path d="M644.88,152.41l-7.47,1.21l0.87-2.39l4.96-0.68l-3.41-3.6l0.86-2.35l9.08,10.01l-0.84,2.32L644.88,152.41z"/>
	<path d="M637.5,140.35l0.91-1.8l3.63,4.02l-0.65,1.24L637.5,140.35z"/>
	<path d="M646.02,135.26c-0.48,0.31-0.78,0.62-0.89,0.92c-0.11,0.3-0.13,0.55-0.08,0.75c0.07,0.2,0.19,0.33,0.36,0.39
		c0.17,0.06,0.34,0.04,0.51-0.08c0.16-0.12,0.45-0.43,0.85-0.92c0.41-0.5,0.76-0.86,1.07-1.05c0.57-0.4,1.22-0.47,1.95-0.21
		c0.74,0.27,1.25,0.78,1.53,1.53c0.29,0.76,0.26,1.59-0.07,2.49c-0.4,1.11-1.14,1.88-2.23,2.33l-0.86-1.53
		c0.78-0.36,1.28-0.84,1.49-1.42c0.19-0.52-0.02-1.07-0.46-1.23c-0.22-0.08-0.41-0.07-0.58,0.02c-0.16,0.1-0.46,0.4-0.89,0.92
		c-0.43,0.52-0.77,0.86-1.03,1.02c-0.52,0.36-1.11,0.42-1.79,0.17s-1.15-0.7-1.41-1.35c-0.26-0.65-0.24-1.38,0.07-2.21
		s0.84-1.49,1.62-2L646.02,135.26z"/>
	<path d="M654.33,129.91l-11.28-4.11l1.02-2.79c0.46-1.27,1.02-2.11,1.68-2.5c0.77-0.48,1.67-0.54,2.67-0.18
		c0.62,0.23,1.1,0.56,1.46,1.01c0.16,0.23,0.28,0.59,0.38,1.06c0.4-0.62,0.81-1.02,1.25-1.21c0.73-0.34,1.56-0.35,2.47-0.02
		c0.92,0.33,1.55,0.94,1.9,1.8s0.29,1.91-0.15,3.14L654.33,129.91z M648.54,125.32l0.23-0.63c0.42-1.14,0.13-1.89-0.84-2.24
		c-0.97-0.35-1.67,0.03-2.07,1.14l-0.24,0.66L648.54,125.32z M653.35,127.07l0.35-0.95c0.53-1.46,0.28-2.39-0.75-2.76
		c-0.57-0.21-1.07-0.14-1.5,0.2c-0.33,0.24-0.64,0.76-0.93,1.54l-0.3,0.83L653.35,127.07z"/>
	<path d="M652.43,112.31l0.75-2.05l7.33,2.67l-0.75,2.05l-0.95-0.35c0.55,0.92,0.65,1.88,0.29,2.87c-0.36,1-1.04,1.71-2.04,2.12
		c-0.99,0.42-2.04,0.42-3.14,0.03c-1.1-0.4-1.91-1.09-2.41-2.05c-0.5-0.96-0.57-1.93-0.22-2.9c0.35-0.97,1.05-1.66,2.08-2.05
		L652.43,112.31z M653.38,114.72c-0.21,0.58-0.19,1.14,0.06,1.68c0.25,0.55,0.66,0.92,1.23,1.13c0.57,0.21,1.13,0.19,1.67-0.07
		c0.55-0.26,0.92-0.66,1.13-1.23c0.21-0.56,0.18-1.12-0.07-1.67c-0.25-0.55-0.66-0.92-1.23-1.13c-0.57-0.21-1.12-0.18-1.67,0.06
		C653.96,113.74,653.59,114.15,653.38,114.72z"/>
	<path d="M661.02,108.05l-7.47,1.21l0.87-2.39l4.96-0.68l-3.4-3.6l0.86-2.35l9.08,10.01l-0.84,2.32L661.02,108.05z"/>
</g>
<circle fill="#FFFFFF" stroke="#000000" stroke-width="6" stroke-miterlimit="10" cx="750" cy="227" r="10"/>
<g>
	<path d="M747.67,201.02l8.6,0.26l-6.78-5.59l0.44-1.2l8.73,0.21l-6.7-5.5l0.84-2.32l9.96,8.43l-0.56,1.54l-8.29-0.18l6.42,5.32
		l-0.56,1.54l-12.96-0.2L747.67,201.02z"/>
	<path d="M758.93,182.37l0.75-2.05l7.33,2.67l-0.75,2.05l-0.95-0.35c0.55,0.92,0.66,1.88,0.29,2.87c-0.36,1-1.04,1.71-2.04,2.12
		c-0.99,0.42-2.04,0.43-3.14,0.03c-1.1-0.4-1.91-1.09-2.41-2.04c-0.5-0.96-0.57-1.93-0.22-2.9s1.05-1.66,2.08-2.05L758.93,182.37z
		 M759.88,184.78c-0.21,0.58-0.19,1.14,0.06,1.68c0.25,0.55,0.67,0.92,1.23,1.13c0.57,0.21,1.13,0.19,1.67-0.07
		c0.55-0.26,0.92-0.66,1.13-1.23c0.21-0.56,0.18-1.12-0.07-1.67c-0.25-0.55-0.66-0.92-1.23-1.13c-0.57-0.21-1.12-0.18-1.67,0.06
		C760.46,183.8,760.09,184.21,759.88,184.78z"/>
	<path d="M755.79,174.37l12.67,4.61l-0.75,2.05l-12.67-4.61L755.79,174.37z"/>
	<path d="M757.25,170.37l8.02,2.92l-1.68-3.71l1.01-2.78l1.96,4.61l5.46-2.21l-1.03,2.82l-4.14,1.6l0.14,0.3l2.92,1.06l-0.75,2.05
		l-12.67-4.61L757.25,170.37z"/>
	<path d="M760.46,161.55l12.67,4.61l-0.75,2.05l-12.67-4.61L760.46,161.55z"/>
	<path d="M773.14,155.79l-2,5.49c1.33,0.42,2.2,0.06,2.61-1.08c0.26-0.71,0.14-1.41-0.35-2.1l0.99-1.78
		c1.29,1.19,1.62,2.66,0.98,4.42c-0.44,1.2-1.14,2.02-2.11,2.48s-2.04,0.47-3.22,0.04c-1.18-0.43-2-1.12-2.45-2.08
		c-0.45-0.96-0.47-2.01-0.05-3.18c0.42-1.16,1.11-1.95,2.06-2.37c0.95-0.41,2.03-0.39,3.26,0.06L773.14,155.79z M769.86,160.74
		l1.26-3.47c-1.05-0.13-1.75,0.28-2.09,1.21C768.7,159.38,769,160.23,769.86,160.74z"/>
	<path d="M776.69,152.93l-7.47,1.21l0.87-2.39l4.96-0.68l-3.41-3.6l0.86-2.35l9.08,10.01l-0.84,2.32L776.69,152.93z"/>
</g>
<circle fill="#FFFFFF" stroke="#000000" stroke-width="6" stroke-miterlimit="10" cx="882" cy="227" r="10"/>
<g>
	<path d="M886.6,198.28l1.88-5.15c1.48,0.55,2.53,1.15,3.13,1.8c1.55,1.61,1.98,3.74,1.16,5.98c-0.62,1.71-1.69,2.93-3.2,3.64
		c-1.5,0.72-3.11,0.77-4.82,0.14c-1.71-0.62-2.92-1.7-3.63-3.24c-0.71-1.54-0.75-3.17-0.12-4.91c0.78-2.14,2.25-3.44,4.42-3.87
		l0.33,2.31c-1.36,0.27-2.28,1.04-2.74,2.31c-0.39,1.07-0.34,2.08,0.15,3.06c0.49,0.97,1.29,1.67,2.42,2.08
		c1.12,0.41,2.17,0.4,3.16-0.04s1.66-1.18,2.05-2.25c0.29-0.8,0.32-1.55,0.08-2.26c-0.24-0.71-0.7-1.23-1.39-1.57l-0.96,2.65
		L886.6,198.28z"/>
	<path d="M895.89,191.55l-0.75,2.05l-7.33-2.67l0.75-2.05l1.11,0.41c-0.72-0.83-0.91-1.71-0.57-2.62c0.11-0.29,0.27-0.57,0.51-0.83
		l1.8,0.98c-0.28,0.24-0.48,0.53-0.6,0.88c-0.43,1.17,0.1,2.03,1.56,2.56L895.89,191.55z"/>
	<path d="M896.64,179.14l-2,5.49c1.33,0.42,2.2,0.06,2.61-1.08c0.26-0.71,0.14-1.41-0.35-2.1l0.99-1.78
		c1.29,1.19,1.62,2.65,0.98,4.42c-0.44,1.2-1.14,2.02-2.11,2.48s-2.04,0.47-3.22,0.04c-1.18-0.43-2-1.12-2.45-2.08
		c-0.46-0.96-0.47-2.01-0.05-3.18c0.42-1.16,1.11-1.95,2.06-2.37c0.95-0.41,2.03-0.39,3.26,0.06L896.64,179.14z M893.36,184.09
		l1.26-3.47c-1.05-0.13-1.75,0.28-2.09,1.21C892.2,182.74,892.49,183.58,893.36,184.09z"/>
	<path d="M899.82,170.39l-2,5.49c1.33,0.42,2.2,0.06,2.61-1.08c0.26-0.71,0.14-1.41-0.35-2.1l0.99-1.78
		c1.29,1.19,1.62,2.66,0.98,4.42c-0.44,1.2-1.14,2.02-2.11,2.48c-0.97,0.46-2.04,0.47-3.22,0.04c-1.18-0.43-2-1.12-2.45-2.08
		c-0.45-0.96-0.47-2.01-0.05-3.18c0.42-1.17,1.11-1.95,2.06-2.37c0.95-0.41,2.03-0.39,3.26,0.06L899.82,170.39z M896.54,175.34
		l1.26-3.47c-1.05-0.13-1.75,0.28-2.09,1.21C895.39,173.99,895.68,174.83,896.54,175.34z"/>
	<path d="M896.39,167.38l0.75-2.05l0.92,0.33c-0.61-0.93-0.67-1.72-0.31-2.71c0.33-0.9,0.88-1.51,1.65-1.81
		c0.58-0.23,1.33-0.17,2.24,0.16l4.65,1.69l-0.75,2.05l-4.06-1.48c-0.56-0.2-0.98-0.28-1.26-0.22c-0.47,0.07-0.8,0.4-1.01,0.99
		c-0.38,1.03,0.11,1.8,1.47,2.29l3.79,1.38l-0.75,2.05L896.39,167.38z"/>
	<path d="M895.07,154.38l6.29,2.29c-0.54-0.97-0.63-1.95-0.27-2.92c0.35-0.97,1.03-1.67,2.02-2.08c0.99-0.42,2.04-0.42,3.16-0.01
		c1.11,0.41,1.92,1.08,2.41,2.04c0.49,0.96,0.56,1.93,0.2,2.93c-0.36,1-1.06,1.67-2.08,2.02l0.95,0.35l-0.75,2.05l-12.67-4.61
		L895.07,154.38z M902.69,155.08c-0.21,0.57-0.18,1.12,0.07,1.67c0.25,0.55,0.67,0.92,1.23,1.13c0.57,0.21,1.13,0.19,1.67-0.07
		c0.55-0.26,0.92-0.66,1.13-1.23c0.2-0.56,0.18-1.12-0.07-1.67c-0.25-0.55-0.65-0.93-1.22-1.14c-0.57-0.21-1.12-0.18-1.67,0.07
		C903.27,154.1,902.9,154.5,902.69,155.08z"/>
	<path d="M904.33,144.84c0.45-1.23,1.18-2.1,2.17-2.6c1-0.51,2.08-0.55,3.24-0.13c1.16,0.42,1.96,1.15,2.39,2.19
		c0.43,1.05,0.43,2.19-0.02,3.43c-0.45,1.25-1.19,2.11-2.2,2.61c-1.01,0.5-2.09,0.54-3.23,0.12c-1.15-0.42-1.94-1.15-2.37-2.2
		C903.87,147.22,903.88,146.07,904.33,144.84z M906.16,145.54c-0.21,0.57-0.19,1.13,0.06,1.68c0.25,0.55,0.66,0.93,1.23,1.14
		c0.57,0.21,1.13,0.19,1.67-0.07c0.55-0.26,0.93-0.67,1.13-1.24s0.19-1.14-0.07-1.69c-0.25-0.55-0.66-0.92-1.23-1.13
		c-0.57-0.21-1.12-0.18-1.67,0.07C906.75,144.55,906.37,144.97,906.16,145.54z"/>
	<path d="M914.72,139.81l-0.75,2.05l-7.33-2.67l0.75-2.05l1.12,0.41c-0.72-0.83-0.91-1.71-0.57-2.62c0.1-0.29,0.27-0.57,0.51-0.83
		l1.8,0.98c-0.28,0.24-0.48,0.53-0.6,0.88c-0.43,1.17,0.09,2.03,1.56,2.56L914.72,139.81z"/>
	<path d="M910,129.28c0.45-1.23,1.18-2.1,2.17-2.6c1-0.51,2.08-0.55,3.24-0.13s1.96,1.15,2.39,2.19c0.43,1.05,0.43,2.19-0.02,3.43
		s-1.19,2.11-2.2,2.61c-1.01,0.5-2.09,0.54-3.23,0.12c-1.15-0.42-1.94-1.15-2.37-2.2C909.53,131.66,909.55,130.51,910,129.28z
		 M911.83,129.98c-0.21,0.57-0.19,1.13,0.06,1.68s0.66,0.93,1.23,1.14c0.57,0.21,1.13,0.19,1.67-0.07c0.55-0.26,0.93-0.67,1.13-1.24
		c0.21-0.57,0.19-1.14-0.07-1.69c-0.25-0.55-0.66-0.92-1.23-1.13c-0.57-0.21-1.12-0.18-1.67,0.07
		C912.41,128.99,912.04,129.41,911.83,129.98z"/>
</g>
<circle fill="#FFFFFF" stroke="#000000" stroke-width="6" stroke-miterlimit="10" cx="1014" cy="227" r="10"/>
<g>
	<path d="M1014.93,201c0.32,0.12,0.63,0.1,0.91-0.07c0.29-0.17,0.75-0.62,1.4-1.39c0.65-0.76,1.22-1.28,1.72-1.55
		c0.81-0.47,1.73-0.5,2.8-0.11s1.81,1.07,2.23,2.04c0.42,0.97,0.43,2.04,0,3.22c-0.58,1.59-1.77,2.62-3.56,3.09l-0.85-1.92
		c1.19-0.16,1.98-0.77,2.36-1.81c0.18-0.5,0.19-0.98,0.01-1.42c-0.18-0.43-0.5-0.73-0.97-0.91c-0.47-0.17-0.92-0.11-1.35,0.19
		c-0.21,0.14-0.66,0.62-1.33,1.43c-0.68,0.81-1.33,1.34-1.94,1.6c-0.61,0.25-1.29,0.24-2.03-0.03c-0.95-0.35-1.61-0.96-1.99-1.86
		s-0.39-1.84-0.02-2.86c0.46-1.25,1.28-2.21,2.46-2.86l1.08,1.7c-0.81,0.31-1.33,0.81-1.57,1.5c-0.17,0.45-0.18,0.87-0.05,1.26
		C1014.37,200.63,1014.61,200.88,1014.93,201z"/>
	<path d="M1019.62,190.76c0.45-1.23,1.18-2.1,2.17-2.6c1-0.51,2.08-0.55,3.24-0.13s1.96,1.15,2.39,2.19
		c0.43,1.05,0.43,2.19-0.02,3.43c-0.45,1.25-1.19,2.11-2.2,2.61c-1.01,0.5-2.09,0.54-3.23,0.12c-1.15-0.42-1.94-1.15-2.37-2.2
		S1019.17,191.99,1019.62,190.76z M1021.45,191.46c-0.21,0.57-0.19,1.13,0.06,1.68c0.25,0.55,0.66,0.93,1.23,1.14
		c0.57,0.21,1.13,0.19,1.67-0.07c0.55-0.26,0.93-0.67,1.13-1.24c0.21-0.57,0.19-1.14-0.07-1.69c-0.25-0.55-0.66-0.92-1.23-1.13
		c-0.57-0.21-1.12-0.18-1.67,0.07C1022.03,190.47,1021.66,190.89,1021.45,191.46z"/>
	<path d="M1022.68,183.06l4.15,1.51c1.12,0.41,1.86,0.12,2.22-0.88c0.36-1-0.02-1.7-1.13-2.11l-4.15-1.51l0.75-2.05l4.48,1.63
		c1.98,0.72,2.62,2.38,1.79,4.66s-2.39,3.15-4.37,2.43l-4.49-1.63L1022.68,183.06z"/>
	<path d="M1027.75,174.65l5.55,2.02l-0.75,2.05l-5.55-2.02l-0.29,0.81l-1.78-0.65l0.29-0.81l-2.5-0.91l0.75-2.05l2.5,0.91l0.53-1.45
		l1.78,0.65L1027.75,174.65z"/>
	<path d="M1021.59,169.43l0.75-2.05l6.29,2.29c-0.57-0.89-0.68-1.79-0.35-2.72c0.34-0.92,0.89-1.53,1.67-1.81
		c0.6-0.22,1.36-0.16,2.28,0.17l4.6,1.67l-0.75,2.05l-4-1.46c-0.59-0.21-1.02-0.29-1.3-0.24c-0.48,0.08-0.82,0.41-1.03,0.98
		c-0.38,1.03,0.12,1.8,1.5,2.3l3.76,1.37l-0.75,2.05L1021.59,169.43z"/>
	<path d="M1040,158.29l-0.8,2.2l-11.28-4.11l0.8-2.2l4.77,1.74l-3.26-5.88l1.01-2.78l3.47,6.67l7.9-2.81l-1.05,2.89l-6.53,2.16
		l0.17,0.37L1040,158.29z"/>
	<path d="M1042.13,142.08l-2,5.49c1.33,0.42,2.2,0.06,2.61-1.08c0.26-0.71,0.14-1.41-0.35-2.1l0.99-1.78
		c1.29,1.19,1.62,2.65,0.98,4.42c-0.44,1.2-1.14,2.02-2.11,2.48c-0.97,0.46-2.04,0.47-3.22,0.04c-1.18-0.43-2-1.12-2.45-2.08
		c-0.45-0.96-0.47-2.01-0.05-3.18c0.42-1.16,1.11-1.95,2.06-2.37c0.95-0.41,2.03-0.39,3.26,0.06L1042.13,142.08z M1038.85,147.03
		l1.26-3.47c-1.05-0.13-1.75,0.28-2.09,1.21C1037.69,145.67,1037.99,146.52,1038.85,147.03z"/>
	<path d="M1045.67,139.22l-7.47,1.21l0.87-2.39l4.96-0.68l-3.41-3.6l0.86-2.35l9.08,10.01l-0.84,2.32L1045.67,139.22z"/>
	<path d="M1044.91,127.32c-0.48,0.31-0.78,0.62-0.89,0.92c-0.11,0.31-0.13,0.55-0.08,0.75c0.07,0.2,0.19,0.33,0.36,0.39
		c0.17,0.06,0.34,0.04,0.51-0.08c0.16-0.12,0.45-0.43,0.85-0.92c0.41-0.5,0.76-0.85,1.07-1.05c0.57-0.4,1.22-0.47,1.95-0.21
		s1.25,0.78,1.53,1.53c0.29,0.76,0.26,1.59-0.07,2.49c-0.4,1.11-1.14,1.88-2.23,2.33l-0.86-1.53c0.78-0.36,1.28-0.83,1.49-1.42
		c0.19-0.52-0.02-1.07-0.46-1.22c-0.22-0.08-0.41-0.08-0.58,0.02c-0.16,0.1-0.46,0.41-0.89,0.92c-0.43,0.52-0.77,0.86-1.03,1.02
		c-0.52,0.36-1.11,0.42-1.79,0.17c-0.69-0.25-1.15-0.7-1.41-1.35c-0.26-0.65-0.23-1.39,0.07-2.21c0.3-0.83,0.84-1.49,1.62-2
		L1044.91,127.32z"/>
</g>
<circle fill="#FFFFFF" stroke="#000000" stroke-width="6" stroke-miterlimit="10" cx="1146" cy="227" r="10"/>
<g>
	<path d="M1144.09,199.85l9.37,3.41l1.26-3.47l1.91,0.69l-2.06,5.67l-11.28-4.11L1144.09,199.85z"/>
	<path d="M1156.4,190.78l-2,5.49c1.33,0.42,2.2,0.06,2.61-1.08c0.26-0.71,0.14-1.41-0.35-2.1l0.99-1.78
		c1.29,1.19,1.62,2.65,0.98,4.42c-0.44,1.2-1.14,2.02-2.11,2.48c-0.97,0.46-2.04,0.47-3.22,0.04c-1.18-0.43-2-1.12-2.45-2.08
		c-0.45-0.96-0.47-2.01-0.05-3.18c0.42-1.17,1.11-1.95,2.06-2.37c0.95-0.41,2.03-0.39,3.26,0.06L1156.4,190.78z M1153.12,195.73
		l1.26-3.47c-1.05-0.13-1.75,0.28-2.09,1.21C1151.97,194.38,1152.26,195.22,1153.12,195.73z"/>
	<path d="M1149.01,185.19c0.12-0.34,0.34-0.58,0.67-0.74c0.33-0.15,0.66-0.16,1-0.04c0.34,0.12,0.59,0.36,0.74,0.68
		c0.16,0.33,0.18,0.67,0.05,1.01c-0.12,0.34-0.35,0.58-0.68,0.73c-0.33,0.15-0.67,0.17-1.01,0.04c-0.34-0.12-0.59-0.36-0.74-0.69
		C1148.89,185.87,1148.88,185.53,1149.01,185.19z M1153.7,185.77l7.33,2.67l-0.74,2.04l-7.33-2.67L1153.7,185.77z"/>
	<path d="M1156.93,182.42l5.55,2.02l-0.75,2.05l-5.55-2.02l-0.29,0.81l-1.78-0.65l0.29-0.81l-2.5-0.91l0.75-2.05l2.5,0.91l0.53-1.45
		l1.78,0.65L1156.93,182.42z"/>
	<path d="M1164.18,179.76l-0.75,2.05l-7.33-2.67l0.75-2.05l1.12,0.41c-0.72-0.83-0.91-1.71-0.57-2.62c0.11-0.29,0.27-0.57,0.51-0.83
		l1.8,0.98c-0.28,0.24-0.48,0.53-0.6,0.88c-0.43,1.17,0.09,2.03,1.56,2.56L1164.18,179.76z"/>
	<path d="M1154.39,170.39c0.12-0.34,0.34-0.58,0.67-0.74c0.33-0.15,0.66-0.16,1-0.04c0.34,0.12,0.59,0.36,0.74,0.68
		c0.16,0.33,0.18,0.67,0.05,1.01c-0.12,0.34-0.35,0.58-0.68,0.74c-0.33,0.15-0.67,0.17-1.01,0.04c-0.34-0.12-0.59-0.36-0.74-0.69
		C1154.28,171.07,1154.27,170.73,1154.39,170.39z M1159.08,170.97l7.33,2.67l-0.74,2.04l-7.33-2.67L1159.08,170.97z"/>
	<path d="M1165.81,163.6l3.76,1.37l-0.75,2.05l-3.89-1.42c-0.57-0.21-0.99-0.31-1.25-0.3c-0.26,0.01-0.49,0.09-0.7,0.25
		c-0.21,0.16-0.36,0.36-0.44,0.59c-0.17,0.46-0.07,1.04,0.3,1.47c0.18,0.22,0.61,0.45,1.26,0.67l3.76,1.37l-0.75,2.05l-7.33-2.67
		l0.75-2.05l0.85,0.31c-0.49-0.9-0.57-1.81-0.23-2.73s1.05-1.49,2.12-1.69c-0.68-0.9-0.85-1.84-0.49-2.82
		c0.36-0.98,0.97-1.56,1.83-1.73c0.51-0.1,1.15-0.02,1.92,0.26l4.73,1.72l-0.75,2.05l-4.01-1.46c-0.53-0.19-0.94-0.28-1.23-0.26
		c-0.5,0.03-0.84,0.3-1.02,0.8C1163.91,162.38,1164.43,163.1,1165.81,163.6z"/>
</g>
<circle fill="#FFFFFF" stroke="#000000" stroke-width="6" stroke-miterlimit="10" cx="1278" cy="227" r="10"/>
<g>
	<path d="M1286.57,206.16l-11.28-4.11l1.02-2.79c0.46-1.27,1.02-2.11,1.68-2.5c0.77-0.48,1.67-0.54,2.67-0.18
		c0.62,0.23,1.11,0.56,1.46,1.01c0.16,0.23,0.28,0.59,0.38,1.06c0.4-0.62,0.81-1.02,1.25-1.21c0.73-0.34,1.56-0.35,2.47-0.02
		c0.92,0.33,1.55,0.94,1.9,1.8c0.35,0.87,0.3,1.91-0.15,3.14L1286.57,206.16z M1280.79,201.56l0.23-0.63
		c0.42-1.14,0.13-1.89-0.84-2.24s-1.67,0.03-2.07,1.14l-0.24,0.66L1280.79,201.56z M1285.6,203.31l0.35-0.95
		c0.53-1.46,0.28-2.39-0.75-2.76c-0.57-0.21-1.07-0.14-1.5,0.2c-0.33,0.24-0.64,0.76-0.93,1.54l-0.3,0.83L1285.6,203.31z"/>
	<path d="M1283.8,190.27c0.45-1.23,1.18-2.1,2.17-2.6c1-0.51,2.08-0.55,3.24-0.13s1.96,1.15,2.39,2.19
		c0.43,1.05,0.43,2.19-0.02,3.43c-0.45,1.25-1.19,2.11-2.2,2.61c-1.01,0.5-2.09,0.54-3.23,0.12c-1.15-0.42-1.94-1.15-2.37-2.2
		C1283.34,192.64,1283.35,191.5,1283.8,190.27z M1285.63,190.96c-0.21,0.57-0.19,1.13,0.06,1.68s0.66,0.93,1.23,1.14
		c0.57,0.21,1.13,0.19,1.67-0.07c0.55-0.26,0.93-0.67,1.13-1.24s0.19-1.14-0.07-1.69c-0.25-0.55-0.66-0.92-1.23-1.13
		c-0.57-0.21-1.12-0.18-1.67,0.07C1286.21,189.98,1285.84,190.39,1285.63,190.96z"/>
	<path d="M1286.47,183.65l4.93-0.39l-3.7-3.61l0.32-0.88l5.22-0.36l-3.58-3.52l0.83-2.29l6.09,6.51l-0.34,0.93l-5.17,0.36l3.73,3.57
		l-0.34,0.94l-8.84,1.04L1286.47,183.65z"/>
	<path d="M1297.34,166.22l-2,5.49c1.33,0.42,2.2,0.06,2.61-1.08c0.26-0.71,0.14-1.41-0.35-2.1l0.99-1.78
		c1.29,1.19,1.62,2.65,0.98,4.42c-0.44,1.2-1.14,2.02-2.11,2.48c-0.97,0.46-2.04,0.47-3.22,0.04c-1.18-0.43-2-1.12-2.45-2.08
		c-0.45-0.96-0.47-2.01-0.05-3.18c0.42-1.17,1.11-1.95,2.06-2.37s2.03-0.39,3.26,0.06L1297.34,166.22z M1294.06,171.17l1.26-3.47
		c-1.05-0.13-1.75,0.28-2.09,1.21C1292.91,169.81,1293.2,170.66,1294.06,171.17z"/>
	<path d="M1297.03,159.94c-0.48,0.31-0.78,0.62-0.89,0.92c-0.11,0.31-0.13,0.55-0.08,0.75c0.07,0.2,0.19,0.33,0.36,0.39
		c0.17,0.06,0.34,0.04,0.51-0.08c0.16-0.12,0.45-0.43,0.85-0.92c0.41-0.5,0.76-0.85,1.07-1.05c0.57-0.4,1.22-0.47,1.95-0.21
		c0.74,0.27,1.25,0.78,1.53,1.53c0.29,0.76,0.26,1.59-0.06,2.49c-0.4,1.11-1.14,1.88-2.23,2.33l-0.86-1.53
		c0.78-0.36,1.28-0.83,1.49-1.42c0.19-0.52-0.02-1.07-0.46-1.22c-0.22-0.08-0.41-0.08-0.58,0.02c-0.16,0.1-0.46,0.4-0.89,0.92
		c-0.43,0.52-0.77,0.86-1.03,1.02c-0.52,0.36-1.11,0.42-1.79,0.17c-0.69-0.25-1.15-0.7-1.41-1.35c-0.26-0.65-0.23-1.39,0.07-2.21
		c0.3-0.83,0.84-1.49,1.62-2L1297.03,159.94z"/>
	<path d="M1296.84,155.14l4.85-0.42l-3.45-3.42l0.84-2.3l6.1,6.5l-0.34,0.92l-8.84,1.02L1296.84,155.14z"/>
	<path d="M1295.52,145.32c0.12-0.34,0.34-0.59,0.67-0.74c0.33-0.15,0.66-0.16,1-0.04c0.34,0.12,0.59,0.35,0.74,0.68
		c0.16,0.33,0.18,0.67,0.05,1.01s-0.35,0.58-0.68,0.74c-0.33,0.15-0.67,0.17-1.01,0.04s-0.59-0.36-0.74-0.69
		C1295.4,146,1295.39,145.66,1295.52,145.32z M1300.21,145.9l7.33,2.67l-0.74,2.04l-7.33-2.67L1300.21,145.9z"/>
	<path d="M1296.31,139.97l12.67,4.61l-0.75,2.05l-12.67-4.61L1296.31,139.97z"/>
	<path d="M1297.77,135.97l12.67,4.61l-0.75,2.05l-12.67-4.61L1297.77,135.97z"/>
	<path d="M1310.45,130.21l-2,5.49c1.33,0.42,2.2,0.06,2.61-1.08c0.26-0.71,0.14-1.41-0.35-2.1l0.99-1.78
		c1.29,1.19,1.62,2.66,0.98,4.42c-0.44,1.2-1.14,2.02-2.11,2.48s-2.04,0.47-3.22,0.04c-1.18-0.43-2-1.12-2.45-2.08
		c-0.46-0.96-0.47-2.01-0.05-3.18c0.42-1.16,1.11-1.95,2.06-2.37c0.95-0.41,2.03-0.39,3.26,0.06L1310.45,130.21z M1307.17,135.16
		l1.26-3.47c-1.05-0.13-1.75,0.28-2.09,1.21C1306.01,133.8,1306.3,134.65,1307.17,135.16z"/>
</g>
<circle fill="#FFFFFF" stroke="#000000" stroke-width="6" stroke-miterlimit="10" cx="1410" cy="227" r="10"/>
<g>
	<path d="M1408.09,199.85l9.37,3.41l1.26-3.47l1.91,0.69l-2.06,5.67l-11.28-4.11L1408.09,199.85z"/>
	<path d="M1409.81,193.98c0.12-0.34,0.34-0.58,0.67-0.74c0.33-0.15,0.66-0.16,1-0.04s0.59,0.35,0.74,0.68
		c0.16,0.33,0.18,0.67,0.05,1.01c-0.12,0.34-0.35,0.58-0.68,0.74s-0.67,0.17-1.01,0.04c-0.34-0.12-0.59-0.36-0.74-0.69
		C1409.69,194.66,1409.69,194.32,1409.81,193.98z M1414.5,194.55l7.33,2.67l-0.74,2.04l-7.33-2.67L1414.5,194.55z"/>
	<path d="M1421.22,187.19l3.76,1.37l-0.75,2.05l-3.89-1.42c-0.57-0.21-0.99-0.31-1.25-0.3s-0.49,0.09-0.7,0.25
		c-0.21,0.16-0.35,0.36-0.44,0.59c-0.17,0.46-0.07,1.04,0.3,1.47c0.18,0.22,0.61,0.45,1.26,0.67l3.76,1.37l-0.75,2.05l-7.33-2.67
		l0.75-2.05l0.85,0.31c-0.49-0.9-0.57-1.81-0.23-2.73c0.34-0.93,1.05-1.49,2.12-1.69c-0.68-0.9-0.85-1.84-0.49-2.82
		s0.97-1.56,1.83-1.73c0.52-0.1,1.15-0.02,1.92,0.26l4.73,1.72l-0.75,2.05l-4-1.46c-0.53-0.19-0.94-0.28-1.23-0.26
		c-0.5,0.03-0.84,0.3-1.02,0.8C1419.33,185.97,1419.84,186.69,1421.22,187.19z"/>
	<path d="M1426.68,173.52l-2,5.49c1.33,0.42,2.2,0.06,2.61-1.08c0.26-0.71,0.14-1.41-0.35-2.1l0.99-1.78
		c1.29,1.19,1.62,2.66,0.98,4.42c-0.44,1.2-1.14,2.02-2.11,2.48s-2.04,0.47-3.22,0.04c-1.18-0.43-2-1.12-2.45-2.08
		c-0.46-0.96-0.47-2.02-0.05-3.18s1.11-1.95,2.06-2.37s2.03-0.39,3.26,0.06L1426.68,173.52z M1423.4,178.47l1.26-3.47
		c-1.05-0.13-1.75,0.28-2.09,1.21C1422.25,177.12,1422.54,177.96,1423.4,178.47z"/>
	<path d="M1418.67,166.47l6.29,2.29c-0.54-0.97-0.63-1.95-0.27-2.92s1.03-1.67,2.02-2.08c0.99-0.42,2.04-0.42,3.16-0.01
		c1.12,0.41,1.92,1.08,2.41,2.04c0.49,0.96,0.56,1.93,0.2,2.93c-0.36,1-1.06,1.67-2.08,2.02l0.95,0.35l-0.75,2.05l-12.67-4.61
		L1418.67,166.47z M1426.29,167.17c-0.21,0.57-0.18,1.12,0.07,1.67s0.66,0.92,1.23,1.13c0.57,0.21,1.13,0.19,1.67-0.07
		c0.55-0.26,0.92-0.66,1.13-1.23c0.2-0.56,0.18-1.12-0.07-1.67c-0.25-0.55-0.65-0.93-1.22-1.14c-0.57-0.21-1.12-0.18-1.67,0.07
		C1426.87,166.19,1426.5,166.6,1426.29,167.17z"/>
	<path d="M1428.81,155.22l0.75-2.05l7.33,2.67l-0.75,2.05l-0.95-0.35c0.55,0.92,0.66,1.88,0.29,2.87c-0.36,1-1.04,1.71-2.04,2.12
		c-0.99,0.41-2.04,0.42-3.14,0.03c-1.1-0.4-1.91-1.09-2.41-2.05c-0.5-0.96-0.57-1.93-0.22-2.9s1.05-1.66,2.08-2.05L1428.81,155.22z
		 M1429.76,157.64c-0.21,0.58-0.19,1.14,0.06,1.68c0.25,0.55,0.67,0.92,1.23,1.13s1.13,0.19,1.67-0.07
		c0.55-0.26,0.92-0.67,1.13-1.23c0.21-0.56,0.18-1.12-0.07-1.67c-0.25-0.55-0.66-0.92-1.23-1.13c-0.57-0.21-1.12-0.18-1.67,0.06
		C1430.34,156.65,1429.97,157.07,1429.76,157.64z"/>
	<path d="M1430.27,151.22l0.75-2.05l0.92,0.33c-0.61-0.93-0.67-1.72-0.31-2.71c0.33-0.9,0.88-1.5,1.65-1.81
		c0.58-0.23,1.33-0.17,2.24,0.16l4.65,1.69l-0.75,2.05l-4.06-1.48c-0.56-0.2-0.98-0.28-1.26-0.22c-0.47,0.07-0.8,0.4-1.01,0.99
		c-0.38,1.03,0.11,1.8,1.47,2.29l3.79,1.38l-0.75,2.05L1430.27,151.22z"/>
	<path d="M1428.95,138.21l8.02,2.92l-1.68-3.71l1.01-2.78l1.96,4.61l5.46-2.21l-1.03,2.82l-4.14,1.6l0.14,0.3l2.92,1.06l-0.75,2.05
		l-12.67-4.61L1428.95,138.21z"/>
</g>
<g>
	<path fill="#9B9B9B" d="M692.26,266.22v2.95h-1.43v-7.34h2.12c0.83,0,1.46,0.17,1.87,0.52c0.48,0.4,0.73,0.96,0.73,1.65
		c0,0.7-0.22,1.23-0.66,1.62c-0.27,0.24-0.61,0.4-1.01,0.47l2.31,3.09h-1.76l-1.98-2.95H692.26z M692.26,265.21h0.42
		c0.91,0,1.4-0.41,1.4-1.12c0-0.74-0.46-1.1-1.38-1.1h-0.44V265.21z"/>
	<path fill="#9B9B9B" d="M700.42,264.4h1.33v4.76h-1.33v-0.62c-0.41,0.51-0.94,0.77-1.59,0.77s-1.2-0.24-1.64-0.72
		c-0.45-0.48-0.67-1.09-0.67-1.8s0.23-1.32,0.67-1.81c0.45-0.49,0.99-0.73,1.62-0.73s1.17,0.26,1.61,0.77V264.4z M699.24,265.45
		c-0.38,0-0.69,0.13-0.95,0.39c-0.26,0.26-0.39,0.57-0.39,0.95s0.13,0.69,0.39,0.95c0.26,0.26,0.57,0.39,0.94,0.39
		s0.68-0.13,0.95-0.39c0.26-0.26,0.39-0.57,0.39-0.94c0-0.37-0.13-0.68-0.38-0.95C699.93,265.58,699.61,265.45,699.24,265.45z"/>
	<path fill="#9B9B9B" d="M703.69,261.59c0.22,0,0.41,0.07,0.56,0.23s0.23,0.34,0.23,0.56c0,0.22-0.08,0.41-0.24,0.57
		c-0.16,0.16-0.35,0.24-0.57,0.24s-0.41-0.08-0.56-0.24s-0.24-0.35-0.24-0.57s0.08-0.41,0.24-0.57
		C703.27,261.66,703.46,261.59,703.69,261.59z M704.33,264.4v4.76h-1.33v-4.76H704.33z"/>
	<path fill="#9B9B9B" d="M706.92,260.93v8.24h-1.33v-8.24H706.92z"/>
	<path fill="#9B9B9B" d="M715.04,263.07h-2.45v1.63h2.3v1.24h-2.3v3.22h-1.43v-7.34h3.88V263.07z"/>
	<path fill="#9B9B9B" d="M719.61,264.4h1.33v4.76h-1.33v-0.62c-0.41,0.51-0.94,0.77-1.59,0.77s-1.2-0.24-1.64-0.72
		c-0.45-0.48-0.67-1.09-0.67-1.8s0.23-1.32,0.67-1.81c0.45-0.49,0.99-0.73,1.62-0.73s1.17,0.26,1.61,0.77V264.4z M718.42,265.45
		c-0.38,0-0.69,0.13-0.95,0.39c-0.26,0.26-0.39,0.57-0.39,0.95s0.13,0.69,0.39,0.95c0.26,0.26,0.57,0.39,0.94,0.39
		s0.68-0.13,0.95-0.39c0.26-0.26,0.39-0.57,0.39-0.94c0-0.37-0.13-0.68-0.38-0.95C719.11,265.58,718.79,265.45,718.42,265.45z"/>
	<path fill="#9B9B9B" d="M722.22,264.4h1.33v0.6c0.41-0.54,0.85-0.75,1.49-0.75c0.59,0,1.05,0.19,1.39,0.57
		c0.25,0.29,0.38,0.73,0.38,1.32v3.02h-1.33v-2.64c0-0.37-0.04-0.62-0.13-0.77c-0.14-0.25-0.4-0.38-0.78-0.38
		c-0.67,0-1.01,0.44-1.01,1.32v2.46h-1.33V264.4z"/>
	<path fill="#9B9B9B" d="M730.68,265.52c-0.28-0.21-0.52-0.32-0.71-0.32s-0.34,0.04-0.45,0.11c-0.1,0.08-0.15,0.18-0.15,0.29
		s0.05,0.2,0.15,0.27c0.1,0.07,0.34,0.17,0.71,0.3s0.65,0.26,0.83,0.39c0.35,0.24,0.53,0.6,0.53,1.08s-0.19,0.88-0.56,1.2
		c-0.38,0.32-0.86,0.48-1.44,0.48c-0.72,0-1.32-0.26-1.8-0.79l0.7-0.81c0.37,0.37,0.75,0.56,1.13,0.56c0.34,0,0.61-0.24,0.61-0.52
		c0-0.15-0.04-0.25-0.13-0.33c-0.09-0.07-0.33-0.18-0.71-0.32c-0.39-0.14-0.66-0.26-0.8-0.38c-0.32-0.22-0.47-0.55-0.47-0.99
		s0.16-0.81,0.48-1.09c0.32-0.28,0.75-0.42,1.28-0.42s1.03,0.17,1.49,0.51L730.68,265.52z"/>
	<path fill="#9B9B9B" d="M740.78,263.8c-0.56-0.55-1.17-0.83-1.82-0.83s-1.21,0.25-1.68,0.74c-0.47,0.49-0.7,1.1-0.7,1.81
		c0,0.71,0.23,1.31,0.7,1.79c0.46,0.48,1.04,0.71,1.73,0.71c0.34,0,0.65-0.06,0.92-0.18c0.27-0.12,0.55-0.33,0.84-0.62v1.68
		c-0.62,0.29-1.21,0.43-1.79,0.43c-1.08,0-2-0.37-2.75-1.1s-1.12-1.63-1.12-2.7c0-1.07,0.38-1.98,1.13-2.73s1.67-1.13,2.74-1.13
		c0.6,0,1.19,0.15,1.79,0.45V263.8z"/>
	<path fill="#9B9B9B" d="M745.54,264.4h1.33v4.76h-1.33v-0.62c-0.41,0.51-0.94,0.77-1.59,0.77s-1.2-0.24-1.64-0.72
		c-0.45-0.48-0.67-1.09-0.67-1.8s0.23-1.32,0.67-1.81c0.45-0.49,0.99-0.73,1.62-0.73s1.17,0.26,1.61,0.77V264.4z M744.35,265.45
		c-0.38,0-0.69,0.13-0.95,0.39c-0.26,0.26-0.39,0.57-0.39,0.95s0.13,0.69,0.39,0.95c0.26,0.26,0.57,0.39,0.94,0.39
		s0.68-0.13,0.95-0.39c0.26-0.26,0.39-0.57,0.39-0.94c0-0.37-0.13-0.68-0.38-0.95C745.04,265.58,744.72,265.45,744.35,265.45z"/>
	<path fill="#9B9B9B" d="M748.14,264.4h1.33v0.6c0.41-0.54,0.85-0.75,1.49-0.75c0.59,0,1.05,0.19,1.39,0.57
		c0.25,0.29,0.38,0.73,0.38,1.32v3.02h-1.33v-2.64c0-0.37-0.04-0.62-0.13-0.77c-0.14-0.25-0.4-0.38-0.78-0.38
		c-0.67,0-1.01,0.44-1.01,1.32v2.46h-1.33V264.4z"/>
	<path fill="#9B9B9B" d="M757.65,264.4h1.33v4.76h-1.33v-0.62c-0.41,0.51-0.94,0.77-1.59,0.77c-0.65,0-1.2-0.24-1.64-0.72
		c-0.45-0.48-0.67-1.09-0.67-1.8s0.23-1.32,0.67-1.81c0.45-0.49,0.99-0.73,1.62-0.73c0.63,0,1.17,0.26,1.61,0.77V264.4z
		 M756.47,265.45c-0.38,0-0.69,0.13-0.95,0.39c-0.26,0.26-0.39,0.57-0.39,0.95s0.13,0.69,0.39,0.95c0.26,0.26,0.58,0.39,0.94,0.39
		s0.68-0.13,0.95-0.39c0.26-0.26,0.39-0.57,0.39-0.94c0-0.37-0.13-0.68-0.38-0.95C757.15,265.58,756.84,265.45,756.47,265.45z"/>
	<path fill="#9B9B9B" d="M763.91,260.93h1.33v8.24h-1.33v-0.62c-0.41,0.51-0.94,0.77-1.59,0.77s-1.2-0.24-1.64-0.72
		c-0.45-0.48-0.67-1.09-0.67-1.8s0.23-1.32,0.67-1.81c0.45-0.49,0.99-0.73,1.62-0.73s1.17,0.26,1.61,0.77V260.93z M762.72,265.45
		c-0.38,0-0.69,0.13-0.95,0.39c-0.26,0.26-0.39,0.57-0.39,0.95s0.13,0.69,0.39,0.95c0.26,0.26,0.57,0.39,0.94,0.39
		s0.68-0.13,0.95-0.39c0.26-0.26,0.39-0.57,0.39-0.94c0-0.37-0.13-0.68-0.38-0.95C763.41,265.58,763.09,265.45,762.72,265.45z"/>
	<path fill="#9B9B9B" d="M770.21,264.4h1.33v4.76h-1.33v-0.62c-0.41,0.51-0.94,0.77-1.59,0.77c-0.65,0-1.2-0.24-1.64-0.72
		c-0.45-0.48-0.67-1.09-0.67-1.8s0.23-1.32,0.67-1.81c0.45-0.49,0.99-0.73,1.62-0.73c0.63,0,1.17,0.26,1.61,0.77V264.4z
		 M769.02,265.45c-0.38,0-0.69,0.13-0.95,0.39c-0.26,0.26-0.39,0.57-0.39,0.95s0.13,0.69,0.39,0.95c0.26,0.26,0.57,0.39,0.94,0.39
		s0.68-0.13,0.95-0.39c0.26-0.26,0.39-0.57,0.39-0.94c0-0.37-0.13-0.68-0.38-0.95C769.71,265.58,769.39,265.45,769.02,265.45z"/>
	<path fill="#9B9B9B" d="M774.93,266.09h7.4v1.11h-7.4V266.09z"/>
	<path fill="#9B9B9B" d="M790.6,267.93v1.24h-5.33l2.17-2.46c0.67-0.76,1.11-1.33,1.34-1.69c0.23-0.36,0.34-0.7,0.34-1.01
		c0-0.31-0.11-0.58-0.32-0.79c-0.22-0.21-0.49-0.32-0.8-0.32c-0.32,0-0.58,0.11-0.76,0.32c-0.19,0.21-0.29,0.51-0.31,0.89h-1.53
		c0.05-0.76,0.31-1.36,0.77-1.81c0.46-0.45,1.06-0.67,1.8-0.67c0.74,0,1.35,0.23,1.85,0.67c0.49,0.45,0.74,1.04,0.74,1.76
		s-0.45,1.56-1.33,2.5l-1.28,1.35H790.6z"/>
	<path fill="#9B9B9B" d="M794.45,261.64c0.83,0,1.52,0.38,2.07,1.12c0.5,0.7,0.76,1.62,0.76,2.73s-0.25,2.03-0.76,2.74
		c-0.52,0.7-1.29,1.12-2.08,1.12c-0.85,0-1.54-0.37-2.06-1.1s-0.78-1.65-0.78-2.78s0.25-2.02,0.76-2.72
		C792.92,262.02,793.61,261.64,794.45,261.64z M794.44,262.91c-0.41,0-0.75,0.24-1.02,0.72c-0.27,0.48-0.4,1.1-0.4,1.86
		c0,0.76,0.13,1.38,0.4,1.87c0.26,0.49,0.61,0.73,1.02,0.73c0.41,0,0.76-0.24,1.02-0.72c0.26-0.48,0.39-1.11,0.39-1.86
		c0-0.76-0.13-1.38-0.4-1.86S794.85,262.91,794.44,262.91z"/>
	<path fill="#9B9B9B" d="M803.07,267.93v1.24h-5.33l2.16-2.46c0.67-0.76,1.11-1.33,1.34-1.69c0.23-0.36,0.34-0.7,0.34-1.01
		c0-0.31-0.11-0.58-0.32-0.79c-0.22-0.21-0.49-0.32-0.81-0.32c-0.32,0-0.57,0.11-0.76,0.32c-0.19,0.21-0.3,0.51-0.31,0.89h-1.53
		c0.05-0.76,0.31-1.36,0.77-1.81c0.46-0.45,1.06-0.67,1.8-0.67c0.74,0,1.35,0.23,1.85,0.67c0.49,0.45,0.74,1.04,0.74,1.76
		s-0.45,1.56-1.33,2.5l-1.28,1.35H803.07z"/>
	<path fill="#9B9B9B" d="M809.02,265.04c0.44,0.47,0.66,1.06,0.66,1.79s-0.26,1.33-0.77,1.8c-0.52,0.48-1.19,0.72-2,0.72
		s-1.49-0.24-2.01-0.71c-0.52-0.47-0.79-1.07-0.79-1.81s0.31-1.51,0.92-2.32l2.23-2.98l1.02,0.76l-1.74,2.23
		c0.31-0.12,0.6-0.19,0.86-0.19C808.04,264.34,808.58,264.57,809.02,265.04z M806.91,265.48c-0.38,0-0.7,0.13-0.97,0.39
		c-0.26,0.26-0.4,0.59-0.4,0.98s0.13,0.71,0.4,0.97s0.59,0.4,0.96,0.4s0.69-0.13,0.96-0.4s0.39-0.58,0.39-0.97s-0.13-0.7-0.38-0.97
		C807.61,265.62,807.29,265.48,806.91,265.48z"/>
</g>
<g>
	<path d="M23.11,25.33v24.38h9.02v4.96H17.39V25.33H23.11z"/>
	<path d="M38.04,24.36c0.88,0,1.63,0.3,2.26,0.92s0.92,1.38,0.92,2.26s-0.32,1.65-0.95,2.28c-0.62,0.64-1.4,0.97-2.28,0.97
		s-1.63-0.32-2.26-0.95s-0.95-1.4-0.95-2.28s0.32-1.65,0.97-2.28C36.39,24.66,37.16,24.36,38.04,24.36z M40.64,35.62v19.06h-5.31
		V35.62H40.64z"/>
	<path d="M45.67,35.62H51V38c1.63-2.17,3.39-2.99,5.97-2.99c2.34,0,4.19,0.75,5.54,2.28c1.01,1.14,1.5,2.9,1.5,5.29v12.1h-5.33V44.1
		c0-1.46-0.17-2.49-0.54-3.07c-0.56-1.01-1.59-1.5-3.12-1.5c-2.69,0-4.04,1.76-4.04,5.29v9.86h-5.33V35.62z"/>
	<path d="M87.84,46.02H73.55c0.15,3.42,1.7,5.11,4.66,5.09c1.85,0,3.35-0.86,4.53-2.56l4.92,0.79c-1.65,3.95-4.75,5.93-9.32,5.95
		c-3.12,0-5.59-0.92-7.46-2.77s-2.79-4.3-2.79-7.37s0.9-5.52,2.73-7.37s4.23-2.77,7.26-2.77s5.41,0.92,7.15,2.75s2.6,4.34,2.6,7.54
		V46.02z M73.73,42.62h9.02c-0.58-2.51-2.11-3.78-4.53-3.78C75.88,38.84,74.18,40.21,73.73,42.62z"/>
	<path d="M122.41,49.71v4.96h-21.33l8.66-9.82c2.66-3.05,4.45-5.31,5.37-6.75s1.38-2.79,1.38-4.04s-0.43-2.3-1.29-3.16
		c-0.88-0.84-1.96-1.27-3.22-1.27s-2.3,0.43-3.05,1.27c-0.77,0.84-1.18,2.04-1.25,3.57h-6.12c0.19-3.05,1.22-5.46,3.09-7.24
		c1.85-1.78,4.25-2.66,7.22-2.66c2.94,0,5.41,0.9,7.39,2.69c1.96,1.8,2.94,4.15,2.94,7.05s-1.78,6.23-5.33,9.99l-5.11,5.41H122.41z"
		/>
	<path d="M145.23,51.6c0.62,3.24,1.5,5.99,2.62,8.23l-4.28,2.32c-1.27-2.41-2.19-4.9-2.77-7.48c-1.05-4.4-1.59-8.85-1.59-13.34
		c0-8.04,1.46-14.82,4.36-20.37l4.28,2.34c-2.38,5.07-3.57,11.15-3.57,18.22C144.28,44.98,144.6,48.36,145.23,51.6z"/>
	<path d="M173.48,49.71v4.96h-21.33l8.66-9.82c2.66-3.05,4.45-5.31,5.37-6.75s1.38-2.79,1.38-4.04s-0.43-2.3-1.29-3.16
		c-0.88-0.84-1.96-1.27-3.22-1.27s-2.3,0.43-3.05,1.27c-0.77,0.84-1.18,2.04-1.25,3.57h-6.12c0.19-3.05,1.22-5.46,3.09-7.24
		c1.85-1.78,4.25-2.66,7.22-2.66c2.94,0,5.41,0.9,7.39,2.69c1.96,1.8,2.94,4.15,2.94,7.05s-1.78,6.23-5.33,9.99l-5.11,5.41H173.48z"
		/>
	<path d="M188.86,24.57c3.33,0,6.08,1.5,8.29,4.49c2.02,2.81,3.03,6.47,3.03,10.91s-1.01,8.1-3.03,10.96
		c-2.06,2.81-5.16,4.49-8.31,4.49c-3.42,0-6.17-1.46-8.25-4.38s-3.14-6.62-3.14-11.11s1.01-8.1,3.03-10.87
		C182.74,26.08,185.53,24.57,188.86,24.57z M188.84,29.64c-1.65,0-3.01,0.97-4.08,2.88s-1.61,4.4-1.61,7.43s0.54,5.52,1.59,7.48
		s2.43,2.92,4.08,2.92s3.03-0.97,4.08-2.9s1.57-4.43,1.57-7.46s-0.54-5.52-1.59-7.46S190.47,29.64,188.84,29.64z"/>
	<path d="M223.37,49.71v4.96h-21.33l8.66-9.82c2.66-3.05,4.45-5.31,5.37-6.75s1.38-2.79,1.38-4.04s-0.43-2.3-1.29-3.16
		c-0.88-0.84-1.96-1.27-3.22-1.27s-2.3,0.43-3.05,1.27c-0.77,0.84-1.18,2.04-1.25,3.57h-6.12c0.19-3.05,1.22-5.46,3.09-7.24
		c1.85-1.78,4.25-2.66,7.22-2.66c2.94,0,5.41,0.9,7.39,2.69c1.96,1.8,2.94,4.15,2.94,7.05s-1.78,6.23-5.33,9.99l-5.11,5.41H223.37z"
		/>
	<path d="M246.91,30.29h-9.69l-1.14,4.58c0.9-0.11,1.61-0.17,2.15-0.17c2.88,0,5.26,0.97,7.15,2.92s2.84,4.43,2.84,7.43
		s-1.07,5.48-3.2,7.43c-2.15,1.96-5.01,2.94-8.55,2.94s-6.6-1.27-9.11-3.82l1.89-4.98c2.15,2.49,4.6,3.74,7.35,3.74
		c1.65,0,3.05-0.56,4.19-1.65s1.72-2.43,1.72-4.04s-0.64-2.99-1.93-4.12s-2.9-1.7-4.81-1.7s-3.78,0.62-5.59,1.89h-0.3l3.48-15.4
		h13.56V30.29z"/>
	<path d="M257.1,31.56c-0.62-3.24-1.5-5.99-2.62-8.25l4.25-2.34c1.27,2.41,2.19,4.9,2.77,7.48c1.05,4.4,1.59,8.85,1.59,13.34
		c0,8.04-1.46,14.82-4.36,20.37l-4.25-2.32c2.38-5.09,3.57-11.17,3.57-18.22C258.04,38.17,257.72,34.82,257.1,31.56z"/>
</g>
</svg>
