<?xml version="1.0" encoding="iso-8859-1"?>
<!-- Generator: Adobe Illustrator 29.8.4, SVG Export Plug-In . SVG Version: 9.03 Build 0)  -->
<svg version="1.1" id="Layer_1" xmlns="http://www.w3.org/2000/svg" xmlns:xlink="http://www.w3.org/1999/xlink" x="0px" y="0px"
	 viewBox="0 0 1500 275" enable-background="new 0 0 1500 275" xml:space="preserve">
<rect id="bg-white" fill="#FFFFFF" width="1500" height="275"/>
<line fill="none" stroke="#508128" stroke-width="16" stroke-linecap="round" stroke-miterlimit="10" x1="90" y1="227" x2="1410" y2="227"/>
<circle fill="#FFFFFF" stroke="#000000" stroke-width="6" stroke-miterlimit="10" cx="90" cy="227" r="10"/>
<g>
	<path d="M98.57,206.16l-11.28-4.11l1.02-2.79c0.46-1.27,1.02-2.11,1.68-2.5c0.77-0.48,1.67-0.54,2.67-0.18
		c0.62,0.23,1.11,0.56,1.46,1.01c0.16,0.23,0.28,0.59,0.38,1.06c0.4-0.62,0.81-1.02,1.25-1.21c0.73-0.34,1.56-0.35,2.47-0.02
		c0.92,0.33,1.55,0.94,1.9,1.8c0.35,0.87,0.3,1.91-0.15,3.14L98.57,206.16z M92.79,201.56l0.23-0.63c0.42-1.14,0.13-1.89-0.84-2.24
		s-1.67,0.03-2.07,1.14l-0.24,0.66L92.79,201.56z M97.6,203.31l0.35-0.95c0.53-1.46,0.28-2.39-0.75-2.76
		c-0.57-0.21-1.07-0.14-1.5,0.2c-0.33,0.24-0.64,0.76-0.93,1.54l-0.3,0.83L97.6,203.31z"/>
	<path d="M96.68,188.56l0.75-2.05l7.33,2.67l-0.75,2.05l-0.95-0.35c0.55,0.92,0.65,1.88,0.29,2.87c-0.36,1-1.04,1.71-2.04,2.12
		c-0.99,0.42-2.04,0.42-3.14,0.03c-1.1-0.4-1.91-1.09-2.41-2.05s-0.57-1.93-0.22-2.9c0.36-0.97,1.05-1.66,2.08-2.05L96.68,188.56z
		 M97.63,190.97c-0.21,0.58-0.19,1.14,0.06,1.68c0.25,0.55,0.66,0.92,1.23,1.13c0.57,0.21,1.13,0.19,1.67-0.07
		c0.55-0.26,0.92-0.66,1.13-1.23c0.2-0.56,0.18-1.12-0.07-1.67c-0.25-0.55-0.66-0.92-1.23-1.13c-0.57-0.21-1.12-0.18-1.67,0.06
		C98.21,189.98,97.84,190.4,97.63,190.97z"/>
	<path d="M105.27,184.29l-7.47,1.21l0.87-2.39l4.96-0.68l-3.4-3.6l0.86-2.35l9.08,10.01l-0.84,2.32L105.27,184.29z"/>
	<path d="M101.92,174.15l4.85-0.42l-3.45-3.42l0.84-2.3l6.1,6.49l-0.34,0.93l-8.84,1.02L101.92,174.15z"/>
	<path d="M100.6,164.34c0.12-0.34,0.34-0.59,0.67-0.74c0.33-0.15,0.66-0.16,1-0.04s0.59,0.36,0.74,0.68
		c0.16,0.33,0.18,0.67,0.05,1.01c-0.12,0.34-0.35,0.58-0.68,0.73c-0.33,0.15-0.67,0.17-1.01,0.04s-0.59-0.36-0.74-0.69
		C100.48,165.01,100.47,164.67,100.6,164.34z M105.29,164.91l7.33,2.67l-0.74,2.04l-7.33-2.67L105.29,164.91z"/>
	<path d="M112.61,157.23l-2,5.49c1.33,0.42,2.2,0.06,2.61-1.08c0.26-0.71,0.14-1.41-0.35-2.1l0.99-1.78
		c1.29,1.19,1.62,2.66,0.98,4.42c-0.44,1.2-1.14,2.02-2.11,2.48c-0.97,0.46-2.04,0.47-3.22,0.04c-1.18-0.43-2-1.12-2.45-2.08
		c-0.45-0.96-0.47-2.01-0.05-3.18c0.42-1.16,1.11-1.95,2.06-2.37c0.95-0.41,2.03-0.39,3.26,0.06L112.61,157.23z M109.33,162.18
		l1.26-3.47c-1.05-0.13-1.75,0.28-2.09,1.21C108.18,160.83,108.47,161.67,109.33,162.18z"/>
	<path d="M109.54,153.22l4.93-0.38l-3.7-3.61l0.32-0.88l5.22-0.36l-3.58-3.52l0.83-2.29l6.09,6.51l-0.34,0.92l-5.17,0.37l3.73,3.57
		l-0.34,0.94l-8.84,1.04L109.54,153.22z"/>
</g>
<circle fill="#FFFFFF" stroke="#000000" stroke-width="6" stroke-miterlimit="10" cx="420" cy="227" r="10"/>
<g>
	<path d="M428.57,206.16l-11.28-4.11l1.18-3.23c0.6-1.64,1.53-2.83,2.77-3.56c0.75-0.45,1.57-0.71,2.46-0.79
		c0.89-0.08,1.75,0.04,2.6,0.35c0.84,0.31,1.58,0.78,2.22,1.42c0.64,0.64,1.1,1.38,1.39,2.22c0.49,1.34,0.44,2.84-0.16,4.5
		L428.57,206.16z M427.46,203.26l0.22-0.59c0.49-1.35,0.56-2.45,0.19-3.33c-0.39-1.01-1.31-1.86-2.4-2.26
		c-1.15-0.42-2.24-0.36-3.25,0.2c-0.86,0.45-1.53,1.34-2.01,2.67l-0.22,0.59L427.46,203.26z"/>
	<path d="M426.4,188.61c0.45-1.23,1.18-2.1,2.17-2.6s2.08-0.55,3.24-0.13s1.96,1.15,2.39,2.19c0.43,1.05,0.43,2.19-0.02,3.43
		c-0.45,1.25-1.19,2.11-2.2,2.61c-1.01,0.5-2.09,0.54-3.23,0.12c-1.15-0.42-1.94-1.15-2.37-2.2
		C425.94,190.98,425.96,189.84,426.4,188.61z M428.24,189.3c-0.21,0.57-0.19,1.13,0.06,1.68c0.25,0.55,0.66,0.93,1.23,1.14
		c0.57,0.21,1.13,0.19,1.67-0.07c0.55-0.26,0.93-0.67,1.14-1.24c0.21-0.57,0.19-1.14-0.07-1.69c-0.25-0.55-0.66-0.92-1.23-1.13
		c-0.57-0.21-1.12-0.18-1.67,0.07C428.82,188.32,428.44,188.73,428.24,189.3z"/>
	<path d="M429.07,181.99l4.93-0.39l-3.7-3.61l0.32-0.88l5.22-0.36l-3.58-3.52l0.83-2.29l6.09,6.51l-0.34,0.92l-5.17,0.36l3.73,3.57
		l-0.34,0.94l-8.84,1.04L429.07,181.99z"/>
	<path d="M429.93,166.64l0.91-1.8l3.63,4.03l-0.65,1.24L429.93,166.64z"/>
	<path d="M438.45,161.54c-0.48,0.31-0.78,0.62-0.89,0.92s-0.13,0.55-0.08,0.75c0.07,0.2,0.19,0.33,0.36,0.39
		c0.17,0.06,0.34,0.04,0.51-0.08c0.16-0.12,0.45-0.43,0.85-0.92c0.41-0.5,0.76-0.86,1.07-1.05c0.57-0.4,1.22-0.47,1.95-0.21
		s1.25,0.78,1.53,1.53c0.29,0.76,0.26,1.59-0.07,2.49c-0.4,1.11-1.14,1.88-2.23,2.33l-0.86-1.53c0.78-0.36,1.28-0.84,1.49-1.42
		c0.19-0.52-0.02-1.07-0.46-1.22c-0.22-0.08-0.41-0.08-0.58,0.02c-0.16,0.1-0.46,0.4-0.89,0.92c-0.43,0.52-0.77,0.86-1.03,1.02
		c-0.52,0.36-1.11,0.42-1.79,0.17s-1.15-0.7-1.41-1.35c-0.26-0.65-0.23-1.38,0.07-2.21c0.3-0.83,0.84-1.49,1.62-2L438.45,161.54z"/>
	<path d="M436.27,149.89l9.37,3.41l1.26-3.47l1.91,0.69l-2.06,5.67l-11.28-4.11L436.27,149.89z"/>
	<path d="M444.01,140.95l0.75-2.05l7.33,2.67l-0.75,2.05l-0.95-0.35c0.55,0.92,0.66,1.88,0.29,2.87c-0.36,1-1.04,1.71-2.04,2.12
		c-0.99,0.41-2.04,0.42-3.14,0.02c-1.1-0.4-1.91-1.09-2.41-2.04c-0.5-0.96-0.57-1.93-0.22-2.9s1.05-1.66,2.08-2.05L444.01,140.95z
		 M444.96,143.36c-0.21,0.58-0.19,1.14,0.06,1.68c0.25,0.55,0.66,0.92,1.23,1.13s1.13,0.19,1.67-0.07c0.55-0.26,0.92-0.66,1.13-1.23
		c0.2-0.56,0.18-1.12-0.07-1.67c-0.25-0.55-0.66-0.92-1.23-1.13c-0.57-0.21-1.12-0.18-1.67,0.06
		C445.54,142.38,445.16,142.79,444.96,143.36z"/>
	<path d="M440.87,132.95l8.02,2.92l-1.68-3.71l1.01-2.78l1.96,4.61l5.46-2.21l-1.03,2.83l-4.14,1.6l0.14,0.3l2.92,1.06l-0.75,2.05
		L440.12,135L440.87,132.95z"/>
	<path d="M455.13,122.83l-2,5.49c1.33,0.42,2.2,0.06,2.61-1.08c0.26-0.71,0.14-1.41-0.35-2.1l0.99-1.78
		c1.29,1.19,1.62,2.65,0.98,4.42c-0.44,1.2-1.14,2.02-2.11,2.48s-2.04,0.47-3.22,0.04c-1.18-0.43-2-1.12-2.45-2.08
		c-0.45-0.96-0.47-2.01-0.05-3.18c0.42-1.17,1.11-1.95,2.06-2.37c0.95-0.41,2.03-0.39,3.26,0.06L455.13,122.83z M451.85,127.79
		l1.26-3.47c-1.05-0.13-1.75,0.28-2.09,1.21C450.7,126.43,450.99,127.27,451.85,127.79z"/>
</g>
<circle fill="#FFFFFF" stroke="#000000" stroke-width="6" stroke-miterlimit="10" cx="750" cy="227" r="10"/>
<g>
	<path d="M753.28,195.02c-1.16,0.55-1.92,1.33-2.29,2.34c-0.37,1.01-0.3,2,0.19,2.99c0.49,0.99,1.29,1.69,2.39,2.09
		c1.1,0.4,2.14,0.38,3.14-0.07c0.99-0.44,1.68-1.2,2.07-2.27c0.19-0.53,0.27-1.03,0.23-1.51c-0.04-0.48-0.2-1.03-0.48-1.64
		l2.58,0.94c0.09,1.11-0.02,2.11-0.34,3c-0.61,1.67-1.68,2.88-3.23,3.61c-1.55,0.74-3.14,0.81-4.78,0.21
		c-1.64-0.6-2.83-1.68-3.57-3.27c-0.74-1.59-0.81-3.2-0.21-4.85c0.33-0.92,0.9-1.75,1.7-2.51L753.28,195.02z"/>
	<path d="M756.87,188.04l0.75-2.05l7.33,2.67l-0.75,2.05l-0.95-0.35c0.55,0.92,0.65,1.88,0.29,2.88c-0.36,1-1.04,1.71-2.04,2.12
		c-0.99,0.42-2.04,0.43-3.14,0.03c-1.1-0.4-1.91-1.09-2.41-2.04c-0.5-0.96-0.57-1.93-0.22-2.9c0.36-0.97,1.05-1.66,2.08-2.05
		L756.87,188.04z M757.82,190.45c-0.21,0.58-0.19,1.14,0.06,1.68c0.25,0.55,0.66,0.92,1.23,1.13c0.57,0.21,1.13,0.19,1.67-0.07
		c0.55-0.26,0.93-0.66,1.13-1.23s0.18-1.12-0.07-1.67c-0.25-0.55-0.66-0.92-1.23-1.13c-0.57-0.21-1.12-0.18-1.67,0.06
		C758.4,189.46,758.03,189.88,757.82,190.45z"/>
	<path d="M766.4,184.65l-0.75,2.05l-7.33-2.67l0.75-2.05l1.11,0.41c-0.72-0.83-0.91-1.71-0.57-2.62c0.11-0.29,0.27-0.57,0.51-0.83
		l1.8,0.98c-0.28,0.24-0.49,0.53-0.6,0.88c-0.43,1.17,0.09,2.03,1.56,2.56L766.4,184.65z"/>
	<path d="M755.97,173.88l12.67,4.61l-0.75,2.05l-12.67-4.61L755.97,173.88z"/>
	<path d="M768.65,168.13l-2,5.49c1.33,0.42,2.2,0.06,2.61-1.08c0.26-0.71,0.14-1.41-0.35-2.1l0.99-1.78
		c1.29,1.19,1.62,2.65,0.98,4.42c-0.44,1.2-1.14,2.02-2.11,2.48s-2.04,0.47-3.22,0.04s-2-1.12-2.45-2.08
		c-0.45-0.96-0.47-2.01-0.05-3.18c0.42-1.16,1.11-1.95,2.06-2.37c0.95-0.41,2.03-0.39,3.26,0.06L768.65,168.13z M765.37,173.08
		l1.26-3.47c-1.05-0.13-1.75,0.28-2.09,1.21C764.21,171.72,764.5,172.57,765.37,173.08z"/>
	<path d="M767.78,163.58l5.55,2.02l-0.75,2.05l-5.55-2.02l-0.29,0.81l-1.78-0.65l0.29-0.81l-2.5-0.91l0.75-2.05l2.5,0.91l0.53-1.45
		l1.78,0.65L767.78,163.58z"/>
	<path d="M768.08,156.52c0.45-1.23,1.18-2.1,2.17-2.6c1-0.51,2.08-0.55,3.24-0.13s1.96,1.15,2.39,2.19
		c0.43,1.05,0.43,2.19-0.02,3.43s-1.19,2.11-2.2,2.61c-1.01,0.5-2.09,0.54-3.23,0.12s-1.94-1.15-2.37-2.2
		C767.62,158.89,767.63,157.75,768.08,156.52z M769.91,157.21c-0.21,0.57-0.19,1.13,0.06,1.68s0.66,0.93,1.23,1.14
		c0.57,0.21,1.13,0.19,1.67-0.07c0.55-0.26,0.93-0.67,1.13-1.24c0.21-0.57,0.19-1.14-0.07-1.69c-0.25-0.55-0.66-0.92-1.23-1.13
		c-0.57-0.21-1.12-0.18-1.67,0.07C770.5,156.23,770.12,156.64,769.91,157.21z"/>
	<path d="M770.4,150.87l0.75-2.05l0.92,0.33c-0.61-0.93-0.67-1.72-0.31-2.71c0.33-0.9,0.88-1.51,1.65-1.81
		c0.58-0.23,1.33-0.17,2.24,0.16l4.65,1.69l-0.75,2.05l-4.06-1.48c-0.56-0.2-0.98-0.28-1.26-0.22c-0.47,0.07-0.8,0.4-1.01,0.99
		c-0.38,1.03,0.11,1.8,1.47,2.29l3.79,1.38l-0.75,2.05L770.4,150.87z"/>
</g>
<circle fill="#FFFFFF" stroke="#000000" stroke-width="6" stroke-miterlimit="10" cx="1080" cy="227" r="10"/>
<g>
	<path d="M1088.35,206.77l-10.72-6.28l0.55-1.5l8.5-0.4l-6.21-5.88l0.55-1.52l12.17,2.3l-0.81,2.22l-7.32-1.51l5.98,5.67l-0.22,0.61
		l-8.19,0.41l6.54,3.66L1088.35,206.77z"/>
	<path d="M1087.63,185.23c0.45-1.23,1.17-2.1,2.17-2.6s2.08-0.55,3.24-0.13c1.16,0.42,1.96,1.15,2.39,2.19
		c0.43,1.05,0.43,2.19-0.02,3.43c-0.45,1.25-1.19,2.11-2.2,2.61c-1.01,0.5-2.09,0.54-3.23,0.12c-1.15-0.42-1.94-1.15-2.37-2.2
		C1087.17,187.6,1087.18,186.46,1087.63,185.23z M1089.46,185.92c-0.21,0.57-0.19,1.13,0.06,1.68c0.25,0.55,0.66,0.93,1.23,1.14
		c0.57,0.21,1.13,0.19,1.67-0.07c0.55-0.26,0.93-0.67,1.14-1.24c0.21-0.57,0.19-1.14-0.07-1.69c-0.25-0.55-0.66-0.92-1.23-1.13
		c-0.57-0.21-1.12-0.18-1.67,0.07C1090.05,184.94,1089.67,185.35,1089.46,185.92z"/>
	<path d="M1091.11,175.67c0.45-1.23,1.17-2.1,2.17-2.6s2.08-0.55,3.24-0.13s1.96,1.15,2.39,2.19c0.43,1.05,0.43,2.19-0.02,3.43
		c-0.45,1.25-1.19,2.11-2.2,2.61c-1.01,0.5-2.09,0.54-3.23,0.12c-1.15-0.42-1.94-1.15-2.37-2.2S1090.66,176.9,1091.11,175.67z
		 M1092.94,176.37c-0.21,0.57-0.19,1.13,0.06,1.68s0.66,0.93,1.23,1.14c0.57,0.21,1.13,0.19,1.67-0.07
		c0.55-0.26,0.93-0.67,1.13-1.24s0.19-1.14-0.07-1.69c-0.25-0.55-0.66-0.92-1.23-1.13c-0.57-0.21-1.12-0.18-1.67,0.07
		C1093.53,175.38,1093.15,175.8,1092.94,176.37z"/>
	<path d="M1093.43,170.02l0.75-2.05l0.92,0.33c-0.61-0.93-0.67-1.72-0.31-2.71c0.33-0.9,0.88-1.51,1.65-1.81
		c0.58-0.23,1.33-0.17,2.24,0.16l4.65,1.69l-0.75,2.05l-4.06-1.48c-0.56-0.2-0.98-0.28-1.26-0.22c-0.47,0.07-0.8,0.4-1.01,0.99
		c-0.38,1.03,0.11,1.8,1.47,2.29l3.79,1.38l-0.75,2.05L1093.43,170.02z"/>
	<path d="M1103.33,155.27l-2,5.49c1.33,0.42,2.2,0.06,2.61-1.08c0.26-0.71,0.14-1.41-0.35-2.1l0.99-1.78
		c1.29,1.19,1.62,2.65,0.98,4.42c-0.44,1.2-1.14,2.02-2.11,2.48s-2.04,0.47-3.22,0.04c-1.18-0.43-2-1.12-2.45-2.08
		c-0.45-0.96-0.47-2.01-0.05-3.18c0.42-1.17,1.11-1.95,2.06-2.37c0.95-0.41,2.03-0.39,3.26,0.06L1103.33,155.27z M1100.05,160.22
		l1.26-3.47c-1.05-0.13-1.75,0.28-2.09,1.21C1098.89,158.86,1099.18,159.71,1100.05,160.22z"/>
	<path d="M1106.88,152.41l-7.47,1.21l0.87-2.39l4.96-0.68l-3.41-3.6l0.86-2.35l9.08,10.01l-0.84,2.32L1106.88,152.41z"/>
	<path d="M1099.5,140.35l0.91-1.8l3.63,4.02l-0.65,1.24L1099.5,140.35z"/>
	<path d="M1108.02,135.26c-0.48,0.31-0.78,0.62-0.89,0.92c-0.11,0.3-0.13,0.55-0.08,0.75c0.07,0.2,0.19,0.33,0.36,0.39
		c0.17,0.06,0.34,0.04,0.51-0.08c0.16-0.12,0.45-0.43,0.85-0.92c0.41-0.5,0.76-0.86,1.07-1.05c0.57-0.4,1.22-0.47,1.95-0.21
		c0.74,0.27,1.25,0.78,1.53,1.53c0.29,0.76,0.26,1.59-0.07,2.49c-0.4,1.11-1.14,1.88-2.23,2.33l-0.86-1.53
		c0.78-0.36,1.28-0.84,1.49-1.42c0.19-0.52-0.02-1.07-0.46-1.23c-0.22-0.08-0.41-0.07-0.58,0.02c-0.16,0.1-0.46,0.4-0.89,0.92
		c-0.43,0.52-0.77,0.86-1.03,1.02c-0.52,0.36-1.11,0.42-1.79,0.17s-1.15-0.7-1.41-1.35c-0.26-0.65-0.24-1.38,0.07-2.21
		s0.84-1.49,1.62-2L1108.02,135.26z"/>
	<path d="M1116.33,129.91l-11.28-4.11l1.02-2.79c0.46-1.27,1.02-2.11,1.68-2.5c0.77-0.48,1.67-0.54,2.67-0.18
		c0.62,0.23,1.1,0.56,1.46,1.01c0.16,0.23,0.28,0.59,0.38,1.06c0.4-0.62,0.81-1.02,1.25-1.21c0.73-0.34,1.56-0.35,2.47-0.02
		c0.92,0.33,1.55,0.94,1.9,1.8s0.29,1.91-0.15,3.14L1116.33,129.91z M1110.54,125.32l0.23-0.63c0.42-1.14,0.13-1.89-0.84-2.24
		c-0.97-0.35-1.67,0.03-2.07,1.14l-0.24,0.66L1110.54,125.32z M1115.35,127.07l0.35-0.95c0.53-1.46,0.28-2.39-0.75-2.76
		c-0.57-0.21-1.07-0.14-1.5,0.2c-0.33,0.24-0.64,0.76-0.93,1.54l-0.3,0.83L1115.35,127.07z"/>
	<path d="M1114.43,112.31l0.75-2.05l7.33,2.67l-0.75,2.05l-0.95-0.35c0.55,0.92,0.65,1.88,0.29,2.87c-0.36,1-1.04,1.71-2.04,2.12
		c-0.99,0.42-2.04,0.42-3.14,0.03c-1.1-0.4-1.91-1.09-2.41-2.05c-0.5-0.96-0.57-1.93-0.22-2.9c0.35-0.97,1.05-1.66,2.08-2.05
		L1114.43,112.31z M1115.38,114.72c-0.21,0.58-0.19,1.14,0.06,1.68c0.25,0.55,0.66,0.92,1.23,1.13c0.57,0.21,1.13,0.19,1.67-0.07
		c0.55-0.26,0.92-0.66,1.13-1.23c0.21-0.56,0.18-1.12-0.07-1.67c-0.25-0.55-0.66-0.92-1.23-1.13c-0.57-0.21-1.12-0.18-1.67,0.06
		C1115.96,113.74,1115.59,114.15,1115.38,114.72z"/>
	<path d="M1123.02,108.05l-7.47,1.21l0.87-2.39l4.96-0.68l-3.4-3.6l0.86-2.35l9.08,10.01l-0.84,2.32L1123.02,108.05z"/>
</g>
<circle fill="#FFFFFF" stroke="#000000" stroke-width="6" stroke-miterlimit="10" cx="1410" cy="227" r="10"/>
<g>
	<path d="M1414.6,198.28l1.88-5.15c1.48,0.55,2.53,1.15,3.13,1.8c1.55,1.61,1.98,3.74,1.16,5.98c-0.62,1.71-1.69,2.93-3.2,3.64
		c-1.5,0.72-3.11,0.77-4.82,0.14c-1.71-0.62-2.92-1.7-3.63-3.24c-0.71-1.54-0.75-3.17-0.12-4.91c0.78-2.14,2.25-3.44,4.42-3.87
		l0.33,2.31c-1.36,0.27-2.28,1.04-2.74,2.31c-0.39,1.07-0.34,2.08,0.15,3.06c0.49,0.97,1.29,1.67,2.42,2.08
		c1.12,0.41,2.17,0.4,3.16-0.04s1.66-1.18,2.05-2.25c0.29-0.8,0.32-1.55,0.08-2.26c-0.24-0.71-0.7-1.23-1.39-1.57l-0.96,2.65
		L1414.6,198.28z"/>
	<path d="M1423.89,191.55l-0.75,2.05l-7.33-2.67l0.75-2.05l1.11,0.41c-0.72-0.83-0.91-1.71-0.57-2.62c0.11-0.29,0.27-0.57,0.51-0.83
		l1.8,0.98c-0.28,0.24-0.48,0.53-0.6,0.88c-0.43,1.17,0.1,2.03,1.56,2.56L1423.89,191.55z"/>
	<path d="M1424.64,179.14l-2,5.49c1.33,0.42,2.2,0.06,2.61-1.08c0.26-0.71,0.14-1.41-0.35-2.1l0.99-1.78
		c1.29,1.19,1.62,2.65,0.98,4.42c-0.44,1.2-1.14,2.02-2.11,2.48s-2.04,0.47-3.22,0.04c-1.18-0.43-2-1.12-2.45-2.08
		c-0.46-0.96-0.47-2.01-0.05-3.18c0.42-1.16,1.11-1.95,2.06-2.37c0.95-0.41,2.03-0.39,3.26,0.06L1424.64,179.14z M1421.36,184.09
		l1.26-3.47c-1.05-0.13-1.75,0.28-2.09,1.21C1420.2,182.74,1420.49,183.58,1421.36,184.09z"/>
	<path d="M1427.82,170.39l-2,5.49c1.33,0.42,2.2,0.06,2.61-1.08c0.26-0.71,0.14-1.41-0.35-2.1l0.99-1.78
		c1.29,1.19,1.62,2.66,0.98,4.42c-0.44,1.2-1.14,2.02-2.11,2.48c-0.97,0.46-2.04,0.47-3.22,0.04c-1.18-0.43-2-1.12-2.45-2.08
		c-0.45-0.96-0.47-2.01-0.05-3.18c0.42-1.17,1.11-1.95,2.06-2.37c0.95-0.41,2.03-0.39,3.26,0.06L1427.82,170.39z M1424.54,175.34
		l1.26-3.47c-1.05-0.13-1.75,0.28-2.09,1.21C1423.39,173.99,1423.68,174.83,1424.54,175.34z"/>
	<path d="M1424.39,167.38l0.75-2.05l0.92,0.33c-0.61-0.93-0.67-1.72-0.31-2.71c0.33-0.9,0.88-1.51,1.65-1.81
		c0.58-0.23,1.33-0.17,2.24,0.16l4.65,1.69l-0.75,2.05l-4.06-1.48c-0.56-0.2-0.98-0.28-1.26-0.22c-0.47,0.07-0.8,0.4-1.01,0.99
		c-0.38,1.03,0.11,1.8,1.47,2.29l3.79,1.38l-0.75,2.05L1424.39,167.38z"/>
	<path d="M1423.07,154.38l6.29,2.29c-0.54-0.97-0.63-1.95-0.27-2.92c0.35-0.97,1.03-1.67,2.02-2.08c0.99-0.42,2.04-0.42,3.16-0.01
		c1.11,0.41,1.92,1.08,2.41,2.04c0.49,0.96,0.56,1.93,0.2,2.93c-0.36,1-1.06,1.67-2.08,2.02l0.95,0.35l-0.75,2.05l-12.67-4.61
		L1423.07,154.38z M1430.69,155.08c-0.21,0.57-0.18,1.12,0.07,1.67c0.25,0.55,0.67,0.92,1.23,1.13c0.57,0.21,1.13,0.19,1.67-0.07
		c0.55-0.26,0.92-0.66,1.13-1.23c0.2-0.56,0.18-1.12-0.07-1.67c-0.25-0.55-0.65-0.93-1.22-1.14c-0.57-0.21-1.12-0.18-1.67,0.07
		C1431.27,154.1,1430.9,154.5,1430.69,155.08z"/>
	<path d="M1432.33,144.84c0.45-1.23,1.18-2.1,2.17-2.6c1-0.51,2.08-0.55,3.24-0.13c1.16,0.42,1.96,1.15,2.39,2.19
		c0.43,1.05,0.43,2.19-0.02,3.43c-0.45,1.25-1.19,2.11-2.2,2.61c-1.01,0.5-2.09,0.54-3.23,0.12c-1.15-0.42-1.94-1.15-2.37-2.2
		C1431.87,147.22,1431.88,146.07,1432.33,144.84z M1434.16,145.54c-0.21,0.57-0.19,1.13,0.06,1.68c0.25,0.55,0.66,0.93,1.23,1.14
		c0.57,0.21,1.13,0.19,1.67-0.07c0.55-0.26,0.93-0.67,1.13-1.24s0.19-1.14-0.07-1.69c-0.25-0.55-0.66-0.92-1.23-1.13
		c-0.57-0.21-1.12-0.18-1.67,0.07C1434.75,144.55,1434.37,144.97,1434.16,145.54z"/>
	<path d="M1442.72,139.81l-0.75,2.05l-7.33-2.67l0.75-2.05l1.12,0.41c-0.72-0.83-0.91-1.71-0.57-2.62c0.1-0.29,0.27-0.57,0.51-0.83
		l1.8,0.98c-0.28,0.24-0.48,0.53-0.6,0.88c-0.43,1.17,0.09,2.03,1.56,2.56L1442.72,139.81z"/>
	<path d="M1438,129.28c0.45-1.23,1.18-2.1,2.17-2.6c1-0.51,2.08-0.55,3.24-0.13s1.96,1.15,2.39,2.19c0.43,1.05,0.43,2.19-0.02,3.43
		s-1.19,2.11-2.2,2.61c-1.01,0.5-2.09,0.54-3.23,0.12c-1.15-0.42-1.94-1.15-2.37-2.2C1437.53,131.66,1437.55,130.51,1438,129.28z
		 M1439.83,129.98c-0.21,0.57-0.19,1.13,0.06,1.68s0.66,0.93,1.23,1.14c0.57,0.21,1.13,0.19,1.67-0.07
		c0.55-0.26,0.93-0.67,1.13-1.24c0.21-0.57,0.19-1.14-0.07-1.69c-0.25-0.55-0.66-0.92-1.23-1.13c-0.57-0.21-1.12-0.18-1.67,0.07
		C1440.41,128.99,1440.04,129.41,1439.83,129.98z"/>
</g>
<g>
	<path fill="#9B9B9B" d="M692.26,266.22v2.95h-1.43v-7.34h2.12c0.83,0,1.46,0.17,1.87,0.52c0.48,0.4,0.73,0.96,0.73,1.65
		c0,0.7-0.22,1.23-0.66,1.62c-0.27,0.24-0.61,0.4-1.01,0.47l2.31,3.09h-1.76l-1.98-2.95H692.26z M692.26,265.21h0.42
		c0.91,0,1.4-0.41,1.4-1.12c0-0.74-0.46-1.1-1.38-1.1h-0.44V265.21z"/>
	<path fill="#9B9B9B" d="M700.42,264.4h1.33v4.76h-1.33v-0.62c-0.41,0.51-0.94,0.77-1.59,0.77s-1.2-0.24-1.64-0.72
		c-0.45-0.48-0.67-1.09-0.67-1.8s0.23-1.32,0.67-1.81c0.45-0.49,0.99-0.73,1.62-0.73s1.17,0.26,1.61,0.77V264.4z M699.24,265.45
		c-0.38,0-0.69,0.13-0.95,0.39c-0.26,0.26-0.39,0.57-0.39,0.95s0.13,0.69,0.39,0.95c0.26,0.26,0.57,0.39,0.94,0.39
		s0.68-0.13,0.95-0.39c0.26-0.26,0.39-0.57,0.39-0.94c0-0.37-0.13-0.68-0.38-0.95C699.93,265.58,699.61,265.45,699.24,265.45z"/>
	<path fill="#9B9B9B" d="M703.69,261.59c0.22,0,0.41,0.07,0.56,0.23s0.23,0.34,0.23,0.56c0,0.22-0.08,0.41-0.24,0.57
		c-0.16,0.16-0.35,0.24-0.57,0.24s-0.41-0.08-0.56-0.24s-0.24-0.35-0.24-0.57s0.08-0.41,0.24-0.57
		C703.27,261.66,703.46,261.59,703.69,261.59z M704.33,264.4v4.76h-1.33v-4.76H704.33z"/>
	<path fill="#9B9B9B" d="M706.92,260.93v8.24h-1.33v-8.24H706.92z"/>
	<path fill="#9B9B9B" d="M715.04,263.07h-2.45v1.63h2.3v1.24h-2.3v3.22h-1.43v-7.34h3.88V263.07z"/>
	<path fill="#9B9B9B" d="M719.61,264.4h1.33v4.76h-1.33v-0.62c-0.41,0.51-0.94,0.77-1.59,0.77s-1.2-0.24-1.64-0.72
		c-0.45-0.48-0.67-1.09-0.67-1.8s0.23-1.32,0.67-1.81c0.45-0.49,0.99-0.73,1.62-0.73s1.17,0.26,1.61,0.77V264.4z M718.42,265.45
		c-0.38,0-0.69,0.13-0.95,0.39c-0.26,0.26-0.39,0.57-0.39,0.95s0.13,0.69,0.39,0.95c0.26,0.26,0.57,0.39,0.94,0.39
		s0.68-0.13,0.95-0.39c0.26-0.26,0.39-0.57,0.39-0.94c0-0.37-0.13-0.68-0.38-0.95C719.11,265.58,718.79,265.45,718.42,265.45z"/>
	<path fill="#9B9B9B" d="M722.22,264.4h1.33v0.6c0.41-0.54,0.85-0.75,1.49-0.75c0.59,0,1.05,0.19,1.39,0.57
		c0.25,0.29,0.38,0.73,0.38,1.32v3.02h-1.33v-2.64c0-0.37-0.04-0.62-0.13-0.77c-0.14-0.25-0.4-0.38-0.78-0.38
		c-0.67,0-1.01,0.44-1.01,1.32v2.46h-1.33V264.4z"/>
	<path fill="#9B9B9B" d="M730.68,265.52c-0.28-0.21-0.52-0.32-0.71-0.32s-0.34,0.04-0.45,0.11c-0.1,0.08-0.15,0.18-0.15,0.29
		s0.05,0.2,0.15,0.27c0.1,0.07,0.34,0.17,0.71,0.3s0.65,0.26,0.83,0.39c0.35,0.24,0.53,0.6,0.53,1.08s-0.19,0.88-0.56,1.2
		c-0.38,0.32-0.86,0.48-1.44,0.48c-0.72,0-1.32-0.26-1.8-0.79l0.7-0.81c0.37,0.37,0.75,0.56,1.13,0.56c0.34,0,0.61-0.24,0.61-0.52
		c0-0.15-0.04-0.25-0.13-0.33c-0.09-0.07-0.33-0.18-0.71-0.32c-0.39-0.14-0.66-0.26-0.8-0.38c-0.32-0.22-0.47-0.55-0.47-0.99
		s0.16-0.81,0.48-1.09c0.32-0.28,0.75-0.42,1.28-0.42s1.03,0.17,1.49,0.51L730.68,265.52z"/>
	<path fill="#9B9B9B" d="M740.78,263.8c-0.56-0.55-1.17-0.83-1.82-0.83s-1.21,0.25-1.68,0.74c-0.47,0.49-0.7,1.1-0.7,1.81
		c0,0.71,0.23,1.31,0.7,1.79c0.46,0.48,1.04,0.71,1.73,0.71c0.34,0,0.65-0.06,0.92-0.18c0.27-0.12,0.55-0.33,0.84-0.62v1.68
		c-0.62,0.29-1.21,0.43-1.79,0.43c-1.08,0-2-0.37-2.75-1.1s-1.12-1.63-1.12-2.7c0-1.07,0.38-1.98,1.13-2.73s1.67-1.13,2.74-1.13
		c0.6,0,1.19,0.15,1.79,0.45V263.8z"/>
	<path fill="#9B9B9B" d="M745.54,264.4h1.33v4.76h-1.33v-0.62c-0.41,0.51-0.94,0.77-1.59,0.77s-1.2-0.24-1.64-0.72
		c-0.45-0.48-0.67-1.09-0.67-1.8s0.23-1.32,0.67-1.81c0.45-0.49,0.99-0.73,1.62-0.73s1.17,0.26,1.61,0.77V264.4z M744.35,265.45
		c-0.38,0-0.69,0.13-0.95,0.39c-0.26,0.26-0.39,0.57-0.39,0.95s0.13,0.69,0.39,0.95c0.26,0.26,0.57,0.39,0.94,0.39
		s0.68-0.13,0.95-0.39c0.26-0.26,0.39-0.57,0.39-0.94c0-0.37-0.13-0.68-0.38-0.95C745.04,265.58,744.72,265.45,744.35,265.45z"/>
	<path fill="#9B9B9B" d="M748.14,264.4h1.33v0.6c0.41-0.54,0.85-0.75,1.49-0.75c0.59,0,1.05,0.19,1.39,0.57
		c0.25,0.29,0.38,0.73,0.38,1.32v3.02h-1.33v-2.64c0-0.37-0.04-0.62-0.13-0.77c-0.14-0.25-0.4-0.38-0.78-0.38
		c-0.67,0-1.01,0.44-1.01,1.32v2.46h-1.33V264.4z"/>
	<path fill="#9B9B9B" d="M757.65,264.4h1.33v4.76h-1.33v-0.62c-0.41,0.51-0.94,0.77-1.59,0.77c-0.65,0-1.2-0.24-1.64-0.72
		c-0.45-0.48-0.67-1.09-0.67-1.8s0.23-1.32,0.67-1.81c0.45-0.49,0.99-0.73,1.62-0.73c0.63,0,1.17,0.26,1.61,0.77V264.4z
		 M756.47,265.45c-0.38,0-0.69,0.13-0.95,0.39c-0.26,0.26-0.39,0.57-0.39,0.95s0.13,0.69,0.39,0.95c0.26,0.26,0.58,0.39,0.94,0.39
		s0.68-0.13,0.95-0.39c0.26-0.26,0.39-0.57,0.39-0.94c0-0.37-0.13-0.68-0.38-0.95C757.15,265.58,756.84,265.45,756.47,265.45z"/>
	<path fill="#9B9B9B" d="M763.91,260.93h1.33v8.24h-1.33v-0.62c-0.41,0.51-0.94,0.77-1.59,0.77s-1.2-0.24-1.64-0.72
		c-0.45-0.48-0.67-1.09-0.67-1.8s0.23-1.32,0.67-1.81c0.45-0.49,0.99-0.73,1.62-0.73s1.17,0.26,1.61,0.77V260.93z M762.72,265.45
		c-0.38,0-0.69,0.13-0.95,0.39c-0.26,0.26-0.39,0.57-0.39,0.95s0.13,0.69,0.39,0.95c0.26,0.26,0.57,0.39,0.94,0.39
		s0.68-0.13,0.95-0.39c0.26-0.26,0.39-0.57,0.39-0.94c0-0.37-0.13-0.68-0.38-0.95C763.41,265.58,763.09,265.45,762.72,265.45z"/>
	<path fill="#9B9B9B" d="M770.21,264.4h1.33v4.76h-1.33v-0.62c-0.41,0.51-0.94,0.77-1.59,0.77c-0.65,0-1.2-0.24-1.64-0.72
		c-0.45-0.48-0.67-1.09-0.67-1.8s0.23-1.32,0.67-1.81c0.45-0.49,0.99-0.73,1.62-0.73c0.63,0,1.17,0.26,1.61,0.77V264.4z
		 M769.02,265.45c-0.38,0-0.69,0.13-0.95,0.39c-0.26,0.26-0.39,0.57-0.39,0.95s0.13,0.69,0.39,0.95c0.26,0.26,0.57,0.39,0.94,0.39
		s0.68-0.13,0.95-0.39c0.26-0.26,0.39-0.57,0.39-0.94c0-0.37-0.13-0.68-0.38-0.95C769.71,265.58,769.39,265.45,769.02,265.45z"/>
	<path fill="#9B9B9B" d="M774.93,266.09h7.4v1.11h-7.4V266.09z"/>
	<path fill="#9B9B9B" d="M790.6,267.93v1.24h-5.33l2.17-2.46c0.67-0.76,1.11-1.33,1.34-1.69c0.23-0.36,0.34-0.7,0.34-1.01
		c0-0.31-0.11-0.58-0.32-0.79c-0.22-0.21-0.49-0.32-0.8-0.32c-0.32,0-0.58,0.11-0.76,0.32c-0.19,0.21-0.29,0.51-0.31,0.89h-1.53
		c0.05-0.76,0.31-1.36,0.77-1.81c0.46-0.45,1.06-0.67,1.8-0.67c0.74,0,1.35,0.23,1.85,0.67c0.49,0.45,0.74,1.04,0.74,1.76
		s-0.45,1.56-1.33,2.5l-1.28,1.35H790.6z"/>
	<path fill="#9B9B9B" d="M794.45,261.64c0.83,0,1.52,0.38,2.07,1.12c0.5,0.7,0.76,1.62,0.76,2.73s-0.25,2.03-0.76,2.74
		c-0.52,0.7-1.29,1.12-2.08,1.12c-0.85,0-1.54-0.37-2.06-1.1s-0.78-1.65-0.78-2.78s0.25-2.02,0.76-2.72
		C792.92,262.02,793.61,261.64,794.45,261.64z M794.44,262.91c-0.41,0-0.75,0.24-1.02,0.72c-0.27,0.48-0.4,1.1-0.4,1.86
		c0,0.76,0.13,1.38,0.4,1.87c0.26,0.49,0.61,0.73,1.02,0.73c0.41,0,0.76-0.24,1.02-0.72c0.26-0.48,0.39-1.11,0.39-1.86
		c0-0.76-0.13-1.38-0.4-1.86S794.85,262.91,794.44,262.91z"/>
	<path fill="#9B9B9B" d="M803.07,267.93v1.24h-5.33l2.16-2.46c0.67-0.76,1.11-1.33,1.34-1.69c0.23-0.36,0.34-0.7,0.34-1.01
		c0-0.31-0.11-0.58-0.32-0.79c-0.22-0.21-0.49-0.32-0.81-0.32c-0.32,0-0.57,0.11-0.76,0.32c-0.19,0.21-0.3,0.51-0.31,0.89h-1.53
		c0.05-0.76,0.31-1.36,0.77-1.81c0.46-0.45,1.06-0.67,1.8-0.67c0.74,0,1.35,0.23,1.85,0.67c0.49,0.45,0.74,1.04,0.74,1.76
		s-0.45,1.56-1.33,2.5l-1.28,1.35H803.07z"/>
	<path fill="#9B9B9B" d="M809.02,265.04c0.44,0.47,0.66,1.06,0.66,1.79s-0.26,1.33-0.77,1.8c-0.52,0.48-1.19,0.72-2,0.72
		s-1.49-0.24-2.01-0.71c-0.52-0.47-0.79-1.07-0.79-1.81s0.31-1.51,0.92-2.32l2.23-2.98l1.02,0.76l-1.74,2.23
		c0.31-0.12,0.6-0.19,0.86-0.19C808.04,264.34,808.58,264.57,809.02,265.04z M806.91,265.48c-0.38,0-0.7,0.13-0.97,0.39
		c-0.26,0.26-0.4,0.59-0.4,0.98s0.13,0.71,0.4,0.97s0.59,0.4,0.96,0.4s0.69-0.13,0.96-0.4s0.39-0.58,0.39-0.97s-0.13-0.7-0.38-0.97
		C807.61,265.62,807.29,265.48,806.91,265.48z"/>
</g>
<g>
	<path d="M26.59,54.67h-5.74V30.29H14.3v-4.96h18.88v4.96h-6.6V54.67z"/>
	<path d="M40.06,54.67h-5.33V35.62h5.33v2.9c1.31-2.34,3.16-3.52,5.54-3.5c0.75,0,1.53,0.15,2.32,0.47l-0.75,4.96
		c-0.79-0.45-1.63-0.67-2.54-0.64c-3.05,0-4.58,1.91-4.58,5.71V54.67z"/>
	<path d="M53.4,24.36c0.88,0,1.63,0.3,2.26,0.92s0.92,1.38,0.92,2.26s-0.32,1.65-0.95,2.28c-0.62,0.64-1.4,0.97-2.28,0.97
		s-1.63-0.32-2.26-0.95s-0.95-1.4-0.95-2.28s0.32-1.65,0.97-2.28C51.75,24.66,52.52,24.36,53.4,24.36z M56,35.62v19.06H50.7V35.62
		H56z"/>
	<path d="M66.36,21.72v32.96h-5.33V21.72H66.36z"/>
	<path d="M76.78,21.72v32.96h-5.33V21.72H76.78z"/>
	<path d="M84.49,24.36c0.88,0,1.63,0.3,2.26,0.92s0.92,1.38,0.92,2.26s-0.32,1.65-0.95,2.28c-0.62,0.64-1.4,0.97-2.28,0.97
		s-1.63-0.32-2.26-0.95s-0.95-1.4-0.95-2.28s0.32-1.65,0.97-2.28C82.84,24.66,83.61,24.36,84.49,24.36z M87.09,35.62v19.06h-5.31
		V35.62H87.09z"/>
	<path d="M97.45,35.62V46.4c0,2.9,1.29,4.36,3.89,4.36s3.89-1.46,3.89-4.36V35.62h5.33v11.67c0,5.16-3.27,8.01-9.2,8.01
		s-9.24-2.86-9.24-8.01V35.62H97.45z"/>
	<path d="M133.15,44.9v9.78h-5.33V44.55c0-1.48-0.11-2.54-0.34-3.12s-0.62-1.05-1.16-1.4s-1.12-0.52-1.72-0.52
		c-1.2,0-2.45,0.71-3.14,1.91c-0.34,0.6-0.52,1.76-0.49,3.46v9.78h-5.33V35.62h5.33v2.21c1.65-1.87,3.67-2.81,6.08-2.81
		s4.3,1.16,5.65,3.46c1.5-2.32,3.52-3.48,6.08-3.48s4.38,0.92,5.5,2.75c0.67,1.1,1.01,2.62,1.01,4.62v12.31h-5.33V44.25
		c0-1.38-0.15-2.38-0.43-3.05c-0.49-1.12-1.4-1.68-2.69-1.68C134.38,39.53,133.15,41.31,133.15,44.9z"/>
	<path d="M167.94,25.33v24.38h9.02v4.96h-14.74V25.33H167.94z"/>
	<path d="M182.87,24.36c0.88,0,1.63,0.3,2.26,0.92s0.92,1.38,0.92,2.26s-0.32,1.65-0.95,2.28c-0.62,0.64-1.4,0.97-2.28,0.97
		s-1.63-0.32-2.26-0.95s-0.95-1.4-0.95-2.28s0.32-1.65,0.97-2.28C181.21,24.66,181.99,24.36,182.87,24.36z M185.47,35.62v19.06
		h-5.31V35.62H185.47z"/>
	<path d="M190.49,35.62h5.33V38c1.63-2.17,3.39-2.99,5.97-2.99c2.34,0,4.19,0.75,5.54,2.28c1.01,1.14,1.5,2.9,1.5,5.29v12.1h-5.33
		V44.1c0-1.46-0.17-2.49-0.54-3.07c-0.56-1.01-1.59-1.5-3.12-1.5c-2.69,0-4.04,1.76-4.04,5.29v9.86h-5.33V35.62z"/>
	<path d="M232.67,46.02h-14.29c0.15,3.42,1.7,5.11,4.66,5.09c1.85,0,3.35-0.86,4.53-2.56l4.92,0.79c-1.65,3.95-4.75,5.93-9.32,5.95
		c-3.12,0-5.59-0.92-7.46-2.77s-2.79-4.3-2.79-7.37s0.9-5.52,2.73-7.37s4.23-2.77,7.26-2.77s5.41,0.92,7.15,2.75s2.6,4.34,2.6,7.54
		V46.02z M218.55,42.62h9.02c-0.58-2.51-2.11-3.78-4.53-3.78C220.7,38.84,219,40.21,218.55,42.62z"/>
	<path d="M254.11,51.6c0.62,3.24,1.5,5.99,2.62,8.23l-4.28,2.32c-1.27-2.41-2.19-4.9-2.77-7.48c-1.05-4.4-1.59-8.85-1.59-13.34
		c0-8.04,1.46-14.82,4.36-20.37l4.28,2.34c-2.38,5.07-3.57,11.15-3.57,18.22C253.16,44.98,253.49,48.36,254.11,51.6z"/>
	<path d="M282.36,49.71v4.96h-21.33l8.66-9.82c2.66-3.05,4.45-5.31,5.37-6.75s1.38-2.79,1.38-4.04s-0.43-2.3-1.29-3.16
		c-0.88-0.84-1.96-1.27-3.22-1.27s-2.3,0.43-3.05,1.27c-0.77,0.84-1.18,2.04-1.25,3.57h-6.12c0.19-3.05,1.22-5.46,3.09-7.24
		c1.85-1.78,4.25-2.66,7.22-2.66c2.94,0,5.41,0.9,7.39,2.69c1.96,1.8,2.94,4.15,2.94,7.05s-1.78,6.23-5.33,9.99l-5.11,5.41H282.36z"
		/>
	<path d="M297.74,24.57c3.33,0,6.08,1.5,8.29,4.49c2.02,2.81,3.03,6.47,3.03,10.91s-1.01,8.1-3.03,10.96
		c-2.06,2.81-5.16,4.49-8.31,4.49c-3.42,0-6.17-1.46-8.25-4.38s-3.14-6.62-3.14-11.11s1.01-8.1,3.03-10.87
		C291.62,26.08,294.41,24.57,297.74,24.57z M297.72,29.64c-1.65,0-3.01,0.97-4.08,2.88s-1.61,4.4-1.61,7.43s0.54,5.52,1.59,7.48
		s2.43,2.92,4.08,2.92s3.03-0.97,4.08-2.9s1.57-4.43,1.57-7.46s-0.54-5.52-1.59-7.46S299.36,29.64,297.72,29.64z"/>
	<path d="M322.69,24.57c3.33,0,6.08,1.5,8.29,4.49c2.02,2.81,3.03,6.47,3.03,10.91s-1.01,8.1-3.03,10.96
		c-2.06,2.81-5.16,4.49-8.31,4.49c-3.42,0-6.17-1.46-8.25-4.38s-3.14-6.62-3.14-11.11s1.01-8.1,3.03-10.87
		C316.56,26.08,319.36,24.57,322.69,24.57z M322.67,29.64c-1.65,0-3.01,0.97-4.08,2.88s-1.61,4.4-1.61,7.43s0.54,5.52,1.59,7.48
		s2.43,2.92,4.08,2.92s3.03-0.97,4.08-2.9s1.57-4.43,1.57-7.46s-0.54-5.52-1.59-7.46S324.3,29.64,322.67,29.64z"/>
	<path d="M345.1,30.29h-4.23v-4.96h9.95v29.35h-5.71V30.29z"/>
	<path d="M360.05,42.36h9.9v4.43h-9.9V42.36z"/>
	<path d="M392.02,49.71v4.96h-21.33l8.66-9.82c2.66-3.05,4.45-5.31,5.37-6.75s1.38-2.79,1.38-4.04s-0.43-2.3-1.29-3.16
		c-0.88-0.84-1.96-1.27-3.22-1.27s-2.3,0.43-3.05,1.27c-0.77,0.84-1.18,2.04-1.25,3.57h-6.12c0.19-3.05,1.22-5.46,3.09-7.24
		c1.85-1.78,4.25-2.66,7.22-2.66c2.94,0,5.41,0.9,7.39,2.69c1.96,1.8,2.94,4.15,2.94,7.05s-1.78,6.23-5.33,9.99l-5.11,5.41H392.02z"
		/>
	<path d="M407.4,24.57c3.33,0,6.08,1.5,8.29,4.49c2.02,2.81,3.03,6.47,3.03,10.91s-1.01,8.1-3.03,10.96
		c-2.06,2.81-5.16,4.49-8.31,4.49c-3.42,0-6.17-1.46-8.25-4.38s-3.14-6.62-3.14-11.11s1.01-8.1,3.03-10.87
		C401.28,26.08,404.07,24.57,407.4,24.57z M407.38,29.64c-1.65,0-3.01,0.97-4.08,2.88s-1.61,4.4-1.61,7.43s0.54,5.52,1.59,7.48
		s2.43,2.92,4.08,2.92s3.03-0.97,4.08-2.9s1.57-4.43,1.57-7.46s-0.54-5.52-1.59-7.46S409.01,29.64,407.38,29.64z"/>
	<path d="M441.9,49.71v4.96h-21.33l8.66-9.82c2.66-3.05,4.45-5.31,5.37-6.75s1.38-2.79,1.38-4.04s-0.43-2.3-1.29-3.16
		c-0.88-0.84-1.96-1.27-3.22-1.27s-2.3,0.43-3.05,1.27c-0.77,0.84-1.18,2.04-1.25,3.57h-6.12c0.19-3.05,1.22-5.46,3.09-7.24
		c1.85-1.78,4.25-2.66,7.22-2.66c2.94,0,5.41,0.9,7.39,2.69c1.96,1.8,2.94,4.15,2.94,7.05s-1.78,6.23-5.33,9.99l-5.11,5.41H441.9z"
		/>
	<path d="M457.29,24.57c3.33,0,6.08,1.5,8.29,4.49c2.02,2.81,3.03,6.47,3.03,10.91s-1.01,8.1-3.03,10.96
		c-2.06,2.81-5.16,4.49-8.31,4.49c-3.42,0-6.17-1.46-8.25-4.38s-3.14-6.62-3.14-11.11s1.01-8.1,3.03-10.87
		C451.16,26.08,453.96,24.57,457.29,24.57z M457.27,29.64c-1.65,0-3.01,0.97-4.08,2.88s-1.61,4.4-1.61,7.43s0.54,5.52,1.59,7.48
		s2.43,2.92,4.08,2.92s3.03-0.97,4.08-2.9s1.57-4.43,1.57-7.46s-0.54-5.52-1.59-7.46S458.9,29.64,457.27,29.64z"/>
	<path d="M476.69,31.56c-0.62-3.24-1.5-5.99-2.62-8.25l4.25-2.34c1.27,2.41,2.19,4.9,2.77,7.48c1.05,4.4,1.59,8.85,1.59,13.34
		c0,8.04-1.46,14.82-4.36,20.37l-4.25-2.32c2.38-5.09,3.57-11.17,3.57-18.22C477.63,38.17,477.31,34.82,476.69,31.56z"/>
</g>
</svg>
