<?xml version="1.0" encoding="iso-8859-1"?>
<!-- Generator: Adobe Illustrator 29.8.4, SVG Export Plug-In . SVG Version: 9.03 Build 0)  -->
<svg version="1.1" id="Layer_1" xmlns="http://www.w3.org/2000/svg" xmlns:xlink="http://www.w3.org/1999/xlink" x="0px" y="0px"
	 viewBox="0 0 1500 292" enable-background="new 0 0 1500 292" xml:space="preserve">
<rect id="bg-white" fill="#FFFFFF" width="1500" height="292"/>
<line fill="none" stroke="#D30F1D" stroke-width="16" stroke-linecap="round" stroke-miterlimit="10" x1="90" y1="244" x2="1410" y2="244"/>
<circle fill="#FFFFFF" stroke="#000000" stroke-width="6" stroke-miterlimit="10" cx="90" cy="244" r="10"/>
<g>
	<path d="M98.62,215.61l-1.68,4.62l2.02,1.88l-0.85,2.34l-9.74-9.08l0.6-1.66l13.24-0.54l-0.86,2.35L98.62,215.61z M96.59,215.65
		l-4.63,0.1l3.46,3.11L96.59,215.65z"/>
	<path d="M90.66,205.49l12.67,4.61l-0.75,2.05l-12.67-4.61L90.66,205.49z"/>
	<path d="M99.5,197.82l7.05,2.57c0.75,0.27,1.32,0.54,1.69,0.81c0.37,0.27,0.68,0.63,0.92,1.07c0.6,1.03,0.64,2.25,0.12,3.67
		c-0.51,1.41-1.44,2.3-2.78,2.66c-0.57,0.15-1.12,0.16-1.67,0.03l0.81-2.24c0.96,0.12,1.6-0.29,1.95-1.24
		c0.2-0.55,0.18-1.07-0.04-1.57c-0.21-0.42-0.67-0.76-1.36-1.02l-1.1-0.4c0.3,0.55,0.47,1.04,0.53,1.48
		c0.05,0.45-0.02,0.93-0.21,1.45c-0.36,1-1.02,1.71-1.98,2.1c-0.96,0.4-2,0.4-3.13-0.02c-1.13-0.41-1.95-1.09-2.45-2.04
		c-0.51-0.95-0.58-1.92-0.22-2.91c0.36-0.99,1.05-1.67,2.07-2.02l-0.95-0.35L99.5,197.82z M99.71,202.25
		c-0.21,0.57-0.18,1.12,0.07,1.67c0.25,0.55,0.66,0.92,1.23,1.13c0.57,0.21,1.13,0.19,1.67-0.07c0.55-0.26,0.92-0.67,1.13-1.23
		c0.2-0.56,0.18-1.12-0.07-1.67c-0.25-0.55-0.66-0.92-1.23-1.13s-1.12-0.18-1.67,0.07C100.29,201.27,99.92,201.68,99.71,202.25z"/>
	<path d="M101.39,191.91c0.45-1.23,1.18-2.1,2.17-2.6s2.08-0.55,3.24-0.13s1.96,1.15,2.39,2.19c0.43,1.05,0.43,2.19-0.02,3.43
		c-0.45,1.25-1.19,2.11-2.2,2.61c-1.01,0.5-2.09,0.54-3.23,0.12c-1.15-0.42-1.94-1.15-2.37-2.2
		C100.92,194.29,100.94,193.14,101.39,191.91z M103.22,192.61c-0.21,0.57-0.19,1.13,0.06,1.68s0.66,0.93,1.23,1.14
		c0.57,0.21,1.13,0.19,1.67-0.07c0.55-0.26,0.93-0.67,1.13-1.24c0.21-0.57,0.19-1.14-0.07-1.69c-0.25-0.55-0.66-0.92-1.23-1.13
		c-0.57-0.21-1.12-0.18-1.67,0.07C103.8,191.62,103.43,192.04,103.22,192.61z"/>
	<path d="M103.71,186.26l0.75-2.05l0.92,0.33c-0.61-0.93-0.67-1.72-0.31-2.71c0.33-0.9,0.88-1.51,1.65-1.81
		c0.58-0.23,1.33-0.17,2.24,0.16l4.65,1.69l-0.75,2.05l-4.06-1.48c-0.56-0.2-0.98-0.28-1.26-0.22c-0.47,0.07-0.8,0.4-1.01,0.99
		c-0.38,1.03,0.11,1.8,1.47,2.29l3.79,1.38l-0.75,2.05L103.71,186.26z"/>
	<path d="M120.26,175.73l-4.86-1.77c0.54,0.96,0.63,1.93,0.28,2.91s-1.03,1.67-2.03,2.09s-2.05,0.42-3.15,0.02
		c-1.1-0.4-1.9-1.08-2.4-2.04c-0.49-0.96-0.56-1.93-0.2-2.93c0.36-1,1.05-1.66,2.07-2.01l-0.95-0.35l0.75-2.05l11.23,4.09
		L120.26,175.73z M109.97,174.05c-0.21,0.58-0.19,1.14,0.06,1.68c0.25,0.55,0.66,0.92,1.23,1.13c0.57,0.21,1.13,0.19,1.67-0.07
		c0.55-0.26,0.92-0.66,1.13-1.23s0.18-1.12-0.07-1.67c-0.25-0.55-0.66-0.92-1.23-1.13c-0.57-0.21-1.12-0.18-1.67,0.06
		C110.56,173.06,110.18,173.48,109.97,174.05z"/>
	<path d="M111.25,165.53l4.15,1.51c1.12,0.41,1.86,0.12,2.22-0.88c0.36-1-0.02-1.7-1.13-2.1l-4.15-1.51l0.75-2.05l4.49,1.63
		c1.98,0.72,2.62,2.38,1.79,4.66c-0.83,2.28-2.39,3.15-4.37,2.43l-4.49-1.63L111.25,165.53z"/>
	<path d="M109.83,155.96c0.12-0.34,0.34-0.59,0.67-0.74c0.33-0.15,0.66-0.16,1-0.04c0.34,0.12,0.59,0.35,0.74,0.68
		c0.16,0.33,0.18,0.67,0.05,1.01c-0.12,0.34-0.35,0.58-0.68,0.74c-0.33,0.15-0.67,0.17-1.01,0.04c-0.34-0.12-0.59-0.36-0.74-0.69
		C109.72,156.63,109.71,156.29,109.83,155.96z M114.53,156.53l7.33,2.67l-0.74,2.04l-7.33-2.67L114.53,156.53z"/>
	<path d="M115.23,154.6l0.75-2.05l0.92,0.33c-0.61-0.93-0.67-1.72-0.31-2.71c0.33-0.9,0.88-1.5,1.65-1.81
		c0.58-0.23,1.33-0.17,2.24,0.16l4.65,1.69l-0.75,2.05l-4.06-1.48c-0.56-0.2-0.98-0.28-1.26-0.22c-0.47,0.07-0.8,0.4-1.01,0.99
		c-0.38,1.03,0.11,1.8,1.47,2.29l3.79,1.38l-0.75,2.05L115.23,154.6z"/>
</g>
<circle fill="#FFFFFF" stroke="#000000" stroke-width="6" stroke-miterlimit="10" cx="145" cy="244" r="10"/>
<g>
	<path d="M143.09,216.85l11.28,4.11l-0.8,2.2l-11.28-4.11L143.09,216.85z"/>
	<path d="M155.94,216.65l-0.75,2.05l-7.33-2.67l0.75-2.05l1.11,0.41c-0.72-0.83-0.91-1.71-0.57-2.62c0.11-0.29,0.27-0.57,0.51-0.83
		l1.8,0.98c-0.28,0.24-0.49,0.54-0.6,0.88c-0.43,1.17,0.09,2.03,1.56,2.56L155.94,216.65z"/>
	<path d="M146.16,207.28c0.12-0.34,0.34-0.59,0.67-0.74c0.33-0.15,0.66-0.16,1-0.04c0.34,0.12,0.59,0.36,0.74,0.68
		c0.16,0.33,0.18,0.67,0.05,1.01c-0.12,0.34-0.35,0.58-0.68,0.73s-0.67,0.17-1.01,0.04c-0.34-0.12-0.59-0.36-0.74-0.69
		C146.04,207.96,146.03,207.62,146.16,207.28z M150.85,207.85l7.33,2.67l-0.74,2.04l-7.33-2.67L150.85,207.85z"/>
	<path d="M154.72,202.54c-0.48,0.31-0.78,0.62-0.89,0.92c-0.11,0.3-0.13,0.55-0.08,0.75c0.07,0.2,0.19,0.33,0.36,0.39
		c0.17,0.06,0.34,0.04,0.51-0.08c0.16-0.12,0.45-0.43,0.85-0.93c0.41-0.5,0.76-0.86,1.07-1.05c0.57-0.4,1.22-0.47,1.95-0.21
		c0.74,0.27,1.25,0.78,1.53,1.53c0.29,0.76,0.26,1.59-0.07,2.49c-0.4,1.11-1.14,1.88-2.23,2.33l-0.86-1.53
		c0.78-0.36,1.28-0.83,1.49-1.42c0.19-0.52-0.02-1.06-0.46-1.22c-0.22-0.08-0.41-0.08-0.58,0.02c-0.16,0.1-0.46,0.4-0.89,0.92
		c-0.43,0.52-0.77,0.86-1.03,1.02c-0.52,0.36-1.11,0.42-1.79,0.17c-0.69-0.25-1.15-0.7-1.41-1.35c-0.26-0.65-0.23-1.38,0.07-2.21
		c0.3-0.83,0.84-1.49,1.62-2L154.72,202.54z"/>
</g>
<circle fill="#FFFFFF" stroke="#000000" stroke-width="6" stroke-miterlimit="10" cx="200" cy="244" r="10"/>
<g>
	<path d="M198.09,216.85l9.37,3.41l1.26-3.47l1.91,0.69l-2.06,5.67l-11.28-4.11L198.09,216.85z"/>
	<path d="M199.81,210.98c0.12-0.34,0.34-0.58,0.67-0.74c0.33-0.15,0.66-0.16,1-0.04s0.59,0.35,0.74,0.68
		c0.16,0.33,0.18,0.67,0.05,1.01c-0.12,0.34-0.35,0.58-0.68,0.74s-0.67,0.17-1.01,0.04c-0.34-0.12-0.59-0.36-0.74-0.69
		C199.69,211.66,199.69,211.32,199.81,210.98z M204.5,211.55l7.33,2.67l-0.74,2.04l-7.33-2.67L204.5,211.55z"/>
	<path d="M205.2,209.62l0.75-2.05l0.92,0.33c-0.61-0.93-0.67-1.72-0.31-2.71c0.33-0.9,0.88-1.5,1.65-1.81
		c0.58-0.23,1.33-0.17,2.24,0.16l4.65,1.69l-0.75,2.05l-4.06-1.48c-0.56-0.2-0.98-0.28-1.26-0.22c-0.47,0.07-0.8,0.4-1.01,0.99
		c-0.38,1.03,0.11,1.8,1.47,2.29l3.79,1.38l-0.75,2.05L205.2,209.62z"/>
	<path d="M212.72,195.93c-0.62,0.38-1.03,0.87-1.24,1.46c-0.21,0.59-0.2,1.14,0.04,1.69c0.24,0.55,0.66,0.92,1.25,1.14
		c0.6,0.22,1.15,0.2,1.69-0.07c0.54-0.26,0.91-0.69,1.13-1.28c0.22-0.59,0.22-1.22,0-1.89l1.99,0.72c0.09,0.71,0.01,1.39-0.22,2.04
		c-0.42,1.14-1.13,1.96-2.16,2.45c-1.01,0.5-2.08,0.54-3.18,0.14c-1.1-0.4-1.89-1.13-2.37-2.17c-0.47-1.04-0.5-2.14-0.09-3.28
		c0.24-0.67,0.62-1.23,1.11-1.7L212.72,195.93z"/>
	<path d="M212.21,189.67c0.45-1.23,1.17-2.1,2.17-2.6c1-0.51,2.08-0.55,3.24-0.13s1.96,1.15,2.39,2.19
		c0.43,1.05,0.43,2.19-0.02,3.43s-1.19,2.11-2.2,2.61c-1.01,0.5-2.09,0.54-3.23,0.12s-1.94-1.15-2.37-2.2
		C211.74,192.04,211.76,190.9,212.21,189.67z M214.04,190.36c-0.21,0.57-0.19,1.13,0.06,1.68c0.25,0.55,0.66,0.93,1.23,1.14
		c0.57,0.21,1.13,0.19,1.67-0.07c0.55-0.26,0.93-0.67,1.13-1.24c0.21-0.57,0.19-1.14-0.07-1.69c-0.25-0.55-0.66-0.92-1.23-1.13
		c-0.57-0.21-1.12-0.18-1.67,0.07C214.62,189.38,214.24,189.79,214.04,190.36z"/>
	<path d="M209.92,180.03l12.67,4.61l-0.75,2.05l-12.67-4.61L209.92,180.03z"/>
	<path d="M215.98,180.01l0.75-2.05l0.92,0.33c-0.61-0.93-0.67-1.72-0.31-2.71c0.33-0.9,0.88-1.51,1.65-1.81
		c0.58-0.23,1.33-0.17,2.24,0.16l4.65,1.69l-0.75,2.05l-4.06-1.48c-0.56-0.2-0.98-0.28-1.26-0.22c-0.47,0.07-0.8,0.4-1.01,0.99
		c-0.38,1.03,0.11,1.8,1.47,2.29l3.79,1.38l-0.75,2.05L215.98,180.01z"/>
	<path d="M221.04,159.73l-1.37,3.77l2.51,0.91l1.29-3.53l1.91,0.69l-1.29,3.54l4.96,1.8l-0.8,2.2l-11.28-4.11l2.17-5.97
		L221.04,159.73z"/>
	<path d="M219.7,156.33c0.12-0.34,0.34-0.59,0.67-0.74c0.33-0.15,0.66-0.16,1-0.04c0.34,0.12,0.59,0.35,0.74,0.68
		c0.16,0.33,0.18,0.67,0.05,1.01c-0.12,0.34-0.35,0.58-0.68,0.74c-0.33,0.15-0.67,0.17-1.01,0.04c-0.34-0.12-0.59-0.36-0.74-0.69
		C219.58,157.01,219.58,156.67,219.7,156.33z M224.39,156.9l7.33,2.67l-0.74,2.04l-7.33-2.67L224.39,156.9z"/>
	<path d="M231.71,149.22l-2,5.49c1.33,0.42,2.2,0.06,2.61-1.08c0.26-0.71,0.14-1.41-0.35-2.1l0.99-1.78
		c1.29,1.19,1.62,2.65,0.98,4.42c-0.44,1.2-1.14,2.02-2.11,2.48c-0.97,0.46-2.04,0.47-3.22,0.04s-2-1.12-2.45-2.08
		c-0.45-0.96-0.47-2.01-0.05-3.18c0.42-1.17,1.11-1.95,2.06-2.37s2.03-0.39,3.26,0.06L231.71,149.22z M228.43,154.18l1.26-3.47
		c-1.05-0.13-1.75,0.28-2.09,1.21C227.28,152.82,227.57,153.67,228.43,154.18z"/>
	<path d="M223.7,142.17l12.67,4.61l-0.75,2.05l-12.67-4.61L223.7,142.17z"/>
	<path d="M226.46,134.6l0.75-2.05l12.67,4.61l-0.75,2.05l-0.95-0.35c0.55,0.92,0.66,1.88,0.29,2.88c-0.36,1-1.04,1.71-2.04,2.12
		c-0.99,0.42-2.04,0.43-3.14,0.03c-1.1-0.4-1.91-1.09-2.41-2.04s-0.57-1.93-0.21-2.9c0.35-0.97,1.05-1.66,2.08-2.05L226.46,134.6z
		 M232.75,138.96c-0.21,0.58-0.19,1.14,0.06,1.68c0.25,0.55,0.66,0.92,1.23,1.13c0.57,0.21,1.13,0.19,1.67-0.07
		c0.55-0.26,0.92-0.66,1.13-1.23c0.21-0.56,0.18-1.12-0.07-1.67c-0.25-0.55-0.66-0.92-1.23-1.13c-0.57-0.21-1.12-0.18-1.67,0.06
		C233.33,137.97,232.95,138.39,232.75,138.96z"/>
	<path d="M236.43,129.16c-0.48,0.31-0.78,0.62-0.89,0.92s-0.13,0.55-0.08,0.75c0.07,0.2,0.19,0.33,0.36,0.39
		c0.17,0.06,0.34,0.04,0.5-0.08c0.16-0.12,0.45-0.43,0.85-0.92c0.41-0.5,0.76-0.86,1.07-1.05c0.57-0.4,1.22-0.47,1.95-0.21
		c0.74,0.27,1.25,0.78,1.53,1.53c0.29,0.76,0.26,1.59-0.06,2.49c-0.4,1.11-1.14,1.88-2.23,2.33l-0.86-1.53
		c0.78-0.36,1.28-0.84,1.49-1.42c0.19-0.52-0.02-1.07-0.46-1.22c-0.22-0.08-0.41-0.08-0.58,0.02c-0.16,0.1-0.46,0.4-0.89,0.92
		c-0.43,0.52-0.77,0.86-1.03,1.02c-0.52,0.36-1.11,0.42-1.79,0.17s-1.15-0.7-1.41-1.35c-0.26-0.65-0.23-1.39,0.07-2.21
		s0.84-1.49,1.62-2L236.43,129.16z"/>
</g>
<circle fill="#FFFFFF" stroke="#000000" stroke-width="6" stroke-miterlimit="10" cx="255" cy="244" r="10"/>
<g>
	<path d="M263.57,223.16l-11.54-4.2l0.55-1.52l10.35-4.01l-7.6-2.77l0.8-2.2l11.5,4.19l-0.56,1.53l-10.35,4l7.63,2.78L263.57,223.16
		z"/>
	<path d="M267.58,201.79l-2,5.49c1.33,0.42,2.2,0.06,2.61-1.08c0.26-0.71,0.14-1.41-0.35-2.1l0.99-1.78
		c1.29,1.19,1.62,2.66,0.98,4.42c-0.44,1.2-1.14,2.02-2.11,2.48c-0.97,0.46-2.04,0.47-3.22,0.04c-1.18-0.43-2-1.12-2.45-2.08
		c-0.45-0.96-0.47-2.01-0.05-3.18c0.42-1.16,1.11-1.95,2.06-2.37c0.95-0.41,2.03-0.39,3.26,0.06L267.58,201.79z M264.3,206.74
		l1.26-3.47c-1.05-0.13-1.75,0.28-2.09,1.21C263.15,205.39,263.44,206.23,264.3,206.74z"/>
	<path d="M264.51,197.79l4.93-0.38l-3.7-3.61l0.32-0.88l5.22-0.36l-3.58-3.52l0.83-2.29l6.09,6.51l-0.34,0.92l-5.17,0.37l3.73,3.57
		l-0.34,0.94l-8.84,1.04L264.51,197.79z"/>
	<path d="M268.34,174.16c0.61-1.68,1.69-2.88,3.26-3.63c1.56-0.75,3.18-0.82,4.84-0.21c1.66,0.6,2.84,1.7,3.55,3.28
		c0.71,1.58,0.74,3.23,0.12,4.93s-1.71,2.92-3.27,3.65c-1.57,0.73-3.17,0.79-4.82,0.19c-1.65-0.6-2.83-1.7-3.53-3.3
		C267.78,177.47,267.73,175.84,268.34,174.16z M270.35,174.92c-0.38,1.03-0.32,2.06,0.16,3.07c0.48,1.02,1.26,1.72,2.34,2.11
		c1.07,0.39,2.13,0.35,3.15-0.11c1.03-0.46,1.73-1.2,2.11-2.24s0.32-2.07-0.17-3.08c-0.49-1.01-1.28-1.71-2.35-2.1
		c-1.07-0.39-2.12-0.36-3.14,0.1C271.43,173.13,270.72,173.89,270.35,174.92z"/>
	<path d="M283.43,168.61l-0.75,2.05l-7.33-2.67l0.75-2.05l1.11,0.41c-0.72-0.83-0.91-1.71-0.57-2.62c0.11-0.29,0.27-0.57,0.51-0.83
		l1.8,0.98c-0.29,0.24-0.49,0.54-0.6,0.88c-0.43,1.17,0.09,2.03,1.56,2.56L283.43,168.61z"/>
	<path d="M281.77,157.34c-0.62,0.38-1.03,0.87-1.24,1.46c-0.21,0.59-0.2,1.14,0.04,1.69s0.66,0.92,1.25,1.14s1.15,0.2,1.69-0.07
		c0.54-0.26,0.91-0.69,1.13-1.28c0.22-0.59,0.22-1.22,0-1.89l1.99,0.72c0.09,0.71,0.01,1.39-0.22,2.04
		c-0.41,1.14-1.13,1.95-2.16,2.45c-1.01,0.5-2.08,0.54-3.18,0.14c-1.1-0.4-1.89-1.13-2.37-2.17c-0.47-1.04-0.5-2.14-0.09-3.28
		c0.24-0.67,0.62-1.23,1.12-1.7L281.77,157.34z"/>
	<path d="M274.81,152.85l0.75-2.05l6.29,2.29c-0.57-0.89-0.68-1.79-0.35-2.72c0.34-0.92,0.89-1.53,1.67-1.81
		c0.6-0.22,1.36-0.16,2.28,0.17l4.6,1.67l-0.75,2.05l-4-1.46c-0.59-0.21-1.02-0.29-1.3-0.24c-0.48,0.08-0.82,0.41-1.03,0.98
		c-0.38,1.03,0.12,1.8,1.5,2.3l3.76,1.37l-0.75,2.05L274.81,152.85z"/>
	<path d="M285.48,140.17l0.75-2.05l7.33,2.67l-0.75,2.05l-0.95-0.35c0.55,0.92,0.65,1.88,0.29,2.87c-0.36,1-1.04,1.71-2.04,2.12
		c-0.99,0.42-2.04,0.42-3.14,0.03c-1.1-0.4-1.91-1.09-2.41-2.05s-0.57-1.93-0.22-2.9c0.36-0.97,1.05-1.66,2.08-2.05L285.48,140.17z
		 M286.43,142.58c-0.21,0.58-0.19,1.14,0.06,1.68c0.25,0.55,0.66,0.92,1.23,1.13c0.57,0.21,1.13,0.19,1.67-0.07
		c0.55-0.26,0.93-0.66,1.13-1.23s0.18-1.12-0.07-1.67c-0.25-0.55-0.66-0.92-1.23-1.13c-0.57-0.21-1.12-0.18-1.67,0.06
		C287.01,141.6,286.63,142.01,286.43,142.58z"/>
	<path d="M295.01,136.78l-0.75,2.05l-7.33-2.67l0.75-2.05l1.11,0.41c-0.72-0.83-0.91-1.71-0.57-2.62c0.11-0.29,0.27-0.56,0.51-0.83
		l1.8,0.98c-0.28,0.24-0.49,0.53-0.6,0.88c-0.43,1.17,0.09,2.03,1.56,2.56L295.01,136.78z"/>
	<path d="M285.83,122.58l0.75-2.05l12.67,4.61l-0.75,2.05l-0.95-0.35c0.55,0.92,0.65,1.88,0.29,2.87c-0.36,1-1.04,1.71-2.04,2.12
		c-0.99,0.42-2.04,0.42-3.14,0.03c-1.1-0.4-1.91-1.09-2.41-2.05c-0.5-0.96-0.57-1.93-0.22-2.9c0.36-0.97,1.05-1.66,2.08-2.05
		L285.83,122.58z M292.12,126.94c-0.21,0.58-0.19,1.14,0.06,1.68c0.25,0.55,0.66,0.92,1.23,1.13c0.57,0.21,1.13,0.19,1.67-0.07
		c0.55-0.26,0.92-0.66,1.13-1.23c0.2-0.56,0.18-1.12-0.07-1.67c-0.25-0.55-0.66-0.92-1.23-1.13c-0.57-0.21-1.12-0.18-1.67,0.06
		C292.7,125.95,292.33,126.37,292.12,126.94z"/>
</g>
<circle fill="#FFFFFF" stroke="#000000" stroke-width="6" stroke-miterlimit="10" cx="310" cy="244" r="10"/>
<g>
	<path d="M310.93,218c0.32,0.12,0.63,0.1,0.91-0.07c0.29-0.17,0.75-0.62,1.4-1.39c0.65-0.76,1.22-1.28,1.72-1.55
		c0.81-0.47,1.73-0.5,2.8-0.11s1.81,1.07,2.23,2.04c0.42,0.97,0.43,2.04,0,3.22c-0.58,1.59-1.77,2.62-3.56,3.09l-0.85-1.92
		c1.19-0.16,1.98-0.77,2.36-1.81c0.18-0.5,0.19-0.98,0.01-1.42c-0.18-0.43-0.5-0.73-0.97-0.91c-0.47-0.17-0.92-0.11-1.35,0.19
		c-0.21,0.14-0.66,0.62-1.33,1.43c-0.68,0.81-1.33,1.34-1.94,1.6c-0.61,0.25-1.29,0.24-2.03-0.03c-0.95-0.35-1.61-0.96-1.99-1.86
		s-0.39-1.84-0.02-2.86c0.46-1.25,1.28-2.21,2.46-2.86l1.08,1.7c-0.81,0.31-1.33,0.81-1.57,1.5c-0.17,0.45-0.18,0.87-0.05,1.26
		C310.37,217.63,310.61,217.88,310.93,218z"/>
	<path d="M309.13,209.68l0.75-2.05l6.29,2.29c-0.56-0.89-0.69-1.79-0.35-2.72c0.34-0.93,0.89-1.53,1.67-1.81
		c0.6-0.22,1.36-0.16,2.28,0.17l4.6,1.67l-0.75,2.05l-4-1.46c-0.59-0.21-1.02-0.29-1.3-0.24c-0.48,0.08-0.82,0.41-1.03,0.98
		c-0.38,1.03,0.12,1.8,1.5,2.3l3.76,1.37l-0.75,2.05L309.13,209.68z"/>
	<path d="M324.37,196.87l-2,5.49c1.33,0.42,2.2,0.06,2.61-1.08c0.26-0.71,0.14-1.41-0.35-2.1l0.99-1.78
		c1.29,1.19,1.62,2.65,0.98,4.42c-0.44,1.2-1.14,2.02-2.11,2.48c-0.97,0.46-2.04,0.47-3.22,0.04s-2-1.12-2.45-2.08
		c-0.45-0.96-0.47-2.01-0.05-3.18c0.42-1.17,1.11-1.95,2.06-2.37c0.95-0.41,2.03-0.39,3.26,0.06L324.37,196.87z M321.09,201.82
		l1.26-3.47c-1.05-0.13-1.75,0.28-2.09,1.21C319.94,200.47,320.23,201.31,321.09,201.82z"/>
	<path d="M329.01,194.48l-0.75,2.05l-7.33-2.67l0.75-2.05l1.11,0.41c-0.72-0.83-0.91-1.71-0.57-2.62c0.11-0.29,0.27-0.57,0.51-0.83
		l1.8,0.98c-0.29,0.24-0.49,0.54-0.6,0.88c-0.43,1.17,0.09,2.03,1.56,2.56L329.01,194.48z"/>
	<path d="M318.58,183.72l6.29,2.29c-0.54-0.97-0.63-1.95-0.27-2.92s1.03-1.67,2.02-2.08s2.04-0.42,3.16-0.01
		c1.11,0.41,1.92,1.08,2.41,2.04c0.49,0.96,0.56,1.93,0.2,2.93c-0.36,1-1.06,1.67-2.08,2.02l0.95,0.35l-0.75,2.05l-12.67-4.61
		L318.58,183.72z M326.2,184.41c-0.21,0.57-0.18,1.12,0.07,1.67c0.25,0.55,0.66,0.92,1.23,1.13c0.57,0.21,1.13,0.19,1.67-0.07
		c0.55-0.26,0.92-0.66,1.13-1.23c0.2-0.56,0.18-1.12-0.07-1.67c-0.25-0.55-0.65-0.93-1.22-1.14c-0.57-0.21-1.12-0.18-1.67,0.07
		C326.78,183.44,326.41,183.84,326.2,184.41z"/>
	<path d="M327.84,174.18c0.45-1.23,1.17-2.1,2.17-2.6c1-0.51,2.08-0.55,3.24-0.13s1.96,1.15,2.39,2.19
		c0.43,1.05,0.43,2.19-0.02,3.43c-0.45,1.25-1.19,2.11-2.2,2.61c-1.01,0.5-2.09,0.54-3.23,0.12c-1.15-0.42-1.94-1.15-2.37-2.2
		S327.39,175.41,327.84,174.18z M329.67,174.88c-0.21,0.57-0.19,1.13,0.06,1.68s0.66,0.93,1.23,1.14c0.57,0.21,1.13,0.19,1.67-0.07
		c0.55-0.26,0.93-0.67,1.13-1.24s0.19-1.14-0.07-1.69c-0.25-0.55-0.66-0.92-1.23-1.13c-0.57-0.21-1.12-0.18-1.67,0.07
		C330.26,173.89,329.88,174.3,329.67,174.88z"/>
	<path d="M330.9,166.48l4.15,1.51c1.12,0.41,1.86,0.11,2.22-0.88c0.36-1-0.02-1.7-1.13-2.11l-4.15-1.51l0.75-2.05l4.49,1.63
		c1.98,0.72,2.62,2.38,1.79,4.66c-0.83,2.28-2.39,3.15-4.37,2.43l-4.49-1.63L330.9,166.48z"/>
	<path d="M341.52,160.11l-0.75,2.05l-7.33-2.67l0.75-2.05l1.12,0.41c-0.72-0.83-0.91-1.71-0.57-2.62c0.1-0.29,0.27-0.57,0.51-0.83
		l1.8,0.98c-0.28,0.24-0.48,0.54-0.6,0.88c-0.43,1.17,0.09,2.03,1.56,2.56L341.52,160.11z"/>
	<path d="M335.69,153.34l0.75-2.05l0.92,0.33c-0.61-0.93-0.67-1.72-0.31-2.71c0.33-0.9,0.88-1.5,1.65-1.81
		c0.58-0.23,1.33-0.17,2.24,0.16l4.65,1.69l-0.75,2.05l-4.06-1.48c-0.56-0.2-0.98-0.28-1.26-0.22c-0.47,0.07-0.8,0.4-1.01,0.99
		c-0.38,1.03,0.11,1.8,1.47,2.29l3.79,1.38l-0.75,2.05L335.69,153.34z"/>
	<path d="M345.59,138.58l-2,5.49c1.33,0.42,2.2,0.06,2.61-1.08c0.26-0.71,0.14-1.41-0.35-2.1l0.99-1.78
		c1.29,1.19,1.62,2.65,0.98,4.42c-0.44,1.2-1.14,2.02-2.11,2.48c-0.97,0.46-2.04,0.47-3.22,0.04c-1.18-0.43-2-1.12-2.45-2.08
		c-0.46-0.96-0.47-2.01-0.05-3.18c0.42-1.16,1.11-1.95,2.06-2.37c0.95-0.41,2.03-0.39,3.26,0.06L345.59,138.58z M342.31,143.53
		l1.26-3.47c-1.05-0.13-1.75,0.28-2.09,1.21C341.15,142.17,341.45,143.02,342.31,143.53z"/>
</g>
<circle fill="#FFFFFF" stroke="#000000" stroke-width="6" stroke-miterlimit="10" cx="365" cy="244" r="10"/>
<g>
	<path d="M374.37,220.96l-0.8,2.2l-11.28-4.11l0.8-2.2l4.77,1.74l-3.26-5.88l1.01-2.78l3.47,6.67l7.9-2.81l-1.05,2.89l-6.53,2.16
		l0.17,0.37L374.37,220.96z"/>
	<path d="M366.12,207.38c0.12-0.34,0.34-0.59,0.67-0.74s0.66-0.16,1-0.04c0.34,0.12,0.59,0.36,0.74,0.68
		c0.16,0.33,0.18,0.67,0.05,1.01c-0.12,0.34-0.35,0.58-0.68,0.74s-0.67,0.17-1.01,0.04c-0.34-0.12-0.59-0.35-0.74-0.69
		C366,208.05,366,207.71,366.12,207.38z M370.81,207.95l7.33,2.67l-0.74,2.04l-7.33-2.67L370.81,207.95z"/>
	<path d="M375.75,201.34c-0.62,0.38-1.03,0.87-1.24,1.46c-0.21,0.59-0.2,1.14,0.04,1.69c0.24,0.55,0.66,0.92,1.25,1.14
		c0.59,0.22,1.15,0.2,1.69-0.07c0.54-0.26,0.91-0.69,1.13-1.28c0.22-0.59,0.22-1.22,0-1.89l1.99,0.72c0.09,0.71,0.01,1.39-0.22,2.04
		c-0.42,1.14-1.13,1.95-2.16,2.45c-1.01,0.5-2.08,0.54-3.18,0.14c-1.1-0.4-1.89-1.13-2.37-2.17c-0.47-1.04-0.5-2.14-0.09-3.28
		c0.24-0.67,0.62-1.23,1.11-1.7L375.75,201.34z"/>
	<path d="M368.8,196.86l0.75-2.05l6.29,2.29c-0.56-0.89-0.68-1.79-0.35-2.72c0.34-0.92,0.89-1.53,1.67-1.81
		c0.6-0.22,1.36-0.16,2.28,0.17l4.6,1.67l-0.75,2.05l-4.01-1.46c-0.59-0.21-1.02-0.29-1.3-0.24c-0.48,0.08-0.82,0.41-1.03,0.98
		c-0.38,1.03,0.12,1.8,1.5,2.3l3.76,1.37l-0.75,2.05L368.8,196.86z"/>
	<path d="M373.46,187.21c0.12-0.34,0.34-0.58,0.67-0.74c0.33-0.15,0.66-0.16,1-0.04c0.34,0.12,0.59,0.36,0.74,0.68
		c0.16,0.33,0.18,0.67,0.05,1.01c-0.12,0.34-0.35,0.58-0.68,0.74s-0.67,0.17-1.01,0.04c-0.34-0.12-0.59-0.36-0.74-0.69
		C373.34,187.89,373.34,187.55,373.46,187.21z M378.15,187.78l7.33,2.67l-0.74,2.04l-7.33-2.67L378.15,187.78z"/>
	<path d="M388.8,175.38l1.91,0.69l-3.22,8.85l-7.37-8.93l-1.7,4.66l-1.91-0.7l3.02-8.29l7.37,8.91L388.8,175.38z"/>
	<path d="M379.94,171.77l-0.41-1.83l3.3-1.1l0.32,1.23L379.94,171.77z M384.73,169.71l7.33,2.67l-0.75,2.05l-7.33-2.67
		L384.73,169.71z"/>
	<path d="M380.83,163.8l6.29,2.29c-0.54-0.97-0.63-1.95-0.27-2.92s1.03-1.67,2.02-2.08c0.99-0.42,2.04-0.42,3.16-0.01
		c1.11,0.41,1.92,1.08,2.41,2.04c0.49,0.96,0.56,1.93,0.2,2.93c-0.36,1-1.06,1.67-2.08,2.02l0.95,0.35l-0.75,2.05l-12.67-4.61
		L380.83,163.8z M388.45,164.49c-0.21,0.57-0.18,1.12,0.07,1.67c0.25,0.55,0.66,0.92,1.23,1.13c0.57,0.21,1.13,0.19,1.67-0.07
		c0.55-0.26,0.92-0.67,1.13-1.23c0.2-0.56,0.18-1.12-0.07-1.67c-0.25-0.55-0.65-0.93-1.22-1.14c-0.57-0.21-1.12-0.18-1.67,0.07
		C389.03,163.52,388.66,163.92,388.45,164.49z"/>
	<path d="M384.88,158.19l-0.41-1.83l3.3-1.1l0.32,1.23L384.88,158.19z M389.67,156.13l7.33,2.67l-0.75,2.05l-7.33-2.67
		L389.67,156.13z"/>
</g>
<circle fill="#FFFFFF" stroke="#000000" stroke-width="6" stroke-miterlimit="10" cx="420" cy="244" r="10"/>
<g>
	<path d="M417.67,218.02l8.6,0.26l-6.78-5.59l0.44-1.2l8.73,0.21l-6.7-5.5l0.84-2.32l9.96,8.43l-0.56,1.54l-8.29-0.18l6.42,5.32
		l-0.56,1.54l-12.96-0.2L417.67,218.02z"/>
	<path d="M433.51,199.24l-2,5.49c1.33,0.42,2.2,0.06,2.61-1.08c0.26-0.71,0.14-1.41-0.35-2.1l0.99-1.78
		c1.29,1.19,1.62,2.66,0.98,4.42c-0.44,1.2-1.14,2.02-2.11,2.48c-0.97,0.46-2.04,0.47-3.22,0.04c-1.18-0.43-2-1.12-2.45-2.08
		c-0.46-0.96-0.47-2.01-0.05-3.18c0.42-1.17,1.11-1.95,2.06-2.37c0.95-0.41,2.03-0.39,3.26,0.06L433.51,199.24z M430.23,204.19
		l1.26-3.47c-1.05-0.13-1.75,0.28-2.09,1.21C429.08,202.84,429.37,203.68,430.23,204.19z"/>
	<path d="M433.2,192.96c-0.48,0.31-0.78,0.62-0.89,0.92c-0.11,0.3-0.13,0.55-0.08,0.75c0.07,0.2,0.19,0.33,0.36,0.39
		c0.17,0.06,0.34,0.04,0.5-0.08c0.16-0.12,0.45-0.43,0.85-0.93c0.41-0.5,0.76-0.85,1.07-1.05c0.57-0.4,1.22-0.47,1.95-0.21
		c0.74,0.27,1.25,0.78,1.53,1.53c0.29,0.76,0.26,1.59-0.06,2.49c-0.4,1.11-1.14,1.88-2.23,2.33l-0.86-1.53
		c0.78-0.36,1.28-0.83,1.49-1.42c0.19-0.52-0.02-1.06-0.46-1.22c-0.22-0.08-0.41-0.08-0.58,0.02c-0.16,0.1-0.46,0.4-0.89,0.92
		c-0.43,0.52-0.77,0.86-1.03,1.02c-0.52,0.36-1.11,0.42-1.79,0.17c-0.69-0.25-1.15-0.7-1.41-1.35c-0.26-0.65-0.23-1.38,0.07-2.21
		s0.84-1.49,1.62-2L433.2,192.96z"/>
	<path d="M435.11,187.92l5.55,2.02l-0.75,2.05l-5.55-2.02l-0.29,0.81l-1.78-0.65l0.29-0.81l-2.5-0.91l0.75-2.05l2.5,0.91l0.53-1.45
		l1.78,0.65L435.11,187.92z"/>
	<path d="M429.65,180.79l6.29,2.29c-0.54-0.97-0.63-1.95-0.27-2.92c0.35-0.97,1.03-1.67,2.02-2.08c0.99-0.41,2.04-0.42,3.16-0.01
		c1.11,0.41,1.92,1.08,2.41,2.04s0.56,1.93,0.2,2.93c-0.36,1-1.06,1.67-2.08,2.02l0.95,0.35l-0.75,2.05l-12.67-4.61L429.65,180.79z
		 M437.27,181.48c-0.21,0.57-0.18,1.12,0.07,1.67c0.25,0.55,0.67,0.92,1.23,1.13c0.57,0.21,1.13,0.19,1.67-0.07
		c0.55-0.26,0.92-0.66,1.13-1.23c0.2-0.56,0.18-1.12-0.07-1.67c-0.25-0.55-0.65-0.93-1.22-1.14c-0.57-0.21-1.12-0.18-1.67,0.07
		C437.85,180.51,437.48,180.91,437.27,181.48z"/>
	<path d="M438.91,171.25c0.45-1.23,1.17-2.1,2.17-2.6c1-0.51,2.08-0.55,3.24-0.13s1.96,1.15,2.39,2.19
		c0.43,1.05,0.43,2.19-0.02,3.43c-0.45,1.25-1.19,2.11-2.2,2.61c-1.01,0.5-2.09,0.54-3.23,0.12c-1.15-0.42-1.94-1.15-2.37-2.2
		C438.45,173.62,438.46,172.48,438.91,171.25z M440.74,171.94c-0.21,0.57-0.19,1.13,0.06,1.68s0.66,0.93,1.23,1.14
		c0.57,0.21,1.13,0.19,1.67-0.07c0.55-0.26,0.93-0.67,1.14-1.24c0.21-0.57,0.19-1.14-0.07-1.69c-0.25-0.55-0.66-0.92-1.23-1.13
		c-0.57-0.21-1.12-0.18-1.67,0.07C441.32,170.96,440.95,171.37,440.74,171.94z"/>
	<path d="M449.3,166.22l-0.75,2.05l-7.33-2.67l0.75-2.05l1.12,0.41c-0.72-0.83-0.91-1.71-0.57-2.62c0.1-0.29,0.27-0.57,0.51-0.83
		l1.8,0.98c-0.28,0.24-0.48,0.54-0.6,0.88c-0.43,1.17,0.09,2.03,1.56,2.56L449.3,166.22z"/>
	<path d="M444.57,155.69c0.45-1.23,1.18-2.1,2.17-2.6c1-0.51,2.08-0.55,3.24-0.13s1.96,1.15,2.39,2.19
		c0.43,1.05,0.43,2.19-0.02,3.43c-0.45,1.25-1.19,2.11-2.2,2.61c-1.01,0.5-2.09,0.54-3.23,0.12c-1.15-0.42-1.94-1.15-2.37-2.2
		C444.11,158.06,444.12,156.92,444.57,155.69z M446.4,156.38c-0.21,0.57-0.19,1.13,0.06,1.68c0.25,0.55,0.66,0.93,1.23,1.14
		c0.57,0.21,1.13,0.19,1.67-0.07c0.55-0.26,0.93-0.67,1.13-1.24c0.21-0.57,0.19-1.14-0.07-1.69c-0.25-0.55-0.66-0.92-1.23-1.13
		c-0.57-0.21-1.12-0.18-1.67,0.07C446.99,155.4,446.61,155.81,446.4,156.38z"/>
</g>
<circle fill="#FFFFFF" stroke="#000000" stroke-width="6" stroke-miterlimit="10" cx="475" cy="244" r="10"/>
<g>
	<path d="M484.86,219.62l-0.8,2.21l-9.37-3.41l-0.92,2.52l-1.91-0.69l2.64-7.26l1.91,0.69l-0.92,2.54L484.86,219.62z"/>
	<path d="M479.39,211.85l4.15,1.51c1.11,0.41,1.86,0.12,2.22-0.88c0.36-1-0.02-1.7-1.13-2.1l-4.15-1.51l0.75-2.05l4.49,1.63
		c1.98,0.72,2.62,2.38,1.79,4.66c-0.83,2.28-2.39,3.15-4.37,2.43l-4.48-1.63L479.39,211.85z"/>
	<path d="M481.94,204.86l0.75-2.05l0.92,0.33c-0.61-0.93-0.67-1.72-0.31-2.71c0.33-0.9,0.88-1.5,1.65-1.81
		c0.58-0.23,1.33-0.17,2.24,0.16l4.65,1.69l-0.75,2.05l-4.06-1.48c-0.56-0.2-0.98-0.28-1.26-0.22c-0.47,0.07-0.8,0.4-1.01,0.99
		c-0.38,1.03,0.11,1.8,1.47,2.29l3.79,1.38l-0.75,2.05L481.94,204.86z"/>
	<path d="M485.22,195.84l0.75-2.05l0.92,0.33c-0.61-0.93-0.67-1.72-0.31-2.71c0.33-0.9,0.88-1.5,1.65-1.81
		c0.58-0.23,1.33-0.17,2.24,0.16l4.65,1.69l-0.75,2.05l-4.06-1.48c-0.56-0.21-0.98-0.28-1.26-0.22c-0.47,0.07-0.8,0.4-1.01,0.99
		c-0.38,1.03,0.11,1.8,1.47,2.29l3.79,1.38l-0.75,2.05L485.22,195.84z"/>
	<path d="M495.12,181.09l-2,5.49c1.33,0.42,2.2,0.06,2.61-1.08c0.26-0.71,0.14-1.41-0.35-2.1l0.99-1.78
		c1.29,1.19,1.62,2.65,0.98,4.42c-0.44,1.2-1.14,2.02-2.11,2.48s-2.04,0.47-3.22,0.04c-1.18-0.43-2-1.12-2.45-2.08
		c-0.45-0.96-0.47-2.01-0.05-3.18c0.42-1.17,1.11-1.95,2.06-2.37s2.03-0.39,3.26,0.06L495.12,181.09z M491.84,186.04l1.26-3.47
		c-1.05-0.13-1.75,0.28-2.09,1.21C490.68,184.68,490.97,185.53,491.84,186.04z"/>
	<path d="M498.66,178.23l-7.47,1.21l0.87-2.39l4.96-0.68l-3.41-3.6l0.86-2.35l9.08,10.01l-0.84,2.32L498.66,178.23z"/>
	<path d="M491.29,166.17l0.91-1.8l3.63,4.02l-0.65,1.24L491.29,166.17z"/>
	<path d="M499.81,161.08c-0.48,0.31-0.78,0.62-0.89,0.92s-0.13,0.55-0.08,0.75c0.07,0.2,0.19,0.33,0.36,0.39
		c0.17,0.06,0.34,0.04,0.5-0.08c0.16-0.12,0.45-0.43,0.85-0.92c0.41-0.5,0.76-0.85,1.07-1.05c0.57-0.4,1.22-0.47,1.95-0.21
		c0.74,0.27,1.25,0.78,1.53,1.53c0.29,0.76,0.26,1.59-0.06,2.49c-0.4,1.11-1.14,1.88-2.23,2.33l-0.86-1.53
		c0.78-0.36,1.28-0.84,1.49-1.42c0.19-0.52-0.02-1.07-0.46-1.22c-0.22-0.08-0.41-0.08-0.58,0.02c-0.16,0.1-0.46,0.41-0.89,0.92
		c-0.43,0.52-0.77,0.86-1.03,1.02c-0.52,0.36-1.11,0.42-1.79,0.17s-1.15-0.7-1.41-1.35c-0.26-0.65-0.23-1.39,0.07-2.21
		c0.3-0.83,0.84-1.49,1.62-2L499.81,161.08z"/>
	<path d="M504.73,152.01l4.18,1.52l-0.8,2.2l-11.28-4.11l1.2-3.29c0.27-0.74,0.55-1.3,0.83-1.7c0.29-0.4,0.67-0.72,1.11-0.97
		c0.97-0.52,2-0.57,3.06-0.19s1.82,1.02,2.26,1.88c0.44,0.86,0.42,1.94-0.05,3.24L504.73,152.01z M502.83,151.32l0.33-0.89
		c0.5-1.38,0.21-2.26-0.88-2.66c-1.15-0.42-1.89,0.05-2.46,1.59l-0.28,0.76L502.83,151.32z"/>
	<path d="M505.89,139.05l0.75-2.05l7.33,2.67l-0.75,2.05l-0.95-0.35c0.55,0.92,0.66,1.88,0.29,2.87c-0.36,1-1.04,1.71-2.04,2.12
		s-2.04,0.42-3.14,0.03c-1.1-0.4-1.91-1.09-2.41-2.05c-0.5-0.96-0.57-1.93-0.22-2.9s1.05-1.66,2.08-2.05L505.89,139.05z
		 M506.84,141.46c-0.21,0.58-0.19,1.14,0.06,1.68c0.25,0.55,0.66,0.92,1.23,1.13c0.57,0.21,1.13,0.19,1.67-0.07
		c0.55-0.26,0.92-0.66,1.13-1.23c0.2-0.56,0.18-1.12-0.07-1.67c-0.25-0.55-0.66-0.92-1.23-1.13c-0.57-0.21-1.12-0.18-1.67,0.06
		C507.42,140.47,507.04,140.89,506.84,141.46z"/>
	<path d="M510.5,131.69c-0.48,0.31-0.78,0.62-0.89,0.92c-0.11,0.31-0.13,0.55-0.08,0.75c0.07,0.2,0.19,0.33,0.36,0.39
		c0.17,0.06,0.34,0.04,0.51-0.08c0.16-0.12,0.45-0.43,0.85-0.92c0.41-0.5,0.76-0.85,1.07-1.05c0.57-0.4,1.22-0.47,1.96-0.21
		c0.73,0.27,1.25,0.78,1.53,1.53c0.29,0.76,0.26,1.59-0.07,2.49c-0.4,1.11-1.14,1.88-2.23,2.33l-0.86-1.53
		c0.78-0.36,1.28-0.83,1.49-1.42c0.19-0.52-0.02-1.07-0.46-1.22c-0.22-0.08-0.41-0.08-0.58,0.02c-0.16,0.1-0.46,0.4-0.89,0.92
		s-0.77,0.86-1.03,1.02c-0.52,0.36-1.11,0.42-1.79,0.17s-1.15-0.7-1.41-1.35c-0.26-0.65-0.23-1.39,0.07-2.21
		c0.3-0.83,0.84-1.49,1.62-2L510.5,131.69z"/>
	<path d="M512.42,126.64l5.55,2.02l-0.75,2.05l-5.55-2.02l-0.29,0.81l-1.78-0.65l0.29-0.81l-2.5-0.91l0.75-2.05l2.5,0.91l0.53-1.45
		l1.78,0.65L512.42,126.64z"/>
	<path d="M512.32,121.39l4.15,1.51c1.12,0.41,1.86,0.11,2.22-0.88c0.36-1-0.02-1.7-1.13-2.1l-4.15-1.51l0.75-2.05l4.49,1.63
		c1.98,0.72,2.62,2.38,1.79,4.66c-0.83,2.28-2.39,3.15-4.37,2.43l-4.49-1.63L512.32,121.39z"/>
	<path d="M522.93,115.01l-0.75,2.05l-7.33-2.67l0.75-2.05l1.11,0.41c-0.72-0.83-0.91-1.71-0.57-2.62c0.11-0.29,0.27-0.57,0.51-0.83
		l1.8,0.98c-0.28,0.24-0.49,0.53-0.6,0.88c-0.43,1.17,0.09,2.03,1.56,2.56L522.93,115.01z"/>
	<path d="M523.68,102.61l-2,5.49c1.33,0.42,2.2,0.06,2.61-1.08c0.26-0.71,0.14-1.41-0.35-2.1l0.99-1.78
		c1.29,1.19,1.62,2.65,0.98,4.42c-0.44,1.2-1.14,2.02-2.11,2.48s-2.04,0.47-3.22,0.04c-1.18-0.43-2-1.12-2.45-2.08
		c-0.45-0.96-0.47-2.01-0.05-3.18c0.42-1.16,1.11-1.95,2.06-2.37c0.95-0.41,2.03-0.39,3.26,0.06L523.68,102.61z M520.4,107.56
		l1.26-3.47c-1.05-0.13-1.75,0.28-2.09,1.21C519.25,106.21,519.54,107.05,520.4,107.56z"/>
</g>
<circle fill="#FFFFFF" stroke="#000000" stroke-width="6" stroke-miterlimit="10" cx="530" cy="244" r="10"/>
<g>
	<path d="M538.57,223.16l-11.28-4.11l1.02-2.79c0.46-1.27,1.02-2.11,1.68-2.5c0.77-0.48,1.67-0.54,2.67-0.18
		c0.62,0.23,1.11,0.56,1.46,1.01c0.16,0.23,0.28,0.59,0.38,1.06c0.4-0.62,0.81-1.02,1.25-1.21c0.73-0.34,1.56-0.35,2.47-0.02
		c0.92,0.33,1.55,0.94,1.9,1.8c0.35,0.87,0.3,1.91-0.15,3.14L538.57,223.16z M532.79,218.56l0.23-0.63
		c0.42-1.14,0.13-1.89-0.84-2.24s-1.67,0.03-2.07,1.14l-0.24,0.66L532.79,218.56z M537.6,220.31l0.35-0.95
		c0.53-1.46,0.28-2.39-0.75-2.76c-0.57-0.21-1.07-0.14-1.5,0.2c-0.33,0.24-0.64,0.76-0.93,1.54l-0.3,0.83L537.6,220.31z"/>
	<path d="M536.68,205.56l0.75-2.05l7.33,2.67l-0.75,2.05l-0.95-0.35c0.55,0.92,0.65,1.88,0.29,2.87c-0.36,1-1.04,1.71-2.04,2.12
		c-0.99,0.42-2.04,0.42-3.14,0.03c-1.1-0.4-1.91-1.09-2.41-2.05s-0.57-1.93-0.22-2.9c0.36-0.97,1.05-1.66,2.08-2.05L536.68,205.56z
		 M537.63,207.97c-0.21,0.58-0.19,1.14,0.06,1.68c0.25,0.55,0.66,0.92,1.23,1.13c0.57,0.21,1.13,0.19,1.67-0.07
		c0.55-0.26,0.92-0.66,1.13-1.23c0.2-0.56,0.18-1.12-0.07-1.67c-0.25-0.55-0.66-0.92-1.23-1.13c-0.57-0.21-1.12-0.18-1.67,0.06
		C538.21,206.98,537.84,207.4,537.63,207.97z"/>
	<path d="M545.27,201.29l-7.47,1.21l0.87-2.39l4.96-0.68l-3.4-3.6l0.86-2.35l9.08,10.01l-0.84,2.32L545.27,201.29z"/>
	<path d="M541.92,191.15l4.85-0.42l-3.45-3.42l0.84-2.3l6.1,6.49l-0.34,0.93l-8.84,1.02L541.92,191.15z"/>
	<path d="M540.6,181.34c0.12-0.34,0.34-0.59,0.67-0.74c0.33-0.15,0.66-0.16,1-0.04s0.59,0.36,0.74,0.68
		c0.16,0.33,0.18,0.67,0.05,1.01c-0.12,0.34-0.35,0.58-0.68,0.73c-0.33,0.15-0.67,0.17-1.01,0.04s-0.59-0.36-0.74-0.69
		C540.48,182.01,540.47,181.67,540.6,181.34z M545.29,181.91l7.33,2.67l-0.74,2.04l-7.33-2.67L545.29,181.91z"/>
	<path d="M552.61,174.23l-2,5.49c1.33,0.42,2.2,0.06,2.61-1.08c0.26-0.71,0.14-1.41-0.35-2.1l0.99-1.78
		c1.29,1.19,1.62,2.66,0.98,4.42c-0.44,1.2-1.14,2.02-2.11,2.48c-0.97,0.46-2.04,0.47-3.22,0.04c-1.18-0.43-2-1.12-2.45-2.08
		c-0.45-0.96-0.47-2.01-0.05-3.18c0.42-1.16,1.11-1.95,2.06-2.37c0.95-0.41,2.03-0.39,3.26,0.06L552.61,174.23z M549.33,179.18
		l1.26-3.47c-1.05-0.13-1.75,0.28-2.09,1.21C548.18,177.83,548.47,178.67,549.33,179.18z"/>
	<path d="M549.54,170.22l4.93-0.38l-3.7-3.61l0.32-0.88l5.22-0.36l-3.58-3.52l0.83-2.29l6.09,6.51l-0.34,0.92l-5.17,0.37l3.73,3.57
		l-0.34,0.94l-8.84,1.04L549.54,170.22z"/>
</g>
<circle fill="#FFFFFF" stroke="#000000" stroke-width="6" stroke-miterlimit="10" cx="585" cy="244" r="10"/>
<g>
	<path d="M590.19,219.44l4.18,1.52l-0.8,2.2l-11.28-4.11l1.2-3.3c0.27-0.73,0.55-1.3,0.83-1.7c0.29-0.4,0.66-0.72,1.11-0.97
		c0.97-0.52,2-0.57,3.06-0.19s1.82,1.02,2.26,1.88c0.44,0.86,0.42,1.94-0.05,3.24L590.19,219.44z M588.29,218.74l0.32-0.89
		c0.5-1.38,0.21-2.26-0.88-2.66c-1.15-0.42-1.89,0.05-2.46,1.59l-0.28,0.76L588.29,218.74z"/>
	<path d="M585.46,209.19c0.12-0.34,0.34-0.59,0.67-0.74s0.66-0.16,1-0.04c0.34,0.12,0.59,0.36,0.74,0.68
		c0.16,0.33,0.18,0.67,0.05,1.01s-0.35,0.58-0.68,0.74s-0.67,0.17-1.01,0.04c-0.34-0.12-0.59-0.36-0.74-0.69
		C585.35,209.86,585.34,209.52,585.46,209.19z M590.15,209.76l7.33,2.67l-0.74,2.04l-7.33-2.67L590.15,209.76z"/>
	<path d="M596.87,202.4l3.76,1.37l-0.75,2.05L596,204.4c-0.57-0.21-0.99-0.31-1.25-0.3c-0.26,0.01-0.49,0.09-0.7,0.25
		s-0.35,0.36-0.44,0.59c-0.17,0.46-0.07,1.04,0.3,1.47c0.18,0.22,0.61,0.44,1.26,0.67l3.76,1.37l-0.75,2.05l-7.33-2.67l0.75-2.05
		l0.85,0.31c-0.49-0.9-0.57-1.81-0.23-2.73c0.34-0.92,1.05-1.49,2.12-1.69c-0.68-0.9-0.84-1.84-0.49-2.82
		c0.36-0.98,0.97-1.56,1.83-1.73c0.52-0.1,1.15-0.02,1.92,0.26l4.73,1.72l-0.75,2.05l-4-1.46c-0.53-0.19-0.94-0.28-1.23-0.26
		c-0.5,0.03-0.84,0.3-1.02,0.8C594.98,201.17,595.49,201.89,596.87,202.4z"/>
	<path d="M591.76,191.89c0.12-0.34,0.34-0.59,0.67-0.74c0.33-0.15,0.66-0.16,1-0.04s0.59,0.36,0.74,0.68
		c0.16,0.33,0.18,0.67,0.05,1.01c-0.12,0.34-0.35,0.58-0.68,0.73c-0.33,0.15-0.67,0.17-1.01,0.04s-0.59-0.36-0.74-0.69
		C591.64,192.57,591.63,192.23,591.76,191.89z M596.45,192.47l7.33,2.67l-0.74,2.04l-7.33-2.67L596.45,192.47z"/>
	<path d="M600.32,187.15c-0.48,0.31-0.78,0.61-0.89,0.92c-0.11,0.3-0.13,0.55-0.08,0.75c0.07,0.2,0.19,0.33,0.36,0.39
		c0.17,0.06,0.34,0.04,0.51-0.08c0.16-0.12,0.45-0.43,0.85-0.93s0.76-0.85,1.07-1.05c0.57-0.4,1.22-0.47,1.96-0.21
		c0.73,0.27,1.25,0.78,1.53,1.53c0.29,0.76,0.26,1.59-0.07,2.49c-0.4,1.11-1.14,1.88-2.23,2.33l-0.86-1.53
		c0.78-0.36,1.28-0.83,1.49-1.42c0.19-0.52-0.02-1.06-0.46-1.22c-0.22-0.08-0.41-0.08-0.58,0.02c-0.16,0.1-0.46,0.4-0.89,0.92
		s-0.77,0.86-1.03,1.02c-0.52,0.36-1.11,0.42-1.79,0.17c-0.69-0.25-1.15-0.7-1.41-1.35c-0.26-0.65-0.23-1.38,0.07-2.21
		s0.84-1.49,1.62-2L600.32,187.15z"/>
	<path d="M595.68,181.1c0.12-0.34,0.34-0.58,0.67-0.74c0.33-0.15,0.66-0.16,1-0.04s0.59,0.36,0.74,0.68
		c0.16,0.33,0.18,0.67,0.05,1.01c-0.12,0.34-0.35,0.58-0.68,0.74c-0.33,0.15-0.67,0.17-1.01,0.04s-0.59-0.36-0.74-0.69
		C595.57,181.78,595.56,181.44,595.68,181.1z M600.37,181.68l7.33,2.67l-0.74,2.04l-7.33-2.67L600.37,181.68z"/>
</g>
<circle fill="#FFFFFF" stroke="#000000" stroke-width="6" stroke-miterlimit="10" cx="640" cy="244" r="10"/>
<g>
	<path d="M638.09,216.85l9.37,3.41l1.26-3.47l1.91,0.69l-2.06,5.67l-11.28-4.11L638.09,216.85z"/>
	<path d="M650.58,214.18l-7.47,1.21l0.87-2.39l4.96-0.68l-3.41-3.6l0.86-2.35l9.08,10.01l-0.84,2.32L650.58,214.18z"/>
	<path d="M647.76,201.87c0.45-1.23,1.18-2.1,2.17-2.6c1-0.51,2.08-0.55,3.24-0.13s1.96,1.15,2.39,2.19
		c0.43,1.05,0.43,2.19-0.02,3.43c-0.46,1.25-1.19,2.11-2.21,2.61c-1.01,0.5-2.09,0.54-3.23,0.12c-1.15-0.42-1.94-1.15-2.37-2.2
		C647.3,204.25,647.31,203.1,647.76,201.87z M649.59,202.57c-0.21,0.57-0.19,1.13,0.06,1.68c0.25,0.55,0.66,0.93,1.23,1.14
		c0.57,0.21,1.13,0.19,1.67-0.07c0.55-0.26,0.93-0.67,1.13-1.24c0.21-0.57,0.19-1.14-0.07-1.69c-0.25-0.55-0.66-0.92-1.23-1.13
		c-0.57-0.21-1.12-0.18-1.67,0.07C650.18,201.58,649.8,202,649.59,202.57z"/>
	<path d="M650.08,196.22l0.75-2.05l0.92,0.33c-0.61-0.93-0.67-1.72-0.31-2.71c0.33-0.9,0.88-1.5,1.65-1.81
		c0.58-0.23,1.33-0.17,2.24,0.16l4.65,1.69l-0.75,2.05l-4.06-1.48c-0.56-0.2-0.98-0.28-1.26-0.22c-0.47,0.07-0.8,0.4-1.01,0.99
		c-0.38,1.03,0.11,1.8,1.47,2.29l3.79,1.38l-0.75,2.05L650.08,196.22z"/>
</g>
<circle fill="#FFFFFF" stroke="#000000" stroke-width="6" stroke-miterlimit="10" cx="695" cy="244" r="10"/>
<g>
	<path d="M700.19,219.44l4.18,1.52l-0.8,2.2l-11.28-4.11l1.2-3.3c0.27-0.73,0.55-1.3,0.83-1.7c0.29-0.4,0.66-0.72,1.11-0.97
		c0.97-0.52,2-0.57,3.06-0.19s1.82,1.02,2.26,1.88c0.44,0.86,0.42,1.94-0.05,3.24L700.19,219.44z M698.29,218.74l0.32-0.89
		c0.5-1.38,0.21-2.26-0.88-2.66c-1.15-0.42-1.89,0.05-2.46,1.59l-0.28,0.76L698.29,218.74z"/>
	<path d="M701.35,206.47l0.75-2.05l7.33,2.67l-0.75,2.05l-0.95-0.35c0.55,0.92,0.66,1.88,0.29,2.88c-0.36,1-1.04,1.71-2.04,2.12
		c-0.99,0.41-2.04,0.42-3.14,0.03c-1.1-0.4-1.91-1.09-2.41-2.04c-0.5-0.96-0.57-1.93-0.22-2.9s1.05-1.66,2.08-2.05L701.35,206.47z
		 M702.29,208.89c-0.21,0.58-0.19,1.14,0.06,1.68c0.25,0.55,0.66,0.92,1.23,1.13c0.57,0.21,1.13,0.19,1.67-0.07
		c0.55-0.26,0.92-0.67,1.13-1.23c0.2-0.56,0.18-1.12-0.07-1.67c-0.25-0.55-0.66-0.92-1.23-1.13s-1.12-0.18-1.67,0.06
		C702.88,207.9,702.5,208.32,702.29,208.89z"/>
	<path d="M710.88,203.09l-0.75,2.05l-7.33-2.67l0.75-2.05l1.11,0.41c-0.72-0.83-0.91-1.71-0.57-2.62c0.11-0.29,0.27-0.57,0.51-0.83
		l1.8,0.98c-0.28,0.24-0.48,0.53-0.6,0.88c-0.43,1.17,0.1,2.03,1.56,2.56L710.88,203.09z"/>
	<path d="M700.45,192.32l12.67,4.61l-0.75,2.05l-12.67-4.61L700.45,192.32z"/>
	<path d="M702.54,189.73c0.12-0.34,0.34-0.58,0.67-0.74c0.33-0.15,0.66-0.16,1-0.04c0.34,0.12,0.59,0.36,0.74,0.68
		c0.16,0.33,0.18,0.67,0.05,1.01c-0.12,0.34-0.35,0.58-0.68,0.73c-0.33,0.15-0.67,0.17-1.01,0.04c-0.34-0.12-0.59-0.35-0.74-0.69
		C702.43,190.41,702.42,190.07,702.54,189.73z M707.23,190.3l7.33,2.67l-0.74,2.04l-7.33-2.67L707.23,190.3z"/>
	<path d="M709.98,182.75l0.75-2.05l7.33,2.67l-0.75,2.05l-0.95-0.35c0.55,0.92,0.66,1.88,0.29,2.87c-0.36,1-1.04,1.71-2.04,2.12
		c-0.99,0.42-2.04,0.43-3.14,0.03c-1.1-0.4-1.91-1.09-2.41-2.04s-0.57-1.93-0.22-2.9s1.05-1.66,2.08-2.05L709.98,182.75z
		 M710.93,185.17c-0.21,0.58-0.19,1.14,0.06,1.68c0.25,0.55,0.67,0.92,1.23,1.13c0.57,0.21,1.13,0.19,1.67-0.07
		c0.55-0.26,0.92-0.66,1.13-1.23c0.2-0.56,0.18-1.12-0.07-1.67c-0.25-0.55-0.66-0.92-1.23-1.13c-0.57-0.21-1.12-0.18-1.67,0.06
		C711.51,184.18,711.14,184.6,710.93,185.17z"/>
	<path d="M717.46,173.32l3.76,1.37l-0.75,2.05l-3.89-1.42c-0.57-0.21-0.99-0.31-1.25-0.3c-0.26,0.01-0.49,0.09-0.7,0.25
		c-0.21,0.16-0.35,0.36-0.44,0.59c-0.17,0.46-0.07,1.04,0.3,1.47c0.18,0.22,0.6,0.44,1.26,0.67l3.76,1.37l-0.75,2.05l-7.33-2.67
		l0.75-2.05l0.85,0.31c-0.49-0.9-0.57-1.81-0.23-2.73c0.34-0.93,1.05-1.49,2.12-1.69c-0.68-0.9-0.85-1.84-0.49-2.82
		c0.36-0.98,0.97-1.56,1.83-1.73c0.51-0.1,1.15-0.02,1.92,0.26l4.73,1.72l-0.75,2.05l-4-1.46c-0.53-0.19-0.94-0.28-1.23-0.26
		c-0.5,0.03-0.84,0.3-1.02,0.8C715.56,172.09,716.08,172.81,717.46,173.32z"/>
	<path d="M722.92,159.65l-2,5.49c1.33,0.42,2.2,0.06,2.61-1.08c0.26-0.71,0.14-1.41-0.35-2.1l0.99-1.78
		c1.29,1.19,1.62,2.66,0.98,4.42c-0.44,1.2-1.14,2.02-2.11,2.48c-0.97,0.46-2.04,0.47-3.22,0.04c-1.18-0.43-2-1.12-2.45-2.08
		c-0.45-0.96-0.47-2.01-0.05-3.18c0.42-1.17,1.11-1.95,2.06-2.37c0.95-0.41,2.03-0.39,3.26,0.06L722.92,159.65z M719.64,164.6
		l1.26-3.47c-1.05-0.13-1.75,0.28-2.09,1.21C718.49,163.24,718.78,164.09,719.64,164.6z"/>
	<path d="M719.49,156.64l0.75-2.05l0.92,0.33c-0.61-0.93-0.67-1.72-0.31-2.71c0.33-0.9,0.88-1.51,1.65-1.81
		c0.58-0.23,1.33-0.17,2.24,0.16l4.65,1.69l-0.75,2.05l-4.06-1.48c-0.56-0.2-0.98-0.28-1.26-0.22c-0.47,0.07-0.8,0.4-1.01,0.99
		c-0.38,1.03,0.11,1.8,1.47,2.29l3.79,1.38l-0.75,2.05L719.49,156.64z"/>
	<path d="M725.29,146.21l5.55,2.02l-0.75,2.05l-5.55-2.02l-0.29,0.81l-1.78-0.65l0.29-0.81l-2.5-0.91l0.75-2.05l2.5,0.91l0.53-1.45
		l1.78,0.65L725.29,146.21z"/>
</g>
<circle fill="#FFFFFF" stroke="#000000" stroke-width="6" stroke-miterlimit="10" cx="750" cy="244" r="10"/>
<g>
	<path d="M754.84,219.31l4.54,1.65l-0.8,2.2l-11.28-4.11l1.19-3.26c0.47-1.28,1.08-2.14,1.84-2.59c0.89-0.52,1.88-0.58,2.94-0.19
		c1.07,0.39,1.78,1.03,2.12,1.92c0.22,0.55,0.27,1.16,0.15,1.81l6.04-1.82l-0.99,2.71l-5.64,1.39L754.84,219.31z M753.29,218.74
		l0.23-0.64c0.51-1.4,0.15-2.38-0.94-2.78c-1.13-0.41-1.95,0.08-2.46,1.5l-0.25,0.68L753.29,218.74z"/>
	<path d="M750.71,208.51c0.12-0.34,0.34-0.59,0.67-0.74c0.33-0.15,0.66-0.16,1-0.04c0.34,0.12,0.59,0.36,0.74,0.68
		c0.16,0.33,0.18,0.67,0.05,1.01c-0.12,0.34-0.35,0.58-0.68,0.73c-0.33,0.15-0.67,0.17-1.01,0.04c-0.34-0.12-0.59-0.36-0.74-0.69
		C750.59,209.19,750.58,208.85,750.71,208.51z M755.4,209.08l7.33,2.67l-0.74,2.04l-7.33-2.67L755.4,209.08z"/>
	<path d="M752.8,199.59l0.74-2.05l12.67,4.61l-0.75,2.05l-0.95-0.35c0.55,0.92,0.66,1.88,0.29,2.88c-0.36,1-1.04,1.71-2.04,2.12
		c-0.99,0.42-2.04,0.43-3.14,0.03c-1.1-0.4-1.91-1.09-2.41-2.04s-0.57-1.93-0.21-2.9c0.35-0.97,1.05-1.66,2.08-2.05L752.8,199.59z
		 M759.09,203.95c-0.21,0.58-0.19,1.14,0.06,1.68c0.25,0.55,0.66,0.92,1.23,1.13c0.57,0.21,1.13,0.19,1.67-0.07
		c0.55-0.26,0.92-0.66,1.13-1.23c0.2-0.56,0.18-1.12-0.07-1.67c-0.25-0.55-0.66-0.92-1.23-1.13c-0.57-0.21-1.12-0.18-1.67,0.06
		C759.68,202.96,759.3,203.38,759.09,203.95z"/>
	<path d="M766.22,191.78l-2,5.49c1.33,0.42,2.2,0.06,2.61-1.08c0.26-0.71,0.14-1.41-0.35-2.1l0.99-1.78
		c1.29,1.19,1.62,2.66,0.98,4.42c-0.44,1.2-1.14,2.02-2.11,2.48c-0.97,0.46-2.04,0.47-3.22,0.04c-1.18-0.43-2-1.12-2.45-2.08
		c-0.45-0.96-0.47-2.01-0.05-3.18c0.42-1.17,1.11-1.95,2.06-2.37s2.03-0.39,3.26,0.06L766.22,191.78z M762.94,196.73l1.26-3.47
		c-1.05-0.13-1.75,0.28-2.09,1.21C761.79,195.38,762.08,196.22,762.94,196.73z"/>
	<path d="M764.83,183.16l0.75-2.05l7.33,2.67l-0.75,2.05l-0.95-0.35c0.55,0.92,0.65,1.88,0.29,2.87c-0.36,1-1.04,1.71-2.04,2.12
		s-2.04,0.42-3.14,0.03c-1.1-0.4-1.91-1.09-2.41-2.05s-0.57-1.93-0.21-2.9s1.05-1.66,2.08-2.05L764.83,183.16z M765.78,185.57
		c-0.21,0.58-0.19,1.14,0.06,1.68c0.25,0.55,0.66,0.92,1.23,1.13c0.57,0.21,1.13,0.19,1.67-0.07c0.55-0.26,0.93-0.66,1.13-1.23
		c0.21-0.56,0.18-1.12-0.07-1.67c-0.25-0.55-0.66-0.92-1.22-1.13c-0.57-0.21-1.12-0.18-1.67,0.06
		C766.36,184.59,765.99,185,765.78,185.57z"/>
	<path d="M767.04,177.11l4.15,1.51c1.12,0.41,1.86,0.11,2.22-0.88s-0.02-1.7-1.13-2.11l-4.14-1.51l0.74-2.05l4.48,1.63
		c1.98,0.72,2.62,2.38,1.79,4.66s-2.39,3.15-4.37,2.43l-4.48-1.63L767.04,177.11z"/>
</g>
<circle fill="#FFFFFF" stroke="#000000" stroke-width="6" stroke-miterlimit="10" cx="805" cy="244" r="10"/>
<g>
	<path d="M806.88,218.76l4.14,1.51c1.12,0.41,1.86,0.11,2.22-0.88c0.37-1-0.02-1.7-1.13-2.1l-4.14-1.51l0.74-2.05l4.49,1.63
		c1.98,0.72,2.62,2.38,1.79,4.66s-2.39,3.15-4.37,2.43l-4.48-1.63L806.88,218.76z"/>
	<path d="M807.32,204.43c0.61-1.68,1.69-2.88,3.26-3.63c1.56-0.75,3.18-0.82,4.84-0.21s2.84,1.7,3.55,3.28
		c0.7,1.58,0.74,3.23,0.12,4.93s-1.71,2.91-3.27,3.64c-1.57,0.73-3.17,0.79-4.82,0.19c-1.65-0.6-2.83-1.7-3.53-3.3
		S806.71,206.11,807.32,204.43z M809.33,205.19c-0.38,1.03-0.32,2.06,0.16,3.07c0.48,1.02,1.26,1.72,2.34,2.11
		c1.07,0.39,2.12,0.35,3.15-0.11s1.73-1.2,2.11-2.24c0.38-1.04,0.32-2.07-0.17-3.08s-1.28-1.71-2.35-2.1
		c-1.07-0.39-2.12-0.36-3.14,0.1C810.41,203.4,809.71,204.16,809.33,205.19z"/>
	<path d="M816.87,196.84l5.55,2.02l-0.75,2.05l-5.55-2.02l-0.29,0.81l-1.78-0.65l0.29-0.81l-2.5-0.91l0.75-2.05l2.5,0.91l0.53-1.45
		l1.78,0.65L816.87,196.84z"/>
	<path d="M818.69,191.82l5.55,2.02l-0.75,2.05l-5.55-2.02l-0.29,0.81l-1.78-0.65l0.29-0.81l-2.5-0.91l0.75-2.05l2.5,0.91l0.53-1.45
		l1.78,0.65L818.69,191.82z"/>
	<path d="M819.88,183.04l0.74-2.05l7.33,2.67l-0.75,2.05l-0.95-0.35c0.55,0.92,0.66,1.88,0.29,2.88c-0.36,1-1.04,1.71-2.04,2.12
		c-0.99,0.42-2.04,0.43-3.14,0.03c-1.1-0.4-1.91-1.09-2.41-2.04c-0.5-0.96-0.57-1.93-0.22-2.9c0.36-0.97,1.05-1.66,2.08-2.05
		L819.88,183.04z M820.83,185.45c-0.21,0.58-0.19,1.14,0.06,1.68c0.25,0.55,0.66,0.92,1.23,1.13c0.57,0.21,1.13,0.19,1.67-0.07
		c0.55-0.26,0.92-0.66,1.13-1.23c0.2-0.56,0.18-1.12-0.07-1.67c-0.25-0.55-0.66-0.92-1.23-1.13c-0.57-0.21-1.12-0.18-1.67,0.06
		C821.41,184.46,821.03,184.88,820.83,185.45z"/>
	<path d="M821.83,177.67l4.93-0.39l-3.7-3.61l0.32-0.88l5.22-0.36l-3.58-3.52l0.83-2.29l6.1,6.51l-0.34,0.93l-5.16,0.36l3.73,3.57
		l-0.34,0.94l-8.84,1.04L821.83,177.67z"/>
	<path d="M828.12,160.39l0.75-2.05l7.32,2.67l-0.74,2.05l-0.95-0.35c0.55,0.92,0.66,1.88,0.29,2.88c-0.37,1-1.04,1.71-2.04,2.12
		c-0.99,0.42-2.04,0.43-3.14,0.03c-1.1-0.4-1.91-1.09-2.41-2.04s-0.57-1.93-0.21-2.9c0.35-0.97,1.05-1.66,2.08-2.05L828.12,160.39z
		 M829.07,162.8c-0.21,0.58-0.19,1.14,0.06,1.68c0.25,0.55,0.66,0.92,1.23,1.13c0.57,0.21,1.13,0.19,1.67-0.07
		c0.55-0.26,0.92-0.66,1.13-1.23s0.18-1.12-0.07-1.67c-0.25-0.55-0.66-0.92-1.23-1.13c-0.57-0.21-1.12-0.18-1.67,0.06
		C829.65,161.81,829.28,162.23,829.07,162.8z"/>
</g>
<circle fill="#FFFFFF" stroke="#000000" stroke-width="6" stroke-miterlimit="10" cx="860" cy="244" r="10"/>
<g>
	<path d="M858.09,216.85l9.37,3.41l1.26-3.47l1.91,0.69l-2.06,5.67l-11.28-4.11L858.09,216.85z"/>
	<path d="M870.4,207.78l-2,5.49c1.33,0.42,2.2,0.06,2.61-1.08c0.26-0.71,0.14-1.41-0.35-2.1l0.99-1.78
		c1.29,1.19,1.62,2.65,0.98,4.42c-0.44,1.2-1.14,2.02-2.11,2.48c-0.97,0.46-2.04,0.47-3.22,0.04c-1.18-0.43-2-1.12-2.45-2.08
		c-0.45-0.96-0.47-2.01-0.05-3.18c0.42-1.17,1.11-1.95,2.06-2.37c0.95-0.41,2.03-0.39,3.26,0.06L870.4,207.78z M867.12,212.73
		l1.26-3.47c-1.05-0.13-1.75,0.28-2.09,1.21C865.97,211.38,866.26,212.22,867.12,212.73z"/>
	<path d="M873.59,199.03l-2,5.49c1.33,0.42,2.2,0.06,2.61-1.08c0.26-0.71,0.14-1.41-0.35-2.1l0.99-1.78
		c1.29,1.19,1.62,2.65,0.98,4.42c-0.44,1.2-1.14,2.02-2.11,2.48s-2.04,0.47-3.22,0.04c-1.18-0.43-2-1.12-2.45-2.08
		c-0.46-0.96-0.47-2.01-0.05-3.18c0.42-1.17,1.11-1.95,2.06-2.37c0.95-0.41,2.03-0.39,3.26,0.06L873.59,199.03z M870.31,203.98
		l1.26-3.47c-1.05-0.13-1.75,0.28-2.09,1.21C869.15,202.62,869.45,203.47,870.31,203.98z"/>
	<path d="M873.28,192.75c-0.48,0.31-0.78,0.61-0.89,0.92c-0.11,0.3-0.13,0.55-0.08,0.75c0.07,0.2,0.19,0.33,0.36,0.39
		c0.17,0.06,0.34,0.04,0.5-0.08c0.16-0.12,0.45-0.43,0.85-0.93c0.41-0.5,0.76-0.85,1.07-1.05c0.57-0.4,1.22-0.47,1.95-0.21
		c0.74,0.27,1.25,0.78,1.53,1.53c0.29,0.76,0.26,1.59-0.06,2.49c-0.4,1.11-1.14,1.88-2.23,2.33l-0.86-1.53
		c0.78-0.36,1.28-0.83,1.49-1.42c0.19-0.52-0.02-1.06-0.46-1.22c-0.22-0.08-0.41-0.08-0.58,0.02c-0.16,0.1-0.46,0.4-0.89,0.92
		c-0.43,0.52-0.77,0.86-1.03,1.02c-0.52,0.36-1.11,0.42-1.79,0.17c-0.69-0.25-1.15-0.7-1.41-1.35c-0.26-0.65-0.23-1.38,0.07-2.21
		s0.84-1.49,1.62-2L873.28,192.75z"/>
</g>
<circle fill="#FFFFFF" stroke="#000000" stroke-width="6" stroke-miterlimit="10" cx="915" cy="244" r="10"/>
<g>
	<path d="M917.45,218.44l1.73-4.77l-4.36-1.59l0.8-2.21l11.28,4.11l-0.8,2.21l-5-1.82l-1.73,4.77l5,1.82l-0.8,2.2l-11.28-4.11
		l0.8-2.2L917.45,218.44z"/>
	<path d="M921.15,207.01l4.15,1.51c1.12,0.41,1.86,0.12,2.22-0.88c0.36-1-0.02-1.7-1.13-2.1l-4.15-1.51l0.75-2.05l4.48,1.63
		c1.98,0.72,2.62,2.38,1.79,4.66c-0.83,2.28-2.39,3.15-4.37,2.43l-4.48-1.63L921.15,207.01z"/>
	<path d="M931.77,200.63l-0.75,2.05l-7.33-2.67l0.75-2.05l1.11,0.41c-0.72-0.83-0.91-1.71-0.57-2.62c0.1-0.29,0.27-0.57,0.51-0.83
		l1.8,0.98c-0.29,0.24-0.49,0.53-0.6,0.88c-0.43,1.17,0.1,2.03,1.56,2.56L931.77,200.63z"/>
	<path d="M922.59,186.43l0.75-2.05l12.67,4.61l-0.75,2.05l-0.95-0.35c0.55,0.92,0.66,1.88,0.29,2.88c-0.36,1-1.04,1.71-2.04,2.12
		s-2.04,0.42-3.14,0.03c-1.1-0.4-1.91-1.09-2.41-2.04c-0.5-0.96-0.57-1.93-0.22-2.9s1.05-1.66,2.08-2.05L922.59,186.43z
		 M928.88,190.79c-0.21,0.58-0.19,1.14,0.06,1.68c0.25,0.55,0.66,0.92,1.23,1.13c0.57,0.21,1.13,0.19,1.67-0.07
		c0.55-0.26,0.92-0.66,1.13-1.23c0.2-0.56,0.18-1.12-0.07-1.67c-0.25-0.55-0.66-0.92-1.23-1.13c-0.57-0.21-1.12-0.18-1.67,0.06
		C929.46,189.8,929.09,190.22,928.88,190.79z"/>
	<path d="M935.41,178.94l3.76,1.37l-0.75,2.05l-3.89-1.42c-0.57-0.21-0.99-0.31-1.25-0.3s-0.49,0.09-0.7,0.25
		c-0.21,0.16-0.35,0.36-0.44,0.59c-0.17,0.46-0.07,1.04,0.3,1.47c0.18,0.22,0.61,0.45,1.26,0.67l3.76,1.37l-0.75,2.05l-7.33-2.67
		l0.75-2.05l0.85,0.31c-0.49-0.9-0.57-1.81-0.23-2.73c0.34-0.92,1.05-1.49,2.12-1.69c-0.68-0.9-0.85-1.84-0.49-2.82
		c0.36-0.98,0.97-1.56,1.83-1.73c0.52-0.1,1.15-0.02,1.92,0.26l4.73,1.72l-0.75,2.05l-4-1.46c-0.53-0.19-0.94-0.28-1.23-0.26
		c-0.5,0.03-0.84,0.3-1.02,0.8C933.52,177.72,934.03,178.44,935.41,178.94z"/>
	<path d="M936.3,165.4l0.75-2.05l7.33,2.67l-0.75,2.05l-0.95-0.35c0.55,0.92,0.66,1.88,0.29,2.88c-0.36,1-1.04,1.71-2.04,2.12
		c-0.99,0.42-2.04,0.42-3.14,0.03c-1.1-0.4-1.91-1.09-2.41-2.04c-0.5-0.96-0.57-1.93-0.22-2.9c0.36-0.97,1.05-1.66,2.08-2.05
		L936.3,165.4z M937.24,167.81c-0.21,0.58-0.19,1.14,0.06,1.68c0.25,0.55,0.66,0.92,1.23,1.13c0.57,0.21,1.13,0.19,1.67-0.07
		c0.55-0.26,0.92-0.67,1.13-1.23c0.2-0.56,0.18-1.12-0.07-1.67c-0.25-0.55-0.66-0.92-1.23-1.13c-0.57-0.21-1.12-0.18-1.67,0.06
		C937.83,166.83,937.45,167.24,937.24,167.81z"/>
	<path d="M937.76,161.4l0.75-2.05l0.92,0.33c-0.61-0.93-0.67-1.72-0.31-2.71c0.33-0.9,0.88-1.5,1.65-1.81
		c0.58-0.23,1.33-0.17,2.24,0.16l4.65,1.69l-0.75,2.05l-4.06-1.48c-0.56-0.2-0.98-0.28-1.26-0.22c-0.47,0.07-0.8,0.4-1.01,0.99
		c-0.38,1.03,0.11,1.8,1.47,2.29l3.79,1.38l-0.75,2.05L937.76,161.4z"/>
</g>
<circle fill="#FFFFFF" stroke="#000000" stroke-width="6" stroke-miterlimit="10" cx="970" cy="244" r="10"/>
<g>
	<path d="M979.86,219.62l-0.8,2.21l-9.37-3.41l-0.92,2.52l-1.91-0.69l2.64-7.26l1.91,0.69l-0.92,2.54L979.86,219.62z"/>
	<path d="M981.74,214.44l-0.75,2.05l-7.33-2.67l0.75-2.05l1.11,0.41c-0.72-0.83-0.91-1.71-0.57-2.62c0.11-0.29,0.27-0.57,0.51-0.83
		l1.8,0.98c-0.28,0.24-0.49,0.54-0.6,0.88c-0.43,1.17,0.09,2.03,1.56,2.56L981.74,214.44z"/>
	<path d="M982.49,202.04l-2,5.49c1.33,0.42,2.2,0.06,2.61-1.08c0.26-0.71,0.14-1.41-0.35-2.1l0.99-1.78
		c1.29,1.19,1.62,2.65,0.98,4.42c-0.44,1.2-1.14,2.02-2.11,2.48s-2.04,0.47-3.22,0.04s-2-1.12-2.45-2.08
		c-0.46-0.96-0.47-2.01-0.05-3.18c0.42-1.17,1.11-1.95,2.06-2.37s2.03-0.39,3.26,0.06L982.49,202.04z M979.21,206.99l1.26-3.47
		c-1.05-0.13-1.75,0.28-2.09,1.21C978.06,205.64,978.35,206.48,979.21,206.99z"/>
	<path d="M985.08,193.6l3.76,1.37l-0.75,2.05l-3.89-1.42c-0.57-0.21-0.99-0.31-1.25-0.3s-0.49,0.09-0.7,0.25
		c-0.21,0.16-0.35,0.36-0.44,0.59c-0.17,0.46-0.07,1.04,0.3,1.47c0.18,0.22,0.6,0.44,1.26,0.67l3.76,1.37l-0.75,2.05l-7.33-2.67
		l0.75-2.05l0.85,0.31c-0.49-0.9-0.57-1.81-0.23-2.73c0.34-0.92,1.05-1.49,2.12-1.69c-0.68-0.9-0.85-1.84-0.49-2.82
		c0.36-0.98,0.97-1.56,1.83-1.73c0.51-0.1,1.15-0.02,1.92,0.26l4.73,1.72l-0.75,2.05l-4-1.46c-0.53-0.19-0.94-0.28-1.23-0.26
		c-0.5,0.03-0.84,0.3-1.02,0.8C983.18,192.38,983.7,193.1,985.08,193.6z"/>
	<path d="M979.32,181.69l6.29,2.29c-0.54-0.97-0.63-1.95-0.27-2.92c0.35-0.97,1.03-1.67,2.02-2.08c0.99-0.42,2.04-0.42,3.16-0.01
		c1.12,0.41,1.92,1.08,2.41,2.04c0.49,0.96,0.56,1.93,0.2,2.93c-0.36,1-1.06,1.67-2.08,2.02l0.95,0.35l-0.75,2.05l-12.67-4.61
		L979.32,181.69z M986.94,182.38c-0.21,0.57-0.18,1.12,0.07,1.67s0.66,0.92,1.23,1.13c0.57,0.21,1.13,0.19,1.67-0.07
		c0.55-0.26,0.92-0.66,1.13-1.23c0.21-0.56,0.18-1.12-0.07-1.67c-0.25-0.55-0.65-0.93-1.22-1.14c-0.57-0.21-1.12-0.18-1.67,0.07
		C987.52,181.41,987.15,181.81,986.94,182.38z"/>
	<path d="M982.82,172.06l12.67,4.61l-0.75,2.05l-12.67-4.61L982.82,172.06z"/>
	<path d="M990.92,166.43l0.75-2.05l7.33,2.67l-0.75,2.05l-0.95-0.35c0.55,0.92,0.66,1.88,0.29,2.87c-0.36,1-1.04,1.71-2.04,2.12
		c-0.99,0.42-2.04,0.42-3.14,0.03c-1.1-0.4-1.91-1.09-2.41-2.05s-0.57-1.93-0.21-2.9c0.35-0.97,1.05-1.66,2.08-2.05L990.92,166.43z
		 M991.87,168.85c-0.21,0.58-0.19,1.14,0.06,1.68c0.25,0.55,0.66,0.92,1.23,1.13c0.57,0.21,1.13,0.19,1.67-0.07
		c0.55-0.26,0.92-0.66,1.13-1.23c0.21-0.56,0.18-1.12-0.07-1.67c-0.25-0.55-0.66-0.92-1.23-1.13c-0.57-0.21-1.12-0.18-1.67,0.06
		C992.45,167.86,992.08,168.28,991.87,168.85z"/>
	<path d="M999.51,162.17l-7.47,1.21l0.87-2.39l4.96-0.68l-3.41-3.6l0.86-2.35l9.08,10.01l-0.84,2.32L999.51,162.17z"/>
</g>
<circle fill="#FFFFFF" stroke="#000000" stroke-width="6" stroke-miterlimit="10" cx="1025" cy="244" r="10"/>
<g>
	<path d="M1025.93,218c0.32,0.12,0.63,0.1,0.91-0.07c0.29-0.17,0.75-0.62,1.4-1.39c0.65-0.76,1.22-1.28,1.72-1.55
		c0.81-0.47,1.73-0.5,2.8-0.11s1.81,1.07,2.23,2.04c0.42,0.97,0.43,2.04,0,3.22c-0.58,1.59-1.77,2.62-3.56,3.09l-0.85-1.92
		c1.19-0.16,1.98-0.77,2.36-1.81c0.18-0.5,0.19-0.98,0.01-1.42c-0.18-0.43-0.5-0.73-0.97-0.91c-0.47-0.17-0.92-0.11-1.35,0.19
		c-0.21,0.14-0.66,0.62-1.33,1.43c-0.68,0.81-1.33,1.34-1.94,1.6c-0.61,0.25-1.29,0.24-2.03-0.03c-0.95-0.35-1.61-0.96-1.99-1.86
		s-0.39-1.84-0.02-2.86c0.46-1.25,1.28-2.21,2.46-2.86l1.08,1.7c-0.81,0.31-1.33,0.81-1.57,1.5c-0.17,0.45-0.18,0.87-0.05,1.26
		C1025.37,217.63,1025.61,217.88,1025.93,218z"/>
	<path d="M1032.01,210.18l5.55,2.02l-0.75,2.05l-5.55-2.02l-0.29,0.81l-1.78-0.65l0.29-0.81l-2.5-0.91l0.75-2.05l2.5,0.91l0.53-1.45
		l1.78,0.65L1032.01,210.18z"/>
	<path d="M1033.58,208.42l1.39-3.81l1.7,0.62l-1.39,3.81L1033.58,208.42z"/>
	<path d="M1029.69,198.73l9.37,3.41l1.26-3.47l1.91,0.69l-2.06,5.67l-11.28-4.11L1029.69,198.73z"/>
	<path d="M1037.42,189.79l0.75-2.05l7.33,2.67l-0.75,2.05l-0.95-0.35c0.55,0.92,0.66,1.88,0.29,2.88c-0.36,1-1.04,1.71-2.04,2.12
		c-0.99,0.42-2.04,0.43-3.14,0.03c-1.1-0.4-1.91-1.09-2.41-2.04c-0.5-0.96-0.57-1.93-0.22-2.9c0.36-0.97,1.05-1.66,2.08-2.05
		L1037.42,189.79z M1038.37,192.2c-0.21,0.58-0.19,1.14,0.06,1.68c0.25,0.55,0.66,0.92,1.23,1.13c0.57,0.21,1.13,0.19,1.67-0.07
		c0.55-0.26,0.92-0.66,1.13-1.23s0.18-1.12-0.07-1.67c-0.25-0.55-0.66-0.92-1.23-1.13c-0.57-0.21-1.12-0.18-1.67,0.06
		C1038.95,191.22,1038.57,191.63,1038.37,192.2z"/>
	<path d="M1039.62,183.74l4.15,1.51c1.11,0.41,1.86,0.12,2.22-0.88s-0.02-1.7-1.13-2.11l-4.15-1.51l0.75-2.05l4.49,1.63
		c1.98,0.72,2.62,2.38,1.79,4.66c-0.83,2.28-2.39,3.15-4.37,2.43l-4.48-1.63L1039.62,183.74z"/>
	<path d="M1050.24,177.36l-0.75,2.05l-7.33-2.67l0.75-2.05l1.12,0.41c-0.72-0.83-0.91-1.71-0.57-2.62c0.11-0.29,0.27-0.57,0.51-0.83
		l1.8,0.98c-0.29,0.24-0.49,0.54-0.6,0.88c-0.43,1.17,0.1,2.03,1.56,2.56L1050.24,177.36z"/>
	<path d="M1050.99,164.96l-2,5.49c1.33,0.42,2.2,0.06,2.61-1.08c0.26-0.71,0.14-1.41-0.35-2.1l0.99-1.78
		c1.29,1.19,1.62,2.66,0.98,4.42c-0.44,1.2-1.14,2.02-2.11,2.48s-2.04,0.47-3.22,0.04s-2-1.12-2.45-2.08
		c-0.45-0.96-0.47-2.01-0.05-3.18c0.42-1.17,1.11-1.95,2.06-2.37c0.95-0.41,2.03-0.39,3.26,0.06L1050.99,164.96z M1047.71,169.91
		l1.26-3.47c-1.05-0.13-1.75,0.28-2.09,1.21C1046.55,168.55,1046.84,169.4,1047.71,169.91z"/>
	<path d="M1047.55,161.95l0.75-2.05l0.92,0.33c-0.61-0.93-0.67-1.72-0.31-2.71c0.33-0.9,0.88-1.51,1.65-1.81
		c0.58-0.23,1.33-0.17,2.24,0.16l4.65,1.69l-0.75,2.05l-4.06-1.48c-0.56-0.2-0.98-0.28-1.26-0.22c-0.47,0.07-0.8,0.4-1.01,0.99
		c-0.38,1.03,0.11,1.8,1.47,2.29l3.79,1.38l-0.75,2.05L1047.55,161.95z"/>
	<path d="M1053.36,151.52l5.55,2.02l-0.75,2.05l-5.55-2.02l-0.29,0.81l-1.78-0.65l0.29-0.81l-2.5-0.91l0.75-2.05l2.5,0.91l0.53-1.45
		l1.78,0.65L1053.36,151.52z"/>
</g>
<circle fill="#FFFFFF" stroke="#000000" stroke-width="6" stroke-miterlimit="10" cx="1080" cy="244" r="10"/>
<g>
	<path d="M1083.28,212.02c-1.16,0.55-1.92,1.33-2.29,2.34c-0.37,1.01-0.3,2,0.19,2.99c0.49,0.99,1.29,1.69,2.39,2.09
		c1.1,0.4,2.14,0.38,3.14-0.07c0.99-0.44,1.68-1.2,2.07-2.27c0.19-0.53,0.27-1.03,0.23-1.51c-0.04-0.48-0.2-1.03-0.48-1.64
		l2.58,0.94c0.09,1.11-0.02,2.11-0.34,3c-0.61,1.67-1.68,2.88-3.23,3.61c-1.55,0.74-3.14,0.81-4.78,0.21
		c-1.64-0.6-2.83-1.68-3.57-3.27c-0.74-1.59-0.81-3.2-0.21-4.85c0.33-0.92,0.9-1.75,1.7-2.51L1083.28,212.02z"/>
	<path d="M1091.85,210.68l-7.47,1.21l0.87-2.39l4.96-0.68l-3.41-3.6l0.86-2.35l9.08,10.01l-0.84,2.32L1091.85,210.68z"/>
	<path d="M1096.09,202.5l-0.75,2.05l-7.33-2.67l0.75-2.05l1.12,0.41c-0.72-0.83-0.91-1.71-0.57-2.62c0.11-0.29,0.27-0.57,0.51-0.83
		l1.8,0.98c-0.29,0.24-0.48,0.54-0.6,0.88c-0.43,1.17,0.1,2.03,1.56,2.56L1096.09,202.5z"/>
	<path d="M1090.91,193.94l4.85-0.42l-3.45-3.42l0.84-2.3l6.1,6.49l-0.34,0.93l-8.84,1.02L1090.91,193.94z"/>
	<path d="M1089.58,184.12c0.12-0.34,0.34-0.59,0.67-0.74c0.33-0.15,0.66-0.16,1-0.04c0.34,0.12,0.59,0.36,0.74,0.68
		c0.16,0.33,0.18,0.67,0.05,1.01c-0.12,0.34-0.35,0.58-0.68,0.73c-0.33,0.15-0.67,0.17-1.01,0.04c-0.34-0.12-0.59-0.36-0.74-0.69
		C1089.47,184.8,1089.46,184.46,1089.58,184.12z M1094.28,184.7l7.33,2.67l-0.74,2.04l-7.33-2.67L1094.28,184.7z"/>
	<path d="M1090.38,178.77l12.67,4.61l-0.75,2.05l-12.67-4.61L1090.38,178.77z"/>
	<path d="M1091.84,174.76l12.67,4.61l-0.75,2.05l-12.67-4.61L1091.84,174.76z"/>
	<path d="M1104.51,169l-2,5.49c1.33,0.42,2.2,0.06,2.61-1.08c0.26-0.71,0.14-1.41-0.35-2.1l0.99-1.78c1.29,1.19,1.62,2.66,0.98,4.42
		c-0.44,1.2-1.14,2.02-2.11,2.48c-0.97,0.46-2.04,0.47-3.22,0.04c-1.18-0.43-2-1.12-2.45-2.08c-0.46-0.96-0.47-2.01-0.05-3.18
		c0.42-1.17,1.11-1.95,2.06-2.37c0.95-0.41,2.03-0.39,3.26,0.06L1104.51,169z M1101.23,173.96l1.26-3.47
		c-1.05-0.13-1.75,0.28-2.09,1.21C1100.08,172.6,1100.37,173.45,1101.23,173.96z"/>
</g>
<circle fill="#FFFFFF" stroke="#000000" stroke-width="6" stroke-miterlimit="10" cx="1135" cy="244" r="10"/>
<g>
	<path d="M1143.57,223.16l-11.28-4.11l1.02-2.79c0.46-1.27,1.02-2.11,1.68-2.5c0.77-0.48,1.67-0.54,2.67-0.18
		c0.62,0.23,1.11,0.56,1.46,1.01c0.16,0.23,0.28,0.59,0.38,1.06c0.4-0.62,0.81-1.02,1.25-1.21c0.73-0.34,1.56-0.35,2.47-0.02
		c0.92,0.33,1.55,0.94,1.9,1.8c0.35,0.87,0.3,1.91-0.15,3.14L1143.57,223.16z M1137.79,218.56l0.23-0.63
		c0.42-1.14,0.13-1.89-0.84-2.24s-1.67,0.03-2.07,1.14l-0.24,0.66L1137.79,218.56z M1142.6,220.31l0.35-0.95
		c0.53-1.46,0.28-2.39-0.75-2.76c-0.57-0.21-1.07-0.14-1.5,0.2c-0.33,0.24-0.64,0.76-0.93,1.54l-0.3,0.83L1142.6,220.31z"/>
	<path d="M1135.04,207.18l12.67,4.61l-0.75,2.05l-12.67-4.61L1135.04,207.18z"/>
	<path d="M1143.14,201.55l0.75-2.05l7.33,2.67l-0.75,2.05l-0.95-0.35c0.55,0.92,0.66,1.88,0.29,2.88s-1.04,1.71-2.04,2.12
		c-0.99,0.42-2.04,0.43-3.14,0.03c-1.1-0.4-1.91-1.09-2.41-2.05c-0.5-0.96-0.57-1.93-0.22-2.9s1.05-1.66,2.08-2.05L1143.14,201.55z
		 M1144.09,203.96c-0.21,0.58-0.19,1.14,0.06,1.68c0.25,0.55,0.67,0.92,1.23,1.13c0.57,0.21,1.13,0.19,1.67-0.07
		c0.55-0.26,0.92-0.66,1.13-1.23c0.2-0.56,0.18-1.12-0.07-1.67c-0.25-0.55-0.66-0.92-1.23-1.13c-0.57-0.21-1.12-0.18-1.67,0.06
		C1144.67,202.98,1144.29,203.39,1144.09,203.96z"/>
	<path d="M1140.64,194.96c0.12-0.34,0.34-0.59,0.67-0.74c0.33-0.15,0.66-0.16,1-0.04c0.34,0.12,0.59,0.36,0.74,0.68
		c0.16,0.33,0.18,0.67,0.05,1.01c-0.12,0.34-0.35,0.58-0.68,0.73c-0.33,0.15-0.67,0.17-1.01,0.04s-0.59-0.36-0.74-0.69
		C1140.52,195.64,1140.51,195.3,1140.64,194.96z M1145.33,195.54l7.33,2.67l-0.74,2.04l-7.33-2.67L1145.33,195.54z"/>
	<path d="M1154.1,194.22l-0.75,2.05l-7.33-2.67l0.75-2.05l1.12,0.41c-0.72-0.83-0.91-1.71-0.57-2.62c0.1-0.29,0.27-0.57,0.51-0.83
		l1.8,0.98c-0.28,0.24-0.48,0.53-0.6,0.88c-0.43,1.17,0.09,2.03,1.56,2.56L1154.1,194.22z"/>
</g>
<circle fill="#FFFFFF" stroke="#000000" stroke-width="6" stroke-miterlimit="10" cx="1190" cy="244" r="10"/>
<g>
	<path d="M1198.35,223.77l-10.72-6.28l0.55-1.5l8.5-0.4l-6.21-5.88l0.55-1.52l12.17,2.3l-0.81,2.22l-7.32-1.51l5.98,5.67l-0.22,0.61
		l-8.19,0.41l6.54,3.66L1198.35,223.77z"/>
	<path d="M1197.63,202.23c0.45-1.23,1.18-2.1,2.17-2.6s2.08-0.55,3.24-0.13c1.16,0.42,1.96,1.15,2.39,2.19
		c0.43,1.05,0.43,2.19-0.02,3.43c-0.46,1.25-1.19,2.11-2.21,2.61c-1.01,0.5-2.09,0.54-3.23,0.12c-1.15-0.42-1.94-1.15-2.37-2.2
		S1197.19,203.46,1197.63,202.23z M1199.46,202.92c-0.21,0.57-0.19,1.13,0.06,1.68c0.25,0.55,0.66,0.93,1.23,1.14
		c0.57,0.21,1.13,0.19,1.67-0.07c0.55-0.26,0.93-0.67,1.14-1.24c0.21-0.57,0.19-1.14-0.07-1.69c-0.25-0.55-0.66-0.92-1.23-1.13
		c-0.57-0.21-1.12-0.18-1.67,0.07C1200.05,201.94,1199.67,202.35,1199.46,202.92z"/>
	<path d="M1199.95,196.58l0.74-2.05l0.92,0.33c-0.61-0.93-0.67-1.72-0.31-2.71c0.33-0.9,0.88-1.5,1.65-1.81
		c0.58-0.23,1.33-0.17,2.24,0.16l4.65,1.69l-0.75,2.05l-4.06-1.48c-0.56-0.2-0.98-0.28-1.26-0.22c-0.46,0.07-0.8,0.4-1.01,0.99
		c-0.38,1.03,0.11,1.8,1.47,2.29l3.79,1.38l-0.75,2.05L1199.95,196.58z"/>
	<path d="M1205.76,186.15l5.55,2.02l-0.74,2.05l-5.55-2.02l-0.29,0.81l-1.78-0.65l0.29-0.81l-2.5-0.91l0.74-2.05l2.5,0.91l0.53-1.45
		l1.78,0.65L1205.76,186.15z"/>
	<path d="M1213.01,183.5l-0.74,2.05l-7.33-2.67l0.75-2.05l1.11,0.41c-0.72-0.83-0.91-1.71-0.57-2.62c0.11-0.29,0.27-0.57,0.51-0.83
		l1.8,0.98c-0.29,0.24-0.49,0.53-0.6,0.88c-0.43,1.17,0.1,2.03,1.56,2.56L1213.01,183.5z"/>
	<path d="M1205.67,169.76l1.36,3.37l-1.04,0.74l-1.83-2.95L1205.67,169.76z M1213.75,171.09l-2,5.49c1.33,0.42,2.2,0.06,2.61-1.08
		c0.26-0.71,0.14-1.41-0.35-2.1l0.99-1.78c1.29,1.19,1.62,2.66,0.98,4.42c-0.44,1.2-1.14,2.02-2.11,2.48
		c-0.97,0.46-2.04,0.47-3.22,0.04s-2-1.12-2.45-2.08s-0.47-2.01-0.05-3.18c0.42-1.17,1.11-1.95,2.06-2.37
		c0.95-0.41,2.03-0.39,3.26,0.06L1213.75,171.09z M1210.47,176.04l1.26-3.47c-1.05-0.13-1.75,0.28-2.09,1.21
		C1209.32,174.69,1209.61,175.54,1210.47,176.04z"/>
	<path d="M1212.37,162.47l0.75-2.05l7.32,2.67l-0.74,2.05l-0.95-0.35c0.55,0.92,0.65,1.88,0.29,2.87c-0.37,1-1.04,1.71-2.04,2.12
		c-0.99,0.41-2.04,0.42-3.14,0.03c-1.1-0.4-1.91-1.09-2.41-2.05s-0.57-1.93-0.21-2.9c0.35-0.97,1.05-1.66,2.08-2.05L1212.37,162.47z
		 M1213.31,164.88c-0.21,0.58-0.19,1.14,0.06,1.68c0.25,0.55,0.67,0.92,1.23,1.13c0.57,0.21,1.13,0.19,1.67-0.07
		c0.55-0.26,0.92-0.67,1.13-1.23c0.21-0.56,0.18-1.12-0.07-1.67c-0.25-0.55-0.66-0.92-1.22-1.13c-0.57-0.21-1.12-0.18-1.67,0.06
		C1213.89,163.9,1213.52,164.31,1213.31,164.88z"/>
	<path d="M1209.22,154.47l12.67,4.61l-0.75,2.05l-12.67-4.61L1209.22,154.47z"/>
</g>
<circle fill="#FFFFFF" stroke="#000000" stroke-width="6" stroke-miterlimit="10" cx="1245" cy="244" r="10"/>
<g>
	<path d="M1243.91,214.61l7.62,2.77c1.48,0.54,2.41,1.25,2.8,2.15c0.31,0.76,0.3,1.6-0.04,2.52s-1,1.63-1.98,2.12l-1.13-1.9
		c0.54-0.13,0.89-0.43,1.06-0.91s0.06-0.87-0.33-1.19c-0.24-0.2-0.75-0.44-1.53-0.73l-7.26-2.64L1243.91,214.61z"/>
	<path d="M1255.31,208.02l-2,5.49c1.33,0.42,2.2,0.06,2.61-1.08c0.26-0.71,0.14-1.41-0.35-2.1l0.99-1.78
		c1.29,1.19,1.62,2.65,0.98,4.42c-0.44,1.2-1.14,2.02-2.11,2.48s-2.04,0.47-3.22,0.04s-2-1.12-2.45-2.08
		c-0.45-0.96-0.47-2.02-0.05-3.18s1.11-1.95,2.06-2.37c0.95-0.41,2.03-0.39,3.26,0.06L1255.31,208.02z M1252.03,212.97l1.26-3.47
		c-1.05-0.13-1.75,0.28-2.09,1.21C1250.88,211.62,1251.17,212.46,1252.03,212.97z"/>
	<path d="M1253.92,199.4l0.75-2.05l7.33,2.67l-0.75,2.05l-0.95-0.35c0.55,0.92,0.66,1.88,0.29,2.88c-0.36,1-1.04,1.71-2.04,2.12
		c-0.99,0.42-2.04,0.42-3.14,0.03c-1.1-0.4-1.91-1.09-2.41-2.04c-0.5-0.96-0.57-1.93-0.22-2.9s1.05-1.66,2.08-2.05L1253.92,199.4z
		 M1254.87,201.81c-0.21,0.58-0.19,1.14,0.06,1.68c0.25,0.55,0.66,0.92,1.23,1.13c0.57,0.21,1.13,0.19,1.67-0.07
		c0.55-0.26,0.92-0.66,1.13-1.23c0.2-0.56,0.18-1.12-0.07-1.67c-0.25-0.55-0.66-0.92-1.23-1.13c-0.57-0.21-1.12-0.18-1.67,0.06
		C1255.45,200.82,1255.08,201.24,1254.87,201.81z"/>
	<path d="M1255.38,195.39l0.75-2.05l0.92,0.33c-0.61-0.93-0.67-1.72-0.31-2.71c0.33-0.9,0.88-1.5,1.65-1.81
		c0.58-0.23,1.33-0.17,2.24,0.16l4.65,1.69l-0.75,2.05l-4.06-1.48c-0.56-0.2-0.98-0.28-1.26-0.22c-0.47,0.07-0.8,0.4-1.01,0.99
		c-0.38,1.03,0.11,1.8,1.47,2.29l3.79,1.38l-0.75,2.05L1255.38,195.39z"/>
	<path d="M1258.66,186.38l0.75-2.05l0.92,0.33c-0.61-0.93-0.67-1.72-0.31-2.71c0.33-0.9,0.88-1.5,1.65-1.81
		c0.58-0.23,1.33-0.17,2.24,0.16l4.65,1.69l-0.75,2.05l-4.06-1.48c-0.56-0.21-0.98-0.28-1.26-0.22c-0.47,0.07-0.8,0.4-1.01,0.99
		c-0.38,1.03,0.11,1.8,1.47,2.29l3.79,1.38l-0.75,2.05L1258.66,186.38z"/>
	<path d="M1268.56,171.62l-2,5.49c1.33,0.42,2.2,0.06,2.61-1.08c0.26-0.71,0.14-1.41-0.35-2.1l0.99-1.78
		c1.29,1.19,1.62,2.66,0.98,4.42c-0.44,1.2-1.14,2.02-2.11,2.48s-2.04,0.47-3.22,0.04c-1.18-0.43-2-1.12-2.45-2.08
		c-0.46-0.96-0.47-2.02-0.05-3.18s1.11-1.95,2.06-2.37c0.95-0.41,2.03-0.39,3.26,0.06L1268.56,171.62z M1265.28,176.57l1.26-3.47
		c-1.05-0.13-1.75,0.28-2.09,1.21C1264.13,175.22,1264.42,176.06,1265.28,176.57z"/>
	<path d="M1263.37,156.83l0.75-2.05l12.67,4.61l-0.75,2.05l-0.95-0.35c0.55,0.92,0.66,1.88,0.29,2.87c-0.36,1-1.04,1.71-2.04,2.12
		s-2.04,0.42-3.14,0.03c-1.1-0.4-1.91-1.09-2.41-2.05c-0.5-0.96-0.57-1.93-0.22-2.9s1.05-1.66,2.08-2.05L1263.37,156.83z
		 M1269.66,161.18c-0.21,0.58-0.19,1.14,0.06,1.68c0.25,0.55,0.66,0.92,1.23,1.13c0.57,0.21,1.13,0.19,1.67-0.07
		c0.55-0.26,0.92-0.66,1.13-1.23c0.2-0.56,0.18-1.12-0.07-1.67c-0.25-0.55-0.66-0.92-1.23-1.13c-0.57-0.21-1.12-0.18-1.67,0.06
		C1270.24,160.2,1269.86,160.61,1269.66,161.18z"/>
	<path d="M1266.43,152.03l0.91-1.8l3.63,4.03l-0.65,1.24L1266.43,152.03z"/>
	<path d="M1279.06,145.69l-1.68,4.62l2.02,1.88l-0.85,2.34l-9.74-9.08l0.6-1.66l13.24-0.54l-0.86,2.35L1279.06,145.69z
		 M1277.04,145.74l-4.63,0.1l3.46,3.11L1277.04,145.74z"/>
	<path d="M1283.77,140.19l-0.75,2.05l-7.33-2.67l0.75-2.05l1.11,0.41c-0.72-0.83-0.91-1.71-0.57-2.62c0.1-0.29,0.27-0.57,0.51-0.83
		l1.8,0.98c-0.29,0.24-0.49,0.53-0.6,0.88c-0.43,1.17,0.1,2.03,1.56,2.56L1283.77,140.19z"/>
	<path d="M1282.11,128.92c-0.62,0.38-1.03,0.87-1.24,1.46c-0.21,0.59-0.2,1.14,0.04,1.69c0.24,0.55,0.66,0.92,1.25,1.14
		c0.59,0.22,1.15,0.2,1.69-0.07s0.91-0.69,1.13-1.28c0.22-0.59,0.22-1.22,0-1.89l1.99,0.72c0.09,0.71,0.01,1.39-0.22,2.04
		c-0.42,1.14-1.13,1.95-2.16,2.45c-1.01,0.5-2.08,0.54-3.18,0.14c-1.1-0.4-1.89-1.13-2.37-2.17c-0.47-1.04-0.5-2.14-0.09-3.28
		c0.24-0.67,0.62-1.23,1.11-1.7L1282.11,128.92z"/>
</g>
<circle fill="#FFFFFF" stroke="#000000" stroke-width="6" stroke-miterlimit="10" cx="1300" cy="244" r="10"/>
<g>
	<path d="M1303.28,212.02c-1.16,0.55-1.92,1.33-2.29,2.34c-0.37,1.01-0.3,2,0.19,2.99c0.49,0.99,1.29,1.69,2.39,2.09
		c1.1,0.4,2.14,0.38,3.14-0.07c0.99-0.44,1.68-1.2,2.07-2.27c0.19-0.53,0.27-1.03,0.23-1.51c-0.04-0.48-0.2-1.03-0.48-1.64
		l2.58,0.94c0.09,1.11-0.02,2.11-0.34,3c-0.61,1.67-1.68,2.88-3.23,3.61c-1.55,0.74-3.14,0.81-4.78,0.21
		c-1.64-0.6-2.83-1.68-3.57-3.27c-0.74-1.59-0.81-3.2-0.21-4.85c0.33-0.92,0.9-1.75,1.7-2.51L1303.28,212.02z"/>
	<path d="M1305.98,206.76c0.45-1.23,1.17-2.1,2.17-2.6s2.08-0.55,3.24-0.13s1.96,1.15,2.39,2.19c0.43,1.05,0.43,2.19-0.02,3.43
		c-0.45,1.25-1.19,2.11-2.2,2.61c-1.01,0.5-2.09,0.54-3.23,0.12c-1.15-0.42-1.94-1.15-2.37-2.2
		C1305.52,209.14,1305.53,207.99,1305.98,206.76z M1307.81,207.46c-0.21,0.57-0.19,1.13,0.06,1.68c0.25,0.55,0.66,0.93,1.23,1.14
		c0.57,0.21,1.13,0.19,1.67-0.07c0.55-0.26,0.93-0.67,1.14-1.24c0.21-0.57,0.19-1.14-0.07-1.69c-0.25-0.55-0.66-0.92-1.23-1.13
		c-0.57-0.21-1.12-0.18-1.67,0.07C1308.4,206.47,1308.02,206.89,1307.81,207.46z"/>
	<path d="M1308.3,201.11l0.75-2.05l0.92,0.33c-0.61-0.93-0.67-1.72-0.31-2.71c0.33-0.9,0.88-1.51,1.65-1.81
		c0.58-0.23,1.33-0.17,2.24,0.16l4.65,1.69l-0.75,2.05l-4.06-1.48c-0.56-0.2-0.98-0.28-1.26-0.22c-0.47,0.07-0.8,0.4-1.01,0.99
		c-0.38,1.03,0.11,1.8,1.47,2.29l3.79,1.38l-0.75,2.05L1308.3,201.11z"/>
	<path d="M1311.96,191.05l4.85-0.42l-3.45-3.42l0.84-2.3l6.1,6.5l-0.34,0.92l-8.84,1.02L1311.96,191.05z"/>
	<path d="M1321.05,178.53l-2,5.49c1.33,0.42,2.2,0.06,2.61-1.08c0.26-0.71,0.14-1.41-0.35-2.1l0.99-1.78
		c1.29,1.19,1.62,2.66,0.98,4.42c-0.44,1.2-1.14,2.02-2.11,2.48s-2.04,0.47-3.22,0.04c-1.18-0.43-2-1.12-2.45-2.08
		c-0.46-0.96-0.47-2.01-0.05-3.18c0.42-1.16,1.11-1.95,2.06-2.37c0.95-0.41,2.03-0.39,3.26,0.06L1321.05,178.53z M1317.77,183.48
		l1.26-3.47c-1.05-0.13-1.75,0.28-2.09,1.21C1316.61,182.12,1316.91,182.97,1317.77,183.48z"/>
	<path d="M1317.62,175.52l0.75-2.05l0.92,0.33c-0.61-0.93-0.67-1.72-0.31-2.71c0.33-0.9,0.88-1.5,1.65-1.81
		c0.58-0.23,1.33-0.17,2.24,0.16l4.65,1.69l-0.75,2.05l-4.06-1.48c-0.56-0.2-0.98-0.28-1.26-0.22c-0.47,0.07-0.8,0.4-1.01,0.99
		c-0.38,1.03,0.11,1.8,1.47,2.29l3.79,1.38l-0.75,2.05L1317.62,175.52z"/>
	<path d="M1323.42,165.09l5.55,2.02l-0.75,2.05l-5.55-2.02l-0.29,0.81l-1.78-0.65l0.29-0.81l-2.5-0.91l0.75-2.05l2.5,0.91l0.53-1.45
		l1.78,0.65L1323.42,165.09z"/>
	<path d="M1327.57,152.19l1.88-5.15c1.48,0.55,2.53,1.15,3.13,1.8c1.55,1.61,1.98,3.74,1.16,5.98c-0.62,1.71-1.69,2.93-3.2,3.64
		c-1.5,0.71-3.11,0.77-4.82,0.14c-1.71-0.62-2.92-1.7-3.63-3.24c-0.71-1.54-0.75-3.17-0.12-4.91c0.78-2.14,2.25-3.44,4.42-3.87
		l0.33,2.31c-1.36,0.27-2.28,1.04-2.74,2.31c-0.39,1.07-0.34,2.08,0.15,3.06c0.49,0.97,1.29,1.67,2.41,2.08
		c1.12,0.41,2.18,0.4,3.16-0.04c0.98-0.44,1.67-1.18,2.05-2.25c0.29-0.8,0.32-1.55,0.08-2.26c-0.24-0.7-0.7-1.23-1.4-1.56
		l-0.96,2.65L1327.57,152.19z"/>
	<path d="M1324.18,140.84l12.67,4.61l-0.75,2.05l-12.67-4.61L1324.18,140.84z"/>
	<path d="M1336.86,135.08l-2,5.49c1.33,0.42,2.2,0.06,2.61-1.08c0.26-0.71,0.14-1.41-0.35-2.1l0.99-1.78
		c1.29,1.19,1.62,2.65,0.98,4.42c-0.44,1.2-1.14,2.02-2.11,2.48s-2.04,0.47-3.22,0.04c-1.18-0.43-2-1.12-2.45-2.08
		c-0.45-0.96-0.47-2.01-0.05-3.18c0.42-1.16,1.11-1.95,2.06-2.37c0.95-0.41,2.03-0.39,3.26,0.06L1336.86,135.08z M1333.58,140.04
		l1.26-3.47c-1.05-0.13-1.75,0.28-2.09,1.21C1332.43,138.68,1332.72,139.53,1333.58,140.04z"/>
	<path d="M1333.43,132.08l0.75-2.05l0.92,0.33c-0.61-0.93-0.67-1.72-0.31-2.71c0.33-0.9,0.88-1.51,1.65-1.81
		c0.58-0.23,1.33-0.17,2.24,0.16l4.65,1.69l-0.75,2.05l-4.06-1.48c-0.56-0.2-0.98-0.28-1.26-0.22c-0.47,0.07-0.8,0.4-1.01,0.99
		c-0.38,1.03,0.11,1.8,1.47,2.29l3.79,1.38l-0.75,2.05L1333.43,132.08z"/>
</g>
<circle fill="#FFFFFF" stroke="#000000" stroke-width="6" stroke-miterlimit="10" cx="1355" cy="244" r="10"/>
<g>
	<path d="M1360.19,219.44l4.18,1.52l-0.8,2.2l-11.28-4.11l1.2-3.3c0.27-0.73,0.55-1.3,0.83-1.7c0.29-0.4,0.66-0.72,1.11-0.97
		c0.97-0.52,2-0.57,3.06-0.19c1.06,0.39,1.82,1.02,2.26,1.88c0.44,0.86,0.42,1.94-0.05,3.24L1360.19,219.44z M1358.29,218.74
		l0.32-0.89c0.5-1.38,0.21-2.26-0.88-2.66c-1.15-0.42-1.89,0.05-2.46,1.59l-0.28,0.76L1358.29,218.74z"/>
	<path d="M1354.82,207.78l12.67,4.61l-0.74,2.05l-12.67-4.61L1354.82,207.78z"/>
	<path d="M1362.92,202.15l0.75-2.05l7.32,2.67l-0.74,2.05l-0.95-0.35c0.55,0.92,0.66,1.88,0.29,2.88c-0.37,1-1.04,1.71-2.04,2.12
		c-0.99,0.42-2.04,0.43-3.14,0.03c-1.1-0.4-1.91-1.09-2.41-2.04c-0.5-0.96-0.57-1.93-0.21-2.9c0.35-0.97,1.05-1.66,2.08-2.05
		L1362.92,202.15z M1363.87,204.56c-0.21,0.58-0.19,1.14,0.06,1.68c0.25,0.55,0.66,0.92,1.23,1.13c0.57,0.21,1.13,0.19,1.67-0.07
		c0.55-0.26,0.92-0.66,1.13-1.23s0.18-1.12-0.07-1.67c-0.25-0.55-0.66-0.92-1.23-1.13c-0.57-0.21-1.12-0.18-1.67,0.06
		C1364.45,203.57,1364.08,203.99,1363.87,204.56z"/>
	<path d="M1368.62,193.46c-0.62,0.38-1.03,0.87-1.24,1.46c-0.21,0.59-0.2,1.14,0.04,1.69c0.24,0.55,0.66,0.92,1.25,1.14
		c0.6,0.22,1.15,0.2,1.69-0.07c0.54-0.26,0.91-0.69,1.13-1.28c0.22-0.59,0.22-1.22,0-1.89l1.99,0.72c0.09,0.71,0.01,1.39-0.22,2.04
		c-0.41,1.14-1.13,1.95-2.16,2.45c-1.01,0.5-2.08,0.54-3.18,0.14c-1.1-0.4-1.89-1.13-2.37-2.17c-0.47-1.04-0.5-2.14-0.09-3.28
		c0.24-0.67,0.62-1.23,1.12-1.7L1368.62,193.46z"/>
	<path d="M1373.57,185.34l-2,5.49c1.33,0.42,2.2,0.06,2.61-1.08c0.26-0.71,0.14-1.41-0.35-2.1l0.99-1.78
		c1.29,1.19,1.62,2.65,0.98,4.42c-0.44,1.2-1.14,2.02-2.11,2.48c-0.97,0.46-2.04,0.47-3.22,0.04s-2-1.12-2.45-2.08
		s-0.47-2.01-0.05-3.18c0.42-1.16,1.11-1.95,2.06-2.37c0.95-0.41,2.03-0.39,3.26,0.06L1373.57,185.34z M1370.29,190.29l1.26-3.47
		c-1.05-0.13-1.75,0.28-2.09,1.21C1369.13,188.94,1369.43,189.78,1370.29,190.29z"/>
	<path d="M1368.38,170.54l0.74-2.05l12.67,4.61l-0.75,2.05l-0.95-0.35c0.55,0.92,0.66,1.88,0.29,2.88c-0.36,1-1.04,1.71-2.04,2.12
		c-0.99,0.42-2.04,0.43-3.14,0.03c-1.1-0.4-1.91-1.09-2.41-2.04s-0.57-1.93-0.22-2.9c0.36-0.97,1.05-1.66,2.08-2.05L1368.38,170.54z
		 M1374.66,174.9c-0.21,0.58-0.19,1.14,0.06,1.68c0.25,0.55,0.66,0.92,1.23,1.13c0.57,0.21,1.13,0.19,1.67-0.07
		c0.55-0.26,0.92-0.66,1.13-1.23c0.2-0.56,0.18-1.12-0.07-1.67c-0.25-0.55-0.66-0.92-1.23-1.13c-0.57-0.21-1.12-0.18-1.67,0.06
		C1375.25,173.91,1374.87,174.33,1374.66,174.9z"/>
	<path d="M1371.44,165.75l0.91-1.8l3.63,4.03l-0.65,1.24L1371.44,165.75z"/>
	<path d="M1374.87,156.23c0.61-1.68,1.7-2.88,3.26-3.63c1.56-0.75,3.18-0.82,4.84-0.21c1.66,0.6,2.84,1.7,3.55,3.28
		c0.71,1.58,0.74,3.23,0.12,4.93c-0.62,1.7-1.71,2.91-3.27,3.64c-1.57,0.73-3.17,0.79-4.82,0.19c-1.65-0.6-2.83-1.7-3.53-3.3
		C1374.3,159.54,1374.26,157.91,1374.87,156.23z M1376.87,156.99c-0.38,1.03-0.32,2.06,0.16,3.07c0.48,1.02,1.26,1.72,2.34,2.11
		c1.07,0.39,2.13,0.35,3.15-0.11c1.03-0.46,1.73-1.2,2.11-2.25c0.38-1.04,0.32-2.07-0.17-3.08c-0.49-1.01-1.28-1.71-2.35-2.1
		s-2.12-0.36-3.14,0.1C1377.95,155.2,1377.25,155.96,1376.87,156.99z"/>
	<path d="M1389.95,150.67l-0.74,2.05l-7.33-2.67l0.75-2.05l1.11,0.41c-0.72-0.83-0.91-1.71-0.57-2.62c0.11-0.29,0.27-0.57,0.51-0.83
		l1.8,0.98c-0.29,0.24-0.49,0.53-0.6,0.88c-0.43,1.17,0.1,2.03,1.56,2.56L1389.95,150.67z"/>
	<path d="M1379.52,139.91l12.67,4.61l-0.75,2.05l-12.67-4.61L1379.52,139.91z"/>
	<path d="M1384.12,132.82l1.36,3.37l-1.04,0.74l-1.83-2.95L1384.12,132.82z M1392.2,134.15l-2,5.49c1.33,0.42,2.2,0.06,2.61-1.08
		c0.26-0.71,0.14-1.41-0.35-2.1l0.99-1.78c1.29,1.19,1.62,2.65,0.98,4.42c-0.44,1.2-1.14,2.02-2.11,2.48
		c-0.97,0.46-2.04,0.47-3.22,0.04c-1.18-0.43-2-1.12-2.45-2.08c-0.46-0.96-0.47-2.01-0.05-3.18c0.42-1.16,1.11-1.95,2.06-2.37
		c0.95-0.41,2.03-0.39,3.26,0.06L1392.2,134.15z M1388.92,139.1l1.26-3.47c-1.05-0.13-1.75,0.28-2.09,1.21
		C1387.77,137.75,1388.06,138.59,1388.92,139.1z"/>
	<path d="M1390.81,125.53l0.75-2.05l7.32,2.67l-0.74,2.05l-0.95-0.35c0.55,0.92,0.66,1.88,0.29,2.88c-0.37,1-1.04,1.71-2.04,2.12
		c-0.99,0.42-2.04,0.43-3.14,0.02c-1.1-0.4-1.91-1.09-2.41-2.04s-0.57-1.93-0.21-2.9c0.35-0.97,1.05-1.66,2.08-2.05L1390.81,125.53z
		 M1391.76,127.94c-0.21,0.58-0.19,1.14,0.06,1.68c0.25,0.55,0.67,0.92,1.23,1.13c0.57,0.21,1.13,0.19,1.67-0.07
		c0.55-0.26,0.92-0.66,1.13-1.23s0.18-1.12-0.07-1.67c-0.25-0.55-0.66-0.92-1.22-1.13c-0.57-0.21-1.12-0.18-1.67,0.06
		C1392.34,126.95,1391.96,127.37,1391.76,127.94z"/>
	<path d="M1392.27,121.52l0.75-2.05l0.92,0.33c-0.61-0.93-0.67-1.72-0.31-2.71c0.33-0.9,0.88-1.51,1.65-1.81
		c0.58-0.23,1.33-0.17,2.24,0.16l4.65,1.69l-0.75,2.05l-4.06-1.48c-0.56-0.2-0.98-0.28-1.26-0.22c-0.47,0.07-0.8,0.4-1.01,0.99
		c-0.38,1.03,0.11,1.8,1.47,2.29l3.79,1.38l-0.75,2.05L1392.27,121.52z"/>
	<path d="M1398.71,109.13c-0.48,0.31-0.78,0.62-0.89,0.92s-0.13,0.55-0.08,0.75c0.07,0.2,0.19,0.33,0.36,0.39
		c0.17,0.06,0.34,0.04,0.5-0.08c0.16-0.12,0.45-0.43,0.85-0.92s0.76-0.85,1.07-1.05c0.57-0.4,1.22-0.47,1.95-0.21
		c0.74,0.27,1.25,0.78,1.53,1.53c0.29,0.76,0.26,1.59-0.06,2.49c-0.4,1.11-1.14,1.88-2.23,2.33l-0.86-1.53
		c0.78-0.36,1.28-0.84,1.49-1.42c0.19-0.52-0.02-1.07-0.46-1.22c-0.22-0.08-0.41-0.08-0.58,0.02c-0.16,0.1-0.46,0.4-0.89,0.92
		c-0.43,0.52-0.77,0.86-1.03,1.02c-0.52,0.36-1.11,0.42-1.79,0.17s-1.15-0.7-1.41-1.35c-0.26-0.65-0.23-1.39,0.07-2.21
		c0.3-0.83,0.84-1.49,1.62-2L1398.71,109.13z"/>
</g>
<circle fill="#FFFFFF" stroke="#000000" stroke-width="6" stroke-miterlimit="10" cx="1410" cy="244" r="10"/>
<g>
	<path d="M1419.86,219.62l-0.8,2.21l-9.37-3.41l-0.92,2.52l-1.91-0.69l2.64-7.26l1.91,0.69l-0.92,2.54L1419.86,219.62z"/>
	<path d="M1421.74,214.44l-0.75,2.05l-7.33-2.67l0.75-2.05l1.11,0.41c-0.72-0.83-0.91-1.71-0.57-2.62c0.11-0.29,0.27-0.57,0.51-0.83
		l1.8,0.98c-0.28,0.24-0.49,0.54-0.6,0.88c-0.43,1.17,0.09,2.03,1.56,2.56L1421.74,214.44z"/>
	<path d="M1411.96,205.07c0.12-0.34,0.34-0.59,0.67-0.74c0.33-0.15,0.66-0.16,1-0.04c0.34,0.12,0.59,0.36,0.74,0.68
		c0.16,0.33,0.18,0.67,0.05,1.01c-0.12,0.34-0.35,0.58-0.68,0.73c-0.33,0.15-0.67,0.17-1.01,0.04c-0.34-0.12-0.59-0.36-0.74-0.69
		C1411.84,205.75,1411.83,205.41,1411.96,205.07z M1416.65,205.65l7.33,2.67l-0.74,2.04l-7.33-2.67L1416.65,205.65z"/>
	<path d="M1423.37,198.28l3.76,1.37l-0.75,2.05l-3.89-1.42c-0.57-0.21-0.99-0.31-1.25-0.3s-0.49,0.09-0.7,0.25
		c-0.21,0.16-0.35,0.36-0.44,0.59c-0.17,0.46-0.07,1.04,0.3,1.47c0.18,0.22,0.6,0.44,1.26,0.67l3.76,1.37l-0.75,2.05l-7.33-2.67
		l0.75-2.05l0.85,0.31c-0.49-0.9-0.57-1.81-0.23-2.73s1.05-1.49,2.12-1.69c-0.68-0.9-0.85-1.84-0.49-2.82
		c0.36-0.98,0.97-1.56,1.83-1.73c0.51-0.1,1.15-0.02,1.92,0.26l4.73,1.72l-0.75,2.05l-4-1.46c-0.53-0.19-0.94-0.28-1.23-0.26
		c-0.5,0.03-0.84,0.3-1.02,0.8C1421.48,197.06,1421.99,197.78,1423.37,198.28z"/>
</g>
<g>
	<path fill="#9B9B9B" d="M692.26,283.22v2.95h-1.43v-7.34h2.12c0.83,0,1.46,0.17,1.87,0.52c0.48,0.4,0.73,0.96,0.73,1.65
		c0,0.7-0.22,1.23-0.66,1.62c-0.27,0.24-0.61,0.4-1.01,0.47l2.31,3.09h-1.76l-1.98-2.95H692.26z M692.26,282.21h0.42
		c0.91,0,1.4-0.41,1.4-1.12c0-0.74-0.46-1.1-1.38-1.1h-0.44V282.21z"/>
	<path fill="#9B9B9B" d="M700.42,281.4h1.33v4.76h-1.33v-0.62c-0.41,0.51-0.94,0.77-1.59,0.77s-1.2-0.24-1.64-0.72
		c-0.45-0.48-0.67-1.09-0.67-1.8s0.23-1.32,0.67-1.81c0.45-0.49,0.99-0.73,1.62-0.73s1.17,0.26,1.61,0.77V281.4z M699.24,282.45
		c-0.38,0-0.69,0.13-0.95,0.39c-0.26,0.26-0.39,0.57-0.39,0.95s0.13,0.69,0.39,0.95c0.26,0.26,0.57,0.39,0.94,0.39
		s0.68-0.13,0.95-0.39c0.26-0.26,0.39-0.57,0.39-0.94c0-0.37-0.13-0.68-0.38-0.95C699.93,282.58,699.61,282.45,699.24,282.45z"/>
	<path fill="#9B9B9B" d="M703.69,278.59c0.22,0,0.41,0.07,0.56,0.23s0.23,0.34,0.23,0.56c0,0.22-0.08,0.41-0.24,0.57
		c-0.16,0.16-0.35,0.24-0.57,0.24s-0.41-0.08-0.56-0.24s-0.24-0.35-0.24-0.57s0.08-0.41,0.24-0.57
		C703.27,278.66,703.46,278.59,703.69,278.59z M704.33,281.4v4.76h-1.33v-4.76H704.33z"/>
	<path fill="#9B9B9B" d="M706.92,277.93v8.24h-1.33v-8.24H706.92z"/>
	<path fill="#9B9B9B" d="M715.04,280.07h-2.45v1.63h2.3v1.24h-2.3v3.22h-1.43v-7.34h3.88V280.07z"/>
	<path fill="#9B9B9B" d="M719.61,281.4h1.33v4.76h-1.33v-0.62c-0.41,0.51-0.94,0.77-1.59,0.77s-1.2-0.24-1.64-0.72
		c-0.45-0.48-0.67-1.09-0.67-1.8s0.23-1.32,0.67-1.81c0.45-0.49,0.99-0.73,1.62-0.73s1.17,0.26,1.61,0.77V281.4z M718.42,282.45
		c-0.38,0-0.69,0.13-0.95,0.39c-0.26,0.26-0.39,0.57-0.39,0.95s0.13,0.69,0.39,0.95c0.26,0.26,0.57,0.39,0.94,0.39
		s0.68-0.13,0.95-0.39c0.26-0.26,0.39-0.57,0.39-0.94c0-0.37-0.13-0.68-0.38-0.95C719.11,282.58,718.79,282.45,718.42,282.45z"/>
	<path fill="#9B9B9B" d="M722.22,281.4h1.33v0.6c0.41-0.54,0.85-0.75,1.49-0.75c0.59,0,1.05,0.19,1.39,0.57
		c0.25,0.29,0.38,0.73,0.38,1.32v3.02h-1.33v-2.64c0-0.37-0.04-0.62-0.13-0.77c-0.14-0.25-0.4-0.38-0.78-0.38
		c-0.67,0-1.01,0.44-1.01,1.32v2.46h-1.33V281.4z"/>
	<path fill="#9B9B9B" d="M730.68,282.52c-0.28-0.21-0.52-0.32-0.71-0.32s-0.34,0.04-0.45,0.11c-0.1,0.08-0.15,0.18-0.15,0.29
		s0.05,0.2,0.15,0.27c0.1,0.07,0.34,0.17,0.71,0.3s0.65,0.26,0.83,0.39c0.35,0.24,0.53,0.6,0.53,1.08s-0.19,0.88-0.56,1.2
		c-0.38,0.32-0.86,0.48-1.44,0.48c-0.72,0-1.32-0.26-1.8-0.79l0.7-0.81c0.37,0.37,0.75,0.56,1.13,0.56c0.34,0,0.61-0.24,0.61-0.52
		c0-0.15-0.04-0.25-0.13-0.33c-0.09-0.07-0.33-0.18-0.71-0.32c-0.39-0.14-0.66-0.26-0.8-0.38c-0.32-0.22-0.47-0.55-0.47-0.99
		s0.16-0.81,0.48-1.09c0.32-0.28,0.75-0.42,1.28-0.42s1.03,0.17,1.49,0.51L730.68,282.52z"/>
	<path fill="#9B9B9B" d="M740.78,280.8c-0.56-0.55-1.17-0.83-1.82-0.83s-1.21,0.25-1.68,0.74c-0.47,0.49-0.7,1.1-0.7,1.81
		c0,0.71,0.23,1.31,0.7,1.79c0.46,0.48,1.04,0.71,1.73,0.71c0.34,0,0.65-0.06,0.92-0.18c0.27-0.12,0.55-0.33,0.84-0.62v1.68
		c-0.62,0.29-1.21,0.43-1.79,0.43c-1.08,0-2-0.37-2.75-1.1s-1.12-1.63-1.12-2.7c0-1.07,0.38-1.98,1.13-2.73s1.67-1.13,2.74-1.13
		c0.6,0,1.19,0.15,1.79,0.45V280.8z"/>
	<path fill="#9B9B9B" d="M745.54,281.4h1.33v4.76h-1.33v-0.62c-0.41,0.51-0.94,0.77-1.59,0.77s-1.2-0.24-1.64-0.72
		c-0.45-0.48-0.67-1.09-0.67-1.8s0.23-1.32,0.67-1.81c0.45-0.49,0.99-0.73,1.62-0.73s1.17,0.26,1.61,0.77V281.4z M744.35,282.45
		c-0.38,0-0.69,0.13-0.95,0.39c-0.26,0.26-0.39,0.57-0.39,0.95s0.13,0.69,0.39,0.95c0.26,0.26,0.57,0.39,0.94,0.39
		s0.68-0.13,0.95-0.39c0.26-0.26,0.39-0.57,0.39-0.94c0-0.37-0.13-0.68-0.38-0.95C745.04,282.58,744.72,282.45,744.35,282.45z"/>
	<path fill="#9B9B9B" d="M748.14,281.4h1.33v0.6c0.41-0.54,0.85-0.75,1.49-0.75c0.59,0,1.05,0.19,1.39,0.57
		c0.25,0.29,0.38,0.73,0.38,1.32v3.02h-1.33v-2.64c0-0.37-0.04-0.62-0.13-0.77c-0.14-0.25-0.4-0.38-0.78-0.38
		c-0.67,0-1.01,0.44-1.01,1.32v2.46h-1.33V281.4z"/>
	<path fill="#9B9B9B" d="M757.65,281.4h1.33v4.76h-1.33v-0.62c-0.41,0.51-0.94,0.77-1.59,0.77c-0.65,0-1.2-0.24-1.64-0.72
		c-0.45-0.48-0.67-1.09-0.67-1.8s0.23-1.32,0.67-1.81c0.45-0.49,0.99-0.73,1.62-0.73c0.63,0,1.17,0.26,1.61,0.77V281.4z
		 M756.47,282.45c-0.38,0-0.69,0.13-0.95,0.39c-0.26,0.26-0.39,0.57-0.39,0.95s0.13,0.69,0.39,0.95c0.26,0.26,0.58,0.39,0.94,0.39
		s0.68-0.13,0.95-0.39c0.26-0.26,0.39-0.57,0.39-0.94c0-0.37-0.13-0.68-0.38-0.95C757.15,282.58,756.84,282.45,756.47,282.45z"/>
	<path fill="#9B9B9B" d="M763.91,277.93h1.33v8.24h-1.33v-0.62c-0.41,0.51-0.94,0.77-1.59,0.77s-1.2-0.24-1.64-0.72
		c-0.45-0.48-0.67-1.09-0.67-1.8s0.23-1.32,0.67-1.81c0.45-0.49,0.99-0.73,1.62-0.73s1.17,0.26,1.61,0.77V277.93z M762.72,282.45
		c-0.38,0-0.69,0.13-0.95,0.39c-0.26,0.26-0.39,0.57-0.39,0.95s0.13,0.69,0.39,0.95c0.26,0.26,0.57,0.39,0.94,0.39
		s0.68-0.13,0.95-0.39c0.26-0.26,0.39-0.57,0.39-0.94c0-0.37-0.13-0.68-0.38-0.95C763.41,282.58,763.09,282.45,762.72,282.45z"/>
	<path fill="#9B9B9B" d="M770.21,281.4h1.33v4.76h-1.33v-0.62c-0.41,0.51-0.94,0.77-1.59,0.77c-0.65,0-1.2-0.24-1.64-0.72
		c-0.45-0.48-0.67-1.09-0.67-1.8s0.23-1.32,0.67-1.81c0.45-0.49,0.99-0.73,1.62-0.73c0.63,0,1.17,0.26,1.61,0.77V281.4z
		 M769.02,282.45c-0.38,0-0.69,0.13-0.95,0.39c-0.26,0.26-0.39,0.57-0.39,0.95s0.13,0.69,0.39,0.95c0.26,0.26,0.57,0.39,0.94,0.39
		s0.68-0.13,0.95-0.39c0.26-0.26,0.39-0.57,0.39-0.94c0-0.37-0.13-0.68-0.38-0.95C769.71,282.58,769.39,282.45,769.02,282.45z"/>
	<path fill="#9B9B9B" d="M774.93,283.09h7.4v1.11h-7.4V283.09z"/>
	<path fill="#9B9B9B" d="M790.6,284.93v1.24h-5.33l2.17-2.46c0.67-0.76,1.11-1.33,1.34-1.69c0.23-0.36,0.34-0.7,0.34-1.01
		c0-0.31-0.11-0.58-0.32-0.79c-0.22-0.21-0.49-0.32-0.8-0.32c-0.32,0-0.58,0.11-0.76,0.32c-0.19,0.21-0.29,0.51-0.31,0.89h-1.53
		c0.05-0.76,0.31-1.36,0.77-1.81c0.46-0.45,1.06-0.67,1.8-0.67c0.74,0,1.35,0.23,1.85,0.67c0.49,0.45,0.74,1.04,0.74,1.76
		s-0.45,1.56-1.33,2.5l-1.28,1.35H790.6z"/>
	<path fill="#9B9B9B" d="M794.45,278.64c0.83,0,1.52,0.38,2.07,1.12c0.5,0.7,0.76,1.62,0.76,2.73s-0.25,2.03-0.76,2.74
		c-0.52,0.7-1.29,1.12-2.08,1.12c-0.85,0-1.54-0.37-2.06-1.1s-0.78-1.65-0.78-2.78s0.25-2.02,0.76-2.72
		C792.92,279.02,793.61,278.64,794.45,278.64z M794.44,279.91c-0.41,0-0.75,0.24-1.02,0.72c-0.27,0.48-0.4,1.1-0.4,1.86
		c0,0.76,0.13,1.38,0.4,1.87c0.26,0.49,0.61,0.73,1.02,0.73c0.41,0,0.76-0.24,1.02-0.72c0.26-0.48,0.39-1.11,0.39-1.86
		c0-0.76-0.13-1.38-0.4-1.86S794.85,279.91,794.44,279.91z"/>
	<path fill="#9B9B9B" d="M803.07,284.93v1.24h-5.33l2.16-2.46c0.67-0.76,1.11-1.33,1.34-1.69c0.23-0.36,0.34-0.7,0.34-1.01
		c0-0.31-0.11-0.58-0.32-0.79c-0.22-0.21-0.49-0.32-0.81-0.32c-0.32,0-0.57,0.11-0.76,0.32c-0.19,0.21-0.3,0.51-0.31,0.89h-1.53
		c0.05-0.76,0.31-1.36,0.77-1.81c0.46-0.45,1.06-0.67,1.8-0.67c0.74,0,1.35,0.23,1.85,0.67c0.49,0.45,0.74,1.04,0.74,1.76
		s-0.45,1.56-1.33,2.5l-1.28,1.35H803.07z"/>
	<path fill="#9B9B9B" d="M809.02,282.04c0.44,0.47,0.66,1.06,0.66,1.79s-0.26,1.33-0.77,1.8c-0.52,0.48-1.19,0.72-2,0.72
		s-1.49-0.24-2.01-0.71c-0.52-0.47-0.79-1.07-0.79-1.81s0.31-1.51,0.92-2.32l2.23-2.98l1.02,0.76l-1.74,2.23
		c0.31-0.12,0.6-0.19,0.86-0.19C808.04,281.34,808.58,281.57,809.02,282.04z M806.91,282.48c-0.38,0-0.7,0.13-0.97,0.39
		c-0.26,0.26-0.4,0.59-0.4,0.98s0.13,0.71,0.4,0.97s0.59,0.4,0.96,0.4s0.69-0.13,0.96-0.4s0.39-0.58,0.39-0.97s-0.13-0.7-0.38-0.97
		C807.61,282.62,807.29,282.48,806.91,282.48z"/>
</g>
<g>
	<path d="M23.11,25.33v24.38h9.02v4.96H17.39V25.33H23.11z"/>
	<path d="M38.04,24.36c0.88,0,1.63,0.3,2.26,0.92s0.92,1.38,0.92,2.26s-0.32,1.65-0.95,2.28c-0.62,0.64-1.4,0.97-2.28,0.97
		s-1.63-0.32-2.26-0.95s-0.95-1.4-0.95-2.28s0.32-1.65,0.97-2.28C36.39,24.66,37.16,24.36,38.04,24.36z M40.64,35.62v19.06h-5.31
		V35.62H40.64z"/>
	<path d="M45.67,35.62H51V38c1.63-2.17,3.39-2.99,5.97-2.99c2.34,0,4.19,0.75,5.54,2.28c1.01,1.14,1.5,2.9,1.5,5.29v12.1h-5.33V44.1
		c0-1.46-0.17-2.49-0.54-3.07c-0.56-1.01-1.59-1.5-3.12-1.5c-2.69,0-4.04,1.76-4.04,5.29v9.86h-5.33V35.62z"/>
	<path d="M87.84,46.02H73.55c0.15,3.42,1.7,5.11,4.66,5.09c1.85,0,3.35-0.86,4.53-2.56l4.92,0.79c-1.65,3.95-4.75,5.93-9.32,5.95
		c-3.12,0-5.59-0.92-7.46-2.77s-2.79-4.3-2.79-7.37s0.9-5.52,2.73-7.37s4.23-2.77,7.26-2.77s5.41,0.92,7.15,2.75s2.6,4.34,2.6,7.54
		V46.02z M73.73,42.62h9.02c-0.58-2.51-2.11-3.78-4.53-3.78C75.88,38.84,74.18,40.21,73.73,42.62z"/>
	<path d="M110.31,30.29h-4.23v-4.96h9.95v29.35h-5.71V30.29z"/>
	<path d="M145.23,51.6c0.62,3.24,1.5,5.99,2.62,8.23l-4.28,2.32c-1.27-2.41-2.19-4.9-2.77-7.48c-1.05-4.4-1.59-8.85-1.59-13.34
		c0-8.04,1.46-14.82,4.36-20.37l4.28,2.34c-2.38,5.07-3.57,11.15-3.57,18.22C144.28,44.98,144.6,48.36,145.23,51.6z"/>
	<path d="M163.51,54.67h-5.74V30.29h-6.55v-4.96h18.88v4.96h-6.6V54.67z"/>
	<path d="M173.8,54.67V25.33h7.26c3.31,0,5.69,0.58,7.15,1.76c1.76,1.38,2.64,3.37,2.64,5.97c0,1.61-0.37,3.01-1.1,4.19
		c-0.41,0.56-1.12,1.14-2.11,1.76c1.76,0.39,3.03,1.01,3.82,1.85c1.4,1.4,2.11,3.29,2.11,5.67s-0.86,4.34-2.56,5.87
		s-4.15,2.28-7.35,2.28H173.8z M179.52,37.55h1.63c2.96,0,4.45-1.27,4.45-3.8s-1.46-3.8-4.36-3.8h-1.72V37.55z M179.52,50.05h2.47
		c3.8,0,5.71-1.35,5.71-4.04c0-1.48-0.58-2.58-1.72-3.27c-0.84-0.56-2.28-0.84-4.32-0.84h-2.15V50.05z"/>
	<path d="M198.87,54.67V25.33h8.4c4.28,0,7.78,1.14,10.51,3.39c1.65,1.35,2.94,3.01,3.87,4.98s1.38,4.06,1.38,6.25
		s-0.47,4.28-1.4,6.27c-0.95,2-2.26,3.67-3.93,5.05c-2.66,2.26-6.14,3.39-10.46,3.39H198.87z M204.59,49.71h1.55
		c3.5,0,6.1-0.77,7.82-2.34c2-1.74,3.18-4.58,3.18-7.39c0-2.99-1.05-5.44-3.18-7.3c-1.76-1.59-4.36-2.38-7.82-2.38h-1.55V49.71z"/>
	<path d="M231.06,31.56c-0.62-3.24-1.5-5.99-2.62-8.25l4.25-2.34c1.27,2.41,2.19,4.9,2.77,7.48c1.05,4.4,1.59,8.85,1.59,13.34
		c0,8.04-1.46,14.82-4.36,20.37l-4.25-2.32c2.38-5.09,3.57-11.17,3.57-18.22C232,38.17,231.68,34.82,231.06,31.56z"/>
</g>
</svg>
