<?xml version="1.0" encoding="iso-8859-1"?>
<!-- Generator: Adobe Illustrator 29.8.4, SVG Export Plug-In . SVG Version: 9.03 Build 0)  -->
<svg version="1.1" id="Layer_1" xmlns="http://www.w3.org/2000/svg" xmlns:xlink="http://www.w3.org/1999/xlink" x="0px" y="0px"
	 viewBox="0 0 1500 292" enable-background="new 0 0 1500 292" xml:space="preserve">
<rect id="bg-white" fill="#FFFFFF" width="1500" height="292"/>
<line fill="none" stroke="#D30F1D" stroke-width="16" stroke-linecap="round" stroke-miterlimit="10" x1="90" y1="244" x2="1410" y2="244"/>
<circle fill="#FFFFFF" stroke="#000000" stroke-width="6" stroke-miterlimit="10" cx="90" cy="244" r="10"/>
<g>
	<path d="M99.86,219.62l-0.8,2.21l-9.37-3.41l-0.92,2.52l-1.91-0.69l2.64-7.26l1.91,0.69l-0.92,2.54L99.86,219.62z"/>
	<path d="M94.39,211.85l4.15,1.51c1.11,0.41,1.86,0.12,2.22-0.88c0.36-1-0.02-1.7-1.13-2.1l-4.15-1.51l0.75-2.05l4.49,1.63
		c1.98,0.72,2.62,2.38,1.79,4.66c-0.83,2.28-2.39,3.15-4.37,2.43l-4.48-1.63L94.39,211.85z"/>
	<path d="M96.94,204.86l0.75-2.05l0.92,0.33c-0.61-0.93-0.67-1.72-0.31-2.71c0.33-0.9,0.88-1.5,1.65-1.81
		c0.58-0.23,1.33-0.17,2.24,0.16l4.65,1.69l-0.75,2.05l-4.06-1.48c-0.56-0.2-0.98-0.28-1.26-0.22c-0.47,0.07-0.8,0.4-1.01,0.99
		c-0.38,1.03,0.11,1.8,1.47,2.29l3.79,1.38l-0.75,2.05L96.94,204.86z"/>
	<path d="M100.22,195.84l0.75-2.05l0.92,0.33c-0.61-0.93-0.67-1.72-0.31-2.71c0.33-0.9,0.88-1.5,1.65-1.81
		c0.58-0.23,1.33-0.17,2.24,0.16l4.65,1.69l-0.75,2.05l-4.06-1.48c-0.56-0.21-0.98-0.28-1.26-0.22c-0.47,0.07-0.8,0.4-1.01,0.99
		c-0.38,1.03,0.11,1.8,1.47,2.29l3.79,1.38l-0.75,2.05L100.22,195.84z"/>
	<path d="M110.12,181.09l-2,5.49c1.33,0.42,2.2,0.06,2.61-1.08c0.26-0.71,0.14-1.41-0.35-2.1l0.99-1.78
		c1.29,1.19,1.62,2.65,0.98,4.42c-0.44,1.2-1.14,2.02-2.11,2.48s-2.04,0.47-3.22,0.04c-1.18-0.43-2-1.12-2.45-2.08
		c-0.45-0.96-0.47-2.01-0.05-3.18c0.42-1.17,1.11-1.95,2.06-2.37s2.03-0.39,3.26,0.06L110.12,181.09z M106.84,186.04l1.26-3.47
		c-1.05-0.13-1.75,0.28-2.09,1.21C105.68,184.68,105.97,185.53,106.84,186.04z"/>
	<path d="M113.66,178.23l-7.47,1.21l0.87-2.39l4.96-0.68l-3.41-3.6l0.86-2.35l9.08,10.01l-0.84,2.32L113.66,178.23z"/>
	<path d="M106.29,166.17l0.91-1.8l3.63,4.02l-0.65,1.24L106.29,166.17z"/>
	<path d="M114.81,161.08c-0.48,0.31-0.78,0.62-0.89,0.92s-0.13,0.55-0.08,0.75c0.07,0.2,0.19,0.33,0.36,0.39
		c0.17,0.06,0.34,0.04,0.5-0.08c0.16-0.12,0.45-0.43,0.85-0.92c0.41-0.5,0.76-0.85,1.07-1.05c0.57-0.4,1.22-0.47,1.95-0.21
		c0.74,0.27,1.25,0.78,1.53,1.53c0.29,0.76,0.26,1.59-0.06,2.49c-0.4,1.11-1.14,1.88-2.23,2.33l-0.86-1.53
		c0.78-0.36,1.28-0.84,1.49-1.42c0.19-0.52-0.02-1.07-0.46-1.22c-0.22-0.08-0.41-0.08-0.58,0.02c-0.16,0.1-0.46,0.41-0.89,0.92
		c-0.43,0.52-0.77,0.86-1.03,1.02c-0.52,0.36-1.11,0.42-1.79,0.17s-1.15-0.7-1.41-1.35c-0.26-0.65-0.23-1.39,0.07-2.21
		c0.3-0.83,0.84-1.49,1.62-2L114.81,161.08z"/>
	<path d="M119.73,152.01l4.18,1.52l-0.8,2.2l-11.28-4.11l1.2-3.29c0.27-0.74,0.55-1.3,0.83-1.7c0.29-0.4,0.67-0.72,1.11-0.97
		c0.97-0.52,2-0.57,3.06-0.19s1.82,1.02,2.26,1.88c0.44,0.86,0.42,1.94-0.05,3.24L119.73,152.01z M117.83,151.32l0.33-0.89
		c0.5-1.38,0.21-2.26-0.88-2.66c-1.15-0.42-1.89,0.05-2.46,1.59l-0.28,0.76L117.83,151.32z"/>
	<path d="M120.89,139.05l0.75-2.05l7.33,2.67l-0.75,2.05l-0.95-0.35c0.55,0.92,0.66,1.88,0.29,2.87c-0.36,1-1.04,1.71-2.04,2.12
		s-2.04,0.42-3.14,0.03c-1.1-0.4-1.91-1.09-2.41-2.05c-0.5-0.96-0.57-1.93-0.22-2.9s1.05-1.66,2.08-2.05L120.89,139.05z
		 M121.84,141.46c-0.21,0.58-0.19,1.14,0.06,1.68c0.25,0.55,0.66,0.92,1.23,1.13c0.57,0.21,1.13,0.19,1.67-0.07
		c0.55-0.26,0.92-0.66,1.13-1.23c0.2-0.56,0.18-1.12-0.07-1.67c-0.25-0.55-0.66-0.92-1.23-1.13c-0.57-0.21-1.12-0.18-1.67,0.06
		C122.42,140.47,122.04,140.89,121.84,141.46z"/>
	<path d="M125.5,131.69c-0.48,0.31-0.78,0.62-0.89,0.92c-0.11,0.31-0.13,0.55-0.08,0.75c0.07,0.2,0.19,0.33,0.36,0.39
		c0.17,0.06,0.34,0.04,0.51-0.08c0.16-0.12,0.45-0.43,0.85-0.92c0.41-0.5,0.76-0.85,1.07-1.05c0.57-0.4,1.22-0.47,1.96-0.21
		c0.73,0.27,1.25,0.78,1.53,1.53c0.29,0.76,0.26,1.59-0.07,2.49c-0.4,1.11-1.14,1.88-2.23,2.33l-0.86-1.53
		c0.78-0.36,1.28-0.83,1.49-1.42c0.19-0.52-0.02-1.07-0.46-1.22c-0.22-0.08-0.41-0.08-0.58,0.02c-0.16,0.1-0.46,0.4-0.89,0.92
		s-0.77,0.86-1.03,1.02c-0.52,0.36-1.11,0.42-1.79,0.17s-1.15-0.7-1.41-1.35c-0.26-0.65-0.23-1.39,0.07-2.21
		c0.3-0.83,0.84-1.49,1.62-2L125.5,131.69z"/>
	<path d="M127.42,126.64l5.55,2.02l-0.75,2.05l-5.55-2.02l-0.29,0.81l-1.78-0.65l0.29-0.81l-2.5-0.91l0.75-2.05l2.5,0.91l0.53-1.45
		l1.78,0.65L127.42,126.64z"/>
	<path d="M127.32,121.39l4.15,1.51c1.12,0.41,1.86,0.11,2.22-0.88c0.36-1-0.02-1.7-1.13-2.1l-4.15-1.51l0.75-2.05l4.49,1.63
		c1.98,0.72,2.62,2.38,1.79,4.66c-0.83,2.28-2.39,3.15-4.37,2.43l-4.49-1.63L127.32,121.39z"/>
	<path d="M137.93,115.01l-0.75,2.05l-7.33-2.67l0.75-2.05l1.11,0.41c-0.72-0.83-0.91-1.71-0.57-2.62c0.11-0.29,0.27-0.57,0.51-0.83
		l1.8,0.98c-0.28,0.24-0.49,0.53-0.6,0.88c-0.43,1.17,0.09,2.03,1.56,2.56L137.93,115.01z"/>
	<path d="M138.68,102.61l-2,5.49c1.33,0.42,2.2,0.06,2.61-1.08c0.26-0.71,0.14-1.41-0.35-2.1l0.99-1.78
		c1.29,1.19,1.62,2.65,0.98,4.42c-0.44,1.2-1.14,2.02-2.11,2.48s-2.04,0.47-3.22,0.04c-1.18-0.43-2-1.12-2.45-2.08
		c-0.45-0.96-0.47-2.01-0.05-3.18c0.42-1.16,1.11-1.95,2.06-2.37c0.95-0.41,2.03-0.39,3.26,0.06L138.68,102.61z M135.4,107.56
		l1.26-3.47c-1.05-0.13-1.75,0.28-2.09,1.21C134.25,106.21,134.54,107.05,135.4,107.56z"/>
</g>
<circle fill="#FFFFFF" stroke="#000000" stroke-width="6" stroke-miterlimit="10" cx="200" cy="244" r="10"/>
<g>
	<path d="M208.57,223.16l-11.28-4.11l1.02-2.79c0.46-1.27,1.02-2.11,1.68-2.5c0.77-0.48,1.67-0.54,2.67-0.18
		c0.62,0.23,1.11,0.56,1.46,1.01c0.16,0.23,0.28,0.59,0.38,1.06c0.4-0.62,0.81-1.02,1.25-1.21c0.73-0.34,1.56-0.35,2.47-0.02
		c0.92,0.33,1.55,0.94,1.9,1.8c0.35,0.87,0.3,1.91-0.15,3.14L208.57,223.16z M202.79,218.56l0.23-0.63
		c0.42-1.14,0.13-1.89-0.84-2.24s-1.67,0.03-2.07,1.14l-0.24,0.66L202.79,218.56z M207.6,220.31l0.35-0.95
		c0.53-1.46,0.28-2.39-0.75-2.76c-0.57-0.21-1.07-0.14-1.5,0.2c-0.33,0.24-0.64,0.76-0.93,1.54l-0.3,0.83L207.6,220.31z"/>
	<path d="M206.68,205.56l0.75-2.05l7.33,2.67l-0.75,2.05l-0.95-0.35c0.55,0.92,0.65,1.88,0.29,2.87c-0.36,1-1.04,1.71-2.04,2.12
		c-0.99,0.42-2.04,0.42-3.14,0.03c-1.1-0.4-1.91-1.09-2.41-2.05s-0.57-1.93-0.22-2.9c0.36-0.97,1.05-1.66,2.08-2.05L206.68,205.56z
		 M207.63,207.97c-0.21,0.58-0.19,1.14,0.06,1.68c0.25,0.55,0.66,0.92,1.23,1.13c0.57,0.21,1.13,0.19,1.67-0.07
		c0.55-0.26,0.92-0.66,1.13-1.23c0.2-0.56,0.18-1.12-0.07-1.67c-0.25-0.55-0.66-0.92-1.23-1.13c-0.57-0.21-1.12-0.18-1.67,0.06
		C208.21,206.98,207.84,207.4,207.63,207.97z"/>
	<path d="M215.27,201.29l-7.47,1.21l0.87-2.39l4.96-0.68l-3.4-3.6l0.86-2.35l9.08,10.01l-0.84,2.32L215.27,201.29z"/>
	<path d="M211.92,191.15l4.85-0.42l-3.45-3.42l0.84-2.3l6.1,6.49l-0.34,0.93l-8.84,1.02L211.92,191.15z"/>
	<path d="M210.6,181.34c0.12-0.34,0.34-0.59,0.67-0.74c0.33-0.15,0.66-0.16,1-0.04s0.59,0.36,0.74,0.68
		c0.16,0.33,0.18,0.67,0.05,1.01c-0.12,0.34-0.35,0.58-0.68,0.73c-0.33,0.15-0.67,0.17-1.01,0.04s-0.59-0.36-0.74-0.69
		C210.48,182.01,210.47,181.67,210.6,181.34z M215.29,181.91l7.33,2.67l-0.74,2.04l-7.33-2.67L215.29,181.91z"/>
	<path d="M222.61,174.23l-2,5.49c1.33,0.42,2.2,0.06,2.61-1.08c0.26-0.71,0.14-1.41-0.35-2.1l0.99-1.78
		c1.29,1.19,1.62,2.66,0.98,4.42c-0.44,1.2-1.14,2.02-2.11,2.48c-0.97,0.46-2.04,0.47-3.22,0.04c-1.18-0.43-2-1.12-2.45-2.08
		c-0.45-0.96-0.47-2.01-0.05-3.18c0.42-1.16,1.11-1.95,2.06-2.37c0.95-0.41,2.03-0.39,3.26,0.06L222.61,174.23z M219.33,179.18
		l1.26-3.47c-1.05-0.13-1.75,0.28-2.09,1.21C218.18,177.83,218.47,178.67,219.33,179.18z"/>
	<path d="M219.54,170.22l4.93-0.38l-3.7-3.61l0.32-0.88l5.22-0.36l-3.58-3.52l0.83-2.29l6.09,6.51l-0.34,0.92l-5.17,0.37l3.73,3.57
		l-0.34,0.94l-8.84,1.04L219.54,170.22z"/>
</g>
<circle fill="#FFFFFF" stroke="#000000" stroke-width="6" stroke-miterlimit="10" cx="310" cy="244" r="10"/>
<g>
	<path d="M315.19,219.44l4.18,1.52l-0.8,2.2l-11.28-4.11l1.2-3.3c0.27-0.73,0.55-1.3,0.83-1.7c0.29-0.4,0.66-0.72,1.11-0.97
		c0.97-0.52,2-0.57,3.06-0.19s1.82,1.02,2.26,1.88c0.44,0.86,0.42,1.94-0.05,3.24L315.19,219.44z M313.29,218.74l0.32-0.89
		c0.5-1.38,0.21-2.26-0.88-2.66c-1.15-0.42-1.89,0.05-2.46,1.59l-0.28,0.76L313.29,218.74z"/>
	<path d="M310.46,209.19c0.12-0.34,0.34-0.59,0.67-0.74s0.66-0.16,1-0.04c0.34,0.12,0.59,0.36,0.74,0.68
		c0.16,0.33,0.18,0.67,0.05,1.01s-0.35,0.58-0.68,0.74s-0.67,0.17-1.01,0.04c-0.34-0.12-0.59-0.36-0.74-0.69
		C310.35,209.86,310.34,209.52,310.46,209.19z M315.15,209.76l7.33,2.67l-0.74,2.04l-7.33-2.67L315.15,209.76z"/>
	<path d="M321.87,202.4l3.76,1.37l-0.75,2.05L321,204.4c-0.57-0.21-0.99-0.31-1.25-0.3c-0.26,0.01-0.49,0.09-0.7,0.25
		s-0.35,0.36-0.44,0.59c-0.17,0.46-0.07,1.04,0.3,1.47c0.18,0.22,0.61,0.44,1.26,0.67l3.76,1.37l-0.75,2.05l-7.33-2.67l0.75-2.05
		l0.85,0.31c-0.49-0.9-0.57-1.81-0.23-2.73c0.34-0.92,1.05-1.49,2.12-1.69c-0.68-0.9-0.84-1.84-0.49-2.82
		c0.36-0.98,0.97-1.56,1.83-1.73c0.52-0.1,1.15-0.02,1.92,0.26l4.73,1.72l-0.75,2.05l-4-1.46c-0.53-0.19-0.94-0.28-1.23-0.26
		c-0.5,0.03-0.84,0.3-1.02,0.8C319.98,201.17,320.49,201.89,321.87,202.4z"/>
	<path d="M316.76,191.89c0.12-0.34,0.34-0.59,0.67-0.74c0.33-0.15,0.66-0.16,1-0.04s0.59,0.36,0.74,0.68
		c0.16,0.33,0.18,0.67,0.05,1.01c-0.12,0.34-0.35,0.58-0.68,0.73c-0.33,0.15-0.67,0.17-1.01,0.04s-0.59-0.36-0.74-0.69
		C316.64,192.57,316.63,192.23,316.76,191.89z M321.45,192.47l7.33,2.67l-0.74,2.04l-7.33-2.67L321.45,192.47z"/>
	<path d="M325.32,187.15c-0.48,0.31-0.78,0.61-0.89,0.92c-0.11,0.3-0.13,0.55-0.08,0.75c0.07,0.2,0.19,0.33,0.36,0.39
		c0.17,0.06,0.34,0.04,0.51-0.08c0.16-0.12,0.45-0.43,0.85-0.93s0.76-0.85,1.07-1.05c0.57-0.4,1.22-0.47,1.96-0.21
		c0.73,0.27,1.25,0.78,1.53,1.53c0.29,0.76,0.26,1.59-0.07,2.49c-0.4,1.11-1.14,1.88-2.23,2.33l-0.86-1.53
		c0.78-0.36,1.28-0.83,1.49-1.42c0.19-0.52-0.02-1.06-0.46-1.22c-0.22-0.08-0.41-0.08-0.58,0.02c-0.16,0.1-0.46,0.4-0.89,0.92
		s-0.77,0.86-1.03,1.02c-0.52,0.36-1.11,0.42-1.79,0.17c-0.69-0.25-1.15-0.7-1.41-1.35c-0.26-0.65-0.23-1.38,0.07-2.21
		s0.84-1.49,1.62-2L325.32,187.15z"/>
	<path d="M320.68,181.1c0.12-0.34,0.34-0.58,0.67-0.74c0.33-0.15,0.66-0.16,1-0.04s0.59,0.36,0.74,0.68
		c0.16,0.33,0.18,0.67,0.05,1.01c-0.12,0.34-0.35,0.58-0.68,0.74c-0.33,0.15-0.67,0.17-1.01,0.04s-0.59-0.36-0.74-0.69
		C320.57,181.78,320.56,181.44,320.68,181.1z M325.37,181.68l7.33,2.67l-0.74,2.04l-7.33-2.67L325.37,181.68z"/>
</g>
<circle fill="#FFFFFF" stroke="#000000" stroke-width="6" stroke-miterlimit="10" cx="420" cy="244" r="10"/>
<g>
	<path d="M418.09,216.85l9.37,3.41l1.26-3.47l1.91,0.69l-2.06,5.67l-11.28-4.11L418.09,216.85z"/>
	<path d="M430.58,214.18l-7.47,1.21l0.87-2.39l4.96-0.68l-3.41-3.6l0.86-2.35l9.08,10.01l-0.84,2.32L430.58,214.18z"/>
	<path d="M427.76,201.87c0.45-1.23,1.18-2.1,2.17-2.6c1-0.51,2.08-0.55,3.24-0.13s1.96,1.15,2.39,2.19
		c0.43,1.05,0.43,2.19-0.02,3.43c-0.46,1.25-1.19,2.11-2.21,2.61c-1.01,0.5-2.09,0.54-3.23,0.12c-1.15-0.42-1.94-1.15-2.37-2.2
		C427.3,204.25,427.31,203.1,427.76,201.87z M429.59,202.57c-0.21,0.57-0.19,1.13,0.06,1.68c0.25,0.55,0.66,0.93,1.23,1.14
		c0.57,0.21,1.13,0.19,1.67-0.07c0.55-0.26,0.93-0.67,1.13-1.24c0.21-0.57,0.19-1.14-0.07-1.69c-0.25-0.55-0.66-0.92-1.23-1.13
		c-0.57-0.21-1.12-0.18-1.67,0.07C430.18,201.58,429.8,202,429.59,202.57z"/>
	<path d="M430.08,196.22l0.75-2.05l0.92,0.33c-0.61-0.93-0.67-1.72-0.31-2.71c0.33-0.9,0.88-1.5,1.65-1.81
		c0.58-0.23,1.33-0.17,2.24,0.16l4.65,1.69l-0.75,2.05l-4.06-1.48c-0.56-0.2-0.98-0.28-1.26-0.22c-0.47,0.07-0.8,0.4-1.01,0.99
		c-0.38,1.03,0.11,1.8,1.47,2.29l3.79,1.38l-0.75,2.05L430.08,196.22z"/>
</g>
<circle fill="#FFFFFF" stroke="#000000" stroke-width="6" stroke-miterlimit="10" cx="530" cy="244" r="10"/>
<g>
	<path d="M535.19,219.44l4.18,1.52l-0.8,2.2l-11.28-4.11l1.2-3.3c0.27-0.73,0.55-1.3,0.83-1.7c0.29-0.4,0.66-0.72,1.11-0.97
		c0.97-0.52,2-0.57,3.06-0.19s1.82,1.02,2.26,1.88c0.44,0.86,0.42,1.94-0.05,3.24L535.19,219.44z M533.29,218.74l0.32-0.89
		c0.5-1.38,0.21-2.26-0.88-2.66c-1.15-0.42-1.89,0.05-2.46,1.59l-0.28,0.76L533.29,218.74z"/>
	<path d="M536.35,206.47l0.75-2.05l7.33,2.67l-0.75,2.05l-0.95-0.35c0.55,0.92,0.66,1.88,0.29,2.88c-0.36,1-1.04,1.71-2.04,2.12
		c-0.99,0.41-2.04,0.42-3.14,0.03c-1.1-0.4-1.91-1.09-2.41-2.04c-0.5-0.96-0.57-1.93-0.22-2.9s1.05-1.66,2.08-2.05L536.35,206.47z
		 M537.29,208.89c-0.21,0.58-0.19,1.14,0.06,1.68c0.25,0.55,0.66,0.92,1.23,1.13c0.57,0.21,1.13,0.19,1.67-0.07
		c0.55-0.26,0.92-0.67,1.13-1.23c0.2-0.56,0.18-1.12-0.07-1.67c-0.25-0.55-0.66-0.92-1.23-1.13s-1.12-0.18-1.67,0.06
		C537.88,207.9,537.5,208.32,537.29,208.89z"/>
	<path d="M545.88,203.09l-0.75,2.05l-7.33-2.67l0.75-2.05l1.11,0.41c-0.72-0.83-0.91-1.71-0.57-2.62c0.11-0.29,0.27-0.57,0.51-0.83
		l1.8,0.98c-0.28,0.24-0.48,0.53-0.6,0.88c-0.43,1.17,0.1,2.03,1.56,2.56L545.88,203.09z"/>
	<path d="M535.45,192.32l12.67,4.61l-0.75,2.05l-12.67-4.61L535.45,192.32z"/>
	<path d="M537.54,189.73c0.12-0.34,0.34-0.58,0.67-0.74c0.33-0.15,0.66-0.16,1-0.04c0.34,0.12,0.59,0.36,0.74,0.68
		c0.16,0.33,0.18,0.67,0.05,1.01c-0.12,0.34-0.35,0.58-0.68,0.73c-0.33,0.15-0.67,0.17-1.01,0.04c-0.34-0.12-0.59-0.35-0.74-0.69
		C537.43,190.41,537.42,190.07,537.54,189.73z M542.23,190.3l7.33,2.67l-0.74,2.04l-7.33-2.67L542.23,190.3z"/>
	<path d="M544.98,182.75l0.75-2.05l7.33,2.67l-0.75,2.05l-0.95-0.35c0.55,0.92,0.66,1.88,0.29,2.87c-0.36,1-1.04,1.71-2.04,2.12
		c-0.99,0.42-2.04,0.43-3.14,0.03c-1.1-0.4-1.91-1.09-2.41-2.04s-0.57-1.93-0.22-2.9s1.05-1.66,2.08-2.05L544.98,182.75z
		 M545.93,185.17c-0.21,0.58-0.19,1.14,0.06,1.68c0.25,0.55,0.67,0.92,1.23,1.13c0.57,0.21,1.13,0.19,1.67-0.07
		c0.55-0.26,0.92-0.66,1.13-1.23c0.2-0.56,0.18-1.12-0.07-1.67c-0.25-0.55-0.66-0.92-1.23-1.13c-0.57-0.21-1.12-0.18-1.67,0.06
		C546.51,184.18,546.14,184.6,545.93,185.17z"/>
	<path d="M552.46,173.32l3.76,1.37l-0.75,2.05l-3.89-1.42c-0.57-0.21-0.99-0.31-1.25-0.3c-0.26,0.01-0.49,0.09-0.7,0.25
		c-0.21,0.16-0.35,0.36-0.44,0.59c-0.17,0.46-0.07,1.04,0.3,1.47c0.18,0.22,0.6,0.44,1.26,0.67l3.76,1.37l-0.75,2.05l-7.33-2.67
		l0.75-2.05l0.85,0.31c-0.49-0.9-0.57-1.81-0.23-2.73c0.34-0.93,1.05-1.49,2.12-1.69c-0.68-0.9-0.85-1.84-0.49-2.82
		c0.36-0.98,0.97-1.56,1.83-1.73c0.51-0.1,1.15-0.02,1.92,0.26l4.73,1.72l-0.75,2.05l-4-1.46c-0.53-0.19-0.94-0.28-1.23-0.26
		c-0.5,0.03-0.84,0.3-1.02,0.8C550.56,172.09,551.08,172.81,552.46,173.32z"/>
	<path d="M557.92,159.65l-2,5.49c1.33,0.42,2.2,0.06,2.61-1.08c0.26-0.71,0.14-1.41-0.35-2.1l0.99-1.78
		c1.29,1.19,1.62,2.66,0.98,4.42c-0.44,1.2-1.14,2.02-2.11,2.48c-0.97,0.46-2.04,0.47-3.22,0.04c-1.18-0.43-2-1.12-2.45-2.08
		c-0.45-0.96-0.47-2.01-0.05-3.18c0.42-1.17,1.11-1.95,2.06-2.37c0.95-0.41,2.03-0.39,3.26,0.06L557.92,159.65z M554.64,164.6
		l1.26-3.47c-1.05-0.13-1.75,0.28-2.09,1.21C553.49,163.24,553.78,164.09,554.64,164.6z"/>
	<path d="M554.49,156.64l0.75-2.05l0.92,0.33c-0.61-0.93-0.67-1.72-0.31-2.71c0.33-0.9,0.88-1.51,1.65-1.81
		c0.58-0.23,1.33-0.17,2.24,0.16l4.65,1.69l-0.75,2.05l-4.06-1.48c-0.56-0.2-0.98-0.28-1.26-0.22c-0.47,0.07-0.8,0.4-1.01,0.99
		c-0.38,1.03,0.11,1.8,1.47,2.29l3.79,1.38l-0.75,2.05L554.49,156.64z"/>
	<path d="M560.29,146.21l5.55,2.02l-0.75,2.05l-5.55-2.02l-0.29,0.81l-1.78-0.65l0.29-0.81l-2.5-0.91l0.75-2.05l2.5,0.91l0.53-1.45
		l1.78,0.65L560.29,146.21z"/>
</g>
<circle fill="#FFFFFF" stroke="#000000" stroke-width="6" stroke-miterlimit="10" cx="640" cy="244" r="10"/>
<g>
	<path d="M644.84,219.31l4.53,1.65l-0.8,2.2l-11.28-4.11l1.19-3.26c0.47-1.28,1.08-2.14,1.84-2.59c0.89-0.52,1.88-0.58,2.94-0.19
		c1.07,0.39,1.78,1.03,2.12,1.92c0.22,0.55,0.27,1.16,0.15,1.81l6.04-1.82l-0.99,2.71l-5.64,1.39L644.84,219.31z M643.29,218.74
		l0.23-0.64c0.51-1.4,0.15-2.38-0.94-2.78c-1.13-0.41-1.95,0.08-2.46,1.5l-0.25,0.68L643.29,218.74z"/>
	<path d="M640.71,208.51c0.12-0.34,0.34-0.59,0.67-0.74c0.33-0.15,0.66-0.16,1-0.04c0.34,0.12,0.59,0.36,0.74,0.68
		c0.16,0.33,0.18,0.67,0.05,1.01c-0.12,0.34-0.35,0.58-0.68,0.73c-0.33,0.15-0.67,0.17-1.01,0.04c-0.34-0.12-0.59-0.36-0.74-0.69
		C640.59,209.19,640.58,208.85,640.71,208.51z M645.4,209.08l7.33,2.67l-0.74,2.04l-7.33-2.67L645.4,209.08z"/>
	<path d="M642.8,199.59l0.75-2.05l12.67,4.61l-0.75,2.05l-0.95-0.35c0.55,0.92,0.66,1.88,0.29,2.88c-0.36,1-1.04,1.71-2.04,2.12
		c-0.99,0.42-2.04,0.43-3.14,0.03c-1.1-0.4-1.91-1.09-2.41-2.04s-0.57-1.93-0.21-2.9c0.35-0.97,1.05-1.66,2.08-2.05L642.8,199.59z
		 M649.09,203.95c-0.21,0.58-0.19,1.14,0.06,1.68c0.25,0.55,0.66,0.92,1.23,1.13c0.57,0.21,1.13,0.19,1.67-0.07
		c0.55-0.26,0.92-0.66,1.13-1.23c0.2-0.56,0.18-1.12-0.07-1.67c-0.25-0.55-0.66-0.92-1.23-1.13c-0.57-0.21-1.12-0.18-1.67,0.06
		C649.68,202.96,649.3,203.38,649.09,203.95z"/>
	<path d="M656.22,191.78l-2,5.49c1.33,0.42,2.2,0.06,2.61-1.08c0.26-0.71,0.14-1.41-0.35-2.1l0.99-1.78
		c1.29,1.19,1.62,2.66,0.98,4.42c-0.44,1.2-1.14,2.02-2.11,2.48s-2.04,0.47-3.22,0.04c-1.18-0.43-2-1.12-2.45-2.08
		c-0.45-0.96-0.47-2.01-0.05-3.18c0.42-1.17,1.11-1.95,2.06-2.37s2.03-0.39,3.26,0.06L656.22,191.78z M652.94,196.73l1.26-3.47
		c-1.05-0.13-1.75,0.28-2.09,1.21C651.79,195.38,652.08,196.22,652.94,196.73z"/>
	<path d="M654.83,183.16l0.75-2.05l7.33,2.67l-0.75,2.05l-0.95-0.35c0.55,0.92,0.65,1.88,0.29,2.87c-0.36,1-1.04,1.71-2.04,2.12
		c-0.99,0.42-2.04,0.42-3.14,0.03c-1.1-0.4-1.91-1.09-2.41-2.05s-0.57-1.93-0.22-2.9c0.36-0.97,1.05-1.66,2.08-2.05L654.83,183.16z
		 M655.78,185.57c-0.21,0.58-0.19,1.14,0.06,1.68c0.25,0.55,0.66,0.92,1.23,1.13c0.57,0.21,1.13,0.19,1.67-0.07
		c0.55-0.26,0.92-0.66,1.13-1.23c0.2-0.56,0.18-1.12-0.07-1.67c-0.25-0.55-0.66-0.92-1.23-1.13c-0.57-0.21-1.12-0.18-1.67,0.06
		C656.36,184.59,655.99,185,655.78,185.57z"/>
	<path d="M657.04,177.11l4.15,1.51c1.12,0.41,1.86,0.11,2.22-0.88c0.36-1-0.02-1.7-1.13-2.11l-4.15-1.51l0.75-2.05l4.48,1.63
		c1.98,0.72,2.62,2.38,1.79,4.66c-0.83,2.28-2.39,3.15-4.37,2.43l-4.48-1.63L657.04,177.11z"/>
</g>
<circle fill="#FFFFFF" stroke="#000000" stroke-width="6" stroke-miterlimit="10" cx="750" cy="244" r="10"/>
<g>
	<path d="M751.88,218.76l4.14,1.51c1.12,0.41,1.86,0.11,2.22-0.88c0.37-1-0.02-1.7-1.13-2.1l-4.14-1.51l0.74-2.05l4.49,1.63
		c1.98,0.72,2.62,2.38,1.79,4.66s-2.39,3.15-4.37,2.43l-4.48-1.63L751.88,218.76z"/>
	<path d="M752.32,204.43c0.61-1.68,1.69-2.88,3.26-3.63c1.56-0.75,3.18-0.82,4.84-0.21s2.84,1.7,3.55,3.28
		c0.7,1.58,0.74,3.23,0.12,4.93s-1.71,2.91-3.27,3.64c-1.57,0.73-3.17,0.79-4.82,0.19c-1.65-0.6-2.83-1.7-3.53-3.3
		S751.71,206.11,752.32,204.43z M754.33,205.19c-0.38,1.03-0.32,2.06,0.16,3.07c0.48,1.02,1.26,1.72,2.34,2.11
		c1.07,0.39,2.12,0.35,3.15-0.11s1.73-1.2,2.11-2.24c0.38-1.04,0.32-2.07-0.17-3.08s-1.28-1.71-2.35-2.1
		c-1.07-0.39-2.12-0.36-3.14,0.1C755.41,203.4,754.71,204.16,754.33,205.19z"/>
	<path d="M761.87,196.84l5.55,2.02l-0.75,2.05l-5.55-2.02l-0.29,0.81l-1.78-0.65l0.29-0.81l-2.5-0.91l0.75-2.05l2.5,0.91l0.53-1.45
		l1.78,0.65L761.87,196.84z"/>
	<path d="M763.69,191.82l5.55,2.02l-0.75,2.05l-5.55-2.02l-0.29,0.81l-1.78-0.65l0.29-0.81l-2.5-0.91l0.75-2.05l2.5,0.91l0.53-1.45
		l1.78,0.65L763.69,191.82z"/>
	<path d="M764.88,183.04l0.74-2.05l7.33,2.67l-0.75,2.05l-0.95-0.35c0.55,0.92,0.66,1.88,0.29,2.88c-0.36,1-1.04,1.71-2.04,2.12
		c-0.99,0.42-2.04,0.43-3.14,0.03c-1.1-0.4-1.91-1.09-2.41-2.04c-0.5-0.96-0.57-1.93-0.22-2.9c0.36-0.97,1.05-1.66,2.08-2.05
		L764.88,183.04z M765.83,185.45c-0.21,0.58-0.19,1.14,0.06,1.68c0.25,0.55,0.66,0.92,1.23,1.13c0.57,0.21,1.13,0.19,1.67-0.07
		c0.55-0.26,0.92-0.66,1.13-1.23c0.2-0.56,0.18-1.12-0.07-1.67c-0.25-0.55-0.66-0.92-1.23-1.13c-0.57-0.21-1.12-0.18-1.67,0.06
		C766.41,184.46,766.03,184.88,765.83,185.45z"/>
	<path d="M766.83,177.67l4.93-0.39l-3.7-3.61l0.32-0.88l5.22-0.36l-3.58-3.52l0.83-2.29l6.1,6.51l-0.34,0.93l-5.16,0.36l3.73,3.57
		l-0.34,0.94l-8.84,1.04L766.83,177.67z"/>
	<path d="M773.12,160.39l0.75-2.05l7.32,2.67l-0.74,2.05l-0.95-0.35c0.55,0.92,0.66,1.88,0.29,2.88c-0.37,1-1.04,1.71-2.04,2.12
		c-0.99,0.42-2.04,0.43-3.14,0.03c-1.1-0.4-1.91-1.09-2.41-2.04s-0.57-1.93-0.21-2.9c0.35-0.97,1.05-1.66,2.08-2.05L773.12,160.39z
		 M774.07,162.8c-0.21,0.58-0.19,1.14,0.06,1.68c0.25,0.55,0.66,0.92,1.23,1.13c0.57,0.21,1.13,0.19,1.67-0.07
		c0.55-0.26,0.92-0.66,1.13-1.23s0.18-1.12-0.07-1.67c-0.25-0.55-0.66-0.92-1.23-1.13c-0.57-0.21-1.12-0.18-1.67,0.06
		C774.65,161.81,774.28,162.23,774.07,162.8z"/>
</g>
<circle fill="#FFFFFF" stroke="#000000" stroke-width="6" stroke-miterlimit="10" cx="860" cy="244" r="10"/>
<g>
	<path d="M858.09,216.85l9.37,3.41l1.26-3.47l1.91,0.69l-2.06,5.67l-11.28-4.11L858.09,216.85z"/>
	<path d="M870.4,207.78l-2,5.49c1.33,0.42,2.2,0.06,2.61-1.08c0.26-0.71,0.14-1.41-0.35-2.1l0.99-1.78
		c1.29,1.19,1.62,2.65,0.98,4.42c-0.44,1.2-1.14,2.02-2.11,2.48c-0.97,0.46-2.04,0.47-3.22,0.04c-1.18-0.43-2-1.12-2.45-2.08
		c-0.45-0.96-0.47-2.01-0.05-3.18c0.42-1.17,1.11-1.95,2.06-2.37c0.95-0.41,2.03-0.39,3.26,0.06L870.4,207.78z M867.12,212.73
		l1.26-3.47c-1.05-0.13-1.75,0.28-2.09,1.21C865.97,211.38,866.26,212.22,867.12,212.73z"/>
	<path d="M873.59,199.03l-2,5.49c1.33,0.42,2.2,0.06,2.61-1.08c0.26-0.71,0.14-1.41-0.35-2.1l0.99-1.78
		c1.29,1.19,1.62,2.65,0.98,4.42c-0.44,1.2-1.14,2.02-2.11,2.48s-2.04,0.47-3.22,0.04c-1.18-0.43-2-1.12-2.45-2.08
		c-0.46-0.96-0.47-2.01-0.05-3.18c0.42-1.17,1.11-1.95,2.06-2.37c0.95-0.41,2.03-0.39,3.26,0.06L873.59,199.03z M870.31,203.98
		l1.26-3.47c-1.05-0.13-1.75,0.28-2.09,1.21C869.15,202.62,869.45,203.47,870.31,203.98z"/>
	<path d="M873.28,192.75c-0.48,0.31-0.78,0.61-0.89,0.92c-0.11,0.3-0.13,0.55-0.08,0.75c0.07,0.2,0.19,0.33,0.36,0.39
		c0.17,0.06,0.34,0.04,0.5-0.08c0.16-0.12,0.45-0.43,0.85-0.93c0.41-0.5,0.76-0.85,1.07-1.05c0.57-0.4,1.22-0.47,1.95-0.21
		c0.74,0.27,1.25,0.78,1.53,1.53c0.29,0.76,0.26,1.59-0.06,2.49c-0.4,1.11-1.14,1.88-2.23,2.33l-0.86-1.53
		c0.78-0.36,1.28-0.83,1.49-1.42c0.19-0.52-0.02-1.06-0.46-1.22c-0.22-0.08-0.41-0.08-0.58,0.02c-0.16,0.1-0.46,0.4-0.89,0.92
		c-0.43,0.52-0.77,0.86-1.03,1.02c-0.52,0.36-1.11,0.42-1.79,0.17c-0.69-0.25-1.15-0.7-1.41-1.35c-0.26-0.65-0.23-1.38,0.07-2.21
		s0.84-1.49,1.62-2L873.28,192.75z"/>
</g>
<circle fill="#FFFFFF" stroke="#000000" stroke-width="6" stroke-miterlimit="10" cx="970" cy="244" r="10"/>
<g>
	<path d="M972.45,218.44l1.73-4.77l-4.36-1.59l0.8-2.21l11.28,4.11l-0.8,2.21l-5-1.82l-1.73,4.77l5,1.82l-0.8,2.2l-11.28-4.11
		l0.8-2.2L972.45,218.44z"/>
	<path d="M976.15,207.01l4.15,1.51c1.12,0.41,1.86,0.12,2.22-0.88c0.36-1-0.02-1.7-1.13-2.1l-4.15-1.51l0.75-2.05l4.48,1.63
		c1.98,0.72,2.62,2.38,1.79,4.66c-0.83,2.28-2.39,3.15-4.37,2.43l-4.48-1.63L976.15,207.01z"/>
	<path d="M986.77,200.63l-0.75,2.05l-7.33-2.67l0.75-2.05l1.11,0.41c-0.72-0.83-0.91-1.71-0.57-2.62c0.1-0.29,0.27-0.57,0.51-0.83
		l1.8,0.98c-0.29,0.24-0.49,0.53-0.6,0.88c-0.43,1.17,0.1,2.03,1.56,2.56L986.77,200.63z"/>
	<path d="M977.59,186.43l0.75-2.05l12.67,4.61l-0.75,2.05l-0.95-0.35c0.55,0.92,0.66,1.88,0.29,2.88c-0.36,1-1.04,1.71-2.04,2.12
		s-2.04,0.42-3.14,0.03c-1.1-0.4-1.91-1.09-2.41-2.04c-0.5-0.96-0.57-1.93-0.22-2.9s1.05-1.66,2.08-2.05L977.59,186.43z
		 M983.88,190.79c-0.21,0.58-0.19,1.14,0.06,1.68c0.25,0.55,0.66,0.92,1.23,1.13c0.57,0.21,1.13,0.19,1.67-0.07
		c0.55-0.26,0.92-0.66,1.13-1.23c0.2-0.56,0.18-1.12-0.07-1.67c-0.25-0.55-0.66-0.92-1.23-1.13c-0.57-0.21-1.12-0.18-1.67,0.06
		C984.46,189.8,984.09,190.22,983.88,190.79z"/>
	<path d="M990.41,178.94l3.76,1.37l-0.75,2.05l-3.89-1.42c-0.57-0.21-0.99-0.31-1.25-0.3s-0.49,0.09-0.7,0.25
		c-0.21,0.16-0.35,0.36-0.44,0.59c-0.17,0.46-0.07,1.04,0.3,1.47c0.18,0.22,0.61,0.45,1.26,0.67l3.76,1.37l-0.75,2.05l-7.33-2.67
		l0.75-2.05l0.85,0.31c-0.49-0.9-0.57-1.81-0.23-2.73c0.34-0.92,1.05-1.49,2.12-1.69c-0.68-0.9-0.85-1.84-0.49-2.82
		c0.36-0.98,0.97-1.56,1.83-1.73c0.52-0.1,1.15-0.02,1.92,0.26l4.73,1.72l-0.75,2.05l-4-1.46c-0.53-0.19-0.94-0.28-1.23-0.26
		c-0.5,0.03-0.84,0.3-1.02,0.8C988.52,177.72,989.03,178.44,990.41,178.94z"/>
	<path d="M991.3,165.4l0.75-2.05l7.33,2.67l-0.75,2.05l-0.95-0.35c0.55,0.92,0.66,1.88,0.29,2.88c-0.36,1-1.04,1.71-2.04,2.12
		c-0.99,0.42-2.04,0.42-3.14,0.03c-1.1-0.4-1.91-1.09-2.41-2.04c-0.5-0.96-0.57-1.93-0.22-2.9c0.36-0.97,1.05-1.66,2.08-2.05
		L991.3,165.4z M992.24,167.81c-0.21,0.58-0.19,1.14,0.06,1.68c0.25,0.55,0.66,0.92,1.23,1.13c0.57,0.21,1.13,0.19,1.67-0.07
		c0.55-0.26,0.92-0.67,1.13-1.23c0.2-0.56,0.18-1.12-0.07-1.67c-0.25-0.55-0.66-0.92-1.23-1.13c-0.57-0.21-1.12-0.18-1.67,0.06
		C992.83,166.83,992.45,167.24,992.24,167.81z"/>
	<path d="M992.76,161.4l0.75-2.05l0.92,0.33c-0.61-0.93-0.67-1.72-0.31-2.71c0.33-0.9,0.88-1.5,1.65-1.81
		c0.58-0.23,1.33-0.17,2.24,0.16l4.65,1.69l-0.75,2.05l-4.06-1.48c-0.56-0.2-0.98-0.28-1.26-0.22c-0.47,0.07-0.8,0.4-1.01,0.99
		c-0.38,1.03,0.11,1.8,1.47,2.29l3.79,1.38l-0.75,2.05L992.76,161.4z"/>
</g>
<circle fill="#FFFFFF" stroke="#000000" stroke-width="6" stroke-miterlimit="10" cx="1080" cy="244" r="10"/>
<g>
	<path d="M1089.86,219.62l-0.8,2.21l-9.37-3.41l-0.92,2.52l-1.91-0.69l2.64-7.26l1.91,0.69l-0.92,2.54L1089.86,219.62z"/>
	<path d="M1091.74,214.44l-0.75,2.05l-7.33-2.67l0.75-2.05l1.11,0.41c-0.72-0.83-0.91-1.71-0.57-2.62c0.11-0.29,0.27-0.57,0.51-0.83
		l1.8,0.98c-0.28,0.24-0.49,0.54-0.6,0.88c-0.43,1.17,0.09,2.03,1.56,2.56L1091.74,214.44z"/>
	<path d="M1092.49,202.04l-2,5.49c1.33,0.42,2.2,0.06,2.61-1.08c0.26-0.71,0.14-1.41-0.35-2.1l0.99-1.78
		c1.29,1.19,1.62,2.65,0.98,4.42c-0.44,1.2-1.14,2.02-2.11,2.48s-2.04,0.47-3.22,0.04s-2-1.12-2.45-2.08
		c-0.46-0.96-0.47-2.01-0.05-3.18c0.42-1.17,1.11-1.95,2.06-2.37s2.03-0.39,3.26,0.06L1092.49,202.04z M1089.21,206.99l1.26-3.47
		c-1.05-0.13-1.75,0.28-2.09,1.21C1088.06,205.64,1088.35,206.48,1089.21,206.99z"/>
	<path d="M1095.08,193.6l3.76,1.37l-0.75,2.05l-3.89-1.42c-0.57-0.21-0.99-0.31-1.25-0.3s-0.49,0.09-0.7,0.25
		c-0.21,0.16-0.35,0.36-0.44,0.59c-0.17,0.46-0.07,1.04,0.3,1.47c0.18,0.22,0.6,0.44,1.26,0.67l3.76,1.37l-0.75,2.05l-7.33-2.67
		l0.75-2.05l0.85,0.31c-0.49-0.9-0.57-1.81-0.23-2.73c0.34-0.92,1.05-1.49,2.12-1.69c-0.68-0.9-0.85-1.84-0.49-2.82
		c0.36-0.98,0.97-1.56,1.83-1.73c0.51-0.1,1.15-0.02,1.92,0.26l4.73,1.72l-0.75,2.05l-4-1.46c-0.53-0.19-0.94-0.28-1.23-0.26
		c-0.5,0.03-0.84,0.3-1.02,0.8C1093.18,192.38,1093.7,193.1,1095.08,193.6z"/>
	<path d="M1089.32,181.69l6.29,2.29c-0.54-0.97-0.63-1.95-0.27-2.92c0.35-0.97,1.03-1.67,2.02-2.08c0.99-0.42,2.04-0.42,3.16-0.01
		c1.12,0.41,1.92,1.08,2.41,2.04c0.49,0.96,0.56,1.93,0.2,2.93c-0.36,1-1.06,1.67-2.08,2.02l0.95,0.35l-0.75,2.05l-12.67-4.61
		L1089.32,181.69z M1096.94,182.38c-0.21,0.57-0.18,1.12,0.07,1.67s0.66,0.92,1.23,1.13c0.57,0.21,1.13,0.19,1.67-0.07
		c0.55-0.26,0.92-0.66,1.13-1.23c0.21-0.56,0.18-1.12-0.07-1.67c-0.25-0.55-0.65-0.93-1.22-1.14c-0.57-0.21-1.12-0.18-1.67,0.07
		C1097.52,181.41,1097.15,181.81,1096.94,182.38z"/>
	<path d="M1092.82,172.06l12.67,4.61l-0.75,2.05l-12.67-4.61L1092.82,172.06z"/>
	<path d="M1100.92,166.43l0.75-2.05l7.33,2.67l-0.75,2.05l-0.95-0.35c0.55,0.92,0.66,1.88,0.29,2.87c-0.36,1-1.04,1.71-2.04,2.12
		c-0.99,0.42-2.04,0.42-3.14,0.03c-1.1-0.4-1.91-1.09-2.41-2.05s-0.57-1.93-0.21-2.9c0.35-0.97,1.05-1.66,2.08-2.05L1100.92,166.43z
		 M1101.87,168.85c-0.21,0.58-0.19,1.14,0.06,1.68c0.25,0.55,0.66,0.92,1.23,1.13c0.57,0.21,1.13,0.19,1.67-0.07
		c0.55-0.26,0.92-0.66,1.13-1.23c0.21-0.56,0.18-1.12-0.07-1.67c-0.25-0.55-0.66-0.92-1.23-1.13c-0.57-0.21-1.12-0.18-1.67,0.06
		C1102.45,167.86,1102.08,168.28,1101.87,168.85z"/>
	<path d="M1109.51,162.17l-7.47,1.21l0.87-2.39l4.96-0.68l-3.41-3.6l0.86-2.35l9.08,10.01l-0.84,2.32L1109.51,162.17z"/>
</g>
<circle fill="#FFFFFF" stroke="#000000" stroke-width="6" stroke-miterlimit="10" cx="1190" cy="244" r="10"/>
<g>
	<path d="M1190.93,218c0.32,0.12,0.63,0.1,0.91-0.07c0.29-0.17,0.75-0.62,1.4-1.39c0.65-0.76,1.22-1.28,1.72-1.55
		c0.81-0.47,1.73-0.5,2.8-0.11s1.81,1.07,2.23,2.04c0.42,0.97,0.43,2.04,0,3.22c-0.58,1.59-1.77,2.62-3.56,3.09l-0.85-1.92
		c1.19-0.16,1.98-0.77,2.36-1.81c0.18-0.5,0.19-0.98,0.01-1.42c-0.18-0.43-0.5-0.73-0.97-0.91c-0.47-0.17-0.92-0.11-1.35,0.19
		c-0.21,0.14-0.66,0.62-1.33,1.43c-0.68,0.81-1.33,1.34-1.94,1.6c-0.61,0.25-1.29,0.24-2.03-0.03c-0.95-0.35-1.61-0.96-1.99-1.86
		s-0.39-1.84-0.02-2.86c0.46-1.25,1.28-2.21,2.46-2.86l1.08,1.7c-0.81,0.31-1.33,0.81-1.57,1.5c-0.17,0.45-0.18,0.87-0.05,1.26
		C1190.37,217.63,1190.61,217.88,1190.93,218z"/>
	<path d="M1197.01,210.18l5.55,2.02l-0.75,2.05l-5.55-2.02l-0.29,0.81l-1.78-0.65l0.29-0.81l-2.5-0.91l0.75-2.05l2.5,0.91l0.53-1.45
		l1.78,0.65L1197.01,210.18z"/>
	<path d="M1198.58,208.42l1.39-3.81l1.7,0.62l-1.39,3.81L1198.58,208.42z"/>
	<path d="M1194.69,198.73l9.37,3.41l1.26-3.47l1.91,0.69l-2.06,5.67l-11.28-4.11L1194.69,198.73z"/>
	<path d="M1202.42,189.79l0.75-2.05l7.33,2.67l-0.75,2.05l-0.95-0.35c0.55,0.92,0.66,1.88,0.29,2.88c-0.36,1-1.04,1.71-2.04,2.12
		c-0.99,0.42-2.04,0.43-3.14,0.03c-1.1-0.4-1.91-1.09-2.41-2.04c-0.5-0.96-0.57-1.93-0.22-2.9c0.36-0.97,1.05-1.66,2.08-2.05
		L1202.42,189.79z M1203.37,192.2c-0.21,0.58-0.19,1.14,0.06,1.68c0.25,0.55,0.66,0.92,1.23,1.13c0.57,0.21,1.13,0.19,1.67-0.07
		c0.55-0.26,0.92-0.66,1.13-1.23s0.18-1.12-0.07-1.67c-0.25-0.55-0.66-0.92-1.23-1.13c-0.57-0.21-1.12-0.18-1.67,0.06
		C1203.95,191.22,1203.57,191.63,1203.37,192.2z"/>
	<path d="M1204.62,183.74l4.15,1.51c1.11,0.41,1.86,0.12,2.22-0.88s-0.02-1.7-1.13-2.11l-4.15-1.51l0.75-2.05l4.49,1.63
		c1.98,0.72,2.62,2.38,1.79,4.66c-0.83,2.28-2.39,3.15-4.37,2.43l-4.48-1.63L1204.62,183.74z"/>
	<path d="M1215.24,177.36l-0.75,2.05l-7.33-2.67l0.75-2.05l1.12,0.41c-0.72-0.83-0.91-1.71-0.57-2.62c0.11-0.29,0.27-0.57,0.51-0.83
		l1.8,0.98c-0.29,0.24-0.49,0.54-0.6,0.88c-0.43,1.17,0.1,2.03,1.56,2.56L1215.24,177.36z"/>
	<path d="M1215.99,164.96l-2,5.49c1.33,0.42,2.2,0.06,2.61-1.08c0.26-0.71,0.14-1.41-0.35-2.1l0.99-1.78
		c1.29,1.19,1.62,2.66,0.98,4.42c-0.44,1.2-1.14,2.02-2.11,2.48s-2.04,0.47-3.22,0.04s-2-1.12-2.45-2.08
		c-0.45-0.96-0.47-2.01-0.05-3.18c0.42-1.17,1.11-1.95,2.06-2.37c0.95-0.41,2.03-0.39,3.26,0.06L1215.99,164.96z M1212.71,169.91
		l1.26-3.47c-1.05-0.13-1.75,0.28-2.09,1.21C1211.55,168.55,1211.84,169.4,1212.71,169.91z"/>
	<path d="M1212.55,161.95l0.75-2.05l0.92,0.33c-0.61-0.93-0.67-1.72-0.31-2.71c0.33-0.9,0.88-1.51,1.65-1.81
		c0.58-0.23,1.33-0.17,2.24,0.16l4.65,1.69l-0.75,2.05l-4.06-1.48c-0.56-0.2-0.98-0.28-1.26-0.22c-0.47,0.07-0.8,0.4-1.01,0.99
		c-0.38,1.03,0.11,1.8,1.47,2.29l3.79,1.38l-0.75,2.05L1212.55,161.95z"/>
	<path d="M1218.36,151.52l5.55,2.02l-0.75,2.05l-5.55-2.02l-0.29,0.81l-1.78-0.65l0.29-0.81l-2.5-0.91l0.75-2.05l2.5,0.91l0.53-1.45
		l1.78,0.65L1218.36,151.52z"/>
</g>
<circle fill="#FFFFFF" stroke="#000000" stroke-width="6" stroke-miterlimit="10" cx="1300" cy="244" r="10"/>
<g>
	<path d="M1303.28,212.02c-1.16,0.55-1.92,1.33-2.29,2.34c-0.37,1.01-0.3,2,0.19,2.99c0.49,0.99,1.29,1.69,2.39,2.09
		c1.1,0.4,2.14,0.38,3.14-0.07c0.99-0.44,1.68-1.2,2.07-2.27c0.19-0.53,0.27-1.03,0.23-1.51c-0.04-0.48-0.2-1.03-0.48-1.64
		l2.58,0.94c0.09,1.11-0.02,2.11-0.34,3c-0.61,1.67-1.68,2.88-3.23,3.61c-1.55,0.74-3.14,0.81-4.78,0.21
		c-1.64-0.6-2.83-1.68-3.57-3.27c-0.74-1.59-0.81-3.2-0.21-4.85c0.33-0.92,0.9-1.75,1.7-2.51L1303.28,212.02z"/>
	<path d="M1311.85,210.68l-7.47,1.21l0.87-2.39l4.96-0.68l-3.41-3.6l0.86-2.35l9.08,10.01l-0.84,2.32L1311.85,210.68z"/>
	<path d="M1316.09,202.5l-0.75,2.05l-7.33-2.67l0.75-2.05l1.12,0.41c-0.72-0.83-0.91-1.71-0.57-2.62c0.11-0.29,0.27-0.57,0.51-0.83
		l1.8,0.98c-0.29,0.24-0.48,0.54-0.6,0.88c-0.43,1.17,0.1,2.03,1.56,2.56L1316.09,202.5z"/>
	<path d="M1310.91,193.94l4.85-0.42l-3.45-3.42l0.84-2.3l6.1,6.49l-0.34,0.93l-8.84,1.02L1310.91,193.94z"/>
	<path d="M1309.58,184.12c0.12-0.34,0.34-0.59,0.67-0.74c0.33-0.15,0.66-0.16,1-0.04c0.34,0.12,0.59,0.36,0.74,0.68
		c0.16,0.33,0.18,0.67,0.05,1.01c-0.12,0.34-0.35,0.58-0.68,0.73c-0.33,0.15-0.67,0.17-1.01,0.04c-0.34-0.12-0.59-0.36-0.74-0.69
		C1309.47,184.8,1309.46,184.46,1309.58,184.12z M1314.28,184.7l7.33,2.67l-0.74,2.04l-7.33-2.67L1314.28,184.7z"/>
	<path d="M1310.38,178.77l12.67,4.61l-0.75,2.05l-12.67-4.61L1310.38,178.77z"/>
	<path d="M1311.84,174.76l12.67,4.61l-0.75,2.05l-12.67-4.61L1311.84,174.76z"/>
	<path d="M1324.51,169l-2,5.49c1.33,0.42,2.2,0.06,2.61-1.08c0.26-0.71,0.14-1.41-0.35-2.1l0.99-1.78c1.29,1.19,1.62,2.66,0.98,4.42
		c-0.44,1.2-1.14,2.02-2.11,2.48c-0.97,0.46-2.04,0.47-3.22,0.04c-1.18-0.43-2-1.12-2.45-2.08c-0.46-0.96-0.47-2.01-0.05-3.18
		c0.42-1.17,1.11-1.95,2.06-2.37c0.95-0.41,2.03-0.39,3.26,0.06L1324.51,169z M1321.23,173.96l1.26-3.47
		c-1.05-0.13-1.75,0.28-2.09,1.21C1320.08,172.6,1320.37,173.45,1321.23,173.96z"/>
</g>
<circle fill="#FFFFFF" stroke="#000000" stroke-width="6" stroke-miterlimit="10" cx="1410" cy="244" r="10"/>
<g>
	<path d="M1418.57,223.16l-11.28-4.11l1.02-2.79c0.46-1.27,1.02-2.11,1.68-2.5c0.77-0.48,1.67-0.54,2.67-0.18
		c0.62,0.23,1.11,0.56,1.46,1.01c0.16,0.23,0.28,0.59,0.38,1.06c0.4-0.62,0.81-1.02,1.25-1.21c0.73-0.34,1.56-0.35,2.47-0.02
		c0.92,0.33,1.55,0.94,1.9,1.8c0.35,0.87,0.3,1.91-0.15,3.14L1418.57,223.16z M1412.79,218.56l0.23-0.63
		c0.42-1.14,0.13-1.89-0.84-2.24s-1.67,0.03-2.07,1.14l-0.24,0.66L1412.79,218.56z M1417.6,220.31l0.35-0.95
		c0.53-1.46,0.28-2.39-0.75-2.76c-0.57-0.21-1.07-0.14-1.5,0.2c-0.33,0.24-0.64,0.76-0.93,1.54l-0.3,0.83L1417.6,220.31z"/>
	<path d="M1410.04,207.18l12.67,4.61l-0.75,2.05l-12.67-4.61L1410.04,207.18z"/>
	<path d="M1418.14,201.55l0.75-2.05l7.33,2.67l-0.75,2.05l-0.95-0.35c0.55,0.92,0.66,1.88,0.29,2.88s-1.04,1.71-2.04,2.12
		c-0.99,0.42-2.04,0.43-3.14,0.03c-1.1-0.4-1.91-1.09-2.41-2.05c-0.5-0.96-0.57-1.93-0.22-2.9s1.05-1.66,2.08-2.05L1418.14,201.55z
		 M1419.09,203.96c-0.21,0.58-0.19,1.14,0.06,1.68c0.25,0.55,0.67,0.92,1.23,1.13c0.57,0.21,1.13,0.19,1.67-0.07
		c0.55-0.26,0.92-0.66,1.13-1.23c0.2-0.56,0.18-1.12-0.07-1.67c-0.25-0.55-0.66-0.92-1.23-1.13c-0.57-0.21-1.12-0.18-1.67,0.06
		C1419.67,202.98,1419.29,203.39,1419.09,203.96z"/>
	<path d="M1415.64,194.96c0.12-0.34,0.34-0.59,0.67-0.74c0.33-0.15,0.66-0.16,1-0.04c0.34,0.12,0.59,0.36,0.74,0.68
		c0.16,0.33,0.18,0.67,0.05,1.01c-0.12,0.34-0.35,0.58-0.68,0.73c-0.33,0.15-0.67,0.17-1.01,0.04s-0.59-0.36-0.74-0.69
		C1415.52,195.64,1415.51,195.3,1415.64,194.96z M1420.33,195.54l7.33,2.67l-0.74,2.04l-7.33-2.67L1420.33,195.54z"/>
	<path d="M1429.1,194.22l-0.75,2.05l-7.33-2.67l0.75-2.05l1.12,0.41c-0.72-0.83-0.91-1.71-0.57-2.62c0.1-0.29,0.27-0.57,0.51-0.83
		l1.8,0.98c-0.28,0.24-0.48,0.53-0.6,0.88c-0.43,1.17,0.09,2.03,1.56,2.56L1429.1,194.22z"/>
</g>
<g>
	<path fill="#9B9B9B" d="M692.26,283.22v2.95h-1.43v-7.34h2.12c0.83,0,1.46,0.17,1.87,0.52c0.48,0.4,0.73,0.96,0.73,1.65
		c0,0.7-0.22,1.23-0.66,1.62c-0.27,0.24-0.61,0.4-1.01,0.47l2.31,3.09h-1.76l-1.98-2.95H692.26z M692.26,282.21h0.42
		c0.91,0,1.4-0.41,1.4-1.12c0-0.74-0.46-1.1-1.38-1.1h-0.44V282.21z"/>
	<path fill="#9B9B9B" d="M700.42,281.4h1.33v4.76h-1.33v-0.62c-0.41,0.51-0.94,0.77-1.59,0.77s-1.2-0.24-1.64-0.72
		c-0.45-0.48-0.67-1.09-0.67-1.8s0.23-1.32,0.67-1.81c0.45-0.49,0.99-0.73,1.62-0.73s1.17,0.26,1.61,0.77V281.4z M699.24,282.45
		c-0.38,0-0.69,0.13-0.95,0.39c-0.26,0.26-0.39,0.57-0.39,0.95s0.13,0.69,0.39,0.95c0.26,0.26,0.57,0.39,0.94,0.39
		s0.68-0.13,0.95-0.39c0.26-0.26,0.39-0.57,0.39-0.94c0-0.37-0.13-0.68-0.38-0.95C699.93,282.58,699.61,282.45,699.24,282.45z"/>
	<path fill="#9B9B9B" d="M703.69,278.59c0.22,0,0.41,0.07,0.56,0.23s0.23,0.34,0.23,0.56c0,0.22-0.08,0.41-0.24,0.57
		c-0.16,0.16-0.35,0.24-0.57,0.24s-0.41-0.08-0.56-0.24s-0.24-0.35-0.24-0.57s0.08-0.41,0.24-0.57
		C703.27,278.66,703.46,278.59,703.69,278.59z M704.33,281.4v4.76h-1.33v-4.76H704.33z"/>
	<path fill="#9B9B9B" d="M706.92,277.93v8.24h-1.33v-8.24H706.92z"/>
	<path fill="#9B9B9B" d="M715.04,280.07h-2.45v1.63h2.3v1.24h-2.3v3.22h-1.43v-7.34h3.88V280.07z"/>
	<path fill="#9B9B9B" d="M719.61,281.4h1.33v4.76h-1.33v-0.62c-0.41,0.51-0.94,0.77-1.59,0.77s-1.2-0.24-1.64-0.72
		c-0.45-0.48-0.67-1.09-0.67-1.8s0.23-1.32,0.67-1.81c0.45-0.49,0.99-0.73,1.62-0.73s1.17,0.26,1.61,0.77V281.4z M718.42,282.45
		c-0.38,0-0.69,0.13-0.95,0.39c-0.26,0.26-0.39,0.57-0.39,0.95s0.13,0.69,0.39,0.95c0.26,0.26,0.57,0.39,0.94,0.39
		s0.68-0.13,0.95-0.39c0.26-0.26,0.39-0.57,0.39-0.94c0-0.37-0.13-0.68-0.38-0.95C719.11,282.58,718.79,282.45,718.42,282.45z"/>
	<path fill="#9B9B9B" d="M722.22,281.4h1.33v0.6c0.41-0.54,0.85-0.75,1.49-0.75c0.59,0,1.05,0.19,1.39,0.57
		c0.25,0.29,0.38,0.73,0.38,1.32v3.02h-1.33v-2.64c0-0.37-0.04-0.62-0.13-0.77c-0.14-0.25-0.4-0.38-0.78-0.38
		c-0.67,0-1.01,0.44-1.01,1.32v2.46h-1.33V281.4z"/>
	<path fill="#9B9B9B" d="M730.68,282.52c-0.28-0.21-0.52-0.32-0.71-0.32s-0.34,0.04-0.45,0.11c-0.1,0.08-0.15,0.18-0.15,0.29
		s0.05,0.2,0.15,0.27c0.1,0.07,0.34,0.17,0.71,0.3s0.65,0.26,0.83,0.39c0.35,0.24,0.53,0.6,0.53,1.08s-0.19,0.88-0.56,1.2
		c-0.38,0.32-0.86,0.48-1.44,0.48c-0.72,0-1.32-0.26-1.8-0.79l0.7-0.81c0.37,0.37,0.75,0.56,1.13,0.56c0.34,0,0.61-0.24,0.61-0.52
		c0-0.15-0.04-0.25-0.13-0.33c-0.09-0.07-0.33-0.18-0.71-0.32c-0.39-0.14-0.66-0.26-0.8-0.38c-0.32-0.22-0.47-0.55-0.47-0.99
		s0.16-0.81,0.48-1.09c0.32-0.28,0.75-0.42,1.28-0.42s1.03,0.17,1.49,0.51L730.68,282.52z"/>
	<path fill="#9B9B9B" d="M740.78,280.8c-0.56-0.55-1.17-0.83-1.82-0.83s-1.21,0.25-1.68,0.74c-0.47,0.49-0.7,1.1-0.7,1.81
		c0,0.71,0.23,1.31,0.7,1.79c0.46,0.48,1.04,0.71,1.73,0.71c0.34,0,0.65-0.06,0.92-0.18c0.27-0.12,0.55-0.33,0.84-0.62v1.68
		c-0.62,0.29-1.21,0.43-1.79,0.43c-1.08,0-2-0.37-2.75-1.1s-1.12-1.63-1.12-2.7c0-1.07,0.38-1.98,1.13-2.73s1.67-1.13,2.74-1.13
		c0.6,0,1.19,0.15,1.79,0.45V280.8z"/>
	<path fill="#9B9B9B" d="M745.54,281.4h1.33v4.76h-1.33v-0.62c-0.41,0.51-0.94,0.77-1.59,0.77s-1.2-0.24-1.64-0.72
		c-0.45-0.48-0.67-1.09-0.67-1.8s0.23-1.32,0.67-1.81c0.45-0.49,0.99-0.73,1.62-0.73s1.17,0.26,1.61,0.77V281.4z M744.35,282.45
		c-0.38,0-0.69,0.13-0.95,0.39c-0.26,0.26-0.39,0.57-0.39,0.95s0.13,0.69,0.39,0.95c0.26,0.26,0.57,0.39,0.94,0.39
		s0.68-0.13,0.95-0.39c0.26-0.26,0.39-0.57,0.39-0.94c0-0.37-0.13-0.68-0.38-0.95C745.04,282.58,744.72,282.45,744.35,282.45z"/>
	<path fill="#9B9B9B" d="M748.14,281.4h1.33v0.6c0.41-0.54,0.85-0.75,1.49-0.75c0.59,0,1.05,0.19,1.39,0.57
		c0.25,0.29,0.38,0.73,0.38,1.32v3.02h-1.33v-2.64c0-0.37-0.04-0.62-0.13-0.77c-0.14-0.25-0.4-0.38-0.78-0.38
		c-0.67,0-1.01,0.44-1.01,1.32v2.46h-1.33V281.4z"/>
	<path fill="#9B9B9B" d="M757.65,281.4h1.33v4.76h-1.33v-0.62c-0.41,0.51-0.94,0.77-1.59,0.77c-0.65,0-1.2-0.24-1.64-0.72
		c-0.45-0.48-0.67-1.09-0.67-1.8s0.23-1.32,0.67-1.81c0.45-0.49,0.99-0.73,1.62-0.73c0.63,0,1.17,0.26,1.61,0.77V281.4z
		 M756.47,282.45c-0.38,0-0.69,0.13-0.95,0.39c-0.26,0.26-0.39,0.57-0.39,0.95s0.13,0.69,0.39,0.95c0.26,0.26,0.58,0.39,0.94,0.39
		s0.68-0.13,0.95-0.39c0.26-0.26,0.39-0.57,0.39-0.94c0-0.37-0.13-0.68-0.38-0.95C757.15,282.58,756.84,282.45,756.47,282.45z"/>
	<path fill="#9B9B9B" d="M763.91,277.93h1.33v8.24h-1.33v-0.62c-0.41,0.51-0.94,0.77-1.59,0.77s-1.2-0.24-1.64-0.72
		c-0.45-0.48-0.67-1.09-0.67-1.8s0.23-1.32,0.67-1.81c0.45-0.49,0.99-0.73,1.62-0.73s1.17,0.26,1.61,0.77V277.93z M762.72,282.45
		c-0.38,0-0.69,0.13-0.95,0.39c-0.26,0.26-0.39,0.57-0.39,0.95s0.13,0.69,0.39,0.95c0.26,0.26,0.57,0.39,0.94,0.39
		s0.68-0.13,0.95-0.39c0.26-0.26,0.39-0.57,0.39-0.94c0-0.37-0.13-0.68-0.38-0.95C763.41,282.58,763.09,282.45,762.72,282.45z"/>
	<path fill="#9B9B9B" d="M770.21,281.4h1.33v4.76h-1.33v-0.62c-0.41,0.51-0.94,0.77-1.59,0.77c-0.65,0-1.2-0.24-1.64-0.72
		c-0.45-0.48-0.67-1.09-0.67-1.8s0.23-1.32,0.67-1.81c0.45-0.49,0.99-0.73,1.62-0.73c0.63,0,1.17,0.26,1.61,0.77V281.4z
		 M769.02,282.45c-0.38,0-0.69,0.13-0.95,0.39c-0.26,0.26-0.39,0.57-0.39,0.95s0.13,0.69,0.39,0.95c0.26,0.26,0.57,0.39,0.94,0.39
		s0.68-0.13,0.95-0.39c0.26-0.26,0.39-0.57,0.39-0.94c0-0.37-0.13-0.68-0.38-0.95C769.71,282.58,769.39,282.45,769.02,282.45z"/>
	<path fill="#9B9B9B" d="M774.93,283.09h7.4v1.11h-7.4V283.09z"/>
	<path fill="#9B9B9B" d="M790.6,284.93v1.24h-5.33l2.17-2.46c0.67-0.76,1.11-1.33,1.34-1.69c0.23-0.36,0.34-0.7,0.34-1.01
		c0-0.31-0.11-0.58-0.32-0.79c-0.22-0.21-0.49-0.32-0.8-0.32c-0.32,0-0.58,0.11-0.76,0.32c-0.19,0.21-0.29,0.51-0.31,0.89h-1.53
		c0.05-0.76,0.31-1.36,0.77-1.81c0.46-0.45,1.06-0.67,1.8-0.67c0.74,0,1.35,0.23,1.85,0.67c0.49,0.45,0.74,1.04,0.74,1.76
		s-0.45,1.56-1.33,2.5l-1.28,1.35H790.6z"/>
	<path fill="#9B9B9B" d="M794.45,278.64c0.83,0,1.52,0.38,2.07,1.12c0.5,0.7,0.76,1.62,0.76,2.73s-0.25,2.03-0.76,2.74
		c-0.52,0.7-1.29,1.12-2.08,1.12c-0.85,0-1.54-0.37-2.06-1.1s-0.78-1.65-0.78-2.78s0.25-2.02,0.76-2.72
		C792.92,279.02,793.61,278.64,794.45,278.64z M794.44,279.91c-0.41,0-0.75,0.24-1.02,0.72c-0.27,0.48-0.4,1.1-0.4,1.86
		c0,0.76,0.13,1.38,0.4,1.87c0.26,0.49,0.61,0.73,1.02,0.73c0.41,0,0.76-0.24,1.02-0.72c0.26-0.48,0.39-1.11,0.39-1.86
		c0-0.76-0.13-1.38-0.4-1.86S794.85,279.91,794.44,279.91z"/>
	<path fill="#9B9B9B" d="M803.07,284.93v1.24h-5.33l2.16-2.46c0.67-0.76,1.11-1.33,1.34-1.69c0.23-0.36,0.34-0.7,0.34-1.01
		c0-0.31-0.11-0.58-0.32-0.79c-0.22-0.21-0.49-0.32-0.81-0.32c-0.32,0-0.57,0.11-0.76,0.32c-0.19,0.21-0.3,0.51-0.31,0.89h-1.53
		c0.05-0.76,0.31-1.36,0.77-1.81c0.46-0.45,1.06-0.67,1.8-0.67c0.74,0,1.35,0.23,1.85,0.67c0.49,0.45,0.74,1.04,0.74,1.76
		s-0.45,1.56-1.33,2.5l-1.28,1.35H803.07z"/>
	<path fill="#9B9B9B" d="M809.02,282.04c0.44,0.47,0.66,1.06,0.66,1.79s-0.26,1.33-0.77,1.8c-0.52,0.48-1.19,0.72-2,0.72
		s-1.49-0.24-2.01-0.71c-0.52-0.47-0.79-1.07-0.79-1.81s0.31-1.51,0.92-2.32l2.23-2.98l1.02,0.76l-1.74,2.23
		c0.31-0.12,0.6-0.19,0.86-0.19C808.04,281.34,808.58,281.57,809.02,282.04z M806.91,282.48c-0.38,0-0.7,0.13-0.97,0.39
		c-0.26,0.26-0.4,0.59-0.4,0.98s0.13,0.71,0.4,0.97s0.59,0.4,0.96,0.4s0.69-0.13,0.96-0.4s0.39-0.58,0.39-0.97s-0.13-0.7-0.38-0.97
		C807.61,282.62,807.29,282.48,806.91,282.48z"/>
</g>
<g>
	<path d="M38.56,33.21c-2.23-2.21-4.66-3.31-7.28-3.31s-4.86,0.99-6.7,2.94c-1.87,1.96-2.79,4.38-2.79,7.24s0.92,5.24,2.79,7.15
		c1.85,1.91,4.17,2.86,6.94,2.86c1.38,0,2.6-0.24,3.67-0.73s2.19-1.31,3.37-2.47v6.72c-2.47,1.14-4.86,1.72-7.18,1.72
		c-4.34,0-8.01-1.46-11-4.4s-4.49-6.53-4.49-10.81s1.5-7.91,4.53-10.94s6.68-4.53,10.96-4.53c2.38,0,4.77,0.6,7.18,1.8V33.21z"/>
	<path d="M52.89,35.02c3.2,0,5.8,0.95,7.8,2.81s3.01,4.32,3.01,7.33s-1.01,5.46-3.03,7.33c-2.04,1.87-4.66,2.81-7.91,2.81
		s-5.84-0.97-7.84-2.88s-2.99-4.34-2.99-7.33s1.03-5.41,3.07-7.28S49.69,35.02,52.89,35.02z M52.82,39.81
		c-1.48,0-2.75,0.52-3.8,1.55s-1.59,2.3-1.59,3.78s0.52,2.75,1.57,3.78c1.05,1.05,2.32,1.57,3.8,1.57s2.77-0.52,3.82-1.57
		c1.05-1.03,1.57-2.28,1.57-3.76s-0.52-2.73-1.57-3.78S54.3,39.81,52.82,39.81z"/>
	<path d="M67.8,35.62h5.33V38c1.63-2.17,3.39-2.99,5.97-2.99c2.34,0,4.19,0.75,5.54,2.28c1.01,1.14,1.5,2.9,1.5,5.29v12.1h-5.33
		V44.1c0-1.46-0.17-2.49-0.54-3.07c-0.56-1.01-1.59-1.5-3.12-1.5c-2.69,0-4.04,1.76-4.04,5.29v9.86H67.8V35.62z"/>
	<path d="M96.74,40.24v14.44h-5.33V40.24h-2.06v-4.62h2.06v-6.1c0-2.51,0.58-4.47,1.76-5.82c1.53-1.68,3.39-2.51,5.63-2.51
		c0.95,0,1.89,0.21,2.81,0.67v4.83c-1.03-0.47-1.85-0.71-2.43-0.69c-1.05,0-1.74,0.45-2.06,1.35c-0.26,0.56-0.39,1.55-0.39,2.94
		v5.33h4.88v4.62H96.74z"/>
	<path d="M123.12,46.02h-14.29c0.15,3.42,1.7,5.11,4.66,5.09c1.85,0,3.35-0.86,4.53-2.56l4.92,0.79c-1.65,3.95-4.75,5.93-9.32,5.95
		c-3.12,0-5.59-0.92-7.46-2.77s-2.79-4.3-2.79-7.37s0.9-5.52,2.73-7.37s4.23-2.77,7.26-2.77s5.41,0.92,7.15,2.75s2.6,4.34,2.6,7.54
		V46.02z M109,42.62h9.02c-0.58-2.51-2.11-3.78-4.53-3.78C111.15,38.84,109.46,40.21,109,42.62z"/>
	<path d="M141.77,21.72h5.33v32.96h-5.33V52.2c-1.65,2.04-3.76,3.07-6.36,3.07s-4.79-0.97-6.57-2.9s-2.69-4.34-2.69-7.2
		s0.9-5.29,2.69-7.24s3.95-2.92,6.49-2.92s4.68,1.03,6.45,3.07V21.72z M137.02,39.81c-1.5,0-2.77,0.52-3.8,1.55
		c-1.05,1.03-1.57,2.3-1.57,3.78s0.52,2.75,1.57,3.78c1.05,1.05,2.3,1.57,3.76,1.57s2.73-0.52,3.78-1.57
		c1.05-1.03,1.57-2.28,1.57-3.76s-0.52-2.73-1.53-3.78C139.77,40.32,138.5,39.81,137.02,39.81z"/>
	<path d="M170.92,46.02h-14.29c0.15,3.42,1.7,5.11,4.66,5.09c1.85,0,3.35-0.86,4.53-2.56l4.92,0.79c-1.65,3.95-4.75,5.93-9.32,5.95
		c-3.12,0-5.59-0.92-7.46-2.77s-2.79-4.3-2.79-7.37s0.9-5.52,2.73-7.37s4.23-2.77,7.26-2.77s5.41,0.92,7.15,2.75s2.6,4.34,2.6,7.54
		V46.02z M156.81,42.62h9.02c-0.58-2.51-2.11-3.78-4.53-3.78C158.96,38.84,157.26,40.21,156.81,42.62z"/>
	<path d="M180.29,54.67h-5.33V35.62h5.33v2.9c1.31-2.34,3.16-3.52,5.54-3.5c0.75,0,1.53,0.15,2.32,0.47l-0.75,4.96
		c-0.79-0.45-1.63-0.67-2.54-0.64c-3.05,0-4.58,1.91-4.58,5.71V54.67z"/>
	<path d="M205.23,35.62h5.33v19.06h-5.33V52.2c-1.65,2.04-3.76,3.07-6.36,3.07s-4.79-0.97-6.57-2.9s-2.69-4.34-2.69-7.2
		s0.9-5.29,2.69-7.24s3.95-2.92,6.49-2.92s4.68,1.03,6.45,3.07V35.62z M200.48,39.81c-1.5,0-2.77,0.52-3.8,1.55
		c-1.05,1.03-1.57,2.3-1.57,3.78s0.52,2.75,1.57,3.78c1.05,1.05,2.3,1.57,3.76,1.57s2.73-0.52,3.78-1.57
		c1.05-1.03,1.57-2.28,1.57-3.76s-0.52-2.73-1.53-3.78C203.23,40.32,201.97,39.81,200.48,39.81z"/>
	<path d="M221.65,40.24v14.44h-5.33V40.24h-2.11v-4.62h2.11v-6.51h5.33v6.51h3.78v4.62H221.65z"/>
	<path d="M231.1,24.36c0.88,0,1.63,0.3,2.26,0.92s0.92,1.38,0.92,2.26s-0.32,1.65-0.95,2.28c-0.62,0.64-1.4,0.97-2.28,0.97
		s-1.63-0.32-2.26-0.95s-0.95-1.4-0.95-2.28s0.32-1.65,0.97-2.28C229.45,24.66,230.22,24.36,231.1,24.36z M233.7,35.62v19.06h-5.31
		V35.62H233.7z"/>
	<path d="M248.67,35.02c3.2,0,5.8,0.95,7.8,2.81s3.01,4.32,3.01,7.33s-1.01,5.46-3.03,7.33c-2.04,1.87-4.66,2.81-7.91,2.81
		s-5.84-0.97-7.84-2.88s-2.99-4.34-2.99-7.33s1.03-5.41,3.07-7.28S245.47,35.02,248.67,35.02z M248.61,39.81
		c-1.48,0-2.75,0.52-3.8,1.55s-1.59,2.3-1.59,3.78s0.52,2.75,1.57,3.78c1.05,1.05,2.32,1.57,3.8,1.57s2.77-0.52,3.82-1.57
		c1.05-1.03,1.57-2.28,1.57-3.76s-0.52-2.73-1.57-3.78S250.09,39.81,248.61,39.81z"/>
	<path d="M263.58,35.62h5.33V38c1.63-2.17,3.39-2.99,5.97-2.99c2.34,0,4.19,0.75,5.54,2.28c1.01,1.14,1.5,2.9,1.5,5.29v12.1h-5.33
		V44.1c0-1.46-0.17-2.49-0.54-3.07c-0.56-1.01-1.59-1.5-3.12-1.5c-2.69,0-4.04,1.76-4.04,5.29v9.86h-5.33V35.62z"/>
	<path d="M304.58,25.33v24.38h9.02v4.96h-14.74V25.33H304.58z"/>
	<path d="M319.51,24.36c0.88,0,1.63,0.3,2.26,0.92s0.92,1.38,0.92,2.26s-0.32,1.65-0.95,2.28c-0.62,0.64-1.4,0.97-2.28,0.97
		s-1.63-0.32-2.26-0.95s-0.95-1.4-0.95-2.28s0.32-1.65,0.97-2.28C317.85,24.66,318.63,24.36,319.51,24.36z M322.11,35.62v19.06
		h-5.31V35.62H322.11z"/>
	<path d="M327.13,35.62h5.33V38c1.63-2.17,3.39-2.99,5.97-2.99c2.34,0,4.19,0.75,5.54,2.28c1.01,1.14,1.5,2.9,1.5,5.29v12.1h-5.33
		V44.1c0-1.46-0.17-2.49-0.54-3.07c-0.56-1.01-1.59-1.5-3.12-1.5c-2.69,0-4.04,1.76-4.04,5.29v9.86h-5.33V35.62z"/>
	<path d="M369.31,46.02h-14.29c0.15,3.42,1.7,5.11,4.66,5.09c1.85,0,3.35-0.86,4.53-2.56l4.92,0.79c-1.65,3.95-4.75,5.93-9.32,5.95
		c-3.12,0-5.59-0.92-7.46-2.77s-2.79-4.3-2.79-7.37s0.9-5.52,2.73-7.37s4.23-2.77,7.26-2.77s5.41,0.92,7.15,2.75s2.6,4.34,2.6,7.54
		V46.02z M355.19,42.62h9.02c-0.58-2.51-2.11-3.78-4.53-3.78C357.34,38.84,355.64,40.21,355.19,42.62z"/>
	<path d="M390.75,51.6c0.62,3.24,1.5,5.99,2.62,8.23l-4.28,2.32c-1.27-2.41-2.19-4.9-2.77-7.48c-1.05-4.4-1.59-8.85-1.59-13.34
		c0-8.04,1.46-14.82,4.36-20.37l4.28,2.34c-2.38,5.07-3.57,11.15-3.57,18.22C389.8,44.98,390.13,48.36,390.75,51.6z"/>
	<path d="M419,49.71v4.96h-21.33l8.66-9.82c2.66-3.05,4.45-5.31,5.37-6.75s1.38-2.79,1.38-4.04s-0.43-2.3-1.29-3.16
		c-0.88-0.84-1.96-1.27-3.22-1.27s-2.3,0.43-3.05,1.27c-0.77,0.84-1.18,2.04-1.25,3.57h-6.12c0.19-3.05,1.22-5.46,3.09-7.24
		c1.85-1.78,4.25-2.66,7.22-2.66c2.94,0,5.41,0.9,7.39,2.69c1.96,1.8,2.94,4.15,2.94,7.05s-1.78,6.23-5.33,9.99l-5.11,5.41H419z"/>
	<path d="M434.38,24.57c3.33,0,6.08,1.5,8.29,4.49c2.02,2.81,3.03,6.47,3.03,10.91s-1.01,8.1-3.03,10.96
		c-2.06,2.81-5.16,4.49-8.31,4.49c-3.42,0-6.17-1.46-8.25-4.38s-3.14-6.62-3.14-11.11s1.01-8.1,3.03-10.87
		C428.26,26.08,431.05,24.57,434.38,24.57z M434.36,29.64c-1.65,0-3.01,0.97-4.08,2.88s-1.61,4.4-1.61,7.43s0.54,5.52,1.59,7.48
		s2.43,2.92,4.08,2.92s3.03-0.97,4.08-2.9s1.57-4.43,1.57-7.46s-0.54-5.52-1.59-7.46S436,29.64,434.36,29.64z"/>
	<path d="M456.79,30.29h-4.23v-4.96h9.95v29.35h-5.71V30.29z"/>
	<path d="M475.7,41.83c-1.76-1.87-2.64-4.25-2.64-7.13s1.05-5.29,3.16-7.22c2.08-1.93,4.77-2.9,8.04-2.9s5.93,0.95,7.99,2.81
		s3.09,4.3,3.09,7.26s-1.22,6.06-3.7,9.28l-8.89,11.97l-4.04-3.07l6.9-8.89c-1.27,0.47-2.41,0.71-3.44,0.71
		C479.61,44.64,477.46,43.7,475.7,41.83z M484.25,29.11c-1.48,0-2.77,0.54-3.85,1.61s-1.61,2.36-1.61,3.89s0.52,2.81,1.57,3.87
		s2.32,1.59,3.85,1.59s2.79-0.54,3.85-1.61c1.03-1.05,1.55-2.36,1.55-3.89s-0.52-2.81-1.55-3.87
		C487,29.64,485.73,29.11,484.25,29.11z"/>
	<path d="M502.79,31.56c-0.62-3.24-1.5-5.99-2.62-8.25l4.25-2.34c1.27,2.41,2.19,4.9,2.77,7.48c1.05,4.4,1.59,8.85,1.59,13.34
		c0,8.04-1.46,14.82-4.36,20.37l-4.25-2.32c2.38-5.09,3.57-11.17,3.57-18.22C503.74,38.17,503.41,34.82,502.79,31.56z"/>
</g>
</svg>
