<?xml version="1.0" encoding="iso-8859-1"?>
<!-- Generator: Adobe Illustrator 29.8.4, SVG Export Plug-In . SVG Version: 9.03 Build 0)  -->
<svg version="1.1" id="Layer_1" xmlns="http://www.w3.org/2000/svg" xmlns:xlink="http://www.w3.org/1999/xlink" x="0px" y="0px"
	 viewBox="0 0 1500 270" enable-background="new 0 0 1500 270" xml:space="preserve">
<rect id="bg-white" fill="#FFFFFF" width="1500" height="270"/>
<line fill="none" stroke="#00A5A5" stroke-width="16" stroke-linecap="round" stroke-miterlimit="10" x1="90" y1="222" x2="1410" y2="222"/>
<circle fill="#FFFFFF" stroke="#000000" stroke-width="6" stroke-miterlimit="10" cx="90" cy="222" r="10"/>
<g>
	<path d="M94.6,193.28l1.88-5.15c1.48,0.55,2.53,1.15,3.13,1.8c1.55,1.61,1.98,3.74,1.16,5.98c-0.62,1.71-1.69,2.93-3.2,3.64
		c-1.5,0.72-3.11,0.77-4.82,0.14c-1.71-0.62-2.92-1.7-3.63-3.24c-0.71-1.54-0.75-3.17-0.12-4.91c0.78-2.14,2.25-3.44,4.42-3.87
		l0.33,2.31c-1.36,0.27-2.28,1.04-2.74,2.31c-0.39,1.07-0.34,2.08,0.15,3.06c0.49,0.97,1.29,1.67,2.42,2.08
		c1.12,0.41,2.17,0.4,3.16-0.04s1.66-1.18,2.05-2.25c0.29-0.8,0.32-1.55,0.08-2.26c-0.24-0.71-0.7-1.23-1.39-1.57l-0.96,2.65
		L94.6,193.28z"/>
	<path d="M97.88,180.26l0.75-2.05l7.33,2.67l-0.75,2.05l-0.95-0.35c0.55,0.92,0.66,1.88,0.29,2.87c-0.36,1-1.04,1.71-2.04,2.12
		c-0.99,0.42-2.04,0.43-3.14,0.03c-1.1-0.4-1.91-1.09-2.41-2.04c-0.5-0.96-0.57-1.93-0.22-2.9c0.36-0.97,1.05-1.66,2.08-2.05
		L97.88,180.26z M98.83,182.67c-0.21,0.58-0.19,1.14,0.06,1.68c0.25,0.55,0.66,0.92,1.23,1.13c0.57,0.21,1.13,0.19,1.67-0.07
		c0.55-0.26,0.92-0.66,1.13-1.23c0.2-0.56,0.18-1.12-0.07-1.67c-0.25-0.55-0.66-0.92-1.23-1.13c-0.57-0.21-1.12-0.18-1.67,0.06
		C99.41,181.69,99.04,182.1,98.83,182.67z"/>
	<path d="M107.41,176.87l-0.75,2.05l-7.33-2.67l0.75-2.05l1.12,0.41c-0.72-0.83-0.91-1.71-0.57-2.62c0.11-0.29,0.27-0.57,0.51-0.83
		l1.8,0.98c-0.28,0.24-0.48,0.54-0.6,0.88c-0.43,1.17,0.09,2.03,1.56,2.56L107.41,176.87z"/>
	<path d="M108.16,164.47l-2,5.49c1.33,0.42,2.2,0.06,2.61-1.08c0.26-0.71,0.14-1.41-0.35-2.1l0.99-1.78
		c1.29,1.19,1.62,2.66,0.98,4.42c-0.44,1.2-1.14,2.02-2.11,2.48c-0.97,0.46-2.04,0.47-3.22,0.04c-1.18-0.43-2-1.12-2.45-2.08
		c-0.45-0.96-0.47-2.01-0.05-3.18c0.42-1.17,1.11-1.95,2.06-2.37c0.95-0.41,2.03-0.39,3.26,0.06L108.16,164.47z M104.88,169.42
		l1.26-3.47c-1.05-0.13-1.75,0.28-2.09,1.21C103.72,168.07,104.01,168.91,104.88,169.42z"/>
	<path d="M110.5,152.56c-0.62,0.38-1.03,0.87-1.24,1.46s-0.2,1.14,0.04,1.69s0.66,0.92,1.25,1.14c0.59,0.22,1.15,0.2,1.69-0.07
		s0.91-0.69,1.13-1.28c0.22-0.59,0.22-1.22,0-1.89l1.99,0.72c0.09,0.71,0.01,1.39-0.22,2.04c-0.41,1.14-1.13,1.95-2.16,2.45
		c-1.01,0.5-2.08,0.54-3.18,0.14c-1.1-0.4-1.89-1.13-2.37-2.17c-0.47-1.04-0.5-2.14-0.09-3.28c0.24-0.67,0.62-1.23,1.12-1.7
		L110.5,152.56z"/>
	<path d="M115.45,144.44l-2,5.49c1.33,0.42,2.2,0.06,2.61-1.08c0.26-0.71,0.14-1.41-0.35-2.1l0.99-1.78
		c1.29,1.19,1.62,2.66,0.98,4.42c-0.44,1.2-1.14,2.02-2.11,2.48s-2.04,0.47-3.22,0.04s-2-1.12-2.45-2.08
		c-0.46-0.96-0.47-2.01-0.05-3.18c0.42-1.17,1.11-1.95,2.06-2.37c0.95-0.41,2.03-0.39,3.26,0.06L115.45,144.44z M112.17,149.39
		l1.26-3.47c-1.05-0.13-1.75,0.28-2.09,1.21C111.02,148.03,111.31,148.88,112.17,149.39z"/>
	<path d="M112.02,141.43l0.75-2.05l0.92,0.33c-0.61-0.93-0.67-1.72-0.31-2.71c0.33-0.9,0.88-1.51,1.65-1.81
		c0.58-0.23,1.33-0.17,2.24,0.16l4.65,1.69l-0.75,2.05l-4.06-1.48c-0.56-0.2-0.98-0.28-1.26-0.22c-0.47,0.07-0.8,0.4-1.01,0.99
		c-0.38,1.03,0.11,1.8,1.47,2.29l3.79,1.38l-0.75,2.05L112.02,141.43z"/>
	<path d="M117.82,131l5.55,2.02l-0.75,2.05l-5.55-2.02l-0.29,0.81l-1.78-0.65l0.29-0.81l-2.5-0.91l0.75-2.05l2.5,0.91l0.53-1.45
		l1.78,0.65L117.82,131z"/>
	<path d="M125.07,128.34l-0.75,2.05l-7.33-2.67l0.75-2.05l1.11,0.41c-0.72-0.83-0.91-1.71-0.57-2.62c0.11-0.29,0.27-0.57,0.51-0.83
		l1.8,0.98c-0.28,0.24-0.48,0.53-0.6,0.88c-0.43,1.17,0.1,2.03,1.56,2.56L125.07,128.34z"/>
	<path d="M121.24,116.09l0.75-2.05l7.33,2.67l-0.75,2.05l-0.95-0.35c0.55,0.92,0.65,1.88,0.29,2.88c-0.36,1-1.04,1.71-2.04,2.12
		c-0.99,0.42-2.04,0.42-3.14,0.03c-1.1-0.4-1.91-1.09-2.41-2.04c-0.5-0.96-0.57-1.93-0.22-2.9c0.35-0.97,1.05-1.66,2.08-2.05
		L121.24,116.09z M122.18,118.5c-0.21,0.58-0.19,1.14,0.06,1.68c0.25,0.55,0.67,0.92,1.23,1.13c0.57,0.21,1.13,0.19,1.67-0.07
		c0.55-0.26,0.92-0.66,1.13-1.23c0.21-0.56,0.18-1.12-0.07-1.67c-0.25-0.55-0.66-0.92-1.23-1.13c-0.57-0.21-1.12-0.18-1.67,0.06
		C122.77,117.52,122.39,117.93,122.18,118.5z"/>
	<path d="M118.1,108.09l12.67,4.61l-0.75,2.05l-12.67-4.61L118.1,108.09z"/>
	<path d="M130.77,102.33l-2,5.49c1.33,0.42,2.2,0.06,2.61-1.08c0.26-0.71,0.14-1.41-0.35-2.1l0.99-1.78
		c1.29,1.19,1.62,2.65,0.98,4.42c-0.44,1.2-1.14,2.02-2.11,2.48c-0.97,0.46-2.04,0.47-3.22,0.04c-1.18-0.43-2-1.12-2.45-2.08
		c-0.45-0.96-0.47-2.01-0.05-3.18c0.42-1.17,1.11-1.95,2.06-2.37c0.95-0.41,2.03-0.39,3.26,0.06L130.77,102.33z M127.49,107.28
		l1.26-3.47c-1.05-0.13-1.75,0.28-2.09,1.21C126.34,105.93,126.63,106.77,127.49,107.28z"/>
</g>
<circle fill="#FFFFFF" stroke="#000000" stroke-width="6" stroke-miterlimit="10" cx="420" cy="222" r="10"/>
<g>
	<path d="M416.33,197.61l-1.37-3.49l3.3-1.82l0.63,1.42l-2.11,1.07l0.93,2.18L416.33,197.61z M419.75,194.6l11.28,4.11l-0.8,2.2
		l-11.28-4.11L419.75,194.6z"/>
	<path d="M419.93,189.78l12.67,4.61l-0.75,2.05l-12.67-4.61L419.93,189.78z"/>
	<path d="M432.6,184.02l-2,5.49c1.33,0.42,2.2,0.06,2.61-1.08c0.26-0.71,0.14-1.41-0.35-2.1l0.99-1.78
		c1.29,1.19,1.62,2.66,0.98,4.42c-0.44,1.2-1.14,2.02-2.11,2.48c-0.97,0.46-2.04,0.47-3.22,0.04s-2-1.12-2.45-2.08
		c-0.45-0.96-0.47-2.01-0.05-3.18c0.42-1.16,1.11-1.95,2.06-2.37c0.95-0.41,2.03-0.39,3.26,0.06L432.6,184.02z M429.32,188.97
		l1.26-3.47c-1.05-0.13-1.75,0.28-2.09,1.21C428.17,187.62,428.46,188.46,429.32,188.97z"/>
	<path d="M431.67,182.21l1.38-3.81l1.7,0.62l-1.38,3.81L431.67,182.21z"/>
	<path d="M427.52,168.93l0.75-2.05l12.67,4.61l-0.75,2.05l-0.95-0.35c0.55,0.92,0.66,1.88,0.29,2.87c-0.36,1-1.04,1.71-2.04,2.12
		s-2.04,0.42-3.14,0.03c-1.1-0.4-1.91-1.09-2.41-2.05c-0.5-0.96-0.57-1.93-0.22-2.9c0.35-0.97,1.05-1.66,2.08-2.05L427.52,168.93z
		 M433.81,173.28c-0.21,0.58-0.19,1.14,0.06,1.68c0.25,0.55,0.66,0.92,1.23,1.13c0.57,0.21,1.13,0.19,1.67-0.07
		c0.55-0.26,0.92-0.66,1.13-1.23c0.2-0.56,0.18-1.12-0.07-1.67c-0.25-0.55-0.66-0.92-1.23-1.13c-0.57-0.21-1.12-0.18-1.67,0.06
		C434.39,172.3,434.01,172.71,433.81,173.28z"/>
	<path d="M440.94,161.12l-2,5.49c1.33,0.42,2.2,0.06,2.61-1.08c0.26-0.71,0.14-1.41-0.35-2.1l0.99-1.78
		c1.29,1.19,1.62,2.66,0.98,4.42c-0.44,1.2-1.14,2.02-2.11,2.48c-0.97,0.46-2.04,0.47-3.22,0.04c-1.18-0.43-2-1.12-2.45-2.08
		c-0.45-0.96-0.47-2.01-0.05-3.18c0.42-1.16,1.11-1.95,2.06-2.37c0.95-0.41,2.03-0.39,3.26,0.06L440.94,161.12z M437.66,166.07
		l1.26-3.47c-1.05-0.13-1.75,0.28-2.09,1.21C436.5,164.72,436.8,165.56,437.66,166.07z"/>
	<path d="M440.63,154.84c-0.48,0.31-0.78,0.62-0.89,0.92s-0.13,0.55-0.08,0.75c0.07,0.2,0.19,0.33,0.36,0.39s0.34,0.04,0.51-0.08
		c0.16-0.12,0.45-0.43,0.85-0.92s0.76-0.86,1.07-1.05c0.57-0.4,1.22-0.47,1.96-0.21s1.25,0.78,1.53,1.53
		c0.29,0.76,0.26,1.59-0.07,2.49c-0.4,1.11-1.14,1.88-2.23,2.33l-0.86-1.53c0.78-0.36,1.28-0.84,1.49-1.42
		c0.19-0.52-0.02-1.07-0.46-1.22c-0.22-0.08-0.41-0.08-0.58,0.02c-0.16,0.1-0.46,0.4-0.89,0.92c-0.43,0.52-0.77,0.86-1.03,1.02
		c-0.52,0.36-1.11,0.42-1.79,0.17s-1.15-0.7-1.41-1.35c-0.26-0.65-0.23-1.38,0.07-2.21s0.84-1.49,1.62-2L440.63,154.84z"/>
	<path d="M442.39,152.75l1.39-3.81l1.7,0.62l-1.39,3.81L442.39,152.75z"/>
	<path d="M441.46,143.87c0.32,0.12,0.63,0.1,0.91-0.07c0.29-0.17,0.75-0.62,1.4-1.39c0.65-0.76,1.22-1.28,1.72-1.55
		c0.81-0.46,1.73-0.5,2.8-0.11s1.81,1.07,2.23,2.04c0.42,0.97,0.43,2.04,0,3.22c-0.58,1.59-1.77,2.62-3.56,3.09l-0.85-1.92
		c1.19-0.16,1.98-0.77,2.36-1.81c0.18-0.5,0.19-0.98,0.01-1.42c-0.18-0.43-0.5-0.73-0.97-0.9c-0.47-0.17-0.92-0.11-1.35,0.19
		c-0.21,0.14-0.66,0.62-1.33,1.43c-0.68,0.81-1.33,1.34-1.94,1.6c-0.61,0.25-1.29,0.24-2.03-0.03c-0.95-0.35-1.61-0.96-1.99-1.86
		c-0.38-0.89-0.39-1.84-0.02-2.86c0.46-1.25,1.28-2.21,2.46-2.86l1.08,1.7c-0.81,0.32-1.33,0.81-1.57,1.5
		c-0.17,0.45-0.18,0.87-0.05,1.26C440.91,143.5,441.14,143.75,441.46,143.87z"/>
	<path d="M451.83,131.18c1.28,0.36,2.26-0.06,2.65-1.14c0.27-0.74,0.14-1.44-0.39-2.08l1.01-1.77c1.3,1.16,1.62,2.65,0.96,4.47
		c-0.45,1.25-1.28,2.04-2.47,2.37c0.35,0.65,0.55,1.25,0.59,1.79c0.05,0.54-0.05,1.15-0.3,1.83c-0.43,1.17-1.14,2.01-2.15,2.5
		c-1,0.5-2.07,0.54-3.2,0.13c-1.12-0.41-1.92-1.14-2.38-2.17c-0.46-1.04-0.47-2.17-0.03-3.38c0.44-1.21,1.25-2.05,2.42-2.52
		c-0.65-0.99-0.75-2.11-0.29-3.34c0.33-0.9,0.82-1.59,1.47-2.06c0.66-0.46,1.4-0.67,2.25-0.6c0.57,0.04,1.21,0.19,1.88,0.43
		L451.83,131.18z M447.98,134.41c-0.2,0.55-0.18,1.09,0.07,1.61c0.25,0.53,0.66,0.89,1.23,1.1s1.13,0.2,1.67-0.04
		c0.54-0.22,0.92-0.62,1.13-1.19c0.2-0.56,0.18-1.1-0.09-1.64c-0.26-0.52-0.68-0.89-1.25-1.1c-0.57-0.21-1.13-0.19-1.66,0.05
		S448.18,133.85,447.98,134.41z M451.83,127.12c-1.06-0.1-1.75,0.3-2.09,1.21c-0.33,0.92-0.06,1.68,0.81,2.3L451.83,127.12z"/>
	<path d="M451.18,120.54l4.15,1.51c1.12,0.41,1.86,0.12,2.22-0.88c0.36-1-0.02-1.7-1.13-2.11l-4.15-1.51l0.75-2.05l4.48,1.63
		c1.98,0.72,2.62,2.38,1.79,4.66c-0.83,2.28-2.39,3.15-4.37,2.43l-4.49-1.63L451.18,120.54z"/>
	<path d="M461.8,114.16l-0.75,2.05l-7.33-2.67l0.75-2.05l1.12,0.41c-0.72-0.83-0.91-1.71-0.57-2.62c0.11-0.29,0.27-0.57,0.51-0.83
		l1.8,0.98c-0.28,0.24-0.48,0.53-0.6,0.88c-0.43,1.17,0.09,2.03,1.56,2.56L461.8,114.16z"/>
	<path d="M459.08,104.14c-0.48,0.31-0.78,0.62-0.89,0.92c-0.11,0.31-0.13,0.55-0.08,0.75c0.07,0.2,0.19,0.33,0.36,0.39
		c0.17,0.06,0.34,0.04,0.5-0.08c0.16-0.12,0.45-0.43,0.85-0.92c0.41-0.5,0.76-0.85,1.07-1.05c0.57-0.4,1.22-0.47,1.95-0.21
		s1.25,0.78,1.53,1.53c0.29,0.76,0.26,1.59-0.06,2.49c-0.4,1.11-1.14,1.88-2.23,2.33l-0.86-1.53c0.78-0.36,1.28-0.84,1.49-1.42
		c0.19-0.52-0.02-1.07-0.46-1.22c-0.22-0.08-0.41-0.08-0.58,0.02c-0.16,0.1-0.46,0.4-0.89,0.92c-0.43,0.52-0.77,0.86-1.03,1.02
		c-0.52,0.36-1.11,0.42-1.79,0.17s-1.15-0.7-1.41-1.35c-0.26-0.65-0.23-1.39,0.07-2.21c0.3-0.83,0.84-1.49,1.62-2L459.08,104.14z"/>
</g>
<circle fill="#FFFFFF" stroke="#000000" stroke-width="6" stroke-miterlimit="10" cx="750" cy="222" r="10"/>
<g>
	<path d="M755.19,197.44l4.18,1.52l-0.8,2.2l-11.28-4.11l1.2-3.3c0.27-0.73,0.55-1.3,0.83-1.7c0.29-0.4,0.66-0.72,1.11-0.97
		c0.97-0.52,2-0.57,3.06-0.19s1.82,1.02,2.26,1.88c0.44,0.86,0.42,1.94-0.05,3.24L755.19,197.44z M753.29,196.74l0.32-0.89
		c0.5-1.38,0.21-2.26-0.88-2.66c-1.15-0.42-1.89,0.05-2.46,1.59l-0.28,0.76L753.29,196.74z"/>
	<path d="M756.35,184.47l0.75-2.05l7.33,2.67l-0.75,2.05l-0.95-0.35c0.55,0.92,0.66,1.88,0.29,2.88c-0.36,1-1.04,1.71-2.04,2.12
		c-0.99,0.41-2.04,0.42-3.14,0.03c-1.1-0.4-1.91-1.09-2.41-2.04c-0.5-0.96-0.57-1.93-0.22-2.9s1.05-1.66,2.08-2.05L756.35,184.47z
		 M757.29,186.89c-0.21,0.58-0.19,1.14,0.06,1.68c0.25,0.55,0.66,0.92,1.23,1.13c0.57,0.21,1.13,0.19,1.67-0.07
		c0.55-0.26,0.92-0.67,1.13-1.23c0.2-0.56,0.18-1.12-0.07-1.67c-0.25-0.55-0.66-0.92-1.23-1.13s-1.12-0.18-1.67,0.06
		C757.88,185.9,757.5,186.32,757.29,186.89z"/>
	<path d="M757.81,180.47l0.75-2.05l0.92,0.33c-0.61-0.93-0.67-1.72-0.31-2.71c0.33-0.9,0.88-1.5,1.65-1.81
		c0.58-0.23,1.33-0.17,2.24,0.16l4.65,1.69l-0.75,2.05l-4.06-1.48c-0.56-0.2-0.98-0.28-1.26-0.22c-0.47,0.07-0.8,0.4-1.01,0.99
		c-0.38,1.03,0.11,1.8,1.47,2.29l3.79,1.38l-0.75,2.05L757.81,180.47z"/>
	<path d="M763.13,165.84l0.75-2.05l7.33,2.67l-0.75,2.05l-0.95-0.35c0.55,0.92,0.66,1.88,0.29,2.88c-0.36,1-1.04,1.71-2.04,2.12
		c-0.99,0.42-2.04,0.43-3.14,0.03c-1.1-0.4-1.91-1.09-2.41-2.04s-0.57-1.93-0.22-2.9s1.05-1.66,2.08-2.05L763.13,165.84z
		 M764.08,168.25c-0.21,0.58-0.19,1.14,0.06,1.68c0.25,0.55,0.67,0.92,1.23,1.13c0.57,0.21,1.13,0.19,1.67-0.07
		c0.55-0.26,0.92-0.66,1.13-1.23c0.2-0.56,0.18-1.12-0.07-1.67c-0.25-0.55-0.66-0.92-1.23-1.13c-0.57-0.21-1.12-0.18-1.67,0.06
		C764.66,167.27,764.28,167.68,764.08,168.25z"/>
	<path d="M770.61,156.4l3.76,1.37l-0.75,2.05l-3.89-1.42c-0.57-0.21-0.99-0.31-1.25-0.3c-0.26,0.01-0.49,0.09-0.7,0.25
		c-0.21,0.16-0.35,0.36-0.44,0.59c-0.17,0.46-0.07,1.04,0.3,1.47c0.18,0.22,0.61,0.44,1.26,0.67l3.76,1.37l-0.75,2.05l-7.33-2.67
		l0.75-2.05l0.85,0.31c-0.49-0.9-0.57-1.81-0.23-2.73s1.05-1.49,2.12-1.69c-0.68-0.9-0.85-1.84-0.49-2.82
		c0.36-0.98,0.97-1.56,1.83-1.73c0.52-0.1,1.15-0.02,1.92,0.26l4.73,1.72l-0.75,2.05l-4-1.46c-0.53-0.19-0.94-0.28-1.23-0.26
		c-0.5,0.03-0.84,0.3-1.02,0.8C768.71,155.18,769.23,155.9,770.61,156.4z"/>
	<path d="M771.49,142.87l0.75-2.05l7.33,2.67l-0.75,2.05l-0.95-0.35c0.55,0.92,0.66,1.88,0.29,2.88c-0.36,1-1.04,1.71-2.04,2.12
		c-0.99,0.42-2.04,0.43-3.14,0.03c-1.1-0.4-1.91-1.09-2.41-2.04c-0.5-0.96-0.57-1.93-0.22-2.9c0.36-0.97,1.05-1.66,2.08-2.05
		L771.49,142.87z M772.44,145.28c-0.21,0.58-0.19,1.14,0.06,1.68c0.25,0.55,0.66,0.92,1.23,1.13c0.57,0.21,1.13,0.19,1.67-0.07
		c0.55-0.26,0.92-0.66,1.13-1.23s0.18-1.12-0.07-1.67c-0.25-0.55-0.66-0.92-1.23-1.13c-0.57-0.21-1.12-0.18-1.67,0.06
		C773.02,144.29,772.65,144.71,772.44,145.28z"/>
</g>
<circle fill="#FFFFFF" stroke="#000000" stroke-width="6" stroke-miterlimit="10" cx="1080" cy="222" r="10"/>
<g>
	<path d="M1088.57,201.16l-11.28-4.11l1.18-3.23c0.6-1.64,1.53-2.83,2.77-3.56c0.75-0.45,1.57-0.71,2.46-0.79
		c0.89-0.08,1.75,0.04,2.6,0.35c0.84,0.31,1.58,0.78,2.22,1.42c0.64,0.64,1.1,1.38,1.39,2.22c0.49,1.34,0.44,2.84-0.16,4.5
		L1088.57,201.16z M1087.46,198.26l0.22-0.59c0.49-1.35,0.56-2.45,0.19-3.33c-0.39-1.01-1.31-1.86-2.4-2.26
		c-1.15-0.42-2.24-0.36-3.25,0.2c-0.86,0.45-1.53,1.34-2.01,2.67l-0.22,0.59L1087.46,198.26z"/>
	<path d="M1085.99,185.45l4.15,1.51c1.12,0.41,1.86,0.11,2.22-0.89c0.36-1-0.02-1.7-1.13-2.1l-4.15-1.51l0.75-2.05l4.48,1.63
		c1.98,0.72,2.62,2.38,1.79,4.66c-0.83,2.28-2.39,3.15-4.37,2.43l-4.49-1.63L1085.99,185.45z"/>
	<path d="M1091.69,175.1c-1.66-0.6-2.85-1.7-3.56-3.29s-0.76-3.23-0.14-4.94c0.62-1.71,1.71-2.93,3.28-3.68
		c1.56-0.75,3.18-0.82,4.85-0.21c1.46,0.53,2.62,1.55,3.45,3.05l2.48-1.16l-0.59,2.29l-1.37,0.56c0.22,1.14,0.12,2.28-0.28,3.42
		c-0.63,1.73-1.72,2.97-3.27,3.73C1094.96,175.63,1093.35,175.7,1091.69,175.1z M1097.32,166.97c-0.44-0.82-1.17-1.42-2.18-1.79
		c-1.02-0.37-2.02-0.33-3.04,0.14c-1.01,0.46-1.71,1.23-2.1,2.29c-0.39,1.07-0.35,2.11,0.14,3.11c0.48,1.01,1.28,1.71,2.38,2.11
		c1.11,0.4,2.16,0.37,3.15-0.08c1-0.45,1.68-1.2,2.07-2.26c0.23-0.64,0.28-1.23,0.14-1.79l-2.92,1.41l0.64-2.35L1097.32,166.97z"/>
	<path d="M1095.8,158.51l4.15,1.51c1.12,0.41,1.86,0.11,2.22-0.88c0.36-1-0.02-1.7-1.13-2.1l-4.15-1.51l0.75-2.05l4.49,1.63
		c1.98,0.72,2.62,2.38,1.79,4.66s-2.39,3.15-4.37,2.43l-4.48-1.63L1095.8,158.51z"/>
	<path d="M1100.39,145.9l0.75-2.05l7.33,2.67l-0.75,2.05l-0.95-0.35c0.55,0.92,0.66,1.88,0.29,2.88c-0.36,1-1.04,1.71-2.04,2.12
		s-2.04,0.42-3.14,0.03c-1.1-0.4-1.91-1.09-2.41-2.04c-0.5-0.96-0.57-1.93-0.22-2.9s1.05-1.66,2.08-2.05L1100.39,145.9z
		 M1101.34,148.31c-0.21,0.58-0.19,1.14,0.06,1.68c0.25,0.55,0.66,0.92,1.23,1.13c0.57,0.21,1.13,0.19,1.67-0.07
		c0.55-0.26,0.92-0.66,1.13-1.23c0.21-0.56,0.18-1.12-0.07-1.67c-0.25-0.55-0.66-0.92-1.23-1.13c-0.57-0.21-1.12-0.18-1.67,0.06
		C1101.92,147.32,1101.54,147.74,1101.34,148.31z"/>
	<path d="M1109.92,142.51l-0.75,2.05l-7.33-2.67l0.75-2.05l1.11,0.41c-0.72-0.83-0.91-1.71-0.57-2.62c0.1-0.29,0.27-0.57,0.51-0.83
		l1.8,0.98c-0.29,0.24-0.49,0.53-0.6,0.88c-0.43,1.17,0.1,2.03,1.56,2.56L1109.92,142.51z"/>
	<path d="M1106.76,133.91l5.55,2.02l-0.75,2.05l-5.55-2.02l-0.29,0.81l-1.78-0.65l0.29-0.81l-2.5-0.91l0.75-2.05l2.5,0.91l0.53-1.45
		l1.78,0.65L1106.76,133.91z"/>
	<path d="M1101.98,128.06c0.12-0.34,0.34-0.59,0.67-0.74c0.33-0.15,0.66-0.16,1-0.04c0.34,0.12,0.59,0.36,0.74,0.68
		c0.16,0.33,0.18,0.67,0.05,1.01c-0.12,0.34-0.35,0.58-0.68,0.73c-0.33,0.15-0.67,0.17-1.01,0.04c-0.34-0.12-0.59-0.36-0.74-0.69
		C1101.87,128.74,1101.86,128.4,1101.98,128.06z M1106.67,128.63l7.33,2.67l-0.74,2.04l-7.33-2.67L1106.67,128.63z"/>
	<path d="M1114,120.96l-2,5.49c1.33,0.42,2.2,0.06,2.61-1.08c0.26-0.71,0.14-1.41-0.35-2.1l0.99-1.78c1.29,1.19,1.62,2.66,0.98,4.42
		c-0.44,1.2-1.14,2.02-2.11,2.48s-2.04,0.47-3.22,0.04c-1.18-0.43-2-1.12-2.45-2.08c-0.45-0.96-0.47-2.01-0.05-3.18
		c0.42-1.17,1.11-1.95,2.06-2.37c0.95-0.41,2.03-0.39,3.26,0.06L1114,120.96z M1110.71,125.91l1.26-3.47
		c-1.05-0.13-1.75,0.28-2.09,1.21C1109.56,124.55,1109.85,125.4,1110.71,125.91z"/>
	<path d="M1118.63,118.57l-0.75,2.05l-7.33-2.67l0.75-2.05l1.12,0.41c-0.72-0.83-0.91-1.71-0.57-2.62c0.11-0.29,0.27-0.57,0.51-0.83
		l1.8,0.98c-0.28,0.24-0.48,0.53-0.6,0.88c-0.43,1.17,0.09,2.03,1.56,2.56L1118.63,118.57z"/>
</g>
<circle fill="#FFFFFF" stroke="#000000" stroke-width="6" stroke-miterlimit="10" cx="1410" cy="222" r="10"/>
<g>
	<path d="M1418.57,201.16l-11.28-4.11l1.02-2.79c0.46-1.27,1.02-2.11,1.68-2.5c0.77-0.48,1.67-0.54,2.67-0.18
		c0.62,0.23,1.11,0.56,1.46,1.01c0.16,0.23,0.28,0.59,0.38,1.06c0.4-0.62,0.81-1.02,1.25-1.21c0.73-0.34,1.56-0.35,2.47-0.02
		c0.92,0.33,1.55,0.94,1.9,1.8c0.35,0.87,0.3,1.91-0.15,3.14L1418.57,201.16z M1412.79,196.56l0.23-0.63
		c0.42-1.14,0.13-1.89-0.84-2.24s-1.67,0.03-2.07,1.14l-0.24,0.66L1412.79,196.56z M1417.6,198.31l0.35-0.95
		c0.53-1.46,0.28-2.39-0.75-2.76c-0.57-0.21-1.07-0.14-1.5,0.2c-0.33,0.24-0.64,0.76-0.93,1.54l-0.3,0.83L1417.6,198.31z"/>
	<path d="M1422.71,189.79l-0.75,2.05l-7.33-2.67l0.75-2.05l1.11,0.41c-0.72-0.83-0.91-1.71-0.57-2.62c0.11-0.29,0.27-0.57,0.51-0.83
		l1.8,0.98c-0.28,0.24-0.49,0.53-0.6,0.88c-0.43,1.17,0.09,2.03,1.56,2.56L1422.71,189.79z"/>
	<path d="M1417.98,179.26c0.45-1.23,1.17-2.1,2.17-2.6c1-0.51,2.08-0.55,3.24-0.13s1.96,1.15,2.39,2.19
		c0.43,1.05,0.43,2.19-0.02,3.43s-1.19,2.11-2.2,2.61c-1.01,0.5-2.09,0.54-3.23,0.12c-1.15-0.42-1.94-1.15-2.37-2.2
		C1417.52,181.64,1417.54,180.49,1417.98,179.26z M1419.82,179.96c-0.21,0.57-0.19,1.13,0.06,1.68c0.25,0.55,0.66,0.93,1.23,1.14
		c0.57,0.21,1.13,0.19,1.67-0.07c0.55-0.26,0.93-0.67,1.14-1.24c0.21-0.57,0.19-1.14-0.07-1.69c-0.25-0.55-0.66-0.92-1.23-1.13
		c-0.57-0.21-1.12-0.18-1.67,0.07C1420.4,178.97,1420.02,179.39,1419.82,179.96z"/>
	<path d="M1423.47,170.23c-0.48,0.31-0.78,0.62-0.89,0.92s-0.13,0.55-0.08,0.75c0.07,0.2,0.19,0.33,0.36,0.39
		c0.17,0.06,0.34,0.04,0.5-0.08c0.16-0.12,0.45-0.43,0.85-0.92c0.41-0.5,0.76-0.86,1.07-1.05c0.57-0.4,1.22-0.47,1.95-0.21
		c0.74,0.27,1.25,0.78,1.53,1.53c0.29,0.76,0.26,1.59-0.06,2.49c-0.4,1.11-1.14,1.88-2.23,2.33l-0.86-1.53
		c0.78-0.36,1.28-0.84,1.49-1.42c0.19-0.52-0.02-1.07-0.46-1.23c-0.22-0.08-0.41-0.08-0.58,0.02c-0.16,0.1-0.46,0.41-0.89,0.92
		c-0.43,0.52-0.77,0.86-1.03,1.02c-0.52,0.36-1.11,0.42-1.79,0.17s-1.15-0.7-1.41-1.35c-0.26-0.65-0.23-1.39,0.07-2.21
		c0.3-0.83,0.84-1.49,1.62-2L1423.47,170.23z"/>
	<path d="M1425.94,163.43c-0.48,0.31-0.78,0.62-0.89,0.92c-0.11,0.31-0.13,0.55-0.08,0.75c0.07,0.2,0.19,0.33,0.36,0.39
		c0.17,0.06,0.34,0.04,0.51-0.08c0.16-0.12,0.45-0.43,0.85-0.92c0.41-0.5,0.76-0.85,1.07-1.05c0.57-0.4,1.22-0.47,1.95-0.21
		s1.25,0.78,1.53,1.53c0.29,0.76,0.26,1.59-0.07,2.49c-0.4,1.11-1.14,1.88-2.23,2.33l-0.86-1.53c0.78-0.36,1.28-0.83,1.49-1.42
		c0.19-0.52-0.02-1.07-0.46-1.22c-0.22-0.08-0.41-0.08-0.58,0.02c-0.16,0.1-0.46,0.4-0.89,0.92c-0.43,0.52-0.77,0.86-1.03,1.02
		c-0.52,0.36-1.11,0.42-1.79,0.17c-0.69-0.25-1.15-0.7-1.41-1.35c-0.26-0.65-0.23-1.39,0.07-2.21c0.3-0.83,0.84-1.49,1.62-2
		L1425.94,163.43z"/>
	<path d="M1427.32,154.34l0.75-2.05l7.33,2.67l-0.75,2.05l-0.95-0.35c0.55,0.92,0.66,1.88,0.29,2.88c-0.36,1-1.04,1.71-2.04,2.12
		c-0.99,0.41-2.04,0.42-3.14,0.02c-1.1-0.4-1.91-1.09-2.41-2.04c-0.5-0.96-0.57-1.93-0.22-2.9s1.05-1.66,2.08-2.05L1427.32,154.34z
		 M1428.26,156.75c-0.21,0.58-0.19,1.14,0.06,1.68c0.25,0.55,0.66,0.92,1.23,1.13s1.13,0.19,1.67-0.07
		c0.55-0.26,0.92-0.66,1.13-1.23c0.2-0.56,0.18-1.12-0.07-1.67c-0.25-0.55-0.66-0.92-1.23-1.13c-0.57-0.21-1.12-0.18-1.67,0.06
		C1428.85,155.76,1428.47,156.18,1428.26,156.75z"/>
	<path d="M1436.85,150.95l-0.75,2.05l-7.33-2.67l0.75-2.05l1.11,0.41c-0.72-0.83-0.91-1.71-0.57-2.62c0.1-0.29,0.27-0.57,0.51-0.83
		l1.8,0.98c-0.29,0.24-0.49,0.54-0.6,0.88c-0.43,1.17,0.1,2.03,1.56,2.56L1436.85,150.95z"/>
	<path d="M1427.67,136.75l0.75-2.05l12.67,4.61l-0.75,2.05l-0.95-0.35c0.55,0.92,0.66,1.88,0.29,2.88c-0.36,1-1.04,1.71-2.04,2.12
		c-0.99,0.41-2.04,0.42-3.14,0.02c-1.1-0.4-1.91-1.09-2.41-2.04c-0.5-0.96-0.57-1.93-0.22-2.9s1.05-1.66,2.08-2.05L1427.67,136.75z
		 M1433.96,141.11c-0.21,0.58-0.19,1.14,0.06,1.68c0.25,0.55,0.67,0.92,1.23,1.13c0.57,0.21,1.13,0.19,1.67-0.07
		c0.55-0.26,0.92-0.66,1.13-1.23c0.2-0.56,0.18-1.12-0.07-1.67c-0.25-0.55-0.66-0.92-1.23-1.13c-0.57-0.21-1.12-0.18-1.67,0.06
		C1434.54,140.12,1434.16,140.54,1433.96,141.11z"/>
</g>
<g>
	<path fill="#9B9B9B" d="M692.26,261.22v2.95h-1.43v-7.34h2.12c0.83,0,1.46,0.17,1.87,0.52c0.48,0.4,0.73,0.96,0.73,1.65
		c0,0.7-0.22,1.23-0.66,1.62c-0.27,0.24-0.61,0.4-1.01,0.47l2.31,3.09h-1.76l-1.98-2.95H692.26z M692.26,260.21h0.42
		c0.91,0,1.4-0.41,1.4-1.12c0-0.74-0.46-1.1-1.38-1.1h-0.44V260.21z"/>
	<path fill="#9B9B9B" d="M700.42,259.4h1.33v4.76h-1.33v-0.62c-0.41,0.51-0.94,0.77-1.59,0.77s-1.2-0.24-1.64-0.72
		c-0.45-0.48-0.67-1.09-0.67-1.8s0.23-1.32,0.67-1.81c0.45-0.49,0.99-0.73,1.62-0.73s1.17,0.26,1.61,0.77V259.4z M699.24,260.45
		c-0.38,0-0.69,0.13-0.95,0.39c-0.26,0.26-0.39,0.57-0.39,0.95s0.13,0.69,0.39,0.95c0.26,0.26,0.57,0.39,0.94,0.39
		s0.68-0.13,0.95-0.39c0.26-0.26,0.39-0.57,0.39-0.94c0-0.37-0.13-0.68-0.38-0.95C699.93,260.58,699.61,260.45,699.24,260.45z"/>
	<path fill="#9B9B9B" d="M703.69,256.59c0.22,0,0.41,0.07,0.56,0.23s0.23,0.34,0.23,0.56c0,0.22-0.08,0.41-0.24,0.57
		c-0.16,0.16-0.35,0.24-0.57,0.24s-0.41-0.08-0.56-0.24s-0.24-0.35-0.24-0.57s0.08-0.41,0.24-0.57
		C703.27,256.66,703.46,256.59,703.69,256.59z M704.33,259.4v4.76h-1.33v-4.76H704.33z"/>
	<path fill="#9B9B9B" d="M706.92,255.93v8.24h-1.33v-8.24H706.92z"/>
	<path fill="#9B9B9B" d="M715.04,258.07h-2.45v1.63h2.3v1.24h-2.3v3.22h-1.43v-7.34h3.88V258.07z"/>
	<path fill="#9B9B9B" d="M719.61,259.4h1.33v4.76h-1.33v-0.62c-0.41,0.51-0.94,0.77-1.59,0.77s-1.2-0.24-1.64-0.72
		c-0.45-0.48-0.67-1.09-0.67-1.8s0.23-1.32,0.67-1.81c0.45-0.49,0.99-0.73,1.62-0.73s1.17,0.26,1.61,0.77V259.4z M718.42,260.45
		c-0.38,0-0.69,0.13-0.95,0.39c-0.26,0.26-0.39,0.57-0.39,0.95s0.13,0.69,0.39,0.95c0.26,0.26,0.57,0.39,0.94,0.39
		s0.68-0.13,0.95-0.39c0.26-0.26,0.39-0.57,0.39-0.94c0-0.37-0.13-0.68-0.38-0.95C719.11,260.58,718.79,260.45,718.42,260.45z"/>
	<path fill="#9B9B9B" d="M722.22,259.4h1.33v0.6c0.41-0.54,0.85-0.75,1.49-0.75c0.59,0,1.05,0.19,1.39,0.57
		c0.25,0.29,0.38,0.73,0.38,1.32v3.02h-1.33v-2.64c0-0.37-0.04-0.62-0.13-0.77c-0.14-0.25-0.4-0.38-0.78-0.38
		c-0.67,0-1.01,0.44-1.01,1.32v2.46h-1.33V259.4z"/>
	<path fill="#9B9B9B" d="M730.68,260.52c-0.28-0.21-0.52-0.32-0.71-0.32s-0.34,0.04-0.45,0.11c-0.1,0.08-0.15,0.18-0.15,0.29
		s0.05,0.2,0.15,0.27c0.1,0.07,0.34,0.17,0.71,0.3s0.65,0.26,0.83,0.39c0.35,0.24,0.53,0.6,0.53,1.08s-0.19,0.88-0.56,1.2
		c-0.38,0.32-0.86,0.48-1.44,0.48c-0.72,0-1.32-0.26-1.8-0.79l0.7-0.81c0.37,0.37,0.75,0.56,1.13,0.56c0.34,0,0.61-0.24,0.61-0.52
		c0-0.15-0.04-0.25-0.13-0.33c-0.09-0.07-0.33-0.18-0.71-0.32c-0.39-0.14-0.66-0.26-0.8-0.38c-0.32-0.22-0.47-0.55-0.47-0.99
		s0.16-0.81,0.48-1.09c0.32-0.28,0.75-0.42,1.28-0.42s1.03,0.17,1.49,0.51L730.68,260.52z"/>
	<path fill="#9B9B9B" d="M740.78,258.8c-0.56-0.55-1.17-0.83-1.82-0.83s-1.21,0.25-1.68,0.74c-0.47,0.49-0.7,1.1-0.7,1.81
		c0,0.71,0.23,1.31,0.7,1.79c0.46,0.48,1.04,0.71,1.73,0.71c0.34,0,0.65-0.06,0.92-0.18c0.27-0.12,0.55-0.33,0.84-0.62v1.68
		c-0.62,0.29-1.21,0.43-1.79,0.43c-1.08,0-2-0.37-2.75-1.1s-1.12-1.63-1.12-2.7c0-1.07,0.38-1.98,1.13-2.73s1.67-1.13,2.74-1.13
		c0.6,0,1.19,0.15,1.79,0.45V258.8z"/>
	<path fill="#9B9B9B" d="M745.54,259.4h1.33v4.76h-1.33v-0.62c-0.41,0.51-0.94,0.77-1.59,0.77s-1.2-0.24-1.64-0.72
		c-0.45-0.48-0.67-1.09-0.67-1.8s0.23-1.32,0.67-1.81c0.45-0.49,0.99-0.73,1.62-0.73s1.17,0.26,1.61,0.77V259.4z M744.35,260.45
		c-0.38,0-0.69,0.13-0.95,0.39c-0.26,0.26-0.39,0.57-0.39,0.95s0.13,0.69,0.39,0.95c0.26,0.26,0.57,0.39,0.94,0.39
		s0.68-0.13,0.95-0.39c0.26-0.26,0.39-0.57,0.39-0.94c0-0.37-0.13-0.68-0.38-0.95C745.04,260.58,744.72,260.45,744.35,260.45z"/>
	<path fill="#9B9B9B" d="M748.14,259.4h1.33v0.6c0.41-0.54,0.85-0.75,1.49-0.75c0.59,0,1.05,0.19,1.39,0.57
		c0.25,0.29,0.38,0.73,0.38,1.32v3.02h-1.33v-2.64c0-0.37-0.04-0.62-0.13-0.77c-0.14-0.25-0.4-0.38-0.78-0.38
		c-0.67,0-1.01,0.44-1.01,1.32v2.46h-1.33V259.4z"/>
	<path fill="#9B9B9B" d="M757.65,259.4h1.33v4.76h-1.33v-0.62c-0.41,0.51-0.94,0.77-1.59,0.77c-0.65,0-1.2-0.24-1.64-0.72
		c-0.45-0.48-0.67-1.09-0.67-1.8s0.23-1.32,0.67-1.81c0.45-0.49,0.99-0.73,1.62-0.73c0.63,0,1.17,0.26,1.61,0.77V259.4z
		 M756.47,260.45c-0.38,0-0.69,0.13-0.95,0.39c-0.26,0.26-0.39,0.57-0.39,0.95s0.13,0.69,0.39,0.95c0.26,0.26,0.58,0.39,0.94,0.39
		s0.68-0.13,0.95-0.39c0.26-0.26,0.39-0.57,0.39-0.94c0-0.37-0.13-0.68-0.38-0.95C757.15,260.58,756.84,260.45,756.47,260.45z"/>
	<path fill="#9B9B9B" d="M763.91,255.93h1.33v8.24h-1.33v-0.62c-0.41,0.51-0.94,0.77-1.59,0.77s-1.2-0.24-1.64-0.72
		c-0.45-0.48-0.67-1.09-0.67-1.8s0.23-1.32,0.67-1.81c0.45-0.49,0.99-0.73,1.62-0.73s1.17,0.26,1.61,0.77V255.93z M762.72,260.45
		c-0.38,0-0.69,0.13-0.95,0.39c-0.26,0.26-0.39,0.57-0.39,0.95s0.13,0.69,0.39,0.95c0.26,0.26,0.57,0.39,0.94,0.39
		s0.68-0.13,0.95-0.39c0.26-0.26,0.39-0.57,0.39-0.94c0-0.37-0.13-0.68-0.38-0.95C763.41,260.58,763.09,260.45,762.72,260.45z"/>
	<path fill="#9B9B9B" d="M770.21,259.4h1.33v4.76h-1.33v-0.62c-0.41,0.51-0.94,0.77-1.59,0.77c-0.65,0-1.2-0.24-1.64-0.72
		c-0.45-0.48-0.67-1.09-0.67-1.8s0.23-1.32,0.67-1.81c0.45-0.49,0.99-0.73,1.62-0.73c0.63,0,1.17,0.26,1.61,0.77V259.4z
		 M769.02,260.45c-0.38,0-0.69,0.13-0.95,0.39c-0.26,0.26-0.39,0.57-0.39,0.95s0.13,0.69,0.39,0.95c0.26,0.26,0.57,0.39,0.94,0.39
		s0.68-0.13,0.95-0.39c0.26-0.26,0.39-0.57,0.39-0.94c0-0.37-0.13-0.68-0.38-0.95C769.71,260.58,769.39,260.45,769.02,260.45z"/>
	<path fill="#9B9B9B" d="M774.93,261.09h7.4v1.11h-7.4V261.09z"/>
	<path fill="#9B9B9B" d="M790.6,262.93v1.24h-5.33l2.17-2.46c0.67-0.76,1.11-1.33,1.34-1.69c0.23-0.36,0.34-0.7,0.34-1.01
		c0-0.31-0.11-0.58-0.32-0.79c-0.22-0.21-0.49-0.32-0.8-0.32c-0.32,0-0.58,0.11-0.76,0.32c-0.19,0.21-0.29,0.51-0.31,0.89h-1.53
		c0.05-0.76,0.31-1.36,0.77-1.81c0.46-0.45,1.06-0.67,1.8-0.67c0.74,0,1.35,0.23,1.85,0.67c0.49,0.45,0.74,1.04,0.74,1.76
		s-0.45,1.56-1.33,2.5l-1.28,1.35H790.6z"/>
	<path fill="#9B9B9B" d="M794.45,256.64c0.83,0,1.52,0.38,2.07,1.12c0.5,0.7,0.76,1.62,0.76,2.73s-0.25,2.03-0.76,2.74
		c-0.52,0.7-1.29,1.12-2.08,1.12c-0.85,0-1.54-0.37-2.06-1.1s-0.78-1.65-0.78-2.78s0.25-2.02,0.76-2.72
		C792.92,257.02,793.61,256.64,794.45,256.64z M794.44,257.91c-0.41,0-0.75,0.24-1.02,0.72c-0.27,0.48-0.4,1.1-0.4,1.86
		c0,0.76,0.13,1.38,0.4,1.87c0.26,0.49,0.61,0.73,1.02,0.73c0.41,0,0.76-0.24,1.02-0.72c0.26-0.48,0.39-1.11,0.39-1.86
		c0-0.76-0.13-1.38-0.4-1.86S794.85,257.91,794.44,257.91z"/>
	<path fill="#9B9B9B" d="M803.07,262.93v1.24h-5.33l2.16-2.46c0.67-0.76,1.11-1.33,1.34-1.69c0.23-0.36,0.34-0.7,0.34-1.01
		c0-0.31-0.11-0.58-0.32-0.79c-0.22-0.21-0.49-0.32-0.81-0.32c-0.32,0-0.57,0.11-0.76,0.32c-0.19,0.21-0.3,0.51-0.31,0.89h-1.53
		c0.05-0.76,0.31-1.36,0.77-1.81c0.46-0.45,1.06-0.67,1.8-0.67c0.74,0,1.35,0.23,1.85,0.67c0.49,0.45,0.74,1.04,0.74,1.76
		s-0.45,1.56-1.33,2.5l-1.28,1.35H803.07z"/>
	<path fill="#9B9B9B" d="M809.02,260.04c0.44,0.47,0.66,1.06,0.66,1.79s-0.26,1.33-0.77,1.8c-0.52,0.48-1.19,0.72-2,0.72
		s-1.49-0.24-2.01-0.71c-0.52-0.47-0.79-1.07-0.79-1.81s0.31-1.51,0.92-2.32l2.23-2.98l1.02,0.76l-1.74,2.23
		c0.31-0.12,0.6-0.19,0.86-0.19C808.04,259.34,808.58,259.57,809.02,260.04z M806.91,260.48c-0.38,0-0.7,0.13-0.97,0.39
		c-0.26,0.26-0.4,0.59-0.4,0.98s0.13,0.71,0.4,0.97s0.59,0.4,0.96,0.4s0.69-0.13,0.96-0.4s0.39-0.58,0.39-0.97s-0.13-0.7-0.38-0.97
		C807.61,260.62,807.29,260.48,806.91,260.48z"/>
</g>
<g>
	<path d="M23.11,42.88v11.79h-5.71V25.33h8.49c3.33,0,5.82,0.69,7.48,2.06c1.93,1.61,2.9,3.82,2.9,6.6c0,2.79-0.88,4.94-2.64,6.47
		c-1.07,0.97-2.43,1.59-4.04,1.87l9.24,12.35h-7.05l-7.91-11.79H23.11z M23.11,38.84h1.68c3.63,0,5.59-1.63,5.59-4.49
		c0-2.94-1.83-4.4-5.5-4.4h-1.76V38.84z"/>
	<path d="M58.77,30.29H48.27v6.53h10.12v4.96H48.27v7.93h10.51v4.96H42.55V25.33h16.22V30.29z"/>
	<path d="M62.73,54.67l5.46-29.88h3.91l8.01,19.19l8.31-19.19h3.95l4.9,29.88h-5.78l-2.64-18.09l-8.04,18.48h-1.59l-7.8-18.48
		l-2.94,18.09H62.73z"/>
	<path d="M110.1,42.36h29.61v4.43H110.1V42.36z"/>
	<path d="M154.1,54.67V25.33h7.26c3.31,0,5.69,0.58,7.15,1.76c1.76,1.38,2.64,3.37,2.64,5.97c0,1.61-0.37,3.01-1.1,4.19
		c-0.41,0.56-1.12,1.14-2.11,1.76c1.76,0.39,3.03,1.01,3.82,1.85c1.4,1.4,2.11,3.29,2.11,5.67s-0.86,4.34-2.56,5.87
		s-4.15,2.28-7.35,2.28H154.1z M159.81,37.55h1.63c2.96,0,4.45-1.27,4.45-3.8s-1.46-3.8-4.36-3.8h-1.72V37.55z M159.81,50.05h2.47
		c3.8,0,5.71-1.35,5.71-4.04c0-1.48-0.58-2.58-1.72-3.27c-0.84-0.56-2.28-0.84-4.32-0.84h-2.15V50.05z"/>
	<path d="M183.66,54.67h-5.33V35.62h5.33v2.9c1.31-2.34,3.16-3.52,5.54-3.5c0.75,0,1.53,0.15,2.32,0.47l-0.75,4.96
		c-0.79-0.45-1.63-0.67-2.54-0.64c-3.05,0-4.58,1.91-4.58,5.71V54.67z"/>
	<path d="M203.9,35.02c3.2,0,5.8,0.95,7.8,2.81s3.01,4.32,3.01,7.33s-1.01,5.46-3.03,7.33c-2.04,1.87-4.66,2.81-7.91,2.81
		s-5.84-0.97-7.84-2.88s-2.99-4.34-2.99-7.33s1.03-5.41,3.07-7.28S200.7,35.02,203.9,35.02z M203.84,39.81
		c-1.48,0-2.75,0.52-3.8,1.55s-1.59,2.3-1.59,3.78s0.52,2.75,1.57,3.78c1.05,1.05,2.32,1.57,3.8,1.57s2.77-0.52,3.82-1.57
		c1.05-1.03,1.57-2.28,1.57-3.76s-0.52-2.73-1.57-3.78S205.32,39.81,203.84,39.81z"/>
	<path d="M229.23,40.06c-1.12-0.84-2.06-1.27-2.86-1.27s-1.38,0.15-1.78,0.45c-0.41,0.32-0.6,0.71-0.6,1.16s0.19,0.82,0.6,1.1
		s1.35,0.67,2.84,1.18s2.6,1.03,3.31,1.57c1.4,0.97,2.11,2.41,2.11,4.32s-0.75,3.52-2.23,4.79c-1.5,1.29-3.44,1.93-5.78,1.93
		c-2.88,0-5.29-1.05-7.22-3.18l2.79-3.24c1.48,1.48,2.99,2.23,4.51,2.23c1.35,0,2.43-0.95,2.43-2.08c0-0.58-0.17-1.01-0.54-1.31
		c-0.37-0.28-1.31-0.71-2.86-1.27s-2.62-1.05-3.2-1.5c-1.27-0.88-1.89-2.19-1.89-3.97s0.64-3.22,1.93-4.36
		c1.27-1.14,2.99-1.7,5.13-1.7s4.12,0.69,5.95,2.04L229.23,40.06z"/>
	<path d="M246.91,40.06c-1.12-0.84-2.06-1.27-2.86-1.27s-1.38,0.15-1.78,0.45c-0.41,0.32-0.6,0.71-0.6,1.16s0.19,0.82,0.6,1.1
		s1.35,0.67,2.84,1.18s2.6,1.03,3.31,1.57c1.4,0.97,2.11,2.41,2.11,4.32s-0.75,3.52-2.23,4.79c-1.5,1.29-3.44,1.93-5.78,1.93
		c-2.88,0-5.29-1.05-7.22-3.18l2.79-3.24c1.48,1.48,2.99,2.23,4.51,2.23c1.35,0,2.43-0.95,2.43-2.08c0-0.58-0.17-1.01-0.54-1.31
		c-0.37-0.28-1.31-0.71-2.86-1.27s-2.62-1.05-3.2-1.5c-1.27-0.88-1.89-2.19-1.89-3.97s0.64-3.22,1.93-4.36
		c1.27-1.14,2.99-1.7,5.13-1.7s4.12,0.69,5.95,2.04L246.91,40.06z"/>
	<path d="M268.96,35.62h5.33v19.06h-5.33V52.2c-1.65,2.04-3.76,3.07-6.36,3.07s-4.79-0.97-6.57-2.9s-2.69-4.34-2.69-7.2
		s0.9-5.29,2.69-7.24s3.95-2.92,6.49-2.92s4.68,1.03,6.45,3.07V35.62z M264.21,39.81c-1.5,0-2.77,0.52-3.8,1.55
		c-1.05,1.03-1.57,2.3-1.57,3.78s0.52,2.75,1.57,3.78c1.05,1.05,2.3,1.57,3.76,1.57s2.73-0.52,3.78-1.57
		c1.05-1.03,1.57-2.28,1.57-3.76s-0.52-2.73-1.53-3.78C266.96,40.32,265.69,39.81,264.21,39.81z"/>
	<path d="M284.7,54.67h-5.33V35.62h5.33v2.9c1.31-2.34,3.16-3.52,5.54-3.5c0.75,0,1.53,0.15,2.32,0.47l-0.75,4.96
		c-0.79-0.45-1.63-0.67-2.54-0.64c-3.05,0-4.58,1.91-4.58,5.71V54.67z"/>
	<path d="M309.65,21.72h5.33v32.96h-5.33V52.2c-1.65,2.04-3.76,3.07-6.36,3.07s-4.79-0.97-6.57-2.9s-2.69-4.34-2.69-7.2
		s0.9-5.29,2.69-7.24s3.95-2.92,6.49-2.92s4.68,1.03,6.45,3.07V21.72z M304.9,39.81c-1.5,0-2.77,0.52-3.8,1.55
		c-1.05,1.03-1.57,2.3-1.57,3.78s0.52,2.75,1.57,3.78c1.05,1.05,2.3,1.57,3.76,1.57s2.73-0.52,3.78-1.57
		c1.05-1.03,1.57-2.28,1.57-3.76s-0.52-2.73-1.53-3.78C307.65,40.32,306.38,39.81,304.9,39.81z"/>
	<path d="M337.47,51.6c0.62,3.24,1.5,5.99,2.62,8.23l-4.28,2.32c-1.27-2.41-2.19-4.9-2.77-7.48c-1.05-4.4-1.59-8.85-1.59-13.34
		c0-8.04,1.46-14.82,4.36-20.37l4.28,2.34c-2.38,5.07-3.57,11.15-3.57,18.22C336.52,44.98,336.85,48.36,337.47,51.6z"/>
	<path d="M365.72,49.71v4.96h-21.33l8.66-9.82c2.66-3.05,4.45-5.31,5.37-6.75s1.38-2.79,1.38-4.04s-0.43-2.3-1.29-3.16
		c-0.88-0.84-1.96-1.27-3.22-1.27s-2.3,0.43-3.05,1.27c-0.77,0.84-1.18,2.04-1.25,3.57h-6.12c0.19-3.05,1.22-5.46,3.09-7.24
		c1.85-1.78,4.25-2.66,7.22-2.66c2.94,0,5.41,0.9,7.39,2.69c1.96,1.8,2.94,4.15,2.94,7.05s-1.78,6.23-5.33,9.99l-5.11,5.41H365.72z"
		/>
	<path d="M381.1,24.57c3.33,0,6.08,1.5,8.29,4.49c2.02,2.81,3.03,6.47,3.03,10.91s-1.01,8.1-3.03,10.96
		c-2.06,2.81-5.16,4.49-8.31,4.49c-3.42,0-6.17-1.46-8.25-4.38s-3.14-6.62-3.14-11.11s1.01-8.1,3.03-10.87
		C374.98,26.08,377.77,24.57,381.1,24.57z M381.08,29.64c-1.65,0-3.01,0.97-4.08,2.88s-1.61,4.4-1.61,7.43s0.54,5.52,1.59,7.48
		s2.43,2.92,4.08,2.92s3.03-0.97,4.08-2.9s1.57-4.43,1.57-7.46s-0.54-5.52-1.59-7.46S382.71,29.64,381.08,29.64z"/>
	<path d="M415.61,49.71v4.96h-21.33l8.66-9.82c2.66-3.05,4.45-5.31,5.37-6.75s1.38-2.79,1.38-4.04s-0.43-2.3-1.29-3.16
		c-0.88-0.84-1.96-1.27-3.22-1.27s-2.3,0.43-3.05,1.27c-0.77,0.84-1.18,2.04-1.25,3.57h-6.12c0.19-3.05,1.22-5.46,3.09-7.24
		c1.85-1.78,4.25-2.66,7.22-2.66c2.94,0,5.41,0.9,7.39,2.69c1.96,1.8,2.94,4.15,2.94,7.05s-1.78,6.23-5.33,9.99l-5.11,5.41H415.61z"
		/>
	<path d="M437.61,52.85c-1.93,1.72-4.45,2.58-7.56,2.58c-4.17,0-7.24-1.65-9.24-4.98c-0.82-1.35-1.25-2.75-1.29-4.21h5.71
		c0.34,2.58,2.13,4.12,4.88,4.12c1.38,0,2.49-0.43,3.37-1.31c0.88-0.86,1.31-1.96,1.31-3.29s-0.43-2.45-1.29-3.35
		c-0.88-0.88-1.96-1.33-3.24-1.33c-0.15,0-0.52,0.02-1.1,0.09v-4.08h0.79c2.47,0,4.04-1.63,4.04-3.97s-1.61-3.95-3.95-3.95
		c-2.32,0-3.63,1.27-3.93,3.82h-5.41c0.82-5.61,4.06-8.4,9.73-8.4c2.69,0,4.86,0.75,6.51,2.23c1.65,1.5,2.47,3.48,2.47,5.91
		c0,2.99-0.92,4.73-3.39,6.25c2.99,1.22,4.49,3.61,4.49,7.18C440.51,48.92,439.54,51.15,437.61,52.85z"/>
	<path d="M449.64,31.56c-0.62-3.24-1.5-5.99-2.62-8.25l4.25-2.34c1.27,2.41,2.19,4.9,2.77,7.48c1.05,4.4,1.59,8.85,1.59,13.34
		c0,8.04-1.46,14.82-4.36,20.37l-4.25-2.32c2.38-5.09,3.57-11.17,3.57-18.22C450.58,38.17,450.26,34.82,449.64,31.56z"/>
</g>
</svg>
