<?xml version="1.0" encoding="iso-8859-1"?>
<!-- Generator: Adobe Illustrator 29.8.4, SVG Export Plug-In . SVG Version: 9.03 Build 0)  -->
<svg version="1.1" id="Layer_1" xmlns="http://www.w3.org/2000/svg" xmlns:xlink="http://www.w3.org/1999/xlink" x="0px" y="0px"
	 viewBox="0 0 1500 377" enable-background="new 0 0 1500 377" xml:space="preserve">
<rect id="bg-white" fill="#FFFFFF" width="1500" height="377"/>
<line fill="none" stroke="#00A59B" stroke-width="16" stroke-linecap="round" stroke-miterlimit="10" x1="90" y1="329" x2="1410" y2="329"/>
<circle fill="#FFFFFF" stroke="#000000" stroke-width="6" stroke-miterlimit="10" cx="90" cy="329" r="10"/>
<g>
	<path d="M98.62,300.61l-1.68,4.62l2.02,1.88l-0.85,2.34l-9.74-9.08l0.6-1.66l13.24-0.54l-0.86,2.35L98.62,300.61z M96.59,300.65
		l-4.63,0.1l3.46,3.11L96.59,300.65z"/>
	<path d="M95.25,294.48l0.75-2.05l0.92,0.33c-0.61-0.93-0.67-1.72-0.31-2.71c0.33-0.9,0.88-1.5,1.65-1.81
		c0.58-0.23,1.33-0.17,2.24,0.16l4.65,1.69l-0.75,2.05l-4.06-1.48c-0.56-0.2-0.98-0.28-1.26-0.22c-0.47,0.07-0.8,0.4-1.01,0.99
		c-0.38,1.03,0.11,1.8,1.47,2.29l3.79,1.38l-0.75,2.05L95.25,294.48z"/>
	<path d="M101.7,282.09c-0.48,0.31-0.78,0.61-0.89,0.92c-0.11,0.3-0.13,0.55-0.08,0.75c0.07,0.2,0.19,0.33,0.36,0.39
		c0.17,0.06,0.34,0.04,0.5-0.08c0.16-0.12,0.45-0.43,0.85-0.93c0.41-0.5,0.76-0.85,1.07-1.05c0.57-0.4,1.22-0.47,1.95-0.21
		c0.74,0.27,1.25,0.78,1.53,1.53c0.29,0.76,0.26,1.59-0.06,2.49c-0.4,1.11-1.14,1.88-2.23,2.33l-0.86-1.53
		c0.78-0.36,1.28-0.84,1.49-1.42c0.19-0.52-0.02-1.06-0.46-1.22c-0.22-0.08-0.41-0.08-0.58,0.02c-0.16,0.1-0.46,0.4-0.89,0.92
		c-0.43,0.52-0.77,0.86-1.03,1.02c-0.52,0.36-1.11,0.42-1.79,0.17c-0.69-0.25-1.15-0.7-1.41-1.35c-0.26-0.65-0.23-1.38,0.07-2.21
		s0.84-1.49,1.62-2L101.7,282.09z"/>
	<path d="M107.64,272.88l-2,5.49c1.33,0.42,2.2,0.06,2.61-1.08c0.26-0.71,0.14-1.41-0.35-2.1l0.99-1.78
		c1.29,1.19,1.62,2.65,0.98,4.42c-0.44,1.2-1.14,2.02-2.11,2.48c-0.97,0.46-2.04,0.47-3.22,0.04s-2-1.12-2.45-2.08
		c-0.45-0.96-0.47-2.01-0.05-3.18c0.42-1.17,1.11-1.95,2.06-2.37c0.95-0.41,2.03-0.39,3.26,0.06L107.64,272.88z M104.37,277.83
		l1.26-3.47c-1.05-0.13-1.75,0.28-2.09,1.21C103.21,276.47,103.5,277.32,104.37,277.83z"/>
	<path d="M106.71,271.07l1.39-3.81l1.7,0.62l-1.39,3.81L106.71,271.07z"/>
	<path d="M102.88,262.42l-0.4-1.86l3.29-1.08l0.32,1.22L102.88,262.42z M107.9,259.73l0.75-2.05l7.33,2.67l-0.75,2.05l-0.95-0.35
		c0.55,0.92,0.66,1.88,0.29,2.88c-0.36,1-1.04,1.71-2.04,2.12s-2.04,0.43-3.14,0.03c-1.1-0.4-1.91-1.09-2.41-2.04
		c-0.5-0.96-0.57-1.93-0.22-2.9s1.05-1.66,2.08-2.05L107.9,259.73z M108.85,262.14c-0.21,0.58-0.19,1.14,0.06,1.68
		c0.25,0.55,0.67,0.92,1.23,1.13c0.57,0.21,1.13,0.19,1.67-0.07c0.55-0.26,0.92-0.66,1.13-1.23c0.2-0.56,0.18-1.12-0.07-1.67
		c-0.25-0.55-0.66-0.92-1.23-1.13c-0.57-0.21-1.12-0.18-1.67,0.06C109.43,261.15,109.06,261.57,108.85,262.14z"/>
	<path d="M111.6,257.65l1.39-3.81l1.7,0.62l-1.39,3.81L111.6,257.65z"/>
	<path d="M106.15,247.93l12.67,4.61l-0.75,2.05l-12.67-4.61L106.15,247.93z"/>
	<path d="M108.46,245.18l0.91-1.8l3.63,4.03l-0.65,1.24L108.46,245.18z"/>
	<path d="M111.89,235.66c0.61-1.68,1.69-2.88,3.26-3.63s3.18-0.82,4.84-0.21c1.66,0.6,2.84,1.7,3.55,3.28s0.74,3.23,0.12,4.93
		c-0.62,1.7-1.71,2.92-3.27,3.64c-1.57,0.73-3.17,0.79-4.82,0.19s-2.83-1.7-3.53-3.3C111.33,238.98,111.28,237.34,111.89,235.66z
		 M113.9,236.42c-0.38,1.03-0.32,2.06,0.16,3.07c0.48,1.02,1.26,1.72,2.34,2.11c1.07,0.39,2.12,0.35,3.15-0.11
		c1.03-0.46,1.73-1.2,2.11-2.24c0.38-1.04,0.32-2.07-0.17-3.08c-0.49-1.01-1.28-1.71-2.35-2.1s-2.12-0.36-3.14,0.1
		C114.98,234.63,114.27,235.39,113.9,236.42z"/>
	<path d="M126.98,230.11l-0.75,2.05l-7.33-2.67l0.75-2.05l1.12,0.41c-0.72-0.83-0.91-1.71-0.57-2.62c0.1-0.29,0.27-0.57,0.51-0.83
		l1.8,0.98c-0.28,0.24-0.48,0.53-0.6,0.88c-0.43,1.17,0.09,2.03,1.56,2.56L126.98,230.11z"/>
	<path d="M127.17,217.9l3.76,1.37l-0.75,2.05l-3.89-1.42c-0.57-0.21-0.99-0.31-1.25-0.3c-0.26,0.01-0.49,0.09-0.7,0.25
		s-0.35,0.36-0.44,0.59c-0.17,0.46-0.07,1.04,0.3,1.47c0.18,0.22,0.61,0.44,1.26,0.67l3.76,1.37l-0.75,2.05l-7.33-2.67l0.75-2.05
		l0.85,0.31c-0.49-0.9-0.57-1.81-0.23-2.73c0.34-0.92,1.05-1.49,2.12-1.69c-0.68-0.9-0.84-1.84-0.49-2.82
		c0.36-0.98,0.97-1.56,1.83-1.73c0.51-0.1,1.15-0.02,1.92,0.26l4.73,1.72l-0.75,2.05l-4.01-1.46c-0.53-0.19-0.94-0.28-1.23-0.26
		c-0.5,0.03-0.84,0.3-1.02,0.8C125.27,216.68,125.79,217.4,127.17,217.9z"/>
	<path d="M132.63,204.24l-2,5.49c1.33,0.42,2.2,0.06,2.61-1.08c0.26-0.71,0.14-1.41-0.35-2.1l0.99-1.78
		c1.29,1.19,1.62,2.65,0.98,4.42c-0.44,1.2-1.14,2.02-2.11,2.48c-0.97,0.46-2.04,0.47-3.22,0.04c-1.18-0.43-2-1.12-2.45-2.08
		c-0.46-0.96-0.47-2.01-0.05-3.18c0.42-1.17,1.11-1.95,2.06-2.37c0.95-0.41,2.03-0.39,3.26,0.06L132.63,204.24z M129.35,209.19
		l1.26-3.47c-1.05-0.13-1.75,0.28-2.09,1.21C128.2,207.83,128.49,208.68,129.35,209.19z"/>
</g>
<circle fill="#FFFFFF" stroke="#000000" stroke-width="6" stroke-miterlimit="10" cx="167.65" cy="329" r="10"/>
<g>
	<path d="M177.02,305.96l-0.8,2.2l-11.28-4.11l0.8-2.2l4.77,1.74l-3.26-5.88l1.01-2.78l3.47,6.67l7.9-2.81l-1.05,2.89l-6.53,2.16
		l0.17,0.37L177.02,305.96z"/>
	<path d="M168.77,292.38c0.12-0.34,0.34-0.59,0.67-0.74s0.66-0.16,1-0.04c0.34,0.12,0.59,0.36,0.74,0.68
		c0.16,0.33,0.18,0.67,0.05,1.01c-0.12,0.34-0.35,0.58-0.68,0.74s-0.67,0.17-1.01,0.04c-0.34-0.12-0.59-0.35-0.74-0.69
		C168.65,293.05,168.64,292.71,168.77,292.38z M173.46,292.95l7.33,2.67l-0.74,2.04l-7.33-2.67L173.46,292.95z"/>
	<path d="M182.23,291.64l-0.75,2.05l-7.33-2.67l0.75-2.05l1.11,0.41c-0.72-0.83-0.91-1.71-0.57-2.62c0.11-0.29,0.27-0.57,0.51-0.83
		l1.8,0.98c-0.29,0.24-0.49,0.54-0.6,0.88c-0.43,1.17,0.1,2.03,1.56,2.56L182.23,291.64z"/>
	<path d="M171.8,280.87l8.02,2.92l-1.68-3.71l1.01-2.77l1.96,4.6l5.46-2.21l-1.03,2.82l-4.14,1.6l0.14,0.3l2.92,1.06l-0.75,2.05
		l-12.67-4.61L171.8,280.87z"/>
	<path d="M175.01,272.05l12.67,4.61l-0.75,2.05l-12.67-4.61L175.01,272.05z"/>
	<path d="M183.11,266.42l0.75-2.05l7.33,2.67l-0.75,2.05l-0.95-0.35c0.55,0.92,0.66,1.88,0.29,2.87c-0.36,1-1.04,1.71-2.03,2.12
		s-2.04,0.42-3.14,0.03c-1.1-0.4-1.91-1.09-2.41-2.05c-0.5-0.96-0.57-1.93-0.22-2.9s1.05-1.66,2.08-2.05L183.11,266.42z
		 M184.06,268.84c-0.21,0.58-0.19,1.14,0.06,1.68c0.25,0.55,0.66,0.92,1.23,1.13c0.57,0.21,1.13,0.19,1.67-0.07
		c0.55-0.26,0.92-0.66,1.13-1.23c0.2-0.56,0.18-1.12-0.07-1.67c-0.25-0.55-0.66-0.92-1.23-1.13c-0.57-0.21-1.12-0.18-1.67,0.06
		C184.64,267.85,184.27,268.27,184.06,268.84z"/>
	<path d="M184.57,262.42l0.75-2.05l0.92,0.33c-0.61-0.93-0.67-1.72-0.31-2.71c0.33-0.9,0.88-1.5,1.65-1.81
		c0.58-0.23,1.33-0.17,2.24,0.16l4.65,1.69l-0.75,2.05l-4.06-1.48c-0.56-0.21-0.98-0.28-1.26-0.22c-0.47,0.07-0.8,0.4-1.01,0.99
		c-0.38,1.03,0.11,1.8,1.47,2.29l3.79,1.38l-0.75,2.05L184.57,262.42z"/>
	<path d="M184.55,245.85l0.75-2.05l12.67,4.61l-0.75,2.05l-0.95-0.35c0.55,0.92,0.66,1.88,0.29,2.88s-1.04,1.71-2.04,2.12
		c-0.99,0.41-2.04,0.42-3.14,0.02c-1.1-0.4-1.91-1.09-2.41-2.04s-0.57-1.93-0.22-2.9s1.05-1.66,2.08-2.05L184.55,245.85z
		 M190.84,250.2c-0.21,0.58-0.19,1.14,0.06,1.68c0.25,0.55,0.67,0.92,1.23,1.13c0.57,0.21,1.13,0.19,1.67-0.07
		c0.55-0.26,0.92-0.66,1.13-1.23c0.2-0.56,0.18-1.12-0.07-1.67c-0.25-0.55-0.66-0.92-1.23-1.13c-0.57-0.21-1.12-0.18-1.67,0.06
		C191.42,249.22,191.05,249.63,190.84,250.2z"/>
</g>
<circle fill="#FFFFFF" stroke="#000000" stroke-width="6" stroke-miterlimit="10" cx="245.29" cy="329" r="10"/>
<g>
	<path d="M246.67,298.77l-1.37,3.77l2.51,0.91l1.29-3.54l1.91,0.7l-1.29,3.54l4.96,1.8l-0.8,2.2l-11.28-4.11l2.17-5.97
		L246.67,298.77z"/>
	<path d="M251.27,292.49l0.75-2.05l7.33,2.67l-0.75,2.05l-0.95-0.35c0.55,0.92,0.65,1.88,0.29,2.88c-0.36,1-1.04,1.71-2.04,2.12
		c-0.99,0.42-2.04,0.42-3.14,0.03c-1.1-0.4-1.91-1.09-2.41-2.04c-0.5-0.96-0.57-1.93-0.22-2.9s1.05-1.66,2.08-2.05L251.27,292.49z
		 M252.22,294.9c-0.21,0.58-0.19,1.14,0.06,1.68c0.25,0.55,0.67,0.92,1.23,1.13c0.57,0.21,1.13,0.19,1.67-0.07
		c0.55-0.26,0.92-0.66,1.13-1.23c0.21-0.56,0.18-1.12-0.07-1.67c-0.25-0.55-0.66-0.92-1.23-1.13c-0.57-0.21-1.12-0.18-1.67,0.06
		C252.8,293.92,252.43,294.33,252.22,294.9z"/>
	<path d="M248.77,285.9c0.12-0.34,0.34-0.58,0.67-0.74c0.33-0.15,0.66-0.16,1-0.04c0.34,0.12,0.59,0.36,0.74,0.68
		c0.16,0.33,0.18,0.67,0.05,1.01c-0.12,0.34-0.35,0.58-0.68,0.74c-0.33,0.15-0.67,0.17-1.01,0.04c-0.34-0.12-0.59-0.36-0.74-0.69
		C248.65,286.58,248.65,286.24,248.77,285.9z M253.46,286.48l7.33,2.67l-0.74,2.04l-7.33-2.67L253.46,286.48z"/>
	<path d="M262.24,285.16l-0.75,2.05l-7.33-2.67l0.75-2.05l1.11,0.41c-0.72-0.83-0.91-1.71-0.57-2.62c0.11-0.29,0.27-0.57,0.51-0.83
		l1.8,0.98c-0.28,0.24-0.49,0.53-0.6,0.88c-0.43,1.17,0.09,2.03,1.56,2.56L262.24,285.16z"/>
	<path d="M257.06,276.6l4.85-0.42l-3.45-3.42l0.84-2.3l6.1,6.5l-0.34,0.92l-8.84,1.02L257.06,276.6z"/>
	<path d="M255.73,266.78c0.12-0.34,0.34-0.58,0.67-0.74c0.33-0.15,0.66-0.16,1-0.04c0.34,0.12,0.59,0.36,0.74,0.68
		c0.16,0.33,0.18,0.67,0.05,1.01c-0.12,0.34-0.35,0.58-0.68,0.73c-0.33,0.15-0.67,0.17-1.01,0.05c-0.34-0.12-0.59-0.36-0.74-0.69
		C255.61,267.46,255.61,267.12,255.73,266.78z M260.42,267.36l7.33,2.67l-0.74,2.04l-7.33-2.67L260.42,267.36z"/>
	<path d="M267.74,259.68l-2,5.49c1.33,0.42,2.2,0.06,2.61-1.08c0.26-0.71,0.14-1.41-0.35-2.1l0.99-1.78
		c1.29,1.19,1.62,2.65,0.98,4.42c-0.44,1.2-1.14,2.02-2.11,2.48s-2.04,0.47-3.22,0.04s-2-1.12-2.45-2.08
		c-0.46-0.96-0.47-2.02-0.05-3.18c0.42-1.16,1.11-1.95,2.06-2.37c0.95-0.41,2.03-0.39,3.26,0.06L267.74,259.68z M264.46,264.63
		l1.26-3.47c-1.05-0.13-1.75,0.28-2.09,1.21C263.31,263.27,263.6,264.12,264.46,264.63z"/>
	<path d="M264.67,255.67l4.93-0.39l-3.7-3.61l0.32-0.88l5.22-0.36l-3.58-3.52l0.83-2.29l6.1,6.51l-0.34,0.92l-5.17,0.37l3.73,3.57
		l-0.34,0.94l-8.84,1.04L264.67,255.67z"/>
	<path d="M271.63,244.62l2.56-7.04l1.7,0.62l-2.56,7.04L271.63,244.62z"/>
	<path d="M276.49,233.01l4.18,1.52l-0.8,2.2l-11.28-4.11l1.2-3.29c0.27-0.74,0.55-1.3,0.83-1.7c0.29-0.4,0.67-0.72,1.11-0.97
		c0.97-0.52,2-0.57,3.06-0.19c1.07,0.39,1.82,1.02,2.26,1.88c0.44,0.86,0.42,1.94-0.05,3.24L276.49,233.01z M274.58,232.31
		l0.32-0.89c0.5-1.38,0.21-2.26-0.88-2.66c-1.15-0.42-1.89,0.05-2.46,1.59l-0.28,0.76L274.58,232.31z"/>
	<path d="M276.75,221.78c0.45-1.23,1.17-2.1,2.17-2.6c1-0.51,2.08-0.55,3.24-0.13c1.16,0.42,1.96,1.15,2.39,2.19
		c0.43,1.05,0.43,2.19-0.02,3.43c-0.45,1.25-1.19,2.11-2.2,2.61c-1.01,0.5-2.09,0.54-3.23,0.12c-1.15-0.42-1.94-1.15-2.37-2.2
		C276.28,224.16,276.3,223.01,276.75,221.78z M278.58,222.48c-0.21,0.57-0.19,1.13,0.06,1.68s0.66,0.93,1.23,1.14
		c0.57,0.21,1.13,0.19,1.67-0.07c0.55-0.26,0.93-0.67,1.13-1.24c0.21-0.57,0.19-1.14-0.07-1.69c-0.25-0.55-0.66-0.92-1.23-1.13
		c-0.57-0.21-1.12-0.18-1.67,0.07C279.16,221.49,278.79,221.91,278.58,222.48z"/>
	<path d="M275.1,213.55c0.12-0.34,0.34-0.59,0.67-0.74c0.33-0.15,0.66-0.16,1-0.04c0.34,0.12,0.59,0.36,0.74,0.68
		c0.16,0.33,0.18,0.67,0.05,1.01c-0.12,0.34-0.35,0.58-0.68,0.73c-0.33,0.15-0.67,0.17-1.01,0.04c-0.34-0.12-0.59-0.36-0.74-0.69
		C274.99,214.23,274.98,213.89,275.1,213.55z M279.79,214.13l7.33,2.67l-0.74,2.04l-7.33-2.67L279.79,214.13z"/>
	<path d="M280.5,212.2l0.75-2.05l0.92,0.33c-0.61-0.93-0.67-1.72-0.31-2.71c0.33-0.9,0.88-1.51,1.65-1.81
		c0.58-0.23,1.33-0.17,2.24,0.16l4.65,1.69l-0.75,2.05l-4.06-1.48c-0.56-0.2-0.98-0.28-1.26-0.22c-0.47,0.07-0.8,0.4-1.01,0.99
		c-0.38,1.03,0.11,1.8,1.47,2.29l3.79,1.38l-0.75,2.05L280.5,212.2z"/>
	<path d="M286.3,201.77l5.55,2.02l-0.75,2.05l-5.55-2.02l-0.29,0.81l-1.78-0.65l0.29-0.81l-2.5-0.91l0.75-2.05l2.5,0.91l0.53-1.45
		l1.78,0.65L286.3,201.77z"/>
	<path d="M292.07,192.83l-2,5.49c1.33,0.42,2.2,0.06,2.61-1.08c0.26-0.71,0.14-1.41-0.35-2.1l0.99-1.78
		c1.29,1.19,1.62,2.65,0.98,4.42c-0.44,1.2-1.14,2.02-2.11,2.48s-2.04,0.47-3.22,0.04c-1.18-0.43-2-1.12-2.45-2.08
		c-0.46-0.96-0.47-2.01-0.05-3.18c0.42-1.16,1.11-1.95,2.06-2.37c0.95-0.41,2.03-0.39,3.26,0.06L292.07,192.83z M288.79,197.78
		l1.26-3.47c-1.05-0.13-1.75,0.28-2.09,1.21C287.64,196.43,287.93,197.27,288.79,197.78z"/>
	<path d="M291.14,191.02l1.38-3.81l1.7,0.62l-1.38,3.81L291.14,191.02z"/>
	<path d="M292.77,175.6c-1.16,0.55-1.92,1.33-2.29,2.34c-0.37,1.01-0.3,2,0.19,2.99c0.49,0.99,1.29,1.69,2.39,2.09
		c1.1,0.4,2.14,0.38,3.14-0.07c0.99-0.44,1.68-1.2,2.07-2.27c0.19-0.53,0.27-1.03,0.23-1.51s-0.2-1.03-0.48-1.64l2.58,0.94
		c0.09,1.11-0.02,2.11-0.34,3c-0.61,1.67-1.68,2.88-3.23,3.61c-1.55,0.74-3.14,0.81-4.78,0.21c-1.64-0.6-2.83-1.68-3.57-3.27
		s-0.81-3.2-0.21-4.85c0.33-0.92,0.9-1.75,1.7-2.51L292.77,175.6z"/>
	<path d="M289.72,170.23l12.67,4.61l-0.75,2.05l-12.67-4.61L289.72,170.23z"/>
	<path d="M297.82,164.6l0.75-2.05l7.33,2.67l-0.75,2.05l-0.95-0.35c0.55,0.92,0.66,1.88,0.29,2.87c-0.36,1-1.04,1.71-2.04,2.12
		c-0.99,0.42-2.04,0.43-3.14,0.03c-1.1-0.4-1.91-1.09-2.41-2.05s-0.57-1.93-0.21-2.9c0.35-0.97,1.05-1.66,2.08-2.05L297.82,164.6z
		 M298.77,167.01c-0.21,0.58-0.19,1.14,0.06,1.68c0.25,0.55,0.66,0.92,1.23,1.13c0.57,0.21,1.13,0.19,1.67-0.07
		c0.55-0.26,0.92-0.66,1.13-1.23c0.21-0.56,0.18-1.12-0.07-1.67c-0.25-0.55-0.66-0.92-1.23-1.13c-0.57-0.21-1.12-0.18-1.67,0.06
		C299.35,166.03,298.97,166.44,298.77,167.01z"/>
	<path d="M295.32,158.01c0.12-0.34,0.34-0.59,0.67-0.74s0.66-0.16,1-0.04c0.34,0.12,0.59,0.35,0.74,0.68
		c0.16,0.33,0.18,0.67,0.05,1.01c-0.12,0.34-0.35,0.58-0.68,0.73s-0.67,0.17-1.01,0.04c-0.34-0.12-0.59-0.36-0.74-0.69
		C295.2,158.69,295.2,158.35,295.32,158.01z M300.01,158.59l7.33,2.67l-0.74,2.04l-7.33-2.67L300.01,158.59z"/>
	<path d="M308.78,157.27l-0.75,2.05l-7.33-2.67l0.75-2.05l1.11,0.41c-0.72-0.83-0.91-1.71-0.57-2.62c0.11-0.29,0.27-0.57,0.51-0.83
		l1.8,0.98c-0.28,0.24-0.48,0.53-0.6,0.88c-0.43,1.17,0.1,2.03,1.56,2.56L308.78,157.27z"/>
	<path d="M309.53,144.87l-2,5.49c1.33,0.42,2.2,0.06,2.61-1.08c0.26-0.71,0.14-1.41-0.35-2.1l0.99-1.78
		c1.29,1.19,1.62,2.65,0.98,4.42c-0.44,1.2-1.14,2.02-2.11,2.48s-2.04,0.47-3.22,0.04c-1.18-0.43-2-1.12-2.45-2.08
		c-0.46-0.96-0.47-2.02-0.05-3.18s1.11-1.95,2.06-2.37c0.95-0.41,2.03-0.39,3.26,0.06L309.53,144.87z M306.25,149.82l1.26-3.47
		c-1.05-0.13-1.75,0.28-2.09,1.21C305.1,148.47,305.39,149.31,306.25,149.82z"/>
</g>
<circle fill="#FFFFFF" stroke="#000000" stroke-width="6" stroke-miterlimit="10" cx="322.94" cy="329" r="10"/>
<g>
	<path d="M331.51,308.16l-11.28-4.11l1.18-3.23c0.6-1.64,1.53-2.83,2.77-3.56c0.75-0.45,1.57-0.71,2.46-0.79
		c0.89-0.08,1.75,0.04,2.6,0.35c0.84,0.31,1.58,0.78,2.22,1.42c0.64,0.64,1.1,1.38,1.39,2.22c0.49,1.34,0.44,2.84-0.16,4.5
		L331.51,308.16z M330.41,305.26l0.22-0.59c0.49-1.35,0.56-2.45,0.19-3.33c-0.39-1.01-1.31-1.86-2.4-2.26
		c-1.15-0.42-2.24-0.36-3.25,0.2c-0.86,0.45-1.53,1.34-2.01,2.67l-0.22,0.59L330.41,305.26z"/>
	<path d="M334.81,288.73l-2,5.49c1.33,0.42,2.2,0.06,2.61-1.08c0.26-0.71,0.14-1.41-0.35-2.1l0.99-1.78
		c1.29,1.19,1.62,2.65,0.98,4.42c-0.44,1.2-1.14,2.02-2.11,2.48c-0.97,0.46-2.04,0.47-3.22,0.04s-2-1.12-2.45-2.08
		c-0.45-0.96-0.47-2.01-0.05-3.18c0.42-1.17,1.11-1.95,2.06-2.37c0.95-0.41,2.03-0.39,3.26,0.06L334.81,288.73z M331.54,293.68
		l1.26-3.47c-1.05-0.13-1.75,0.28-2.09,1.21C330.38,292.33,330.67,293.17,331.54,293.68z"/>
	<path d="M334.51,282.46c-0.48,0.31-0.78,0.62-0.89,0.92c-0.11,0.31-0.13,0.55-0.08,0.75c0.07,0.2,0.19,0.33,0.36,0.39
		c0.17,0.06,0.34,0.04,0.51-0.08c0.16-0.12,0.45-0.43,0.85-0.92c0.41-0.5,0.76-0.85,1.07-1.05c0.57-0.4,1.22-0.47,1.95-0.21
		c0.74,0.27,1.25,0.78,1.53,1.53c0.29,0.76,0.26,1.59-0.07,2.49c-0.4,1.11-1.14,1.88-2.23,2.33l-0.86-1.53
		c0.78-0.36,1.28-0.83,1.49-1.42c0.19-0.52-0.02-1.07-0.46-1.22c-0.22-0.08-0.41-0.08-0.58,0.02c-0.16,0.1-0.46,0.41-0.89,0.92
		c-0.43,0.52-0.77,0.86-1.03,1.02c-0.52,0.36-1.11,0.42-1.79,0.17c-0.69-0.25-1.15-0.7-1.41-1.35c-0.26-0.65-0.23-1.39,0.07-2.21
		c0.3-0.83,0.84-1.49,1.62-2L334.51,282.46z"/>
	<path d="M335.17,271.95c0.32,0.12,0.63,0.1,0.91-0.07c0.29-0.17,0.75-0.62,1.4-1.39s1.22-1.28,1.72-1.55
		c0.8-0.46,1.73-0.5,2.8-0.11s1.81,1.07,2.23,2.04c0.42,0.97,0.42,2.04,0,3.22c-0.58,1.59-1.77,2.62-3.56,3.09l-0.85-1.92
		c1.19-0.17,1.98-0.77,2.36-1.82c0.18-0.5,0.19-0.98,0.01-1.42c-0.18-0.43-0.5-0.73-0.97-0.91c-0.47-0.17-0.92-0.11-1.35,0.19
		c-0.21,0.14-0.66,0.62-1.33,1.43c-0.68,0.81-1.33,1.34-1.94,1.6s-1.29,0.24-2.03-0.03c-0.95-0.35-1.61-0.96-1.99-1.86
		c-0.38-0.89-0.39-1.84-0.02-2.86c0.46-1.25,1.28-2.21,2.46-2.86l1.08,1.7c-0.81,0.31-1.33,0.82-1.57,1.5
		c-0.17,0.45-0.18,0.87-0.05,1.26C334.61,271.58,334.85,271.83,335.17,271.95z"/>
	<path d="M339.86,261.71c0.45-1.23,1.18-2.1,2.17-2.6c1-0.51,2.08-0.55,3.24-0.13s1.96,1.15,2.39,2.19
		c0.43,1.05,0.43,2.19-0.02,3.43c-0.45,1.25-1.19,2.11-2.21,2.61c-1.01,0.5-2.09,0.54-3.23,0.12c-1.15-0.42-1.94-1.15-2.37-2.2
		C339.4,264.09,339.41,262.95,339.86,261.71z M341.69,262.41c-0.21,0.57-0.19,1.13,0.06,1.68c0.25,0.55,0.66,0.93,1.23,1.14
		c0.57,0.21,1.13,0.19,1.67-0.07c0.55-0.26,0.93-0.67,1.13-1.24c0.21-0.57,0.19-1.14-0.07-1.69c-0.25-0.55-0.66-0.92-1.23-1.13
		c-0.57-0.21-1.12-0.18-1.67,0.07S341.9,261.84,341.69,262.41z"/>
	<path d="M342.92,254.02l4.15,1.51c1.12,0.41,1.86,0.11,2.22-0.88c0.36-1-0.02-1.7-1.13-2.1l-4.15-1.51l0.75-2.05l4.49,1.63
		c1.98,0.72,2.62,2.38,1.79,4.66s-2.39,3.15-4.37,2.43l-4.49-1.63L342.92,254.02z"/>
	<path d="M353.54,247.64l-0.75,2.05l-7.33-2.67l0.75-2.05l1.12,0.41c-0.72-0.83-0.91-1.71-0.57-2.62c0.11-0.29,0.27-0.57,0.51-0.83
		l1.8,0.98c-0.28,0.24-0.48,0.54-0.6,0.88c-0.43,1.17,0.09,2.03,1.56,2.56L353.54,247.64z"/>
	<path d="M351.88,236.38c-0.62,0.38-1.03,0.87-1.24,1.46c-0.21,0.59-0.2,1.14,0.04,1.69c0.24,0.55,0.66,0.92,1.25,1.14
		s1.15,0.2,1.69-0.07c0.54-0.26,0.91-0.69,1.13-1.28c0.22-0.59,0.22-1.22,0-1.89l1.99,0.72c0.09,0.71,0.01,1.39-0.22,2.04
		c-0.42,1.14-1.13,1.95-2.16,2.45c-1.01,0.5-2.08,0.54-3.18,0.14c-1.1-0.4-1.89-1.13-2.37-2.17c-0.47-1.04-0.5-2.14-0.09-3.28
		c0.24-0.67,0.62-1.23,1.11-1.7L351.88,236.38z"/>
	<path d="M356.83,228.25l-2,5.49c1.33,0.42,2.2,0.06,2.61-1.08c0.26-0.71,0.14-1.41-0.35-2.1l0.99-1.78
		c1.29,1.19,1.62,2.65,0.98,4.42c-0.44,1.2-1.14,2.02-2.11,2.48c-0.97,0.46-2.04,0.47-3.22,0.04c-1.18-0.43-2-1.12-2.45-2.08
		c-0.45-0.96-0.47-2.01-0.05-3.18c0.42-1.16,1.11-1.95,2.06-2.37c0.95-0.41,2.03-0.39,3.26,0.06L356.83,228.25z M353.55,233.2
		l1.26-3.47c-1.05-0.13-1.75,0.28-2.09,1.21C352.39,231.85,352.69,232.69,353.55,233.2z"/>
	<path d="M356.52,221.98c-0.48,0.31-0.78,0.62-0.89,0.92s-0.13,0.55-0.08,0.75c0.07,0.2,0.19,0.33,0.36,0.39
		c0.17,0.06,0.34,0.04,0.51-0.08c0.16-0.12,0.45-0.43,0.85-0.92c0.41-0.5,0.76-0.86,1.07-1.05c0.57-0.4,1.22-0.47,1.96-0.21
		c0.73,0.27,1.25,0.78,1.53,1.53c0.29,0.76,0.26,1.59-0.06,2.49c-0.4,1.11-1.14,1.88-2.23,2.33l-0.86-1.53
		c0.78-0.36,1.28-0.84,1.49-1.42c0.19-0.52-0.02-1.07-0.46-1.22c-0.22-0.08-0.41-0.08-0.58,0.02c-0.16,0.1-0.46,0.4-0.89,0.92
		c-0.43,0.52-0.77,0.86-1.03,1.02c-0.52,0.36-1.11,0.42-1.79,0.17s-1.15-0.7-1.41-1.35c-0.26-0.65-0.23-1.39,0.07-2.21
		s0.84-1.49,1.62-2L356.52,221.98z"/>
</g>
<circle fill="#FFFFFF" stroke="#000000" stroke-width="6" stroke-miterlimit="10" cx="400.59" cy="329" r="10"/>
<g>
	<path d="M409.16,308.16l-11.28-4.11l1.02-2.79c0.46-1.27,1.02-2.11,1.68-2.5c0.77-0.48,1.67-0.54,2.67-0.18
		c0.62,0.23,1.11,0.56,1.46,1.01c0.16,0.23,0.28,0.59,0.38,1.06c0.4-0.62,0.81-1.02,1.25-1.21c0.73-0.34,1.56-0.35,2.47-0.02
		c0.92,0.33,1.55,0.94,1.9,1.8c0.35,0.87,0.3,1.91-0.15,3.14L409.16,308.16z M403.38,303.56l0.23-0.63
		c0.42-1.14,0.13-1.89-0.84-2.24s-1.67,0.03-2.07,1.14l-0.24,0.66L403.38,303.56z M408.18,305.31l0.35-0.95
		c0.53-1.46,0.28-2.39-0.75-2.76c-0.57-0.21-1.07-0.14-1.5,0.2c-0.33,0.24-0.64,0.76-0.93,1.54l-0.3,0.83L408.18,305.31z"/>
	<path d="M406.39,292.27c0.45-1.23,1.18-2.1,2.17-2.6c1-0.51,2.08-0.55,3.24-0.13s1.96,1.15,2.39,2.19
		c0.43,1.05,0.43,2.19-0.02,3.43c-0.45,1.25-1.19,2.11-2.2,2.61c-1.01,0.5-2.09,0.54-3.23,0.12c-1.15-0.42-1.94-1.15-2.37-2.2
		C405.92,294.64,405.94,293.5,406.39,292.27z M408.22,292.96c-0.21,0.57-0.19,1.13,0.06,1.68s0.66,0.93,1.23,1.14
		c0.57,0.21,1.13,0.19,1.67-0.07c0.55-0.26,0.93-0.67,1.13-1.24s0.19-1.14-0.07-1.69c-0.25-0.55-0.66-0.92-1.23-1.13
		c-0.57-0.21-1.12-0.18-1.67,0.07C408.8,291.98,408.43,292.39,408.22,292.96z"/>
	<path d="M404.74,284.04c0.12-0.34,0.34-0.59,0.67-0.74s0.66-0.16,1-0.04c0.34,0.12,0.59,0.36,0.74,0.68
		c0.16,0.33,0.18,0.67,0.05,1.01c-0.12,0.34-0.35,0.58-0.68,0.73s-0.67,0.17-1.01,0.04c-0.34-0.12-0.59-0.36-0.74-0.69
		C404.63,284.71,404.62,284.37,404.74,284.04z M409.43,284.61l7.33,2.67l-0.74,2.04l-7.33-2.67L409.43,284.61z"/>
	<path d="M413.31,279.29c-0.48,0.31-0.78,0.62-0.89,0.92s-0.13,0.55-0.08,0.75c0.07,0.2,0.19,0.33,0.36,0.39
		c0.17,0.06,0.34,0.04,0.51-0.08c0.16-0.12,0.45-0.43,0.85-0.92c0.41-0.5,0.76-0.86,1.07-1.05c0.57-0.4,1.22-0.47,1.95-0.21
		s1.25,0.78,1.53,1.53c0.29,0.76,0.26,1.59-0.07,2.49c-0.4,1.11-1.14,1.88-2.23,2.33l-0.86-1.53c0.78-0.36,1.28-0.84,1.49-1.42
		c0.19-0.52-0.02-1.07-0.46-1.22c-0.22-0.08-0.41-0.08-0.58,0.02c-0.16,0.1-0.46,0.4-0.89,0.92c-0.43,0.52-0.77,0.86-1.03,1.02
		c-0.52,0.36-1.11,0.42-1.79,0.17s-1.15-0.7-1.41-1.35c-0.26-0.65-0.23-1.38,0.07-2.21c0.3-0.83,0.84-1.49,1.62-2L413.31,279.29z"/>
	<path d="M415.07,277.2l1.39-3.81l1.7,0.62l-1.39,3.81L415.07,277.2z"/>
	<path d="M414.46,264.43l-1.37,3.77l2.51,0.91l1.29-3.54l1.91,0.69l-1.29,3.54l4.96,1.8l-0.8,2.2l-11.28-4.11l2.17-5.97
		L414.46,264.43z"/>
	<path d="M425.09,264.4l-0.75,2.05l-7.33-2.67l0.75-2.05l1.11,0.41c-0.72-0.83-0.91-1.71-0.57-2.62c0.1-0.29,0.27-0.57,0.51-0.83
		l1.8,0.98c-0.29,0.24-0.49,0.54-0.6,0.88c-0.43,1.17,0.1,2.03,1.56,2.56L425.09,264.4z"/>
	<path d="M421.25,252.14l0.75-2.05l7.33,2.67l-0.75,2.05l-0.95-0.35c0.55,0.92,0.66,1.88,0.29,2.88c-0.36,1-1.04,1.71-2.04,2.12
		c-0.99,0.42-2.04,0.43-3.14,0.03c-1.1-0.4-1.91-1.09-2.41-2.04c-0.5-0.96-0.57-1.93-0.22-2.9s1.05-1.66,2.08-2.05L421.25,252.14z
		 M422.2,254.56c-0.21,0.58-0.19,1.14,0.06,1.68c0.25,0.55,0.66,0.92,1.23,1.13c0.57,0.21,1.13,0.19,1.67-0.07
		c0.55-0.26,0.92-0.66,1.13-1.23c0.2-0.56,0.18-1.12-0.07-1.67c-0.25-0.55-0.66-0.92-1.23-1.13c-0.57-0.21-1.12-0.18-1.67,0.06
		C422.78,253.57,422.4,253.99,422.2,254.56z"/>
	<path d="M422.71,248.14l0.75-2.05l0.92,0.33c-0.61-0.93-0.67-1.72-0.31-2.71c0.33-0.9,0.88-1.51,1.65-1.81
		c0.58-0.23,1.33-0.17,2.24,0.16l4.65,1.69l-0.75,2.05l-4.06-1.48c-0.56-0.2-0.98-0.28-1.26-0.22c-0.47,0.07-0.8,0.4-1.01,0.99
		c-0.38,1.03,0.11,1.8,1.47,2.29l3.79,1.38l-0.75,2.05L422.71,248.14z"/>
	<path d="M430.23,234.45c-0.62,0.38-1.03,0.87-1.24,1.46c-0.21,0.59-0.2,1.14,0.04,1.69c0.24,0.55,0.66,0.92,1.25,1.14
		c0.6,0.22,1.15,0.2,1.69-0.07c0.54-0.26,0.91-0.69,1.13-1.28c0.22-0.59,0.22-1.22,0-1.89l1.99,0.72c0.09,0.71,0.01,1.39-0.22,2.04
		c-0.42,1.14-1.13,1.95-2.16,2.45c-1.01,0.5-2.08,0.54-3.18,0.14c-1.1-0.4-1.89-1.13-2.37-2.17c-0.47-1.04-0.5-2.14-0.09-3.28
		c0.24-0.67,0.62-1.23,1.11-1.7L430.23,234.45z"/>
</g>
<circle fill="#FFFFFF" stroke="#000000" stroke-width="6" stroke-miterlimit="10" cx="478.24" cy="329" r="10"/>
<g>
	<path d="M486.81,308.16l-11.28-4.11l1.18-3.23c0.6-1.64,1.53-2.83,2.77-3.56c0.75-0.45,1.57-0.71,2.46-0.79
		c0.89-0.08,1.75,0.04,2.6,0.35c0.84,0.31,1.58,0.78,2.22,1.42c0.64,0.64,1.1,1.38,1.39,2.22c0.49,1.34,0.44,2.84-0.16,4.5
		L486.81,308.16z M485.7,305.26l0.22-0.59c0.49-1.35,0.56-2.45,0.19-3.33c-0.39-1.01-1.31-1.86-2.4-2.26
		c-1.15-0.42-2.24-0.36-3.25,0.2c-0.86,0.45-1.53,1.34-2.01,2.67l-0.22,0.59L485.7,305.26z"/>
	<path d="M484.23,292.45l4.15,1.51c1.12,0.41,1.86,0.11,2.22-0.89c0.36-1-0.02-1.7-1.13-2.1l-4.15-1.51l0.75-2.05l4.48,1.63
		c1.98,0.72,2.62,2.38,1.79,4.66c-0.83,2.28-2.39,3.15-4.37,2.43l-4.49-1.63L484.23,292.45z"/>
	<path d="M492.02,279.72l4.54,1.65l-0.8,2.2l-11.28-4.11l1.19-3.26c0.47-1.28,1.08-2.14,1.84-2.58c0.89-0.52,1.88-0.58,2.94-0.19
		c1.07,0.39,1.78,1.03,2.12,1.92c0.22,0.55,0.27,1.16,0.15,1.81l6.04-1.82l-0.99,2.71l-5.64,1.39L492.02,279.72z M490.47,279.16
		l0.23-0.64c0.51-1.4,0.15-2.38-0.94-2.78c-1.13-0.41-1.95,0.09-2.46,1.5l-0.25,0.68L490.47,279.16z"/>
	<path d="M492.52,269.68l4.15,1.51c1.12,0.41,1.86,0.12,2.22-0.88c0.36-1-0.02-1.7-1.13-2.1l-4.15-1.51l0.75-2.05l4.48,1.63
		c1.98,0.72,2.62,2.38,1.79,4.66c-0.83,2.28-2.39,3.15-4.37,2.43l-4.49-1.63L492.52,269.68z"/>
	<path d="M491.1,260.1c0.12-0.34,0.34-0.59,0.67-0.74c0.33-0.15,0.66-0.16,1-0.04c0.34,0.12,0.59,0.36,0.74,0.68
		c0.16,0.33,0.18,0.67,0.05,1.01c-0.12,0.34-0.35,0.58-0.68,0.73c-0.33,0.15-0.67,0.17-1.01,0.05c-0.34-0.12-0.59-0.36-0.74-0.69
		C490.99,260.78,490.98,260.44,491.1,260.1z M495.79,260.68l7.33,2.67l-0.74,2.04l-7.33-2.67L495.79,260.68z"/>
	<path d="M499.66,255.36c-0.48,0.31-0.78,0.62-0.89,0.92s-0.13,0.55-0.08,0.75c0.07,0.2,0.19,0.33,0.36,0.39
		c0.17,0.06,0.34,0.04,0.51-0.08c0.16-0.12,0.45-0.43,0.85-0.92c0.41-0.5,0.76-0.85,1.07-1.05c0.57-0.4,1.22-0.47,1.96-0.21
		c0.73,0.27,1.25,0.78,1.53,1.53c0.29,0.76,0.26,1.59-0.06,2.49c-0.4,1.11-1.14,1.88-2.23,2.33l-0.86-1.53
		c0.78-0.36,1.28-0.84,1.49-1.42c0.19-0.52-0.02-1.07-0.46-1.22c-0.22-0.08-0.41-0.08-0.58,0.02c-0.16,0.1-0.46,0.41-0.89,0.92
		c-0.43,0.52-0.77,0.86-1.03,1.02c-0.52,0.36-1.11,0.42-1.79,0.17s-1.15-0.7-1.41-1.35c-0.26-0.65-0.23-1.39,0.07-2.21
		c0.3-0.83,0.84-1.49,1.62-2L499.66,255.36z"/>
	<path d="M502.14,248.56c-0.48,0.31-0.78,0.62-0.89,0.92c-0.11,0.3-0.13,0.55-0.08,0.75c0.07,0.2,0.19,0.33,0.36,0.39
		c0.17,0.06,0.34,0.04,0.51-0.08c0.16-0.12,0.45-0.43,0.85-0.92c0.41-0.5,0.76-0.86,1.07-1.05c0.57-0.4,1.22-0.47,1.95-0.21
		c0.74,0.27,1.25,0.78,1.53,1.53c0.29,0.76,0.26,1.59-0.07,2.49c-0.4,1.11-1.14,1.88-2.23,2.33l-0.86-1.53
		c0.78-0.36,1.28-0.84,1.49-1.42c0.19-0.52-0.02-1.07-0.46-1.23c-0.22-0.08-0.41-0.07-0.58,0.02c-0.16,0.1-0.46,0.4-0.89,0.92
		c-0.43,0.52-0.77,0.86-1.03,1.02c-0.52,0.36-1.11,0.42-1.79,0.17s-1.15-0.7-1.41-1.35c-0.26-0.65-0.24-1.38,0.07-2.21
		s0.84-1.49,1.62-2L502.14,248.56z"/>
	<path d="M508.08,239.35l-2,5.49c1.33,0.42,2.2,0.06,2.61-1.08c0.26-0.71,0.14-1.41-0.35-2.1l0.99-1.78
		c1.29,1.19,1.62,2.65,0.98,4.42c-0.44,1.2-1.14,2.02-2.11,2.48c-0.97,0.46-2.04,0.47-3.22,0.04c-1.18-0.43-2-1.12-2.45-2.08
		c-0.45-0.96-0.47-2.01-0.05-3.18c0.42-1.17,1.11-1.95,2.06-2.37c0.95-0.41,2.03-0.39,3.26,0.06L508.08,239.35z M504.8,244.3
		l1.26-3.47c-1.05-0.13-1.75,0.28-2.09,1.21C503.65,242.95,503.94,243.79,504.8,244.3z"/>
	<path d="M506.69,230.73l0.75-2.05l7.33,2.67l-0.75,2.05l-0.95-0.35c0.55,0.92,0.66,1.88,0.29,2.87c-0.36,1-1.04,1.71-2.04,2.12
		c-0.99,0.42-2.04,0.42-3.14,0.03c-1.1-0.4-1.91-1.09-2.41-2.05c-0.5-0.96-0.57-1.93-0.22-2.9c0.35-0.97,1.05-1.66,2.08-2.05
		L506.69,230.73z M507.64,233.14c-0.21,0.58-0.19,1.14,0.06,1.68c0.25,0.55,0.66,0.92,1.23,1.13c0.57,0.21,1.13,0.19,1.67-0.07
		c0.55-0.26,0.92-0.66,1.13-1.23c0.2-0.56,0.18-1.12-0.07-1.67c-0.25-0.55-0.66-0.92-1.23-1.13c-0.57-0.21-1.12-0.18-1.67,0.06
		C508.22,232.16,507.85,232.57,507.64,233.14z"/>
	<path d="M508.9,224.68l4.15,1.51c1.11,0.41,1.86,0.11,2.22-0.89c0.36-1-0.02-1.7-1.13-2.1l-4.15-1.51l0.75-2.05l4.49,1.63
		c1.98,0.72,2.62,2.38,1.79,4.66c-0.83,2.28-2.39,3.15-4.37,2.43l-4.48-1.63L508.9,224.68z"/>
</g>
<circle fill="#FFFFFF" stroke="#000000" stroke-width="6" stroke-miterlimit="10" cx="555.88" cy="329" r="10"/>
<g>
	<path d="M564.23,308.77l-10.72-6.28l0.55-1.5l8.5-0.4l-6.21-5.88l0.55-1.52l12.17,2.3l-0.81,2.22l-7.32-1.51l5.98,5.67l-0.22,0.61
		l-8.19,0.41l6.54,3.66L564.23,308.77z"/>
	<path d="M563.52,287.23c0.45-1.23,1.17-2.1,2.17-2.6s2.08-0.55,3.24-0.13c1.16,0.42,1.96,1.15,2.39,2.19
		c0.43,1.05,0.43,2.19-0.02,3.43c-0.45,1.25-1.19,2.11-2.2,2.61c-1.01,0.5-2.09,0.54-3.23,0.12c-1.15-0.42-1.94-1.15-2.37-2.2
		C563.05,289.6,563.07,288.46,563.52,287.23z M565.35,287.92c-0.21,0.57-0.19,1.13,0.06,1.68c0.25,0.55,0.66,0.93,1.23,1.14
		c0.57,0.21,1.13,0.19,1.67-0.07c0.55-0.26,0.93-0.67,1.14-1.24c0.21-0.57,0.19-1.14-0.07-1.69c-0.25-0.55-0.66-0.92-1.23-1.13
		c-0.57-0.21-1.12-0.18-1.67,0.07C565.93,286.94,565.56,287.35,565.35,287.92z"/>
	<path d="M565.83,281.58l0.75-2.05l0.92,0.33c-0.61-0.93-0.67-1.72-0.31-2.71c0.33-0.9,0.88-1.5,1.65-1.81
		c0.58-0.23,1.33-0.17,2.24,0.16l4.65,1.69l-0.75,2.05l-4.06-1.48c-0.56-0.2-0.98-0.28-1.26-0.22c-0.47,0.07-0.8,0.4-1.01,0.99
		c-0.38,1.03,0.11,1.8,1.47,2.29l3.79,1.38l-0.75,2.05L565.83,281.58z"/>
	<path d="M571.64,271.15l5.55,2.02l-0.75,2.05l-5.55-2.02l-0.29,0.81l-1.78-0.65l0.29-0.81l-2.5-0.91l0.75-2.05l2.5,0.91l0.53-1.45
		l1.78,0.65L571.64,271.15z"/>
	<path d="M582.8,269.92l-0.75,2.05l-11.23-4.09l0.75-2.05l0.95,0.35c-0.55-0.92-0.66-1.88-0.29-2.87c0.36-0.99,1.04-1.7,2.04-2.12
		c1-0.42,2.05-0.43,3.15-0.03c1.11,0.4,1.91,1.09,2.41,2.05c0.5,0.96,0.57,1.93,0.22,2.89c-0.35,0.97-1.05,1.66-2.09,2.05
		L582.8,269.92z M573.84,264.58c-0.21,0.57-0.18,1.12,0.07,1.67c0.25,0.55,0.67,0.92,1.23,1.13c0.57,0.21,1.13,0.19,1.67-0.07
		c0.55-0.26,0.92-0.66,1.13-1.23c0.2-0.56,0.18-1.12-0.07-1.67c-0.25-0.55-0.65-0.93-1.22-1.14c-0.57-0.21-1.12-0.18-1.67,0.07
		C574.42,263.61,574.05,264.01,573.84,264.58z"/>
	<path d="M580.94,252.51l-2,5.49c1.33,0.42,2.2,0.06,2.61-1.08c0.26-0.71,0.14-1.41-0.35-2.1l0.99-1.78
		c1.29,1.19,1.62,2.66,0.98,4.42c-0.44,1.2-1.14,2.02-2.11,2.48s-2.04,0.47-3.22,0.04c-1.18-0.43-2-1.12-2.45-2.08
		c-0.46-0.96-0.47-2.01-0.05-3.18c0.42-1.16,1.11-1.95,2.06-2.37s2.03-0.39,3.26,0.06L580.94,252.51z M577.66,257.46l1.26-3.47
		c-1.05-0.13-1.75,0.28-2.09,1.21C576.51,256.11,576.8,256.95,577.66,257.46z"/>
	<path d="M572.93,245.46l12.67,4.61l-0.75,2.05l-12.67-4.61L572.93,245.46z"/>
	<path d="M574.39,241.45l12.67,4.61l-0.75,2.05l-12.67-4.61L574.39,241.45z"/>
	<path d="M576.48,238.86c0.12-0.34,0.34-0.59,0.67-0.74c0.33-0.15,0.66-0.16,1-0.04c0.34,0.12,0.59,0.36,0.74,0.68
		c0.16,0.33,0.18,0.67,0.05,1.01c-0.12,0.34-0.35,0.58-0.68,0.73c-0.33,0.15-0.67,0.17-1.01,0.05c-0.34-0.12-0.59-0.36-0.74-0.69
		C576.36,239.54,576.36,239.2,576.48,238.86z M581.17,239.43l7.33,2.67l-0.74,2.04l-7.33-2.67L581.17,239.43z"/>
	<path d="M588.49,231.75l-2,5.49c1.33,0.42,2.2,0.06,2.61-1.08c0.26-0.71,0.14-1.41-0.35-2.1l0.99-1.78
		c1.29,1.19,1.62,2.65,0.98,4.42c-0.44,1.2-1.14,2.02-2.11,2.48s-2.04,0.47-3.22,0.04c-1.18-0.43-2-1.12-2.45-2.08
		c-0.45-0.96-0.47-2.01-0.05-3.18c0.42-1.16,1.11-1.95,2.06-2.37c0.95-0.41,2.03-0.39,3.26,0.06L588.49,231.75z M585.21,236.71
		l1.26-3.47c-1.05-0.13-1.75,0.28-2.09,1.21C584.06,235.35,584.35,236.2,585.21,236.71z"/>
	<path d="M593.13,229.37l-0.75,2.05l-7.33-2.67l0.75-2.05l1.12,0.41c-0.72-0.83-0.91-1.71-0.57-2.62c0.11-0.29,0.27-0.57,0.51-0.83
		l1.8,0.98c-0.28,0.24-0.48,0.53-0.6,0.88c-0.43,1.17,0.09,2.03,1.56,2.56L593.13,229.37z"/>
</g>
<circle fill="#FFFFFF" stroke="#000000" stroke-width="6" stroke-miterlimit="10" cx="633.53" cy="329" r="10"/>
<g>
	<path d="M636.81,297.02c-1.16,0.55-1.92,1.33-2.29,2.34c-0.37,1.01-0.3,2,0.19,2.99c0.49,0.99,1.29,1.69,2.39,2.09
		c1.1,0.4,2.14,0.38,3.14-0.07c0.99-0.44,1.68-1.2,2.07-2.27c0.19-0.53,0.27-1.03,0.23-1.51c-0.04-0.48-0.2-1.03-0.48-1.64
		l2.58,0.94c0.09,1.11-0.02,2.11-0.34,3c-0.61,1.67-1.68,2.88-3.23,3.61c-1.55,0.74-3.14,0.81-4.78,0.21
		c-1.64-0.6-2.83-1.68-3.57-3.27c-0.74-1.59-0.81-3.2-0.21-4.85c0.33-0.92,0.9-1.75,1.7-2.51L636.81,297.02z"/>
	<path d="M636.4,293.89l-1.3-3.71l3.4-2.06l0.63,1.42l-2.23,1.27l0.89,2.42L636.4,293.89z M639.52,291.73
		c0.45-1.23,1.18-2.1,2.17-2.6c1-0.51,2.08-0.55,3.24-0.13s1.96,1.15,2.39,2.19c0.43,1.05,0.43,2.19-0.02,3.43
		c-0.46,1.25-1.19,2.11-2.21,2.61c-1.01,0.5-2.09,0.54-3.23,0.12c-1.15-0.42-1.94-1.15-2.37-2.2
		C639.06,294.1,639.08,292.96,639.52,291.73z M641.36,292.42c-0.21,0.57-0.19,1.13,0.06,1.68s0.66,0.93,1.23,1.14
		c0.57,0.21,1.13,0.19,1.67-0.07c0.55-0.26,0.93-0.67,1.13-1.24c0.21-0.57,0.19-1.14-0.07-1.69c-0.25-0.55-0.66-0.92-1.23-1.13
		c-0.57-0.21-1.12-0.18-1.67,0.07C641.94,291.44,641.56,291.85,641.36,292.42z"/>
	<path d="M644.39,284.6l5.55,2.02l-0.75,2.05l-5.55-2.02l-0.29,0.81l-1.78-0.65l0.29-0.81l-2.5-0.91l0.75-2.05l2.5,0.91l0.53-1.45
		l1.78,0.65L644.39,284.6z"/>
	<path d="M650.16,275.66l-2,5.49c1.33,0.42,2.2,0.06,2.61-1.08c0.26-0.71,0.14-1.41-0.35-2.1l0.99-1.78
		c1.29,1.19,1.62,2.65,0.98,4.42c-0.44,1.2-1.14,2.02-2.11,2.48c-0.97,0.46-2.04,0.47-3.22,0.04c-1.18-0.43-2-1.12-2.45-2.08
		c-0.46-0.96-0.47-2.01-0.05-3.18c0.42-1.17,1.11-1.95,2.06-2.37c0.95-0.41,2.03-0.39,3.26,0.06L650.16,275.66z M646.88,280.61
		l1.26-3.47c-1.05-0.13-1.75,0.28-2.09,1.21C645.73,279.26,646.02,280.1,646.88,280.61z"/>
	<path d="M649.23,273.85l1.39-3.81l1.7,0.62l-1.39,3.81L649.23,273.85z"/>
	<path d="M645.08,260.56l0.75-2.05l12.67,4.61l-0.75,2.05l-0.95-0.35c0.55,0.92,0.66,1.88,0.29,2.88c-0.36,1-1.04,1.71-2.04,2.12
		c-0.99,0.42-2.04,0.43-3.14,0.03c-1.1-0.4-1.91-1.09-2.41-2.04c-0.5-0.96-0.57-1.93-0.22-2.9c0.35-0.97,1.05-1.66,2.08-2.05
		L645.08,260.56z M651.37,264.92c-0.21,0.58-0.19,1.14,0.06,1.68c0.25,0.55,0.67,0.92,1.23,1.13c0.57,0.21,1.13,0.19,1.67-0.07
		c0.55-0.26,0.92-0.66,1.13-1.23c0.21-0.56,0.18-1.12-0.07-1.67c-0.25-0.55-0.66-0.92-1.23-1.13c-0.57-0.21-1.12-0.18-1.67,0.06
		C651.95,263.94,651.57,264.35,651.37,264.92z"/>
	<path d="M658.5,252.76l-2,5.49c1.33,0.42,2.2,0.06,2.61-1.08c0.26-0.71,0.14-1.41-0.35-2.1l0.99-1.78
		c1.29,1.19,1.62,2.65,0.98,4.42c-0.44,1.2-1.14,2.02-2.11,2.48s-2.04,0.47-3.22,0.04c-1.18-0.43-2-1.12-2.45-2.08
		c-0.46-0.96-0.47-2.01-0.05-3.18c0.42-1.17,1.11-1.95,2.06-2.37c0.95-0.41,2.03-0.39,3.26,0.06L658.5,252.76z M655.22,257.71
		l1.26-3.47c-1.05-0.13-1.75,0.28-2.09,1.21C654.06,256.35,654.36,257.2,655.22,257.71z"/>
	<path d="M657.56,250.95l1.39-3.81l1.7,0.62l-1.39,3.81L657.56,250.95z"/>
	<path d="M653.67,241.26l9.37,3.41l1.26-3.47l1.91,0.69l-2.06,5.67l-11.28-4.11L653.67,241.26z"/>
	<path d="M655.39,235.39c0.12-0.34,0.34-0.59,0.67-0.74c0.33-0.15,0.66-0.16,1-0.04c0.34,0.12,0.59,0.36,0.74,0.68
		c0.16,0.33,0.18,0.67,0.05,1.01c-0.12,0.34-0.35,0.58-0.68,0.73c-0.33,0.15-0.67,0.17-1.01,0.05c-0.34-0.12-0.59-0.36-0.74-0.69
		C655.27,236.07,655.27,235.73,655.39,235.39z M660.08,235.96l7.33,2.67l-0.74,2.04l-7.33-2.67L660.08,235.96z"/>
	<path d="M667.4,228.29l-2,5.49c1.33,0.42,2.2,0.06,2.61-1.08c0.26-0.71,0.14-1.41-0.35-2.1l0.99-1.78
		c1.29,1.19,1.62,2.65,0.98,4.42c-0.44,1.2-1.14,2.02-2.11,2.48s-2.04,0.47-3.22,0.04c-1.18-0.43-2-1.12-2.45-2.08
		c-0.45-0.96-0.47-2.01-0.05-3.18c0.42-1.16,1.11-1.95,2.06-2.37c0.95-0.41,2.03-0.39,3.26,0.06L667.4,228.29z M664.12,233.24
		l1.26-3.47c-1.05-0.13-1.75,0.28-2.09,1.21C662.97,231.88,663.26,232.73,664.12,233.24z"/>
	<path d="M667.1,222.01c-0.48,0.31-0.78,0.62-0.89,0.92c-0.11,0.31-0.13,0.55-0.08,0.75c0.07,0.2,0.19,0.33,0.36,0.39
		c0.17,0.06,0.34,0.04,0.5-0.08s0.45-0.43,0.85-0.92c0.41-0.5,0.76-0.86,1.07-1.05c0.57-0.4,1.22-0.47,1.95-0.21
		c0.74,0.27,1.25,0.78,1.53,1.53c0.29,0.76,0.26,1.59-0.07,2.49c-0.4,1.11-1.14,1.88-2.23,2.33l-0.86-1.53
		c0.78-0.36,1.28-0.84,1.49-1.42c0.19-0.52-0.02-1.07-0.46-1.23c-0.22-0.08-0.41-0.07-0.58,0.02c-0.16,0.1-0.46,0.4-0.89,0.92
		c-0.43,0.52-0.77,0.86-1.03,1.02c-0.52,0.36-1.11,0.42-1.79,0.17s-1.15-0.7-1.41-1.35c-0.26-0.65-0.23-1.39,0.07-2.21
		c0.3-0.83,0.84-1.49,1.62-2L667.1,222.01z"/>
	<path d="M669.57,215.21c-0.48,0.31-0.78,0.62-0.89,0.92s-0.13,0.55-0.08,0.75c0.07,0.2,0.19,0.33,0.36,0.39
		c0.17,0.06,0.34,0.04,0.5-0.08c0.16-0.12,0.45-0.43,0.85-0.93c0.41-0.5,0.76-0.85,1.07-1.05c0.57-0.4,1.22-0.47,1.95-0.21
		c0.74,0.27,1.25,0.78,1.53,1.53c0.29,0.76,0.26,1.59-0.06,2.49c-0.4,1.11-1.14,1.88-2.23,2.33l-0.86-1.53
		c0.78-0.36,1.28-0.83,1.49-1.42c0.19-0.52-0.02-1.06-0.46-1.22c-0.22-0.08-0.41-0.08-0.58,0.02c-0.16,0.1-0.46,0.4-0.89,0.92
		c-0.43,0.52-0.77,0.86-1.03,1.02c-0.52,0.36-1.11,0.42-1.79,0.17s-1.15-0.7-1.41-1.35c-0.26-0.65-0.23-1.39,0.07-2.21
		c0.3-0.83,0.84-1.49,1.62-2L669.57,215.21z"/>
	<path d="M675.51,206l-2,5.49c1.33,0.42,2.2,0.06,2.61-1.08c0.26-0.71,0.14-1.41-0.35-2.1l0.99-1.78c1.29,1.19,1.62,2.65,0.98,4.42
		c-0.44,1.2-1.14,2.02-2.11,2.48c-0.97,0.46-2.04,0.47-3.22,0.04s-2-1.12-2.45-2.08c-0.45-0.96-0.47-2.01-0.05-3.18
		c0.42-1.16,1.11-1.95,2.06-2.37c0.95-0.41,2.03-0.39,3.26,0.06L675.51,206z M672.23,210.95l1.26-3.47
		c-1.05-0.13-1.75,0.28-2.09,1.21C671.08,209.6,671.37,210.44,672.23,210.95z"/>
</g>
<circle fill="#FFFFFF" stroke="#000000" stroke-width="6" stroke-miterlimit="10" cx="711.18" cy="329" r="10"/>
<g>
	<path d="M708.87,302.93l8.67-0.25l-6.46-5.8l0.87-2.39l9.8,9.08l-0.43,1.18L708,305.34L708.87,302.93z"/>
	<path d="M712.37,292.18c0.12-0.34,0.34-0.58,0.67-0.74s0.66-0.16,1-0.04c0.34,0.12,0.59,0.36,0.74,0.68
		c0.16,0.33,0.18,0.67,0.05,1.01c-0.12,0.34-0.35,0.58-0.68,0.73c-0.33,0.15-0.67,0.17-1.01,0.04c-0.34-0.12-0.59-0.35-0.74-0.69
		C712.25,292.86,712.25,292.52,712.37,292.18z M717.06,292.75l7.33,2.67l-0.74,2.04l-7.33-2.67L717.06,292.75z"/>
	<path d="M713.17,286.83l12.67,4.61l-0.75,2.05l-12.67-4.61L713.17,286.83z"/>
	<path d="M714.62,282.82l12.67,4.61l-0.75,2.05l-12.67-4.61L714.62,282.82z"/>
	<path d="M727.3,277.06l-2,5.49c1.33,0.42,2.2,0.06,2.61-1.08c0.26-0.71,0.14-1.41-0.35-2.1l0.99-1.78
		c1.29,1.19,1.62,2.65,0.98,4.42c-0.44,1.2-1.14,2.02-2.11,2.48c-0.97,0.46-2.04,0.47-3.22,0.04c-1.18-0.43-2-1.12-2.45-2.08
		c-0.45-0.96-0.47-2.01-0.05-3.18c0.42-1.16,1.11-1.95,2.06-2.37c0.95-0.41,2.03-0.39,3.26,0.06L727.3,277.06z M724.02,282.01
		l1.26-3.47c-1.05-0.13-1.75,0.28-2.09,1.21C722.86,280.66,723.16,281.5,724.02,282.01z"/>
	<path d="M726.37,275.26l1.39-3.81l1.7,0.62l-1.39,3.81L726.37,275.26z"/>
	<path d="M722.21,261.97l0.75-2.05l12.67,4.61l-0.75,2.05l-0.95-0.35c0.55,0.92,0.66,1.88,0.29,2.88c-0.36,1-1.04,1.71-2.04,2.12
		c-0.99,0.42-2.04,0.42-3.14,0.03c-1.1-0.4-1.91-1.09-2.41-2.04c-0.5-0.96-0.57-1.93-0.22-2.9c0.36-0.97,1.05-1.66,2.08-2.05
		L722.21,261.97z M728.5,266.33c-0.21,0.58-0.19,1.14,0.06,1.68c0.25,0.55,0.66,0.92,1.23,1.13c0.57,0.21,1.13,0.19,1.67-0.07
		c0.55-0.26,0.92-0.66,1.13-1.23c0.2-0.56,0.18-1.12-0.07-1.67c-0.25-0.55-0.66-0.92-1.23-1.13c-0.57-0.21-1.12-0.18-1.67,0.06
		C729.09,265.34,728.71,265.75,728.5,266.33z"/>
	<path d="M735.63,254.16l-2,5.49c1.33,0.42,2.2,0.06,2.61-1.08c0.26-0.71,0.14-1.41-0.35-2.1l0.99-1.78
		c1.29,1.19,1.62,2.65,0.98,4.42c-0.44,1.2-1.14,2.02-2.11,2.48c-0.97,0.46-2.04,0.47-3.22,0.04c-1.18-0.43-2-1.12-2.45-2.08
		c-0.45-0.96-0.47-2.01-0.05-3.18c0.42-1.17,1.11-1.95,2.06-2.37c0.95-0.41,2.03-0.39,3.26,0.06L735.63,254.16z M732.35,259.11
		l1.26-3.47c-1.05-0.13-1.75,0.28-2.09,1.21C731.2,257.76,731.49,258.6,732.35,259.11z"/>
	<path d="M734.7,252.35l1.39-3.81l1.7,0.62l-1.39,3.81L734.7,252.35z"/>
	<path d="M741.07,249.58l-10.73-6.28l0.55-1.5l8.5-0.4l-6.21-5.88l0.55-1.52l12.17,2.3l-0.81,2.22l-7.32-1.52l5.98,5.67l-0.22,0.61
		l-8.19,0.41l6.54,3.66L741.07,249.58z"/>
	<path d="M740.35,228.04c0.45-1.23,1.17-2.1,2.17-2.6c1-0.51,2.08-0.55,3.24-0.13s1.96,1.15,2.39,2.19
		c0.43,1.05,0.43,2.19-0.02,3.43s-1.19,2.11-2.2,2.61c-1.01,0.5-2.09,0.54-3.23,0.12c-1.15-0.42-1.94-1.15-2.37-2.2
		C739.89,230.42,739.9,229.27,740.35,228.04z M742.18,228.74c-0.21,0.57-0.19,1.13,0.06,1.68c0.25,0.55,0.66,0.93,1.23,1.14
		c0.57,0.21,1.13,0.19,1.67-0.07c0.55-0.26,0.93-0.67,1.14-1.24c0.21-0.57,0.19-1.14-0.07-1.69c-0.25-0.55-0.66-0.92-1.23-1.13
		c-0.57-0.21-1.12-0.18-1.67,0.07C742.77,227.75,742.39,228.17,742.18,228.74z"/>
	<path d="M742.67,222.4l0.75-2.05l0.92,0.33c-0.61-0.93-0.67-1.72-0.31-2.71c0.33-0.9,0.88-1.5,1.65-1.81
		c0.58-0.23,1.33-0.17,2.24,0.16l4.65,1.69l-0.75,2.05l-4.06-1.48c-0.56-0.2-0.98-0.28-1.26-0.22c-0.47,0.07-0.8,0.4-1.01,0.99
		c-0.38,1.03,0.11,1.8,1.47,2.29l3.79,1.38l-0.75,2.05L742.67,222.4z"/>
	<path d="M748.47,211.97l5.55,2.02l-0.75,2.05l-5.55-2.02l-0.29,0.81l-1.78-0.65l0.29-0.81l-2.5-0.91l0.75-2.05l2.5,0.91l0.53-1.45
		l1.78,0.65L748.47,211.97z"/>
	<path d="M750.04,210.21l1.39-3.81l1.7,0.62l-1.39,3.81L750.04,210.21z"/>
	<path d="M752.9,202.98l4.53,1.65l-0.8,2.2l-11.28-4.11l1.19-3.26c0.47-1.28,1.08-2.14,1.84-2.59c0.89-0.52,1.88-0.58,2.94-0.19
		c1.07,0.39,1.78,1.03,2.12,1.92c0.22,0.55,0.27,1.16,0.15,1.81l6.04-1.82l-0.99,2.71l-5.64,1.39L752.9,202.98z M751.34,202.41
		l0.23-0.64c0.51-1.4,0.15-2.38-0.94-2.78c-1.13-0.41-1.95,0.09-2.46,1.5l-0.25,0.68L751.34,202.41z"/>
	<path d="M753.79,191.11c0.45-1.23,1.18-2.1,2.17-2.6s2.08-0.55,3.24-0.13c1.16,0.42,1.96,1.15,2.39,2.19
		c0.43,1.05,0.43,2.19-0.02,3.43s-1.19,2.11-2.2,2.61s-2.09,0.54-3.23,0.12c-1.15-0.42-1.94-1.15-2.37-2.2
		C753.33,193.48,753.35,192.34,753.79,191.11z M755.63,191.8c-0.21,0.57-0.19,1.13,0.06,1.68c0.25,0.55,0.66,0.93,1.23,1.14
		s1.13,0.19,1.67-0.07c0.55-0.26,0.93-0.67,1.13-1.24c0.21-0.57,0.19-1.14-0.07-1.69c-0.25-0.55-0.66-0.92-1.23-1.13
		c-0.57-0.21-1.12-0.18-1.67,0.07C756.21,190.82,755.83,191.23,755.63,191.8z"/>
	<path d="M763.07,185.66l-7.47,1.21l0.87-2.39l4.96-0.68l-3.4-3.6l0.86-2.35l9.08,10.01l-0.84,2.32L763.07,185.66z"/>
	<path d="M761.15,171.61l0.75-2.05l7.33,2.67l-0.75,2.05l-0.95-0.35c0.55,0.92,0.65,1.88,0.29,2.87s-1.04,1.71-2.04,2.12
		c-0.99,0.42-2.04,0.42-3.14,0.03c-1.1-0.4-1.91-1.09-2.41-2.05c-0.5-0.96-0.57-1.93-0.22-2.9c0.36-0.97,1.05-1.66,2.08-2.05
		L761.15,171.61z M762.1,174.02c-0.21,0.58-0.19,1.14,0.06,1.68c0.25,0.55,0.66,0.92,1.23,1.13c0.57,0.21,1.13,0.19,1.67-0.07
		c0.55-0.26,0.93-0.66,1.13-1.23s0.18-1.12-0.07-1.67c-0.25-0.55-0.66-0.92-1.23-1.13c-0.57-0.21-1.12-0.18-1.67,0.06
		C762.68,173.04,762.31,173.45,762.1,174.02z"/>
	<path d="M758.01,163.61l12.67,4.61l-0.75,2.05l-12.67-4.61L758.01,163.61z"/>
</g>
<circle fill="#FFFFFF" stroke="#000000" stroke-width="6" stroke-miterlimit="10" cx="788.82" cy="329" r="10"/>
<g>
	<path d="M792.11,297.02c-1.16,0.55-1.92,1.33-2.29,2.34c-0.37,1.01-0.3,2,0.19,2.99c0.49,0.99,1.29,1.69,2.39,2.09
		c1.1,0.4,2.14,0.38,3.14-0.07c0.99-0.44,1.68-1.2,2.07-2.27c0.19-0.53,0.27-1.03,0.23-1.51c-0.04-0.48-0.2-1.03-0.48-1.64
		l2.58,0.94c0.09,1.11-0.02,2.11-0.34,3c-0.61,1.67-1.68,2.88-3.23,3.61c-1.55,0.74-3.14,0.81-4.78,0.21
		c-1.64-0.6-2.83-1.68-3.57-3.27c-0.74-1.59-0.81-3.2-0.21-4.85c0.33-0.92,0.9-1.75,1.7-2.51L792.11,297.02z"/>
	<path d="M795.7,290.04l0.75-2.05l7.33,2.67l-0.75,2.05l-0.95-0.35c0.55,0.92,0.65,1.88,0.29,2.88c-0.36,1-1.04,1.71-2.04,2.12
		c-0.99,0.42-2.04,0.43-3.14,0.03c-1.1-0.4-1.91-1.09-2.41-2.04c-0.5-0.96-0.57-1.93-0.22-2.9c0.36-0.97,1.05-1.66,2.08-2.05
		L795.7,290.04z M796.64,292.45c-0.21,0.58-0.19,1.14,0.06,1.68c0.25,0.55,0.66,0.92,1.23,1.13c0.57,0.21,1.13,0.19,1.67-0.07
		c0.55-0.26,0.93-0.66,1.13-1.23s0.18-1.12-0.07-1.67c-0.25-0.55-0.66-0.92-1.23-1.13c-0.57-0.21-1.12-0.18-1.67,0.06
		C797.22,291.46,796.85,291.88,796.64,292.45z"/>
	<path d="M797.15,286.03l0.75-2.05l0.92,0.33c-0.61-0.93-0.67-1.72-0.31-2.71c0.33-0.9,0.88-1.5,1.65-1.81
		c0.58-0.23,1.33-0.17,2.24,0.16l4.65,1.69l-0.75,2.05l-4.06-1.48c-0.56-0.2-0.98-0.28-1.26-0.22c-0.47,0.07-0.8,0.4-1.01,0.99
		c-0.38,1.03,0.11,1.8,1.47,2.29l3.79,1.38l-0.75,2.05L797.15,286.03z"/>
	<path d="M801.59,273.11c0.45-1.23,1.18-2.1,2.17-2.6c1-0.51,2.08-0.55,3.24-0.13s1.96,1.15,2.39,2.19
		c0.43,1.05,0.43,2.19-0.02,3.43c-0.45,1.25-1.19,2.11-2.21,2.61c-1.01,0.5-2.09,0.54-3.23,0.12c-1.15-0.42-1.94-1.15-2.37-2.2
		C801.13,275.49,801.15,274.34,801.59,273.11z M803.43,273.81c-0.21,0.57-0.19,1.13,0.06,1.68s0.66,0.93,1.23,1.14
		c0.57,0.21,1.13,0.19,1.67-0.07c0.55-0.26,0.93-0.67,1.13-1.24c0.21-0.57,0.19-1.14-0.07-1.69c-0.25-0.55-0.66-0.92-1.23-1.13
		c-0.57-0.21-1.12-0.18-1.67,0.07C804.01,272.82,803.63,273.24,803.43,273.81z"/>
	<path d="M811.98,268.08l-0.75,2.05l-7.33-2.67l0.75-2.05l1.11,0.41c-0.72-0.83-0.91-1.71-0.57-2.62c0.11-0.29,0.27-0.57,0.51-0.83
		l1.8,0.98c-0.29,0.24-0.49,0.54-0.6,0.88c-0.43,1.17,0.09,2.03,1.56,2.56L811.98,268.08z"/>
	<path d="M808.15,255.83l0.75-2.05l7.33,2.67l-0.75,2.05l-0.95-0.35c0.55,0.92,0.65,1.88,0.29,2.88s-1.04,1.71-2.04,2.12
		c-0.99,0.42-2.04,0.43-3.14,0.03c-1.1-0.4-1.91-1.09-2.41-2.04c-0.5-0.96-0.57-1.93-0.22-2.9s1.05-1.66,2.08-2.05L808.15,255.83z
		 M809.09,258.24c-0.21,0.58-0.19,1.14,0.06,1.68c0.25,0.55,0.66,0.92,1.23,1.13c0.57,0.21,1.13,0.19,1.67-0.07
		c0.55-0.26,0.92-0.66,1.13-1.23c0.21-0.56,0.18-1.12-0.07-1.67c-0.25-0.55-0.66-0.92-1.23-1.13c-0.57-0.21-1.12-0.18-1.67,0.06
		C809.67,257.25,809.3,257.67,809.09,258.24z"/>
</g>
<circle fill="#FFFFFF" stroke="#000000" stroke-width="6" stroke-miterlimit="10" cx="866.47" cy="329" r="10"/>
<g>
	<path d="M864.2,297.21l0.9,3.52l-1.15,0.59l-1.41-3.13L864.2,297.21z M869.24,298.51l-1.47,4.04l2.51,0.91l1.42-3.89l1.91,0.69
		l-1.42,3.89l3.05,1.11l1.47-4.04l1.91,0.69l-2.27,6.24l-11.28-4.11l2.27-6.24L869.24,298.51z"/>
	<path d="M868.64,289.88l0.75-2.05l12.67,4.61l-0.75,2.05l-0.95-0.35c0.55,0.92,0.65,1.88,0.29,2.88s-1.04,1.71-2.04,2.12
		c-0.99,0.41-2.04,0.42-3.14,0.02c-1.1-0.4-1.91-1.09-2.41-2.04s-0.57-1.93-0.22-2.9c0.36-0.97,1.05-1.66,2.08-2.05L868.64,289.88z
		 M874.93,294.24c-0.21,0.58-0.19,1.14,0.06,1.68c0.25,0.55,0.66,0.92,1.23,1.13c0.57,0.21,1.13,0.19,1.67-0.07
		c0.55-0.26,0.93-0.66,1.13-1.23s0.18-1.12-0.07-1.67c-0.25-0.55-0.66-0.92-1.23-1.13c-0.57-0.21-1.12-0.18-1.67,0.06
		C875.52,293.26,875.14,293.67,874.93,294.24z"/>
	<path d="M876.61,283.92c0.45-1.23,1.18-2.1,2.17-2.6c1-0.51,2.08-0.55,3.24-0.13s1.96,1.15,2.39,2.19
		c0.43,1.05,0.43,2.19-0.02,3.43c-0.46,1.25-1.19,2.11-2.21,2.61c-1.01,0.5-2.09,0.54-3.23,0.12c-1.15-0.42-1.94-1.15-2.37-2.2
		C876.14,286.29,876.16,285.15,876.61,283.92z M878.44,284.61c-0.21,0.57-0.19,1.13,0.06,1.68s0.66,0.93,1.23,1.14
		c0.57,0.21,1.13,0.19,1.67-0.07c0.55-0.26,0.93-0.67,1.13-1.24c0.21-0.57,0.19-1.14-0.07-1.69c-0.25-0.55-0.66-0.92-1.23-1.13
		c-0.57-0.21-1.12-0.18-1.67,0.07C879.02,283.62,878.65,284.04,878.44,284.61z"/>
	<path d="M879.67,276.22l4.15,1.51c1.12,0.41,1.86,0.12,2.22-0.88c0.36-1-0.02-1.7-1.13-2.1l-4.15-1.51l0.75-2.05l4.49,1.63
		c1.98,0.72,2.62,2.38,1.79,4.66c-0.83,2.28-2.39,3.15-4.37,2.43l-4.49-1.63L879.67,276.22z"/>
	<path d="M884.26,263.61l0.75-2.05l7.33,2.67l-0.75,2.05l-0.95-0.35c0.55,0.92,0.66,1.88,0.29,2.87c-0.36,1-1.04,1.71-2.04,2.12
		c-0.99,0.42-2.04,0.42-3.14,0.03c-1.1-0.4-1.91-1.09-2.41-2.05s-0.57-1.93-0.22-2.9c0.36-0.97,1.05-1.66,2.08-2.05L884.26,263.61z
		 M885.21,266.02c-0.21,0.58-0.19,1.14,0.06,1.68c0.25,0.55,0.66,0.92,1.23,1.13c0.57,0.21,1.13,0.19,1.67-0.07
		c0.55-0.26,0.92-0.66,1.13-1.23s0.18-1.12-0.07-1.67c-0.25-0.55-0.66-0.92-1.23-1.13c-0.57-0.21-1.12-0.18-1.67,0.06
		C885.79,265.04,885.41,265.45,885.21,266.02z"/>
	<path d="M893.79,260.22l-0.75,2.05l-7.33-2.67l0.75-2.05l1.12,0.41c-0.72-0.83-0.91-1.71-0.57-2.62c0.11-0.29,0.27-0.57,0.51-0.83
		l1.8,0.98c-0.28,0.24-0.49,0.53-0.6,0.88c-0.43,1.17,0.09,2.03,1.56,2.56L893.79,260.22z"/>
	<path d="M884.61,246.02l0.75-2.05l12.67,4.61l-0.75,2.05l-0.95-0.35c0.55,0.92,0.66,1.88,0.29,2.87c-0.36,1-1.04,1.71-2.04,2.12
		c-0.99,0.42-2.04,0.42-3.14,0.03c-1.1-0.4-1.9-1.09-2.41-2.05c-0.5-0.96-0.57-1.93-0.22-2.9c0.36-0.97,1.05-1.66,2.08-2.05
		L884.61,246.02z M890.9,250.38c-0.21,0.58-0.19,1.14,0.06,1.68c0.25,0.55,0.66,0.92,1.23,1.13c0.57,0.21,1.13,0.19,1.67-0.07
		c0.55-0.26,0.92-0.66,1.13-1.23s0.18-1.12-0.07-1.67c-0.25-0.55-0.66-0.92-1.23-1.13c-0.57-0.21-1.12-0.18-1.67,0.06
		C891.48,249.39,891.11,249.81,890.9,250.38z"/>
	<path d="M893.65,245.89l1.39-3.81l1.7,0.62l-1.39,3.81L893.65,245.89z"/>
	<path d="M900.01,243.12l-10.72-6.28l0.55-1.5l8.5-0.4l-6.21-5.88l0.55-1.52l12.17,2.3l-0.81,2.22l-7.32-1.52l5.98,5.67l-0.22,0.61
		l-8.19,0.41l6.54,3.66L900.01,243.12z"/>
	<path d="M899.29,221.58c0.45-1.23,1.18-2.1,2.17-2.6c1-0.51,2.08-0.55,3.24-0.13s1.96,1.15,2.39,2.19
		c0.43,1.05,0.43,2.19-0.02,3.43c-0.45,1.25-1.19,2.11-2.21,2.61c-1.01,0.5-2.09,0.54-3.23,0.12c-1.15-0.42-1.94-1.15-2.37-2.2
		S898.85,222.81,899.29,221.58z M901.13,222.27c-0.21,0.57-0.19,1.13,0.06,1.68c0.25,0.55,0.66,0.93,1.23,1.14
		c0.57,0.21,1.13,0.19,1.67-0.07c0.55-0.26,0.93-0.67,1.13-1.24c0.21-0.57,0.19-1.14-0.07-1.69c-0.25-0.55-0.66-0.92-1.23-1.13
		c-0.57-0.21-1.12-0.18-1.67,0.07C901.71,221.29,901.33,221.7,901.13,222.27z"/>
	<path d="M901.61,215.93l0.75-2.05l0.92,0.33c-0.61-0.93-0.67-1.72-0.31-2.71c0.33-0.9,0.88-1.5,1.65-1.81
		c0.58-0.23,1.33-0.17,2.24,0.16l4.65,1.69l-0.75,2.05l-4.06-1.48c-0.56-0.2-0.98-0.28-1.26-0.22c-0.47,0.07-0.8,0.4-1.01,0.99
		c-0.38,1.03,0.11,1.8,1.47,2.29l3.79,1.38l-0.75,2.05L901.61,215.93z"/>
	<path d="M907.42,205.5l5.55,2.02l-0.75,2.05l-5.55-2.02l-0.29,0.81l-1.78-0.65l0.29-0.81l-2.5-0.91l0.75-2.05l2.5,0.91l0.53-1.45
		l1.78,0.65L907.42,205.5z"/>
	<path d="M918.58,204.27l-0.75,2.05l-11.23-4.09l0.75-2.05l0.95,0.35c-0.55-0.92-0.66-1.88-0.29-2.87c0.36-0.99,1.04-1.7,2.04-2.12
		c1-0.42,2.05-0.43,3.15-0.03s1.91,1.09,2.41,2.05s0.57,1.93,0.22,2.89s-1.05,1.66-2.09,2.05L918.58,204.27z M909.62,198.93
		c-0.21,0.57-0.18,1.12,0.07,1.67s0.66,0.92,1.23,1.13c0.57,0.21,1.13,0.19,1.67-0.07c0.55-0.26,0.92-0.66,1.13-1.23
		c0.21-0.56,0.18-1.12-0.07-1.67c-0.25-0.55-0.65-0.93-1.22-1.14c-0.57-0.21-1.12-0.18-1.67,0.07
		C910.2,197.95,909.83,198.36,909.62,198.93z"/>
	<path d="M916.72,186.86l-2,5.49c1.33,0.42,2.2,0.06,2.61-1.08c0.26-0.71,0.14-1.41-0.35-2.1l0.99-1.78
		c1.29,1.19,1.62,2.65,0.98,4.42c-0.44,1.2-1.14,2.02-2.11,2.48c-0.97,0.46-2.04,0.47-3.22,0.04c-1.18-0.43-2-1.12-2.45-2.08
		c-0.45-0.96-0.47-2.01-0.05-3.18c0.42-1.17,1.11-1.95,2.06-2.37c0.95-0.41,2.03-0.39,3.26,0.06L916.72,186.86z M913.44,191.81
		l1.26-3.47c-1.05-0.13-1.75,0.28-2.09,1.21C912.29,190.46,912.58,191.3,913.44,191.81z"/>
	<path d="M915.86,182.32l5.55,2.02l-0.75,2.05l-5.55-2.02l-0.29,0.81l-1.78-0.65l0.29-0.81l-2.5-0.91l0.75-2.05l2.5,0.91l0.53-1.45
		l1.78,0.65L915.86,182.32z"/>
	<path d="M911.08,176.46c0.12-0.34,0.34-0.59,0.67-0.74c0.33-0.15,0.66-0.16,1-0.04c0.34,0.12,0.59,0.36,0.74,0.68
		c0.16,0.33,0.18,0.67,0.05,1.01c-0.12,0.34-0.35,0.58-0.68,0.73c-0.33,0.15-0.67,0.17-1.01,0.04c-0.34-0.12-0.59-0.36-0.74-0.69
		C910.96,177.14,910.95,176.8,911.08,176.46z M915.77,177.04l7.33,2.67l-0.74,2.04l-7.33-2.67L915.77,177.04z"/>
	<path d="M919,173.69l5.55,2.02l-0.75,2.05l-5.55-2.02l-0.29,0.81l-1.78-0.65l0.29-0.81l-2.5-0.91l0.75-2.05l2.5,0.91l0.53-1.45
		l1.78,0.65L919,173.69z"/>
</g>
<circle fill="#FFFFFF" stroke="#000000" stroke-width="6" stroke-miterlimit="10" cx="944.12" cy="329" r="10"/>
<g>
	<path d="M952.47,308.77l-10.72-6.28l0.55-1.5l8.5-0.4l-6.21-5.88l0.55-1.52l12.17,2.3l-0.81,2.22l-7.32-1.51l5.98,5.67l-0.22,0.61
		l-8.19,0.41l6.54,3.66L952.47,308.77z"/>
	<path d="M954.83,286.46c-0.62,0.38-1.03,0.87-1.24,1.46c-0.21,0.59-0.2,1.14,0.04,1.69c0.24,0.54,0.66,0.92,1.25,1.14
		c0.59,0.22,1.15,0.2,1.69-0.07c0.54-0.26,0.91-0.69,1.13-1.28c0.22-0.59,0.22-1.22,0-1.89l1.99,0.72c0.09,0.71,0.01,1.39-0.22,2.04
		c-0.41,1.14-1.13,1.95-2.15,2.45c-1.01,0.5-2.08,0.54-3.18,0.14c-1.1-0.4-1.89-1.13-2.37-2.17c-0.47-1.04-0.5-2.14-0.09-3.28
		c0.24-0.67,0.62-1.23,1.11-1.7L954.83,286.46z"/>
	<path d="M956.63,278.55l1.88-5.15c1.48,0.55,2.53,1.15,3.13,1.8c1.55,1.61,1.98,3.74,1.16,5.98c-0.62,1.71-1.69,2.93-3.2,3.64
		s-3.11,0.77-4.82,0.14c-1.71-0.62-2.92-1.7-3.63-3.24c-0.71-1.54-0.75-3.17-0.12-4.91c0.78-2.14,2.25-3.44,4.42-3.87l0.33,2.31
		c-1.36,0.27-2.28,1.04-2.74,2.31c-0.39,1.07-0.34,2.08,0.15,3.06c0.49,0.97,1.29,1.67,2.42,2.08c1.12,0.41,2.17,0.4,3.16-0.04
		s1.66-1.18,2.05-2.25c0.29-0.8,0.32-1.55,0.08-2.26c-0.24-0.71-0.7-1.23-1.39-1.57l-0.96,2.65L956.63,278.55z"/>
	<path d="M953.89,268.62c0.12-0.34,0.34-0.59,0.67-0.74c0.33-0.15,0.66-0.16,1-0.04c0.34,0.12,0.59,0.36,0.74,0.68
		c0.16,0.33,0.18,0.67,0.05,1.01c-0.12,0.34-0.35,0.58-0.68,0.73s-0.67,0.17-1.01,0.04c-0.34-0.12-0.59-0.36-0.74-0.69
		C953.77,269.29,953.76,268.95,953.89,268.62z M958.58,269.19l7.33,2.67l-0.74,2.04l-7.33-2.67L958.58,269.19z"/>
	<path d="M954.68,263.27l12.67,4.61l-0.75,2.05l-12.67-4.61L954.68,263.27z"/>
	<path d="M956.14,259.26l12.67,4.61l-0.75,2.05l-12.67-4.61L956.14,259.26z"/>
</g>
<circle fill="#FFFFFF" stroke="#000000" stroke-width="6" stroke-miterlimit="10" cx="1021.76" cy="329" r="10"/>
<g>
	<path d="M1026.37,300.28l1.88-5.15c1.48,0.55,2.53,1.15,3.13,1.8c1.55,1.61,1.98,3.74,1.16,5.98c-0.62,1.71-1.69,2.93-3.2,3.64
		c-1.5,0.72-3.11,0.77-4.82,0.14c-1.71-0.62-2.92-1.7-3.63-3.24c-0.71-1.54-0.75-3.17-0.12-4.91c0.78-2.14,2.25-3.44,4.42-3.87
		l0.33,2.31c-1.36,0.27-2.28,1.04-2.74,2.31c-0.39,1.07-0.34,2.08,0.15,3.06c0.49,0.97,1.29,1.67,2.42,2.08
		c1.12,0.41,2.17,0.4,3.16-0.04s1.66-1.18,2.05-2.25c0.29-0.8,0.32-1.55,0.08-2.26c-0.24-0.71-0.7-1.23-1.39-1.57l-0.96,2.65
		L1026.37,300.28z"/>
	<path d="M1029.65,287.26l0.75-2.05l7.33,2.67l-0.75,2.05l-0.95-0.35c0.55,0.92,0.66,1.88,0.29,2.87c-0.36,1-1.04,1.71-2.04,2.12
		c-0.99,0.42-2.04,0.43-3.14,0.03c-1.1-0.4-1.91-1.09-2.41-2.04c-0.5-0.96-0.57-1.93-0.22-2.9c0.36-0.97,1.05-1.66,2.08-2.05
		L1029.65,287.26z M1030.59,289.67c-0.21,0.58-0.19,1.14,0.06,1.68c0.25,0.55,0.66,0.92,1.23,1.13c0.57,0.21,1.13,0.19,1.67-0.07
		c0.55-0.26,0.92-0.66,1.13-1.23c0.2-0.56,0.18-1.12-0.07-1.67c-0.25-0.55-0.66-0.92-1.23-1.13c-0.57-0.21-1.12-0.18-1.67,0.06
		C1031.18,288.69,1030.8,289.1,1030.59,289.67z"/>
	<path d="M1039.18,283.87l-0.75,2.05l-7.33-2.67l0.75-2.05l1.12,0.41c-0.72-0.83-0.91-1.71-0.57-2.62c0.11-0.29,0.27-0.57,0.51-0.83
		l1.8,0.98c-0.28,0.24-0.48,0.54-0.6,0.88c-0.43,1.17,0.09,2.03,1.56,2.56L1039.18,283.87z"/>
	<path d="M1039.92,271.47l-2,5.49c1.33,0.42,2.2,0.06,2.61-1.08c0.26-0.71,0.14-1.41-0.35-2.1l0.99-1.78
		c1.29,1.19,1.62,2.66,0.98,4.42c-0.44,1.2-1.14,2.02-2.11,2.48c-0.97,0.46-2.04,0.47-3.22,0.04c-1.18-0.43-2-1.12-2.45-2.08
		c-0.45-0.96-0.47-2.01-0.05-3.18c0.42-1.17,1.11-1.95,2.06-2.37c0.95-0.41,2.03-0.39,3.26,0.06L1039.92,271.47z M1036.64,276.42
		l1.26-3.47c-1.05-0.13-1.75,0.28-2.09,1.21C1035.49,275.07,1035.78,275.91,1036.64,276.42z"/>
	<path d="M1042.26,259.56c-0.62,0.38-1.03,0.87-1.24,1.46s-0.2,1.14,0.04,1.69s0.66,0.92,1.25,1.14c0.59,0.22,1.15,0.2,1.69-0.07
		s0.91-0.69,1.13-1.28c0.22-0.59,0.22-1.22,0-1.89l1.99,0.72c0.09,0.71,0.01,1.39-0.22,2.04c-0.41,1.14-1.13,1.95-2.16,2.45
		c-1.01,0.5-2.08,0.54-3.18,0.14c-1.1-0.4-1.89-1.13-2.37-2.17c-0.47-1.04-0.5-2.14-0.09-3.28c0.24-0.67,0.62-1.23,1.12-1.7
		L1042.26,259.56z"/>
	<path d="M1047.21,251.44l-2,5.49c1.33,0.42,2.2,0.06,2.61-1.08c0.26-0.71,0.14-1.41-0.35-2.1l0.99-1.78
		c1.29,1.19,1.62,2.66,0.98,4.42c-0.44,1.2-1.14,2.02-2.11,2.48s-2.04,0.47-3.22,0.04s-2-1.12-2.45-2.08
		c-0.46-0.96-0.47-2.01-0.05-3.18c0.42-1.17,1.11-1.95,2.06-2.37c0.95-0.41,2.03-0.39,3.26,0.06L1047.21,251.44z M1043.93,256.39
		l1.26-3.47c-1.05-0.13-1.75,0.28-2.09,1.21C1042.78,255.03,1043.07,255.88,1043.93,256.39z"/>
	<path d="M1043.78,248.43l0.75-2.05l0.92,0.33c-0.61-0.93-0.67-1.72-0.31-2.71c0.33-0.9,0.88-1.51,1.65-1.81
		c0.58-0.23,1.33-0.17,2.24,0.16l4.65,1.69l-0.75,2.05l-4.06-1.48c-0.56-0.2-0.98-0.28-1.26-0.22c-0.47,0.07-0.8,0.4-1.01,0.99
		c-0.38,1.03,0.11,1.8,1.47,2.29l3.79,1.38l-0.75,2.05L1043.78,248.43z"/>
	<path d="M1049.59,238l5.55,2.02l-0.75,2.05l-5.55-2.02l-0.29,0.81l-1.78-0.65l0.29-0.81l-2.5-0.91l0.75-2.05l2.5,0.91l0.53-1.45
		l1.78,0.65L1049.59,238z"/>
	<path d="M1056.84,235.34l-0.75,2.05l-7.33-2.67l0.75-2.05l1.11,0.41c-0.72-0.83-0.91-1.71-0.57-2.62c0.11-0.29,0.27-0.57,0.51-0.83
		l1.8,0.98c-0.28,0.24-0.48,0.53-0.6,0.88c-0.43,1.17,0.1,2.03,1.56,2.56L1056.84,235.34z"/>
	<path d="M1053,223.09l0.75-2.05l7.33,2.67l-0.75,2.05l-0.95-0.35c0.55,0.92,0.65,1.88,0.29,2.88c-0.36,1-1.04,1.71-2.04,2.12
		c-0.99,0.42-2.04,0.42-3.14,0.03c-1.1-0.4-1.91-1.09-2.41-2.04c-0.5-0.96-0.57-1.93-0.22-2.9c0.35-0.97,1.05-1.66,2.08-2.05
		L1053,223.09z M1053.95,225.5c-0.21,0.58-0.19,1.14,0.06,1.68c0.25,0.55,0.67,0.92,1.23,1.13c0.57,0.21,1.13,0.19,1.67-0.07
		c0.55-0.26,0.92-0.66,1.13-1.23c0.21-0.56,0.18-1.12-0.07-1.67c-0.25-0.55-0.66-0.92-1.23-1.13c-0.57-0.21-1.12-0.18-1.67,0.06
		C1054.53,224.52,1054.16,224.93,1053.95,225.5z"/>
	<path d="M1049.86,215.09l12.67,4.61l-0.75,2.05l-12.67-4.61L1049.86,215.09z"/>
	<path d="M1062.54,209.33l-2,5.49c1.33,0.42,2.2,0.06,2.61-1.08c0.26-0.71,0.14-1.41-0.35-2.1l0.99-1.78
		c1.29,1.19,1.62,2.65,0.98,4.42c-0.44,1.2-1.14,2.02-2.11,2.48c-0.97,0.46-2.04,0.47-3.22,0.04c-1.18-0.43-2-1.12-2.45-2.08
		c-0.45-0.96-0.47-2.01-0.05-3.18c0.42-1.17,1.11-1.95,2.06-2.37c0.95-0.41,2.03-0.39,3.26,0.06L1062.54,209.33z M1059.26,214.28
		l1.26-3.47c-1.05-0.13-1.75,0.28-2.09,1.21C1058.1,212.93,1058.4,213.77,1059.26,214.28z"/>
</g>
<circle fill="#FFFFFF" stroke="#000000" stroke-width="6" stroke-miterlimit="10" cx="1099.41" cy="329" r="10"/>
<g>
	<path d="M1104.02,300.28l1.88-5.15c1.48,0.55,2.53,1.15,3.13,1.8c1.55,1.61,1.98,3.74,1.16,5.98c-0.62,1.71-1.69,2.93-3.2,3.64
		c-1.5,0.72-3.11,0.77-4.82,0.14c-1.71-0.62-2.92-1.7-3.63-3.24c-0.71-1.54-0.75-3.17-0.12-4.91c0.78-2.14,2.25-3.44,4.42-3.87
		l0.33,2.31c-1.36,0.27-2.28,1.04-2.74,2.31c-0.39,1.07-0.34,2.08,0.15,3.06c0.49,0.97,1.29,1.67,2.42,2.08
		c1.12,0.41,2.17,0.4,3.16-0.04s1.66-1.18,2.05-2.25c0.29-0.8,0.32-1.55,0.08-2.26c-0.24-0.71-0.7-1.23-1.39-1.57l-0.96,2.65
		L1104.02,300.28z"/>
	<path d="M1113.3,293.55l-0.75,2.05l-7.33-2.67l0.75-2.05l1.11,0.41c-0.72-0.83-0.91-1.71-0.57-2.62c0.11-0.29,0.27-0.57,0.51-0.83
		l1.8,0.98c-0.28,0.24-0.48,0.53-0.6,0.88c-0.43,1.17,0.1,2.03,1.56,2.56L1113.3,293.55z"/>
	<path d="M1103.52,284.18c0.12-0.34,0.34-0.59,0.67-0.74c0.33-0.15,0.66-0.16,1-0.04c0.34,0.12,0.59,0.36,0.74,0.68
		c0.16,0.33,0.18,0.67,0.05,1.01s-0.35,0.58-0.68,0.74c-0.33,0.15-0.67,0.17-1.01,0.04c-0.34-0.12-0.59-0.35-0.74-0.69
		C1103.4,284.85,1103.39,284.51,1103.52,284.18z M1108.21,284.75l7.33,2.67l-0.74,2.04l-7.33-2.67L1108.21,284.75z"/>
	<path d="M1111.46,281.35l5.55,2.02l-0.75,2.05l-5.55-2.02l-0.29,0.79l-1.78-0.65l0.29-0.79l-2.35-0.85
		c-0.97-0.35-1.64-0.85-1.99-1.49c-0.43-0.82-0.49-1.66-0.18-2.51c0.13-0.36,0.35-0.7,0.65-0.99l1.86,0.68
		c-0.33,0.33-0.53,0.61-0.6,0.84c-0.15,0.4-0.07,0.73,0.23,0.98c0.18,0.18,0.54,0.37,1.08,0.56l2.05,0.75l0.68-1.88l1.78,0.65
		L1111.46,281.35z"/>
	<path d="M1113.43,275.94l5.55,2.02l-0.75,2.05l-5.55-2.02l-0.29,0.79l-1.78-0.65l0.29-0.79l-2.35-0.85
		c-0.97-0.35-1.64-0.85-1.99-1.49c-0.43-0.82-0.49-1.66-0.18-2.51c0.13-0.36,0.35-0.7,0.65-0.99l1.86,0.68
		c-0.33,0.33-0.53,0.61-0.6,0.84c-0.15,0.41-0.07,0.73,0.23,0.98c0.18,0.18,0.54,0.37,1.08,0.56l2.05,0.75l0.68-1.88l1.78,0.65
		L1113.43,275.94z"/>
	<path d="M1108.79,269.68c0.12-0.34,0.34-0.58,0.67-0.74c0.33-0.15,0.66-0.16,1-0.04c0.34,0.12,0.59,0.36,0.74,0.68
		c0.16,0.33,0.18,0.67,0.05,1.01c-0.12,0.34-0.35,0.58-0.68,0.74c-0.33,0.15-0.67,0.17-1.01,0.04c-0.34-0.12-0.59-0.36-0.74-0.69
		C1108.68,270.36,1108.67,270.02,1108.79,269.68z M1113.48,270.26l7.33,2.67l-0.74,2.04l-7.33-2.67L1113.48,270.26z"/>
	<path d="M1114.19,268.32l0.75-2.05l0.92,0.33c-0.61-0.93-0.67-1.72-0.31-2.71c0.33-0.9,0.88-1.5,1.65-1.81
		c0.58-0.23,1.33-0.17,2.24,0.16l4.65,1.69l-0.75,2.05l-4.06-1.48c-0.56-0.2-0.98-0.28-1.26-0.22c-0.47,0.07-0.8,0.4-1.01,0.99
		c-0.38,1.03,0.11,1.8,1.47,2.29l3.79,1.38l-0.75,2.05L1114.19,268.32z"/>
	<path d="M1119.99,257.89l5.55,2.02l-0.75,2.05l-5.55-2.02l-0.29,0.81l-1.78-0.65l0.29-0.81l-2.5-0.91l0.75-2.05l2.5,0.91l0.53-1.45
		l1.78,0.65L1119.99,257.89z"/>
	<path d="M1120.29,250.83c0.45-1.23,1.18-2.1,2.17-2.6c1-0.51,2.08-0.55,3.24-0.13s1.96,1.15,2.39,2.19
		c0.43,1.05,0.43,2.19-0.02,3.43c-0.45,1.25-1.19,2.11-2.2,2.61c-1.01,0.5-2.09,0.54-3.23,0.12c-1.15-0.42-1.94-1.15-2.37-2.2
		S1119.84,252.06,1120.29,250.83z M1122.12,251.53c-0.21,0.57-0.19,1.13,0.06,1.68s0.66,0.93,1.23,1.14
		c0.57,0.21,1.13,0.19,1.67-0.07c0.55-0.26,0.93-0.67,1.13-1.24s0.19-1.14-0.07-1.69c-0.25-0.55-0.66-0.92-1.23-1.13
		c-0.57-0.21-1.12-0.18-1.67,0.07C1122.71,250.54,1122.33,250.96,1122.12,251.53z"/>
	<path d="M1122.96,244.22l4.93-0.39l-3.7-3.61l0.32-0.88l5.22-0.36l-3.58-3.52l0.83-2.29l6.09,6.51l-0.34,0.92l-5.16,0.36l3.73,3.57
		l-0.34,0.94l-8.84,1.04L1122.96,244.22z"/>
	<path d="M1127.35,232.16l0.75-2.05l0.92,0.33c-0.61-0.93-0.67-1.72-0.31-2.71c0.33-0.9,0.88-1.51,1.65-1.81
		c0.58-0.23,1.33-0.17,2.24,0.16l4.65,1.69l-0.75,2.05l-4.06-1.48c-0.56-0.2-0.98-0.28-1.26-0.22c-0.47,0.07-0.8,0.4-1.01,0.99
		c-0.38,1.03,0.11,1.8,1.47,2.29l3.79,1.38l-0.75,2.05L1127.35,232.16z"/>
	<path d="M1133.33,223.8l2.56-7.04l1.7,0.62l-2.56,7.04L1133.33,223.8z"/>
	<path d="M1141.56,215.9l-11.28-4.11l1.02-2.79c0.46-1.27,1.02-2.11,1.68-2.5c0.77-0.48,1.67-0.54,2.67-0.18
		c0.62,0.23,1.11,0.56,1.46,1.01c0.16,0.23,0.28,0.59,0.38,1.06c0.4-0.62,0.81-1.02,1.25-1.21c0.73-0.34,1.56-0.35,2.47-0.02
		c0.92,0.33,1.55,0.94,1.9,1.8c0.35,0.87,0.3,1.91-0.15,3.14L1141.56,215.9z M1135.78,211.31l0.23-0.63
		c0.42-1.14,0.13-1.89-0.84-2.24c-0.97-0.35-1.67,0.03-2.07,1.14l-0.24,0.66L1135.78,211.31z M1140.59,213.06l0.35-0.95
		c0.53-1.46,0.28-2.39-0.75-2.76c-0.57-0.21-1.07-0.14-1.5,0.2c-0.33,0.24-0.64,0.76-0.93,1.54l-0.3,0.83L1140.59,213.06z"/>
	<path d="M1144.25,198.17l-2,5.49c1.33,0.42,2.2,0.06,2.61-1.08c0.26-0.71,0.14-1.41-0.35-2.1l0.99-1.78
		c1.29,1.19,1.62,2.65,0.98,4.42c-0.44,1.2-1.14,2.02-2.11,2.48s-2.04,0.47-3.22,0.04c-1.18-0.43-2-1.12-2.45-2.08
		c-0.45-0.96-0.47-2.02-0.05-3.18s1.11-1.95,2.06-2.37c0.95-0.41,2.03-0.39,3.26,0.06L1144.25,198.17z M1140.97,203.12l1.26-3.47
		c-1.05-0.13-1.75,0.28-2.09,1.21C1139.81,201.77,1140.1,202.61,1140.97,203.12z"/>
	<path d="M1148.89,195.78l-0.75,2.05l-7.33-2.67l0.75-2.05l1.12,0.41c-0.72-0.83-0.91-1.71-0.57-2.62c0.11-0.29,0.27-0.57,0.51-0.83
		l1.8,0.98c-0.28,0.24-0.49,0.53-0.6,0.88c-0.43,1.17,0.09,2.03,1.56,2.56L1148.89,195.78z"/>
	<path d="M1143.05,189.01l0.75-2.05l0.92,0.33c-0.61-0.93-0.67-1.72-0.31-2.71c0.33-0.9,0.88-1.5,1.65-1.81
		c0.58-0.23,1.33-0.17,2.24,0.16l4.65,1.69l-0.75,2.05l-4.06-1.48c-0.56-0.2-0.98-0.28-1.26-0.22c-0.47,0.07-0.8,0.4-1.01,0.99
		c-0.38,1.03,0.11,1.8,1.47,2.29l3.79,1.38l-0.75,2.05L1143.05,189.01z"/>
	<path d="M1148.38,174.39l0.75-2.05l7.33,2.67l-0.75,2.05l-0.95-0.35c0.55,0.92,0.65,1.88,0.29,2.87c-0.36,1-1.04,1.71-2.04,2.12
		c-0.99,0.42-2.04,0.43-3.14,0.02c-1.1-0.4-1.91-1.09-2.41-2.04c-0.5-0.96-0.57-1.93-0.22-2.9s1.05-1.66,2.08-2.05L1148.38,174.39z
		 M1149.32,176.8c-0.21,0.58-0.19,1.14,0.06,1.68c0.25,0.55,0.67,0.92,1.23,1.13c0.57,0.21,1.13,0.19,1.67-0.07
		c0.55-0.26,0.92-0.66,1.13-1.23c0.21-0.56,0.18-1.12-0.07-1.67c-0.25-0.55-0.66-0.92-1.23-1.13c-0.57-0.21-1.12-0.18-1.67,0.06
		C1149.91,175.81,1149.53,176.23,1149.32,176.8z"/>
	<path d="M1157.91,171l-0.75,2.05l-7.33-2.67l0.75-2.05l1.11,0.41c-0.72-0.83-0.91-1.71-0.57-2.62c0.11-0.29,0.27-0.57,0.51-0.83
		l1.8,0.98c-0.29,0.24-0.49,0.53-0.6,0.88c-0.43,1.17,0.09,2.03,1.56,2.56L1157.91,171z"/>
	<path d="M1148.73,156.8l0.75-2.05l12.67,4.61l-0.75,2.05l-0.95-0.35c0.55,0.92,0.65,1.88,0.29,2.87c-0.36,1-1.04,1.71-2.04,2.12
		c-0.99,0.42-2.04,0.43-3.14,0.02c-1.1-0.4-1.91-1.09-2.41-2.04c-0.5-0.96-0.57-1.93-0.22-2.9s1.05-1.66,2.08-2.05L1148.73,156.8z
		 M1155.02,161.16c-0.21,0.58-0.19,1.14,0.06,1.68c0.25,0.55,0.66,0.92,1.23,1.13c0.57,0.21,1.13,0.19,1.67-0.07
		c0.55-0.26,0.92-0.66,1.13-1.23c0.21-0.56,0.18-1.12-0.07-1.67c-0.25-0.55-0.66-0.92-1.23-1.13c-0.57-0.21-1.12-0.18-1.67,0.06
		C1155.6,160.17,1155.22,160.58,1155.02,161.16z"/>
	<path d="M1157.76,156.66l1.39-3.81l1.7,0.62l-1.39,3.81L1157.76,156.66z"/>
	<path d="M1153.87,146.98l9.37,3.41l1.26-3.47l1.91,0.69l-2.06,5.67l-11.28-4.11L1153.87,146.98z"/>
	<path d="M1161.61,138.04l0.75-2.05l7.33,2.67l-0.75,2.05l-0.95-0.35c0.55,0.92,0.66,1.88,0.29,2.88c-0.36,1-1.04,1.71-2.04,2.12
		c-0.99,0.41-2.04,0.43-3.14,0.02c-1.1-0.4-1.91-1.09-2.41-2.04c-0.5-0.96-0.57-1.93-0.22-2.9s1.05-1.66,2.08-2.05L1161.61,138.04z
		 M1162.55,140.45c-0.21,0.58-0.19,1.14,0.06,1.68c0.25,0.55,0.67,0.92,1.23,1.13c0.57,0.21,1.13,0.19,1.67-0.07
		c0.55-0.26,0.92-0.66,1.13-1.23c0.2-0.56,0.18-1.12-0.07-1.67c-0.25-0.55-0.66-0.92-1.23-1.13c-0.57-0.21-1.12-0.18-1.67,0.06
		C1163.14,139.46,1162.76,139.88,1162.55,140.45z"/>
	<path d="M1163.06,134.03l0.75-2.05l0.92,0.33c-0.61-0.93-0.67-1.72-0.31-2.71c0.33-0.9,0.88-1.51,1.65-1.81
		c0.58-0.23,1.33-0.17,2.24,0.16l4.65,1.69l-0.75,2.05l-4.06-1.48c-0.56-0.2-0.98-0.28-1.26-0.22c-0.47,0.07-0.8,0.4-1.01,0.99
		c-0.38,1.03,0.11,1.8,1.47,2.29l3.79,1.38l-0.75,2.05L1163.06,134.03z"/>
	<path d="M1163.04,117.46l0.75-2.05l12.67,4.61l-0.75,2.05l-0.95-0.35c0.55,0.92,0.66,1.88,0.29,2.87c-0.36,1-1.04,1.71-2.04,2.12
		c-0.99,0.41-2.04,0.42-3.14,0.03c-1.1-0.4-1.91-1.09-2.41-2.05c-0.5-0.96-0.57-1.93-0.21-2.9c0.35-0.97,1.05-1.66,2.08-2.05
		L1163.04,117.46z M1169.33,121.82c-0.21,0.58-0.19,1.14,0.06,1.68c0.25,0.55,0.66,0.92,1.23,1.13c0.57,0.21,1.13,0.19,1.67-0.07
		c0.55-0.26,0.92-0.66,1.13-1.23s0.18-1.12-0.07-1.67c-0.25-0.55-0.66-0.92-1.23-1.13c-0.57-0.21-1.12-0.18-1.67,0.06
		C1169.92,120.83,1169.54,121.25,1169.33,121.82z"/>
	<path d="M1177.92,116.02l-0.75,2.05l-7.33-2.67l0.75-2.05l1.12,0.41c-0.72-0.83-0.91-1.71-0.57-2.62c0.1-0.29,0.27-0.57,0.51-0.83
		l1.8,0.98c-0.28,0.24-0.48,0.53-0.6,0.88c-0.43,1.17,0.09,2.03,1.56,2.56L1177.92,116.02z"/>
	<path d="M1179.37,108.55l-7.47,1.21l0.87-2.39l4.96-0.68l-3.41-3.6l0.86-2.35l9.08,10.01l-0.85,2.32L1179.37,108.55z"/>
</g>
<circle fill="#FFFFFF" stroke="#000000" stroke-width="6" stroke-miterlimit="10" cx="1177.06" cy="329" r="10"/>
<g>
	<path d="M1173.39,304.61l-1.37-3.49l3.3-1.82l0.63,1.42l-2.11,1.07l0.93,2.18L1173.39,304.61z M1176.8,301.6l11.28,4.11l-0.8,2.2
		l-11.28-4.11L1176.8,301.6z"/>
	<path d="M1176.99,296.78l12.67,4.61l-0.75,2.05l-12.67-4.61L1176.99,296.78z"/>
	<path d="M1189.66,291.02l-2,5.49c1.33,0.42,2.2,0.06,2.61-1.08c0.26-0.71,0.14-1.41-0.35-2.1l0.99-1.78
		c1.29,1.19,1.62,2.66,0.98,4.42c-0.44,1.2-1.14,2.02-2.11,2.48c-0.97,0.46-2.04,0.47-3.22,0.04s-2-1.12-2.45-2.08
		c-0.45-0.96-0.47-2.01-0.05-3.18c0.42-1.16,1.11-1.95,2.06-2.37c0.95-0.41,2.03-0.39,3.26,0.06L1189.66,291.02z M1186.38,295.97
		l1.26-3.47c-1.05-0.13-1.75,0.28-2.09,1.21C1185.23,294.62,1185.52,295.46,1186.38,295.97z"/>
	<path d="M1188.73,289.21l1.38-3.81l1.7,0.62l-1.38,3.81L1188.73,289.21z"/>
	<path d="M1184.58,275.93l0.75-2.05l12.67,4.61l-0.75,2.05l-0.95-0.35c0.55,0.92,0.66,1.88,0.29,2.87c-0.36,1-1.04,1.71-2.04,2.12
		s-2.04,0.42-3.14,0.03c-1.1-0.4-1.91-1.09-2.41-2.05c-0.5-0.96-0.57-1.93-0.22-2.9c0.35-0.97,1.05-1.66,2.08-2.05L1184.58,275.93z
		 M1190.87,280.28c-0.21,0.58-0.19,1.14,0.06,1.68c0.25,0.55,0.66,0.92,1.23,1.13c0.57,0.21,1.13,0.19,1.67-0.07
		c0.55-0.26,0.92-0.66,1.13-1.23c0.2-0.56,0.18-1.12-0.07-1.67c-0.25-0.55-0.66-0.92-1.23-1.13c-0.57-0.21-1.12-0.18-1.67,0.06
		C1191.45,279.3,1191.07,279.71,1190.87,280.28z"/>
	<path d="M1198,268.12l-2,5.49c1.33,0.42,2.2,0.06,2.61-1.08c0.26-0.71,0.14-1.41-0.35-2.1l0.99-1.78c1.29,1.19,1.62,2.66,0.98,4.42
		c-0.44,1.2-1.14,2.02-2.11,2.48c-0.97,0.46-2.04,0.47-3.22,0.04c-1.18-0.43-2-1.12-2.45-2.08c-0.45-0.96-0.47-2.01-0.05-3.18
		c0.42-1.16,1.11-1.95,2.06-2.37c0.95-0.41,2.03-0.39,3.26,0.06L1198,268.12z M1194.72,273.07l1.26-3.47
		c-1.05-0.13-1.75,0.28-2.09,1.21C1193.56,271.72,1193.85,272.56,1194.72,273.07z"/>
	<path d="M1197.69,261.84c-0.48,0.31-0.78,0.62-0.89,0.92s-0.13,0.55-0.08,0.75c0.07,0.2,0.19,0.33,0.36,0.39s0.34,0.04,0.51-0.08
		c0.16-0.12,0.45-0.43,0.85-0.92s0.76-0.86,1.07-1.05c0.57-0.4,1.22-0.47,1.96-0.21s1.25,0.78,1.53,1.53
		c0.29,0.76,0.26,1.59-0.07,2.49c-0.4,1.11-1.14,1.88-2.23,2.33l-0.86-1.53c0.78-0.36,1.28-0.84,1.49-1.42
		c0.19-0.52-0.02-1.07-0.46-1.22c-0.22-0.08-0.41-0.08-0.58,0.02c-0.16,0.1-0.46,0.4-0.89,0.92c-0.43,0.52-0.77,0.86-1.03,1.02
		c-0.52,0.36-1.11,0.42-1.79,0.17s-1.15-0.7-1.41-1.35c-0.26-0.65-0.23-1.38,0.07-2.21s0.84-1.49,1.62-2L1197.69,261.84z"/>
	<path d="M1199.45,259.75l1.39-3.81l1.7,0.62l-1.39,3.81L1199.45,259.75z"/>
	<path d="M1198.52,250.87c0.32,0.12,0.63,0.1,0.91-0.07c0.29-0.17,0.75-0.62,1.4-1.39c0.65-0.76,1.22-1.28,1.72-1.55
		c0.81-0.46,1.73-0.5,2.8-0.11s1.81,1.07,2.23,2.04c0.42,0.97,0.43,2.04,0,3.22c-0.58,1.59-1.77,2.62-3.56,3.09l-0.85-1.92
		c1.19-0.16,1.98-0.77,2.36-1.81c0.18-0.5,0.19-0.98,0.01-1.42c-0.18-0.43-0.5-0.73-0.97-0.9c-0.47-0.17-0.92-0.11-1.35,0.19
		c-0.21,0.14-0.66,0.62-1.33,1.43c-0.68,0.81-1.33,1.34-1.94,1.6c-0.61,0.25-1.29,0.24-2.03-0.03c-0.95-0.35-1.61-0.96-1.99-1.86
		c-0.38-0.89-0.39-1.84-0.02-2.86c0.46-1.25,1.28-2.21,2.46-2.86l1.08,1.7c-0.81,0.32-1.33,0.81-1.57,1.5
		c-0.17,0.45-0.18,0.87-0.05,1.26C1197.97,250.5,1198.2,250.75,1198.52,250.87z"/>
	<path d="M1208.89,238.18c1.28,0.36,2.26-0.06,2.65-1.14c0.27-0.74,0.14-1.44-0.39-2.08l1.01-1.77c1.3,1.16,1.62,2.65,0.96,4.47
		c-0.45,1.25-1.28,2.04-2.47,2.37c0.35,0.65,0.55,1.25,0.59,1.79c0.05,0.54-0.05,1.15-0.3,1.83c-0.43,1.17-1.14,2.01-2.15,2.5
		c-1,0.5-2.07,0.54-3.2,0.13c-1.12-0.41-1.92-1.14-2.38-2.17c-0.46-1.04-0.47-2.17-0.03-3.38c0.44-1.21,1.25-2.05,2.42-2.52
		c-0.65-0.99-0.75-2.11-0.29-3.34c0.33-0.9,0.82-1.59,1.47-2.06c0.66-0.46,1.4-0.67,2.25-0.6c0.57,0.04,1.21,0.19,1.88,0.43
		L1208.89,238.18z M1205.03,241.41c-0.2,0.55-0.18,1.09,0.07,1.61c0.25,0.53,0.66,0.89,1.23,1.1s1.13,0.2,1.67-0.04
		c0.54-0.22,0.92-0.62,1.13-1.19c0.2-0.56,0.18-1.1-0.09-1.64c-0.26-0.52-0.68-0.89-1.25-1.1c-0.57-0.21-1.13-0.19-1.66,0.05
		S1205.24,240.85,1205.03,241.41z M1208.89,234.12c-1.06-0.1-1.75,0.3-2.09,1.21c-0.33,0.92-0.06,1.68,0.81,2.3L1208.89,234.12z"/>
	<path d="M1208.24,227.54l4.15,1.51c1.12,0.41,1.86,0.12,2.22-0.88c0.36-1-0.02-1.7-1.13-2.11l-4.15-1.51l0.75-2.05l4.48,1.63
		c1.98,0.72,2.62,2.38,1.79,4.66c-0.83,2.28-2.39,3.15-4.37,2.43l-4.49-1.63L1208.24,227.54z"/>
	<path d="M1218.86,221.16l-0.75,2.05l-7.33-2.67l0.75-2.05l1.12,0.41c-0.72-0.83-0.91-1.71-0.57-2.62c0.11-0.29,0.27-0.57,0.51-0.83
		l1.8,0.98c-0.28,0.24-0.48,0.53-0.6,0.88c-0.43,1.17,0.09,2.03,1.56,2.56L1218.86,221.16z"/>
	<path d="M1216.14,211.14c-0.48,0.31-0.78,0.62-0.89,0.92c-0.11,0.31-0.13,0.55-0.08,0.75c0.07,0.2,0.19,0.33,0.36,0.39
		c0.17,0.06,0.34,0.04,0.5-0.08c0.16-0.12,0.45-0.43,0.85-0.92c0.41-0.5,0.76-0.85,1.07-1.05c0.57-0.4,1.22-0.47,1.95-0.21
		s1.25,0.78,1.53,1.53c0.29,0.76,0.26,1.59-0.06,2.49c-0.4,1.11-1.14,1.88-2.23,2.33l-0.86-1.53c0.78-0.36,1.28-0.84,1.49-1.42
		c0.19-0.52-0.02-1.07-0.46-1.22c-0.22-0.08-0.41-0.08-0.58,0.02c-0.16,0.1-0.46,0.4-0.89,0.92c-0.43,0.52-0.77,0.86-1.03,1.02
		c-0.52,0.36-1.11,0.42-1.79,0.17s-1.15-0.7-1.41-1.35c-0.26-0.65-0.23-1.39,0.07-2.21c0.3-0.83,0.84-1.49,1.62-2L1216.14,211.14z"
		/>
</g>
<circle fill="#FFFFFF" stroke="#000000" stroke-width="6" stroke-miterlimit="10" cx="1254.71" cy="329" r="10"/>
<g>
	<path d="M1259.9,304.44l4.18,1.52l-0.8,2.2l-11.28-4.11l1.2-3.3c0.27-0.73,0.55-1.3,0.83-1.7c0.29-0.4,0.66-0.72,1.11-0.97
		c0.97-0.52,2-0.57,3.06-0.19s1.82,1.02,2.26,1.88c0.44,0.86,0.42,1.94-0.05,3.24L1259.9,304.44z M1257.99,303.74l0.32-0.89
		c0.5-1.38,0.21-2.26-0.88-2.66c-1.15-0.42-1.89,0.05-2.46,1.59l-0.28,0.76L1257.99,303.74z"/>
	<path d="M1261.05,291.47l0.75-2.05l7.33,2.67l-0.75,2.05l-0.95-0.35c0.55,0.92,0.66,1.88,0.29,2.88c-0.36,1-1.04,1.71-2.04,2.12
		c-0.99,0.41-2.04,0.42-3.14,0.03c-1.1-0.4-1.91-1.09-2.41-2.04c-0.5-0.96-0.57-1.93-0.22-2.9s1.05-1.66,2.08-2.05L1261.05,291.47z
		 M1262,293.89c-0.21,0.58-0.19,1.14,0.06,1.68c0.25,0.55,0.66,0.92,1.23,1.13c0.57,0.21,1.13,0.19,1.67-0.07
		c0.55-0.26,0.92-0.67,1.13-1.23c0.2-0.56,0.18-1.12-0.07-1.67c-0.25-0.55-0.66-0.92-1.23-1.13s-1.12-0.18-1.67,0.06
		C1262.58,292.9,1262.21,293.32,1262,293.89z"/>
	<path d="M1262.51,287.47l0.75-2.05l0.92,0.33c-0.61-0.93-0.67-1.72-0.31-2.71c0.33-0.9,0.88-1.5,1.65-1.81
		c0.58-0.23,1.33-0.17,2.24,0.16l4.65,1.69l-0.75,2.05l-4.06-1.48c-0.56-0.2-0.98-0.28-1.26-0.22c-0.47,0.07-0.8,0.4-1.01,0.99
		c-0.38,1.03,0.11,1.8,1.47,2.29l3.79,1.38l-0.75,2.05L1262.51,287.47z"/>
	<path d="M1267.84,272.84l0.75-2.05l7.33,2.67l-0.75,2.05l-0.95-0.35c0.55,0.92,0.66,1.88,0.29,2.88c-0.36,1-1.04,1.71-2.04,2.12
		c-0.99,0.42-2.04,0.43-3.14,0.03c-1.1-0.4-1.91-1.09-2.41-2.04s-0.57-1.93-0.22-2.9s1.05-1.66,2.08-2.05L1267.84,272.84z
		 M1268.78,275.25c-0.21,0.58-0.19,1.14,0.06,1.68c0.25,0.55,0.67,0.92,1.23,1.13c0.57,0.21,1.13,0.19,1.67-0.07
		c0.55-0.26,0.92-0.66,1.13-1.23c0.2-0.56,0.18-1.12-0.07-1.67c-0.25-0.55-0.66-0.92-1.23-1.13c-0.57-0.21-1.12-0.18-1.67,0.06
		C1269.37,274.27,1268.99,274.68,1268.78,275.25z"/>
	<path d="M1275.31,263.4l3.76,1.37l-0.75,2.05l-3.89-1.42c-0.57-0.21-0.99-0.31-1.25-0.3c-0.26,0.01-0.49,0.09-0.7,0.25
		c-0.21,0.16-0.35,0.36-0.44,0.59c-0.17,0.46-0.07,1.04,0.3,1.47c0.18,0.22,0.61,0.44,1.26,0.67l3.76,1.37l-0.75,2.05l-7.33-2.67
		l0.75-2.05l0.85,0.31c-0.49-0.9-0.57-1.81-0.23-2.73s1.05-1.49,2.12-1.69c-0.68-0.9-0.85-1.84-0.49-2.82
		c0.36-0.98,0.97-1.56,1.83-1.73c0.52-0.1,1.15-0.02,1.92,0.26l4.73,1.72l-0.75,2.05l-4-1.46c-0.53-0.19-0.94-0.28-1.23-0.26
		c-0.5,0.03-0.84,0.3-1.02,0.8C1273.42,262.18,1273.93,262.9,1275.31,263.4z"/>
	<path d="M1276.2,249.87l0.75-2.05l7.33,2.67l-0.75,2.05l-0.95-0.35c0.55,0.92,0.66,1.88,0.29,2.88c-0.36,1-1.04,1.71-2.04,2.12
		c-0.99,0.42-2.04,0.43-3.14,0.03c-1.1-0.4-1.91-1.09-2.41-2.04c-0.5-0.96-0.57-1.93-0.22-2.9c0.36-0.97,1.05-1.66,2.08-2.05
		L1276.2,249.87z M1277.15,252.28c-0.21,0.58-0.19,1.14,0.06,1.68c0.25,0.55,0.66,0.92,1.23,1.13c0.57,0.21,1.13,0.19,1.67-0.07
		c0.55-0.26,0.92-0.66,1.13-1.23s0.18-1.12-0.07-1.67c-0.25-0.55-0.66-0.92-1.23-1.13c-0.57-0.21-1.12-0.18-1.67,0.06
		C1277.73,251.29,1277.35,251.71,1277.15,252.28z"/>
</g>
<circle fill="#FFFFFF" stroke="#000000" stroke-width="6" stroke-miterlimit="10" cx="1332.35" cy="329" r="10"/>
<g>
	<path d="M1340.93,308.16l-11.28-4.11l1.18-3.23c0.6-1.64,1.53-2.83,2.77-3.56c0.75-0.45,1.57-0.71,2.46-0.79
		c0.89-0.08,1.75,0.04,2.6,0.35c0.84,0.31,1.58,0.78,2.21,1.42c0.64,0.64,1.1,1.38,1.39,2.22c0.49,1.34,0.44,2.84-0.16,4.5
		L1340.93,308.16z M1339.82,305.26l0.22-0.59c0.49-1.35,0.56-2.45,0.19-3.33c-0.39-1.01-1.31-1.86-2.4-2.26
		c-1.15-0.42-2.24-0.36-3.25,0.2c-0.86,0.45-1.53,1.34-2.01,2.67l-0.22,0.59L1339.82,305.26z"/>
	<path d="M1338.35,292.45l4.14,1.51c1.12,0.41,1.86,0.11,2.22-0.89c0.36-1-0.02-1.7-1.13-2.1l-4.15-1.51l0.75-2.05l4.48,1.63
		c1.98,0.72,2.62,2.38,1.79,4.66c-0.83,2.28-2.39,3.15-4.37,2.43l-4.48-1.63L1338.35,292.45z"/>
	<path d="M1344.04,282.1c-1.66-0.6-2.85-1.7-3.56-3.29s-0.76-3.23-0.14-4.94c0.62-1.71,1.71-2.93,3.28-3.68
		c1.56-0.75,3.18-0.82,4.85-0.21c1.46,0.53,2.62,1.55,3.45,3.05l2.48-1.16l-0.59,2.29l-1.37,0.56c0.22,1.14,0.12,2.28-0.28,3.42
		c-0.63,1.73-1.72,2.97-3.28,3.73C1347.31,282.63,1345.7,282.7,1344.04,282.1z M1349.67,273.97c-0.44-0.82-1.17-1.42-2.18-1.79
		c-1.02-0.37-2.03-0.33-3.04,0.14c-1.01,0.46-1.71,1.23-2.1,2.29c-0.39,1.07-0.35,2.11,0.14,3.11c0.48,1.01,1.28,1.71,2.38,2.11
		c1.11,0.4,2.15,0.37,3.15-0.08c1-0.45,1.68-1.2,2.07-2.26c0.23-0.64,0.28-1.23,0.14-1.79l-2.92,1.41l0.64-2.35L1349.67,273.97z"/>
	<path d="M1348.15,265.51l4.15,1.51c1.12,0.41,1.86,0.11,2.22-0.88s-0.02-1.7-1.13-2.1l-4.15-1.51l0.75-2.05l4.48,1.63
		c1.98,0.72,2.62,2.38,1.79,4.66s-2.39,3.15-4.37,2.43l-4.48-1.63L1348.15,265.51z"/>
	<path d="M1352.74,252.9l0.75-2.05l7.33,2.67l-0.75,2.05l-0.95-0.35c0.55,0.92,0.65,1.88,0.29,2.88c-0.36,1-1.04,1.71-2.04,2.12
		c-0.99,0.42-2.04,0.42-3.14,0.03c-1.1-0.4-1.9-1.09-2.41-2.04c-0.5-0.96-0.57-1.93-0.22-2.9c0.36-0.97,1.05-1.66,2.08-2.05
		L1352.74,252.9z M1353.69,255.31c-0.21,0.58-0.19,1.14,0.06,1.68c0.25,0.55,0.66,0.92,1.23,1.13c0.57,0.21,1.13,0.19,1.67-0.07
		c0.55-0.26,0.93-0.66,1.13-1.23c0.21-0.56,0.18-1.12-0.07-1.67c-0.25-0.55-0.66-0.92-1.23-1.13c-0.57-0.21-1.12-0.18-1.67,0.06
		C1354.27,254.32,1353.9,254.74,1353.69,255.31z"/>
	<path d="M1362.27,249.51l-0.74,2.05l-7.33-2.67l0.75-2.05l1.11,0.41c-0.72-0.83-0.91-1.71-0.57-2.62c0.11-0.29,0.27-0.57,0.51-0.83
		l1.8,0.98c-0.29,0.24-0.49,0.53-0.6,0.88c-0.43,1.17,0.1,2.03,1.56,2.56L1362.27,249.51z"/>
	<path d="M1359.12,240.91l5.55,2.02l-0.74,2.05l-5.55-2.02l-0.29,0.81l-1.78-0.65l0.29-0.81l-2.5-0.91l0.74-2.05l2.5,0.91l0.53-1.45
		l1.78,0.65L1359.12,240.91z"/>
	<path d="M1354.33,235.06c0.12-0.34,0.34-0.59,0.67-0.74c0.33-0.15,0.66-0.16,1-0.04c0.34,0.12,0.59,0.36,0.74,0.68
		c0.16,0.33,0.18,0.67,0.05,1.01c-0.12,0.34-0.35,0.58-0.68,0.73c-0.33,0.15-0.67,0.17-1.01,0.04s-0.59-0.36-0.74-0.69
		C1354.22,235.74,1354.21,235.4,1354.33,235.06z M1359.03,235.63l7.33,2.67l-0.74,2.04l-7.33-2.67L1359.03,235.63z"/>
	<path d="M1366.35,227.96l-2,5.49c1.33,0.42,2.2,0.06,2.61-1.08c0.26-0.71,0.14-1.41-0.35-2.1l0.99-1.78
		c1.29,1.19,1.62,2.66,0.98,4.42c-0.44,1.2-1.14,2.02-2.11,2.48c-0.97,0.46-2.04,0.47-3.22,0.04c-1.18-0.43-2-1.12-2.45-2.08
		c-0.45-0.96-0.47-2.01-0.05-3.18c0.42-1.17,1.11-1.95,2.06-2.37c0.95-0.41,2.03-0.39,3.26,0.06L1366.35,227.96z M1363.07,232.91
		l1.26-3.47c-1.05-0.13-1.75,0.28-2.09,1.21C1361.91,231.55,1362.21,232.4,1363.07,232.91z"/>
	<path d="M1370.99,225.57l-0.75,2.05l-7.32-2.67l0.74-2.05l1.12,0.41c-0.72-0.83-0.91-1.71-0.57-2.62c0.11-0.29,0.27-0.57,0.51-0.83
		l1.8,0.98c-0.28,0.24-0.48,0.53-0.6,0.88c-0.43,1.17,0.09,2.03,1.56,2.56L1370.99,225.57z"/>
</g>
<circle fill="#FFFFFF" stroke="#000000" stroke-width="6" stroke-miterlimit="10" cx="1410" cy="329" r="10"/>
<g>
	<path d="M1418.57,308.16l-11.28-4.11l1.02-2.79c0.46-1.27,1.02-2.11,1.68-2.5c0.77-0.48,1.67-0.54,2.67-0.18
		c0.62,0.23,1.11,0.56,1.46,1.01c0.16,0.23,0.28,0.59,0.38,1.06c0.4-0.62,0.81-1.02,1.25-1.21c0.73-0.34,1.56-0.35,2.47-0.02
		c0.92,0.33,1.55,0.94,1.9,1.8c0.35,0.87,0.3,1.91-0.15,3.14L1418.57,308.16z M1412.79,303.56l0.23-0.63
		c0.42-1.14,0.13-1.89-0.84-2.24s-1.67,0.03-2.07,1.14l-0.24,0.66L1412.79,303.56z M1417.6,305.31l0.35-0.95
		c0.53-1.46,0.28-2.39-0.75-2.76c-0.57-0.21-1.07-0.14-1.5,0.2c-0.33,0.24-0.64,0.76-0.93,1.54l-0.3,0.83L1417.6,305.31z"/>
	<path d="M1422.71,296.79l-0.75,2.05l-7.33-2.67l0.75-2.05l1.11,0.41c-0.72-0.83-0.91-1.71-0.57-2.62c0.11-0.29,0.27-0.57,0.51-0.83
		l1.8,0.98c-0.28,0.24-0.49,0.53-0.6,0.88c-0.43,1.17,0.09,2.03,1.56,2.56L1422.71,296.79z"/>
	<path d="M1417.98,286.26c0.45-1.23,1.17-2.1,2.17-2.6c1-0.51,2.08-0.55,3.24-0.13s1.96,1.15,2.39,2.19
		c0.43,1.05,0.43,2.19-0.02,3.43s-1.19,2.11-2.2,2.61c-1.01,0.5-2.09,0.54-3.23,0.12c-1.15-0.42-1.94-1.15-2.37-2.2
		C1417.52,288.64,1417.54,287.49,1417.98,286.26z M1419.82,286.96c-0.21,0.57-0.19,1.13,0.06,1.68c0.25,0.55,0.66,0.93,1.23,1.14
		c0.57,0.21,1.13,0.19,1.67-0.07c0.55-0.26,0.93-0.67,1.14-1.24c0.21-0.57,0.19-1.14-0.07-1.69c-0.25-0.55-0.66-0.92-1.23-1.13
		c-0.57-0.21-1.12-0.18-1.67,0.07C1420.4,285.97,1420.02,286.39,1419.82,286.96z"/>
	<path d="M1423.47,277.23c-0.48,0.31-0.78,0.62-0.89,0.92s-0.13,0.55-0.08,0.75c0.07,0.2,0.19,0.33,0.36,0.39
		c0.17,0.06,0.34,0.04,0.5-0.08c0.16-0.12,0.45-0.43,0.85-0.92c0.41-0.5,0.76-0.86,1.07-1.05c0.57-0.4,1.22-0.47,1.95-0.21
		c0.74,0.27,1.25,0.78,1.53,1.53c0.29,0.76,0.26,1.59-0.06,2.49c-0.4,1.11-1.14,1.88-2.23,2.33l-0.86-1.53
		c0.78-0.36,1.28-0.84,1.49-1.42c0.19-0.52-0.02-1.07-0.46-1.23c-0.22-0.08-0.41-0.08-0.58,0.02c-0.16,0.1-0.46,0.41-0.89,0.92
		c-0.43,0.52-0.77,0.86-1.03,1.02c-0.52,0.36-1.11,0.42-1.79,0.17s-1.15-0.7-1.41-1.35c-0.26-0.65-0.23-1.39,0.07-2.21
		c0.3-0.83,0.84-1.49,1.62-2L1423.47,277.23z"/>
	<path d="M1425.94,270.43c-0.48,0.31-0.78,0.62-0.89,0.92c-0.11,0.31-0.13,0.55-0.08,0.75c0.07,0.2,0.19,0.33,0.36,0.39
		c0.17,0.06,0.34,0.04,0.51-0.08c0.16-0.12,0.45-0.43,0.85-0.92c0.41-0.5,0.76-0.85,1.07-1.05c0.57-0.4,1.22-0.47,1.95-0.21
		s1.25,0.78,1.53,1.53c0.29,0.76,0.26,1.59-0.07,2.49c-0.4,1.11-1.14,1.88-2.23,2.33l-0.86-1.53c0.78-0.36,1.28-0.83,1.49-1.42
		c0.19-0.52-0.02-1.07-0.46-1.22c-0.22-0.08-0.41-0.08-0.58,0.02c-0.16,0.1-0.46,0.4-0.89,0.92c-0.43,0.52-0.77,0.86-1.03,1.02
		c-0.52,0.36-1.11,0.42-1.79,0.17c-0.69-0.25-1.15-0.7-1.41-1.35c-0.26-0.65-0.23-1.39,0.07-2.21c0.3-0.83,0.84-1.49,1.62-2
		L1425.94,270.43z"/>
	<path d="M1427.32,261.34l0.75-2.05l7.33,2.67l-0.75,2.05l-0.95-0.35c0.55,0.92,0.66,1.88,0.29,2.88c-0.36,1-1.04,1.71-2.04,2.12
		c-0.99,0.41-2.04,0.42-3.14,0.02c-1.1-0.4-1.91-1.09-2.41-2.04c-0.5-0.96-0.57-1.93-0.22-2.9s1.05-1.66,2.08-2.05L1427.32,261.34z
		 M1428.26,263.75c-0.21,0.58-0.19,1.14,0.06,1.68c0.25,0.55,0.66,0.92,1.23,1.13s1.13,0.19,1.67-0.07
		c0.55-0.26,0.92-0.66,1.13-1.23c0.2-0.56,0.18-1.12-0.07-1.67c-0.25-0.55-0.66-0.92-1.23-1.13c-0.57-0.21-1.12-0.18-1.67,0.06
		C1428.85,262.76,1428.47,263.18,1428.26,263.75z"/>
	<path d="M1436.85,257.95l-0.75,2.05l-7.33-2.67l0.75-2.05l1.11,0.41c-0.72-0.83-0.91-1.71-0.57-2.62c0.1-0.29,0.27-0.57,0.51-0.83
		l1.8,0.98c-0.29,0.24-0.49,0.54-0.6,0.88c-0.43,1.17,0.1,2.03,1.56,2.56L1436.85,257.95z"/>
	<path d="M1427.67,243.75l0.75-2.05l12.67,4.61l-0.75,2.05l-0.95-0.35c0.55,0.92,0.66,1.88,0.29,2.88c-0.36,1-1.04,1.71-2.04,2.12
		c-0.99,0.41-2.04,0.42-3.14,0.02c-1.1-0.4-1.91-1.09-2.41-2.04c-0.5-0.96-0.57-1.93-0.22-2.9s1.05-1.66,2.08-2.05L1427.67,243.75z
		 M1433.96,248.11c-0.21,0.58-0.19,1.14,0.06,1.68c0.25,0.55,0.67,0.92,1.23,1.13c0.57,0.21,1.13,0.19,1.67-0.07
		c0.55-0.26,0.92-0.66,1.13-1.23c0.2-0.56,0.18-1.12-0.07-1.67c-0.25-0.55-0.66-0.92-1.23-1.13c-0.57-0.21-1.12-0.18-1.67,0.06
		C1434.54,247.12,1434.16,247.54,1433.96,248.11z"/>
</g>
<g>
	<path fill="#9B9B9B" d="M692.26,368.22v2.95h-1.43v-7.34h2.12c0.83,0,1.46,0.17,1.87,0.52c0.48,0.4,0.73,0.96,0.73,1.65
		c0,0.7-0.22,1.23-0.66,1.62c-0.27,0.24-0.61,0.4-1.01,0.47l2.31,3.09h-1.76l-1.98-2.95H692.26z M692.26,367.21h0.42
		c0.91,0,1.4-0.41,1.4-1.12c0-0.74-0.46-1.1-1.38-1.1h-0.44V367.21z"/>
	<path fill="#9B9B9B" d="M700.42,366.4h1.33v4.76h-1.33v-0.62c-0.41,0.51-0.94,0.77-1.59,0.77s-1.2-0.24-1.64-0.72
		c-0.45-0.48-0.67-1.09-0.67-1.8s0.23-1.32,0.67-1.81c0.45-0.49,0.99-0.73,1.62-0.73s1.17,0.26,1.61,0.77V366.4z M699.24,367.45
		c-0.38,0-0.69,0.13-0.95,0.39c-0.26,0.26-0.39,0.57-0.39,0.95s0.13,0.69,0.39,0.95c0.26,0.26,0.57,0.39,0.94,0.39
		s0.68-0.13,0.95-0.39c0.26-0.26,0.39-0.57,0.39-0.94c0-0.37-0.13-0.68-0.38-0.95C699.93,367.58,699.61,367.45,699.24,367.45z"/>
	<path fill="#9B9B9B" d="M703.69,363.59c0.22,0,0.41,0.07,0.56,0.23s0.23,0.34,0.23,0.56c0,0.22-0.08,0.41-0.24,0.57
		c-0.16,0.16-0.35,0.24-0.57,0.24s-0.41-0.08-0.56-0.24s-0.24-0.35-0.24-0.57s0.08-0.41,0.24-0.57
		C703.27,363.66,703.46,363.59,703.69,363.59z M704.33,366.4v4.76h-1.33v-4.76H704.33z"/>
	<path fill="#9B9B9B" d="M706.92,362.93v8.24h-1.33v-8.24H706.92z"/>
	<path fill="#9B9B9B" d="M715.04,365.07h-2.45v1.63h2.3v1.24h-2.3v3.22h-1.43v-7.34h3.88V365.07z"/>
	<path fill="#9B9B9B" d="M719.61,366.4h1.33v4.76h-1.33v-0.62c-0.41,0.51-0.94,0.77-1.59,0.77s-1.2-0.24-1.64-0.72
		c-0.45-0.48-0.67-1.09-0.67-1.8s0.23-1.32,0.67-1.81c0.45-0.49,0.99-0.73,1.62-0.73s1.17,0.26,1.61,0.77V366.4z M718.42,367.45
		c-0.38,0-0.69,0.13-0.95,0.39c-0.26,0.26-0.39,0.57-0.39,0.95s0.13,0.69,0.39,0.95c0.26,0.26,0.57,0.39,0.94,0.39
		s0.68-0.13,0.95-0.39c0.26-0.26,0.39-0.57,0.39-0.94c0-0.37-0.13-0.68-0.38-0.95C719.11,367.58,718.79,367.45,718.42,367.45z"/>
	<path fill="#9B9B9B" d="M722.22,366.4h1.33v0.6c0.41-0.54,0.85-0.75,1.49-0.75c0.59,0,1.05,0.19,1.39,0.57
		c0.25,0.29,0.38,0.73,0.38,1.32v3.02h-1.33v-2.64c0-0.37-0.04-0.62-0.13-0.77c-0.14-0.25-0.4-0.38-0.78-0.38
		c-0.67,0-1.01,0.44-1.01,1.32v2.46h-1.33V366.4z"/>
	<path fill="#9B9B9B" d="M730.68,367.52c-0.28-0.21-0.52-0.32-0.71-0.32s-0.34,0.04-0.45,0.11c-0.1,0.08-0.15,0.18-0.15,0.29
		s0.05,0.2,0.15,0.27c0.1,0.07,0.34,0.17,0.71,0.3s0.65,0.26,0.83,0.39c0.35,0.24,0.53,0.6,0.53,1.08s-0.19,0.88-0.56,1.2
		c-0.38,0.32-0.86,0.48-1.44,0.48c-0.72,0-1.32-0.26-1.8-0.79l0.7-0.81c0.37,0.37,0.75,0.56,1.13,0.56c0.34,0,0.61-0.24,0.61-0.52
		c0-0.15-0.04-0.25-0.13-0.33c-0.09-0.07-0.33-0.18-0.71-0.32c-0.39-0.14-0.66-0.26-0.8-0.38c-0.32-0.22-0.47-0.55-0.47-0.99
		s0.16-0.81,0.48-1.09c0.32-0.28,0.75-0.42,1.28-0.42s1.03,0.17,1.49,0.51L730.68,367.52z"/>
	<path fill="#9B9B9B" d="M740.78,365.8c-0.56-0.55-1.17-0.83-1.82-0.83s-1.21,0.25-1.68,0.74c-0.47,0.49-0.7,1.1-0.7,1.81
		c0,0.71,0.23,1.31,0.7,1.79c0.46,0.48,1.04,0.71,1.73,0.71c0.34,0,0.65-0.06,0.92-0.18c0.27-0.12,0.55-0.33,0.84-0.62v1.68
		c-0.62,0.29-1.21,0.43-1.79,0.43c-1.08,0-2-0.37-2.75-1.1s-1.12-1.63-1.12-2.7c0-1.07,0.38-1.98,1.13-2.73s1.67-1.13,2.74-1.13
		c0.6,0,1.19,0.15,1.79,0.45V365.8z"/>
	<path fill="#9B9B9B" d="M745.54,366.4h1.33v4.76h-1.33v-0.62c-0.41,0.51-0.94,0.77-1.59,0.77s-1.2-0.24-1.64-0.72
		c-0.45-0.48-0.67-1.09-0.67-1.8s0.23-1.32,0.67-1.81c0.45-0.49,0.99-0.73,1.62-0.73s1.17,0.26,1.61,0.77V366.4z M744.35,367.45
		c-0.38,0-0.69,0.13-0.95,0.39c-0.26,0.26-0.39,0.57-0.39,0.95s0.13,0.69,0.39,0.95c0.26,0.26,0.57,0.39,0.94,0.39
		s0.68-0.13,0.95-0.39c0.26-0.26,0.39-0.57,0.39-0.94c0-0.37-0.13-0.68-0.38-0.95C745.04,367.58,744.72,367.45,744.35,367.45z"/>
	<path fill="#9B9B9B" d="M748.14,366.4h1.33v0.6c0.41-0.54,0.85-0.75,1.49-0.75c0.59,0,1.05,0.19,1.39,0.57
		c0.25,0.29,0.38,0.73,0.38,1.32v3.02h-1.33v-2.64c0-0.37-0.04-0.62-0.13-0.77c-0.14-0.25-0.4-0.38-0.78-0.38
		c-0.67,0-1.01,0.44-1.01,1.32v2.46h-1.33V366.4z"/>
	<path fill="#9B9B9B" d="M757.65,366.4h1.33v4.76h-1.33v-0.62c-0.41,0.51-0.94,0.77-1.59,0.77c-0.65,0-1.2-0.24-1.64-0.72
		c-0.45-0.48-0.67-1.09-0.67-1.8s0.23-1.32,0.67-1.81c0.45-0.49,0.99-0.73,1.62-0.73c0.63,0,1.17,0.26,1.61,0.77V366.4z
		 M756.47,367.45c-0.38,0-0.69,0.13-0.95,0.39c-0.26,0.26-0.39,0.57-0.39,0.95s0.13,0.69,0.39,0.95c0.26,0.26,0.58,0.39,0.94,0.39
		s0.68-0.13,0.95-0.39c0.26-0.26,0.39-0.57,0.39-0.94c0-0.37-0.13-0.68-0.38-0.95C757.15,367.58,756.84,367.45,756.47,367.45z"/>
	<path fill="#9B9B9B" d="M763.91,362.93h1.33v8.24h-1.33v-0.62c-0.41,0.51-0.94,0.77-1.59,0.77s-1.2-0.24-1.64-0.72
		c-0.45-0.48-0.67-1.09-0.67-1.8s0.23-1.32,0.67-1.81c0.45-0.49,0.99-0.73,1.62-0.73s1.17,0.26,1.61,0.77V362.93z M762.72,367.45
		c-0.38,0-0.69,0.13-0.95,0.39c-0.26,0.26-0.39,0.57-0.39,0.95s0.13,0.69,0.39,0.95c0.26,0.26,0.57,0.39,0.94,0.39
		s0.68-0.13,0.95-0.39c0.26-0.26,0.39-0.57,0.39-0.94c0-0.37-0.13-0.68-0.38-0.95C763.41,367.58,763.09,367.45,762.72,367.45z"/>
	<path fill="#9B9B9B" d="M770.21,366.4h1.33v4.76h-1.33v-0.62c-0.41,0.51-0.94,0.77-1.59,0.77c-0.65,0-1.2-0.24-1.64-0.72
		c-0.45-0.48-0.67-1.09-0.67-1.8s0.23-1.32,0.67-1.81c0.45-0.49,0.99-0.73,1.62-0.73c0.63,0,1.17,0.26,1.61,0.77V366.4z
		 M769.02,367.45c-0.38,0-0.69,0.13-0.95,0.39c-0.26,0.26-0.39,0.57-0.39,0.95s0.13,0.69,0.39,0.95c0.26,0.26,0.57,0.39,0.94,0.39
		s0.68-0.13,0.95-0.39c0.26-0.26,0.39-0.57,0.39-0.94c0-0.37-0.13-0.68-0.38-0.95C769.71,367.58,769.39,367.45,769.02,367.45z"/>
	<path fill="#9B9B9B" d="M774.93,368.09h7.4v1.11h-7.4V368.09z"/>
	<path fill="#9B9B9B" d="M790.6,369.93v1.24h-5.33l2.17-2.46c0.67-0.76,1.11-1.33,1.34-1.69c0.23-0.36,0.34-0.7,0.34-1.01
		c0-0.31-0.11-0.58-0.32-0.79c-0.22-0.21-0.49-0.32-0.8-0.32c-0.32,0-0.58,0.11-0.76,0.32c-0.19,0.21-0.29,0.51-0.31,0.89h-1.53
		c0.05-0.76,0.31-1.36,0.77-1.81c0.46-0.45,1.06-0.67,1.8-0.67c0.74,0,1.35,0.23,1.85,0.67c0.49,0.45,0.74,1.04,0.74,1.76
		s-0.45,1.56-1.33,2.5l-1.28,1.35H790.6z"/>
	<path fill="#9B9B9B" d="M794.45,363.64c0.83,0,1.52,0.38,2.07,1.12c0.5,0.7,0.76,1.62,0.76,2.73s-0.25,2.03-0.76,2.74
		c-0.52,0.7-1.29,1.12-2.08,1.12c-0.85,0-1.54-0.37-2.06-1.1s-0.78-1.65-0.78-2.78s0.25-2.02,0.76-2.72
		C792.92,364.02,793.61,363.64,794.45,363.64z M794.44,364.91c-0.41,0-0.75,0.24-1.02,0.72c-0.27,0.48-0.4,1.1-0.4,1.86
		c0,0.76,0.13,1.38,0.4,1.87c0.26,0.49,0.61,0.73,1.02,0.73c0.41,0,0.76-0.24,1.02-0.72c0.26-0.48,0.39-1.11,0.39-1.86
		c0-0.76-0.13-1.38-0.4-1.86S794.85,364.91,794.44,364.91z"/>
	<path fill="#9B9B9B" d="M803.07,369.93v1.24h-5.33l2.16-2.46c0.67-0.76,1.11-1.33,1.34-1.69c0.23-0.36,0.34-0.7,0.34-1.01
		c0-0.31-0.11-0.58-0.32-0.79c-0.22-0.21-0.49-0.32-0.81-0.32c-0.32,0-0.57,0.11-0.76,0.32c-0.19,0.21-0.3,0.51-0.31,0.89h-1.53
		c0.05-0.76,0.31-1.36,0.77-1.81c0.46-0.45,1.06-0.67,1.8-0.67c0.74,0,1.35,0.23,1.85,0.67c0.49,0.45,0.74,1.04,0.74,1.76
		s-0.45,1.56-1.33,2.5l-1.28,1.35H803.07z"/>
	<path fill="#9B9B9B" d="M809.02,367.04c0.44,0.47,0.66,1.06,0.66,1.79s-0.26,1.33-0.77,1.8c-0.52,0.48-1.19,0.72-2,0.72
		s-1.49-0.24-2.01-0.71c-0.52-0.47-0.79-1.07-0.79-1.81s0.31-1.51,0.92-2.32l2.23-2.98l1.02,0.76l-1.74,2.23
		c0.31-0.12,0.6-0.19,0.86-0.19C808.04,366.34,808.58,366.57,809.02,367.04z M806.91,367.48c-0.38,0-0.7,0.13-0.97,0.39
		c-0.26,0.26-0.4,0.59-0.4,0.98s0.13,0.71,0.4,0.97s0.59,0.4,0.96,0.4s0.69-0.13,0.96-0.4s0.39-0.58,0.39-0.97s-0.13-0.7-0.38-0.97
		C807.61,367.62,807.29,367.48,806.91,367.48z"/>
</g>
<g>
	<path d="M23.11,42.88v11.79h-5.71V25.33h8.49c3.33,0,5.82,0.69,7.48,2.06c1.93,1.61,2.9,3.82,2.9,6.6c0,2.79-0.88,4.94-2.64,6.47
		c-1.07,0.97-2.43,1.59-4.04,1.87l9.24,12.35h-7.05l-7.91-11.79H23.11z M23.11,38.84h1.68c3.63,0,5.59-1.63,5.59-4.49
		c0-2.94-1.83-4.4-5.5-4.4h-1.76V38.84z"/>
	<path d="M58.77,30.29H48.27v6.53h10.12v4.96H48.27v7.93h10.51v4.96H42.55V25.33h16.22V30.29z"/>
	<path d="M62.73,54.67l5.46-29.88h3.91l8.01,19.19l8.31-19.19h3.95l4.9,29.88h-5.78l-2.64-18.09l-8.04,18.48h-1.59l-7.8-18.48
		l-2.94,18.09H62.73z"/>
	<path d="M110.1,42.36h29.61v4.43H110.1V42.36z"/>
	<path d="M171.48,48.46h-12.01l-2.64,6.21h-6.08l12.72-29.97h4.32l12.31,29.97h-6.12L171.48,48.46z M169.68,43.85l-4.1-10.55
		l-4.25,10.55H169.68z"/>
	<path d="M182.74,35.62h5.33V38c1.63-2.17,3.39-2.99,5.97-2.99c2.34,0,4.19,0.75,5.54,2.28c1.01,1.14,1.5,2.9,1.5,5.29v12.1h-5.33
		V44.1c0-1.46-0.17-2.49-0.54-3.07c-0.56-1.01-1.59-1.5-3.12-1.5c-2.69,0-4.04,1.76-4.04,5.29v9.86h-5.33V35.62z"/>
	<path d="M216.6,40.06c-1.12-0.84-2.06-1.27-2.86-1.27s-1.38,0.15-1.78,0.45c-0.41,0.32-0.6,0.71-0.6,1.16s0.19,0.82,0.6,1.1
		s1.35,0.67,2.84,1.18s2.6,1.03,3.31,1.57c1.4,0.97,2.11,2.41,2.11,4.32s-0.75,3.52-2.23,4.79c-1.5,1.29-3.44,1.93-5.78,1.93
		c-2.88,0-5.29-1.05-7.22-3.18l2.79-3.24c1.48,1.48,2.99,2.23,4.51,2.23c1.35,0,2.43-0.95,2.43-2.08c0-0.58-0.17-1.01-0.54-1.31
		c-0.37-0.28-1.31-0.71-2.86-1.27s-2.62-1.05-3.2-1.5c-1.27-0.88-1.89-2.19-1.89-3.97s0.64-3.22,1.93-4.36
		c1.27-1.14,2.99-1.7,5.13-1.7s4.12,0.69,5.95,2.04L216.6,40.06z"/>
	<path d="M242.72,46.02h-14.29c0.15,3.42,1.7,5.11,4.66,5.09c1.85,0,3.35-0.86,4.53-2.56l4.92,0.79c-1.65,3.95-4.75,5.93-9.32,5.95
		c-3.12,0-5.59-0.92-7.46-2.77s-2.79-4.3-2.79-7.37s0.9-5.52,2.73-7.37s4.23-2.77,7.26-2.77s5.41,0.92,7.15,2.75s2.6,4.34,2.6,7.54
		V46.02z M228.61,42.62h9.02c-0.58-2.51-2.11-3.78-4.53-3.78C230.76,38.84,229.06,40.21,228.61,42.62z"/>
	<path d="M246.1,42.36h9.9v4.43h-9.9V42.36z"/>
	<path d="M273.14,35.62h5.33v19.06h-5.33V52.2c-1.65,2.04-3.76,3.07-6.36,3.07s-4.79-0.97-6.57-2.9s-2.69-4.34-2.69-7.2
		s0.9-5.29,2.69-7.24s3.95-2.92,6.49-2.92s4.68,1.03,6.45,3.07V35.62z M262.75,26.34l3.93-2.47l5.22,6.66l-2.54,1.76L262.75,26.34z
		 M268.4,39.81c-1.5,0-2.77,0.52-3.8,1.55c-1.05,1.03-1.57,2.3-1.57,3.78s0.52,2.75,1.57,3.78c1.05,1.05,2.3,1.57,3.76,1.57
		s2.73-0.52,3.78-1.57c1.05-1.03,1.57-2.28,1.57-3.76s-0.52-2.73-1.53-3.78C271.15,40.32,269.88,39.81,268.4,39.81z"/>
	<path d="M281.01,42.36h9.9v4.43h-9.9V42.36z"/>
	<path d="M298.78,21.72v32.96h-5.33V21.72H298.78z"/>
	<path d="M307.03,24.75l4.9,0.58l-6.21,11.71l-3.39-0.45L307.03,24.75z"/>
	<path d="M331.75,24.66c4.36,0,8.04,1.48,11.06,4.45s4.53,6.62,4.53,10.94s-1.53,7.95-4.58,10.89s-6.79,4.4-11.21,4.4
		s-8.12-1.48-11.11-4.47s-4.47-6.62-4.47-10.91s1.55-7.93,4.62-10.87S327.39,24.66,331.75,24.66z M331.69,29.9
		c-2.69,0-5.01,0.99-6.92,2.94c-1.93,1.96-2.9,4.34-2.9,7.13s0.97,5.18,2.88,7.15s4.21,2.96,6.92,2.96s5.03-0.99,6.94-2.96
		s2.86-4.36,2.86-7.15s-0.95-5.18-2.86-7.13S334.38,29.9,331.69,29.9z"/>
	<path d="M357.13,54.67h-5.33V35.62h5.33v2.9c1.31-2.34,3.16-3.52,5.54-3.5c0.75,0,1.53,0.15,2.32,0.47l-0.75,4.96
		c-0.79-0.45-1.63-0.67-2.54-0.64c-3.05,0-4.58,1.91-4.58,5.71V54.67z"/>
	<path d="M385.31,44.9v9.78h-5.33V44.55c0-1.48-0.11-2.54-0.34-3.12s-0.62-1.05-1.16-1.4s-1.12-0.52-1.72-0.52
		c-1.2,0-2.45,0.71-3.14,1.91c-0.34,0.6-0.52,1.76-0.49,3.46v9.78h-5.33V35.62h5.33v2.21c1.65-1.87,3.67-2.81,6.08-2.81
		s4.3,1.16,5.65,3.46c1.5-2.32,3.52-3.48,6.08-3.48s4.38,0.92,5.5,2.75c0.67,1.1,1.01,2.62,1.01,4.62v12.31h-5.33V44.25
		c0-1.38-0.15-2.38-0.43-3.05c-0.49-1.12-1.4-1.68-2.69-1.68C386.54,39.53,385.31,41.31,385.31,44.9z"/>
	<path d="M421.28,46.02h-14.29c0.15,3.42,1.7,5.11,4.66,5.09c1.85,0,3.35-0.86,4.53-2.56l4.92,0.79c-1.65,3.95-4.75,5.93-9.32,5.95
		c-3.12,0-5.59-0.92-7.46-2.77s-2.79-4.3-2.79-7.37s0.9-5.52,2.73-7.37s4.23-2.77,7.26-2.77s5.41,0.92,7.15,2.75s2.6,4.34,2.6,7.54
		V46.02z M407.16,42.62h9.02c-0.58-2.51-2.11-3.78-4.53-3.78C409.31,38.84,407.62,40.21,407.16,42.62z"/>
	<path d="M442.72,51.6c0.62,3.24,1.5,5.99,2.62,8.23l-4.28,2.32c-1.27-2.41-2.19-4.9-2.77-7.48c-1.05-4.4-1.59-8.85-1.59-13.34
		c0-8.04,1.46-14.82,4.36-20.37l4.28,2.34c-2.38,5.07-3.57,11.15-3.57,18.22C441.78,44.98,442.1,48.36,442.72,51.6z"/>
	<path d="M461,54.67h-5.74V30.29h-6.55v-4.96h18.88v4.96H461V54.67z"/>
	<path d="M471.29,54.67V25.33h7.26c3.31,0,5.69,0.58,7.15,1.76c1.76,1.38,2.64,3.37,2.64,5.97c0,1.61-0.37,3.01-1.1,4.19
		c-0.41,0.56-1.12,1.14-2.11,1.76c1.76,0.39,3.03,1.01,3.82,1.85c1.4,1.4,2.11,3.29,2.11,5.67s-0.86,4.34-2.56,5.87
		s-4.15,2.28-7.35,2.28H471.29z M477.01,37.55h1.63c2.96,0,4.45-1.27,4.45-3.8s-1.46-3.8-4.36-3.8h-1.72V37.55z M477.01,50.05h2.47
		c3.8,0,5.71-1.35,5.71-4.04c0-1.48-0.58-2.58-1.72-3.27c-0.84-0.56-2.28-0.84-4.32-0.84h-2.15V50.05z"/>
	<path d="M496.37,54.67V25.33h8.4c4.28,0,7.78,1.14,10.51,3.39c1.65,1.35,2.94,3.01,3.87,4.98s1.38,4.06,1.38,6.25
		s-0.47,4.28-1.4,6.27c-0.95,2-2.26,3.67-3.93,5.05c-2.66,2.26-6.14,3.39-10.46,3.39H496.37z M502.08,49.71h1.55
		c3.5,0,6.1-0.77,7.82-2.34c2-1.74,3.18-4.58,3.18-7.39c0-2.99-1.05-5.44-3.18-7.3c-1.76-1.59-4.36-2.38-7.82-2.38h-1.55V49.71z"/>
	<path d="M528.55,31.56c-0.62-3.24-1.5-5.99-2.62-8.25l4.25-2.34c1.27,2.41,2.19,4.9,2.77,7.48c1.05,4.4,1.59,8.85,1.59,13.34
		c0,8.04-1.46,14.82-4.36,20.37l-4.25-2.32c2.38-5.09,3.57-11.17,3.57-18.22C529.5,38.17,529.17,34.82,528.55,31.56z"/>
</g>
</svg>
