<?xml version="1.0" encoding="iso-8859-1"?>
<!-- Generator: Adobe Illustrator 29.8.4, SVG Export Plug-In . SVG Version: 9.03 Build 0)  -->
<svg version="1.1" id="Layer_1" xmlns="http://www.w3.org/2000/svg" xmlns:xlink="http://www.w3.org/1999/xlink" x="0px" y="0px"
	 viewBox="0 0 1500 281" enable-background="new 0 0 1500 281" xml:space="preserve">
<rect id="bg-white" fill="#FFFFFF" width="1500" height="281"/>
<line fill="none" stroke="#FFCD00" stroke-width="16" stroke-linecap="round" stroke-miterlimit="10" x1="90" y1="233" x2="1410" y2="233"/>
<circle fill="#FFFFFF" stroke="#000000" stroke-width="6" stroke-miterlimit="10" cx="90" cy="233" r="10"/>
<g>
	<path d="M98.57,212.16l-11.28-4.11l1.02-2.79c0.46-1.27,1.02-2.11,1.68-2.5c0.77-0.48,1.67-0.54,2.67-0.18
		c0.62,0.23,1.11,0.56,1.46,1.01c0.16,0.23,0.28,0.59,0.38,1.06c0.4-0.62,0.81-1.02,1.25-1.21c0.73-0.34,1.56-0.35,2.47-0.02
		c0.92,0.33,1.55,0.94,1.9,1.8c0.35,0.87,0.3,1.91-0.15,3.14L98.57,212.16z M92.79,207.56l0.23-0.63c0.42-1.14,0.13-1.89-0.84-2.24
		s-1.67,0.03-2.07,1.14l-0.24,0.66L92.79,207.56z M97.6,209.31l0.35-0.95c0.53-1.46,0.28-2.39-0.75-2.76
		c-0.57-0.21-1.07-0.14-1.5,0.2c-0.33,0.24-0.64,0.76-0.93,1.54l-0.3,0.83L97.6,209.31z"/>
	<path d="M101.26,194.43l-2,5.49c1.33,0.42,2.2,0.06,2.61-1.08c0.26-0.71,0.14-1.41-0.35-2.1l0.99-1.78
		c1.29,1.19,1.62,2.65,0.98,4.42c-0.44,1.2-1.14,2.02-2.11,2.48s-2.04,0.47-3.22,0.04s-2-1.12-2.45-2.08s-0.47-2.01-0.05-3.18
		c0.42-1.16,1.11-1.95,2.06-2.37c0.95-0.41,2.03-0.39,3.26,0.06L101.26,194.43z M97.98,199.38l1.26-3.47
		c-1.05-0.13-1.75,0.28-2.09,1.21C96.82,198.02,97.12,198.87,97.98,199.38z"/>
	<path d="M105.9,192.04l-0.75,2.05l-7.33-2.67l0.75-2.05l1.11,0.41c-0.72-0.83-0.91-1.71-0.57-2.62c0.11-0.29,0.27-0.57,0.51-0.83
		l1.8,0.98c-0.29,0.24-0.49,0.53-0.6,0.88c-0.43,1.17,0.1,2.03,1.56,2.56L105.9,192.04z"/>
	<path d="M108.13,185.88l-0.75,2.05l-7.33-2.67l0.75-2.05l1.11,0.41c-0.72-0.83-0.91-1.71-0.57-2.62c0.11-0.29,0.27-0.57,0.51-0.83
		l1.8,0.98c-0.28,0.24-0.49,0.54-0.6,0.88c-0.43,1.17,0.09,2.03,1.56,2.56L108.13,185.88z"/>
	<path d="M98.35,176.51c0.12-0.34,0.34-0.59,0.67-0.74c0.33-0.15,0.66-0.16,1-0.04c0.34,0.12,0.59,0.36,0.74,0.68
		c0.16,0.33,0.18,0.67,0.05,1.01c-0.12,0.34-0.35,0.58-0.68,0.73s-0.67,0.17-1.01,0.04c-0.34-0.12-0.59-0.36-0.74-0.69
		C98.23,177.19,98.23,176.85,98.35,176.51z M103.04,177.09l7.33,2.67l-0.74,2.04l-7.33-2.67L103.04,177.09z"/>
	<path d="M105.98,177.08l1.39-3.81l1.7,0.62l-1.39,3.81L105.98,177.08z"/>
	<path d="M102.09,167.4l6.46,2.35c0.57,0.21,1,0.34,1.27,0.39c0.28,0.05,0.59,0.05,0.94-0.02c0.69-0.13,1.4-0.75,1.7-1.59
		c0.3-0.83,0.16-1.75-0.28-2.3c-0.23-0.28-0.46-0.49-0.7-0.62c-0.24-0.13-0.65-0.31-1.23-0.52l-6.46-2.35l0.8-2.2l6.9,2.51
		c1.27,0.46,2.17,1.1,2.71,1.92c0.36,0.58,0.57,1.24,0.62,2c0.06,0.76-0.06,1.52-0.34,2.29c-0.28,0.77-0.68,1.43-1.21,1.97
		c-0.53,0.55-1.12,0.93-1.76,1.14c-0.94,0.29-2.04,0.2-3.31-0.27l-6.9-2.51L102.09,167.4z"/>
	<path d="M110.98,160.58c-1.66-0.6-2.85-1.7-3.56-3.29c-0.71-1.59-0.76-3.23-0.14-4.94s1.71-2.93,3.28-3.68s3.18-0.82,4.85-0.21
		c1.46,0.53,2.62,1.55,3.45,3.05l2.48-1.16l-0.59,2.29l-1.37,0.56c0.22,1.14,0.12,2.28-0.28,3.42c-0.63,1.73-1.72,2.97-3.27,3.73
		C114.25,161.11,112.64,161.18,110.98,160.58z M116.61,152.45c-0.44-0.82-1.17-1.42-2.18-1.79c-1.02-0.37-2.02-0.33-3.04,0.14
		c-1.01,0.46-1.71,1.23-2.1,2.29c-0.39,1.07-0.35,2.11,0.14,3.11c0.48,1.01,1.28,1.71,2.38,2.11c1.11,0.4,2.16,0.37,3.15-0.08
		c1-0.45,1.68-1.2,2.07-2.26c0.23-0.64,0.28-1.23,0.14-1.79l-2.92,1.41l0.64-2.35L116.61,152.45z"/>
	<path d="M121.76,141.04l-1.68,4.62l2.02,1.88l-0.85,2.34l-9.74-9.08l0.6-1.66l13.24-0.54l-0.86,2.35L121.76,141.04z M119.73,141.08
		l-4.63,0.1l3.46,3.11L119.73,141.08z"/>
	<path d="M125.61,137.87l-10.72-6.28l0.55-1.5l8.5-0.4l-6.21-5.88l0.55-1.52l12.17,2.3l-0.81,2.22l-7.32-1.52l5.98,5.67l-0.22,0.61
		l-8.19,0.41l6.54,3.66L125.61,137.87z"/>
</g>
<circle fill="#FFFFFF" stroke="#000000" stroke-width="6" stroke-miterlimit="10" cx="750" cy="233" r="10"/>
<g>
	<path d="M748.91,203.61l7.62,2.77c1.48,0.54,2.41,1.25,2.8,2.15c0.31,0.76,0.3,1.6-0.04,2.52s-1,1.63-1.98,2.12l-1.13-1.9
		c0.54-0.13,0.89-0.43,1.06-0.91s0.06-0.87-0.33-1.19c-0.24-0.2-0.75-0.44-1.53-0.73l-7.26-2.64L748.91,203.61z"/>
	<path d="M760.31,197.02l-2,5.49c1.33,0.42,2.2,0.06,2.61-1.08c0.26-0.71,0.14-1.41-0.35-2.1l0.99-1.78
		c1.29,1.19,1.62,2.65,0.98,4.42c-0.44,1.2-1.14,2.02-2.11,2.48s-2.04,0.47-3.22,0.04s-2-1.12-2.45-2.08
		c-0.45-0.96-0.47-2.02-0.05-3.18s1.11-1.95,2.06-2.37c0.95-0.41,2.03-0.39,3.26,0.06L760.31,197.02z M757.03,201.97l1.26-3.47
		c-1.05-0.13-1.75,0.28-2.09,1.21C755.88,200.62,756.17,201.46,757.03,201.97z"/>
	<path d="M758.92,188.4l0.75-2.05l7.33,2.67l-0.75,2.05l-0.95-0.35c0.55,0.92,0.66,1.88,0.29,2.88c-0.36,1-1.04,1.71-2.04,2.12
		c-0.99,0.42-2.04,0.42-3.14,0.03c-1.1-0.4-1.91-1.09-2.41-2.04c-0.5-0.96-0.57-1.93-0.22-2.9s1.05-1.66,2.08-2.05L758.92,188.4z
		 M759.87,190.81c-0.21,0.58-0.19,1.14,0.06,1.68c0.25,0.55,0.66,0.92,1.23,1.13c0.57,0.21,1.13,0.19,1.67-0.07
		c0.55-0.26,0.92-0.66,1.13-1.23c0.2-0.56,0.18-1.12-0.07-1.67c-0.25-0.55-0.66-0.92-1.23-1.13c-0.57-0.21-1.12-0.18-1.67,0.06
		C760.45,189.82,760.08,190.24,759.87,190.81z"/>
	<path d="M760.38,184.39l0.75-2.05l0.92,0.33c-0.61-0.93-0.67-1.72-0.31-2.71c0.33-0.9,0.88-1.5,1.65-1.81
		c0.58-0.23,1.33-0.17,2.24,0.16l4.65,1.69l-0.75,2.05l-4.06-1.48c-0.56-0.2-0.98-0.28-1.26-0.22c-0.47,0.07-0.8,0.4-1.01,0.99
		c-0.38,1.03,0.11,1.8,1.47,2.29l3.79,1.38l-0.75,2.05L760.38,184.39z"/>
	<path d="M765.9,177.31l1.39-3.81l1.7,0.62l-1.39,3.81L765.9,177.31z"/>
	<path d="M772.49,173.92l-11.28-4.11l1.18-3.23c0.6-1.64,1.53-2.83,2.77-3.56c0.75-0.45,1.57-0.71,2.46-0.79
		c0.89-0.08,1.75,0.04,2.6,0.35c0.84,0.31,1.58,0.78,2.22,1.42c0.64,0.64,1.1,1.38,1.39,2.22c0.49,1.34,0.45,2.84-0.16,4.5
		L772.49,173.92z M771.38,171.03l0.22-0.59c0.49-1.35,0.56-2.45,0.19-3.33c-0.39-1.01-1.31-1.86-2.4-2.26
		c-1.15-0.42-2.24-0.36-3.25,0.2c-0.86,0.46-1.53,1.34-2.01,2.67l-0.22,0.59L771.38,171.03z"/>
	<path d="M777.23,160.88l-0.75,2.05l-7.33-2.67l0.75-2.05l1.11,0.41c-0.72-0.83-0.91-1.71-0.57-2.62c0.1-0.29,0.27-0.57,0.51-0.83
		l1.8,0.98c-0.28,0.24-0.48,0.54-0.6,0.88c-0.43,1.17,0.1,2.03,1.56,2.56L777.23,160.88z"/>
	<path d="M773.4,148.63l0.75-2.05l7.33,2.67l-0.75,2.05l-0.95-0.35c0.55,0.92,0.66,1.88,0.29,2.88c-0.36,1-1.04,1.71-2.03,2.12
		c-0.99,0.42-2.04,0.43-3.14,0.03c-1.1-0.4-1.91-1.09-2.41-2.04c-0.5-0.96-0.57-1.93-0.22-2.9s1.05-1.66,2.08-2.05L773.4,148.63z
		 M774.34,151.04c-0.21,0.58-0.19,1.14,0.06,1.68c0.25,0.55,0.66,0.92,1.23,1.13c0.57,0.21,1.13,0.19,1.67-0.07
		c0.55-0.26,0.92-0.66,1.13-1.23c0.2-0.56,0.18-1.12-0.07-1.67c-0.25-0.55-0.66-0.92-1.23-1.13c-0.57-0.21-1.12-0.18-1.67,0.06
		C774.93,150.05,774.55,150.47,774.34,151.04z"/>
	<path d="M786.83,146.66l-0.75,2.05l-11.23-4.09l0.75-2.05l0.95,0.35c-0.55-0.92-0.66-1.88-0.29-2.87c0.36-0.99,1.04-1.7,2.04-2.12
		c1-0.42,2.05-0.43,3.15-0.03c1.11,0.4,1.91,1.09,2.41,2.05s0.57,1.93,0.22,2.89s-1.05,1.66-2.09,2.05L786.83,146.66z
		 M777.88,141.33c-0.21,0.57-0.18,1.12,0.07,1.67s0.67,0.92,1.23,1.13c0.57,0.21,1.13,0.19,1.67-0.07c0.55-0.26,0.92-0.66,1.13-1.23
		c0.21-0.56,0.18-1.12-0.07-1.67c-0.25-0.55-0.65-0.93-1.22-1.14c-0.57-0.21-1.12-0.18-1.67,0.07S778.09,140.76,777.88,141.33z"/>
	<path d="M784.98,129.25l-2,5.49c1.33,0.42,2.2,0.06,2.61-1.08c0.26-0.71,0.14-1.41-0.35-2.1l0.99-1.78
		c1.29,1.19,1.62,2.65,0.98,4.42c-0.44,1.2-1.14,2.02-2.11,2.48c-0.97,0.46-2.04,0.47-3.22,0.04c-1.18-0.43-2-1.12-2.45-2.08
		c-0.45-0.96-0.47-2.01-0.05-3.18c0.42-1.16,1.11-1.95,2.06-2.37c0.95-0.41,2.03-0.39,3.26,0.06L784.98,129.25z M781.7,134.21
		l1.26-3.47c-1.05-0.13-1.75,0.28-2.09,1.21C780.54,132.85,780.84,133.7,781.7,134.21z"/>
	<path d="M783.59,120.63l0.75-2.05l7.33,2.67l-0.75,2.05l-0.95-0.35c0.55,0.92,0.66,1.88,0.29,2.88c-0.36,1-1.04,1.71-2.04,2.12
		s-2.04,0.43-3.14,0.02c-1.1-0.4-1.91-1.09-2.41-2.04c-0.5-0.96-0.57-1.93-0.22-2.9c0.35-0.97,1.05-1.66,2.08-2.05L783.59,120.63z
		 M784.54,123.04c-0.21,0.58-0.19,1.14,0.06,1.68c0.25,0.55,0.67,0.92,1.23,1.13c0.57,0.21,1.13,0.19,1.67-0.07
		c0.55-0.26,0.92-0.66,1.13-1.23c0.21-0.56,0.18-1.12-0.07-1.67c-0.25-0.55-0.66-0.92-1.23-1.13c-0.57-0.21-1.12-0.18-1.67,0.06
		C785.12,122.06,784.74,122.47,784.54,123.04z"/>
	<path d="M785.79,114.58l4.15,1.51c1.12,0.41,1.86,0.11,2.22-0.88c0.36-1-0.02-1.7-1.13-2.1l-4.15-1.51l0.75-2.05l4.49,1.63
		c1.98,0.72,2.62,2.38,1.79,4.66c-0.83,2.28-2.39,3.15-4.37,2.43l-4.49-1.63L785.79,114.58z"/>
</g>
<circle fill="#FFFFFF" stroke="#000000" stroke-width="6" stroke-miterlimit="10" cx="1410" cy="233" r="10"/>
<g>
	<path d="M1408.09,205.85l9.37,3.41l1.26-3.47l1.91,0.69l-2.06,5.67l-11.28-4.11L1408.09,205.85z"/>
	<path d="M1414.94,198.64c0.45-1.23,1.18-2.1,2.17-2.6s2.08-0.55,3.24-0.13c1.16,0.42,1.96,1.15,2.39,2.19
		c0.43,1.05,0.43,2.19-0.03,3.43c-0.45,1.25-1.19,2.11-2.2,2.61c-1.02,0.5-2.09,0.54-3.23,0.12c-1.15-0.42-1.94-1.15-2.37-2.2
		C1414.47,201.01,1414.49,199.87,1414.94,198.64z M1416.77,199.33c-0.21,0.57-0.19,1.13,0.06,1.68c0.25,0.55,0.66,0.93,1.23,1.14
		c0.57,0.21,1.13,0.19,1.67-0.07c0.55-0.26,0.93-0.67,1.13-1.24s0.19-1.14-0.07-1.69c-0.25-0.55-0.66-0.92-1.22-1.13
		c-0.57-0.21-1.12-0.18-1.67,0.07C1417.35,198.35,1416.98,198.76,1416.77,199.33z"/>
	<path d="M1417.25,192.99l0.75-2.05l0.92,0.33c-0.61-0.93-0.67-1.72-0.31-2.71c0.33-0.9,0.88-1.5,1.65-1.81
		c0.58-0.23,1.33-0.17,2.24,0.16l4.65,1.69l-0.75,2.05l-4.06-1.48c-0.56-0.2-0.98-0.28-1.26-0.22c-0.47,0.07-0.8,0.4-1.01,0.99
		c-0.38,1.03,0.11,1.8,1.46,2.29l3.79,1.38l-0.74,2.05L1417.25,192.99z"/>
	<path d="M1423.31,176.34l7.05,2.57c0.75,0.27,1.32,0.54,1.69,0.81c0.37,0.27,0.68,0.63,0.92,1.07c0.6,1.03,0.64,2.25,0.12,3.67
		c-0.52,1.41-1.45,2.3-2.79,2.66c-0.57,0.15-1.12,0.16-1.67,0.03l0.81-2.24c0.96,0.12,1.61-0.29,1.95-1.24
		c0.2-0.55,0.19-1.07-0.04-1.57c-0.21-0.42-0.67-0.76-1.36-1.02l-1.1-0.4c0.3,0.55,0.47,1.04,0.53,1.48
		c0.05,0.45-0.02,0.93-0.21,1.45c-0.36,1-1.02,1.7-1.98,2.1s-2,0.4-3.13-0.02s-1.95-1.09-2.46-2.04c-0.51-0.95-0.58-1.92-0.22-2.91
		c0.36-0.99,1.05-1.67,2.07-2.02l-0.95-0.35L1423.31,176.34z M1423.53,180.76c-0.21,0.57-0.18,1.12,0.06,1.67
		c0.25,0.55,0.66,0.92,1.23,1.13s1.13,0.19,1.67-0.07c0.55-0.26,0.92-0.66,1.13-1.23c0.2-0.56,0.18-1.12-0.07-1.67
		c-0.25-0.55-0.66-0.92-1.23-1.13c-0.57-0.21-1.12-0.18-1.67,0.07C1424.11,179.79,1423.73,180.19,1423.53,180.76z"/>
	<path d="M1424.78,172.32l4.15,1.51c1.11,0.41,1.86,0.11,2.22-0.88c0.36-1-0.02-1.7-1.13-2.1l-4.15-1.51l0.75-2.05l4.48,1.63
		c1.98,0.72,2.62,2.38,1.79,4.66c-0.83,2.28-2.39,3.15-4.37,2.43l-4.48-1.63L1424.78,172.32z"/>
	<path d="M1433.94,159.58l-2,5.49c1.33,0.42,2.2,0.06,2.61-1.08c0.26-0.71,0.14-1.41-0.35-2.1l0.99-1.78
		c1.29,1.19,1.62,2.66,0.98,4.42c-0.44,1.2-1.14,2.02-2.11,2.48c-0.97,0.46-2.04,0.47-3.22,0.04c-1.18-0.43-2-1.12-2.45-2.08
		c-0.46-0.96-0.47-2.01-0.05-3.18c0.42-1.16,1.11-1.95,2.06-2.37c0.95-0.41,2.03-0.39,3.26,0.06L1433.94,159.58z M1430.66,164.53
		l1.26-3.47c-1.05-0.13-1.75,0.28-2.09,1.21C1429.51,163.18,1429.8,164.02,1430.66,164.53z"/>
	<path d="M1431.25,154.53l4.14,1.51c1.12,0.41,1.86,0.11,2.22-0.88c0.37-1-0.02-1.7-1.13-2.11l-4.14-1.51l0.74-2.05l4.49,1.63
		c1.98,0.72,2.62,2.38,1.79,4.66c-0.83,2.28-2.39,3.15-4.37,2.43l-4.48-1.63L1431.25,154.53z"/>
	<path d="M1429.84,144.95c0.12-0.34,0.34-0.59,0.67-0.74c0.33-0.15,0.66-0.16,1-0.04c0.34,0.12,0.59,0.36,0.74,0.68
		c0.16,0.33,0.18,0.67,0.05,1.01c-0.12,0.34-0.35,0.58-0.68,0.73c-0.33,0.15-0.67,0.17-1.01,0.04s-0.59-0.36-0.74-0.69
		C1429.72,145.62,1429.71,145.29,1429.84,144.95z M1434.53,145.52l7.33,2.67l-0.74,2.04l-7.33-2.67L1434.53,145.52z"/>
	<path d="M1430.63,139.6l12.67,4.61l-0.75,2.05l-12.67-4.61L1430.63,139.6z"/>
	<path d="M1439.39,140.24l2.56-7.04l1.7,0.62l-2.56,7.04L1439.39,140.24z"/>
	<path d="M1437.14,126.04l6.46,2.35c0.57,0.21,1,0.34,1.27,0.39c0.28,0.05,0.59,0.05,0.94-0.02c0.69-0.13,1.4-0.75,1.7-1.59
		c0.3-0.83,0.16-1.75-0.29-2.3c-0.23-0.28-0.46-0.49-0.7-0.62c-0.24-0.13-0.65-0.31-1.23-0.52l-6.46-2.35l0.8-2.2l6.9,2.51
		c1.27,0.46,2.17,1.1,2.71,1.92c0.36,0.58,0.57,1.24,0.62,2c0.06,0.76-0.06,1.52-0.34,2.29c-0.28,0.77-0.68,1.43-1.21,1.97
		c-0.53,0.55-1.12,0.93-1.76,1.14c-0.94,0.29-2.04,0.19-3.31-0.27l-6.9-2.51L1437.14,126.04z"/>
	<path d="M1441.12,110.78l0.75-2.05l12.67,4.61l-0.74,2.05l-0.95-0.35c0.55,0.92,0.66,1.88,0.29,2.87c-0.37,1-1.04,1.71-2.04,2.12
		c-0.99,0.42-2.04,0.43-3.14,0.03c-1.1-0.4-1.91-1.09-2.41-2.05s-0.57-1.93-0.21-2.9c0.35-0.97,1.05-1.66,2.08-2.05L1441.12,110.78z
		 M1447.41,115.14c-0.21,0.58-0.19,1.14,0.06,1.68c0.25,0.55,0.66,0.92,1.23,1.13s1.13,0.19,1.67-0.07
		c0.55-0.26,0.92-0.66,1.13-1.23s0.18-1.12-0.07-1.67c-0.25-0.55-0.66-0.92-1.23-1.13c-0.57-0.21-1.12-0.18-1.67,0.06
		C1448,114.15,1447.62,114.57,1447.41,115.14z"/>
	<path d="M1447.72,105.91c0.32,0.12,0.63,0.1,0.91-0.07c0.29-0.17,0.75-0.62,1.4-1.39c0.65-0.76,1.22-1.28,1.72-1.55
		c0.8-0.46,1.73-0.5,2.8-0.11c1.06,0.39,1.81,1.07,2.23,2.04c0.42,0.97,0.42,2.04,0,3.22c-0.58,1.59-1.77,2.62-3.56,3.09l-0.85-1.92
		c1.19-0.17,1.98-0.77,2.36-1.82c0.18-0.5,0.19-0.98,0.01-1.42c-0.18-0.43-0.5-0.73-0.97-0.9c-0.47-0.17-0.91-0.11-1.35,0.19
		c-0.21,0.14-0.66,0.62-1.33,1.43c-0.68,0.81-1.33,1.34-1.94,1.6c-0.61,0.26-1.29,0.24-2.03-0.03c-0.95-0.35-1.61-0.96-1.99-1.86
		c-0.38-0.89-0.38-1.84-0.02-2.86c0.46-1.25,1.28-2.21,2.46-2.86l1.08,1.7c-0.8,0.31-1.33,0.81-1.57,1.49
		c-0.16,0.45-0.18,0.87-0.05,1.26C1447.17,105.54,1447.4,105.79,1447.72,105.91z"/>
</g>
<g>
	<path fill="#9B9B9B" d="M692.26,272.22v2.95h-1.43v-7.34h2.12c0.83,0,1.46,0.17,1.87,0.52c0.48,0.4,0.73,0.96,0.73,1.65
		c0,0.7-0.22,1.23-0.66,1.62c-0.27,0.24-0.61,0.4-1.01,0.47l2.31,3.09h-1.76l-1.98-2.95H692.26z M692.26,271.21h0.42
		c0.91,0,1.4-0.41,1.4-1.12c0-0.74-0.46-1.1-1.38-1.1h-0.44V271.21z"/>
	<path fill="#9B9B9B" d="M700.42,270.4h1.33v4.76h-1.33v-0.62c-0.41,0.51-0.94,0.77-1.59,0.77s-1.2-0.24-1.64-0.72
		c-0.45-0.48-0.67-1.09-0.67-1.8s0.23-1.32,0.67-1.81c0.45-0.49,0.99-0.73,1.62-0.73s1.17,0.26,1.61,0.77V270.4z M699.24,271.45
		c-0.38,0-0.69,0.13-0.95,0.39c-0.26,0.26-0.39,0.57-0.39,0.95s0.13,0.69,0.39,0.95c0.26,0.26,0.57,0.39,0.94,0.39
		s0.68-0.13,0.95-0.39c0.26-0.26,0.39-0.57,0.39-0.94c0-0.37-0.13-0.68-0.38-0.95C699.93,271.58,699.61,271.45,699.24,271.45z"/>
	<path fill="#9B9B9B" d="M703.69,267.59c0.22,0,0.41,0.07,0.56,0.23s0.23,0.34,0.23,0.56c0,0.22-0.08,0.41-0.24,0.57
		c-0.16,0.16-0.35,0.24-0.57,0.24s-0.41-0.08-0.56-0.24s-0.24-0.35-0.24-0.57s0.08-0.41,0.24-0.57
		C703.27,267.66,703.46,267.59,703.69,267.59z M704.33,270.4v4.76h-1.33v-4.76H704.33z"/>
	<path fill="#9B9B9B" d="M706.92,266.93v8.24h-1.33v-8.24H706.92z"/>
	<path fill="#9B9B9B" d="M715.04,269.07h-2.45v1.63h2.3v1.24h-2.3v3.22h-1.43v-7.34h3.88V269.07z"/>
	<path fill="#9B9B9B" d="M719.61,270.4h1.33v4.76h-1.33v-0.62c-0.41,0.51-0.94,0.77-1.59,0.77s-1.2-0.24-1.64-0.72
		c-0.45-0.48-0.67-1.09-0.67-1.8s0.23-1.32,0.67-1.81c0.45-0.49,0.99-0.73,1.62-0.73s1.17,0.26,1.61,0.77V270.4z M718.42,271.45
		c-0.38,0-0.69,0.13-0.95,0.39c-0.26,0.26-0.39,0.57-0.39,0.95s0.13,0.69,0.39,0.95c0.26,0.26,0.57,0.39,0.94,0.39
		s0.68-0.13,0.95-0.39c0.26-0.26,0.39-0.57,0.39-0.94c0-0.37-0.13-0.68-0.38-0.95C719.11,271.58,718.79,271.45,718.42,271.45z"/>
	<path fill="#9B9B9B" d="M722.22,270.4h1.33v0.6c0.41-0.54,0.85-0.75,1.49-0.75c0.59,0,1.05,0.19,1.39,0.57
		c0.25,0.29,0.38,0.73,0.38,1.32v3.02h-1.33v-2.64c0-0.37-0.04-0.62-0.13-0.77c-0.14-0.25-0.4-0.38-0.78-0.38
		c-0.67,0-1.01,0.44-1.01,1.32v2.46h-1.33V270.4z"/>
	<path fill="#9B9B9B" d="M730.68,271.52c-0.28-0.21-0.52-0.32-0.71-0.32s-0.34,0.04-0.45,0.11c-0.1,0.08-0.15,0.18-0.15,0.29
		s0.05,0.2,0.15,0.27c0.1,0.07,0.34,0.17,0.71,0.3s0.65,0.26,0.83,0.39c0.35,0.24,0.53,0.6,0.53,1.08s-0.19,0.88-0.56,1.2
		c-0.38,0.32-0.86,0.48-1.44,0.48c-0.72,0-1.32-0.26-1.8-0.79l0.7-0.81c0.37,0.37,0.75,0.56,1.13,0.56c0.34,0,0.61-0.24,0.61-0.52
		c0-0.15-0.04-0.25-0.13-0.33c-0.09-0.07-0.33-0.18-0.71-0.32c-0.39-0.14-0.66-0.26-0.8-0.38c-0.32-0.22-0.47-0.55-0.47-0.99
		s0.16-0.81,0.48-1.09c0.32-0.28,0.75-0.42,1.28-0.42s1.03,0.17,1.49,0.51L730.68,271.52z"/>
	<path fill="#9B9B9B" d="M740.78,269.8c-0.56-0.55-1.17-0.83-1.82-0.83s-1.21,0.25-1.68,0.74c-0.47,0.49-0.7,1.1-0.7,1.81
		c0,0.71,0.23,1.31,0.7,1.79c0.46,0.48,1.04,0.71,1.73,0.71c0.34,0,0.65-0.06,0.92-0.18c0.27-0.12,0.55-0.33,0.84-0.62v1.68
		c-0.62,0.29-1.21,0.43-1.79,0.43c-1.08,0-2-0.37-2.75-1.1s-1.12-1.63-1.12-2.7c0-1.07,0.38-1.98,1.13-2.73s1.67-1.13,2.74-1.13
		c0.6,0,1.19,0.15,1.79,0.45V269.8z"/>
	<path fill="#9B9B9B" d="M745.54,270.4h1.33v4.76h-1.33v-0.62c-0.41,0.51-0.94,0.77-1.59,0.77s-1.2-0.24-1.64-0.72
		c-0.45-0.48-0.67-1.09-0.67-1.8s0.23-1.32,0.67-1.81c0.45-0.49,0.99-0.73,1.62-0.73s1.17,0.26,1.61,0.77V270.4z M744.35,271.45
		c-0.38,0-0.69,0.13-0.95,0.39c-0.26,0.26-0.39,0.57-0.39,0.95s0.13,0.69,0.39,0.95c0.26,0.26,0.57,0.39,0.94,0.39
		s0.68-0.13,0.95-0.39c0.26-0.26,0.39-0.57,0.39-0.94c0-0.37-0.13-0.68-0.38-0.95C745.04,271.58,744.72,271.45,744.35,271.45z"/>
	<path fill="#9B9B9B" d="M748.14,270.4h1.33v0.6c0.41-0.54,0.85-0.75,1.49-0.75c0.59,0,1.05,0.19,1.39,0.57
		c0.25,0.29,0.38,0.73,0.38,1.32v3.02h-1.33v-2.64c0-0.37-0.04-0.62-0.13-0.77c-0.14-0.25-0.4-0.38-0.78-0.38
		c-0.67,0-1.01,0.44-1.01,1.32v2.46h-1.33V270.4z"/>
	<path fill="#9B9B9B" d="M757.65,270.4h1.33v4.76h-1.33v-0.62c-0.41,0.51-0.94,0.77-1.59,0.77c-0.65,0-1.2-0.24-1.64-0.72
		c-0.45-0.48-0.67-1.09-0.67-1.8s0.23-1.32,0.67-1.81c0.45-0.49,0.99-0.73,1.62-0.73c0.63,0,1.17,0.26,1.61,0.77V270.4z
		 M756.47,271.45c-0.38,0-0.69,0.13-0.95,0.39c-0.26,0.26-0.39,0.57-0.39,0.95s0.13,0.69,0.39,0.95c0.26,0.26,0.58,0.39,0.94,0.39
		s0.68-0.13,0.95-0.39c0.26-0.26,0.39-0.57,0.39-0.94c0-0.37-0.13-0.68-0.38-0.95C757.15,271.58,756.84,271.45,756.47,271.45z"/>
	<path fill="#9B9B9B" d="M763.91,266.93h1.33v8.24h-1.33v-0.62c-0.41,0.51-0.94,0.77-1.59,0.77s-1.2-0.24-1.64-0.72
		c-0.45-0.48-0.67-1.09-0.67-1.8s0.23-1.32,0.67-1.81c0.45-0.49,0.99-0.73,1.62-0.73s1.17,0.26,1.61,0.77V266.93z M762.72,271.45
		c-0.38,0-0.69,0.13-0.95,0.39c-0.26,0.26-0.39,0.57-0.39,0.95s0.13,0.69,0.39,0.95c0.26,0.26,0.57,0.39,0.94,0.39
		s0.68-0.13,0.95-0.39c0.26-0.26,0.39-0.57,0.39-0.94c0-0.37-0.13-0.68-0.38-0.95C763.41,271.58,763.09,271.45,762.72,271.45z"/>
	<path fill="#9B9B9B" d="M770.21,270.4h1.33v4.76h-1.33v-0.62c-0.41,0.51-0.94,0.77-1.59,0.77c-0.65,0-1.2-0.24-1.64-0.72
		c-0.45-0.48-0.67-1.09-0.67-1.8s0.23-1.32,0.67-1.81c0.45-0.49,0.99-0.73,1.62-0.73c0.63,0,1.17,0.26,1.61,0.77V270.4z
		 M769.02,271.45c-0.38,0-0.69,0.13-0.95,0.39c-0.26,0.26-0.39,0.57-0.39,0.95s0.13,0.69,0.39,0.95c0.26,0.26,0.57,0.39,0.94,0.39
		s0.68-0.13,0.95-0.39c0.26-0.26,0.39-0.57,0.39-0.94c0-0.37-0.13-0.68-0.38-0.95C769.71,271.58,769.39,271.45,769.02,271.45z"/>
	<path fill="#9B9B9B" d="M774.93,272.09h7.4v1.11h-7.4V272.09z"/>
	<path fill="#9B9B9B" d="M790.6,273.93v1.24h-5.33l2.17-2.46c0.67-0.76,1.11-1.33,1.34-1.69c0.23-0.36,0.34-0.7,0.34-1.01
		c0-0.31-0.11-0.58-0.32-0.79c-0.22-0.21-0.49-0.32-0.8-0.32c-0.32,0-0.58,0.11-0.76,0.32c-0.19,0.21-0.29,0.51-0.31,0.89h-1.53
		c0.05-0.76,0.31-1.36,0.77-1.81c0.46-0.45,1.06-0.67,1.8-0.67c0.74,0,1.35,0.23,1.85,0.67c0.49,0.45,0.74,1.04,0.74,1.76
		s-0.45,1.56-1.33,2.5l-1.28,1.35H790.6z"/>
	<path fill="#9B9B9B" d="M794.45,267.64c0.83,0,1.52,0.38,2.07,1.12c0.5,0.7,0.76,1.62,0.76,2.73s-0.25,2.03-0.76,2.74
		c-0.52,0.7-1.29,1.12-2.08,1.12c-0.85,0-1.54-0.37-2.06-1.1s-0.78-1.65-0.78-2.78s0.25-2.02,0.76-2.72
		C792.92,268.02,793.61,267.64,794.45,267.64z M794.44,268.91c-0.41,0-0.75,0.24-1.02,0.72c-0.27,0.48-0.4,1.1-0.4,1.86
		c0,0.76,0.13,1.38,0.4,1.87c0.26,0.49,0.61,0.73,1.02,0.73c0.41,0,0.76-0.24,1.02-0.72c0.26-0.48,0.39-1.11,0.39-1.86
		c0-0.76-0.13-1.38-0.4-1.86S794.85,268.91,794.44,268.91z"/>
	<path fill="#9B9B9B" d="M803.07,273.93v1.24h-5.33l2.16-2.46c0.67-0.76,1.11-1.33,1.34-1.69c0.23-0.36,0.34-0.7,0.34-1.01
		c0-0.31-0.11-0.58-0.32-0.79c-0.22-0.21-0.49-0.32-0.81-0.32c-0.32,0-0.57,0.11-0.76,0.32c-0.19,0.21-0.3,0.51-0.31,0.89h-1.53
		c0.05-0.76,0.31-1.36,0.77-1.81c0.46-0.45,1.06-0.67,1.8-0.67c0.74,0,1.35,0.23,1.85,0.67c0.49,0.45,0.74,1.04,0.74,1.76
		s-0.45,1.56-1.33,2.5l-1.28,1.35H803.07z"/>
	<path fill="#9B9B9B" d="M809.02,271.04c0.44,0.47,0.66,1.06,0.66,1.79s-0.26,1.33-0.77,1.8c-0.52,0.48-1.19,0.72-2,0.72
		s-1.49-0.24-2.01-0.71c-0.52-0.47-0.79-1.07-0.79-1.81s0.31-1.51,0.92-2.32l2.23-2.98l1.02,0.76l-1.74,2.23
		c0.31-0.12,0.6-0.19,0.86-0.19C808.04,270.34,808.58,270.57,809.02,271.04z M806.91,271.48c-0.38,0-0.7,0.13-0.97,0.39
		c-0.26,0.26-0.4,0.59-0.4,0.98s0.13,0.71,0.4,0.97s0.59,0.4,0.96,0.4s0.69-0.13,0.96-0.4s0.39-0.58,0.39-0.97s-0.13-0.7-0.38-0.97
		C807.61,271.62,807.29,271.48,806.91,271.48z"/>
</g>
<g>
	<path d="M29.83,54.67h-5.71V41.2L14,25.33h6.77l6.34,10.21l6.21-10.21h6.81L29.83,41.2V54.67z"/>
	<path d="M58.28,46.02H43.99c0.15,3.42,1.7,5.11,4.66,5.09c1.85,0,3.35-0.86,4.53-2.56l4.92,0.79c-1.65,3.95-4.75,5.93-9.32,5.95
		c-3.12,0-5.59-0.92-7.46-2.77s-2.79-4.3-2.79-7.37s0.9-5.52,2.73-7.37s4.23-2.77,7.26-2.77s5.41,0.92,7.15,2.75s2.6,4.34,2.6,7.54
		V46.02z M44.16,42.62h9.02c-0.58-2.51-2.11-3.78-4.53-3.78C46.31,38.84,44.62,40.21,44.16,42.62z"/>
	<path d="M67.78,21.72v32.96h-5.33V21.72H67.78z"/>
	<path d="M78.2,21.72v32.96h-5.33V21.72H78.2z"/>
	<path d="M93.23,35.02c3.2,0,5.8,0.95,7.8,2.81s3.01,4.32,3.01,7.33s-1.01,5.46-3.03,7.33c-2.04,1.87-4.66,2.81-7.91,2.81
		s-5.84-0.97-7.84-2.88s-2.99-4.34-2.99-7.33s1.03-5.41,3.07-7.28S90.03,35.02,93.23,35.02z M93.17,39.81
		c-1.48,0-2.75,0.52-3.8,1.55s-1.59,2.3-1.59,3.78s0.52,2.75,1.57,3.78c1.05,1.05,2.32,1.57,3.8,1.57s2.77-0.52,3.82-1.57
		c1.05-1.03,1.57-2.28,1.57-3.76s-0.52-2.73-1.57-3.78S94.65,39.81,93.17,39.81z"/>
	<path d="M110.66,35.62l5.01,11l5.2-11.52h2.28l5.2,11.69l5.09-11.17h5.95l-9.86,19.44h-2.41l-5.16-11.56l-5.07,11.56h-2.45
		l-9.78-19.44H110.66z"/>
	<path d="M159.58,25.33v24.38h9.02v4.96h-14.74V25.33H159.58z"/>
	<path d="M174.51,24.36c0.88,0,1.63,0.3,2.26,0.92s0.92,1.38,0.92,2.26s-0.32,1.65-0.95,2.28c-0.62,0.64-1.4,0.97-2.28,0.97
		s-1.63-0.32-2.26-0.95s-0.95-1.4-0.95-2.28s0.32-1.65,0.97-2.28C172.86,24.66,173.63,24.36,174.51,24.36z M177.11,35.62v19.06
		h-5.31V35.62H177.11z"/>
	<path d="M182.14,35.62h5.33V38c1.63-2.17,3.39-2.99,5.97-2.99c2.34,0,4.19,0.75,5.54,2.28c1.01,1.14,1.5,2.9,1.5,5.29v12.1h-5.33
		V44.1c0-1.46-0.17-2.49-0.54-3.07c-0.56-1.01-1.59-1.5-3.12-1.5c-2.69,0-4.04,1.76-4.04,5.29v9.86h-5.33V35.62z"/>
	<path d="M224.31,46.02h-14.29c0.15,3.42,1.7,5.11,4.66,5.09c1.85,0,3.35-0.86,4.53-2.56l4.92,0.79c-1.65,3.95-4.75,5.93-9.32,5.95
		c-3.12,0-5.59-0.92-7.46-2.77s-2.79-4.3-2.79-7.37s0.9-5.52,2.73-7.37s4.23-2.77,7.26-2.77s5.41,0.92,7.15,2.75s2.6,4.34,2.6,7.54
		V46.02z M210.2,42.62h9.02c-0.58-2.51-2.11-3.78-4.53-3.78C212.34,38.84,210.65,40.21,210.2,42.62z"/>
	<path d="M245.75,51.6c0.62,3.24,1.5,5.99,2.62,8.23l-4.28,2.32c-1.27-2.41-2.19-4.9-2.77-7.48c-1.05-4.4-1.59-8.85-1.59-13.34
		c0-8.04,1.46-14.82,4.36-20.37l4.28,2.34c-2.38,5.07-3.57,11.15-3.57,18.22C244.81,44.98,245.13,48.36,245.75,51.6z"/>
	<path d="M254.84,35.62h5.33V38c1.63-2.17,3.39-2.99,5.97-2.99c2.34,0,4.19,0.75,5.54,2.28c1.01,1.14,1.5,2.9,1.5,5.29v12.1h-5.33
		V44.1c0-1.46-0.17-2.49-0.54-3.07c-0.56-1.01-1.59-1.5-3.12-1.5c-2.69,0-4.04,1.76-4.04,5.29v9.86h-5.33V35.62z"/>
	<path d="M292.89,35.62h5.33v19.06h-5.33V52.2c-1.65,2.04-3.76,3.07-6.36,3.07s-4.79-0.97-6.57-2.9s-2.69-4.34-2.69-7.2
		s0.9-5.29,2.69-7.24s3.95-2.92,6.49-2.92s4.68,1.03,6.45,3.07V35.62z M288.14,39.81c-1.5,0-2.77,0.52-3.8,1.55
		c-1.05,1.03-1.57,2.3-1.57,3.78s0.52,2.75,1.57,3.78c1.05,1.05,2.3,1.57,3.76,1.57s2.73-0.52,3.78-1.57
		c1.05-1.03,1.57-2.28,1.57-3.76s-0.52-2.73-1.53-3.78C290.89,40.32,289.62,39.81,288.14,39.81z"/>
	<path d="M307.35,31.56c-0.62-3.24-1.5-5.99-2.62-8.25l4.25-2.34c1.27,2.41,2.19,4.9,2.77,7.48c1.05,4.4,1.59,8.85,1.59,13.34
		c0,8.04-1.46,14.82-4.36,20.37l-4.25-2.32c2.38-5.09,3.57-11.17,3.57-18.22C308.29,38.17,307.97,34.82,307.35,31.56z"/>
</g>
</svg>
