<?xml version="1.0" encoding="iso-8859-1"?>
<!-- Generator: Adobe Illustrator 29.8.4, SVG Export Plug-In . SVG Version: 9.03 Build 0)  -->
<svg version="1.1" id="Layer_1" xmlns="http://www.w3.org/2000/svg" xmlns:xlink="http://www.w3.org/1999/xlink" x="0px" y="0px"
	 viewBox="0 0 1500 336" enable-background="new 0 0 1500 336" xml:space="preserve">
<rect id="bg-white" fill="#FFFFFF" width="1500" height="336"/>
<line fill="none" stroke="#005EB8" stroke-width="16" stroke-linecap="round" stroke-miterlimit="10" x1="90" y1="288" x2="1410" y2="288"/>
<circle fill="#FFFFFF" stroke="#000000" stroke-width="6" stroke-miterlimit="10" cx="90" cy="288" r="10"/>
<g>
	<path d="M90.93,262c0.32,0.12,0.63,0.1,0.91-0.07c0.29-0.17,0.75-0.62,1.4-1.39c0.65-0.76,1.22-1.28,1.72-1.55
		c0.81-0.47,1.73-0.5,2.8-0.11s1.81,1.07,2.23,2.04c0.42,0.97,0.43,2.04,0,3.22c-0.58,1.59-1.77,2.62-3.56,3.09l-0.85-1.92
		c1.19-0.16,1.98-0.77,2.36-1.81c0.18-0.5,0.19-0.98,0.01-1.42c-0.18-0.43-0.5-0.73-0.97-0.91c-0.47-0.17-0.92-0.11-1.35,0.19
		c-0.21,0.14-0.66,0.62-1.33,1.43c-0.68,0.81-1.33,1.34-1.94,1.6c-0.61,0.25-1.29,0.24-2.03-0.03c-0.95-0.35-1.61-0.96-1.99-1.86
		s-0.39-1.84-0.02-2.86c0.46-1.25,1.28-2.21,2.46-2.86l1.08,1.7c-0.81,0.31-1.33,0.81-1.57,1.5c-0.17,0.45-0.18,0.87-0.05,1.26
		C90.37,261.63,90.61,261.88,90.93,262z"/>
	<path d="M94.4,255.82l0.75-2.05l0.92,0.33c-0.61-0.93-0.67-1.72-0.31-2.71c0.33-0.9,0.88-1.51,1.65-1.81
		c0.58-0.23,1.33-0.17,2.24,0.16l4.65,1.69l-0.75,2.05L99.49,252c-0.56-0.2-0.98-0.28-1.26-0.22c-0.47,0.07-0.8,0.4-1.01,0.99
		c-0.38,1.03,0.11,1.8,1.47,2.29l3.79,1.38l-0.75,2.05L94.4,255.82z"/>
	<path d="M98.84,242.9c0.45-1.23,1.18-2.1,2.17-2.6s2.08-0.55,3.24-0.13c1.16,0.42,1.96,1.15,2.39,2.19
		c0.43,1.05,0.43,2.19-0.02,3.43c-0.45,1.25-1.19,2.11-2.21,2.61c-1.01,0.5-2.09,0.54-3.23,0.12c-1.15-0.42-1.94-1.15-2.37-2.2
		C98.38,245.27,98.4,244.13,98.84,242.9z M100.68,243.59c-0.21,0.57-0.19,1.13,0.06,1.68c0.25,0.55,0.66,0.93,1.23,1.14
		c0.57,0.21,1.13,0.19,1.67-0.07c0.55-0.26,0.93-0.67,1.13-1.24c0.21-0.57,0.19-1.14-0.07-1.69c-0.25-0.55-0.66-0.92-1.23-1.13
		c-0.57-0.21-1.12-0.18-1.67,0.07C101.26,242.61,100.88,243.02,100.68,243.59z"/>
	<path d="M101.51,236.29l4.93-0.38l-3.7-3.61l0.32-0.88l5.22-0.36l-3.58-3.52l0.83-2.29l6.09,6.51l-0.34,0.92l-5.17,0.37l3.73,3.57
		l-0.34,0.94l-8.84,1.04L101.51,236.29z"/>
	<path d="M102.6,216.67l0.75-2.05l12.67,4.61l-0.75,2.05l-0.95-0.35c0.55,0.92,0.65,1.88,0.29,2.88c-0.36,1-1.04,1.71-2.04,2.12
		c-0.99,0.41-2.04,0.42-3.14,0.03c-1.1-0.4-1.91-1.09-2.41-2.04c-0.5-0.96-0.57-1.93-0.22-2.9c0.36-0.97,1.05-1.66,2.08-2.05
		L102.6,216.67z M108.89,221.02c-0.21,0.58-0.19,1.14,0.06,1.68c0.25,0.55,0.66,0.92,1.23,1.13c0.57,0.21,1.13,0.19,1.67-0.07
		c0.55-0.26,0.93-0.67,1.13-1.23c0.2-0.56,0.18-1.12-0.07-1.67c-0.25-0.55-0.66-0.92-1.23-1.13c-0.57-0.21-1.12-0.18-1.67,0.06
		C109.47,220.04,109.1,220.45,108.89,221.02z"/>
	<path d="M110.56,210.7c0.45-1.23,1.18-2.1,2.17-2.6c1-0.51,2.08-0.55,3.24-0.13s1.96,1.15,2.39,2.19c0.43,1.05,0.43,2.19-0.02,3.43
		c-0.45,1.25-1.19,2.11-2.2,2.61c-1.01,0.5-2.09,0.54-3.23,0.12c-1.15-0.42-1.94-1.15-2.37-2.2
		C110.1,213.07,110.12,211.93,110.56,210.7z M112.4,211.39c-0.21,0.57-0.19,1.13,0.06,1.68s0.66,0.93,1.23,1.14
		c0.57,0.21,1.13,0.19,1.67-0.07c0.55-0.26,0.93-0.67,1.13-1.24s0.19-1.14-0.07-1.69c-0.25-0.55-0.66-0.92-1.23-1.13
		c-0.57-0.21-1.12-0.18-1.67,0.07C112.98,210.41,112.6,210.82,112.4,211.39z"/>
	<path d="M112.88,205.05l0.75-2.05l0.92,0.33c-0.61-0.93-0.67-1.72-0.31-2.71c0.33-0.9,0.88-1.51,1.65-1.81
		c0.58-0.23,1.33-0.17,2.24,0.16l4.65,1.69l-0.75,2.05l-4.06-1.48c-0.56-0.2-0.98-0.28-1.26-0.22c-0.47,0.07-0.8,0.4-1.01,0.99
		c-0.38,1.03,0.11,1.8,1.47,2.29l3.79,1.38l-0.75,2.05L112.88,205.05z"/>
</g>
<circle fill="#FFFFFF" stroke="#000000" stroke-width="6" stroke-miterlimit="10" cx="210" cy="288" r="10"/>
<g>
	<path d="M213.28,256.02c-1.16,0.55-1.92,1.33-2.29,2.34c-0.37,1.01-0.3,2,0.19,2.99c0.49,0.99,1.29,1.69,2.39,2.09
		c1.1,0.4,2.14,0.38,3.14-0.07c0.99-0.44,1.68-1.2,2.07-2.27c0.19-0.53,0.27-1.03,0.23-1.51c-0.04-0.48-0.2-1.03-0.48-1.64
		l2.58,0.94c0.09,1.11-0.02,2.11-0.34,3c-0.61,1.67-1.68,2.88-3.23,3.61c-1.55,0.74-3.14,0.81-4.78,0.21
		c-1.64-0.6-2.83-1.68-3.57-3.27c-0.74-1.59-0.81-3.2-0.21-4.85c0.33-0.92,0.9-1.75,1.7-2.51L213.28,256.02z"/>
	<path d="M212.87,252.89l-1.3-3.71l3.4-2.06l0.63,1.42l-2.23,1.27l0.89,2.42L212.87,252.89z M215.99,250.73
		c0.45-1.23,1.18-2.1,2.17-2.6c1-0.51,2.08-0.55,3.24-0.13s1.96,1.15,2.39,2.19c0.43,1.05,0.43,2.19-0.02,3.43
		c-0.46,1.25-1.19,2.11-2.21,2.61c-1.01,0.5-2.09,0.54-3.23,0.12c-1.15-0.42-1.94-1.15-2.37-2.2
		C215.53,253.1,215.55,251.96,215.99,250.73z M217.83,251.42c-0.21,0.57-0.19,1.13,0.06,1.68s0.66,0.93,1.23,1.14
		c0.57,0.21,1.13,0.19,1.67-0.07c0.55-0.26,0.93-0.67,1.13-1.24c0.21-0.57,0.19-1.14-0.07-1.69c-0.25-0.55-0.66-0.92-1.23-1.13
		c-0.57-0.21-1.12-0.18-1.67,0.07C218.41,250.44,218.03,250.85,217.83,251.42z"/>
	<path d="M220.86,243.6l5.55,2.02l-0.75,2.05l-5.55-2.02l-0.29,0.81l-1.78-0.65l0.29-0.81l-2.5-0.91l0.75-2.05l2.5,0.91l0.53-1.45
		l1.78,0.65L220.86,243.6z"/>
	<path d="M226.63,234.66l-2,5.49c1.33,0.42,2.2,0.06,2.61-1.08c0.26-0.71,0.14-1.41-0.35-2.1l0.99-1.78
		c1.29,1.19,1.62,2.65,0.98,4.42c-0.44,1.2-1.14,2.02-2.11,2.48c-0.97,0.46-2.04,0.47-3.22,0.04c-1.18-0.43-2-1.12-2.45-2.08
		c-0.46-0.96-0.47-2.01-0.05-3.18c0.42-1.17,1.11-1.95,2.06-2.37c0.95-0.41,2.03-0.39,3.26,0.06L226.63,234.66z M223.35,239.61
		l1.26-3.47c-1.05-0.13-1.75,0.28-2.09,1.21C222.2,238.26,222.49,239.1,223.35,239.61z"/>
	<path d="M225.7,232.85l1.39-3.81l1.7,0.62l-1.39,3.81L225.7,232.85z"/>
	<path d="M221.55,219.56l0.75-2.05l12.67,4.61l-0.75,2.05l-0.95-0.35c0.55,0.92,0.66,1.88,0.29,2.88c-0.36,1-1.04,1.71-2.04,2.12
		c-0.99,0.42-2.04,0.43-3.14,0.03c-1.1-0.4-1.91-1.09-2.41-2.04c-0.5-0.96-0.57-1.93-0.22-2.9c0.35-0.97,1.05-1.66,2.08-2.05
		L221.55,219.56z M227.84,223.92c-0.21,0.58-0.19,1.14,0.06,1.68c0.25,0.55,0.67,0.92,1.23,1.13c0.57,0.21,1.13,0.19,1.67-0.07
		c0.55-0.26,0.92-0.66,1.13-1.23c0.21-0.56,0.18-1.12-0.07-1.67c-0.25-0.55-0.66-0.92-1.23-1.13c-0.57-0.21-1.12-0.18-1.67,0.06
		C228.42,222.94,228.04,223.35,227.84,223.92z"/>
	<path d="M234.97,211.76l-2,5.49c1.33,0.42,2.2,0.06,2.61-1.08c0.26-0.71,0.14-1.41-0.35-2.1l0.99-1.78
		c1.29,1.19,1.62,2.65,0.98,4.42c-0.44,1.2-1.14,2.02-2.11,2.48s-2.04,0.47-3.22,0.04c-1.18-0.43-2-1.12-2.45-2.08
		c-0.46-0.96-0.47-2.01-0.05-3.18c0.42-1.17,1.11-1.95,2.06-2.37c0.95-0.41,2.03-0.39,3.26,0.06L234.97,211.76z M231.69,216.71
		l1.26-3.47c-1.05-0.13-1.75,0.28-2.09,1.21C230.53,215.35,230.83,216.2,231.69,216.71z"/>
	<path d="M234.66,205.48c-0.48,0.31-0.78,0.62-0.89,0.92c-0.11,0.31-0.13,0.55-0.08,0.75c0.07,0.2,0.19,0.33,0.36,0.39
		c0.17,0.06,0.34,0.04,0.5-0.08c0.16-0.12,0.45-0.43,0.85-0.92c0.41-0.5,0.76-0.85,1.07-1.05c0.57-0.4,1.22-0.47,1.95-0.21
		c0.74,0.27,1.25,0.78,1.53,1.53c0.29,0.76,0.26,1.59-0.06,2.49c-0.4,1.11-1.14,1.88-2.23,2.33l-0.86-1.53
		c0.78-0.36,1.28-0.83,1.49-1.42c0.19-0.52-0.02-1.07-0.46-1.22c-0.22-0.08-0.41-0.08-0.58,0.02c-0.16,0.1-0.46,0.41-0.89,0.92
		c-0.43,0.52-0.77,0.86-1.03,1.02c-0.52,0.36-1.11,0.42-1.79,0.17c-0.69-0.25-1.15-0.7-1.41-1.35c-0.26-0.65-0.23-1.39,0.07-2.21
		c0.3-0.83,0.84-1.49,1.62-2L234.66,205.48z"/>
	<path d="M236.42,203.38l1.39-3.81l1.7,0.62l-1.39,3.81L236.42,203.38z"/>
	<path d="M243.02,200l-11.54-4.2l0.55-1.52l10.35-4.01l-7.6-2.77l0.8-2.2l11.5,4.19l-0.56,1.53l-10.35,4l7.63,2.78L243.02,200z"/>
	<path d="M247.02,178.64l-2,5.49c1.33,0.42,2.2,0.06,2.61-1.08c0.26-0.71,0.14-1.41-0.35-2.1l0.99-1.78
		c1.29,1.19,1.62,2.65,0.98,4.42c-0.44,1.2-1.14,2.02-2.11,2.48c-0.97,0.46-2.04,0.47-3.22,0.04c-1.18-0.43-2-1.12-2.45-2.08
		c-0.45-0.96-0.47-2.01-0.05-3.18c0.42-1.16,1.11-1.95,2.06-2.37c0.95-0.41,2.03-0.39,3.26,0.06L247.02,178.64z M243.74,183.59
		l1.26-3.47c-1.05-0.13-1.75,0.28-2.09,1.21C242.59,182.23,242.88,183.08,243.74,183.59z"/>
	<path d="M239.63,173.05c0.12-0.34,0.34-0.59,0.67-0.74c0.33-0.15,0.66-0.16,1-0.04s0.59,0.36,0.74,0.68
		c0.16,0.33,0.18,0.67,0.05,1.01c-0.12,0.34-0.35,0.58-0.68,0.73c-0.33,0.15-0.67,0.17-1.01,0.04s-0.59-0.36-0.74-0.69
		C239.51,173.73,239.51,173.39,239.63,173.05z M244.32,173.62l7.33,2.67l-0.74,2.04l-7.33-2.67L244.32,173.62z"/>
	<path d="M247.81,164.04l7.05,2.57c0.75,0.27,1.32,0.54,1.69,0.81c0.37,0.27,0.68,0.63,0.92,1.07c0.6,1.03,0.64,2.25,0.12,3.67
		c-0.51,1.41-1.44,2.3-2.78,2.66c-0.57,0.15-1.12,0.16-1.67,0.03l0.81-2.24c0.96,0.12,1.6-0.3,1.95-1.24
		c0.2-0.55,0.18-1.07-0.04-1.57c-0.21-0.42-0.67-0.76-1.36-1.02l-1.1-0.4c0.3,0.55,0.47,1.04,0.53,1.48
		c0.05,0.45-0.02,0.93-0.21,1.45c-0.36,1-1.02,1.7-1.98,2.1s-2,0.4-3.13-0.02c-1.13-0.41-1.95-1.09-2.46-2.04
		c-0.51-0.95-0.58-1.92-0.22-2.91c0.36-0.99,1.05-1.67,2.07-2.02l-0.95-0.35L247.81,164.04z M248.02,168.46
		c-0.21,0.57-0.18,1.12,0.07,1.67c0.25,0.55,0.66,0.92,1.23,1.13c0.57,0.21,1.13,0.19,1.67-0.07c0.55-0.26,0.92-0.66,1.13-1.23
		c0.2-0.56,0.18-1.12-0.07-1.67c-0.25-0.55-0.66-0.92-1.23-1.13c-0.57-0.21-1.12-0.18-1.67,0.07
		C248.6,167.48,248.23,167.89,248.02,168.46z"/>
	<path d="M255.17,156.26l-2,5.49c1.33,0.42,2.2,0.06,2.61-1.08c0.26-0.71,0.14-1.41-0.35-2.1l0.99-1.78
		c1.29,1.19,1.62,2.65,0.98,4.42c-0.44,1.2-1.14,2.02-2.11,2.48s-2.04,0.47-3.22,0.04c-1.18-0.43-2-1.12-2.45-2.08
		c-0.45-0.96-0.47-2.01-0.05-3.18c0.42-1.16,1.11-1.95,2.06-2.37c0.95-0.41,2.03-0.39,3.26,0.06L255.17,156.26z M251.89,161.21
		l1.26-3.47c-1.05-0.13-1.75,0.28-2.09,1.21C250.74,159.85,251.03,160.7,251.89,161.21z"/>
	<path d="M254.86,149.98c-0.48,0.31-0.78,0.62-0.89,0.92c-0.11,0.31-0.13,0.55-0.08,0.75c0.07,0.2,0.19,0.33,0.36,0.39
		c0.17,0.06,0.34,0.04,0.51-0.08c0.16-0.12,0.45-0.43,0.85-0.92c0.41-0.5,0.76-0.86,1.07-1.05c0.57-0.4,1.22-0.47,1.95-0.21
		c0.74,0.27,1.25,0.78,1.53,1.53c0.29,0.76,0.26,1.59-0.07,2.49c-0.4,1.11-1.14,1.88-2.23,2.33l-0.86-1.53
		c0.78-0.36,1.28-0.84,1.49-1.42c0.19-0.52-0.02-1.07-0.46-1.22c-0.22-0.08-0.41-0.08-0.58,0.02c-0.16,0.1-0.46,0.4-0.89,0.92
		c-0.43,0.52-0.77,0.86-1.03,1.02c-0.52,0.36-1.11,0.42-1.79,0.17s-1.15-0.7-1.41-1.35c-0.26-0.65-0.23-1.39,0.07-2.21
		s0.84-1.49,1.62-2L254.86,149.98z"/>
</g>
<circle fill="#FFFFFF" stroke="#000000" stroke-width="6" stroke-miterlimit="10" cx="330" cy="288" r="10"/>
<g>
	<path d="M328.09,260.85l6.46,2.35c0.57,0.21,1,0.33,1.27,0.39c0.28,0.05,0.59,0.05,0.94-0.02c0.69-0.13,1.4-0.75,1.7-1.59
		c0.3-0.83,0.16-1.76-0.28-2.3c-0.23-0.28-0.46-0.48-0.7-0.62c-0.24-0.13-0.65-0.31-1.23-0.52l-6.46-2.35l0.8-2.2l6.9,2.51
		c1.27,0.46,2.17,1.1,2.71,1.92c0.36,0.58,0.57,1.24,0.62,2c0.06,0.76-0.06,1.52-0.34,2.29c-0.28,0.77-0.68,1.43-1.21,1.97
		c-0.53,0.55-1.12,0.93-1.76,1.14c-0.94,0.29-2.04,0.19-3.31-0.27l-6.9-2.51L328.09,260.85z"/>
	<path d="M335.38,253.12l0.75-2.05l0.92,0.33c-0.61-0.93-0.67-1.72-0.31-2.71c0.33-0.9,0.88-1.51,1.65-1.81
		c0.58-0.23,1.33-0.17,2.24,0.16l4.65,1.69l-0.75,2.05l-4.06-1.48c-0.56-0.2-0.98-0.28-1.26-0.22c-0.47,0.07-0.8,0.4-1.01,0.99
		c-0.38,1.03,0.11,1.8,1.47,2.29l3.79,1.38l-0.75,2.05L335.38,253.12z"/>
	<path d="M334.7,241.53c0.12-0.34,0.34-0.58,0.67-0.74c0.33-0.15,0.66-0.16,1-0.04c0.34,0.12,0.59,0.36,0.74,0.68
		c0.16,0.33,0.18,0.67,0.05,1.01c-0.12,0.34-0.35,0.58-0.68,0.73c-0.33,0.15-0.67,0.17-1.01,0.04c-0.34-0.12-0.59-0.35-0.74-0.69
		C334.59,242.21,334.58,241.87,334.7,241.53z M339.39,242.11l7.33,2.67l-0.74,2.04l-7.33-2.67L339.39,242.11z"/>
	<path d="M340.61,238.77l4.85-0.42l-3.45-3.42l0.84-2.3l6.1,6.5l-0.34,0.92l-8.84,1.02L340.61,238.77z"/>
	<path d="M349.7,226.24l-2,5.49c1.33,0.42,2.2,0.06,2.61-1.08c0.26-0.71,0.14-1.41-0.35-2.1l0.99-1.78
		c1.29,1.19,1.62,2.65,0.98,4.42c-0.44,1.2-1.14,2.02-2.11,2.48c-0.97,0.46-2.04,0.47-3.22,0.04c-1.18-0.43-2-1.12-2.45-2.08
		c-0.45-0.96-0.47-2.01-0.05-3.18c0.42-1.17,1.11-1.95,2.06-2.37c0.95-0.41,2.03-0.39,3.26,0.06L349.7,226.24z M346.42,231.2
		l1.26-3.47c-1.05-0.13-1.75,0.28-2.09,1.21C345.26,229.84,345.55,230.68,346.42,231.2z"/>
	<path d="M354.33,223.85l-0.75,2.05l-7.33-2.67l0.75-2.05l1.12,0.41c-0.72-0.83-0.91-1.71-0.57-2.62c0.1-0.29,0.27-0.57,0.51-0.83
		l1.8,0.98c-0.28,0.24-0.48,0.53-0.6,0.88c-0.43,1.17,0.09,2.03,1.56,2.56L354.33,223.85z"/>
	<path d="M351.62,213.83c-0.48,0.31-0.78,0.62-0.89,0.92s-0.13,0.55-0.08,0.75c0.07,0.2,0.19,0.33,0.36,0.39
		c0.17,0.06,0.34,0.04,0.5-0.08c0.16-0.12,0.45-0.43,0.85-0.92c0.41-0.5,0.76-0.86,1.07-1.05c0.57-0.4,1.22-0.47,1.95-0.21
		c0.74,0.27,1.25,0.78,1.53,1.53c0.29,0.76,0.26,1.59-0.06,2.49c-0.4,1.11-1.14,1.88-2.23,2.33l-0.86-1.53
		c0.78-0.36,1.28-0.84,1.49-1.42c0.19-0.52-0.02-1.07-0.46-1.23c-0.22-0.08-0.41-0.08-0.58,0.02c-0.16,0.1-0.46,0.41-0.89,0.92
		c-0.43,0.52-0.77,0.86-1.03,1.02c-0.52,0.36-1.11,0.42-1.79,0.17s-1.15-0.7-1.41-1.35c-0.26-0.65-0.23-1.39,0.07-2.21
		c0.3-0.83,0.84-1.49,1.62-2L351.62,213.83z"/>
	<path d="M346.99,207.79c0.12-0.34,0.34-0.59,0.67-0.74c0.33-0.15,0.66-0.16,1-0.04s0.59,0.36,0.74,0.68
		c0.16,0.33,0.18,0.67,0.05,1.01c-0.12,0.34-0.35,0.58-0.68,0.73c-0.33,0.15-0.67,0.17-1.01,0.04c-0.34-0.12-0.59-0.36-0.74-0.69
		C346.87,208.46,346.86,208.12,346.99,207.79z M351.68,208.36l7.33,2.67l-0.74,2.04l-7.33-2.67L351.68,208.36z"/>
	<path d="M354.91,205.01l5.55,2.02l-0.75,2.05l-5.55-2.02l-0.29,0.81l-1.78-0.65l0.29-0.81l-2.5-0.91l0.75-2.05l2.5,0.91l0.53-1.45
		l1.78,0.65L354.91,205.01z"/>
	<path d="M352.59,194.74l1.37,3.37l-1.04,0.74l-1.83-2.95L352.59,194.74z M360.68,196.07l-2,5.49c1.33,0.42,2.2,0.06,2.61-1.08
		c0.26-0.71,0.14-1.41-0.35-2.1l0.99-1.78c1.29,1.19,1.62,2.65,0.98,4.42c-0.44,1.2-1.14,2.02-2.11,2.48
		c-0.97,0.46-2.04,0.47-3.22,0.04s-2-1.12-2.45-2.08c-0.45-0.96-0.47-2.01-0.05-3.18c0.42-1.17,1.11-1.95,2.06-2.37
		c0.95-0.41,2.03-0.39,3.26,0.06L360.68,196.07z M357.4,201.02l1.26-3.47c-1.05-0.13-1.75,0.28-2.09,1.21
		C356.24,199.67,356.53,200.51,357.4,201.02z"/>
	<path d="M359.74,194.27l1.39-3.81l1.7,0.62l-1.39,3.81L359.74,194.27z"/>
	<path d="M355.59,180.98l0.75-2.05l12.67,4.61l-0.75,2.05l-0.95-0.35c0.55,0.92,0.66,1.88,0.29,2.88c-0.36,1-1.04,1.71-2.04,2.12
		s-2.04,0.42-3.14,0.03c-1.1-0.4-1.91-1.09-2.41-2.04c-0.5-0.96-0.57-1.93-0.22-2.9s1.05-1.66,2.08-2.05L355.59,180.98z
		 M361.88,185.33c-0.21,0.58-0.19,1.14,0.06,1.68c0.25,0.55,0.67,0.92,1.23,1.13c0.57,0.21,1.13,0.19,1.67-0.07
		c0.55-0.26,0.92-0.66,1.13-1.23c0.2-0.56,0.18-1.12-0.07-1.67c-0.25-0.55-0.66-0.92-1.23-1.13c-0.57-0.21-1.12-0.18-1.67,0.06
		C362.46,184.35,362.09,184.77,361.88,185.33z"/>
	<path d="M369.01,173.17l-2,5.49c1.33,0.42,2.2,0.06,2.61-1.08c0.26-0.71,0.14-1.41-0.35-2.1l0.99-1.78
		c1.29,1.19,1.62,2.65,0.98,4.42c-0.44,1.2-1.14,2.02-2.11,2.48c-0.97,0.46-2.04,0.47-3.22,0.04c-1.18-0.43-2-1.12-2.45-2.08
		c-0.46-0.96-0.47-2.01-0.05-3.18c0.42-1.17,1.11-1.95,2.06-2.37c0.95-0.41,2.03-0.39,3.26,0.06L369.01,173.17z M365.73,178.12
		l1.26-3.47c-1.05-0.13-1.75,0.28-2.09,1.21C364.58,176.77,364.87,177.61,365.73,178.12z"/>
	<path d="M368.08,171.36l1.38-3.81l1.7,0.62l-1.38,3.81L368.08,171.36z"/>
	<path d="M374.45,168.59l-10.72-6.28l0.55-1.5l8.5-0.4l-6.21-5.88l0.55-1.52l12.17,2.3l-0.81,2.22l-7.32-1.52l5.98,5.67l-0.22,0.61
		l-8.19,0.41l6.54,3.66L374.45,168.59z"/>
	<path d="M373.73,147.05c0.45-1.23,1.18-2.1,2.17-2.6s2.08-0.55,3.24-0.13s1.96,1.15,2.39,2.19c0.43,1.05,0.43,2.19-0.02,3.43
		s-1.19,2.11-2.2,2.61c-1.01,0.5-2.09,0.54-3.23,0.12c-1.15-0.42-1.94-1.15-2.37-2.2C373.27,149.43,373.28,148.28,373.73,147.05z
		 M375.56,147.75c-0.21,0.57-0.19,1.13,0.06,1.68c0.25,0.55,0.66,0.93,1.23,1.14c0.57,0.21,1.13,0.19,1.67-0.07
		c0.55-0.26,0.93-0.67,1.14-1.24c0.21-0.57,0.19-1.14-0.07-1.69c-0.25-0.55-0.66-0.92-1.23-1.13c-0.57-0.21-1.12-0.18-1.67,0.07
		C376.14,146.76,375.77,147.18,375.56,147.75z"/>
	<path d="M376.05,141.41l0.75-2.05l0.92,0.33c-0.61-0.93-0.67-1.72-0.31-2.71c0.33-0.9,0.88-1.51,1.65-1.81
		c0.58-0.23,1.33-0.17,2.24,0.16l4.65,1.69l-0.75,2.05l-4.06-1.48c-0.56-0.2-0.98-0.28-1.26-0.22c-0.47,0.07-0.8,0.4-1.01,0.99
		c-0.38,1.03,0.11,1.8,1.47,2.29l3.79,1.38l-0.75,2.05L376.05,141.41z"/>
	<path d="M381.85,130.98l5.55,2.02l-0.75,2.05l-5.55-2.02l-0.29,0.81l-1.78-0.65l0.29-0.81l-2.5-0.91l0.75-2.05l2.5,0.91l0.53-1.45
		l1.78,0.65L381.85,130.98z"/>
	<path d="M389.1,128.32l-0.75,2.05l-7.33-2.67l0.75-2.05l1.11,0.41c-0.72-0.83-0.91-1.71-0.57-2.62c0.1-0.29,0.27-0.57,0.51-0.83
		l1.8,0.98c-0.29,0.24-0.49,0.53-0.6,0.88c-0.43,1.17,0.1,2.03,1.56,2.56L389.1,128.32z"/>
	<path d="M381.77,114.59l1.36,3.37l-1.04,0.74l-1.83-2.95L381.77,114.59z M389.85,115.92l-2,5.49c1.33,0.42,2.2,0.06,2.61-1.08
		c0.26-0.71,0.14-1.41-0.35-2.1l0.99-1.78c1.29,1.19,1.62,2.65,0.98,4.42c-0.44,1.2-1.14,2.02-2.11,2.48
		c-0.97,0.46-2.04,0.47-3.22,0.04c-1.18-0.43-2-1.12-2.45-2.08c-0.46-0.96-0.47-2.01-0.05-3.18c0.42-1.16,1.11-1.95,2.06-2.37
		c0.95-0.41,2.03-0.39,3.26,0.06L389.85,115.92z M386.57,120.87l1.26-3.47c-1.05-0.13-1.75,0.28-2.09,1.21
		C385.42,119.52,385.71,120.36,386.57,120.87z"/>
	<path d="M388.46,107.3l0.75-2.05l7.33,2.67l-0.75,2.05l-0.95-0.35c0.55,0.92,0.65,1.88,0.29,2.87c-0.36,1-1.04,1.71-2.04,2.12
		c-0.99,0.42-2.04,0.43-3.14,0.03c-1.1-0.4-1.91-1.09-2.41-2.05c-0.5-0.96-0.57-1.93-0.22-2.9s1.05-1.66,2.08-2.05L388.46,107.3z
		 M389.41,109.71c-0.21,0.58-0.19,1.14,0.06,1.68c0.25,0.55,0.67,0.92,1.23,1.13c0.57,0.21,1.13,0.19,1.67-0.07
		c0.55-0.26,0.92-0.66,1.13-1.23c0.21-0.56,0.18-1.12-0.07-1.67c-0.25-0.55-0.66-0.92-1.23-1.13c-0.57-0.21-1.12-0.18-1.67,0.06
		C389.99,108.72,389.62,109.14,389.41,109.71z"/>
	<path d="M385.32,99.3l12.67,4.61l-0.75,2.05l-12.67-4.61L385.32,99.3z"/>
</g>
<circle fill="#FFFFFF" stroke="#000000" stroke-width="6" stroke-miterlimit="10" cx="450" cy="288" r="10"/>
<g>
	<path d="M447.73,256.21l0.9,3.52l-1.15,0.59l-1.41-3.13L447.73,256.21z M452.77,257.51l-1.47,4.04l2.51,0.91l1.42-3.89l1.91,0.69
		l-1.42,3.89l3.05,1.11l1.47-4.04l1.91,0.69l-2.27,6.24l-11.28-4.11l2.27-6.24L452.77,257.51z"/>
	<path d="M452.17,248.88l0.75-2.05l12.67,4.61l-0.75,2.05l-0.95-0.35c0.55,0.92,0.65,1.88,0.29,2.88s-1.04,1.71-2.04,2.12
		c-0.99,0.41-2.04,0.42-3.14,0.02c-1.1-0.4-1.91-1.09-2.41-2.04s-0.57-1.93-0.22-2.9c0.36-0.97,1.05-1.66,2.08-2.05L452.17,248.88z
		 M458.46,253.24c-0.21,0.58-0.19,1.14,0.06,1.68c0.25,0.55,0.66,0.92,1.23,1.13c0.57,0.21,1.13,0.19,1.67-0.07
		c0.55-0.26,0.93-0.66,1.13-1.23s0.18-1.12-0.07-1.67c-0.25-0.55-0.66-0.92-1.23-1.13c-0.57-0.21-1.12-0.18-1.67,0.06
		C459.04,252.26,458.67,252.67,458.46,253.24z"/>
	<path d="M460.13,242.92c0.45-1.23,1.18-2.1,2.17-2.6c1-0.51,2.08-0.55,3.24-0.13s1.96,1.15,2.39,2.19
		c0.43,1.05,0.43,2.19-0.02,3.43c-0.46,1.25-1.19,2.11-2.21,2.61c-1.01,0.5-2.09,0.54-3.23,0.12c-1.15-0.42-1.94-1.15-2.37-2.2
		C459.67,245.29,459.69,244.15,460.13,242.92z M461.97,243.61c-0.21,0.57-0.19,1.13,0.06,1.68s0.66,0.93,1.23,1.14
		c0.57,0.21,1.13,0.19,1.67-0.07c0.55-0.26,0.93-0.67,1.13-1.24c0.21-0.57,0.19-1.14-0.07-1.69c-0.25-0.55-0.66-0.92-1.23-1.13
		c-0.57-0.21-1.12-0.18-1.67,0.07C462.55,242.62,462.17,243.04,461.97,243.61z"/>
	<path d="M463.2,235.22l4.15,1.51c1.12,0.41,1.86,0.12,2.22-0.88c0.36-1-0.02-1.7-1.13-2.1l-4.15-1.51l0.75-2.05l4.49,1.63
		c1.98,0.72,2.62,2.38,1.79,4.66c-0.83,2.28-2.39,3.15-4.37,2.43l-4.49-1.63L463.2,235.22z"/>
	<path d="M467.79,222.61l0.75-2.05l7.33,2.67l-0.75,2.05l-0.95-0.35c0.55,0.92,0.66,1.88,0.29,2.87c-0.36,1-1.04,1.71-2.04,2.12
		c-0.99,0.42-2.04,0.42-3.14,0.03c-1.1-0.4-1.91-1.09-2.41-2.05s-0.57-1.93-0.22-2.9c0.36-0.97,1.05-1.66,2.08-2.05L467.79,222.61z
		 M468.73,225.02c-0.21,0.58-0.19,1.14,0.06,1.68c0.25,0.55,0.66,0.92,1.23,1.13c0.57,0.21,1.13,0.19,1.67-0.07
		c0.55-0.26,0.92-0.66,1.13-1.23s0.18-1.12-0.07-1.67c-0.25-0.55-0.66-0.92-1.23-1.13c-0.57-0.21-1.12-0.18-1.67,0.06
		C469.32,224.04,468.94,224.45,468.73,225.02z"/>
	<path d="M477.32,219.22l-0.75,2.05l-7.33-2.67l0.75-2.05l1.12,0.41c-0.72-0.83-0.91-1.71-0.57-2.62c0.11-0.29,0.27-0.57,0.51-0.83
		l1.8,0.98c-0.28,0.24-0.49,0.53-0.6,0.88c-0.43,1.17,0.09,2.03,1.56,2.56L477.32,219.22z"/>
	<path d="M468.14,205.02l0.75-2.05l12.67,4.61l-0.75,2.05l-0.95-0.35c0.55,0.92,0.66,1.88,0.29,2.87c-0.36,1-1.04,1.71-2.04,2.12
		c-0.99,0.42-2.04,0.42-3.14,0.03c-1.1-0.4-1.9-1.09-2.41-2.05c-0.5-0.96-0.57-1.93-0.22-2.9c0.36-0.97,1.05-1.66,2.08-2.05
		L468.14,205.02z M474.43,209.38c-0.21,0.58-0.19,1.14,0.06,1.68c0.25,0.55,0.66,0.92,1.23,1.13c0.57,0.21,1.13,0.19,1.67-0.07
		c0.55-0.26,0.92-0.66,1.13-1.23s0.18-1.12-0.07-1.67c-0.25-0.55-0.66-0.92-1.23-1.13c-0.57-0.21-1.12-0.18-1.67,0.06
		C475.01,208.39,474.63,208.81,474.43,209.38z"/>
	<path d="M477.17,204.89l1.39-3.81l1.7,0.62l-1.39,3.81L477.17,204.89z"/>
	<path d="M483.54,202.12l-10.72-6.28l0.55-1.5l8.5-0.4l-6.21-5.88l0.55-1.52l12.17,2.3l-0.81,2.22l-7.32-1.52l5.98,5.67l-0.22,0.61
		l-8.19,0.41l6.54,3.66L483.54,202.12z"/>
	<path d="M482.82,180.58c0.45-1.23,1.18-2.1,2.17-2.6c1-0.51,2.08-0.55,3.24-0.13s1.96,1.15,2.39,2.19
		c0.43,1.05,0.43,2.19-0.02,3.43c-0.45,1.25-1.19,2.11-2.21,2.61c-1.01,0.5-2.09,0.54-3.23,0.12c-1.15-0.42-1.94-1.15-2.37-2.2
		S482.38,181.81,482.82,180.58z M484.66,181.27c-0.21,0.57-0.19,1.13,0.06,1.68c0.25,0.55,0.66,0.93,1.23,1.14
		c0.57,0.21,1.13,0.19,1.67-0.07c0.55-0.26,0.93-0.67,1.13-1.24c0.21-0.57,0.19-1.14-0.07-1.69c-0.25-0.55-0.66-0.92-1.23-1.13
		c-0.57-0.21-1.12-0.18-1.67,0.07C485.24,180.29,484.86,180.7,484.66,181.27z"/>
	<path d="M485.14,174.93l0.75-2.05l0.92,0.33c-0.61-0.93-0.67-1.72-0.31-2.71c0.33-0.9,0.88-1.5,1.65-1.81
		c0.58-0.23,1.33-0.17,2.24,0.16l4.65,1.69l-0.75,2.05l-4.06-1.48c-0.56-0.2-0.98-0.28-1.26-0.22c-0.47,0.07-0.8,0.4-1.01,0.99
		c-0.38,1.03,0.11,1.8,1.47,2.29l3.79,1.38l-0.75,2.05L485.14,174.93z"/>
	<path d="M490.95,164.5l5.55,2.02l-0.75,2.05l-5.55-2.02l-0.29,0.81l-1.78-0.65l0.29-0.81l-2.5-0.91l0.75-2.05l2.5,0.91l0.53-1.45
		l1.78,0.65L490.95,164.5z"/>
	<path d="M502.11,163.27l-0.75,2.05l-11.23-4.09l0.75-2.05l0.95,0.35c-0.55-0.92-0.66-1.88-0.29-2.87c0.36-0.99,1.04-1.7,2.04-2.12
		c1-0.42,2.05-0.43,3.15-0.03s1.91,1.09,2.41,2.05s0.57,1.93,0.22,2.89s-1.05,1.66-2.09,2.05L502.11,163.27z M493.15,157.93
		c-0.21,0.57-0.18,1.12,0.07,1.67s0.66,0.92,1.23,1.13c0.57,0.21,1.13,0.19,1.67-0.07c0.55-0.26,0.92-0.66,1.13-1.23
		c0.21-0.56,0.18-1.12-0.07-1.67c-0.25-0.55-0.65-0.93-1.22-1.14c-0.57-0.21-1.12-0.18-1.67,0.07
		C493.73,156.95,493.36,157.36,493.15,157.93z"/>
	<path d="M500.25,145.86l-2,5.49c1.33,0.42,2.2,0.06,2.61-1.08c0.26-0.71,0.14-1.41-0.35-2.1l0.99-1.78
		c1.29,1.19,1.62,2.65,0.98,4.42c-0.44,1.2-1.14,2.02-2.11,2.48c-0.97,0.46-2.04,0.47-3.22,0.04c-1.18-0.43-2-1.12-2.45-2.08
		c-0.45-0.96-0.47-2.01-0.05-3.18c0.42-1.17,1.11-1.95,2.06-2.37c0.95-0.41,2.03-0.39,3.26,0.06L500.25,145.86z M496.97,150.81
		l1.26-3.47c-1.05-0.13-1.75,0.28-2.09,1.21C495.82,149.46,496.11,150.3,496.97,150.81z"/>
	<path d="M499.39,141.32l5.55,2.02l-0.75,2.05l-5.55-2.02l-0.29,0.81l-1.78-0.65l0.29-0.81l-2.5-0.91l0.75-2.05l2.5,0.91l0.53-1.45
		l1.78,0.65L499.39,141.32z"/>
	<path d="M494.61,135.46c0.12-0.34,0.34-0.59,0.67-0.74c0.33-0.15,0.66-0.16,1-0.04c0.34,0.12,0.59,0.36,0.74,0.68
		c0.16,0.33,0.18,0.67,0.05,1.01c-0.12,0.34-0.35,0.58-0.68,0.73c-0.33,0.15-0.67,0.17-1.01,0.04c-0.34-0.12-0.59-0.36-0.74-0.69
		C494.49,136.14,494.48,135.8,494.61,135.46z M499.3,136.04l7.33,2.67l-0.74,2.04l-7.33-2.67L499.3,136.04z"/>
	<path d="M502.53,132.69l5.55,2.02l-0.75,2.05l-5.55-2.02l-0.29,0.81l-1.78-0.65l0.29-0.81l-2.5-0.91l0.75-2.05l2.5,0.91l0.53-1.45
		l1.78,0.65L502.53,132.69z"/>
</g>
<circle fill="#FFFFFF" stroke="#000000" stroke-width="6" stroke-miterlimit="10" cx="570" cy="288" r="10"/>
<g>
	<path d="M569.03,257.47c0.61-1.68,1.69-2.88,3.26-3.63s3.18-0.82,4.84-0.21s2.84,1.7,3.55,3.28c0.71,1.58,0.74,3.23,0.12,4.93
		s-1.71,2.91-3.27,3.64c-1.57,0.73-3.17,0.79-4.82,0.19c-1.65-0.6-2.83-1.7-3.53-3.3C568.47,260.79,568.42,259.15,569.03,257.47z
		 M571.04,258.23c-0.38,1.03-0.32,2.06,0.16,3.07c0.48,1.02,1.26,1.72,2.34,2.11s2.13,0.35,3.15-0.11c1.03-0.46,1.73-1.2,2.11-2.25
		c0.38-1.04,0.32-2.07-0.17-3.08s-1.28-1.71-2.35-2.1c-1.07-0.39-2.12-0.36-3.14,0.1C572.12,256.44,571.41,257.2,571.04,258.23z"/>
	<path d="M576.79,249.25l4.15,1.51c1.12,0.41,1.86,0.11,2.22-0.88c0.36-1-0.02-1.7-1.13-2.1l-4.15-1.51l0.75-2.05l4.49,1.63
		c1.98,0.72,2.62,2.38,1.79,4.66s-2.39,3.15-4.37,2.43l-4.49-1.63L576.79,249.25z"/>
	<path d="M581.87,240.84l5.55,2.02l-0.75,2.05l-5.55-2.02l-0.29,0.81l-1.78-0.65l0.29-0.81l-2.5-0.91l0.75-2.05l2.5,0.91l0.53-1.45
		l1.78,0.65L581.87,240.84z"/>
	<path d="M589.12,238.18l-0.75,2.05l-7.33-2.67l0.75-2.05l1.11,0.41c-0.72-0.83-0.91-1.71-0.57-2.62c0.1-0.29,0.27-0.57,0.51-0.83
		l1.8,0.98c-0.29,0.24-0.49,0.54-0.6,0.88c-0.43,1.17,0.1,2.03,1.56,2.56L589.12,238.18z"/>
	<path d="M589.86,225.78l-2,5.49c1.33,0.42,2.2,0.06,2.61-1.08c0.26-0.71,0.14-1.41-0.35-2.1l0.99-1.78
		c1.29,1.19,1.62,2.66,0.98,4.42c-0.44,1.2-1.14,2.02-2.11,2.48s-2.04,0.47-3.22,0.04c-1.18-0.43-2-1.12-2.45-2.08
		c-0.46-0.96-0.47-2.01-0.05-3.18c0.42-1.16,1.11-1.95,2.06-2.37c0.95-0.41,2.03-0.39,3.26,0.06L589.86,225.78z M586.58,230.73
		l1.26-3.47c-1.05-0.13-1.75,0.28-2.09,1.21C585.43,229.38,585.72,230.22,586.58,230.73z"/>
	<path d="M592.45,217.34l3.76,1.37l-0.75,2.05l-3.89-1.42c-0.57-0.21-0.99-0.31-1.25-0.3c-0.26,0.01-0.49,0.09-0.7,0.25
		c-0.21,0.16-0.35,0.36-0.44,0.59c-0.17,0.46-0.07,1.04,0.3,1.47c0.18,0.22,0.6,0.45,1.26,0.67l3.76,1.37l-0.75,2.05l-7.33-2.67
		l0.75-2.05l0.85,0.31c-0.49-0.9-0.57-1.81-0.23-2.73s1.05-1.49,2.12-1.69c-0.68-0.9-0.84-1.84-0.49-2.82
		c0.36-0.98,0.97-1.56,1.83-1.73c0.51-0.1,1.15-0.02,1.92,0.26l4.73,1.72l-0.75,2.05l-4-1.46c-0.53-0.19-0.94-0.28-1.23-0.26
		c-0.5,0.03-0.84,0.3-1.02,0.8C590.55,216.12,591.07,216.84,592.45,217.34z"/>
	<path d="M592.45,205.51c0.45-1.23,1.17-2.1,2.17-2.6s2.08-0.55,3.24-0.13c1.16,0.42,1.96,1.15,2.39,2.19
		c0.43,1.05,0.43,2.19-0.02,3.43c-0.45,1.25-1.19,2.11-2.2,2.61c-1.01,0.5-2.09,0.54-3.23,0.12c-1.15-0.42-1.94-1.15-2.37-2.2
		C591.99,207.89,592,206.74,592.45,205.51z M594.29,206.21c-0.21,0.57-0.19,1.13,0.06,1.68s0.66,0.93,1.23,1.14
		c0.57,0.21,1.13,0.19,1.67-0.07c0.55-0.26,0.93-0.67,1.13-1.24c0.21-0.57,0.19-1.14-0.07-1.69c-0.25-0.55-0.66-0.92-1.23-1.13
		c-0.57-0.21-1.12-0.18-1.67,0.07C594.87,205.22,594.49,205.64,594.29,206.21z"/>
	<path d="M594.77,199.86l0.75-2.05l0.92,0.33c-0.61-0.93-0.67-1.72-0.31-2.71c0.33-0.9,0.88-1.5,1.65-1.81
		c0.58-0.23,1.33-0.17,2.24,0.16l4.65,1.69l-0.75,2.05l-4.06-1.48c-0.56-0.2-0.98-0.28-1.26-0.22c-0.47,0.07-0.8,0.4-1.01,0.99
		c-0.38,1.03,0.11,1.8,1.47,2.29l3.79,1.38l-0.75,2.05L594.77,199.86z"/>
	<path d="M600.58,189.43l5.55,2.02l-0.75,2.05l-5.55-2.02l-0.29,0.81l-1.78-0.65l0.29-0.81l-2.5-0.91l0.75-2.05l2.5,0.91l0.53-1.45
		l1.78,0.65L600.58,189.43z"/>
</g>
<circle fill="#FFFFFF" stroke="#000000" stroke-width="6" stroke-miterlimit="10" cx="690" cy="288" r="10"/>
<g>
	<path d="M698.62,259.61l-1.68,4.62l2.02,1.88l-0.85,2.34l-9.74-9.08l0.6-1.66l13.24-0.54l-0.86,2.35L698.62,259.61z M696.59,259.65
		l-4.63,0.1l3.46,3.11L696.59,259.65z"/>
	<path d="M699.48,248.84c-0.62,0.38-1.03,0.87-1.24,1.46c-0.21,0.59-0.2,1.14,0.04,1.69c0.24,0.54,0.66,0.92,1.25,1.14
		c0.59,0.22,1.15,0.2,1.69-0.07c0.54-0.26,0.91-0.69,1.13-1.28s0.22-1.22,0-1.89l1.99,0.72c0.09,0.71,0.01,1.39-0.22,2.04
		c-0.42,1.14-1.13,1.95-2.16,2.45c-1.01,0.5-2.08,0.54-3.18,0.14c-1.1-0.4-1.89-1.13-2.37-2.17c-0.47-1.04-0.5-2.14-0.09-3.28
		c0.24-0.67,0.62-1.23,1.11-1.7L699.48,248.84z"/>
	<path d="M699.85,240.84l0.75-2.05l7.33,2.67l-0.75,2.05l-0.95-0.35c0.55,0.92,0.66,1.88,0.29,2.87c-0.36,1-1.04,1.71-2.04,2.12
		c-0.99,0.42-2.04,0.43-3.14,0.03c-1.1-0.4-1.91-1.09-2.41-2.05c-0.5-0.96-0.57-1.93-0.22-2.9c0.35-0.97,1.05-1.66,2.08-2.05
		L699.85,240.84z M700.8,243.26c-0.21,0.58-0.19,1.14,0.06,1.68c0.25,0.55,0.67,0.92,1.23,1.13c0.57,0.21,1.13,0.19,1.67-0.07
		c0.55-0.26,0.92-0.66,1.13-1.23c0.21-0.56,0.18-1.12-0.07-1.67c-0.25-0.55-0.66-0.92-1.23-1.13c-0.57-0.21-1.12-0.18-1.67,0.06
		C701.38,242.27,701.01,242.69,700.8,243.26z"/>
	<path d="M698.01,229.28l0.75-2.05l12.67,4.61l-0.75,2.05l-0.95-0.35c0.55,0.92,0.66,1.88,0.29,2.88c-0.36,1-1.04,1.71-2.04,2.12
		s-2.04,0.42-3.14,0.03c-1.1-0.4-1.91-1.09-2.41-2.04c-0.5-0.96-0.57-1.93-0.22-2.9s1.05-1.66,2.08-2.05L698.01,229.28z
		 M704.3,233.63c-0.21,0.58-0.19,1.14,0.06,1.68c0.25,0.55,0.67,0.92,1.23,1.13c0.57,0.21,1.13,0.19,1.67-0.07
		c0.55-0.26,0.92-0.66,1.13-1.23c0.21-0.56,0.18-1.12-0.07-1.67c-0.25-0.55-0.66-0.92-1.23-1.13c-0.57-0.21-1.12-0.18-1.67,0.06
		C704.88,232.65,704.51,233.06,704.3,233.63z"/>
	<path d="M700.85,224.63c0.12-0.34,0.34-0.58,0.67-0.74c0.33-0.15,0.66-0.16,1-0.04c0.34,0.12,0.59,0.36,0.74,0.68
		c0.16,0.33,0.18,0.67,0.05,1.01c-0.12,0.34-0.35,0.58-0.68,0.74c-0.33,0.15-0.67,0.17-1.01,0.04c-0.34-0.12-0.59-0.36-0.74-0.69
		C700.74,225.31,700.73,224.97,700.85,224.63z M705.54,225.21l7.33,2.67l-0.74,2.04l-7.33-2.67L705.54,225.21z"/>
	<path d="M712.87,217.53l-2,5.49c1.33,0.42,2.2,0.06,2.61-1.08c0.26-0.71,0.14-1.41-0.35-2.1l0.99-1.78
		c1.29,1.19,1.62,2.65,0.98,4.42c-0.44,1.2-1.14,2.02-2.11,2.48s-2.04,0.47-3.22,0.04c-1.18-0.43-2-1.12-2.45-2.08
		c-0.46-0.96-0.47-2.01-0.05-3.18c0.42-1.16,1.11-1.95,2.06-2.37c0.95-0.41,2.03-0.39,3.26,0.06L712.87,217.53z M709.59,222.48
		l1.26-3.47c-1.05-0.13-1.75,0.28-2.09,1.21C708.43,221.13,708.72,221.97,709.59,222.48z"/>
</g>
<circle fill="#FFFFFF" stroke="#000000" stroke-width="6" stroke-miterlimit="10" cx="810" cy="288" r="10"/>
<g>
	<path d="M815.19,263.44l4.18,1.52l-0.8,2.2l-11.28-4.11l1.2-3.3c0.27-0.73,0.55-1.3,0.83-1.7c0.29-0.4,0.66-0.72,1.11-0.97
		c0.97-0.52,2-0.57,3.06-0.19s1.82,1.02,2.26,1.88c0.44,0.86,0.42,1.94-0.05,3.24L815.19,263.44z M813.29,262.74l0.32-0.89
		c0.5-1.38,0.21-2.26-0.88-2.66c-1.15-0.42-1.89,0.05-2.46,1.59l-0.28,0.76L813.29,262.74z"/>
	<path d="M816.35,250.47l0.75-2.05l7.33,2.67l-0.75,2.05l-0.95-0.35c0.55,0.92,0.66,1.88,0.29,2.88c-0.36,1-1.04,1.71-2.04,2.12
		c-0.99,0.41-2.04,0.42-3.14,0.03c-1.1-0.4-1.91-1.09-2.41-2.04c-0.5-0.96-0.57-1.93-0.22-2.9s1.05-1.66,2.08-2.05L816.35,250.47z
		 M817.29,252.89c-0.21,0.58-0.19,1.14,0.06,1.68c0.25,0.55,0.66,0.92,1.23,1.13c0.57,0.21,1.13,0.19,1.67-0.07
		c0.55-0.26,0.92-0.67,1.13-1.23c0.2-0.56,0.18-1.12-0.07-1.67c-0.25-0.55-0.66-0.92-1.23-1.13s-1.12-0.18-1.67,0.06
		C817.88,251.9,817.5,252.32,817.29,252.89z"/>
	<path d="M825.88,247.09l-0.75,2.05l-7.33-2.67l0.75-2.05l1.11,0.41c-0.72-0.83-0.91-1.71-0.57-2.62c0.11-0.29,0.27-0.57,0.51-0.83
		l1.8,0.98c-0.28,0.24-0.48,0.53-0.6,0.88c-0.43,1.17,0.1,2.03,1.56,2.56L825.88,247.09z"/>
	<path d="M824.22,235.82c-0.62,0.38-1.03,0.87-1.24,1.46c-0.21,0.59-0.2,1.14,0.04,1.69c0.24,0.55,0.66,0.92,1.25,1.14
		c0.59,0.22,1.15,0.2,1.69-0.07c0.54-0.26,0.91-0.69,1.13-1.28c0.22-0.6,0.22-1.22,0-1.89l1.99,0.72c0.09,0.71,0.01,1.39-0.22,2.04
		c-0.42,1.14-1.13,1.96-2.16,2.45c-1.01,0.5-2.08,0.54-3.18,0.14c-1.1-0.4-1.89-1.13-2.37-2.17c-0.47-1.04-0.5-2.14-0.09-3.28
		c0.24-0.67,0.62-1.23,1.11-1.7L824.22,235.82z"/>
</g>
<circle fill="#FFFFFF" stroke="#000000" stroke-width="6" stroke-miterlimit="10" cx="930" cy="288" r="10"/>
<g>
	<path d="M938.57,267.16l-11.28-4.11l1.18-3.23c0.6-1.64,1.53-2.83,2.77-3.56c0.75-0.45,1.57-0.71,2.46-0.79
		c0.89-0.08,1.75,0.04,2.6,0.35c0.84,0.31,1.58,0.78,2.22,1.42c0.64,0.64,1.1,1.38,1.39,2.22c0.49,1.34,0.44,2.84-0.16,4.5
		L938.57,267.16z M937.46,264.26l0.22-0.59c0.49-1.35,0.56-2.45,0.19-3.33c-0.39-1.01-1.31-1.86-2.4-2.26
		c-1.15-0.42-2.24-0.36-3.25,0.2c-0.86,0.45-1.53,1.34-2.01,2.67l-0.22,0.59L937.46,264.26z"/>
	<path d="M941.87,247.73l-2,5.49c1.33,0.42,2.2,0.06,2.61-1.08c0.26-0.71,0.14-1.41-0.35-2.1l0.99-1.78
		c1.29,1.19,1.62,2.65,0.98,4.42c-0.44,1.2-1.14,2.02-2.11,2.48c-0.97,0.46-2.04,0.47-3.22,0.04s-2-1.12-2.45-2.08
		c-0.45-0.96-0.47-2.01-0.05-3.18c0.42-1.17,1.11-1.95,2.06-2.37c0.95-0.41,2.03-0.39,3.26,0.06L941.87,247.73z M938.59,252.68
		l1.26-3.47c-1.05-0.13-1.75,0.28-2.09,1.21C937.44,251.33,937.73,252.17,938.59,252.68z"/>
	<path d="M942.13,231.7c-1.16,0.55-1.92,1.33-2.29,2.34c-0.37,1.01-0.3,2,0.19,2.99c0.49,0.99,1.29,1.69,2.39,2.09
		c1.1,0.4,2.14,0.38,3.14-0.07c0.99-0.44,1.68-1.2,2.07-2.27c0.19-0.53,0.27-1.03,0.23-1.52c-0.04-0.48-0.2-1.03-0.48-1.64
		l2.58,0.94c0.09,1.11-0.02,2.11-0.34,3c-0.61,1.67-1.68,2.88-3.23,3.61c-1.55,0.74-3.14,0.81-4.78,0.21
		c-1.64-0.6-2.83-1.68-3.57-3.27c-0.74-1.59-0.81-3.2-0.21-4.85c0.33-0.92,0.9-1.75,1.7-2.51L942.13,231.7z"/>
	<path d="M945.72,224.72l0.75-2.05l7.33,2.67l-0.75,2.05l-0.95-0.35c0.55,0.92,0.66,1.88,0.29,2.88c-0.36,1-1.04,1.71-2.04,2.12
		c-0.99,0.42-2.04,0.43-3.14,0.03c-1.1-0.4-1.91-1.09-2.41-2.04c-0.5-0.96-0.57-1.93-0.22-2.9c0.36-0.97,1.05-1.66,2.08-2.05
		L945.72,224.72z M946.67,227.13c-0.21,0.58-0.19,1.14,0.06,1.68c0.25,0.55,0.66,0.92,1.23,1.13c0.57,0.21,1.13,0.19,1.67-0.07
		c0.55-0.26,0.92-0.66,1.13-1.23c0.2-0.56,0.18-1.12-0.07-1.67c-0.25-0.55-0.66-0.92-1.23-1.13c-0.57-0.21-1.12-0.18-1.67,0.06
		C947.25,226.15,946.88,226.56,946.67,227.13z"/>
	<path d="M950.33,217.37c-0.48,0.31-0.78,0.62-0.89,0.92c-0.11,0.31-0.13,0.55-0.08,0.75c0.07,0.2,0.19,0.33,0.36,0.39
		c0.17,0.06,0.34,0.04,0.51-0.08c0.16-0.12,0.45-0.43,0.85-0.92c0.41-0.5,0.76-0.85,1.07-1.05c0.57-0.4,1.22-0.47,1.95-0.21
		s1.25,0.78,1.53,1.53c0.29,0.76,0.26,1.59-0.07,2.49c-0.4,1.11-1.14,1.88-2.23,2.33l-0.86-1.53c0.78-0.36,1.28-0.83,1.49-1.42
		c0.19-0.52-0.02-1.07-0.46-1.22c-0.22-0.08-0.41-0.08-0.58,0.02c-0.16,0.1-0.46,0.4-0.89,0.92c-0.43,0.52-0.77,0.86-1.03,1.02
		c-0.52,0.36-1.11,0.42-1.79,0.17c-0.69-0.25-1.15-0.7-1.41-1.35c-0.26-0.65-0.23-1.39,0.07-2.21c0.3-0.83,0.84-1.49,1.62-2
		L950.33,217.37z"/>
	<path d="M952.25,212.32l5.55,2.02l-0.75,2.05l-5.55-2.02l-0.29,0.81l-1.78-0.65l0.29-0.81l-2.5-0.91l0.75-2.05l2.5,0.91l0.53-1.45
		l1.78,0.65L952.25,212.32z"/>
	<path d="M958.02,203.38l-2,5.49c1.33,0.42,2.2,0.06,2.61-1.08c0.26-0.71,0.14-1.41-0.35-2.1l0.99-1.78
		c1.29,1.19,1.62,2.66,0.98,4.42c-0.44,1.2-1.14,2.02-2.11,2.48s-2.04,0.47-3.22,0.04c-1.18-0.43-2-1.12-2.45-2.08
		c-0.46-0.96-0.47-2.01-0.05-3.18c0.42-1.16,1.11-1.95,2.06-2.37s2.03-0.39,3.26,0.06L958.02,203.38z M954.74,208.33l1.26-3.47
		c-1.05-0.13-1.75,0.28-2.09,1.21C953.58,206.98,953.87,207.82,954.74,208.33z"/>
	<path d="M950,196.33l12.67,4.61l-0.75,2.05l-12.67-4.61L950,196.33z"/>
	<path d="M956.06,196.32l0.75-2.05l0.92,0.33c-0.61-0.93-0.67-1.72-0.31-2.71c0.33-0.9,0.88-1.5,1.65-1.81
		c0.58-0.23,1.33-0.17,2.24,0.16l4.65,1.69l-0.75,2.05l-4.06-1.48c-0.56-0.2-0.98-0.28-1.26-0.22c-0.47,0.07-0.8,0.4-1.01,0.99
		c-0.38,1.03,0.11,1.8,1.47,2.29l3.79,1.38l-0.75,2.05L956.06,196.32z"/>
	<path d="M961.38,181.69l0.75-2.05l7.33,2.67l-0.75,2.05l-0.95-0.35c0.55,0.92,0.66,1.88,0.29,2.87c-0.36,1-1.04,1.71-2.04,2.12
		c-0.99,0.42-2.04,0.42-3.14,0.03c-1.1-0.4-1.91-1.09-2.41-2.05c-0.5-0.96-0.57-1.93-0.21-2.9c0.35-0.97,1.05-1.66,2.08-2.05
		L961.38,181.69z M962.33,184.1c-0.21,0.58-0.19,1.14,0.06,1.68c0.25,0.55,0.66,0.92,1.23,1.13c0.57,0.21,1.13,0.19,1.67-0.07
		c0.55-0.26,0.92-0.66,1.13-1.23c0.21-0.56,0.18-1.12-0.07-1.67c-0.25-0.55-0.66-0.92-1.23-1.13c-0.57-0.21-1.12-0.18-1.67,0.06
		C962.91,183.12,962.54,183.53,962.33,184.1z"/>
	<path d="M963.59,175.64l4.15,1.51c1.12,0.41,1.86,0.11,2.22-0.88c0.36-1-0.02-1.7-1.13-2.11l-4.15-1.51l0.75-2.05l4.49,1.63
		c1.98,0.72,2.62,2.38,1.79,4.66c-0.83,2.28-2.39,3.15-4.37,2.43l-4.49-1.63L963.59,175.64z"/>
</g>
<circle fill="#FFFFFF" stroke="#000000" stroke-width="6" stroke-miterlimit="10" cx="1050" cy="288" r="10"/>
<g>
	<path d="M1048.91,258.61l7.62,2.77c1.48,0.54,2.41,1.25,2.8,2.15c0.31,0.76,0.3,1.6-0.04,2.52s-1,1.63-1.98,2.12l-1.13-1.9
		c0.54-0.13,0.89-0.43,1.06-0.91s0.06-0.87-0.33-1.19c-0.24-0.2-0.75-0.44-1.53-0.73l-7.26-2.64L1048.91,258.61z"/>
	<path d="M1060.31,252.02l-2,5.49c1.33,0.42,2.2,0.06,2.61-1.08c0.26-0.71,0.14-1.41-0.35-2.1l0.99-1.78
		c1.29,1.19,1.62,2.65,0.98,4.42c-0.44,1.2-1.14,2.02-2.11,2.48s-2.04,0.47-3.22,0.04s-2-1.12-2.45-2.08
		c-0.45-0.96-0.47-2.02-0.05-3.18s1.11-1.95,2.06-2.37c0.95-0.41,2.03-0.39,3.26,0.06L1060.31,252.02z M1057.03,256.97l1.26-3.47
		c-1.05-0.13-1.75,0.28-2.09,1.21C1055.88,255.62,1056.17,256.46,1057.03,256.97z"/>
	<path d="M1058.92,243.4l0.75-2.05l7.33,2.67l-0.75,2.05l-0.95-0.35c0.55,0.92,0.66,1.88,0.29,2.88c-0.36,1-1.04,1.71-2.04,2.12
		c-0.99,0.42-2.04,0.42-3.14,0.03c-1.1-0.4-1.91-1.09-2.41-2.04c-0.5-0.96-0.57-1.93-0.22-2.9s1.05-1.66,2.08-2.05L1058.92,243.4z
		 M1059.87,245.81c-0.21,0.58-0.19,1.14,0.06,1.68c0.25,0.55,0.66,0.92,1.23,1.13c0.57,0.21,1.13,0.19,1.67-0.07
		c0.55-0.26,0.92-0.66,1.13-1.23c0.2-0.56,0.18-1.12-0.07-1.67c-0.25-0.55-0.66-0.92-1.23-1.13c-0.57-0.21-1.12-0.18-1.67,0.06
		C1060.45,244.82,1060.08,245.24,1059.87,245.81z"/>
	<path d="M1060.38,239.39l0.75-2.05l0.92,0.33c-0.61-0.93-0.67-1.72-0.31-2.71c0.33-0.9,0.88-1.5,1.65-1.81
		c0.58-0.23,1.33-0.17,2.24,0.16l4.65,1.69l-0.75,2.05l-4.06-1.48c-0.56-0.2-0.98-0.28-1.26-0.22c-0.47,0.07-0.8,0.4-1.01,0.99
		c-0.38,1.03,0.11,1.8,1.47,2.29l3.79,1.38l-0.75,2.05L1060.38,239.39z"/>
	<path d="M1065.9,232.31l1.39-3.81l1.7,0.62l-1.39,3.81L1065.9,232.31z"/>
	<path d="M1073.8,225.31l-0.8,2.21l-9.37-3.41l-0.92,2.52l-1.91-0.69l2.64-7.26l1.91,0.69l-0.92,2.54L1073.8,225.31z"/>
	<path d="M1069.6,214.05l0.75-2.05l7.33,2.67l-0.75,2.05l-0.95-0.35c0.55,0.92,0.65,1.88,0.29,2.87s-1.04,1.71-2.04,2.12
		c-0.99,0.41-2.04,0.42-3.14,0.02c-1.1-0.4-1.91-1.09-2.41-2.04c-0.5-0.96-0.57-1.93-0.22-2.9s1.05-1.66,2.08-2.05L1069.6,214.05z
		 M1070.55,216.46c-0.21,0.58-0.19,1.14,0.06,1.68c0.25,0.55,0.66,0.92,1.23,1.13c0.57,0.21,1.13,0.19,1.67-0.07
		c0.55-0.26,0.92-0.66,1.13-1.23c0.2-0.56,0.18-1.12-0.07-1.67c-0.25-0.55-0.66-0.92-1.23-1.13c-0.57-0.21-1.12-0.18-1.67,0.06
		C1071.13,215.48,1070.76,215.89,1070.55,216.46z"/>
	<path d="M1066.46,206.05l12.67,4.61l-0.75,2.05l-12.67-4.61L1066.46,206.05z"/>
	<path d="M1073.68,202.13c0.45-1.23,1.18-2.1,2.17-2.6s2.08-0.55,3.24-0.13s1.96,1.15,2.39,2.19c0.43,1.05,0.43,2.19-0.02,3.43
		c-0.45,1.25-1.19,2.11-2.2,2.61c-1.01,0.5-2.09,0.54-3.23,0.12c-1.15-0.42-1.94-1.15-2.37-2.2
		C1073.22,204.51,1073.23,203.36,1073.68,202.13z M1075.51,202.83c-0.21,0.57-0.19,1.13,0.06,1.68c0.25,0.55,0.66,0.93,1.23,1.14
		c0.57,0.21,1.13,0.19,1.67-0.07c0.55-0.26,0.93-0.67,1.13-1.24s0.19-1.14-0.07-1.69c-0.25-0.55-0.66-0.92-1.23-1.13
		c-0.57-0.21-1.12-0.18-1.67,0.07C1076.1,201.84,1075.72,202.26,1075.51,202.83z"/>
	<path d="M1076,196.48l0.75-2.05l0.92,0.33c-0.61-0.93-0.67-1.72-0.31-2.71c0.33-0.9,0.88-1.51,1.65-1.81
		c0.58-0.23,1.33-0.17,2.24,0.16l4.65,1.69l-0.75,2.05l-4.06-1.48c-0.56-0.2-0.98-0.28-1.26-0.22c-0.47,0.07-0.8,0.4-1.01,0.99
		c-0.38,1.03,0.11,1.8,1.47,2.29l3.79,1.38l-0.75,2.05L1076,196.48z"/>
</g>
<circle fill="#FFFFFF" stroke="#000000" stroke-width="6" stroke-miterlimit="10" cx="1170" cy="288" r="10"/>
<g>
	<path d="M1171.37,257.77l-1.37,3.77l2.51,0.91l1.29-3.54l1.91,0.7l-1.29,3.54l4.96,1.8l-0.8,2.2l-11.28-4.11l2.17-5.97
		L1171.37,257.77z"/>
	<path d="M1175.98,251.49l0.75-2.05l7.33,2.67l-0.75,2.05l-0.95-0.35c0.55,0.92,0.65,1.88,0.29,2.88c-0.36,1-1.04,1.71-2.04,2.12
		c-0.99,0.42-2.04,0.42-3.14,0.03c-1.1-0.4-1.91-1.09-2.41-2.04c-0.5-0.96-0.57-1.93-0.22-2.9s1.05-1.66,2.08-2.05L1175.98,251.49z
		 M1176.92,253.9c-0.21,0.58-0.19,1.14,0.06,1.68c0.25,0.55,0.67,0.92,1.23,1.13c0.57,0.21,1.13,0.19,1.67-0.07
		c0.55-0.26,0.92-0.66,1.13-1.23c0.21-0.56,0.18-1.12-0.07-1.67c-0.25-0.55-0.66-0.92-1.23-1.13c-0.57-0.21-1.12-0.18-1.67,0.06
		C1177.51,252.92,1177.13,253.33,1176.92,253.9z"/>
	<path d="M1172.84,243.49l6.29,2.29c-0.54-0.97-0.63-1.95-0.27-2.92c0.35-0.97,1.03-1.67,2.02-2.08c0.99-0.42,2.04-0.42,3.16-0.01
		c1.11,0.41,1.92,1.08,2.41,2.04s0.56,1.93,0.2,2.93c-0.36,1-1.06,1.67-2.08,2.02l0.95,0.35l-0.75,2.05l-12.67-4.61L1172.84,243.49z
		 M1180.46,244.19c-0.21,0.57-0.18,1.12,0.07,1.67c0.25,0.55,0.67,0.92,1.23,1.13c0.57,0.21,1.13,0.19,1.67-0.07
		c0.55-0.26,0.92-0.67,1.13-1.23c0.2-0.56,0.18-1.12-0.07-1.67c-0.25-0.55-0.65-0.93-1.22-1.14c-0.57-0.21-1.12-0.18-1.67,0.07
		C1181.04,243.21,1180.67,243.62,1180.46,244.19z"/>
	<path d="M1189.01,238.48l-0.75,2.05l-7.33-2.67l0.75-2.05l1.11,0.41c-0.72-0.83-0.91-1.71-0.57-2.62c0.11-0.29,0.27-0.57,0.51-0.83
		l1.8,0.98c-0.29,0.24-0.49,0.54-0.6,0.88c-0.43,1.17,0.09,2.03,1.56,2.56L1189.01,238.48z"/>
	<path d="M1189.75,226.08l-2,5.49c1.33,0.42,2.2,0.06,2.61-1.08c0.26-0.71,0.14-1.41-0.35-2.1l0.99-1.78
		c1.29,1.19,1.62,2.66,0.98,4.42c-0.44,1.2-1.14,2.02-2.11,2.48s-2.04,0.47-3.22,0.04s-2-1.12-2.45-2.08
		c-0.46-0.96-0.47-2.01-0.05-3.18c0.42-1.17,1.11-1.95,2.06-2.37c0.95-0.41,2.03-0.39,3.26,0.06L1189.75,226.08z M1186.47,231.03
		l1.26-3.47c-1.05-0.13-1.75,0.28-2.09,1.21C1185.32,229.67,1185.61,230.52,1186.47,231.03z"/>
</g>
<circle fill="#FFFFFF" stroke="#000000" stroke-width="6" stroke-miterlimit="10" cx="1290" cy="288" r="10"/>
<g>
	<path d="M1298.57,267.16l-11.28-4.11l1.18-3.23c0.6-1.64,1.53-2.83,2.77-3.56c0.75-0.45,1.57-0.71,2.46-0.79
		c0.89-0.08,1.75,0.04,2.6,0.35c0.84,0.31,1.58,0.78,2.22,1.42c0.64,0.64,1.1,1.38,1.39,2.22c0.49,1.34,0.44,2.84-0.16,4.5
		L1298.57,267.16z M1297.46,264.26l0.22-0.59c0.49-1.35,0.56-2.45,0.19-3.33c-0.39-1.01-1.31-1.86-2.4-2.26
		c-1.15-0.42-2.24-0.36-3.25,0.2c-0.86,0.45-1.53,1.34-2.01,2.67l-0.22,0.59L1297.46,264.26z"/>
	<path d="M1291.51,250.76l0.91-1.8l3.63,4.03l-0.65,1.24L1291.51,250.76z"/>
	<path d="M1294,244.62l11.28,4.11l-0.8,2.2l-11.28-4.11L1294,244.62z"/>
	<path d="M1294.18,239.81l6.29,2.29c-0.54-0.97-0.63-1.95-0.27-2.92c0.36-0.97,1.03-1.67,2.02-2.08c0.99-0.42,2.04-0.42,3.16-0.01
		c1.12,0.41,1.92,1.08,2.41,2.04c0.49,0.96,0.56,1.93,0.2,2.93c-0.36,1-1.06,1.67-2.08,2.02l0.95,0.35l-0.75,2.05l-12.67-4.61
		L1294.18,239.81z M1301.8,240.5c-0.21,0.57-0.18,1.12,0.07,1.67c0.25,0.55,0.67,0.92,1.23,1.13c0.57,0.21,1.13,0.19,1.67-0.07
		c0.55-0.26,0.92-0.67,1.13-1.23c0.21-0.56,0.18-1.12-0.07-1.67c-0.25-0.55-0.65-0.93-1.22-1.14c-0.57-0.21-1.12-0.18-1.67,0.07
		C1302.38,239.53,1302.01,239.94,1301.8,240.5z"/>
	<path d="M1308.9,228.43l-2,5.49c1.33,0.42,2.2,0.06,2.61-1.08c0.26-0.71,0.14-1.41-0.35-2.1l0.99-1.78
		c1.29,1.19,1.62,2.65,0.98,4.42c-0.44,1.2-1.14,2.02-2.11,2.48c-0.97,0.46-2.04,0.47-3.22,0.04c-1.18-0.43-2-1.12-2.45-2.08
		c-0.45-0.96-0.47-2.02-0.05-3.18s1.11-1.95,2.06-2.37c0.95-0.41,2.03-0.39,3.26,0.06L1308.9,228.43z M1305.62,233.38l1.26-3.47
		c-1.05-0.13-1.75,0.28-2.09,1.21C1304.46,232.03,1304.76,232.87,1305.62,233.38z"/>
	<path d="M1313.54,226.04l-0.75,2.05l-7.33-2.67l0.75-2.05l1.12,0.41c-0.72-0.83-0.91-1.71-0.57-2.62c0.11-0.29,0.27-0.57,0.51-0.83
		l1.8,0.98c-0.28,0.24-0.48,0.54-0.6,0.88c-0.43,1.17,0.09,2.03,1.56,2.56L1313.54,226.04z"/>
	<path d="M1308.36,217.48l4.85-0.42l-3.45-3.42l0.84-2.3l6.1,6.5l-0.34,0.92l-8.84,1.02L1308.36,217.48z"/>
	<path d="M1307.03,207.66c0.12-0.34,0.34-0.59,0.67-0.74s0.66-0.16,1-0.04c0.34,0.12,0.59,0.35,0.74,0.68
		c0.16,0.33,0.18,0.67,0.05,1.01c-0.12,0.34-0.35,0.58-0.68,0.74c-0.33,0.15-0.67,0.17-1.01,0.04c-0.34-0.12-0.59-0.36-0.74-0.69
		C1306.91,208.34,1306.91,208,1307.03,207.66z M1311.72,208.24l7.33,2.67l-0.74,2.04l-7.33-2.67L1311.72,208.24z"/>
	<path d="M1307.83,202.31l12.67,4.61l-0.75,2.05l-12.67-4.61L1307.83,202.31z"/>
	<path d="M1309.29,198.31l12.67,4.61l-0.75,2.05l-12.67-4.61L1309.29,198.31z"/>
	<path d="M1321.96,192.55l-2,5.49c1.33,0.42,2.2,0.06,2.61-1.08c0.26-0.71,0.14-1.41-0.35-2.1l0.99-1.78
		c1.29,1.19,1.62,2.66,0.98,4.42c-0.44,1.2-1.14,2.02-2.11,2.48c-0.97,0.46-2.04,0.47-3.22,0.04c-1.18-0.43-2-1.12-2.45-2.08
		c-0.45-0.96-0.47-2.01-0.05-3.18c0.42-1.16,1.11-1.95,2.06-2.37c0.95-0.41,2.03-0.39,3.26,0.06L1321.96,192.55z M1318.68,197.5
		l1.26-3.47c-1.05-0.13-1.75,0.28-2.09,1.21C1317.53,196.14,1317.82,196.99,1318.68,197.5z"/>
</g>
<circle fill="#FFFFFF" stroke="#000000" stroke-width="6" stroke-miterlimit="10" cx="1410" cy="288" r="10"/>
<g>
	<path d="M1410.93,262c0.32,0.12,0.63,0.1,0.91-0.07c0.29-0.17,0.75-0.62,1.4-1.39c0.65-0.76,1.22-1.28,1.71-1.55
		c0.81-0.47,1.73-0.5,2.8-0.11c1.06,0.39,1.81,1.07,2.23,2.04s0.43,2.04,0,3.22c-0.58,1.59-1.77,2.62-3.56,3.09l-0.85-1.92
		c1.19-0.16,1.98-0.77,2.36-1.81c0.18-0.5,0.19-0.98,0.01-1.42c-0.18-0.43-0.5-0.73-0.97-0.91c-0.47-0.17-0.91-0.11-1.35,0.19
		c-0.21,0.14-0.66,0.62-1.33,1.43s-1.33,1.34-1.94,1.6c-0.61,0.25-1.29,0.24-2.03-0.03c-0.95-0.35-1.61-0.96-1.99-1.86
		c-0.38-0.89-0.38-1.84-0.02-2.86c0.46-1.25,1.28-2.21,2.46-2.86l1.08,1.7c-0.81,0.31-1.34,0.81-1.57,1.5
		c-0.16,0.45-0.18,0.87-0.05,1.26C1410.37,261.63,1410.61,261.88,1410.93,262z"/>
	<path d="M1416.52,250.01l0.74-2.05l7.33,2.67l-0.75,2.05l-0.95-0.35c0.55,0.92,0.65,1.88,0.29,2.88c-0.36,1-1.04,1.71-2.04,2.12
		c-0.99,0.42-2.04,0.43-3.14,0.03c-1.1-0.4-1.9-1.09-2.41-2.04c-0.5-0.96-0.57-1.93-0.22-2.9c0.36-0.97,1.05-1.66,2.08-2.05
		L1416.52,250.01z M1417.46,252.42c-0.21,0.58-0.19,1.14,0.06,1.68c0.25,0.55,0.66,0.92,1.23,1.13c0.57,0.21,1.13,0.19,1.67-0.07
		c0.55-0.26,0.93-0.66,1.13-1.23c0.2-0.56,0.18-1.12-0.07-1.67c-0.25-0.55-0.66-0.92-1.23-1.13c-0.57-0.21-1.12-0.18-1.67,0.06
		C1418.04,251.44,1417.67,251.85,1417.46,252.42z"/>
	<path d="M1414.01,243.42c0.12-0.34,0.34-0.59,0.67-0.74c0.33-0.15,0.66-0.16,1-0.04c0.34,0.12,0.59,0.36,0.74,0.68
		c0.16,0.33,0.18,0.67,0.05,1.01s-0.35,0.58-0.68,0.74c-0.33,0.15-0.67,0.17-1.01,0.04c-0.34-0.12-0.59-0.36-0.74-0.69
		C1413.9,244.1,1413.89,243.76,1414.01,243.42z M1418.71,244l7.33,2.67l-0.74,2.04l-7.33-2.67L1418.71,244z"/>
	<path d="M1419.41,242.07l0.75-2.05l0.92,0.33c-0.61-0.93-0.67-1.72-0.31-2.71c0.33-0.9,0.88-1.5,1.65-1.81
		c0.58-0.23,1.32-0.17,2.24,0.16l4.65,1.69l-0.74,2.05l-4.06-1.48c-0.56-0.2-0.98-0.28-1.26-0.22c-0.47,0.07-0.8,0.4-1.01,0.99
		c-0.38,1.03,0.11,1.8,1.47,2.29l3.79,1.38l-0.75,2.05L1419.41,242.07z"/>
	<path d="M1425.21,231.64l5.55,2.02l-0.75,2.05l-5.55-2.02l-0.29,0.81l-1.78-0.65l0.29-0.81l-2.5-0.91l0.75-2.05l2.5,0.91l0.53-1.45
		l1.78,0.65L1425.21,231.64z"/>
	<path d="M1426.78,229.88l1.39-3.81l1.7,0.62l-1.39,3.81L1426.78,229.88z"/>
	<path d="M1433.15,227.11l-10.72-6.28l0.55-1.5l8.5-0.4l-6.21-5.88l0.55-1.52l12.17,2.3l-0.81,2.22l-7.32-1.51l5.98,5.67l-0.22,0.61
		l-8.2,0.41l6.54,3.66L1433.15,227.11z"/>
	<path d="M1427.31,206.89c0.12-0.34,0.35-0.58,0.67-0.74c0.33-0.15,0.66-0.16,1-0.04s0.59,0.35,0.74,0.68
		c0.16,0.33,0.18,0.67,0.05,1.01c-0.12,0.34-0.35,0.58-0.68,0.74s-0.67,0.17-1.01,0.04c-0.34-0.12-0.59-0.36-0.74-0.69
		C1427.19,207.57,1427.19,207.23,1427.31,206.89z M1432,207.47l7.33,2.67l-0.74,2.04l-7.33-2.67L1432,207.47z"/>
	<path d="M1436.94,200.86c-0.62,0.38-1.03,0.87-1.24,1.46c-0.21,0.59-0.2,1.14,0.04,1.69c0.24,0.54,0.66,0.92,1.25,1.14
		c0.6,0.22,1.15,0.2,1.69-0.07c0.54-0.26,0.91-0.69,1.13-1.28c0.22-0.59,0.22-1.22,0.01-1.89l1.99,0.72
		c0.09,0.71,0.01,1.39-0.22,2.04c-0.41,1.14-1.13,1.95-2.15,2.45c-1.02,0.5-2.08,0.54-3.18,0.14c-1.1-0.4-1.89-1.13-2.37-2.17
		c-0.47-1.04-0.5-2.14-0.09-3.28c0.24-0.67,0.62-1.23,1.12-1.7L1436.94,200.86z"/>
	<path d="M1429.99,196.37l0.74-2.05l6.29,2.29c-0.57-0.89-0.69-1.79-0.35-2.72c0.34-0.92,0.89-1.53,1.67-1.81
		c0.6-0.22,1.36-0.16,2.28,0.17l4.6,1.67l-0.75,2.05l-4.01-1.46c-0.59-0.21-1.01-0.29-1.3-0.24c-0.48,0.08-0.82,0.41-1.03,0.98
		c-0.38,1.03,0.12,1.8,1.5,2.3l3.76,1.37l-0.75,2.05L1429.99,196.37z"/>
	<path d="M1445.23,183.56l-2,5.49c1.33,0.42,2.2,0.06,2.61-1.08c0.26-0.71,0.14-1.41-0.35-2.1l0.99-1.78
		c1.29,1.19,1.62,2.65,0.98,4.42c-0.44,1.2-1.14,2.02-2.11,2.48c-0.97,0.46-2.04,0.47-3.22,0.04s-2-1.12-2.45-2.08
		c-0.46-0.96-0.47-2.01-0.05-3.18c0.42-1.17,1.11-1.95,2.06-2.37c0.95-0.41,2.03-0.39,3.26,0.06L1445.23,183.56z M1441.95,188.51
		l1.26-3.47c-1.05-0.13-1.75,0.28-2.09,1.21C1440.8,187.16,1441.09,188,1441.95,188.51z"/>
	<path d="M1437.22,176.51l12.67,4.61l-0.75,2.05l-12.67-4.61L1437.22,176.51z"/>
</g>
<g>
	<path fill="#9B9B9B" d="M692.26,327.22v2.95h-1.43v-7.34h2.12c0.83,0,1.46,0.17,1.87,0.52c0.48,0.4,0.73,0.96,0.73,1.65
		c0,0.7-0.22,1.23-0.66,1.62c-0.27,0.24-0.61,0.4-1.01,0.47l2.31,3.09h-1.76l-1.98-2.95H692.26z M692.26,326.21h0.42
		c0.91,0,1.4-0.41,1.4-1.12c0-0.74-0.46-1.1-1.38-1.1h-0.44V326.21z"/>
	<path fill="#9B9B9B" d="M700.42,325.4h1.33v4.76h-1.33v-0.62c-0.41,0.51-0.94,0.77-1.59,0.77s-1.2-0.24-1.64-0.72
		c-0.45-0.48-0.67-1.09-0.67-1.8s0.23-1.32,0.67-1.81c0.45-0.49,0.99-0.73,1.62-0.73s1.17,0.26,1.61,0.77V325.4z M699.24,326.45
		c-0.38,0-0.69,0.13-0.95,0.39c-0.26,0.26-0.39,0.57-0.39,0.95s0.13,0.69,0.39,0.95c0.26,0.26,0.57,0.39,0.94,0.39
		s0.68-0.13,0.95-0.39c0.26-0.26,0.39-0.57,0.39-0.94c0-0.37-0.13-0.68-0.38-0.95C699.93,326.58,699.61,326.45,699.24,326.45z"/>
	<path fill="#9B9B9B" d="M703.69,322.59c0.22,0,0.41,0.07,0.56,0.23s0.23,0.34,0.23,0.56c0,0.22-0.08,0.41-0.24,0.57
		c-0.16,0.16-0.35,0.24-0.57,0.24s-0.41-0.08-0.56-0.24s-0.24-0.35-0.24-0.57s0.08-0.41,0.24-0.57
		C703.27,322.66,703.46,322.59,703.69,322.59z M704.33,325.4v4.76h-1.33v-4.76H704.33z"/>
	<path fill="#9B9B9B" d="M706.92,321.93v8.24h-1.33v-8.24H706.92z"/>
	<path fill="#9B9B9B" d="M715.04,324.07h-2.45v1.63h2.3v1.24h-2.3v3.22h-1.43v-7.34h3.88V324.07z"/>
	<path fill="#9B9B9B" d="M719.61,325.4h1.33v4.76h-1.33v-0.62c-0.41,0.51-0.94,0.77-1.59,0.77s-1.2-0.24-1.64-0.72
		c-0.45-0.48-0.67-1.09-0.67-1.8s0.23-1.32,0.67-1.81c0.45-0.49,0.99-0.73,1.62-0.73s1.17,0.26,1.61,0.77V325.4z M718.42,326.45
		c-0.38,0-0.69,0.13-0.95,0.39c-0.26,0.26-0.39,0.57-0.39,0.95s0.13,0.69,0.39,0.95c0.26,0.26,0.57,0.39,0.94,0.39
		s0.68-0.13,0.95-0.39c0.26-0.26,0.39-0.57,0.39-0.94c0-0.37-0.13-0.68-0.38-0.95C719.11,326.58,718.79,326.45,718.42,326.45z"/>
	<path fill="#9B9B9B" d="M722.22,325.4h1.33v0.6c0.41-0.54,0.85-0.75,1.49-0.75c0.59,0,1.05,0.19,1.39,0.57
		c0.25,0.29,0.38,0.73,0.38,1.32v3.02h-1.33v-2.64c0-0.37-0.04-0.62-0.13-0.77c-0.14-0.25-0.4-0.38-0.78-0.38
		c-0.67,0-1.01,0.44-1.01,1.32v2.46h-1.33V325.4z"/>
	<path fill="#9B9B9B" d="M730.68,326.52c-0.28-0.21-0.52-0.32-0.71-0.32s-0.34,0.04-0.45,0.11c-0.1,0.08-0.15,0.18-0.15,0.29
		s0.05,0.2,0.15,0.27c0.1,0.07,0.34,0.17,0.71,0.3s0.65,0.26,0.83,0.39c0.35,0.24,0.53,0.6,0.53,1.08s-0.19,0.88-0.56,1.2
		c-0.38,0.32-0.86,0.48-1.44,0.48c-0.72,0-1.32-0.26-1.8-0.79l0.7-0.81c0.37,0.37,0.75,0.56,1.13,0.56c0.34,0,0.61-0.24,0.61-0.52
		c0-0.15-0.04-0.25-0.13-0.33c-0.09-0.07-0.33-0.18-0.71-0.32c-0.39-0.14-0.66-0.26-0.8-0.38c-0.32-0.22-0.47-0.55-0.47-0.99
		s0.16-0.81,0.48-1.09c0.32-0.28,0.75-0.42,1.28-0.42s1.03,0.17,1.49,0.51L730.68,326.52z"/>
	<path fill="#9B9B9B" d="M740.78,324.8c-0.56-0.55-1.17-0.83-1.82-0.83s-1.21,0.25-1.68,0.74c-0.47,0.49-0.7,1.1-0.7,1.81
		c0,0.71,0.23,1.31,0.7,1.79c0.46,0.48,1.04,0.71,1.73,0.71c0.34,0,0.65-0.06,0.92-0.18c0.27-0.12,0.55-0.33,0.84-0.62v1.68
		c-0.62,0.29-1.21,0.43-1.79,0.43c-1.08,0-2-0.37-2.75-1.1s-1.12-1.63-1.12-2.7c0-1.07,0.38-1.98,1.13-2.73s1.67-1.13,2.74-1.13
		c0.6,0,1.19,0.15,1.79,0.45V324.8z"/>
	<path fill="#9B9B9B" d="M745.54,325.4h1.33v4.76h-1.33v-0.62c-0.41,0.51-0.94,0.77-1.59,0.77s-1.2-0.24-1.64-0.72
		c-0.45-0.48-0.67-1.09-0.67-1.8s0.23-1.32,0.67-1.81c0.45-0.49,0.99-0.73,1.62-0.73s1.17,0.26,1.61,0.77V325.4z M744.35,326.45
		c-0.38,0-0.69,0.13-0.95,0.39c-0.26,0.26-0.39,0.57-0.39,0.95s0.13,0.69,0.39,0.95c0.26,0.26,0.57,0.39,0.94,0.39
		s0.68-0.13,0.95-0.39c0.26-0.26,0.39-0.57,0.39-0.94c0-0.37-0.13-0.68-0.38-0.95C745.04,326.58,744.72,326.45,744.35,326.45z"/>
	<path fill="#9B9B9B" d="M748.14,325.4h1.33v0.6c0.41-0.54,0.85-0.75,1.49-0.75c0.59,0,1.05,0.19,1.39,0.57
		c0.25,0.29,0.38,0.73,0.38,1.32v3.02h-1.33v-2.64c0-0.37-0.04-0.62-0.13-0.77c-0.14-0.25-0.4-0.38-0.78-0.38
		c-0.67,0-1.01,0.44-1.01,1.32v2.46h-1.33V325.4z"/>
	<path fill="#9B9B9B" d="M757.65,325.4h1.33v4.76h-1.33v-0.62c-0.41,0.51-0.94,0.77-1.59,0.77c-0.65,0-1.2-0.24-1.64-0.72
		c-0.45-0.48-0.67-1.09-0.67-1.8s0.23-1.32,0.67-1.81c0.45-0.49,0.99-0.73,1.62-0.73c0.63,0,1.17,0.26,1.61,0.77V325.4z
		 M756.47,326.45c-0.38,0-0.69,0.13-0.95,0.39c-0.26,0.26-0.39,0.57-0.39,0.95s0.13,0.69,0.39,0.95c0.26,0.26,0.58,0.39,0.94,0.39
		s0.68-0.13,0.95-0.39c0.26-0.26,0.39-0.57,0.39-0.94c0-0.37-0.13-0.68-0.38-0.95C757.15,326.58,756.84,326.45,756.47,326.45z"/>
	<path fill="#9B9B9B" d="M763.91,321.93h1.33v8.24h-1.33v-0.62c-0.41,0.51-0.94,0.77-1.59,0.77s-1.2-0.24-1.64-0.72
		c-0.45-0.48-0.67-1.09-0.67-1.8s0.23-1.32,0.67-1.81c0.45-0.49,0.99-0.73,1.62-0.73s1.17,0.26,1.61,0.77V321.93z M762.72,326.45
		c-0.38,0-0.69,0.13-0.95,0.39c-0.26,0.26-0.39,0.57-0.39,0.95s0.13,0.69,0.39,0.95c0.26,0.26,0.57,0.39,0.94,0.39
		s0.68-0.13,0.95-0.39c0.26-0.26,0.39-0.57,0.39-0.94c0-0.37-0.13-0.68-0.38-0.95C763.41,326.58,763.09,326.45,762.72,326.45z"/>
	<path fill="#9B9B9B" d="M770.21,325.4h1.33v4.76h-1.33v-0.62c-0.41,0.51-0.94,0.77-1.59,0.77c-0.65,0-1.2-0.24-1.64-0.72
		c-0.45-0.48-0.67-1.09-0.67-1.8s0.23-1.32,0.67-1.81c0.45-0.49,0.99-0.73,1.62-0.73c0.63,0,1.17,0.26,1.61,0.77V325.4z
		 M769.02,326.45c-0.38,0-0.69,0.13-0.95,0.39c-0.26,0.26-0.39,0.57-0.39,0.95s0.13,0.69,0.39,0.95c0.26,0.26,0.57,0.39,0.94,0.39
		s0.68-0.13,0.95-0.39c0.26-0.26,0.39-0.57,0.39-0.94c0-0.37-0.13-0.68-0.38-0.95C769.71,326.58,769.39,326.45,769.02,326.45z"/>
	<path fill="#9B9B9B" d="M774.93,327.09h7.4v1.11h-7.4V327.09z"/>
	<path fill="#9B9B9B" d="M790.6,328.93v1.24h-5.33l2.17-2.46c0.67-0.76,1.11-1.33,1.34-1.69c0.23-0.36,0.34-0.7,0.34-1.01
		c0-0.31-0.11-0.58-0.32-0.79c-0.22-0.21-0.49-0.32-0.8-0.32c-0.32,0-0.58,0.11-0.76,0.32c-0.19,0.21-0.29,0.51-0.31,0.89h-1.53
		c0.05-0.76,0.31-1.36,0.77-1.81c0.46-0.45,1.06-0.67,1.8-0.67c0.74,0,1.35,0.23,1.85,0.67c0.49,0.45,0.74,1.04,0.74,1.76
		s-0.45,1.56-1.33,2.5l-1.28,1.35H790.6z"/>
	<path fill="#9B9B9B" d="M794.45,322.64c0.83,0,1.52,0.38,2.07,1.12c0.5,0.7,0.76,1.62,0.76,2.73s-0.25,2.03-0.76,2.74
		c-0.52,0.7-1.29,1.12-2.08,1.12c-0.85,0-1.54-0.37-2.06-1.1s-0.78-1.65-0.78-2.78s0.25-2.02,0.76-2.72
		C792.92,323.02,793.61,322.64,794.45,322.64z M794.44,323.91c-0.41,0-0.75,0.24-1.02,0.72c-0.27,0.48-0.4,1.1-0.4,1.86
		c0,0.76,0.13,1.38,0.4,1.87c0.26,0.49,0.61,0.73,1.02,0.73c0.41,0,0.76-0.24,1.02-0.72c0.26-0.48,0.39-1.11,0.39-1.86
		c0-0.76-0.13-1.38-0.4-1.86S794.85,323.91,794.44,323.91z"/>
	<path fill="#9B9B9B" d="M803.07,328.93v1.24h-5.33l2.16-2.46c0.67-0.76,1.11-1.33,1.34-1.69c0.23-0.36,0.34-0.7,0.34-1.01
		c0-0.31-0.11-0.58-0.32-0.79c-0.22-0.21-0.49-0.32-0.81-0.32c-0.32,0-0.57,0.11-0.76,0.32c-0.19,0.21-0.3,0.51-0.31,0.89h-1.53
		c0.05-0.76,0.31-1.36,0.77-1.81c0.46-0.45,1.06-0.67,1.8-0.67c0.74,0,1.35,0.23,1.85,0.67c0.49,0.45,0.74,1.04,0.74,1.76
		s-0.45,1.56-1.33,2.5l-1.28,1.35H803.07z"/>
	<path fill="#9B9B9B" d="M809.02,326.04c0.44,0.47,0.66,1.06,0.66,1.79s-0.26,1.33-0.77,1.8c-0.52,0.48-1.19,0.72-2,0.72
		s-1.49-0.24-2.01-0.71c-0.52-0.47-0.79-1.07-0.79-1.81s0.31-1.51,0.92-2.32l2.23-2.98l1.02,0.76l-1.74,2.23
		c0.31-0.12,0.6-0.19,0.86-0.19C808.04,325.34,808.58,325.57,809.02,326.04z M806.91,326.48c-0.38,0-0.7,0.13-0.97,0.39
		c-0.26,0.26-0.4,0.59-0.4,0.98s0.13,0.71,0.4,0.97s0.59,0.4,0.96,0.4s0.69-0.13,0.96-0.4s0.39-0.58,0.39-0.97s-0.13-0.7-0.38-0.97
		C807.61,326.62,807.29,326.48,806.91,326.48z"/>
</g>
<g>
	<path d="M17.39,54.67V25.33h7.26c3.31,0,5.69,0.58,7.15,1.76c1.76,1.38,2.64,3.37,2.64,5.97c0,1.61-0.37,3.01-1.1,4.19
		c-0.41,0.56-1.12,1.14-2.11,1.76c1.76,0.39,3.03,1.01,3.82,1.85c1.4,1.4,2.11,3.29,2.11,5.67s-0.86,4.34-2.56,5.87
		s-4.15,2.28-7.35,2.28H17.39z M23.11,37.55h1.63c2.96,0,4.45-1.27,4.45-3.8s-1.46-3.8-4.36-3.8h-1.72V37.55z M23.11,50.05h2.47
		c3.8,0,5.71-1.35,5.71-4.04c0-1.48-0.58-2.58-1.72-3.27c-0.84-0.56-2.28-0.84-4.32-0.84h-2.15V50.05z"/>
	<path d="M46.96,21.72v32.96h-5.33V21.72H46.96z"/>
	<path d="M57.38,35.62V46.4c0,2.9,1.29,4.36,3.89,4.36s3.89-1.46,3.89-4.36V35.62h5.33v11.67c0,5.16-3.27,8.01-9.2,8.01
		s-9.24-2.86-9.24-8.01V35.62H57.38z"/>
	<path d="M94.31,46.02H80.02c0.15,3.42,1.7,5.11,4.66,5.09c1.85,0,3.35-0.86,4.53-2.56l4.92,0.79c-1.65,3.95-4.75,5.93-9.32,5.95
		c-3.12,0-5.59-0.92-7.46-2.77s-2.79-4.3-2.79-7.37s0.9-5.52,2.73-7.37s4.23-2.77,7.26-2.77s5.41,0.92,7.15,2.75s2.6,4.34,2.6,7.54
		V46.02z M80.19,42.62h9.02c-0.58-2.51-2.11-3.78-4.53-3.78C82.34,38.84,80.64,40.21,80.19,42.62z"/>
	<path d="M115.9,25.33v24.38h9.02v4.96h-14.74V25.33H115.9z"/>
	<path d="M130.83,24.36c0.88,0,1.63,0.3,2.26,0.92s0.92,1.38,0.92,2.26s-0.32,1.65-0.95,2.28c-0.62,0.64-1.4,0.97-2.28,0.97
		s-1.63-0.32-2.26-0.95s-0.95-1.4-0.95-2.28s0.32-1.65,0.97-2.28C129.18,24.66,129.95,24.36,130.83,24.36z M133.43,35.62v19.06
		h-5.31V35.62H133.43z"/>
	<path d="M138.46,35.62h5.33V38c1.63-2.17,3.39-2.99,5.97-2.99c2.34,0,4.19,0.75,5.54,2.28c1.01,1.14,1.5,2.9,1.5,5.29v12.1h-5.33
		V44.1c0-1.46-0.17-2.49-0.54-3.07c-0.56-1.01-1.59-1.5-3.12-1.5c-2.69,0-4.04,1.76-4.04,5.29v9.86h-5.33V35.62z"/>
	<path d="M180.63,46.02h-14.29c0.15,3.42,1.7,5.11,4.66,5.09c1.85,0,3.35-0.86,4.53-2.56l4.92,0.79c-1.65,3.95-4.75,5.93-9.32,5.95
		c-3.12,0-5.59-0.92-7.46-2.77s-2.79-4.3-2.79-7.37s0.9-5.52,2.73-7.37s4.23-2.77,7.26-2.77s5.41,0.92,7.15,2.75s2.6,4.34,2.6,7.54
		V46.02z M166.52,42.62h9.02c-0.58-2.51-2.11-3.78-4.53-3.78C168.67,38.84,166.97,40.21,166.52,42.62z"/>
	<path d="M202.07,51.6c0.62,3.24,1.5,5.99,2.62,8.23l-4.28,2.32c-1.27-2.41-2.19-4.9-2.77-7.48c-1.05-4.4-1.59-8.85-1.59-13.34
		c0-8.04,1.46-14.82,4.36-20.37l4.28,2.34c-2.38,5.07-3.57,11.15-3.57,18.22C201.13,44.98,201.45,48.36,202.07,51.6z"/>
	<path d="M211.16,35.62h5.33V38c1.63-2.17,3.39-2.99,5.97-2.99c2.34,0,4.19,0.75,5.54,2.28c1.01,1.14,1.5,2.9,1.5,5.29v12.1h-5.33
		V44.1c0-1.46-0.17-2.49-0.54-3.07c-0.56-1.01-1.59-1.5-3.12-1.5c-2.69,0-4.04,1.76-4.04,5.29v9.86h-5.33V35.62z"/>
	<path d="M249.21,35.62h5.33v19.06h-5.33V52.2c-1.65,2.04-3.76,3.07-6.36,3.07s-4.79-0.97-6.57-2.9s-2.69-4.34-2.69-7.2
		s0.9-5.29,2.69-7.24s3.95-2.92,6.49-2.92s4.68,1.03,6.45,3.07V35.62z M244.46,39.81c-1.5,0-2.77,0.52-3.8,1.55
		c-1.05,1.03-1.57,2.3-1.57,3.78s0.52,2.75,1.57,3.78c1.05,1.05,2.3,1.57,3.76,1.57s2.73-0.52,3.78-1.57
		c1.05-1.03,1.57-2.28,1.57-3.76s-0.52-2.73-1.53-3.78C247.21,40.32,245.95,39.81,244.46,39.81z"/>
	<path d="M263.67,31.56c-0.62-3.24-1.5-5.99-2.62-8.25l4.25-2.34c1.27,2.41,2.19,4.9,2.77,7.48c1.05,4.4,1.59,8.85,1.59,13.34
		c0,8.04-1.46,14.82-4.36,20.37l-4.25-2.32c2.38-5.09,3.57-11.17,3.57-18.22C264.62,38.17,264.29,34.82,263.67,31.56z"/>
</g>
</svg>
