<?xml version="1.0" encoding="iso-8859-1"?>
<!-- Generator: Adobe Illustrator 29.8.4, SVG Export Plug-In . SVG Version: 9.03 Build 0)  -->
<svg version="1.1" id="Layer_1" xmlns="http://www.w3.org/2000/svg" xmlns:xlink="http://www.w3.org/1999/xlink" x="0px" y="0px"
	 viewBox="0 0 1600 263" enable-background="new 0 0 1600 263" xml:space="preserve">
<rect id="bg-white" fill="#FFFFFF" width="1600" height="263"/>
<line fill="none" stroke="#834187" stroke-width="8" stroke-linecap="round" stroke-miterlimit="10" x1="100" y1="228" x2="1500" y2="228"/>
<circle fill="#FFFFFF" stroke="#000000" stroke-width="3" stroke-miterlimit="10" cx="100" cy="228" r="10"/>
<g>
	<path d="M97.41,209.41c0.31,0.08,0.6,0.04,0.85-0.14c0.26-0.18,0.66-0.65,1.21-1.42c0.55-0.77,1.04-1.3,1.49-1.6
		c0.72-0.5,1.59-0.61,2.62-0.34s1.79,0.86,2.27,1.73c0.48,0.88,0.57,1.89,0.26,3.03c-0.42,1.55-1.45,2.61-3.09,3.2l-0.96-1.74
		c1.11-0.25,1.8-0.88,2.07-1.9c0.13-0.49,0.1-0.94-0.11-1.33c-0.21-0.39-0.53-0.65-0.99-0.77c-0.46-0.12-0.87-0.03-1.25,0.29
		c-0.19,0.15-0.57,0.64-1.14,1.46c-0.57,0.82-1.14,1.37-1.69,1.66s-1.19,0.33-1.91,0.14c-0.92-0.25-1.6-0.77-2.02-1.58
		s-0.51-1.7-0.25-2.69c0.33-1.22,1.02-2.18,2.08-2.9l1.16,1.51c-0.73,0.36-1.19,0.88-1.36,1.54c-0.12,0.44-0.1,0.83,0.06,1.19
		C96.86,209.11,97.1,209.33,97.41,209.41z"/>
	<path d="M95.03,201.73l0.53-1.99l6.11,1.64c-0.61-0.79-0.79-1.63-0.55-2.53c0.24-0.9,0.71-1.51,1.42-1.84
		c0.55-0.26,1.26-0.26,2.16-0.02l4.47,1.2l-0.53,1.99l-3.89-1.04c-0.57-0.15-0.98-0.19-1.24-0.12c-0.44,0.11-0.74,0.46-0.89,1.01
		c-0.27,1,0.26,1.69,1.6,2.04l3.65,0.98l-0.53,1.99L95.03,201.73z"/>
	<path d="M108.32,188.42l-1.43,5.33c1.29,0.29,2.08-0.12,2.37-1.23c0.18-0.69,0.01-1.34-0.5-1.95l0.79-1.76
		c1.31,1.01,1.74,2.37,1.29,4.07c-0.31,1.16-0.9,1.99-1.78,2.5c-0.88,0.51-1.88,0.61-3.03,0.31c-1.15-0.31-1.97-0.89-2.48-1.75
		c-0.51-0.87-0.61-1.86-0.31-2.99c0.3-1.13,0.89-1.93,1.74-2.4c0.86-0.47,1.88-0.54,3.08-0.22L108.32,188.42z M105.64,193.35
		l0.9-3.37c-1-0.04-1.62,0.41-1.87,1.31C104.44,192.17,104.79,192.94,105.64,193.35z"/>
	<path d="M116.28,186.81l-0.53,1.99l-10.9-2.92l0.53-1.99l0.92,0.25c-0.6-0.82-0.77-1.71-0.51-2.67c0.26-0.96,0.84-1.68,1.74-2.16
		c0.9-0.48,1.89-0.58,2.96-0.29c1.08,0.29,1.88,0.87,2.43,1.73c0.55,0.86,0.7,1.77,0.44,2.71c-0.25,0.94-0.85,1.64-1.8,2.1
		L116.28,186.81z M107.41,182.53c-0.15,0.55-0.08,1.07,0.2,1.57c0.28,0.5,0.7,0.82,1.25,0.96c0.55,0.15,1.08,0.08,1.57-0.21
		c0.5-0.29,0.82-0.7,0.96-1.25c0.15-0.54,0.08-1.07-0.21-1.57c-0.28-0.5-0.69-0.82-1.24-0.97c-0.55-0.15-1.07-0.08-1.57,0.21
		C107.88,181.56,107.56,181.97,107.41,182.53z"/>
	<path d="M118.78,177.47l-0.53,1.99l-10.9-2.92l0.53-1.99l0.92,0.25c-0.6-0.82-0.77-1.71-0.51-2.67c0.26-0.96,0.84-1.68,1.74-2.16
		c0.9-0.48,1.89-0.58,2.96-0.29c1.08,0.29,1.88,0.87,2.43,1.73c0.55,0.86,0.7,1.77,0.44,2.71c-0.25,0.94-0.85,1.65-1.8,2.1
		L118.78,177.47z M109.92,173.19c-0.15,0.55-0.08,1.07,0.2,1.57c0.28,0.5,0.7,0.82,1.25,0.96c0.55,0.15,1.08,0.08,1.57-0.21
		c0.5-0.29,0.82-0.7,0.96-1.25c0.15-0.54,0.08-1.07-0.21-1.57c-0.28-0.5-0.69-0.82-1.24-0.97c-0.55-0.15-1.07-0.08-1.57,0.21
		C110.38,172.22,110.07,172.63,109.92,173.19z"/>
	<path d="M111.31,161.74l0.53-1.99l7.11,1.91l-0.53,1.99l-0.92-0.25c0.6,0.82,0.77,1.71,0.51,2.68c-0.26,0.97-0.84,1.69-1.74,2.16
		c-0.9,0.47-1.89,0.57-2.95,0.28c-1.07-0.29-1.88-0.87-2.43-1.73c-0.55-0.86-0.7-1.77-0.44-2.71c0.25-0.95,0.85-1.65,1.79-2.1
		L111.31,161.74z M112.4,163.93c-0.15,0.56-0.08,1.09,0.2,1.57c0.28,0.5,0.7,0.82,1.25,0.96s1.08,0.08,1.57-0.21
		c0.5-0.29,0.81-0.7,0.96-1.25c0.15-0.55,0.08-1.07-0.21-1.57c-0.28-0.5-0.69-0.81-1.25-0.96c-0.55-0.15-1.07-0.08-1.56,0.19
		C112.86,162.96,112.54,163.38,112.4,163.93z"/>
	<path d="M119.99,157.77l-0.53,1.99l-7.11-1.91l0.53-1.99l1.08,0.29c-0.74-0.72-1-1.53-0.75-2.42c0.08-0.28,0.21-0.55,0.41-0.82
		l1.78,0.78c-0.25,0.25-0.41,0.54-0.49,0.88c-0.31,1.14,0.25,1.9,1.67,2.28L119.99,157.77z"/>
	<path d="M110.19,145.17l0.53-1.99l12.3,3.3l-0.53,1.99l-0.92-0.25c0.6,0.82,0.77,1.71,0.51,2.68c-0.26,0.97-0.84,1.69-1.74,2.16
		c-0.9,0.47-1.89,0.57-2.95,0.28c-1.07-0.29-1.88-0.87-2.43-1.73c-0.55-0.86-0.7-1.77-0.44-2.71c0.25-0.95,0.85-1.64,1.79-2.1
		L110.19,145.17z M116.47,148.75c-0.15,0.56-0.08,1.09,0.2,1.57c0.28,0.5,0.7,0.82,1.25,0.96c0.55,0.15,1.08,0.08,1.57-0.21
		c0.5-0.29,0.82-0.7,0.96-1.25c0.15-0.54,0.08-1.07-0.21-1.57c-0.28-0.5-0.69-0.81-1.25-0.96c-0.55-0.15-1.07-0.08-1.56,0.19
		C116.93,147.77,116.61,148.2,116.47,148.75z"/>
	<path d="M118.68,144.3l0.99-3.7l1.65,0.44l-0.99,3.7L118.68,144.3z"/>
	<path d="M125.71,136.45l-0.57,2.13l-5.03-1.35l-6.94,2.19l0.68-2.53l4.44-1.34l-3.19-3.34l0.68-2.54l4.9,5.43L125.71,136.45z"/>
	<path d="M120.31,127.23c0.32-1.2,0.93-2.07,1.83-2.63s1.91-0.69,3.03-0.39c1.12,0.3,1.94,0.92,2.43,1.86
		c0.49,0.95,0.58,2.02,0.26,3.23c-0.32,1.21-0.94,2.08-1.86,2.64s-1.92,0.68-3.03,0.38c-1.11-0.3-1.92-0.93-2.41-1.88
		C120.08,129.5,119.99,128.42,120.31,127.23z M122.1,127.73c-0.15,0.55-0.08,1.08,0.2,1.57c0.28,0.5,0.7,0.82,1.25,0.97
		c0.55,0.15,1.08,0.08,1.57-0.21c0.5-0.29,0.82-0.71,0.97-1.26c0.15-0.55,0.08-1.09-0.2-1.58c-0.28-0.5-0.69-0.81-1.25-0.96
		c-0.55-0.15-1.07-0.08-1.57,0.21C122.56,126.76,122.25,127.18,122.1,127.73z"/>
	<path d="M122.03,121.73l0.53-1.99l0.89,0.24c-0.65-0.83-0.78-1.57-0.52-2.53c0.23-0.87,0.7-1.49,1.41-1.84
		c0.53-0.26,1.23-0.27,2.12-0.03l4.51,1.21l-0.53,1.99l-3.94-1.06c-0.54-0.15-0.95-0.19-1.2-0.11c-0.43,0.11-0.72,0.44-0.87,1.01
		c-0.27,1,0.25,1.68,1.57,2.04l3.68,0.99l-0.53,1.99L122.03,121.73z"/>
	<path d="M126.36,105.56l6.85,1.83c0.73,0.2,1.28,0.4,1.66,0.62c0.37,0.23,0.69,0.54,0.95,0.93c0.65,0.92,0.79,2.07,0.42,3.44
		c-0.37,1.37-1.17,2.28-2.4,2.73c-0.52,0.19-1.04,0.24-1.57,0.16l0.58-2.17c0.91,0.03,1.48-0.41,1.73-1.32
		c0.14-0.54,0.09-1.03-0.16-1.47c-0.23-0.38-0.69-0.66-1.36-0.85l-1.07-0.29c0.32,0.49,0.53,0.94,0.62,1.35
		c0.08,0.42,0.06,0.87-0.08,1.38c-0.26,0.97-0.82,1.69-1.69,2.14c-0.87,0.46-1.85,0.54-2.94,0.24c-1.1-0.29-1.93-0.87-2.48-1.72
		s-0.71-1.76-0.45-2.72s0.86-1.65,1.79-2.07l-0.92-0.25L126.36,105.56z M126.93,109.71c-0.15,0.55-0.08,1.07,0.2,1.57
		c0.28,0.5,0.7,0.82,1.25,0.96s1.08,0.08,1.57-0.21c0.5-0.29,0.82-0.7,0.96-1.25c0.15-0.55,0.08-1.07-0.21-1.57
		c-0.28-0.5-0.69-0.81-1.25-0.96c-0.55-0.15-1.07-0.08-1.57,0.2C127.39,108.74,127.07,109.16,126.93,109.71z"/>
	<path d="M132.64,97.64l-1.43,5.33c1.29,0.29,2.08-0.12,2.37-1.23c0.18-0.69,0.01-1.34-0.5-1.95l0.79-1.76
		c1.31,1.01,1.74,2.36,1.29,4.07c-0.31,1.16-0.9,1.99-1.78,2.5c-0.88,0.51-1.88,0.61-3.03,0.31c-1.15-0.31-1.97-0.89-2.48-1.75
		s-0.61-1.86-0.31-2.99c0.3-1.13,0.89-1.93,1.74-2.4c0.86-0.47,1.88-0.54,3.08-0.22L132.64,97.64z M129.97,102.57l0.9-3.37
		c-1-0.04-1.62,0.41-1.87,1.31C128.77,101.39,129.11,102.16,129.97,102.57z"/>
</g>
<circle fill="#FFFFFF" stroke="#000000" stroke-width="3" stroke-miterlimit="10" cx="450" cy="228" r="10"/>
<g>
	<path d="M455.03,213.63l-10.95-2.93l0.73-2.71c0.33-1.23,0.79-2.07,1.37-2.49c0.69-0.52,1.52-0.65,2.49-0.39
		c0.6,0.16,1.09,0.44,1.45,0.83c0.17,0.21,0.31,0.53,0.45,0.96c0.32-0.62,0.68-1.03,1.07-1.24c0.66-0.38,1.44-0.46,2.33-0.22
		c0.89,0.24,1.53,0.76,1.93,1.54c0.4,0.79,0.43,1.78,0.11,2.97L455.03,213.63z M449.21,209.79l0.16-0.61
		c0.3-1.11-0.03-1.79-0.98-2.04c-0.95-0.25-1.57,0.16-1.86,1.25l-0.17,0.64L449.21,209.79z M453.87,211.04l0.25-0.92
		c0.38-1.42,0.07-2.27-0.94-2.54c-0.55-0.15-1.02-0.04-1.39,0.32c-0.29,0.26-0.54,0.77-0.74,1.53l-0.21,0.8L453.87,211.04z"/>
	<path d="M451.8,197.23l0.53-1.99l7.11,1.91l-0.53,1.99l-0.92-0.25c0.6,0.82,0.77,1.71,0.51,2.68c-0.26,0.97-0.84,1.69-1.74,2.16
		c-0.9,0.47-1.89,0.57-2.95,0.28c-1.07-0.29-1.88-0.87-2.43-1.73c-0.55-0.86-0.7-1.77-0.44-2.71c0.25-0.95,0.85-1.65,1.79-2.1
		L451.8,197.23z M452.89,199.42c-0.15,0.56-0.08,1.09,0.2,1.57c0.28,0.5,0.7,0.82,1.25,0.96s1.08,0.08,1.57-0.21
		c0.5-0.29,0.81-0.7,0.96-1.25c0.15-0.55,0.08-1.07-0.21-1.57c-0.28-0.5-0.69-0.81-1.25-0.96c-0.55-0.15-1.07-0.08-1.56,0.19
		C453.36,198.45,453.04,198.87,452.89,199.42z"/>
	<path d="M459.53,192.51l-6.93,1.75l0.62-2.32l4.61-1.05l-3.5-3.1l0.61-2.29l9.36,8.67l-0.6,2.25L459.53,192.51z"/>
	<path d="M455.54,183.25l4.53-0.79l-3.53-2.93l0.6-2.24l6.28,5.61l-0.24,0.9l-8.23,1.69L455.54,183.25z"/>
	<path d="M453.49,174.12c0.09-0.33,0.28-0.58,0.57-0.75c0.29-0.17,0.61-0.21,0.93-0.12c0.33,0.09,0.58,0.29,0.76,0.58
		c0.18,0.3,0.22,0.62,0.13,0.95c-0.09,0.33-0.28,0.58-0.58,0.75c-0.29,0.17-0.62,0.21-0.95,0.12c-0.33-0.09-0.58-0.29-0.75-0.59
		C453.44,174.77,453.4,174.45,453.49,174.12z M457.95,174.28l7.11,1.91l-0.53,1.98l-7.11-1.91L457.95,174.28z"/>
	<path d="M464.21,166.45l-1.43,5.33c1.29,0.29,2.08-0.12,2.37-1.23c0.18-0.69,0.01-1.34-0.5-1.95l0.79-1.76
		c1.31,1.01,1.74,2.36,1.29,4.08c-0.31,1.16-0.9,1.99-1.78,2.5c-0.88,0.51-1.88,0.61-3.03,0.31c-1.15-0.31-1.97-0.89-2.48-1.76
		s-0.61-1.86-0.31-2.99c0.3-1.13,0.89-1.93,1.74-2.39c0.86-0.47,1.88-0.54,3.08-0.22L464.21,166.45z M461.53,171.38l0.9-3.37
		c-1-0.04-1.62,0.41-1.87,1.31C460.33,170.2,460.68,170.97,461.53,171.38z"/>
	<path d="M460.99,162.93l4.61-0.77l-3.78-3.09l0.23-0.85l4.88-0.77l-3.66-3.02l0.6-2.22l6.27,5.62l-0.24,0.9l-4.83,0.77l3.81,3.05
		l-0.25,0.91l-8.23,1.7L460.99,162.93z"/>
</g>
<circle fill="#FFFFFF" stroke="#000000" stroke-width="3" stroke-miterlimit="10" cx="800" cy="228" r="10"/>
<g>
	<path d="M805.03,213.63l-10.95-2.93l0.73-2.71c0.33-1.23,0.79-2.07,1.37-2.49c0.69-0.52,1.52-0.65,2.49-0.39
		c0.6,0.16,1.09,0.44,1.45,0.83c0.17,0.21,0.31,0.53,0.45,0.96c0.32-0.62,0.68-1.03,1.07-1.24c0.66-0.38,1.44-0.46,2.33-0.22
		c0.89,0.24,1.53,0.76,1.93,1.54c0.4,0.79,0.43,1.78,0.11,2.97L805.03,213.63z M799.21,209.79l0.16-0.61
		c0.3-1.11-0.03-1.79-0.98-2.04c-0.95-0.25-1.57,0.16-1.86,1.25l-0.17,0.64L799.21,209.79z M803.87,211.04l0.25-0.92
		c0.38-1.42,0.07-2.27-0.94-2.54c-0.55-0.15-1.02-0.04-1.39,0.32c-0.29,0.26-0.54,0.77-0.74,1.53l-0.21,0.8L803.87,211.04z"/>
	<path d="M806.09,196.73l-1.43,5.33c1.29,0.29,2.08-0.12,2.37-1.23c0.18-0.69,0.01-1.34-0.5-1.95l0.79-1.76
		c1.31,1.01,1.74,2.37,1.29,4.08c-0.31,1.16-0.9,1.99-1.78,2.5c-0.88,0.51-1.88,0.61-3.03,0.31c-1.15-0.31-1.97-0.89-2.48-1.75
		c-0.51-0.87-0.61-1.86-0.31-2.99c0.3-1.13,0.89-1.93,1.74-2.4c0.86-0.47,1.88-0.54,3.08-0.22L806.09,196.73z M803.41,201.66
		l0.9-3.37c-1-0.04-1.62,0.41-1.86,1.31C802.22,200.48,802.56,201.25,803.41,201.66z"/>
	<path d="M805.29,190.85c-0.42,0.33-0.68,0.64-0.76,0.94c-0.08,0.3-0.08,0.53-0.01,0.71c0.08,0.18,0.21,0.3,0.37,0.34
		s0.32,0.01,0.47-0.12c0.15-0.12,0.38-0.44,0.72-0.94c0.34-0.5,0.64-0.87,0.92-1.08c0.5-0.42,1.11-0.54,1.82-0.35
		c0.71,0.19,1.24,0.63,1.56,1.31c0.33,0.69,0.38,1.48,0.14,2.35c-0.29,1.07-0.92,1.87-1.91,2.38l-0.93-1.37
		c0.7-0.4,1.13-0.89,1.29-1.46c0.13-0.5-0.11-1-0.54-1.12c-0.22-0.06-0.39-0.04-0.54,0.07c-0.14,0.11-0.39,0.42-0.76,0.94
		c-0.36,0.52-0.66,0.87-0.88,1.04c-0.46,0.39-1.01,0.49-1.67,0.31c-0.67-0.18-1.14-0.56-1.43-1.16c-0.3-0.59-0.33-1.28-0.12-2.09
		s0.67-1.47,1.36-2.02L805.29,190.85z"/>
	<path d="M807.05,184.25c-0.42,0.33-0.68,0.64-0.76,0.94s-0.08,0.53-0.01,0.71c0.08,0.18,0.21,0.3,0.37,0.34s0.32,0.01,0.47-0.12
		c0.14-0.12,0.38-0.44,0.72-0.94s0.65-0.87,0.92-1.08c0.5-0.42,1.11-0.54,1.82-0.35c0.71,0.19,1.24,0.63,1.56,1.31
		c0.33,0.69,0.38,1.48,0.14,2.35c-0.29,1.07-0.92,1.87-1.91,2.38l-0.93-1.37c0.7-0.41,1.13-0.89,1.28-1.46
		c0.14-0.5-0.11-1-0.54-1.11c-0.22-0.06-0.39-0.04-0.54,0.07c-0.14,0.11-0.4,0.42-0.76,0.94c-0.36,0.52-0.65,0.87-0.88,1.04
		c-0.46,0.38-1.01,0.49-1.67,0.31c-0.67-0.18-1.14-0.56-1.43-1.16c-0.3-0.59-0.33-1.28-0.12-2.09s0.67-1.47,1.36-2.02L807.05,184.25
		z"/>
	<path d="M807.6,175.58l0.53-1.99l7.11,1.91l-0.53,1.99l-0.92-0.25c0.6,0.82,0.77,1.71,0.51,2.68c-0.26,0.97-0.84,1.69-1.74,2.16
		c-0.9,0.47-1.89,0.57-2.95,0.28c-1.07-0.29-1.88-0.87-2.43-1.73c-0.55-0.86-0.7-1.77-0.44-2.71c0.25-0.95,0.85-1.65,1.79-2.1
		L807.6,175.58z M808.69,177.77c-0.15,0.56-0.08,1.09,0.2,1.57c0.28,0.5,0.7,0.82,1.25,0.96s1.08,0.08,1.57-0.21
		c0.5-0.29,0.81-0.7,0.96-1.25c0.15-0.55,0.08-1.07-0.21-1.57c-0.28-0.5-0.69-0.81-1.25-0.96c-0.55-0.15-1.07-0.08-1.56,0.19
		C809.16,176.8,808.84,177.22,808.69,177.77z"/>
	<path d="M816.29,171.61l-0.53,1.99l-7.11-1.91l0.53-1.99l1.08,0.29c-0.74-0.72-1-1.53-0.75-2.42c0.08-0.28,0.21-0.55,0.41-0.82
		l1.78,0.78c-0.25,0.25-0.41,0.54-0.49,0.88c-0.3,1.14,0.26,1.9,1.68,2.28L816.29,171.61z"/>
	<path d="M806.31,163.6c0.09-0.33,0.28-0.58,0.57-0.75c0.29-0.17,0.61-0.21,0.93-0.12c0.33,0.09,0.58,0.29,0.76,0.58
		c0.18,0.3,0.22,0.62,0.13,0.95s-0.28,0.58-0.58,0.75s-0.62,0.21-0.94,0.12c-0.33-0.09-0.59-0.29-0.75-0.59
		C806.25,164.25,806.22,163.93,806.31,163.6z M810.77,163.76l7.11,1.91l-0.53,1.98l-7.11-1.91L810.77,163.76z"/>
	<path d="M812.04,158.11c0.32-1.2,0.93-2.07,1.83-2.63s1.91-0.69,3.03-0.39c1.12,0.3,1.94,0.92,2.43,1.86
		c0.49,0.95,0.58,2.02,0.26,3.23c-0.32,1.21-0.94,2.08-1.86,2.64s-1.92,0.68-3.03,0.38c-1.12-0.3-1.92-0.93-2.41-1.88
		C811.8,160.38,811.72,159.3,812.04,158.11z M813.82,158.61c-0.15,0.55-0.08,1.08,0.2,1.57c0.28,0.5,0.7,0.82,1.25,0.97
		c0.55,0.15,1.08,0.08,1.57-0.21c0.5-0.29,0.82-0.71,0.97-1.26c0.15-0.55,0.08-1.09-0.2-1.58c-0.28-0.5-0.69-0.81-1.25-0.96
		c-0.55-0.15-1.07-0.08-1.57,0.21C814.29,157.64,813.97,158.06,813.82,158.61z"/>
	<path d="M813.76,152.6l0.53-1.99l0.89,0.24c-0.65-0.83-0.78-1.57-0.52-2.53c0.23-0.87,0.7-1.49,1.41-1.84
		c0.53-0.26,1.23-0.27,2.12-0.03l4.51,1.21l-0.53,1.99l-3.94-1.06c-0.54-0.15-0.95-0.19-1.2-0.11c-0.43,0.11-0.72,0.44-0.87,1.01
		c-0.27,1,0.25,1.68,1.57,2.04l3.68,0.99l-0.53,1.99L813.76,152.6z"/>
</g>
<circle fill="#FFFFFF" stroke="#000000" stroke-width="3" stroke-miterlimit="10" cx="1150" cy="228" r="10"/>
<g>
	<path d="M1144.65,208.57l9.1,2.44l0.9-3.37l1.85,0.5l-1.47,5.5l-10.95-2.93L1144.65,208.57z"/>
	<path d="M1155.48,199.02l-1.43,5.33c1.29,0.29,2.08-0.12,2.37-1.23c0.18-0.69,0.01-1.34-0.5-1.95l0.79-1.76
		c1.31,1.01,1.74,2.37,1.29,4.08c-0.31,1.16-0.9,1.99-1.78,2.5c-0.88,0.51-1.88,0.61-3.03,0.31c-1.15-0.31-1.97-0.89-2.48-1.75
		c-0.51-0.87-0.61-1.86-0.31-2.99c0.3-1.13,0.89-1.93,1.74-2.4c0.86-0.47,1.88-0.54,3.08-0.22L1155.48,199.02z M1152.8,203.94
		l0.9-3.37c-1-0.04-1.62,0.41-1.86,1.31C1151.61,202.76,1151.95,203.54,1152.8,203.94z"/>
	<path d="M1154.67,193.14c-0.42,0.33-0.68,0.64-0.76,0.94c-0.08,0.3-0.08,0.53-0.01,0.71c0.08,0.18,0.21,0.29,0.37,0.34
		s0.32,0.01,0.47-0.11c0.15-0.12,0.38-0.44,0.72-0.94c0.34-0.5,0.64-0.87,0.92-1.08c0.5-0.42,1.11-0.54,1.82-0.35
		c0.71,0.19,1.24,0.63,1.56,1.31c0.33,0.69,0.38,1.48,0.14,2.35c-0.29,1.07-0.92,1.87-1.91,2.38l-0.93-1.37
		c0.7-0.4,1.13-0.89,1.29-1.46c0.13-0.5-0.11-1-0.54-1.12c-0.22-0.06-0.39-0.04-0.54,0.07c-0.14,0.11-0.39,0.42-0.76,0.94
		c-0.36,0.52-0.66,0.87-0.88,1.04c-0.46,0.39-1.01,0.49-1.67,0.31c-0.67-0.18-1.14-0.56-1.43-1.16c-0.3-0.59-0.33-1.28-0.12-2.09
		s0.67-1.47,1.36-2.02L1154.67,193.14z"/>
	<path d="M1149.1,186.56l12.3,3.29l-0.53,1.99l-12.3-3.29L1149.1,186.56z"/>
	<path d="M1150.86,183.94c0.09-0.33,0.28-0.58,0.57-0.75c0.29-0.17,0.61-0.21,0.93-0.12c0.33,0.09,0.58,0.29,0.76,0.58
		c0.18,0.3,0.22,0.62,0.13,0.95c-0.09,0.33-0.28,0.58-0.58,0.75c-0.29,0.17-0.62,0.21-0.95,0.12c-0.33-0.09-0.58-0.29-0.75-0.59
		C1150.8,184.59,1150.77,184.27,1150.86,183.94z M1155.32,184.1l7.11,1.91l-0.53,1.98l-7.11-1.91L1155.32,184.1z"/>
	<path d="M1161.57,176.27l-1.43,5.33c1.29,0.29,2.08-0.12,2.37-1.23c0.18-0.69,0.01-1.34-0.5-1.95l0.79-1.76
		c1.31,1.01,1.74,2.36,1.29,4.07c-0.31,1.16-0.9,1.99-1.78,2.5c-0.88,0.51-1.88,0.61-3.03,0.31c-1.15-0.31-1.97-0.89-2.48-1.75
		s-0.61-1.86-0.31-2.99s0.89-1.93,1.74-2.4c0.86-0.47,1.88-0.54,3.08-0.22L1161.57,176.27z M1158.9,181.2l0.9-3.37
		c-1-0.04-1.62,0.41-1.87,1.31C1157.7,180.02,1158.04,180.79,1158.9,181.2z"/>
</g>
<circle fill="#FFFFFF" stroke="#000000" stroke-width="3" stroke-miterlimit="10" cx="1500" cy="228" r="10"/>
<g>
	<path d="M1505.03,213.63l-10.95-2.93l0.84-3.13c0.43-1.6,1.2-2.79,2.32-3.58c0.67-0.48,1.42-0.8,2.25-0.94
		c0.83-0.15,1.65-0.11,2.47,0.11c0.82,0.22,1.55,0.6,2.2,1.15c0.65,0.55,1.15,1.21,1.49,1.97c0.58,1.22,0.65,2.63,0.22,4.24
		L1505.03,213.63z M1503.75,211l0.15-0.58c0.35-1.31,0.32-2.35-0.09-3.15c-0.45-0.92-1.39-1.64-2.44-1.93
		c-1.11-0.3-2.13-0.15-3.04,0.46c-0.77,0.5-1.33,1.39-1.67,2.68l-0.15,0.58L1503.75,211z"/>
	<path d="M1501.54,197.3c0.32-1.19,0.93-2.07,1.83-2.63c0.9-0.56,1.91-0.69,3.04-0.39c1.12,0.3,1.94,0.92,2.43,1.86
		c0.49,0.95,0.58,2.02,0.26,3.23s-0.95,2.08-1.86,2.64c-0.91,0.55-1.92,0.68-3.03,0.38c-1.11-0.3-1.92-0.93-2.41-1.87
		C1501.3,199.57,1501.22,198.49,1501.54,197.3z M1503.32,197.8c-0.15,0.55-0.08,1.08,0.2,1.57c0.28,0.5,0.7,0.82,1.25,0.97
		c0.55,0.15,1.08,0.08,1.57-0.21c0.5-0.29,0.82-0.71,0.96-1.26c0.15-0.55,0.08-1.09-0.2-1.58c-0.28-0.5-0.69-0.81-1.25-0.96
		c-0.55-0.15-1.07-0.08-1.57,0.21C1503.79,196.83,1503.47,197.25,1503.32,197.8z"/>
	<path d="M1503.25,191.79l0.53-1.99l0.89,0.24c-0.65-0.83-0.78-1.57-0.52-2.53c0.23-0.87,0.7-1.49,1.41-1.84
		c0.53-0.26,1.23-0.27,2.12-0.03l4.51,1.21l-0.53,1.99l-3.95-1.06c-0.54-0.15-0.95-0.19-1.2-0.11c-0.43,0.11-0.72,0.44-0.87,1.01
		c-0.27,1,0.25,1.68,1.57,2.04l3.68,0.99l-0.53,1.99L1503.25,191.79z"/>
	<path d="M1513.74,181.13l-10.61-5.02l0.39-1.46l7.96-1.07l-6.33-5.02l0.4-1.48l11.64,1.16l-0.58,2.16l-7.02-0.82l6.09,4.85
		l-0.16,0.59l-7.68,1.06l6.46,2.91L1513.74,181.13z"/>
	<path d="M1506.58,162.59c0.09-0.33,0.28-0.58,0.57-0.75c0.29-0.17,0.61-0.21,0.93-0.12c0.33,0.09,0.59,0.29,0.76,0.58
		c0.18,0.3,0.22,0.62,0.13,0.95c-0.09,0.33-0.28,0.58-0.58,0.75c-0.29,0.17-0.62,0.21-0.94,0.12s-0.58-0.29-0.75-0.59
		C1506.53,163.24,1506.49,162.92,1506.58,162.59z M1511.04,162.75l7.11,1.91l-0.53,1.98l-7.11-1.91L1511.04,162.75z"/>
	<path d="M1506.89,157.49l12.3,3.3l-0.53,1.99l-12.3-3.3L1506.89,157.49z"/>
	<path d="M1507.93,153.6l12.3,3.3l-0.53,1.99l-12.3-3.3L1507.93,153.6z"/>
	<path d="M1516.33,149.65c-0.42,0.33-0.68,0.64-0.76,0.94s-0.08,0.53-0.01,0.71c0.08,0.18,0.21,0.29,0.37,0.34s0.32,0.01,0.47-0.11
		c0.14-0.12,0.38-0.44,0.72-0.94c0.34-0.5,0.65-0.87,0.92-1.08c0.5-0.42,1.11-0.54,1.82-0.35c0.71,0.19,1.24,0.63,1.56,1.31
		c0.33,0.69,0.38,1.48,0.14,2.35c-0.29,1.07-0.92,1.87-1.91,2.38l-0.93-1.37c0.7-0.4,1.13-0.89,1.28-1.46c0.14-0.5-0.11-1-0.53-1.11
		c-0.22-0.06-0.39-0.04-0.54,0.07c-0.14,0.11-0.4,0.42-0.76,0.94c-0.36,0.52-0.65,0.87-0.88,1.04c-0.46,0.38-1.01,0.49-1.67,0.31
		c-0.67-0.18-1.14-0.56-1.43-1.16c-0.3-0.59-0.34-1.28-0.12-2.09s0.67-1.47,1.36-2.02L1516.33,149.65z"/>
</g>
<g>
	<path fill="#9B9B9B" d="M741.86,256.58v-7.16h3.17c0.64,0,1.12,0.06,1.46,0.19c0.33,0.13,0.6,0.36,0.8,0.68s0.3,0.69,0.3,1.08
		c0,0.51-0.16,0.94-0.49,1.28s-0.84,0.57-1.52,0.66c0.25,0.12,0.44,0.24,0.57,0.36c0.28,0.25,0.54,0.57,0.79,0.95l1.25,1.95h-1.19
		l-0.95-1.49c-0.28-0.43-0.5-0.76-0.68-0.99s-0.34-0.39-0.48-0.48s-0.29-0.15-0.43-0.19c-0.11-0.02-0.28-0.03-0.53-0.03h-1.1v3.18
		H741.86z M742.81,252.58h2.04c0.43,0,0.77-0.04,1.02-0.13c0.24-0.09,0.43-0.23,0.56-0.43c0.13-0.2,0.19-0.41,0.19-0.64
		c0-0.34-0.12-0.62-0.37-0.83s-0.63-0.33-1.16-0.33h-2.27V252.58z"/>
	<path fill="#9B9B9B" d="M752.34,255.94c-0.33,0.28-0.64,0.47-0.94,0.59s-0.62,0.17-0.97,0.17c-0.57,0-1.01-0.14-1.31-0.42
		c-0.31-0.28-0.46-0.63-0.46-1.07c0-0.25,0.06-0.49,0.17-0.7c0.12-0.21,0.27-0.38,0.45-0.51s0.4-0.22,0.63-0.29
		c0.17-0.05,0.43-0.09,0.78-0.13c0.71-0.08,1.23-0.19,1.57-0.3c0-0.12,0-0.2,0-0.23c0-0.36-0.08-0.61-0.25-0.76
		c-0.22-0.2-0.56-0.3-1-0.3c-0.41,0-0.72,0.07-0.92,0.22c-0.2,0.14-0.34,0.4-0.44,0.77l-0.86-0.12c0.08-0.37,0.21-0.67,0.39-0.89
		c0.18-0.23,0.44-0.4,0.78-0.52c0.34-0.12,0.73-0.18,1.18-0.18c0.44,0,0.8,0.05,1.08,0.16s0.48,0.24,0.61,0.39
		c0.13,0.16,0.22,0.36,0.27,0.6c0.03,0.15,0.04,0.42,0.04,0.81v1.17c0,0.82,0.02,1.33,0.06,1.55c0.04,0.22,0.11,0.42,0.22,0.62
		h-0.92C752.43,256.4,752.37,256.19,752.34,255.94z M752.27,253.98c-0.32,0.13-0.8,0.24-1.44,0.33c-0.36,0.05-0.62,0.11-0.77,0.18
		s-0.27,0.16-0.35,0.29c-0.08,0.12-0.12,0.26-0.12,0.42c0,0.23,0.09,0.43,0.27,0.59s0.44,0.23,0.78,0.23c0.34,0,0.64-0.07,0.9-0.22
		c0.26-0.15,0.46-0.35,0.58-0.61c0.09-0.2,0.14-0.49,0.14-0.88V253.98z"/>
	<path fill="#9B9B9B" d="M754.52,250.43v-1.01h0.88v1.01H754.52z M754.52,256.58v-5.19h0.88v5.19H754.52z"/>
	<path fill="#9B9B9B" d="M756.72,256.58v-7.16h0.88v7.16H756.72z"/>
	<path fill="#9B9B9B" d="M761.9,256.58v-7.16h4.83v0.84h-3.88v2.22h3.36v0.84h-3.36v3.25H761.9z"/>
	<path fill="#9B9B9B" d="M771.23,255.94c-0.33,0.28-0.64,0.47-0.94,0.59s-0.62,0.17-0.97,0.17c-0.57,0-1.01-0.14-1.31-0.42
		c-0.31-0.28-0.46-0.63-0.46-1.07c0-0.25,0.06-0.49,0.17-0.7c0.12-0.21,0.27-0.38,0.45-0.51s0.4-0.22,0.63-0.29
		c0.17-0.05,0.43-0.09,0.78-0.13c0.71-0.08,1.23-0.19,1.57-0.3c0-0.12,0-0.2,0-0.23c0-0.36-0.08-0.61-0.25-0.76
		c-0.22-0.2-0.56-0.3-1-0.3c-0.41,0-0.72,0.07-0.92,0.22c-0.2,0.14-0.34,0.4-0.44,0.77l-0.86-0.12c0.08-0.37,0.21-0.67,0.39-0.89
		c0.18-0.23,0.44-0.4,0.78-0.52c0.34-0.12,0.73-0.18,1.18-0.18c0.44,0,0.8,0.05,1.08,0.16s0.48,0.24,0.61,0.39
		c0.13,0.16,0.22,0.36,0.27,0.6c0.03,0.15,0.04,0.42,0.04,0.81v1.17c0,0.82,0.02,1.33,0.06,1.55c0.04,0.22,0.11,0.42,0.22,0.62
		h-0.92C771.32,256.4,771.26,256.19,771.23,255.94z M771.16,253.98c-0.32,0.13-0.8,0.24-1.44,0.33c-0.36,0.05-0.62,0.11-0.77,0.18
		s-0.27,0.16-0.35,0.29c-0.08,0.12-0.12,0.26-0.12,0.42c0,0.23,0.09,0.43,0.27,0.59s0.44,0.23,0.78,0.23c0.34,0,0.64-0.07,0.9-0.22
		c0.26-0.15,0.46-0.35,0.58-0.61c0.09-0.2,0.14-0.49,0.14-0.88V253.98z"/>
	<path fill="#9B9B9B" d="M773.41,256.58v-5.19h0.79v0.74c0.38-0.57,0.93-0.85,1.65-0.85c0.31,0,0.6,0.06,0.86,0.17
		c0.26,0.11,0.46,0.26,0.59,0.44s0.22,0.4,0.27,0.65c0.03,0.16,0.05,0.45,0.05,0.85v3.19h-0.88v-3.15c0-0.36-0.03-0.63-0.1-0.8
		c-0.07-0.18-0.19-0.32-0.36-0.43c-0.17-0.11-0.38-0.16-0.61-0.16c-0.37,0-0.7,0.12-0.97,0.36s-0.41,0.69-0.41,1.35v2.83H773.41z"/>
	<path fill="#9B9B9B" d="M778.62,255.03l0.87-0.14c0.05,0.35,0.18,0.62,0.41,0.8s0.53,0.28,0.94,0.28c0.4,0,0.7-0.08,0.9-0.25
		c0.2-0.17,0.29-0.36,0.29-0.58c0-0.2-0.09-0.35-0.26-0.47c-0.12-0.08-0.42-0.18-0.9-0.3c-0.64-0.16-1.09-0.3-1.34-0.42
		c-0.25-0.12-0.44-0.28-0.57-0.49c-0.13-0.21-0.19-0.44-0.19-0.7c0-0.23,0.05-0.45,0.16-0.64c0.11-0.2,0.25-0.36,0.43-0.49
		c0.14-0.1,0.32-0.19,0.56-0.26c0.24-0.07,0.49-0.11,0.76-0.11c0.41,0,0.76,0.06,1.07,0.18s0.53,0.28,0.68,0.48
		c0.15,0.2,0.25,0.47,0.3,0.8l-0.86,0.12c-0.04-0.27-0.15-0.48-0.34-0.62s-0.45-0.22-0.79-0.22c-0.4,0-0.69,0.07-0.86,0.2
		s-0.26,0.29-0.26,0.47c0,0.11,0.04,0.22,0.11,0.31c0.07,0.09,0.18,0.17,0.34,0.23c0.09,0.03,0.35,0.11,0.78,0.22
		c0.62,0.17,1.06,0.3,1.3,0.41c0.25,0.11,0.44,0.26,0.58,0.46s0.21,0.45,0.21,0.75c0,0.29-0.09,0.57-0.26,0.83
		c-0.17,0.26-0.42,0.46-0.74,0.6c-0.32,0.14-0.69,0.21-1.09,0.21c-0.67,0-1.19-0.14-1.54-0.42S778.72,255.58,778.62,255.03z"/>
	<path fill="#9B9B9B" d="M791.97,254.07l0.95,0.24c-0.2,0.78-0.56,1.37-1.07,1.78c-0.52,0.41-1.15,0.61-1.89,0.61
		c-0.77,0-1.4-0.16-1.88-0.47c-0.48-0.31-0.85-0.77-1.1-1.36s-0.38-1.24-0.38-1.92c0-0.75,0.14-1.4,0.43-1.95
		c0.28-0.55,0.69-0.98,1.22-1.26c0.53-0.29,1.1-0.43,1.74-0.43c0.72,0,1.32,0.18,1.81,0.55s0.83,0.88,1.02,1.54l-0.93,0.22
		c-0.17-0.52-0.41-0.9-0.72-1.14s-0.71-0.36-1.19-0.36c-0.55,0-1.01,0.13-1.38,0.4s-0.63,0.62-0.78,1.06
		c-0.15,0.44-0.22,0.9-0.22,1.37c0,0.61,0.09,1.14,0.27,1.59c0.18,0.45,0.45,0.79,0.83,1.02s0.78,0.34,1.22,0.34
		c0.53,0,0.98-0.15,1.35-0.46S791.84,254.67,791.97,254.07z"/>
	<path fill="#9B9B9B" d="M797.36,255.94c-0.33,0.28-0.64,0.47-0.94,0.59s-0.62,0.17-0.97,0.17c-0.57,0-1.01-0.14-1.31-0.42
		c-0.31-0.28-0.46-0.63-0.46-1.07c0-0.25,0.06-0.49,0.17-0.7c0.12-0.21,0.27-0.38,0.45-0.51s0.4-0.22,0.63-0.29
		c0.17-0.05,0.43-0.09,0.78-0.13c0.71-0.08,1.23-0.19,1.57-0.3c0-0.12,0-0.2,0-0.23c0-0.36-0.08-0.61-0.25-0.76
		c-0.22-0.2-0.56-0.3-1-0.3c-0.41,0-0.72,0.07-0.92,0.22c-0.2,0.14-0.34,0.4-0.44,0.77l-0.86-0.12c0.08-0.37,0.21-0.67,0.39-0.89
		c0.18-0.23,0.44-0.4,0.78-0.52c0.34-0.12,0.73-0.18,1.18-0.18c0.44,0,0.8,0.05,1.08,0.16s0.48,0.24,0.61,0.39
		c0.13,0.16,0.22,0.36,0.27,0.6c0.03,0.15,0.04,0.42,0.04,0.81v1.17c0,0.82,0.02,1.33,0.06,1.55c0.04,0.22,0.11,0.42,0.22,0.62
		h-0.92C797.44,256.4,797.38,256.19,797.36,255.94z M797.28,253.98c-0.32,0.13-0.8,0.24-1.44,0.33c-0.36,0.05-0.62,0.11-0.77,0.18
		s-0.27,0.16-0.35,0.29c-0.08,0.12-0.12,0.26-0.12,0.42c0,0.23,0.09,0.43,0.27,0.59s0.44,0.23,0.78,0.23c0.34,0,0.64-0.07,0.9-0.22
		c0.26-0.15,0.46-0.35,0.58-0.61c0.09-0.2,0.14-0.49,0.14-0.88V253.98z"/>
	<path fill="#9B9B9B" d="M799.53,256.58v-5.19h0.79v0.74c0.38-0.57,0.93-0.85,1.65-0.85c0.31,0,0.6,0.06,0.86,0.17
		c0.26,0.11,0.46,0.26,0.59,0.44c0.13,0.18,0.22,0.4,0.27,0.65c0.03,0.16,0.05,0.45,0.05,0.85v3.19h-0.88v-3.15
		c0-0.36-0.04-0.63-0.1-0.8c-0.07-0.18-0.19-0.32-0.36-0.43c-0.17-0.11-0.38-0.16-0.61-0.16c-0.37,0-0.7,0.12-0.97,0.36
		c-0.27,0.24-0.41,0.69-0.41,1.35v2.83H799.53z"/>
	<path fill="#9B9B9B" d="M808.48,255.94c-0.33,0.28-0.64,0.47-0.94,0.59s-0.62,0.17-0.97,0.17c-0.57,0-1.01-0.14-1.31-0.42
		c-0.31-0.28-0.46-0.63-0.46-1.07c0-0.25,0.06-0.49,0.17-0.7c0.12-0.21,0.27-0.38,0.45-0.51s0.4-0.22,0.63-0.29
		c0.17-0.05,0.43-0.09,0.78-0.13c0.71-0.08,1.23-0.19,1.57-0.3c0-0.12,0-0.2,0-0.23c0-0.36-0.08-0.61-0.25-0.76
		c-0.22-0.2-0.56-0.3-1-0.3c-0.41,0-0.72,0.07-0.92,0.22c-0.2,0.14-0.34,0.4-0.44,0.77l-0.86-0.12c0.08-0.37,0.21-0.67,0.38-0.89
		c0.18-0.23,0.44-0.4,0.78-0.52c0.34-0.12,0.73-0.18,1.18-0.18c0.44,0,0.8,0.05,1.08,0.16c0.28,0.1,0.48,0.24,0.61,0.39
		c0.13,0.16,0.22,0.36,0.27,0.6c0.03,0.15,0.04,0.42,0.04,0.81v1.17c0,0.82,0.02,1.33,0.06,1.55c0.04,0.22,0.11,0.42,0.22,0.62
		h-0.92C808.56,256.4,808.5,256.19,808.48,255.94z M808.41,253.98c-0.32,0.13-0.8,0.24-1.44,0.33c-0.36,0.05-0.62,0.11-0.77,0.18
		c-0.15,0.07-0.26,0.16-0.35,0.29c-0.08,0.12-0.12,0.26-0.12,0.42c0,0.23,0.09,0.43,0.27,0.59s0.44,0.23,0.78,0.23
		c0.34,0,0.64-0.07,0.9-0.22c0.26-0.15,0.46-0.35,0.58-0.61c0.09-0.2,0.14-0.49,0.14-0.88V253.98z"/>
	<path fill="#9B9B9B" d="M814.02,256.58v-0.65c-0.33,0.51-0.81,0.77-1.45,0.77c-0.41,0-0.79-0.11-1.14-0.34s-0.62-0.55-0.81-0.96
		c-0.19-0.41-0.29-0.88-0.29-1.41c0-0.52,0.09-0.99,0.26-1.41c0.17-0.42,0.43-0.75,0.78-0.97c0.34-0.22,0.73-0.34,1.16-0.34
		c0.31,0,0.59,0.07,0.84,0.2c0.24,0.13,0.44,0.3,0.6,0.52v-2.57h0.87v7.16H814.02z M811.24,253.99c0,0.66,0.14,1.16,0.42,1.49
		c0.28,0.33,0.61,0.49,0.99,0.49c0.38,0,0.71-0.16,0.98-0.47c0.27-0.31,0.4-0.79,0.4-1.44c0-0.71-0.14-1.23-0.41-1.56
		s-0.61-0.5-1.01-0.5c-0.39,0-0.72,0.16-0.98,0.48S811.24,253.31,811.24,253.99z"/>
	<path fill="#9B9B9B" d="M819.6,255.94c-0.33,0.28-0.64,0.47-0.94,0.59s-0.62,0.17-0.97,0.17c-0.57,0-1.01-0.14-1.31-0.42
		c-0.31-0.28-0.46-0.63-0.46-1.07c0-0.25,0.06-0.49,0.17-0.7c0.12-0.21,0.27-0.38,0.45-0.51s0.4-0.22,0.63-0.29
		c0.17-0.05,0.43-0.09,0.78-0.13c0.71-0.08,1.23-0.19,1.57-0.3c0-0.12,0-0.2,0-0.23c0-0.36-0.08-0.61-0.25-0.76
		c-0.22-0.2-0.56-0.3-1-0.3c-0.41,0-0.72,0.07-0.92,0.22c-0.2,0.14-0.34,0.4-0.44,0.77l-0.86-0.12c0.08-0.37,0.21-0.67,0.38-0.89
		c0.18-0.23,0.44-0.4,0.78-0.52c0.34-0.12,0.73-0.18,1.18-0.18c0.44,0,0.8,0.05,1.08,0.16c0.28,0.1,0.48,0.24,0.61,0.39
		c0.13,0.16,0.22,0.36,0.27,0.6c0.03,0.15,0.04,0.42,0.04,0.81v1.17c0,0.82,0.02,1.33,0.06,1.55c0.04,0.22,0.11,0.42,0.22,0.62
		h-0.92C819.69,256.4,819.63,256.19,819.6,255.94z M819.53,253.98c-0.32,0.13-0.8,0.24-1.44,0.33c-0.36,0.05-0.62,0.11-0.77,0.18
		c-0.15,0.07-0.26,0.16-0.35,0.29c-0.08,0.12-0.12,0.26-0.12,0.42c0,0.23,0.09,0.43,0.27,0.59s0.44,0.23,0.78,0.23
		c0.34,0,0.64-0.07,0.9-0.22c0.26-0.15,0.46-0.35,0.58-0.61c0.09-0.2,0.14-0.49,0.14-0.88V253.98z"/>
	<path fill="#9B9B9B" d="M823.9,254.35v-0.71h10v0.71H823.9z"/>
	<path fill="#9B9B9B" d="M841.71,255.74v0.84h-4.73c-0.01-0.21,0.03-0.42,0.1-0.61c0.12-0.32,0.31-0.64,0.58-0.95
		s0.65-0.67,1.15-1.08c0.78-0.64,1.3-1.14,1.58-1.52c0.27-0.37,0.41-0.73,0.41-1.06c0-0.35-0.12-0.64-0.37-0.88
		c-0.25-0.24-0.57-0.36-0.97-0.36c-0.42,0-0.76,0.13-1.02,0.38s-0.38,0.61-0.39,1.05l-0.9-0.09c0.06-0.67,0.29-1.19,0.7-1.54
		c0.4-0.35,0.95-0.53,1.63-0.53c0.69,0,1.23,0.19,1.63,0.57s0.6,0.85,0.6,1.42c0,0.29-0.06,0.57-0.18,0.84s-0.31,0.57-0.58,0.87
		s-0.72,0.73-1.35,1.26c-0.53,0.44-0.87,0.74-1.02,0.9c-0.15,0.16-0.27,0.32-0.37,0.48H841.71z"/>
	<path fill="#9B9B9B" d="M842.65,253.05c0-0.85,0.09-1.53,0.26-2.04c0.17-0.52,0.43-0.91,0.78-1.19s0.78-0.42,1.3-0.42
		c0.38,0,0.72,0.08,1.01,0.23c0.29,0.15,0.53,0.38,0.72,0.67c0.19,0.29,0.34,0.65,0.44,1.06c0.11,0.42,0.16,0.98,0.16,1.69
		c0,0.84-0.09,1.52-0.26,2.03c-0.17,0.52-0.43,0.91-0.77,1.2c-0.34,0.28-0.78,0.42-1.3,0.42c-0.69,0-1.23-0.25-1.63-0.74
		C842.89,255.37,842.65,254.4,842.65,253.05z M843.56,253.05c0,1.17,0.14,1.96,0.41,2.35c0.27,0.39,0.61,0.58,1.02,0.58
		c0.4,0,0.74-0.2,1.02-0.59s0.41-1.17,0.41-2.34c0-1.18-0.14-1.96-0.41-2.35s-0.62-0.58-1.03-0.58c-0.4,0-0.73,0.17-0.97,0.51
		C843.71,251.07,843.56,251.88,843.56,253.05z"/>
	<path fill="#9B9B9B" d="M852.83,255.74v0.84h-4.73c-0.01-0.21,0.03-0.42,0.1-0.61c0.12-0.32,0.31-0.64,0.58-0.95
		s0.65-0.67,1.15-1.08c0.78-0.64,1.3-1.14,1.58-1.52c0.27-0.37,0.41-0.73,0.41-1.06c0-0.35-0.12-0.64-0.37-0.88
		c-0.25-0.24-0.57-0.36-0.97-0.36c-0.42,0-0.76,0.13-1.02,0.38s-0.38,0.61-0.39,1.05l-0.9-0.09c0.06-0.67,0.29-1.19,0.7-1.54
		c0.4-0.35,0.95-0.53,1.63-0.53c0.69,0,1.23,0.19,1.63,0.57s0.6,0.85,0.6,1.42c0,0.29-0.06,0.57-0.18,0.84s-0.31,0.57-0.58,0.87
		s-0.72,0.73-1.35,1.26c-0.53,0.44-0.87,0.74-1.02,0.9c-0.15,0.16-0.27,0.32-0.37,0.48H852.83z"/>
	<path fill="#9B9B9B" d="M858.34,251.18l-0.88,0.07c-0.08-0.34-0.19-0.6-0.33-0.75c-0.24-0.25-0.53-0.38-0.88-0.38
		c-0.28,0-0.53,0.08-0.74,0.23c-0.28,0.2-0.5,0.5-0.65,0.88c-0.16,0.39-0.24,0.94-0.25,1.66c0.21-0.32,0.47-0.56,0.78-0.72
		c0.31-0.16,0.63-0.23,0.96-0.23c0.59,0,1.09,0.22,1.5,0.65c0.41,0.43,0.62,0.99,0.62,1.67c0,0.45-0.1,0.87-0.29,1.25
		c-0.19,0.39-0.46,0.68-0.8,0.89c-0.34,0.21-0.72,0.31-1.15,0.31c-0.73,0-1.33-0.27-1.79-0.81c-0.46-0.54-0.69-1.43-0.69-2.66
		c0-1.38,0.25-2.39,0.77-3.02c0.45-0.55,1.05-0.82,1.8-0.82c0.56,0,1.02,0.16,1.38,0.47S858.27,250.62,858.34,251.18z
		 M854.75,254.26c0,0.3,0.06,0.59,0.19,0.87s0.31,0.49,0.54,0.63c0.23,0.15,0.47,0.22,0.73,0.22c0.37,0,0.69-0.15,0.96-0.45
		c0.27-0.3,0.4-0.71,0.4-1.22c0-0.5-0.13-0.88-0.4-1.17c-0.26-0.29-0.6-0.43-1-0.43c-0.4,0-0.73,0.14-1.01,0.43
		C854.89,253.43,854.75,253.8,854.75,254.26z"/>
</g>
<g>
	<path d="M19.71,21.33v24.38h9.02v4.96H14V21.33H19.71z"/>
	<path d="M34.65,20.36c0.88,0,1.63,0.3,2.26,0.92s0.92,1.38,0.92,2.26s-0.32,1.65-0.95,2.28c-0.62,0.64-1.4,0.97-2.28,0.97
		s-1.63-0.32-2.26-0.95s-0.95-1.4-0.95-2.28s0.32-1.65,0.97-2.28C32.99,20.66,33.77,20.36,34.65,20.36z M37.25,31.62v19.06h-5.31
		V31.62H37.25z"/>
	<path d="M42.27,31.62h5.33V34c1.63-2.17,3.39-2.99,5.97-2.99c2.34,0,4.19,0.75,5.54,2.28c1.01,1.14,1.5,2.9,1.5,5.29v12.1h-5.33
		V40.1c0-1.46-0.17-2.49-0.54-3.07c-0.56-1.01-1.59-1.5-3.12-1.5c-2.69,0-4.04,1.76-4.04,5.29v9.86h-5.33V31.62z"/>
	<path d="M84.45,42.02H70.16c0.15,3.42,1.7,5.11,4.66,5.09c1.85,0,3.35-0.86,4.53-2.56l4.92,0.79c-1.65,3.95-4.75,5.93-9.32,5.95
		c-3.12,0-5.59-0.92-7.46-2.77s-2.79-4.3-2.79-7.37s0.9-5.52,2.73-7.37s4.23-2.77,7.26-2.77s5.41,0.92,7.15,2.75s2.6,4.34,2.6,7.54
		V42.02z M70.33,38.62h9.02c-0.58-2.51-2.11-3.78-4.53-3.78C72.48,34.84,70.78,36.21,70.33,38.62z"/>
	<path d="M117.51,40.9h3.48v4.58h-3.48v5.2h-5.31v-5.2H97.85v-2.54l14.52-22.15h5.13V40.9z M112.21,40.9V29.25l-7.58,11.64H112.21z"
		/>
	<path d="M132.87,38.36h9.9v4.43h-9.9V38.36z"/>
	<path d="M162.61,28.8c0,0.84,0.3,1.53,0.92,2.02c0.62,0.52,2.06,1.2,4.36,2.06s3.95,1.74,5.01,2.64c1.74,1.46,2.6,3.57,2.6,6.34
		s-0.95,5.05-2.81,6.83s-4.34,2.69-7.39,2.69c-4.15,0-7.5-1.87-10.08-5.59l3.7-3.57c1.38,2.6,3.42,3.91,6.14,3.91
		c1.31,0,2.41-0.39,3.27-1.16c0.84-0.77,1.27-1.76,1.27-2.99s-0.52-2.19-1.57-2.94c-0.49-0.37-1.98-0.99-4.4-1.87
		s-4.19-1.93-5.29-3.12s-1.63-2.75-1.63-4.68c0-2.47,0.86-4.51,2.6-6.12s3.91-2.43,6.55-2.43c3.27,0,6.14,1.1,8.64,3.27l-3.01,3.91
		c-1.4-1.59-2.99-2.38-4.75-2.36c-1.18,0-2.15,0.32-2.94,0.95S162.61,27.96,162.61,28.8z"/>
	<path d="M180.2,17.72h5.33v16.37c1.57-2.04,3.54-3.07,5.95-3.07s4.25,0.77,5.56,2.32c1.01,1.2,1.5,2.99,1.5,5.37v11.97h-5.33V40.25
		c0-1.53-0.17-2.58-0.54-3.18c-0.58-1.03-1.63-1.55-3.12-1.55c-2.69,0-4.04,1.78-4.04,5.37v9.78h-5.33V17.72z"/>
	<path d="M222.38,42.02h-14.29c0.15,3.42,1.7,5.11,4.66,5.09c1.85,0,3.35-0.86,4.53-2.56l4.92,0.79c-1.65,3.95-4.75,5.93-9.32,5.95
		c-3.12,0-5.59-0.92-7.46-2.77s-2.79-4.3-2.79-7.37s0.9-5.52,2.73-7.37s4.23-2.77,7.26-2.77s5.41,0.92,7.15,2.75s2.6,4.34,2.6,7.54
		V42.02z M208.26,38.62h9.02c-0.58-2.51-2.11-3.78-4.53-3.78C210.41,34.84,208.71,36.21,208.26,38.62z"/>
	<path d="M231.74,60.84h-5.33V31.62h5.33v2.47c1.65-2.04,3.76-3.07,6.34-3.07s4.77,0.97,6.57,2.9s2.71,4.34,2.71,7.22
		s-0.9,5.29-2.69,7.24s-3.95,2.92-6.47,2.92s-4.68-1.03-6.47-3.09V60.84z M236.51,35.81c-1.48,0-2.73,0.52-3.78,1.55
		s-1.57,2.3-1.57,3.78s0.52,2.75,1.57,3.78c1.05,1.05,2.3,1.57,3.76,1.57s2.73-0.52,3.78-1.57c1.05-1.03,1.59-2.28,1.59-3.76
		s-0.52-2.73-1.57-3.78S238,35.81,236.51,35.81z"/>
	<path d="M256.77,60.84h-5.33V31.62h5.33v2.47c1.65-2.04,3.76-3.07,6.34-3.07s4.77,0.97,6.57,2.9s2.71,4.34,2.71,7.22
		s-0.9,5.29-2.69,7.24s-3.95,2.92-6.47,2.92s-4.68-1.03-6.47-3.09V60.84z M261.54,35.81c-1.48,0-2.73,0.52-3.78,1.55
		s-1.57,2.3-1.57,3.78s0.52,2.75,1.57,3.78c1.05,1.05,2.3,1.57,3.76,1.57s2.73-0.52,3.78-1.57c1.05-1.03,1.59-2.28,1.59-3.76
		s-0.52-2.73-1.57-3.78S263.03,35.81,261.54,35.81z"/>
	<path d="M291.08,31.62h5.33v19.06h-5.33V48.2c-1.65,2.04-3.76,3.07-6.36,3.07s-4.79-0.97-6.57-2.9s-2.69-4.34-2.69-7.2
		s0.9-5.29,2.69-7.24s3.95-2.92,6.49-2.92s4.68,1.03,6.45,3.07V31.62z M286.34,35.81c-1.5,0-2.77,0.52-3.8,1.55
		c-1.05,1.03-1.57,2.3-1.57,3.78s0.52,2.75,1.57,3.78c1.05,1.05,2.3,1.57,3.76,1.57s2.73-0.52,3.78-1.57
		c1.05-1.03,1.57-2.28,1.57-3.76s-0.52-2.73-1.53-3.78C289.09,36.32,287.82,35.81,286.34,35.81z"/>
	<path d="M306.83,50.67h-5.33V31.62h5.33v2.9c1.31-2.34,3.16-3.52,5.54-3.5c0.75,0,1.53,0.15,2.32,0.47l-0.75,4.96
		c-0.79-0.45-1.63-0.67-2.54-0.64c-3.05,0-4.58,1.91-4.58,5.71V50.67z"/>
	<path d="M331.78,17.72h5.33v32.96h-5.33V48.2c-1.65,2.04-3.76,3.07-6.36,3.07s-4.79-0.97-6.57-2.9s-2.69-4.34-2.69-7.2
		s0.9-5.29,2.69-7.24s3.95-2.92,6.49-2.92s4.68,1.03,6.45,3.07V17.72z M327.03,35.81c-1.5,0-2.77,0.52-3.8,1.55
		c-1.05,1.03-1.57,2.3-1.57,3.78s0.52,2.75,1.57,3.78c1.05,1.05,2.3,1.57,3.76,1.57s2.73-0.52,3.78-1.57
		c1.05-1.03,1.57-2.28,1.57-3.76s-0.52-2.73-1.53-3.78C329.78,36.32,328.51,35.81,327.03,35.81z"/>
</g>
<g>
	<path fill="#5A5A5A" d="M18.25,77.45V66.08H14v-1.52h10.21v1.52h-4.26v11.36H18.25z"/>
	<path fill="#5A5A5A" d="M23.18,72.78c0-1.73,0.48-3.01,1.44-3.84c0.8-0.69,1.78-1.04,2.94-1.04c1.28,0,2.33,0.42,3.15,1.26
		s1.22,2,1.22,3.48c0,1.2-0.18,2.15-0.54,2.83c-0.36,0.69-0.88,1.22-1.57,1.6s-1.44,0.57-2.25,0.57c-1.31,0-2.36-0.42-3.17-1.26
		S23.18,74.36,23.18,72.78z M24.8,72.78c0,1.2,0.26,2.09,0.78,2.68c0.52,0.6,1.18,0.89,1.97,0.89c0.79,0,1.44-0.3,1.96-0.9
		s0.78-1.51,0.78-2.73c0-1.15-0.26-2.03-0.79-2.62c-0.52-0.59-1.18-0.89-1.96-0.89c-0.79,0-1.45,0.3-1.97,0.89
		S24.8,71.58,24.8,72.78z"/>
	<path fill="#5A5A5A" d="M33.76,77.45v-9.33h1.42v1.42c0.36-0.66,0.7-1.1,1.01-1.31s0.65-0.32,1.02-0.32c0.53,0,1.08,0.17,1.63,0.51
		l-0.54,1.47c-0.39-0.23-0.77-0.34-1.16-0.34c-0.35,0-0.66,0.1-0.93,0.31s-0.47,0.5-0.59,0.87c-0.18,0.56-0.26,1.18-0.26,1.85v4.89
		H33.76z"/>
	<path fill="#5A5A5A" d="M39.18,72.78c0-1.73,0.48-3.01,1.44-3.84c0.8-0.69,1.78-1.04,2.94-1.04c1.28,0,2.33,0.42,3.15,1.26
		s1.22,2,1.22,3.48c0,1.2-0.18,2.15-0.54,2.83c-0.36,0.69-0.88,1.22-1.57,1.6s-1.44,0.57-2.25,0.57c-1.31,0-2.36-0.42-3.17-1.26
		S39.18,74.36,39.18,72.78z M40.81,72.78c0,1.2,0.26,2.09,0.78,2.68c0.52,0.6,1.18,0.89,1.97,0.89c0.79,0,1.44-0.3,1.96-0.9
		s0.78-1.51,0.78-2.73c0-1.15-0.26-2.03-0.79-2.62c-0.52-0.59-1.18-0.89-1.96-0.89c-0.79,0-1.45,0.3-1.97,0.89
		S40.81,71.58,40.81,72.78z"/>
	<path fill="#5A5A5A" d="M49.78,77.45v-9.33h1.42v1.33c0.69-1.03,1.68-1.54,2.97-1.54c0.56,0,1.08,0.1,1.55,0.3
		c0.47,0.2,0.82,0.47,1.06,0.8s0.4,0.72,0.49,1.17c0.06,0.29,0.09,0.81,0.09,1.54v5.74h-1.58v-5.68c0-0.64-0.06-1.13-0.18-1.45
		s-0.34-0.57-0.65-0.77c-0.31-0.19-0.68-0.29-1.1-0.29c-0.67,0-1.26,0.21-1.74,0.64s-0.73,1.24-0.73,2.43v5.1H49.78z"/>
	<path fill="#5A5A5A" d="M63.25,76.03l0.23,1.4c-0.45,0.09-0.84,0.14-1.2,0.14c-0.57,0-1.02-0.09-1.34-0.27s-0.54-0.42-0.67-0.72
		s-0.19-0.92-0.19-1.87v-5.37h-1.16v-1.23h1.16V65.8l1.57-0.95v3.26h1.59v1.23h-1.59v5.46c0,0.45,0.03,0.74,0.08,0.87
		s0.15,0.23,0.27,0.31s0.31,0.11,0.54,0.11C62.73,76.09,62.96,76.07,63.25,76.03z"/>
	<path fill="#5A5A5A" d="M64.2,72.78c0-1.73,0.48-3.01,1.44-3.84c0.8-0.69,1.78-1.04,2.94-1.04c1.28,0,2.33,0.42,3.15,1.26
		s1.22,2,1.22,3.48c0,1.2-0.18,2.15-0.54,2.83c-0.36,0.69-0.88,1.22-1.57,1.6s-1.44,0.57-2.25,0.57c-1.31,0-2.36-0.42-3.17-1.26
		S64.2,74.36,64.2,72.78z M65.83,72.78c0,1.2,0.26,2.09,0.78,2.68c0.52,0.6,1.18,0.89,1.97,0.89c0.79,0,1.44-0.3,1.96-0.9
		s0.78-1.51,0.78-2.73c0-1.15-0.26-2.03-0.79-2.62c-0.52-0.59-1.18-0.89-1.96-0.89c-0.79,0-1.45,0.3-1.97,0.89
		S65.83,71.58,65.83,72.78z"/>
	<path fill="#5A5A5A" d="M82.96,77.45V66.08h-4.25v-1.52h10.21v1.52h-4.26v11.36H82.96z"/>
	<path fill="#5A5A5A" d="M89.79,77.45v-9.33h1.42v1.42c0.36-0.66,0.7-1.1,1.01-1.31s0.65-0.32,1.02-0.32c0.53,0,1.08,0.17,1.63,0.51
		l-0.54,1.47c-0.39-0.23-0.77-0.34-1.16-0.34c-0.35,0-0.66,0.1-0.93,0.31s-0.47,0.5-0.59,0.87c-0.18,0.56-0.26,1.18-0.26,1.85v4.89
		H89.79z"/>
	<path fill="#5A5A5A" d="M101.89,76.3c-0.59,0.5-1.15,0.85-1.69,1.05s-1.12,0.31-1.74,0.31c-1.03,0-1.81-0.25-2.36-0.75
		c-0.55-0.5-0.83-1.14-0.83-1.92c0-0.46,0.1-0.88,0.31-1.25c0.21-0.38,0.48-0.68,0.82-0.91s0.72-0.4,1.14-0.52
		c0.31-0.08,0.78-0.16,1.41-0.24c1.28-0.15,2.22-0.33,2.82-0.54c0.01-0.22,0.01-0.35,0.01-0.41c0-0.64-0.15-1.1-0.45-1.36
		c-0.4-0.36-1-0.54-1.8-0.54c-0.74,0-1.29,0.13-1.65,0.39s-0.62,0.72-0.79,1.38l-1.55-0.21c0.14-0.66,0.37-1.2,0.69-1.6
		c0.32-0.41,0.79-0.72,1.4-0.94c0.61-0.22,1.32-0.33,2.12-0.33c0.8,0,1.44,0.09,1.94,0.28s0.86,0.42,1.1,0.71
		c0.23,0.29,0.4,0.64,0.49,1.08c0.05,0.27,0.08,0.76,0.08,1.46v2.11c0,1.47,0.03,2.4,0.1,2.79c0.07,0.39,0.2,0.76,0.4,1.12h-1.65
		C102.04,77.12,101.94,76.74,101.89,76.3z M101.76,72.76c-0.57,0.23-1.44,0.43-2.58,0.6c-0.65,0.09-1.11,0.2-1.38,0.32
		s-0.48,0.29-0.62,0.51s-0.22,0.48-0.22,0.75c0,0.42,0.16,0.77,0.48,1.05s0.79,0.42,1.4,0.42c0.61,0,1.15-0.13,1.63-0.4
		s0.82-0.63,1.05-1.09c0.17-0.36,0.25-0.88,0.25-1.58V72.76z"/>
	<path fill="#5A5A5A" d="M105.81,77.45v-9.33h1.42v1.33c0.69-1.03,1.68-1.54,2.97-1.54c0.56,0,1.08,0.1,1.55,0.3
		c0.47,0.2,0.82,0.47,1.06,0.8s0.4,0.72,0.49,1.17c0.06,0.29,0.09,0.81,0.09,1.54v5.74h-1.58v-5.68c0-0.64-0.06-1.13-0.18-1.45
		s-0.34-0.57-0.65-0.77c-0.31-0.19-0.68-0.29-1.1-0.29c-0.67,0-1.26,0.21-1.74,0.64s-0.73,1.24-0.73,2.43v5.1H105.81z"/>
	<path fill="#5A5A5A" d="M115.19,74.66l1.56-0.25c0.09,0.63,0.33,1.11,0.73,1.44s0.96,0.5,1.68,0.5c0.73,0,1.27-0.15,1.62-0.44
		s0.53-0.64,0.53-1.04c0-0.36-0.16-0.64-0.47-0.84c-0.22-0.14-0.76-0.32-1.62-0.54c-1.16-0.29-1.96-0.55-2.41-0.76
		s-0.79-0.51-1.02-0.89c-0.23-0.38-0.35-0.79-0.35-1.25c0-0.42,0.1-0.8,0.29-1.16c0.19-0.35,0.45-0.65,0.78-0.88
		c0.25-0.18,0.58-0.33,1.01-0.46s0.88-0.19,1.37-0.19c0.73,0,1.38,0.11,1.93,0.32s0.96,0.5,1.23,0.86c0.26,0.36,0.45,0.84,0.54,1.45
		l-1.55,0.21c-0.07-0.48-0.27-0.86-0.61-1.12s-0.81-0.4-1.43-0.4c-0.73,0-1.25,0.12-1.56,0.36s-0.47,0.52-0.47,0.84
		c0,0.21,0.06,0.39,0.19,0.55c0.13,0.17,0.33,0.31,0.61,0.42c0.16,0.06,0.62,0.19,1.4,0.4c1.12,0.3,1.9,0.54,2.34,0.73
		s0.79,0.47,1.04,0.83s0.38,0.81,0.38,1.35c0,0.53-0.15,1.02-0.46,1.49c-0.31,0.46-0.75,0.83-1.33,1.08
		c-0.58,0.26-1.24,0.38-1.97,0.38c-1.21,0-2.14-0.25-2.77-0.76S115.36,75.65,115.19,74.66z"/>
	<path fill="#5A5A5A" d="M124.83,66.38v-1.82h1.58v1.82H124.83z M124.83,77.45v-9.33h1.58v9.33H124.83z"/>
	<path fill="#5A5A5A" d="M132.27,76.03l0.23,1.4c-0.45,0.09-0.84,0.14-1.2,0.14c-0.57,0-1.02-0.09-1.34-0.27s-0.54-0.42-0.67-0.72
		s-0.19-0.92-0.19-1.87v-5.37h-1.16v-1.23h1.16V65.8l1.57-0.95v3.26h1.59v1.23h-1.59v5.46c0,0.45,0.03,0.74,0.08,0.87
		s0.15,0.23,0.27,0.31s0.31,0.11,0.54,0.11C131.76,76.09,131.99,76.07,132.27,76.03z"/>
	<path fill="#5A5A5A" d="M148.22,72.93l1.71,0.43c-0.36,1.4-1,2.47-1.93,3.2s-2.06,1.1-3.41,1.1c-1.39,0-2.52-0.28-3.39-0.85
		c-0.87-0.56-1.53-1.38-1.99-2.46s-0.68-2.22-0.68-3.45c0-1.34,0.26-2.51,0.77-3.51c0.51-1,1.24-1.76,2.19-2.28
		c0.95-0.52,1.99-0.78,3.12-0.78c1.29,0,2.37,0.33,3.25,0.98s1.49,1.58,1.84,2.77l-1.68,0.4c-0.3-0.94-0.73-1.62-1.3-2.05
		s-1.28-0.64-2.14-0.64c-0.99,0-1.82,0.24-2.48,0.71s-1.13,1.11-1.4,1.91c-0.27,0.8-0.4,1.62-0.4,2.47c0,1.1,0.16,2.05,0.48,2.87
		c0.32,0.82,0.82,1.43,1.49,1.83s1.4,0.61,2.19,0.61c0.96,0,1.76-0.28,2.43-0.83S147.98,74.01,148.22,72.93z"/>
	<path fill="#5A5A5A" d="M151.23,72.78c0-1.73,0.48-3.01,1.44-3.84c0.8-0.69,1.78-1.04,2.94-1.04c1.28,0,2.33,0.42,3.15,1.26
		s1.22,2,1.22,3.48c0,1.2-0.18,2.15-0.54,2.83c-0.36,0.69-0.88,1.22-1.57,1.6s-1.44,0.57-2.25,0.57c-1.31,0-2.36-0.42-3.17-1.26
		S151.23,74.36,151.23,72.78z M152.86,72.78c0,1.2,0.26,2.09,0.78,2.68c0.52,0.6,1.18,0.89,1.97,0.89c0.79,0,1.44-0.3,1.96-0.9
		s0.78-1.51,0.78-2.73c0-1.15-0.26-2.03-0.79-2.62c-0.52-0.59-1.18-0.89-1.96-0.89c-0.79,0-1.45,0.3-1.97,0.89
		S152.86,71.58,152.86,72.78z"/>
	<path fill="#5A5A5A" d="M161.83,77.45v-9.33h1.42v1.31c0.29-0.46,0.68-0.82,1.17-1.1s1.04-0.42,1.66-0.42
		c0.69,0,1.26,0.14,1.7,0.43s0.75,0.69,0.94,1.2c0.74-1.09,1.7-1.63,2.88-1.63c0.93,0,1.64,0.26,2.14,0.77s0.75,1.3,0.75,2.37v6.41
		h-1.57v-5.88c0-0.63-0.05-1.09-0.15-1.37s-0.29-0.5-0.56-0.67s-0.59-0.25-0.95-0.25c-0.66,0-1.2,0.22-1.63,0.65
		c-0.43,0.44-0.65,1.14-0.65,2.1v5.42h-1.58v-6.06c0-0.7-0.13-1.23-0.39-1.58s-0.68-0.53-1.27-0.53c-0.45,0-0.86,0.12-1.23,0.35
		s-0.65,0.58-0.82,1.03s-0.25,1.1-0.25,1.95v4.84H161.83z"/>
	<path fill="#5A5A5A" d="M176.83,77.45v-9.33h1.42v1.31c0.29-0.46,0.68-0.82,1.17-1.1s1.04-0.42,1.66-0.42
		c0.69,0,1.26,0.14,1.7,0.43s0.75,0.69,0.94,1.2c0.74-1.09,1.7-1.63,2.88-1.63c0.93,0,1.64,0.26,2.14,0.77s0.75,1.3,0.75,2.37v6.41
		h-1.57v-5.88c0-0.63-0.05-1.09-0.15-1.37s-0.29-0.5-0.56-0.67s-0.59-0.25-0.95-0.25c-0.66,0-1.2,0.22-1.63,0.65
		c-0.43,0.44-0.65,1.14-0.65,2.1v5.42h-1.58v-6.06c0-0.7-0.13-1.23-0.39-1.58s-0.68-0.53-1.27-0.53c-0.45,0-0.86,0.12-1.23,0.35
		s-0.65,0.58-0.82,1.03s-0.25,1.1-0.25,1.95v4.84H176.83z"/>
	<path fill="#5A5A5A" d="M191.83,66.38v-1.82h1.58v1.82H191.83z M191.83,77.45v-9.33h1.58v9.33H191.83z"/>
	<path fill="#5A5A5A" d="M195.19,74.66l1.56-0.25c0.09,0.63,0.33,1.11,0.73,1.44s0.96,0.5,1.68,0.5c0.73,0,1.27-0.15,1.62-0.44
		s0.53-0.64,0.53-1.04c0-0.36-0.16-0.64-0.47-0.84c-0.22-0.14-0.76-0.32-1.62-0.54c-1.16-0.29-1.96-0.55-2.41-0.76
		s-0.79-0.51-1.02-0.89c-0.23-0.38-0.35-0.79-0.35-1.25c0-0.42,0.1-0.8,0.29-1.16c0.19-0.35,0.45-0.65,0.78-0.88
		c0.25-0.18,0.58-0.33,1.01-0.46s0.88-0.19,1.37-0.19c0.73,0,1.38,0.11,1.93,0.32s0.96,0.5,1.23,0.86c0.26,0.36,0.45,0.84,0.54,1.45
		l-1.55,0.21c-0.07-0.48-0.27-0.86-0.61-1.12s-0.81-0.4-1.43-0.4c-0.73,0-1.25,0.12-1.56,0.36s-0.47,0.52-0.47,0.84
		c0,0.21,0.06,0.39,0.19,0.55c0.13,0.17,0.33,0.31,0.61,0.42c0.16,0.06,0.62,0.19,1.4,0.4c1.12,0.3,1.9,0.54,2.34,0.73
		s0.79,0.47,1.04,0.83s0.38,0.81,0.38,1.35c0,0.53-0.15,1.02-0.46,1.49c-0.31,0.46-0.75,0.83-1.33,1.08
		c-0.58,0.26-1.24,0.38-1.97,0.38c-1.21,0-2.14-0.25-2.77-0.76S195.36,75.65,195.19,74.66z"/>
	<path fill="#5A5A5A" d="M204.19,74.66l1.56-0.25c0.09,0.63,0.33,1.11,0.73,1.44s0.96,0.5,1.68,0.5c0.73,0,1.27-0.15,1.62-0.44
		s0.53-0.64,0.53-1.04c0-0.36-0.16-0.64-0.47-0.84c-0.22-0.14-0.76-0.32-1.62-0.54c-1.16-0.29-1.96-0.55-2.41-0.76
		s-0.79-0.51-1.02-0.89c-0.23-0.38-0.35-0.79-0.35-1.25c0-0.42,0.1-0.8,0.29-1.16c0.19-0.35,0.45-0.65,0.78-0.88
		c0.25-0.18,0.58-0.33,1.01-0.46s0.88-0.19,1.37-0.19c0.73,0,1.38,0.11,1.93,0.32s0.96,0.5,1.23,0.86c0.26,0.36,0.45,0.84,0.54,1.45
		l-1.55,0.21c-0.07-0.48-0.27-0.86-0.61-1.12s-0.81-0.4-1.43-0.4c-0.73,0-1.25,0.12-1.56,0.36s-0.47,0.52-0.47,0.84
		c0,0.21,0.06,0.39,0.19,0.55c0.13,0.17,0.33,0.31,0.61,0.42c0.16,0.06,0.62,0.19,1.4,0.4c1.12,0.3,1.9,0.54,2.34,0.73
		s0.79,0.47,1.04,0.83s0.38,0.81,0.38,1.35c0,0.53-0.15,1.02-0.46,1.49c-0.31,0.46-0.75,0.83-1.33,1.08
		c-0.58,0.26-1.24,0.38-1.97,0.38c-1.21,0-2.14-0.25-2.77-0.76S204.36,75.65,204.19,74.66z"/>
	<path fill="#5A5A5A" d="M213.83,66.38v-1.82h1.58v1.82H213.83z M213.83,77.45v-9.33h1.58v9.33H213.83z"/>
	<path fill="#5A5A5A" d="M217.23,72.78c0-1.73,0.48-3.01,1.44-3.84c0.8-0.69,1.78-1.04,2.94-1.04c1.28,0,2.33,0.42,3.15,1.26
		s1.22,2,1.22,3.48c0,1.2-0.18,2.15-0.54,2.83c-0.36,0.69-0.88,1.22-1.57,1.6s-1.44,0.57-2.25,0.57c-1.31,0-2.36-0.42-3.17-1.26
		S217.23,74.36,217.23,72.78z M218.86,72.78c0,1.2,0.26,2.09,0.78,2.68c0.52,0.6,1.18,0.89,1.97,0.89c0.79,0,1.44-0.3,1.96-0.9
		s0.78-1.51,0.78-2.73c0-1.15-0.26-2.03-0.79-2.62c-0.52-0.59-1.18-0.89-1.96-0.89c-0.79,0-1.45,0.3-1.97,0.89
		S218.86,71.58,218.86,72.78z"/>
	<path fill="#5A5A5A" d="M227.83,77.45v-9.33h1.42v1.33c0.69-1.03,1.68-1.54,2.97-1.54c0.56,0,1.08,0.1,1.55,0.3
		c0.47,0.2,0.82,0.47,1.06,0.8s0.4,0.72,0.49,1.17c0.06,0.29,0.09,0.81,0.09,1.54v5.74h-1.58v-5.68c0-0.64-0.06-1.13-0.18-1.45
		s-0.34-0.57-0.65-0.77c-0.31-0.19-0.68-0.29-1.1-0.29c-0.67,0-1.26,0.21-1.74,0.64s-0.73,1.24-0.73,2.43v5.1H227.83z"/>
	<path fill="#5A5A5A" d="M245.86,81.24c-0.87-1.1-1.61-2.39-2.21-3.87s-0.91-3.01-0.91-4.59c0-1.39,0.23-2.73,0.68-4.01
		c0.53-1.48,1.34-2.96,2.44-4.43H247c-0.71,1.22-1.18,2.09-1.41,2.61c-0.36,0.81-0.64,1.65-0.84,2.53c-0.25,1.1-0.38,2.2-0.38,3.3
		c0,2.82,0.88,5.63,2.63,8.45H245.86z"/>
	<path fill="#5A5A5A" d="M252.32,77.45V66.08h-4.25v-1.52h10.21v1.52h-4.26v11.36H252.32z"/>
	<path fill="#5A5A5A" d="M263.31,77.45V66.08h-4.25v-1.52h10.21v1.52h-4.26v11.36H263.31z"/>
	<path fill="#5A5A5A" d="M280.22,72.93l1.71,0.43c-0.36,1.4-1,2.47-1.93,3.2s-2.06,1.1-3.41,1.1c-1.39,0-2.52-0.28-3.39-0.85
		c-0.87-0.56-1.53-1.38-1.99-2.46s-0.68-2.22-0.68-3.45c0-1.34,0.26-2.51,0.77-3.51c0.51-1,1.24-1.76,2.19-2.28
		c0.95-0.52,1.99-0.78,3.12-0.78c1.29,0,2.37,0.33,3.25,0.98s1.49,1.58,1.84,2.77l-1.68,0.4c-0.3-0.94-0.73-1.62-1.3-2.05
		s-1.28-0.64-2.14-0.64c-0.99,0-1.82,0.24-2.48,0.71s-1.13,1.11-1.4,1.91c-0.27,0.8-0.4,1.62-0.4,2.47c0,1.1,0.16,2.05,0.48,2.87
		c0.32,0.82,0.82,1.43,1.49,1.83s1.4,0.61,2.19,0.61c0.96,0,1.76-0.28,2.43-0.83S279.99,74.01,280.22,72.93z"/>
	<path fill="#5A5A5A" d="M284.86,81.24h-1.13c1.75-2.81,2.63-5.63,2.63-8.45c0-1.1-0.13-2.19-0.38-3.28
		c-0.2-0.88-0.48-1.72-0.83-2.53c-0.23-0.53-0.7-1.41-1.42-2.64h1.13c1.1,1.47,1.92,2.95,2.44,4.43c0.45,1.28,0.68,2.61,0.68,4.01
		c0,1.58-0.3,3.11-0.91,4.59S285.73,80.13,284.86,81.24z"/>
	<path fill="#5A5A5A" d="M294.59,71.14c0-0.62,0.22-1.14,0.65-1.57s0.96-0.65,1.57-0.65c0.62,0,1.14,0.22,1.58,0.65
		s0.65,0.96,0.65,1.57s-0.22,1.14-0.65,1.58s-0.96,0.65-1.58,0.65c-0.61,0-1.13-0.22-1.57-0.65S294.59,71.75,294.59,71.14z"/>
	<path fill="#5A5A5A" d="M309.28,77.45V66.08h-4.25v-1.52h10.21v1.52h-4.26v11.36H309.28z"/>
	<path fill="#5A5A5A" d="M314.21,72.78c0-1.73,0.48-3.01,1.44-3.84c0.8-0.69,1.78-1.04,2.94-1.04c1.28,0,2.33,0.42,3.15,1.26
		s1.22,2,1.22,3.48c0,1.2-0.18,2.15-0.54,2.83c-0.36,0.69-0.88,1.22-1.57,1.6s-1.44,0.57-2.25,0.57c-1.31,0-2.36-0.42-3.17-1.26
		S314.21,74.36,314.21,72.78z M315.83,72.78c0,1.2,0.26,2.09,0.78,2.68c0.52,0.6,1.18,0.89,1.97,0.89c0.79,0,1.44-0.3,1.96-0.9
		s0.78-1.51,0.78-2.73c0-1.15-0.26-2.03-0.79-2.62c-0.52-0.59-1.18-0.89-1.96-0.89c-0.79,0-1.45,0.3-1.97,0.89
		S315.83,71.58,315.83,72.78z"/>
	<path fill="#5A5A5A" d="M324.79,77.45v-9.33h1.42v1.42c0.36-0.66,0.7-1.1,1.01-1.31s0.65-0.32,1.02-0.32
		c0.53,0,1.08,0.17,1.63,0.51l-0.54,1.47c-0.39-0.23-0.77-0.34-1.16-0.34c-0.35,0-0.66,0.1-0.93,0.31s-0.47,0.5-0.59,0.87
		c-0.18,0.56-0.26,1.18-0.26,1.85v4.89H324.79z"/>
	<path fill="#5A5A5A" d="M330.21,72.78c0-1.73,0.48-3.01,1.44-3.84c0.8-0.69,1.78-1.04,2.94-1.04c1.28,0,2.33,0.42,3.15,1.26
		s1.22,2,1.22,3.48c0,1.2-0.18,2.15-0.54,2.83c-0.36,0.69-0.88,1.22-1.57,1.6s-1.44,0.57-2.25,0.57c-1.31,0-2.36-0.42-3.17-1.26
		S330.21,74.36,330.21,72.78z M331.84,72.78c0,1.2,0.26,2.09,0.78,2.68c0.52,0.6,1.18,0.89,1.97,0.89c0.79,0,1.44-0.3,1.96-0.9
		s0.78-1.51,0.78-2.73c0-1.15-0.26-2.03-0.79-2.62c-0.52-0.59-1.18-0.89-1.96-0.89c-0.79,0-1.45,0.3-1.97,0.89
		S331.84,71.58,331.84,72.78z"/>
	<path fill="#5A5A5A" d="M340.81,77.45v-9.33h1.42v1.33c0.69-1.03,1.68-1.54,2.97-1.54c0.56,0,1.08,0.1,1.55,0.3
		c0.47,0.2,0.82,0.47,1.06,0.8s0.4,0.72,0.49,1.17c0.06,0.29,0.09,0.81,0.09,1.54v5.74h-1.58v-5.68c0-0.64-0.06-1.13-0.18-1.45
		s-0.34-0.57-0.65-0.77c-0.31-0.19-0.68-0.29-1.1-0.29c-0.67,0-1.26,0.21-1.74,0.64s-0.73,1.24-0.73,2.43v5.1H340.81z"/>
	<path fill="#5A5A5A" d="M354.28,76.03l0.23,1.4c-0.45,0.09-0.84,0.14-1.2,0.14c-0.57,0-1.02-0.09-1.34-0.27s-0.54-0.42-0.67-0.72
		s-0.19-0.92-0.19-1.87v-5.37h-1.16v-1.23h1.16V65.8l1.57-0.95v3.26h1.59v1.23h-1.59v5.46c0,0.45,0.03,0.74,0.08,0.87
		s0.15,0.23,0.27,0.31s0.31,0.11,0.54,0.11C353.76,76.09,353.99,76.07,354.28,76.03z"/>
	<path fill="#5A5A5A" d="M355.24,72.78c0-1.73,0.48-3.01,1.44-3.84c0.8-0.69,1.78-1.04,2.94-1.04c1.28,0,2.33,0.42,3.15,1.26
		s1.22,2,1.22,3.48c0,1.2-0.18,2.15-0.54,2.83c-0.36,0.69-0.88,1.22-1.57,1.6s-1.44,0.57-2.25,0.57c-1.31,0-2.36-0.42-3.17-1.26
		S355.24,74.36,355.24,72.78z M356.86,72.78c0,1.2,0.26,2.09,0.78,2.68c0.52,0.6,1.18,0.89,1.97,0.89c0.79,0,1.44-0.3,1.96-0.9
		s0.78-1.51,0.78-2.73c0-1.15-0.26-2.03-0.79-2.62c-0.52-0.59-1.18-0.89-1.96-0.89c-0.79,0-1.45,0.3-1.97,0.89
		S356.86,71.58,356.86,72.78z"/>
	<path fill="#5A5A5A" d="M370.61,71.14c0-0.62,0.22-1.14,0.65-1.57s0.96-0.65,1.57-0.65c0.62,0,1.14,0.22,1.58,0.65
		s0.65,0.96,0.65,1.57s-0.22,1.14-0.65,1.58s-0.96,0.65-1.58,0.65c-0.61,0-1.13-0.22-1.57-0.65S370.61,71.75,370.61,71.14z"/>
	<path fill="#5A5A5A" d="M390.01,75.93v1.52h-8.52c-0.01-0.38,0.05-0.75,0.18-1.1c0.22-0.58,0.56-1.15,1.04-1.71
		s1.17-1.21,2.07-1.95c1.4-1.15,2.35-2.06,2.84-2.73s0.74-1.31,0.74-1.9c0-0.63-0.22-1.16-0.67-1.59c-0.45-0.43-1.03-0.65-1.75-0.65
		c-0.76,0-1.37,0.23-1.83,0.69s-0.69,1.09-0.69,1.9l-1.63-0.17c0.11-1.21,0.53-2.14,1.26-2.77c0.73-0.63,1.7-0.95,2.93-0.95
		c1.24,0,2.21,0.34,2.94,1.03s1.08,1.54,1.08,2.55c0,0.52-0.11,1.02-0.32,1.52s-0.56,1.02-1.05,1.57s-1.3,1.31-2.44,2.27
		c-0.95,0.8-1.56,1.34-1.83,1.62s-0.49,0.57-0.67,0.86H390.01z"/>
	<path fill="#5A5A5A" d="M391.71,71.09c0-1.52,0.16-2.75,0.47-3.68c0.31-0.93,0.78-1.64,1.4-2.15s1.4-0.76,2.33-0.76
		c0.69,0,1.3,0.14,1.82,0.42s0.95,0.68,1.29,1.2c0.34,0.53,0.61,1.16,0.8,1.92c0.19,0.75,0.29,1.77,0.29,3.05
		c0,1.51-0.16,2.73-0.47,3.66s-0.77,1.65-1.39,2.15c-0.62,0.51-1.4,0.76-2.34,0.76c-1.24,0-2.22-0.45-2.93-1.34
		C392.13,75.26,391.71,73.51,391.71,71.09z M393.34,71.09c0,2.12,0.25,3.52,0.74,4.22s1.11,1.05,1.83,1.05s1.34-0.35,1.83-1.05
		s0.74-2.11,0.74-4.22c0-2.12-0.25-3.53-0.74-4.23s-1.11-1.05-1.85-1.05c-0.73,0-1.31,0.31-1.74,0.92
		C393.61,67.53,393.34,68.98,393.34,71.09z"/>
	<path fill="#5A5A5A" d="M401.72,71.09c0-1.52,0.16-2.75,0.47-3.68c0.31-0.93,0.78-1.64,1.4-2.15s1.4-0.76,2.33-0.76
		c0.69,0,1.3,0.14,1.82,0.42s0.95,0.68,1.29,1.2c0.34,0.53,0.61,1.16,0.8,1.92c0.19,0.75,0.29,1.77,0.29,3.05
		c0,1.51-0.16,2.73-0.47,3.66s-0.77,1.65-1.39,2.15c-0.62,0.51-1.4,0.76-2.34,0.76c-1.24,0-2.22-0.45-2.93-1.34
		C402.15,75.26,401.72,73.51,401.72,71.09z M403.35,71.09c0,2.12,0.25,3.52,0.74,4.22s1.11,1.05,1.83,1.05s1.34-0.35,1.83-1.05
		s0.74-2.11,0.74-4.22c0-2.12-0.25-3.53-0.74-4.23s-1.11-1.05-1.85-1.05c-0.73,0-1.31,0.31-1.74,0.92
		C403.62,67.53,403.35,68.98,403.35,71.09z"/>
	<path fill="#5A5A5A" d="M420.05,75.93v1.52h-8.52c-0.01-0.38,0.05-0.75,0.18-1.1c0.22-0.58,0.56-1.15,1.04-1.71
		s1.17-1.21,2.07-1.95c1.4-1.15,2.35-2.06,2.84-2.73s0.74-1.31,0.74-1.9c0-0.63-0.22-1.16-0.67-1.59c-0.45-0.43-1.03-0.65-1.75-0.65
		c-0.76,0-1.37,0.23-1.83,0.69s-0.69,1.09-0.69,1.9l-1.63-0.17c0.11-1.21,0.53-2.14,1.26-2.77c0.73-0.63,1.7-0.95,2.93-0.95
		c1.24,0,2.21,0.34,2.94,1.03s1.08,1.54,1.08,2.55c0,0.52-0.11,1.02-0.32,1.52s-0.56,1.02-1.05,1.57s-1.3,1.31-2.44,2.27
		c-0.95,0.8-1.56,1.34-1.83,1.62s-0.49,0.57-0.67,0.86H420.05z"/>
</g>
</svg>
