<?xml version="1.0" encoding="iso-8859-1"?>
<!-- Generator: Adobe Illustrator 29.8.4, SVG Export Plug-In . SVG Version: 9.03 Build 0)  -->
<svg version="1.1" id="Layer_1" xmlns="http://www.w3.org/2000/svg" xmlns:xlink="http://www.w3.org/1999/xlink" x="0px" y="0px"
	 viewBox="0 0 1600 284" enable-background="new 0 0 1600 284" xml:space="preserve">
<rect id="bg-white" fill="#FFFFFF" width="1600" height="284"/>
<line fill="none" stroke="#000000" stroke-width="8" stroke-linecap="round" stroke-miterlimit="10" x1="100" y1="249" x2="1500" y2="249"/>
<circle fill="#FFFFFF" stroke="#000000" stroke-width="3" stroke-miterlimit="10" cx="100" cy="249" r="10"/>
<g>
	<path d="M97.41,230.41c0.31,0.08,0.6,0.04,0.85-0.14c0.26-0.18,0.66-0.65,1.21-1.42c0.55-0.77,1.04-1.3,1.49-1.6
		c0.72-0.5,1.59-0.61,2.62-0.34s1.79,0.86,2.27,1.73c0.48,0.88,0.57,1.89,0.26,3.03c-0.42,1.55-1.45,2.61-3.09,3.2l-0.96-1.74
		c1.11-0.25,1.8-0.88,2.07-1.9c0.13-0.49,0.1-0.94-0.11-1.33c-0.21-0.39-0.53-0.65-0.99-0.77c-0.46-0.12-0.87-0.03-1.25,0.29
		c-0.19,0.15-0.57,0.64-1.14,1.46c-0.57,0.82-1.14,1.37-1.69,1.66s-1.19,0.33-1.91,0.14c-0.92-0.25-1.6-0.77-2.02-1.58
		s-0.51-1.7-0.25-2.69c0.33-1.22,1.02-2.18,2.08-2.9l1.16,1.51c-0.73,0.36-1.19,0.88-1.36,1.54c-0.12,0.44-0.1,0.83,0.06,1.19
		C96.86,230.11,97.1,230.33,97.41,230.41z"/>
	<path d="M102.49,222.55l5.39,1.44l-0.53,1.99l-5.39-1.44l-0.21,0.79l-1.72-0.46l0.21-0.79l-2.43-0.65l0.53-1.99l2.43,0.65
		l0.38-1.41l1.72,0.46L102.49,222.55z"/>
	<path d="M107.18,213.67l-1.43,5.33c1.29,0.29,2.08-0.12,2.37-1.23c0.18-0.69,0.01-1.34-0.5-1.95l0.79-1.76
		c1.31,1.01,1.74,2.36,1.29,4.08c-0.31,1.16-0.9,1.99-1.78,2.5c-0.88,0.51-1.88,0.61-3.03,0.3c-1.15-0.31-1.97-0.89-2.48-1.75
		s-0.61-1.86-0.31-2.99s0.89-1.93,1.74-2.39c0.86-0.47,1.88-0.54,3.08-0.22L107.18,213.67z M104.5,218.59l0.9-3.37
		c-1-0.04-1.62,0.41-1.87,1.31C103.31,217.41,103.65,218.19,104.5,218.59z"/>
	<path d="M109.46,205.17l-1.43,5.33c1.29,0.29,2.08-0.12,2.37-1.23c0.18-0.69,0.01-1.34-0.5-1.95l0.79-1.76
		c1.31,1.01,1.74,2.37,1.29,4.07c-0.31,1.16-0.9,1.99-1.78,2.51c-0.88,0.51-1.88,0.61-3.03,0.3c-1.15-0.31-1.97-0.89-2.48-1.75
		s-0.61-1.86-0.31-2.99c0.3-1.13,0.89-1.93,1.74-2.39c0.86-0.47,1.88-0.54,3.08-0.22L109.46,205.17z M106.78,210.1l0.9-3.37
		c-1-0.04-1.62,0.41-1.87,1.31C105.58,208.92,105.93,209.69,106.78,210.1z"/>
	<path d="M101.34,199.19l12.3,3.3l-0.53,1.99l-12.3-3.3L101.34,199.19z"/>
	<path d="M112.79,192.73l-1.43,5.33c1.29,0.29,2.08-0.12,2.37-1.23c0.18-0.69,0.01-1.34-0.5-1.95l0.79-1.76
		c1.31,1.01,1.74,2.37,1.29,4.07c-0.31,1.16-0.9,1.99-1.78,2.5c-0.88,0.51-1.88,0.61-3.03,0.31c-1.15-0.31-1.97-0.89-2.48-1.75
		s-0.61-1.86-0.31-2.99s0.89-1.93,1.74-2.4c0.86-0.47,1.88-0.54,3.08-0.22L112.79,192.73z M110.11,197.66l0.9-3.37
		c-1-0.04-1.62,0.41-1.86,1.31C108.92,196.48,109.26,197.25,110.11,197.66z"/>
	<path d="M111.99,186.85c-0.43,0.33-0.68,0.64-0.76,0.94c-0.08,0.3-0.08,0.53-0.01,0.71c0.08,0.18,0.21,0.3,0.37,0.34
		s0.32,0.01,0.47-0.12c0.14-0.12,0.38-0.44,0.72-0.94c0.34-0.5,0.65-0.87,0.92-1.08c0.5-0.43,1.11-0.55,1.82-0.36
		c0.71,0.19,1.24,0.63,1.57,1.31c0.33,0.69,0.38,1.48,0.14,2.35c-0.29,1.07-0.92,1.87-1.91,2.38l-0.93-1.37
		c0.7-0.4,1.13-0.89,1.28-1.46c0.14-0.5-0.11-1-0.54-1.12c-0.22-0.06-0.39-0.04-0.54,0.07c-0.14,0.11-0.4,0.42-0.76,0.94
		c-0.36,0.52-0.65,0.87-0.88,1.04c-0.46,0.39-1.01,0.49-1.67,0.31c-0.67-0.18-1.14-0.56-1.43-1.16c-0.3-0.59-0.33-1.28-0.12-2.09
		s0.67-1.47,1.36-2.02L111.99,186.85z"/>
	<path d="M118.78,174.03l-1.2,4.48l2.05,1.61l-0.61,2.27l-9.91-7.74l0.43-1.61l12.42-1.6l-0.61,2.29L118.78,174.03z M116.88,174.24
		l-4.35,0.48l3.51,2.64L116.88,174.24z"/>
	<path d="M115.36,167.64l4.53-0.79l-3.53-2.93l0.6-2.24l6.28,5.61l-0.24,0.9l-8.23,1.69L115.36,167.64z"/>
	<path d="M122.87,155.1l-1.43,5.33c1.29,0.29,2.08-0.12,2.37-1.23c0.19-0.69,0.02-1.34-0.5-1.95l0.79-1.76
		c1.31,1.01,1.74,2.37,1.29,4.08c-0.31,1.16-0.9,1.99-1.78,2.5c-0.88,0.51-1.88,0.61-3.03,0.3c-1.15-0.31-1.97-0.89-2.48-1.75
		c-0.51-0.87-0.61-1.86-0.31-2.99c0.3-1.13,0.89-1.93,1.74-2.4c0.86-0.47,1.88-0.54,3.08-0.22L122.87,155.1z M120.2,160.03l0.9-3.37
		c-1-0.04-1.62,0.41-1.86,1.31C119,158.85,119.34,159.62,120.2,160.03z"/>
	<path d="M119.4,152.56l0.53-1.99l0.89,0.24c-0.65-0.83-0.78-1.57-0.52-2.53c0.23-0.87,0.7-1.49,1.41-1.84
		c0.53-0.26,1.23-0.27,2.12-0.03l4.52,1.21l-0.53,1.99l-3.95-1.06c-0.54-0.15-0.95-0.19-1.2-0.11c-0.43,0.11-0.72,0.44-0.87,1.01
		c-0.27,1,0.25,1.68,1.57,2.04l3.68,0.99l-0.53,1.99L119.4,152.56z"/>
	<path d="M122.27,141.82l4.03,1.08c1.08,0.29,1.76-0.04,2.02-1.02c0.26-0.97-0.16-1.6-1.24-1.89l-4.03-1.08l0.53-1.99l4.35,1.17
		c1.92,0.52,2.66,2.02,2.07,4.23c-0.59,2.21-1.99,3.16-3.91,2.65l-4.35-1.17L122.27,141.82z"/>
	<path d="M129.85,129.08l-1.43,5.33c1.29,0.29,2.08-0.12,2.37-1.23c0.18-0.69,0.01-1.34-0.5-1.95l0.79-1.76
		c1.31,1.01,1.74,2.37,1.29,4.08c-0.31,1.16-0.9,1.99-1.78,2.5c-0.88,0.51-1.88,0.61-3.03,0.31c-1.15-0.31-1.97-0.89-2.48-1.75
		c-0.51-0.87-0.61-1.86-0.31-2.99c0.3-1.13,0.89-1.93,1.74-2.4c0.86-0.47,1.88-0.54,3.08-0.22L129.85,129.08z M127.17,134l0.9-3.37
		c-1-0.04-1.62,0.41-1.86,1.31C125.97,132.83,126.32,133.6,127.17,134z"/>
</g>
<circle fill="#FFFFFF" stroke="#000000" stroke-width="3" stroke-miterlimit="10" cx="177.78" cy="249" r="10"/>
<g>
	<path d="M176.91,224.59c-1.05,0.61-1.7,1.41-1.96,2.39c-0.26,0.98-0.12,1.91,0.43,2.8c0.54,0.89,1.36,1.48,2.42,1.77
		c1.07,0.29,2.05,0.18,2.95-0.33c0.9-0.5,1.48-1.27,1.76-2.3c0.14-0.51,0.17-0.99,0.09-1.44c-0.08-0.45-0.27-0.95-0.58-1.51
		l2.51,0.67c0.18,1.04,0.16,1.98-0.08,2.85c-0.43,1.62-1.35,2.84-2.74,3.66c-1.4,0.82-2.89,1.02-4.48,0.6
		c-1.6-0.43-2.8-1.35-3.63-2.79c-0.83-1.43-1.02-2.95-0.6-4.54c0.24-0.89,0.7-1.72,1.39-2.5L176.91,224.59z"/>
	<path d="M179.02,219.42c0.32-1.2,0.93-2.07,1.83-2.63c0.9-0.56,1.91-0.69,3.04-0.39c1.12,0.3,1.94,0.92,2.43,1.86
		c0.49,0.95,0.58,2.02,0.26,3.23s-0.95,2.08-1.86,2.64c-0.91,0.55-1.92,0.68-3.03,0.38c-1.11-0.3-1.92-0.93-2.41-1.88
		C178.78,221.7,178.7,220.62,179.02,219.42z M180.8,219.92c-0.15,0.55-0.08,1.08,0.2,1.57c0.28,0.5,0.7,0.82,1.25,0.97
		s1.08,0.08,1.57-0.21c0.5-0.29,0.82-0.71,0.96-1.26c0.15-0.55,0.08-1.09-0.2-1.58c-0.28-0.5-0.69-0.81-1.25-0.96
		s-1.07-0.08-1.57,0.21C181.27,218.95,180.95,219.37,180.8,219.92z"/>
	<path d="M181.27,211.93l4.03,1.08c1.08,0.29,1.76-0.04,2.02-1.02s-0.16-1.6-1.24-1.89l-4.03-1.08l0.53-1.99l4.35,1.17
		c1.92,0.52,2.66,2.02,2.07,4.23s-1.99,3.16-3.91,2.65l-4.35-1.17L181.27,211.93z"/>
	<path d="M183.08,205.14l0.53-1.99l0.89,0.24c-0.65-0.83-0.78-1.57-0.52-2.53c0.23-0.87,0.7-1.49,1.41-1.84
		c0.52-0.26,1.23-0.27,2.12-0.03l4.51,1.21l-0.53,1.99l-3.94-1.06c-0.54-0.15-0.95-0.18-1.2-0.11c-0.43,0.11-0.72,0.44-0.87,1.01
		c-0.27,1,0.25,1.68,1.57,2.04l3.68,0.99l-0.53,1.99L183.08,205.14z"/>
	<path d="M187.69,194.85l5.39,1.44l-0.53,1.99l-5.39-1.44l-0.21,0.79l-1.72-0.46l0.21-0.79l-2.43-0.65l0.53-1.99l2.43,0.65
		l0.38-1.41l1.72,0.46L187.69,194.85z"/>
	<path d="M193.43,190.66l-6.93,1.75l0.62-2.32l4.61-1.05l-3.5-3.1l0.61-2.29l9.36,8.67l-0.6,2.25L193.43,190.66z"/>
	<path d="M191.5,170.14c-1.05,0.61-1.7,1.41-1.96,2.39c-0.26,0.98-0.12,1.91,0.43,2.79c0.54,0.89,1.36,1.48,2.42,1.77
		c1.07,0.29,2.05,0.18,2.95-0.33c0.9-0.5,1.48-1.27,1.76-2.3c0.14-0.51,0.17-0.99,0.09-1.44c-0.08-0.45-0.27-0.95-0.58-1.51
		l2.51,0.67c0.18,1.04,0.16,1.98-0.08,2.85c-0.43,1.62-1.35,2.84-2.74,3.67c-1.4,0.82-2.89,1.02-4.48,0.59s-2.8-1.35-3.63-2.79
		c-0.83-1.43-1.02-2.95-0.6-4.54c0.24-0.89,0.7-1.72,1.39-2.5L191.5,170.14z"/>
	<path d="M193.61,164.97c0.32-1.19,0.93-2.07,1.83-2.63c0.9-0.56,1.91-0.69,3.04-0.39c1.12,0.3,1.94,0.92,2.43,1.86
		c0.49,0.95,0.58,2.02,0.26,3.23c-0.32,1.21-0.95,2.08-1.86,2.64c-0.91,0.55-1.92,0.68-3.03,0.38s-1.92-0.93-2.41-1.88
		C193.37,167.25,193.29,166.17,193.61,164.97z M195.39,165.47c-0.15,0.55-0.08,1.08,0.2,1.57c0.28,0.5,0.7,0.82,1.25,0.97
		c0.55,0.15,1.08,0.08,1.57-0.21c0.5-0.29,0.82-0.71,0.96-1.26c0.15-0.55,0.08-1.09-0.2-1.58c-0.28-0.5-0.69-0.81-1.25-0.96
		c-0.55-0.15-1.07-0.08-1.57,0.21C195.86,164.5,195.54,164.92,195.39,165.47z"/>
	<path d="M195.86,157.48l4.03,1.08c1.08,0.29,1.76-0.04,2.02-1.01c0.26-0.97-0.16-1.6-1.24-1.89l-4.03-1.08l0.53-1.99l4.35,1.17
		c1.92,0.52,2.66,2.02,2.07,4.23c-0.59,2.21-1.99,3.16-3.91,2.65l-4.35-1.17L195.86,157.48z"/>
	<path d="M205.32,150.6l-0.53,1.99l-7.11-1.91l0.53-1.99l1.08,0.29c-0.74-0.72-1-1.53-0.75-2.42c0.07-0.28,0.21-0.55,0.41-0.82
		l1.78,0.78c-0.25,0.25-0.41,0.54-0.49,0.88c-0.3,1.14,0.26,1.9,1.67,2.28L205.32,150.6z"/>
	<path d="M201.64,142.78l5.39,1.44l-0.53,1.99l-5.39-1.44l-0.21,0.79l-1.72-0.46l0.21-0.79l-2.43-0.65l0.53-1.99l2.43,0.65
		l0.38-1.41l1.72,0.46L201.64,142.78z"/>
</g>
<circle fill="#FFFFFF" stroke="#000000" stroke-width="3" stroke-miterlimit="10" cx="255.56" cy="249" r="10"/>
<g>
	<path d="M256.75,231.32l4.4,1.18l-0.57,2.13l-10.95-2.93l0.85-3.17c0.33-1.24,0.84-2.1,1.52-2.58c0.79-0.56,1.72-0.7,2.75-0.42
		c1.04,0.28,1.76,0.82,2.15,1.63c0.25,0.5,0.35,1.06,0.29,1.69l5.54-2.21l-0.71,2.63l-5.19,1.77L256.75,231.32z M255.25,230.92
		l0.17-0.63c0.36-1.35-0.05-2.25-1.12-2.53c-1.1-0.29-1.83,0.24-2.19,1.61l-0.18,0.66L255.25,230.92z"/>
	<path d="M257.31,218.4l0.53-1.99l7.11,1.91l-0.53,1.99l-0.92-0.25c0.6,0.82,0.77,1.71,0.51,2.68c-0.26,0.97-0.84,1.69-1.74,2.16
		c-0.9,0.47-1.89,0.57-2.95,0.28c-1.07-0.29-1.88-0.87-2.43-1.73c-0.55-0.86-0.7-1.77-0.44-2.71c0.25-0.95,0.85-1.64,1.79-2.1
		L257.31,218.4z M258.4,220.59c-0.15,0.56-0.08,1.09,0.2,1.57c0.28,0.5,0.7,0.82,1.25,0.96c0.55,0.15,1.08,0.08,1.57-0.21
		c0.5-0.29,0.82-0.7,0.96-1.25c0.15-0.54,0.08-1.07-0.21-1.57c-0.28-0.5-0.69-0.81-1.25-0.96c-0.55-0.15-1.07-0.08-1.56,0.19
		C258.87,219.62,258.55,220.04,258.4,220.59z"/>
	<path d="M265.04,213.68l-6.93,1.75l0.62-2.32l4.61-1.05l-3.5-3.1l0.61-2.29l9.36,8.67l-0.6,2.25L265.04,213.68z"/>
	<path d="M258.62,198.13l9.1,2.44l0.9-3.37l1.85,0.5l-1.47,5.5l-10.95-2.93L258.62,198.13z"/>
	<path d="M265.16,189.09l0.53-1.99l7.11,1.91l-0.53,1.99l-0.92-0.25c0.6,0.82,0.77,1.71,0.51,2.68c-0.26,0.97-0.84,1.69-1.74,2.16
		c-0.9,0.47-1.89,0.57-2.95,0.28c-1.07-0.29-1.88-0.87-2.43-1.73c-0.55-0.86-0.7-1.77-0.44-2.71c0.25-0.95,0.85-1.64,1.79-2.1
		L265.16,189.09z M266.25,191.28c-0.15,0.56-0.08,1.09,0.2,1.57c0.28,0.5,0.7,0.82,1.25,0.96c0.55,0.15,1.08,0.08,1.57-0.21
		c0.5-0.29,0.81-0.7,0.96-1.25c0.15-0.54,0.08-1.07-0.21-1.57c-0.28-0.5-0.69-0.81-1.25-0.96c-0.55-0.15-1.07-0.08-1.56,0.19
		C266.72,190.3,266.4,190.72,266.25,191.28z"/>
	<path d="M266.56,183.88l4.61-0.77l-3.78-3.09l0.23-0.85l4.88-0.77l-3.66-3.02l0.6-2.22l6.27,5.62l-0.24,0.9l-4.83,0.77l3.81,3.05
		l-0.24,0.91l-8.23,1.7L266.56,183.88z"/>
	<path d="M272.32,169.01c-0.42,0.33-0.68,0.64-0.76,0.94c-0.08,0.3-0.08,0.53-0.01,0.71c0.08,0.18,0.21,0.29,0.37,0.34
		s0.32,0.01,0.47-0.11c0.14-0.12,0.38-0.44,0.72-0.94c0.34-0.5,0.65-0.87,0.92-1.08c0.5-0.42,1.11-0.54,1.82-0.35
		c0.71,0.19,1.24,0.63,1.56,1.31c0.33,0.69,0.38,1.48,0.14,2.35c-0.29,1.07-0.92,1.87-1.91,2.38l-0.93-1.37
		c0.7-0.4,1.13-0.89,1.28-1.46c0.14-0.5-0.11-1-0.54-1.12c-0.22-0.06-0.39-0.04-0.54,0.07c-0.14,0.11-0.4,0.42-0.76,0.94
		c-0.36,0.52-0.65,0.87-0.88,1.04c-0.46,0.39-1.01,0.49-1.67,0.31c-0.67-0.18-1.14-0.56-1.43-1.16c-0.3-0.59-0.33-1.28-0.12-2.09
		s0.67-1.47,1.36-2.02L272.32,169.01z"/>
	<path d="M272.17,162.04c0.32-1.19,0.93-2.07,1.83-2.63c0.9-0.56,1.91-0.69,3.04-0.39c1.12,0.3,1.94,0.92,2.43,1.86
		c0.49,0.95,0.58,2.02,0.26,3.23s-0.94,2.08-1.86,2.64s-1.92,0.68-3.03,0.38c-1.11-0.3-1.92-0.93-2.41-1.87
		C271.93,164.31,271.85,163.23,272.17,162.04z M273.95,162.54c-0.15,0.55-0.08,1.08,0.2,1.57c0.28,0.5,0.7,0.82,1.25,0.97
		c0.55,0.15,1.08,0.08,1.57-0.21c0.5-0.29,0.82-0.71,0.96-1.26c0.15-0.55,0.08-1.09-0.2-1.58c-0.28-0.5-0.69-0.81-1.25-0.96
		c-0.55-0.15-1.07-0.08-1.57,0.21C274.42,161.57,274.1,161.99,273.95,162.54z"/>
	<path d="M273.89,156.53l0.53-1.99l0.89,0.24c-0.65-0.83-0.78-1.57-0.52-2.53c0.23-0.87,0.7-1.49,1.41-1.84
		c0.53-0.26,1.23-0.27,2.12-0.03l4.51,1.21l-0.53,1.99l-3.95-1.06c-0.54-0.15-0.95-0.18-1.2-0.11c-0.43,0.11-0.72,0.44-0.87,1.01
		c-0.27,1,0.25,1.68,1.57,2.04l3.68,0.99l-0.53,1.99L273.89,156.53z"/>
</g>
<circle fill="#FFFFFF" stroke="#000000" stroke-width="3" stroke-miterlimit="10" cx="333.33" cy="249" r="10"/>
<g>
	<path d="M338.36,234.63l-10.95-2.93l0.84-3.13c0.43-1.6,1.2-2.79,2.32-3.58c0.67-0.48,1.42-0.8,2.25-0.94
		c0.83-0.15,1.65-0.11,2.47,0.11c0.82,0.22,1.55,0.6,2.2,1.15c0.65,0.55,1.15,1.21,1.49,1.97c0.58,1.22,0.65,2.63,0.22,4.24
		L338.36,234.63z M337.08,232l0.15-0.58c0.35-1.31,0.32-2.35-0.09-3.15c-0.45-0.92-1.39-1.64-2.44-1.93
		c-1.11-0.3-2.13-0.15-3.04,0.46c-0.77,0.5-1.33,1.39-1.67,2.68l-0.15,0.58L337.08,232z"/>
	<path d="M339.87,216.09l-1.43,5.33c1.29,0.29,2.08-0.12,2.37-1.23c0.18-0.69,0.01-1.34-0.5-1.95l0.79-1.76
		c1.31,1.01,1.74,2.37,1.29,4.08c-0.31,1.16-0.9,1.99-1.78,2.5c-0.88,0.51-1.88,0.61-3.03,0.31c-1.15-0.31-1.97-0.89-2.48-1.75
		c-0.51-0.87-0.61-1.86-0.31-2.99c0.3-1.13,0.89-1.93,1.74-2.4c0.86-0.47,1.88-0.54,3.08-0.22L339.87,216.09z M337.19,221.02
		l0.9-3.37c-1-0.04-1.62,0.41-1.86,1.31C335.99,219.84,336.34,220.61,337.19,221.02z"/>
	<path d="M344.03,213.46l-0.53,1.99l-7.11-1.91l0.53-1.99l1.08,0.29c-0.74-0.72-1-1.53-0.75-2.42c0.08-0.28,0.21-0.55,0.41-0.82
		l1.78,0.78c-0.25,0.25-0.41,0.54-0.5,0.88c-0.3,1.14,0.26,1.9,1.68,2.28L344.03,213.46z"/>
	<path d="M345.63,207.48l-0.53,1.99l-7.11-1.91l0.53-1.99l1.08,0.29c-0.74-0.72-1-1.53-0.75-2.42c0.08-0.28,0.21-0.55,0.41-0.82
		l1.78,0.78c-0.25,0.25-0.41,0.54-0.49,0.88c-0.31,1.14,0.25,1.9,1.67,2.28L345.63,207.48z"/>
	<path d="M346.39,200.34l-6.93,1.75l0.62-2.32l4.61-1.05l-3.5-3.1l0.61-2.29l9.36,8.67l-0.6,2.25L346.39,200.34z"/>
</g>
<circle fill="#FFFFFF" stroke="#000000" stroke-width="3" stroke-miterlimit="10" cx="411.11" cy="249" r="10"/>
<g>
	<path d="M410.24,224.59c-1.05,0.61-1.7,1.41-1.96,2.39c-0.26,0.98-0.12,1.91,0.43,2.8c0.54,0.89,1.36,1.48,2.42,1.77
		c1.07,0.29,2.05,0.18,2.95-0.33c0.9-0.5,1.48-1.27,1.76-2.3c0.14-0.51,0.17-0.99,0.09-1.44c-0.08-0.45-0.27-0.95-0.58-1.51
		l2.51,0.67c0.18,1.04,0.16,1.98-0.08,2.85c-0.43,1.62-1.35,2.84-2.74,3.66c-1.4,0.82-2.89,1.02-4.48,0.6
		c-1.6-0.43-2.8-1.35-3.63-2.79c-0.83-1.43-1.02-2.95-0.6-4.54c0.24-0.89,0.7-1.72,1.39-2.5L410.24,224.59z"/>
	<path d="M412.35,219.42c0.32-1.2,0.93-2.07,1.83-2.63c0.9-0.56,1.91-0.69,3.04-0.39c1.12,0.3,1.94,0.92,2.43,1.86
		c0.49,0.95,0.58,2.02,0.26,3.23s-0.95,2.08-1.86,2.64c-0.91,0.55-1.92,0.68-3.03,0.38c-1.11-0.3-1.92-0.93-2.41-1.88
		C412.11,221.7,412.03,220.62,412.35,219.42z M414.13,219.92c-0.15,0.55-0.08,1.08,0.2,1.57c0.28,0.5,0.7,0.82,1.25,0.97
		s1.08,0.08,1.57-0.21c0.5-0.29,0.82-0.71,0.96-1.26c0.15-0.55,0.08-1.09-0.2-1.58c-0.28-0.5-0.69-0.81-1.25-0.96
		s-1.07-0.08-1.57,0.21C414.6,218.95,414.28,219.37,414.13,219.92z"/>
	<path d="M414.6,211.93l4.03,1.08c1.08,0.29,1.76-0.04,2.02-1.02s-0.16-1.6-1.24-1.89l-4.03-1.08l0.53-1.99l4.35,1.17
		c1.92,0.52,2.66,2.02,2.07,4.23s-1.99,3.16-3.91,2.65l-4.35-1.17L414.6,211.93z"/>
	<path d="M424.06,205.05l-0.53,1.99l-7.11-1.91l0.53-1.99l1.08,0.29c-0.74-0.72-1-1.53-0.75-2.42c0.07-0.28,0.21-0.55,0.41-0.82
		l1.78,0.78c-0.25,0.25-0.41,0.54-0.49,0.88c-0.3,1.14,0.26,1.9,1.67,2.28L424.06,205.05z"/>
	<path d="M420.39,197.23l5.39,1.44l-0.53,1.99l-5.39-1.44l-0.21,0.79l-1.72-0.46l0.21-0.79l-2.43-0.65l0.53-1.99l2.43,0.65
		l0.38-1.41l1.72,0.46L420.39,197.23z"/>
	<path d="M419.34,194.22l0.53-1.99l0.89,0.24c-0.65-0.83-0.78-1.57-0.52-2.53c0.23-0.87,0.7-1.49,1.41-1.84
		c0.53-0.26,1.23-0.27,2.12-0.03l4.51,1.21l-0.53,1.99l-3.95-1.06c-0.54-0.15-0.95-0.19-1.2-0.11c-0.43,0.11-0.72,0.44-0.87,1.01
		c-0.27,1,0.25,1.68,1.57,2.04l3.68,0.99l-0.53,1.99L419.34,194.22z"/>
	<path d="M427.44,179.52l-1.43,5.33c1.29,0.29,2.08-0.12,2.37-1.23c0.18-0.69,0.01-1.34-0.5-1.95l0.79-1.76
		c1.31,1.01,1.74,2.36,1.29,4.08c-0.31,1.16-0.9,1.99-1.78,2.5c-0.88,0.51-1.88,0.61-3.03,0.31c-1.15-0.31-1.97-0.89-2.48-1.76
		c-0.51-0.87-0.61-1.86-0.31-2.99c0.3-1.13,0.89-1.93,1.74-2.39c0.86-0.47,1.88-0.54,3.08-0.22L427.44,179.52z M424.76,184.45
		l0.9-3.37c-1-0.04-1.62,0.41-1.86,1.31C423.57,183.27,423.91,184.04,424.76,184.45z"/>
	<path d="M430.54,176.53l-6.93,1.75l0.62-2.32l4.61-1.05l-3.5-3.1l0.61-2.29l9.36,8.67l-0.6,2.25L430.54,176.53z"/>
	<path d="M437.65,169.5l-0.53,1.99l-10.9-2.92l0.53-1.99l0.92,0.25c-0.6-0.82-0.77-1.71-0.51-2.67c0.26-0.96,0.84-1.68,1.74-2.16
		s1.89-0.58,2.96-0.29s1.88,0.87,2.43,1.73c0.55,0.86,0.7,1.77,0.44,2.71c-0.25,0.94-0.85,1.65-1.8,2.1L437.65,169.5z
		 M428.79,165.22c-0.15,0.55-0.08,1.07,0.2,1.57s0.7,0.82,1.25,0.96c0.55,0.15,1.08,0.08,1.57-0.21c0.5-0.29,0.81-0.7,0.96-1.25
		c0.15-0.54,0.08-1.07-0.21-1.57c-0.28-0.5-0.69-0.82-1.24-0.97c-0.55-0.15-1.07-0.08-1.57,0.21S428.94,164.67,428.79,165.22z"/>
	<path d="M430.18,153.77l0.53-1.99l7.11,1.91l-0.53,1.99l-0.92-0.25c0.6,0.82,0.77,1.71,0.51,2.68c-0.26,0.97-0.84,1.69-1.74,2.16
		c-0.9,0.47-1.89,0.57-2.95,0.28c-1.07-0.29-1.88-0.87-2.43-1.73c-0.55-0.86-0.69-1.77-0.44-2.71c0.25-0.95,0.85-1.65,1.79-2.1
		L430.18,153.77z M431.27,155.97c-0.15,0.56-0.08,1.09,0.2,1.57c0.28,0.5,0.7,0.82,1.25,0.96s1.08,0.08,1.57-0.21
		c0.5-0.29,0.82-0.7,0.96-1.25c0.15-0.54,0.08-1.07-0.21-1.57c-0.28-0.5-0.69-0.81-1.25-0.96c-0.55-0.15-1.07-0.08-1.56,0.19
		C431.74,154.99,431.42,155.41,431.27,155.97z"/>
	<path d="M438.87,149.8l-0.53,1.99l-7.11-1.91l0.53-1.99l1.08,0.29c-0.74-0.72-1-1.53-0.75-2.42c0.07-0.28,0.21-0.55,0.41-0.82
		l1.78,0.78c-0.25,0.25-0.41,0.54-0.49,0.88c-0.3,1.14,0.26,1.9,1.67,2.28L438.87,149.8z"/>
	<path d="M428.17,140.53l7.79,2.09l-1.89-3.35l0.72-2.69l2.23,4.17l4.96-2.53l-0.74,2.74l-3.77,1.84l0.16,0.27l2.84,0.76l-0.53,1.99
		l-12.3-3.3L428.17,140.53z"/>
</g>
<circle fill="#FFFFFF" stroke="#000000" stroke-width="3" stroke-miterlimit="10" cx="488.89" cy="249" r="10"/>
<g>
	<path d="M493.92,234.63l-10.95-2.93l0.73-2.71c0.33-1.23,0.79-2.07,1.37-2.49c0.69-0.52,1.52-0.65,2.49-0.39
		c0.6,0.16,1.09,0.44,1.45,0.83c0.17,0.21,0.31,0.53,0.45,0.96c0.32-0.62,0.68-1.03,1.07-1.24c0.66-0.38,1.44-0.46,2.33-0.22
		c0.89,0.24,1.53,0.76,1.93,1.54c0.4,0.79,0.43,1.78,0.11,2.97L493.92,234.63z M488.1,230.79l0.16-0.61
		c0.3-1.11-0.03-1.79-0.98-2.04c-0.95-0.25-1.57,0.16-1.86,1.25l-0.17,0.64L488.1,230.79z M492.76,232.04l0.25-0.92
		c0.38-1.42,0.07-2.27-0.94-2.54c-0.55-0.15-1.02-0.04-1.39,0.32c-0.29,0.26-0.54,0.77-0.74,1.53l-0.21,0.8L492.76,232.04z"/>
	<path d="M496.87,223.6l-0.53,1.99l-7.11-1.91l0.53-1.99l1.08,0.29c-0.74-0.72-1-1.53-0.75-2.42c0.08-0.28,0.21-0.55,0.41-0.82
		l1.78,0.78c-0.25,0.25-0.41,0.54-0.49,0.88c-0.31,1.14,0.25,1.9,1.67,2.28L496.87,223.6z"/>
	<path d="M486.89,215.59c0.09-0.33,0.28-0.58,0.57-0.75c0.29-0.17,0.61-0.21,0.93-0.12c0.33,0.09,0.59,0.29,0.76,0.58
		c0.18,0.3,0.22,0.62,0.13,0.95s-0.28,0.58-0.58,0.75c-0.29,0.17-0.62,0.21-0.94,0.13c-0.33-0.09-0.59-0.29-0.75-0.59
		C486.84,216.24,486.8,215.92,486.89,215.59z M491.35,215.75l7.11,1.91l-0.53,1.98l-7.11-1.91L491.35,215.75z"/>
	<path d="M494.12,212.33l5.39,1.44l-0.53,1.99l-5.39-1.44l-0.21,0.79l-1.72-0.46l0.21-0.79l-2.43-0.65l0.53-1.99l2.43,0.65
		l0.38-1.41l1.72,0.46L494.12,212.33z"/>
	<path d="M494.51,203.96l0.53-1.99l7.11,1.91l-0.53,1.99l-0.92-0.25c0.6,0.82,0.77,1.71,0.51,2.68c-0.26,0.97-0.84,1.69-1.74,2.16
		c-0.9,0.47-1.89,0.57-2.95,0.28c-1.07-0.29-1.88-0.87-2.43-1.73c-0.55-0.86-0.7-1.77-0.44-2.71c0.25-0.95,0.85-1.64,1.79-2.1
		L494.51,203.96z M495.6,206.15c-0.15,0.56-0.08,1.08,0.2,1.57c0.28,0.5,0.7,0.82,1.25,0.96c0.55,0.15,1.08,0.08,1.57-0.21
		c0.5-0.29,0.81-0.7,0.96-1.25c0.15-0.54,0.08-1.07-0.21-1.57c-0.28-0.5-0.69-0.81-1.25-0.96c-0.55-0.15-1.07-0.08-1.56,0.19
		C496.07,205.17,495.75,205.6,495.6,206.15z"/>
	<path d="M495.55,200.07l0.53-1.99l0.89,0.24c-0.65-0.83-0.78-1.57-0.52-2.53c0.23-0.87,0.7-1.49,1.41-1.84
		c0.53-0.26,1.23-0.27,2.12-0.03l4.51,1.21l-0.53,1.99l-3.95-1.06c-0.54-0.15-0.95-0.19-1.2-0.11c-0.43,0.11-0.72,0.44-0.87,1.01
		c-0.27,1,0.25,1.68,1.57,2.04l3.68,0.99l-0.53,1.99L495.55,200.07z"/>
	<path d="M497.9,191.32l0.53-1.99l0.89,0.24c-0.65-0.83-0.78-1.57-0.52-2.53c0.23-0.87,0.7-1.49,1.41-1.84
		c0.53-0.26,1.23-0.27,2.12-0.03l4.51,1.21l-0.53,1.99l-3.94-1.06c-0.54-0.15-0.95-0.19-1.2-0.11c-0.43,0.11-0.72,0.44-0.87,1.01
		c-0.27,1,0.25,1.68,1.57,2.04l3.68,0.99l-0.53,1.99L497.9,191.32z"/>
	<path d="M496.3,180.47c0.09-0.33,0.28-0.58,0.57-0.75c0.29-0.17,0.61-0.21,0.93-0.12c0.33,0.09,0.59,0.29,0.76,0.58
		c0.18,0.3,0.22,0.62,0.13,0.95c-0.09,0.33-0.28,0.58-0.58,0.75c-0.29,0.17-0.62,0.21-0.94,0.12s-0.59-0.29-0.75-0.59
		C496.25,181.12,496.21,180.8,496.3,180.47z M500.76,180.63l7.11,1.91l-0.53,1.98l-7.11-1.91L500.76,180.63z"/>
	<path d="M502.73,173.3l0.53-1.99l7.11,1.91l-0.53,1.99l-0.92-0.25c0.6,0.82,0.77,1.71,0.51,2.68s-0.84,1.69-1.74,2.16
		c-0.9,0.47-1.89,0.57-2.95,0.28c-1.07-0.29-1.88-0.87-2.43-1.73c-0.55-0.86-0.69-1.77-0.44-2.71c0.25-0.95,0.85-1.64,1.79-2.1
		L502.73,173.3z M503.82,175.49c-0.15,0.56-0.08,1.09,0.2,1.57c0.28,0.5,0.7,0.81,1.25,0.96s1.08,0.08,1.57-0.21
		c0.5-0.29,0.82-0.7,0.96-1.25c0.15-0.55,0.08-1.07-0.21-1.57c-0.28-0.5-0.69-0.81-1.25-0.96c-0.55-0.15-1.07-0.08-1.56,0.19
		C504.28,174.51,503.96,174.94,503.82,175.49z"/>
</g>
<circle fill="#FFFFFF" stroke="#000000" stroke-width="3" stroke-miterlimit="10" cx="566.67" cy="249" r="10"/>
<g>
	<path d="M571.53,235.23l-10.61-5.03l0.39-1.46l7.96-1.07l-6.33-5.02l0.39-1.48l11.64,1.16l-0.58,2.16l-7.01-0.82l6.09,4.85
		l-0.16,0.59l-7.68,1.06l6.46,2.91L571.53,235.23z"/>
	<path d="M569.78,213.34l0.53-1.99l7.11,1.91l-0.53,1.99l-0.92-0.25c0.6,0.82,0.77,1.71,0.51,2.68c-0.26,0.97-0.84,1.69-1.74,2.16
		c-0.9,0.47-1.89,0.57-2.95,0.28c-1.07-0.29-1.88-0.87-2.43-1.73c-0.55-0.86-0.7-1.77-0.44-2.71c0.25-0.95,0.85-1.64,1.79-2.1
		L569.78,213.34z M570.87,215.53c-0.15,0.56-0.08,1.09,0.2,1.57c0.28,0.5,0.7,0.82,1.25,0.96c0.55,0.15,1.08,0.08,1.57-0.21
		c0.5-0.29,0.81-0.7,0.96-1.25c0.15-0.54,0.08-1.07-0.21-1.57c-0.28-0.5-0.69-0.81-1.25-0.96c-0.55-0.15-1.07-0.08-1.56,0.19
		C571.33,214.56,571.01,214.98,570.87,215.53z"/>
	<path d="M573.14,207.68l5.39,1.44l-0.53,1.99l-5.39-1.44l-0.21,0.79l-1.72-0.46l0.21-0.79l-2.43-0.65l0.53-1.99l2.43,0.65
		l0.38-1.41l1.72,0.46L573.14,207.68z"/>
	<path d="M566.91,203.27l0.53-1.99l6.11,1.64c-0.61-0.79-0.79-1.63-0.55-2.53c0.24-0.9,0.71-1.51,1.42-1.84
		c0.55-0.26,1.26-0.26,2.16-0.02l4.47,1.2l-0.53,1.99l-3.89-1.04c-0.57-0.15-0.98-0.19-1.24-0.12c-0.44,0.11-0.74,0.46-0.89,1.01
		c-0.27,1,0.26,1.69,1.6,2.04l3.65,0.98l-0.53,1.99L566.91,203.27z"/>
	<path d="M580.2,189.96l-1.43,5.33c1.29,0.29,2.08-0.12,2.37-1.23c0.18-0.69,0.01-1.34-0.5-1.95l0.79-1.76
		c1.31,1.01,1.74,2.36,1.29,4.08c-0.31,1.16-0.9,1.99-1.78,2.5s-1.88,0.61-3.03,0.31c-1.15-0.31-1.97-0.89-2.48-1.76
		c-0.51-0.87-0.61-1.86-0.31-2.99c0.3-1.13,0.89-1.93,1.74-2.39s1.88-0.54,3.07-0.22L580.2,189.96z M577.52,194.89l0.9-3.37
		c-1-0.04-1.62,0.41-1.86,1.31C576.33,193.71,576.67,194.48,577.52,194.89z"/>
	<path d="M579.39,184.09c-0.42,0.33-0.68,0.64-0.76,0.94s-0.08,0.53-0.01,0.71c0.08,0.18,0.21,0.29,0.37,0.34s0.32,0.01,0.47-0.11
		c0.14-0.12,0.38-0.44,0.72-0.94s0.65-0.87,0.92-1.08c0.5-0.42,1.11-0.54,1.82-0.35c0.71,0.19,1.24,0.63,1.56,1.31
		c0.33,0.69,0.38,1.48,0.14,2.35c-0.29,1.07-0.92,1.87-1.91,2.38l-0.93-1.37c0.7-0.41,1.13-0.89,1.28-1.46
		c0.14-0.5-0.11-1-0.54-1.11c-0.22-0.06-0.39-0.04-0.54,0.07c-0.14,0.11-0.4,0.42-0.76,0.94c-0.36,0.52-0.65,0.87-0.88,1.04
		c-0.46,0.38-1.01,0.49-1.67,0.31c-0.67-0.18-1.14-0.56-1.43-1.16c-0.3-0.59-0.33-1.28-0.12-2.09s0.67-1.47,1.36-2.02L579.39,184.09
		z"/>
	<path d="M579.24,177.11c0.32-1.19,0.93-2.07,1.83-2.63c0.9-0.56,1.91-0.69,3.04-0.39c1.12,0.3,1.94,0.92,2.43,1.86
		c0.49,0.95,0.58,2.02,0.26,3.23c-0.32,1.21-0.94,2.08-1.86,2.64s-1.92,0.68-3.03,0.38c-1.11-0.3-1.92-0.93-2.41-1.88
		C579,179.38,578.92,178.31,579.24,177.11z M581.03,177.61c-0.15,0.55-0.08,1.08,0.2,1.57c0.28,0.5,0.7,0.82,1.25,0.97
		s1.08,0.08,1.57-0.21c0.5-0.29,0.82-0.71,0.96-1.26c0.15-0.55,0.08-1.09-0.2-1.58c-0.28-0.5-0.69-0.81-1.25-0.96
		c-0.55-0.15-1.07-0.08-1.57,0.21S581.17,177.06,581.03,177.61z"/>
	<path d="M580.96,171.61l0.53-1.99l0.89,0.24c-0.65-0.83-0.78-1.57-0.52-2.53c0.23-0.87,0.7-1.49,1.41-1.84
		c0.53-0.26,1.23-0.27,2.12-0.03l4.51,1.21l-0.53,1.99l-3.95-1.06c-0.54-0.15-0.95-0.18-1.2-0.11c-0.43,0.11-0.72,0.44-0.87,1.01
		c-0.27,1,0.25,1.68,1.57,2.04l3.68,0.99l-0.53,1.99L580.96,171.61z"/>
</g>
<circle fill="#FFFFFF" stroke="#000000" stroke-width="3" stroke-miterlimit="10" cx="644.44" cy="249" r="10"/>
<g>
	<path d="M649.47,234.63l-10.95-2.93l0.73-2.71c0.33-1.23,0.79-2.07,1.37-2.49c0.69-0.52,1.52-0.65,2.49-0.39
		c0.6,0.16,1.09,0.44,1.45,0.83c0.17,0.21,0.31,0.53,0.45,0.96c0.32-0.62,0.68-1.03,1.07-1.24c0.66-0.38,1.44-0.46,2.33-0.22
		c0.89,0.24,1.53,0.76,1.93,1.54c0.4,0.79,0.43,1.78,0.11,2.97L649.47,234.63z M643.65,230.79l0.16-0.61
		c0.3-1.11-0.03-1.79-0.98-2.04c-0.95-0.25-1.57,0.16-1.86,1.25l-0.17,0.64L643.65,230.79z M648.32,232.04l0.25-0.92
		c0.38-1.42,0.07-2.27-0.94-2.54c-0.55-0.15-1.02-0.04-1.39,0.32c-0.29,0.26-0.54,0.77-0.74,1.53l-0.21,0.8L648.32,232.04z"/>
	<path d="M652.43,223.6l-0.53,1.99l-7.11-1.91l0.53-1.99l1.08,0.29c-0.74-0.72-1-1.53-0.75-2.42c0.08-0.28,0.21-0.55,0.41-0.82
		l1.78,0.78c-0.25,0.25-0.41,0.54-0.49,0.88c-0.31,1.14,0.25,1.9,1.67,2.28L652.43,223.6z"/>
	<path d="M642.45,215.59c0.09-0.33,0.28-0.58,0.57-0.75c0.29-0.17,0.61-0.21,0.93-0.12c0.33,0.09,0.59,0.29,0.76,0.58
		c0.18,0.3,0.22,0.62,0.13,0.95s-0.28,0.58-0.58,0.75c-0.29,0.17-0.62,0.21-0.94,0.13c-0.33-0.09-0.59-0.29-0.75-0.59
		C642.4,216.24,642.36,215.92,642.45,215.59z M646.91,215.75l7.11,1.91l-0.53,1.98l-7.11-1.91L646.91,215.75z"/>
	<path d="M650.11,210.42c-0.42,0.33-0.68,0.64-0.76,0.94c-0.08,0.3-0.08,0.53-0.01,0.71c0.08,0.18,0.21,0.3,0.37,0.34
		s0.32,0.01,0.47-0.12c0.14-0.12,0.38-0.44,0.72-0.94c0.34-0.5,0.65-0.87,0.92-1.08c0.5-0.42,1.11-0.55,1.82-0.35
		c0.71,0.19,1.24,0.63,1.56,1.31c0.33,0.69,0.38,1.48,0.14,2.35c-0.29,1.07-0.92,1.87-1.91,2.38l-0.93-1.37
		c0.7-0.41,1.13-0.89,1.28-1.46c0.14-0.51-0.11-1-0.53-1.12c-0.22-0.06-0.39-0.04-0.54,0.07c-0.14,0.11-0.4,0.42-0.76,0.94
		c-0.36,0.52-0.65,0.87-0.88,1.04c-0.46,0.38-1.01,0.49-1.67,0.31c-0.67-0.18-1.14-0.56-1.43-1.16c-0.3-0.59-0.34-1.28-0.12-2.09
		s0.67-1.47,1.36-2.02L650.11,210.42z"/>
	<path d="M651.5,205.52l5.39,1.44l-0.53,1.99l-5.39-1.44l-0.21,0.79l-1.72-0.46l0.21-0.79l-2.43-0.65l0.53-1.99l2.43,0.65l0.38-1.41
		l1.72,0.46L651.5,205.52z"/>
	<path d="M651.2,198.85c0.32-1.2,0.93-2.07,1.83-2.63c0.9-0.56,1.91-0.69,3.04-0.39c1.12,0.3,1.94,0.92,2.43,1.86
		c0.49,0.95,0.58,2.02,0.26,3.23s-0.94,2.08-1.86,2.64c-0.91,0.55-1.92,0.68-3.03,0.38c-1.11-0.3-1.92-0.93-2.41-1.88
		C650.96,201.12,650.88,200.04,651.2,198.85z M652.98,199.35c-0.15,0.55-0.08,1.08,0.2,1.57c0.28,0.5,0.7,0.82,1.25,0.97
		c0.55,0.15,1.08,0.08,1.57-0.21c0.5-0.29,0.82-0.71,0.96-1.26c0.15-0.55,0.08-1.09-0.2-1.58c-0.28-0.5-0.69-0.81-1.25-0.96
		c-0.55-0.15-1.07-0.08-1.57,0.21C653.45,198.38,653.13,198.8,652.98,199.35z"/>
	<path d="M648.26,189.96l12.3,3.3l-0.53,1.99l-12.3-3.3L648.26,189.96z"/>
</g>
<circle fill="#FFFFFF" stroke="#000000" stroke-width="3" stroke-miterlimit="10" cx="722.22" cy="249" r="10"/>
<g>
	<path d="M719.77,226.14l-1.05,3.92l2.44,0.65l1.01-3.78l1.85,0.5l-1.01,3.78l2.96,0.79l1.05-3.92l1.85,0.5l-1.62,6.05l-10.95-2.93
		l1.62-6.05L719.77,226.14z"/>
	<path d="M724.21,217.53l6.85,1.83c0.73,0.2,1.28,0.4,1.65,0.62c0.37,0.23,0.69,0.54,0.95,0.93c0.65,0.92,0.79,2.07,0.42,3.44
		c-0.37,1.37-1.17,2.28-2.4,2.73c-0.52,0.19-1.04,0.24-1.56,0.17l0.58-2.17c0.91,0.03,1.48-0.41,1.73-1.32
		c0.14-0.54,0.09-1.03-0.16-1.47c-0.23-0.38-0.69-0.66-1.36-0.85l-1.07-0.29c0.32,0.49,0.53,0.94,0.62,1.35
		c0.08,0.42,0.06,0.87-0.08,1.38c-0.26,0.97-0.82,1.69-1.69,2.14c-0.87,0.46-1.85,0.54-2.94,0.24c-1.1-0.29-1.92-0.87-2.48-1.72
		c-0.55-0.85-0.71-1.76-0.45-2.72s0.86-1.65,1.79-2.07l-0.92-0.25L724.21,217.53z M724.77,221.68c-0.15,0.55-0.08,1.07,0.2,1.57
		c0.28,0.5,0.7,0.82,1.25,0.96s1.08,0.08,1.57-0.21c0.5-0.29,0.81-0.7,0.96-1.25c0.15-0.54,0.08-1.07-0.21-1.57
		c-0.28-0.5-0.69-0.81-1.25-0.96c-0.55-0.15-1.07-0.08-1.57,0.2C725.24,220.71,724.92,221.13,724.77,221.68z"/>
	<path d="M720.09,212.17l12.3,3.3l-0.53,1.99l-12.3-3.3L720.09,212.17z"/>
	<path d="M721.84,209.55c0.09-0.33,0.28-0.58,0.57-0.75c0.29-0.17,0.61-0.21,0.93-0.12c0.33,0.09,0.58,0.29,0.76,0.58
		c0.18,0.3,0.22,0.62,0.13,0.95c-0.09,0.33-0.28,0.58-0.58,0.75s-0.62,0.21-0.94,0.12c-0.33-0.09-0.59-0.29-0.75-0.59
		C721.79,210.2,721.76,209.88,721.84,209.55z M726.3,209.71l7.11,1.91l-0.53,1.98l-7.11-1.91L726.3,209.71z"/>
	<path d="M726.81,207.83l0.53-1.99l0.89,0.24c-0.65-0.83-0.78-1.57-0.52-2.53c0.23-0.87,0.7-1.49,1.41-1.84
		c0.53-0.26,1.23-0.27,2.12-0.03l4.51,1.21l-0.53,1.99l-3.94-1.06c-0.54-0.15-0.95-0.18-1.2-0.11c-0.43,0.11-0.72,0.44-0.87,1.01
		c-0.27,1,0.25,1.68,1.57,2.04l3.68,0.99l-0.53,1.99L726.81,207.83z"/>
	<path d="M731.41,197.54l5.39,1.44l-0.53,1.99l-5.39-1.44l-0.21,0.79l-1.72-0.46l0.21-0.79l-2.43-0.65l0.53-1.99l2.43,0.65
		l0.38-1.41l1.72,0.46L731.41,197.54z"/>
	<path d="M731.11,190.87c0.32-1.19,0.93-2.07,1.83-2.63c0.9-0.56,1.91-0.69,3.04-0.39c1.12,0.3,1.94,0.92,2.43,1.86
		c0.49,0.95,0.58,2.02,0.26,3.23s-0.94,2.08-1.86,2.64c-0.91,0.55-1.92,0.68-3.03,0.38c-1.11-0.3-1.92-0.93-2.41-1.88
		C730.87,193.14,730.79,192.06,731.11,190.87z M732.89,191.37c-0.15,0.55-0.08,1.08,0.2,1.57c0.28,0.5,0.7,0.82,1.25,0.97
		s1.08,0.08,1.57-0.21c0.5-0.29,0.82-0.71,0.96-1.26c0.15-0.55,0.08-1.08-0.2-1.58c-0.28-0.5-0.69-0.81-1.25-0.96
		c-0.55-0.15-1.07-0.08-1.57,0.21S733.04,190.82,732.89,191.37z"/>
	<path d="M732.83,185.37l0.53-1.99l0.89,0.24c-0.65-0.83-0.78-1.57-0.52-2.53c0.23-0.87,0.7-1.49,1.41-1.84
		c0.53-0.26,1.23-0.27,2.12-0.03l4.51,1.21l-0.53,1.99l-3.95-1.06c-0.54-0.15-0.95-0.19-1.2-0.11c-0.43,0.11-0.72,0.44-0.87,1.01
		c-0.27,1,0.25,1.68,1.57,2.04l3.68,0.99l-0.53,1.99L732.83,185.37z"/>
</g>
<circle fill="#FFFFFF" stroke="#000000" stroke-width="3" stroke-miterlimit="10" cx="800" cy="249" r="10"/>
<g>
	<path d="M799.13,224.59c-1.05,0.61-1.7,1.41-1.96,2.39c-0.26,0.98-0.12,1.91,0.43,2.8c0.54,0.89,1.36,1.48,2.42,1.77
		c1.07,0.29,2.05,0.18,2.95-0.33c0.9-0.5,1.48-1.27,1.76-2.3c0.14-0.51,0.17-0.99,0.09-1.44c-0.08-0.45-0.27-0.95-0.58-1.51
		l2.51,0.67c0.18,1.04,0.16,1.98-0.08,2.85c-0.43,1.62-1.35,2.84-2.74,3.66c-1.4,0.82-2.89,1.02-4.48,0.6
		c-1.6-0.43-2.8-1.35-3.63-2.79c-0.83-1.43-1.02-2.95-0.6-4.54c0.24-0.89,0.7-1.72,1.39-2.5L799.13,224.59z"/>
	<path d="M796.54,221.06c0.09-0.33,0.28-0.58,0.57-0.75c0.29-0.17,0.61-0.21,0.93-0.12c0.33,0.09,0.58,0.29,0.76,0.58
		c0.18,0.3,0.22,0.62,0.13,0.95c-0.09,0.33-0.28,0.58-0.58,0.75c-0.29,0.17-0.62,0.21-0.95,0.12c-0.33-0.09-0.58-0.29-0.75-0.59
		C796.49,221.71,796.45,221.39,796.54,221.06z M801,221.21l7.11,1.91l-0.53,1.98l-7.11-1.91L801,221.21z"/>
	<path d="M803.76,217.79l5.39,1.44l-0.53,1.99l-5.39-1.44l-0.21,0.79l-1.72-0.46l0.21-0.79l-2.43-0.65l0.53-1.99l2.43,0.65
		l0.38-1.41l1.72,0.46L803.76,217.79z"/>
	<path d="M809.5,213.61l-6.93,1.75l0.62-2.32l4.61-1.05l-3.5-3.1l0.61-2.29l9.36,8.67l-0.6,2.25L809.5,213.61z"/>
	<path d="M807.57,193.09c-1.05,0.61-1.7,1.41-1.96,2.39c-0.26,0.98-0.12,1.91,0.43,2.79c0.54,0.89,1.36,1.48,2.42,1.77
		s2.05,0.18,2.95-0.33c0.9-0.5,1.48-1.27,1.76-2.3c0.14-0.51,0.17-0.99,0.09-1.44c-0.08-0.45-0.27-0.95-0.58-1.51l2.51,0.67
		c0.18,1.04,0.16,1.98-0.08,2.85c-0.43,1.62-1.35,2.84-2.74,3.67c-1.4,0.82-2.89,1.02-4.48,0.59c-1.6-0.43-2.8-1.35-3.63-2.79
		c-0.83-1.43-1.02-2.95-0.6-4.54c0.24-0.89,0.7-1.72,1.39-2.5L807.57,193.09z"/>
	<path d="M814.67,185.72l-1.43,5.33c1.29,0.29,2.08-0.12,2.37-1.23c0.18-0.69,0.01-1.34-0.5-1.95l0.79-1.76
		c1.31,1.01,1.74,2.37,1.29,4.07c-0.31,1.16-0.9,1.99-1.78,2.5c-0.88,0.51-1.88,0.61-3.03,0.31c-1.15-0.31-1.97-0.89-2.48-1.75
		s-0.61-1.86-0.31-2.99s0.89-1.93,1.74-2.4c0.86-0.47,1.88-0.54,3.08-0.21L814.67,185.72z M811.99,190.65l0.9-3.37
		c-1-0.03-1.62,0.41-1.86,1.31C810.79,189.47,811.14,190.24,811.99,190.65z"/>
	<path d="M811.19,183.18l0.53-1.99l0.89,0.24c-0.65-0.83-0.78-1.57-0.52-2.53c0.23-0.87,0.7-1.49,1.41-1.84
		c0.53-0.26,1.23-0.27,2.12-0.03l4.51,1.21l-0.53,1.99l-3.94-1.06c-0.54-0.15-0.95-0.18-1.2-0.11c-0.43,0.11-0.72,0.44-0.87,1.01
		c-0.27,1,0.25,1.68,1.57,2.04l3.68,0.99l-0.53,1.99L811.19,183.18z"/>
	<path d="M815.8,172.89l5.39,1.44l-0.53,1.99l-5.39-1.44l-0.21,0.79l-1.72-0.46l0.21-0.79l-2.43-0.65l0.53-1.99l2.43,0.65l0.38-1.41
		l1.72,0.46L815.8,172.89z"/>
	<path d="M822.4,169.79l-0.53,1.99l-7.11-1.91l0.53-1.99l1.08,0.29c-0.74-0.72-1-1.53-0.75-2.42c0.08-0.28,0.21-0.55,0.41-0.82
		l1.78,0.78c-0.25,0.25-0.41,0.54-0.49,0.88c-0.31,1.14,0.25,1.9,1.67,2.28L822.4,169.79z"/>
	<path d="M822.08,158.06l-1.43,5.33c1.29,0.29,2.08-0.12,2.37-1.23c0.18-0.69,0.01-1.34-0.5-1.95l0.79-1.76
		c1.31,1.01,1.74,2.37,1.29,4.07c-0.31,1.16-0.9,1.99-1.78,2.51c-0.88,0.51-1.88,0.61-3.03,0.3c-1.15-0.31-1.97-0.89-2.48-1.75
		c-0.51-0.87-0.61-1.86-0.31-2.99c0.3-1.13,0.89-1.93,1.74-2.39c0.86-0.47,1.88-0.54,3.08-0.22L822.08,158.06z M819.4,162.99
		l0.9-3.37c-1-0.04-1.62,0.41-1.86,1.31C818.21,161.81,818.55,162.58,819.4,162.99z"/>
</g>
<circle fill="#FFFFFF" stroke="#000000" stroke-width="3" stroke-miterlimit="10" cx="877.78" cy="249" r="10"/>
<g>
	<path d="M878.97,231.32l4.4,1.18l-0.57,2.13l-10.95-2.93l0.85-3.17c0.33-1.24,0.84-2.1,1.52-2.58c0.79-0.56,1.72-0.7,2.75-0.42
		c1.04,0.28,1.76,0.82,2.15,1.63c0.25,0.5,0.35,1.06,0.29,1.69l5.54-2.21l-0.71,2.63l-5.19,1.77L878.97,231.32z M877.47,230.92
		l0.17-0.63c0.36-1.35-0.05-2.25-1.12-2.53c-1.1-0.29-1.83,0.24-2.19,1.61l-0.18,0.66L877.47,230.92z"/>
	<path d="M878.84,220.08c0.32-1.2,0.93-2.07,1.83-2.63s1.91-0.69,3.03-0.39c1.12,0.3,1.94,0.92,2.43,1.86
		c0.49,0.95,0.58,2.02,0.26,3.23c-0.33,1.21-0.95,2.08-1.86,2.64c-0.91,0.55-1.92,0.68-3.03,0.38c-1.11-0.3-1.92-0.93-2.41-1.88
		C878.6,222.35,878.52,221.27,878.84,220.08z M880.62,220.58c-0.15,0.55-0.08,1.08,0.2,1.57c0.28,0.5,0.7,0.82,1.25,0.97
		c0.55,0.15,1.08,0.08,1.57-0.21c0.5-0.29,0.82-0.71,0.97-1.26c0.15-0.55,0.08-1.09-0.2-1.58c-0.28-0.5-0.69-0.81-1.25-0.96
		c-0.55-0.15-1.07-0.08-1.57,0.21C881.09,219.61,880.77,220.03,880.62,220.58z"/>
	<path d="M875.9,211.2l6.11,1.64c-0.58-0.87-0.75-1.78-0.5-2.73s0.83-1.65,1.73-2.12c0.9-0.47,1.89-0.56,2.97-0.27
		s1.89,0.86,2.44,1.72c0.54,0.86,0.68,1.77,0.42,2.74c-0.26,0.97-0.86,1.66-1.79,2.07l0.92,0.25l-0.53,1.99l-12.3-3.3L875.9,211.2z
		 M883.13,211.22c-0.15,0.55-0.08,1.07,0.2,1.57c0.28,0.5,0.7,0.82,1.25,0.96c0.55,0.15,1.08,0.08,1.57-0.21
		c0.5-0.29,0.82-0.7,0.96-1.25c0.15-0.54,0.08-1.07-0.21-1.57c-0.28-0.5-0.69-0.82-1.24-0.97c-0.55-0.15-1.07-0.08-1.57,0.21
		C883.59,210.26,883.28,210.67,883.13,211.22z"/>
	<path d="M888.81,199.28l-1.43,5.33c1.29,0.29,2.08-0.12,2.37-1.23c0.18-0.69,0.01-1.34-0.5-1.95l0.79-1.76
		c1.31,1.01,1.74,2.37,1.29,4.08c-0.31,1.16-0.9,1.99-1.78,2.5c-0.88,0.51-1.88,0.61-3.03,0.31c-1.15-0.31-1.97-0.89-2.48-1.75
		c-0.51-0.87-0.61-1.86-0.31-2.99c0.3-1.13,0.89-1.93,1.74-2.4c0.86-0.47,1.88-0.54,3.08-0.22L888.81,199.28z M886.13,204.21
		l0.9-3.37c-1-0.04-1.62,0.41-1.86,1.31C884.94,203.03,885.28,203.8,886.13,204.21z"/>
	<path d="M892.98,196.65l-0.53,1.99l-7.11-1.91l0.53-1.99l1.08,0.29c-0.74-0.72-1-1.53-0.75-2.42c0.08-0.28,0.21-0.55,0.41-0.82
		l1.78,0.78c-0.25,0.25-0.41,0.54-0.49,0.88c-0.31,1.14,0.26,1.9,1.67,2.28L892.98,196.65z"/>
	<path d="M889.3,188.83l5.39,1.44l-0.53,1.99l-5.39-1.44l-0.21,0.79l-1.72-0.46l0.21-0.79l-2.43-0.65l0.53-1.99l2.43,0.65l0.38-1.41
		l1.72,0.46L889.3,188.83z"/>
	<path d="M888.91,179.21c0.31,0.08,0.6,0.04,0.85-0.14c0.25-0.18,0.66-0.65,1.21-1.42c0.55-0.77,1.04-1.3,1.49-1.6
		c0.72-0.5,1.59-0.61,2.62-0.34c1.03,0.28,1.79,0.86,2.27,1.73c0.48,0.88,0.57,1.89,0.26,3.03c-0.41,1.55-1.45,2.61-3.09,3.2
		l-0.96-1.74c1.11-0.25,1.8-0.88,2.07-1.9c0.13-0.49,0.1-0.94-0.11-1.33c-0.2-0.39-0.53-0.65-0.99-0.77s-0.87-0.03-1.25,0.29
		c-0.19,0.15-0.57,0.64-1.14,1.46c-0.57,0.82-1.14,1.37-1.69,1.66c-0.55,0.29-1.19,0.33-1.91,0.14c-0.92-0.25-1.6-0.77-2.02-1.58
		c-0.43-0.81-0.51-1.7-0.25-2.69c0.33-1.22,1.02-2.18,2.08-2.9l1.16,1.51c-0.73,0.36-1.19,0.88-1.36,1.54
		c-0.12,0.44-0.1,0.83,0.06,1.19C888.35,178.9,888.59,179.12,888.91,179.21z"/>
	<path d="M903.1,174.04l-0.53,1.99l-10.9-2.92l0.53-1.99l0.92,0.25c-0.6-0.82-0.77-1.71-0.51-2.67c0.26-0.96,0.84-1.68,1.74-2.16
		s1.89-0.58,2.96-0.29s1.88,0.87,2.43,1.73c0.55,0.86,0.7,1.77,0.44,2.71c-0.25,0.94-0.85,1.64-1.8,2.1L903.1,174.04z
		 M894.24,169.76c-0.15,0.55-0.08,1.07,0.2,1.57c0.28,0.5,0.7,0.82,1.25,0.96c0.55,0.15,1.08,0.08,1.57-0.21
		c0.5-0.29,0.82-0.7,0.96-1.25c0.15-0.54,0.08-1.07-0.21-1.57c-0.28-0.5-0.69-0.82-1.25-0.97c-0.55-0.15-1.07-0.08-1.57,0.21
		C894.71,168.79,894.39,169.2,894.24,169.76z"/>
	<path d="M899.92,157.81l-1.43,5.33c1.29,0.29,2.08-0.12,2.37-1.23c0.18-0.69,0.01-1.34-0.5-1.95l0.79-1.76
		c1.31,1.01,1.74,2.37,1.29,4.08c-0.31,1.16-0.9,1.99-1.78,2.5c-0.88,0.51-1.88,0.61-3.03,0.31c-1.15-0.31-1.97-0.89-2.48-1.75
		s-0.61-1.86-0.31-2.99c0.3-1.13,0.89-1.93,1.74-2.4c0.86-0.47,1.88-0.54,3.08-0.22L899.92,157.81z M897.25,162.74l0.9-3.37
		c-1-0.04-1.62,0.41-1.87,1.31C896.05,161.56,896.39,162.33,897.25,162.74z"/>
	<path d="M900.05,150.52c-0.55,0.41-0.9,0.9-1.05,1.47c-0.15,0.57-0.09,1.09,0.18,1.59c0.27,0.49,0.69,0.81,1.27,0.97
		c0.58,0.16,1.1,0.09,1.58-0.2c0.48-0.29,0.8-0.72,0.96-1.3c0.16-0.58,0.11-1.17-0.15-1.78l1.93,0.52c0.14,0.67,0.12,1.3-0.04,1.94
		c-0.3,1.11-0.9,1.93-1.82,2.48c-0.92,0.55-1.91,0.68-2.98,0.4c-1.07-0.29-1.87-0.91-2.41-1.85c-0.53-0.94-0.65-1.97-0.35-3.08
		c0.17-0.65,0.48-1.21,0.91-1.69L900.05,150.52z"/>
	<path d="M893.67,144.88l7.78,2.09l-1.89-3.35l0.72-2.69l2.23,4.17l4.96-2.53l-0.73,2.74l-3.77,1.84l0.16,0.27l2.84,0.76l-0.53,1.99
		l-12.3-3.3L893.67,144.88z"/>
</g>
<circle fill="#FFFFFF" stroke="#000000" stroke-width="3" stroke-miterlimit="10" cx="955.56" cy="249" r="10"/>
<g>
	<path d="M960.58,234.63l-10.95-2.93l0.73-2.71c0.33-1.23,0.79-2.07,1.37-2.49c0.69-0.52,1.52-0.65,2.49-0.39
		c0.6,0.16,1.09,0.44,1.46,0.83c0.17,0.21,0.31,0.53,0.45,0.96c0.32-0.62,0.68-1.03,1.07-1.24c0.66-0.38,1.44-0.46,2.33-0.22
		c0.89,0.24,1.54,0.76,1.93,1.54c0.4,0.79,0.44,1.78,0.12,2.97L960.58,234.63z M954.76,230.79l0.16-0.61
		c0.29-1.11-0.03-1.79-0.98-2.04c-0.95-0.25-1.56,0.16-1.86,1.25l-0.17,0.64L954.76,230.79z M959.43,232.04l0.25-0.92
		c0.38-1.42,0.07-2.27-0.94-2.54c-0.55-0.15-1.02-0.04-1.39,0.32c-0.29,0.26-0.54,0.77-0.74,1.53l-0.21,0.8L959.43,232.04z"/>
	<path d="M956.43,221.69l4.03,1.08c1.08,0.29,1.76-0.04,2.02-1.02c0.26-0.97-0.16-1.6-1.24-1.89l-4.03-1.08l0.53-1.99l4.35,1.17
		c1.92,0.52,2.66,2.02,2.07,4.23c-0.59,2.21-1.99,3.16-3.91,2.65l-4.35-1.17L956.43,221.69z"/>
	<path d="M965.89,214.82l-0.53,1.99l-7.11-1.91l0.53-1.99l1.08,0.29c-0.74-0.72-1-1.53-0.75-2.42c0.08-0.28,0.21-0.55,0.41-0.82
		l1.78,0.78c-0.25,0.25-0.41,0.54-0.5,0.88c-0.3,1.14,0.26,1.9,1.68,2.28L965.89,214.82z"/>
	<path d="M959.85,208.93l0.53-1.99l0.89,0.24c-0.65-0.83-0.78-1.57-0.52-2.53c0.23-0.87,0.7-1.49,1.4-1.84
		c0.53-0.26,1.23-0.27,2.12-0.03l4.52,1.21l-0.53,1.99l-3.95-1.06c-0.54-0.15-0.95-0.19-1.2-0.11c-0.43,0.11-0.72,0.44-0.87,1.01
		c-0.27,1,0.25,1.68,1.57,2.04l3.68,0.99l-0.53,1.99L959.85,208.93z"/>
	<path d="M957,198.79l0.53-1.99l6.11,1.64c-0.61-0.79-0.79-1.63-0.55-2.53c0.24-0.9,0.71-1.51,1.42-1.84
		c0.55-0.26,1.27-0.26,2.16-0.02l4.46,1.2l-0.53,1.99l-3.89-1.04c-0.57-0.15-0.98-0.19-1.24-0.12c-0.44,0.11-0.74,0.46-0.89,1.01
		c-0.27,1,0.26,1.69,1.6,2.04l3.65,0.98l-0.53,1.99L957,198.79z"/>
	<path d="M965.99,185.98l0.53-1.99l7.11,1.91l-0.53,1.99l-0.92-0.25c0.6,0.82,0.77,1.71,0.51,2.68c-0.26,0.97-0.84,1.69-1.74,2.16
		c-0.9,0.47-1.89,0.57-2.95,0.28c-1.07-0.29-1.88-0.87-2.44-1.73c-0.55-0.86-0.7-1.77-0.44-2.71s0.85-1.65,1.79-2.1L965.99,185.98z
		 M967.08,188.17c-0.15,0.56-0.08,1.09,0.2,1.57c0.28,0.5,0.7,0.82,1.25,0.96s1.08,0.08,1.57-0.21c0.5-0.29,0.81-0.7,0.96-1.25
		c0.14-0.55,0.08-1.07-0.21-1.57c-0.28-0.5-0.69-0.81-1.25-0.96s-1.07-0.08-1.56,0.19C967.55,187.2,967.23,187.62,967.08,188.17z"/>
	<path d="M972.25,176.49l3.65,0.98l-0.53,1.99l-3.78-1.01c-0.55-0.15-0.96-0.21-1.2-0.18c-0.24,0.03-0.46,0.13-0.64,0.29
		c-0.18,0.17-0.3,0.37-0.37,0.59c-0.12,0.45,0.02,0.99,0.4,1.36c0.19,0.19,0.61,0.37,1.24,0.53l3.65,0.98l-0.53,1.99l-7.11-1.91
		l0.53-1.99l0.83,0.22c-0.53-0.8-0.68-1.65-0.44-2.55c0.24-0.9,0.86-1.49,1.86-1.76c-0.71-0.79-0.95-1.66-0.69-2.62
		s0.78-1.54,1.58-1.78c0.47-0.14,1.08-0.12,1.82,0.08l4.59,1.23l-0.53,1.99l-3.89-1.04c-0.51-0.14-0.91-0.18-1.18-0.14
		c-0.46,0.07-0.76,0.35-0.89,0.83C970.37,175.49,970.91,176.13,972.25,176.49z"/>
	<path d="M972.77,167.59l5.39,1.44l-0.53,1.99l-5.39-1.44l-0.21,0.79l-1.72-0.46l0.21-0.79l-2.43-0.65l0.53-1.99l2.43,0.65
		l0.38-1.41l1.72,0.46L972.77,167.59z"/>
	<path d="M966.54,163.18l0.53-1.99l6.11,1.64c-0.61-0.79-0.79-1.63-0.55-2.53c0.24-0.9,0.71-1.51,1.42-1.84
		c0.55-0.26,1.27-0.26,2.16-0.02l4.46,1.2l-0.53,1.99l-3.89-1.04c-0.57-0.15-0.98-0.19-1.24-0.12c-0.44,0.11-0.74,0.46-0.89,1.01
		c-0.27,1,0.26,1.69,1.6,2.04l3.65,0.98l-0.53,1.99L966.54,163.18z"/>
	<path d="M974.85,152.05c0.32-1.19,0.93-2.07,1.83-2.63s1.91-0.69,3.04-0.39c1.12,0.3,1.94,0.92,2.43,1.86
		c0.49,0.95,0.58,2.02,0.26,3.23s-0.94,2.08-1.86,2.64s-1.92,0.68-3.03,0.38c-1.11-0.3-1.92-0.93-2.41-1.87
		C974.61,154.33,974.53,153.25,974.85,152.05z M976.63,152.56c-0.15,0.55-0.08,1.08,0.2,1.57s0.7,0.82,1.25,0.97
		c0.55,0.15,1.08,0.08,1.57-0.21c0.5-0.29,0.82-0.71,0.96-1.26c0.15-0.55,0.08-1.09-0.2-1.58c-0.28-0.5-0.69-0.81-1.25-0.96
		c-0.55-0.15-1.07-0.08-1.57,0.21C977.09,151.58,976.78,152,976.63,152.56z"/>
	<path d="M984.21,146.47l-0.53,1.99l-7.11-1.91l0.53-1.99l1.08,0.29c-0.74-0.72-1-1.53-0.75-2.42c0.07-0.28,0.21-0.55,0.41-0.82
		l1.78,0.78c-0.25,0.25-0.41,0.54-0.49,0.88c-0.3,1.14,0.26,1.9,1.67,2.28L984.21,146.47z"/>
	<path d="M989.6,141.51l-0.53,1.99l-10.9-2.92l0.53-1.99l0.92,0.25c-0.6-0.82-0.77-1.71-0.51-2.67s0.84-1.68,1.74-2.16
		c0.9-0.48,1.89-0.58,2.96-0.29s1.88,0.86,2.43,1.73c0.55,0.86,0.7,1.77,0.45,2.71c-0.25,0.94-0.85,1.65-1.8,2.1L989.6,141.51z
		 M980.73,137.23c-0.15,0.55-0.08,1.07,0.2,1.57c0.28,0.5,0.7,0.82,1.25,0.96s1.08,0.08,1.57-0.21c0.5-0.29,0.81-0.7,0.96-1.25
		c0.15-0.55,0.08-1.07-0.21-1.57c-0.28-0.5-0.69-0.82-1.24-0.97c-0.55-0.15-1.07-0.08-1.57,0.21
		C981.2,136.26,980.88,136.67,980.73,137.23z"/>
	<path d="M986.42,125.28l-1.43,5.33c1.29,0.29,2.08-0.12,2.37-1.23c0.19-0.69,0.02-1.34-0.5-1.95l0.79-1.76
		c1.31,1.01,1.74,2.36,1.29,4.07c-0.31,1.16-0.9,1.99-1.78,2.51c-0.88,0.51-1.88,0.61-3.03,0.31s-1.97-0.89-2.48-1.76
		c-0.51-0.87-0.61-1.86-0.31-2.99c0.3-1.13,0.89-1.93,1.74-2.39c0.86-0.47,1.88-0.54,3.08-0.22L986.42,125.28z M983.74,130.21
		l0.9-3.37c-1-0.04-1.62,0.41-1.86,1.31C982.54,129.03,982.89,129.8,983.74,130.21z"/>
</g>
<circle fill="#FFFFFF" stroke="#000000" stroke-width="3" stroke-miterlimit="10" cx="1033.33" cy="249" r="10"/>
<g>
	<path d="M1030.81,226.4l-0.98,3.66l2.44,0.65l0.92-3.43l1.85,0.5l-0.92,3.43l4.81,1.29l-0.57,2.13l-10.95-2.93l1.55-5.8
		L1030.81,226.4z"/>
	<path d="M1034.63,220.11l0.53-1.99l7.11,1.91l-0.53,1.99l-0.92-0.25c0.6,0.82,0.77,1.71,0.51,2.68s-0.84,1.69-1.74,2.16
		c-0.9,0.47-1.89,0.57-2.95,0.28c-1.07-0.29-1.88-0.87-2.44-1.73c-0.55-0.86-0.7-1.77-0.44-2.71s0.85-1.64,1.79-2.1L1034.63,220.11z
		 M1035.72,222.3c-0.15,0.56-0.08,1.09,0.2,1.57c0.28,0.5,0.7,0.82,1.25,0.96c0.55,0.15,1.08,0.08,1.57-0.21
		c0.5-0.29,0.81-0.7,0.96-1.25s0.08-1.07-0.21-1.57c-0.28-0.5-0.69-0.81-1.25-0.96c-0.55-0.15-1.07-0.08-1.56,0.19
		C1036.19,221.32,1035.87,221.74,1035.72,222.3z"/>
	<path d="M1031.73,214.11c0.09-0.33,0.28-0.58,0.57-0.75s0.61-0.21,0.93-0.12c0.33,0.09,0.59,0.29,0.76,0.58
		c0.18,0.3,0.22,0.62,0.13,0.95c-0.09,0.33-0.28,0.58-0.58,0.75c-0.29,0.17-0.62,0.21-0.94,0.12c-0.33-0.09-0.59-0.29-0.75-0.59
		C1031.68,214.76,1031.64,214.44,1031.73,214.11z M1036.19,214.27l7.11,1.91l-0.53,1.98l-7.11-1.91L1036.19,214.27z"/>
	<path d="M1044.34,212.31l-0.53,1.99l-7.11-1.91l0.53-1.99l1.08,0.29c-0.74-0.72-1-1.53-0.75-2.42c0.08-0.28,0.21-0.55,0.41-0.82
		l1.78,0.78c-0.25,0.25-0.41,0.54-0.49,0.88c-0.3,1.14,0.26,1.9,1.68,2.28L1044.34,212.31z"/>
	<path d="M1038.76,204.68l4.53-0.79l-3.53-2.93l0.6-2.24l6.28,5.61l-0.24,0.9l-8.23,1.69L1038.76,204.68z"/>
	<path d="M1036.71,195.55c0.09-0.33,0.28-0.58,0.57-0.75c0.29-0.17,0.61-0.21,0.93-0.12c0.33,0.09,0.58,0.29,0.76,0.58
		c0.18,0.3,0.22,0.62,0.13,0.95c-0.09,0.33-0.29,0.58-0.58,0.75c-0.29,0.17-0.62,0.21-0.95,0.12c-0.33-0.09-0.59-0.29-0.75-0.59
		C1036.65,196.2,1036.62,195.88,1036.71,195.55z M1041.17,195.71l7.11,1.91l-0.53,1.98l-7.11-1.91L1041.17,195.71z"/>
	<path d="M1047.42,187.88l-1.43,5.33c1.29,0.29,2.08-0.12,2.37-1.23c0.19-0.69,0.02-1.34-0.5-1.95l0.79-1.76
		c1.31,1.01,1.74,2.37,1.29,4.08c-0.31,1.16-0.9,1.99-1.78,2.5c-0.88,0.51-1.88,0.61-3.03,0.3c-1.15-0.31-1.97-0.89-2.48-1.75
		c-0.51-0.87-0.61-1.86-0.31-2.99c0.3-1.13,0.89-1.93,1.74-2.4s1.88-0.54,3.07-0.22L1047.42,187.88z M1044.75,192.81l0.9-3.37
		c-1-0.04-1.62,0.41-1.86,1.31C1043.55,191.63,1043.89,192.4,1044.75,192.81z"/>
	<path d="M1044.21,184.36l4.61-0.77l-3.78-3.09l0.23-0.85l4.88-0.77l-3.66-3.02l0.6-2.22l6.27,5.62l-0.24,0.9l-4.83,0.77l3.81,3.05
		l-0.24,0.91l-8.23,1.7L1044.21,184.36z"/>
</g>
<circle fill="#FFFFFF" stroke="#000000" stroke-width="3" stroke-miterlimit="10" cx="1111.11" cy="249" r="10"/>
<g>
	<path d="M1110.24,224.59c-1.05,0.61-1.7,1.41-1.96,2.39s-0.12,1.91,0.43,2.8c0.54,0.89,1.36,1.48,2.42,1.77
		c1.07,0.29,2.05,0.18,2.95-0.33c0.9-0.5,1.48-1.27,1.76-2.3c0.14-0.51,0.17-0.99,0.09-1.44c-0.08-0.45-0.27-0.95-0.58-1.51
		l2.51,0.67c0.18,1.04,0.16,1.98-0.08,2.85c-0.43,1.62-1.35,2.84-2.74,3.66s-2.89,1.02-4.48,0.6c-1.6-0.43-2.8-1.35-3.63-2.79
		c-0.83-1.43-1.02-2.95-0.6-4.54c0.24-0.89,0.7-1.72,1.39-2.5L1110.24,224.59z"/>
	<path d="M1112.35,219.42c0.32-1.2,0.93-2.07,1.83-2.63c0.9-0.56,1.91-0.69,3.04-0.39s1.94,0.92,2.43,1.86
		c0.49,0.95,0.58,2.02,0.26,3.23s-0.95,2.08-1.86,2.64c-0.91,0.55-1.92,0.68-3.03,0.38c-1.12-0.3-1.92-0.93-2.41-1.88
		C1112.11,221.7,1112.03,220.62,1112.35,219.42z M1114.13,219.92c-0.15,0.55-0.08,1.08,0.2,1.57c0.28,0.5,0.7,0.82,1.25,0.97
		s1.08,0.08,1.57-0.21c0.5-0.29,0.82-0.71,0.96-1.26c0.15-0.55,0.09-1.09-0.2-1.58c-0.28-0.5-0.69-0.81-1.25-0.96
		s-1.07-0.08-1.57,0.21C1114.6,218.95,1114.28,219.37,1114.13,219.92z"/>
	<path d="M1114.84,210.14c0.32-1.19,0.93-2.07,1.83-2.63c0.9-0.56,1.91-0.69,3.04-0.39s1.94,0.92,2.43,1.86
		c0.49,0.95,0.58,2.02,0.26,3.23c-0.32,1.21-0.94,2.08-1.86,2.64c-0.91,0.55-1.92,0.68-3.03,0.38c-1.12-0.3-1.92-0.93-2.41-1.87
		C1114.6,212.42,1114.52,211.34,1114.84,210.14z M1116.62,210.65c-0.15,0.55-0.08,1.08,0.2,1.57s0.7,0.82,1.25,0.97
		s1.08,0.08,1.57-0.21c0.5-0.29,0.82-0.71,0.96-1.26c0.15-0.55,0.09-1.09-0.2-1.58c-0.28-0.5-0.69-0.81-1.25-0.96
		c-0.55-0.15-1.07-0.08-1.57,0.21C1117.09,209.67,1116.77,210.09,1116.62,210.65z"/>
	<path d="M1111.9,201.26l7.79,2.09l-1.89-3.35l0.72-2.69l2.22,4.17l4.96-2.53l-0.73,2.74l-3.77,1.84l0.16,0.27l2.84,0.76l-0.53,1.99
		l-12.3-3.3L1111.9,201.26z"/>
	<path d="M1121.53,192.7c-0.43,0.33-0.68,0.64-0.76,0.94s-0.08,0.53-0.01,0.71c0.08,0.18,0.21,0.29,0.37,0.34s0.32,0.01,0.47-0.11
		c0.14-0.12,0.38-0.44,0.72-0.94c0.34-0.5,0.64-0.87,0.92-1.08c0.5-0.42,1.11-0.54,1.82-0.35s1.24,0.63,1.56,1.31
		c0.33,0.69,0.38,1.48,0.14,2.35c-0.29,1.07-0.92,1.87-1.91,2.38l-0.93-1.37c0.7-0.41,1.13-0.89,1.29-1.46
		c0.13-0.5-0.11-1-0.54-1.11c-0.22-0.06-0.39-0.04-0.54,0.07c-0.14,0.11-0.4,0.42-0.76,0.94c-0.36,0.52-0.65,0.87-0.88,1.04
		c-0.46,0.38-1.01,0.49-1.67,0.31c-0.67-0.18-1.14-0.56-1.43-1.16c-0.3-0.59-0.34-1.28-0.12-2.09c0.21-0.8,0.67-1.47,1.36-2.02
		L1121.53,192.7z"/>
	<path d="M1120.96,188.2l4.53-0.79l-3.53-2.93l0.6-2.24l6.28,5.61l-0.24,0.9l-8.23,1.69L1120.96,188.2z"/>
	<path d="M1118.9,179.07c0.09-0.33,0.28-0.58,0.57-0.75s0.61-0.21,0.93-0.12c0.33,0.09,0.59,0.29,0.76,0.58
		c0.18,0.3,0.22,0.62,0.13,0.95s-0.28,0.58-0.58,0.75c-0.29,0.17-0.62,0.21-0.94,0.12c-0.33-0.09-0.59-0.29-0.75-0.59
		C1118.85,179.71,1118.81,179.4,1118.9,179.07z M1123.36,179.22l7.11,1.91l-0.53,1.98l-7.11-1.91L1123.36,179.22z"/>
	<path d="M1119.21,173.97l12.3,3.3l-0.53,1.99l-12.3-3.3L1119.21,173.97z"/>
	<path d="M1120.25,170.08l12.3,3.3l-0.53,1.99l-12.3-3.3L1120.25,170.08z"/>
	<path d="M1131.7,163.62l-1.43,5.33c1.29,0.29,2.08-0.12,2.37-1.23c0.18-0.69,0.01-1.34-0.5-1.95l0.79-1.76
		c1.31,1.01,1.74,2.37,1.29,4.07c-0.31,1.16-0.9,1.99-1.78,2.51c-0.88,0.51-1.88,0.61-3.03,0.3c-1.15-0.31-1.97-0.89-2.48-1.75
		c-0.51-0.87-0.61-1.86-0.31-2.99s0.89-1.93,1.74-2.4c0.86-0.47,1.88-0.54,3.07-0.21L1131.7,163.62z M1129.03,168.55l0.9-3.37
		c-1-0.03-1.62,0.41-1.87,1.31C1127.83,167.37,1128.17,168.14,1129.03,168.55z"/>
	<path d="M1132.14,151.47l1.34-5c1.44,0.39,2.47,0.88,3.1,1.44c1.6,1.39,2.17,3.36,1.59,5.53c-0.44,1.66-1.35,2.89-2.71,3.69
		c-1.36,0.8-2.87,0.98-4.53,0.53s-2.88-1.36-3.68-2.75c-0.79-1.39-0.97-2.92-0.52-4.61c0.56-2.08,1.83-3.42,3.84-4.01l0.5,2.14
		c-1.26,0.37-2.06,1.17-2.39,2.4c-0.28,1.04-0.15,1.99,0.39,2.86s1.35,1.46,2.44,1.75c1.09,0.29,2.08,0.2,2.97-0.3
		s1.47-1.25,1.75-2.28c0.21-0.78,0.17-1.48-0.11-2.13c-0.28-0.64-0.76-1.1-1.44-1.36l-0.69,2.57L1132.14,151.47z"/>
	<path d="M1130.1,137.73c0.44-1.63,1.36-2.85,2.77-3.68c1.41-0.83,2.92-1.03,4.54-0.6c1.61,0.43,2.81,1.36,3.61,2.8
		c0.79,1.43,0.97,2.97,0.52,4.63c-0.44,1.65-1.37,2.88-2.78,3.7c-1.41,0.82-2.92,1.01-4.52,0.58s-2.8-1.37-3.6-2.81
		S1129.66,139.35,1130.1,137.73z M1132.05,138.27c-0.27,1-0.13,1.97,0.41,2.88c0.54,0.92,1.33,1.52,2.37,1.79
		c1.04,0.28,2.03,0.16,2.96-0.36c0.93-0.52,1.53-1.27,1.8-2.28c0.27-1.01,0.13-1.98-0.41-2.89s-1.34-1.5-2.38-1.78
		c-1.04-0.28-2.03-0.16-2.95,0.35C1132.92,136.5,1132.32,137.27,1132.05,138.27z"/>
</g>
<circle fill="#FFFFFF" stroke="#000000" stroke-width="3" stroke-miterlimit="10" cx="1188.89" cy="249" r="10"/>
<g>
	<path d="M1193.92,234.63l-10.95-2.93l0.84-3.13c0.43-1.6,1.2-2.79,2.32-3.58c0.67-0.48,1.42-0.8,2.25-0.94
		c0.83-0.15,1.65-0.11,2.47,0.11c0.82,0.22,1.55,0.6,2.2,1.15c0.65,0.55,1.14,1.21,1.49,1.97c0.58,1.22,0.65,2.63,0.22,4.24
		L1193.92,234.63z M1192.63,232l0.15-0.58c0.35-1.31,0.32-2.35-0.09-3.15c-0.45-0.92-1.39-1.64-2.44-1.93
		c-1.12-0.3-2.13-0.15-3.04,0.46c-0.77,0.5-1.33,1.39-1.67,2.68l-0.15,0.58L1192.63,232z"/>
	<path d="M1190.2,220.07l4.03,1.08c1.08,0.29,1.76-0.04,2.02-1.01c0.26-0.97-0.16-1.6-1.24-1.89l-4.03-1.08l0.53-1.99l4.35,1.17
		c1.93,0.52,2.66,2.02,2.07,4.23c-0.59,2.21-1.99,3.16-3.91,2.65l-4.36-1.17L1190.2,220.07z"/>
	<path d="M1192.02,213.28l0.53-1.99l0.89,0.24c-0.65-0.83-0.78-1.57-0.52-2.53c0.23-0.87,0.7-1.49,1.4-1.84
		c0.53-0.26,1.23-0.27,2.12-0.03l4.52,1.21l-0.53,1.99l-3.95-1.06c-0.54-0.15-0.95-0.19-1.2-0.11c-0.43,0.11-0.72,0.44-0.87,1.01
		c-0.27,1,0.25,1.68,1.57,2.04l3.68,0.99l-0.53,1.99L1192.02,213.28z"/>
	<path d="M1190.63,197.69l0.53-1.99l12.3,3.3l-0.53,1.99l-0.92-0.25c0.6,0.82,0.77,1.71,0.51,2.68s-0.84,1.69-1.74,2.16
		c-0.9,0.47-1.89,0.57-2.96,0.28c-1.07-0.29-1.88-0.87-2.43-1.73c-0.55-0.86-0.7-1.77-0.44-2.71s0.85-1.64,1.79-2.1L1190.63,197.69z
		 M1196.91,201.27c-0.15,0.56-0.09,1.08,0.2,1.57c0.28,0.5,0.7,0.82,1.26,0.96c0.55,0.15,1.08,0.08,1.57-0.21
		c0.5-0.29,0.82-0.7,0.96-1.25c0.15-0.54,0.08-1.07-0.21-1.57c-0.28-0.5-0.69-0.81-1.25-0.96c-0.55-0.15-1.07-0.08-1.56,0.19
		C1197.38,200.29,1197.06,200.71,1196.91,201.27z"/>
	<path d="M1198.34,189.67l0.53-1.99l7.11,1.91l-0.53,1.99l-0.92-0.25c0.6,0.82,0.77,1.71,0.51,2.68c-0.26,0.97-0.84,1.69-1.74,2.16
		c-0.9,0.47-1.89,0.57-2.95,0.28c-1.07-0.29-1.88-0.87-2.44-1.73c-0.55-0.86-0.7-1.77-0.44-2.71c0.25-0.95,0.85-1.64,1.79-2.1
		L1198.34,189.67z M1199.43,191.86c-0.15,0.56-0.08,1.09,0.2,1.57c0.28,0.5,0.7,0.82,1.25,0.96c0.55,0.15,1.08,0.08,1.57-0.21
		c0.5-0.29,0.81-0.7,0.96-1.25c0.15-0.54,0.08-1.07-0.21-1.57c-0.28-0.5-0.69-0.81-1.25-0.96s-1.07-0.08-1.56,0.19
		C1199.9,190.89,1199.58,191.31,1199.43,191.86z"/>
	<path d="M1202.08,182.37c-0.43,0.33-0.68,0.64-0.76,0.94c-0.08,0.3-0.08,0.53-0.01,0.71c0.08,0.18,0.21,0.3,0.37,0.34
		s0.32,0.01,0.47-0.12c0.15-0.12,0.38-0.44,0.72-0.94c0.34-0.5,0.65-0.87,0.92-1.08c0.5-0.42,1.11-0.55,1.82-0.35
		s1.24,0.63,1.56,1.31c0.33,0.69,0.38,1.48,0.14,2.35c-0.29,1.07-0.92,1.87-1.91,2.38l-0.93-1.37c0.7-0.41,1.13-0.89,1.29-1.46
		c0.13-0.5-0.11-1-0.54-1.11c-0.22-0.06-0.39-0.04-0.54,0.07c-0.14,0.11-0.39,0.42-0.76,0.94c-0.36,0.52-0.65,0.87-0.88,1.04
		c-0.46,0.38-1.01,0.49-1.67,0.31c-0.66-0.18-1.14-0.56-1.43-1.16c-0.3-0.59-0.34-1.28-0.12-2.09s0.67-1.47,1.36-2.02
		L1202.08,182.37z"/>
</g>
<circle fill="#FFFFFF" stroke="#000000" stroke-width="3" stroke-miterlimit="10" cx="1266.67" cy="249" r="10"/>
<g>
	<path d="M1272.61,231.2l-0.57,2.14l-9.1-2.44l-0.65,2.45l-1.85-0.5l1.89-7.05l1.85,0.5l-0.66,2.46L1272.61,231.2z"/>
	<path d="M1261.29,224.28l0.53-1.99l6.11,1.64c-0.61-0.79-0.79-1.63-0.55-2.53c0.24-0.9,0.71-1.51,1.42-1.84
		c0.55-0.26,1.27-0.26,2.16-0.02l4.46,1.2l-0.53,1.99l-3.89-1.04c-0.57-0.15-0.98-0.19-1.24-0.12c-0.44,0.11-0.74,0.46-0.89,1.01
		c-0.27,1,0.26,1.69,1.6,2.04l3.65,0.98l-0.53,1.99L1261.29,224.28z"/>
	<path d="M1274.57,210.97l-1.43,5.33c1.29,0.29,2.08-0.12,2.37-1.23c0.18-0.69,0.01-1.34-0.5-1.95l0.79-1.76
		c1.31,1.01,1.74,2.37,1.29,4.07c-0.31,1.16-0.9,1.99-1.78,2.51s-1.88,0.61-3.03,0.3c-1.15-0.31-1.97-0.89-2.48-1.75
		c-0.51-0.87-0.61-1.86-0.31-2.99c0.3-1.13,0.89-1.93,1.74-2.39s1.88-0.54,3.07-0.22L1274.57,210.97z M1271.89,215.9l0.9-3.37
		c-1-0.04-1.62,0.41-1.86,1.31C1270.7,214.72,1271.04,215.49,1271.89,215.9z"/>
	<path d="M1273.78,205.01c-1.61-0.43-2.82-1.37-3.62-2.8c-0.8-1.43-0.98-2.98-0.54-4.64c0.45-1.66,1.37-2.9,2.78-3.73
		c1.41-0.83,2.92-1.03,4.54-0.6c1.42,0.38,2.59,1.24,3.49,2.59l2.24-1.3l-0.37,2.2l-1.24,0.64c0.3,1.05,0.3,2.14,0.02,3.24
		c-0.45,1.68-1.37,2.93-2.77,3.78S1275.39,205.44,1273.78,205.01z M1278.41,196.9c-0.48-0.74-1.22-1.24-2.2-1.5
		c-0.99-0.26-1.93-0.14-2.85,0.38c-0.91,0.52-1.51,1.3-1.79,2.33c-0.28,1.04-0.15,2.01,0.39,2.91c0.54,0.91,1.34,1.5,2.42,1.79
		s2.06,0.17,2.96-0.33c0.9-0.51,1.48-1.27,1.76-2.3c0.17-0.62,0.16-1.18-0.02-1.7l-2.64,1.56l0.41-2.26L1278.41,196.9z"/>
	<path d="M1276.28,189.06l4.03,1.08c1.08,0.29,1.76-0.04,2.02-1.02c0.26-0.97-0.16-1.6-1.24-1.89l-4.03-1.08l0.53-1.99l4.35,1.17
		c1.92,0.52,2.66,2.02,2.07,4.23s-1.99,3.16-3.91,2.65l-4.35-1.17L1276.28,189.06z"/>
	<path d="M1283.86,176.32l-1.43,5.33c1.29,0.29,2.08-0.12,2.37-1.23c0.19-0.69,0.02-1.34-0.5-1.95l0.79-1.76
		c1.31,1.01,1.74,2.36,1.29,4.08c-0.31,1.16-0.9,1.99-1.78,2.5c-0.88,0.51-1.88,0.61-3.03,0.31c-1.15-0.31-1.97-0.89-2.48-1.76
		c-0.51-0.87-0.61-1.86-0.31-2.99c0.3-1.13,0.89-1.93,1.74-2.39s1.88-0.54,3.07-0.22L1283.86,176.32z M1281.18,181.25l0.9-3.37
		c-1-0.04-1.62,0.41-1.86,1.31C1279.98,180.07,1280.33,180.84,1281.18,181.25z"/>
	<path d="M1286.13,167.82l-1.43,5.33c1.29,0.29,2.08-0.12,2.37-1.23c0.19-0.69,0.02-1.34-0.5-1.95l0.79-1.76
		c1.31,1.01,1.74,2.37,1.29,4.07c-0.31,1.16-0.9,1.99-1.78,2.51c-0.88,0.51-1.88,0.61-3.03,0.3c-1.15-0.31-1.97-0.89-2.48-1.75
		c-0.51-0.87-0.61-1.86-0.31-2.99c0.3-1.13,0.89-1.93,1.74-2.39s1.88-0.54,3.07-0.22L1286.13,167.82z M1283.46,172.75l0.9-3.37
		c-1-0.04-1.62,0.41-1.86,1.31C1282.26,171.57,1282.6,172.34,1283.46,172.75z"/>
	<path d="M1282.66,165.27l0.53-1.99l0.89,0.24c-0.65-0.83-0.78-1.57-0.52-2.53c0.23-0.87,0.7-1.49,1.41-1.84
		c0.53-0.26,1.23-0.27,2.12-0.03l4.51,1.21l-0.53,1.99l-3.95-1.06c-0.54-0.15-0.95-0.18-1.2-0.11c-0.43,0.11-0.72,0.44-0.87,1.01
		c-0.27,1,0.25,1.68,1.57,2.04l3.68,0.99l-0.53,1.99L1282.66,165.27z"/>
	<path d="M1287.7,153.08c-0.42,0.33-0.68,0.64-0.76,0.94c-0.08,0.3-0.08,0.53-0.01,0.71c0.08,0.18,0.21,0.29,0.37,0.34
		s0.32,0.01,0.47-0.11c0.14-0.12,0.38-0.44,0.72-0.94c0.34-0.5,0.65-0.87,0.92-1.08c0.5-0.42,1.11-0.54,1.82-0.35
		c0.71,0.19,1.24,0.63,1.56,1.31c0.33,0.69,0.38,1.48,0.14,2.35c-0.29,1.07-0.92,1.87-1.91,2.38l-0.93-1.37
		c0.7-0.4,1.13-0.89,1.29-1.46c0.13-0.5-0.11-1-0.54-1.12c-0.22-0.06-0.39-0.04-0.54,0.07c-0.14,0.11-0.4,0.42-0.76,0.94
		c-0.36,0.52-0.65,0.87-0.88,1.04c-0.46,0.39-1.01,0.49-1.67,0.31c-0.67-0.18-1.14-0.56-1.43-1.16c-0.3-0.59-0.34-1.28-0.12-2.09
		s0.67-1.47,1.36-2.02L1287.7,153.08z"/>
	<path d="M1287.13,148.58l4.61-0.77l-3.78-3.09l0.23-0.85l4.88-0.77l-3.66-3.02l0.59-2.22l6.27,5.63l-0.24,0.9l-4.83,0.77l3.81,3.05
		l-0.25,0.91l-8.23,1.7L1287.13,148.58z"/>
	<path d="M1291.62,131.8l0.53-1.99l7.11,1.91l-0.53,1.99l-0.92-0.25c0.6,0.82,0.77,1.71,0.51,2.68s-0.84,1.69-1.74,2.16
		c-0.9,0.47-1.89,0.57-2.95,0.28c-1.07-0.29-1.88-0.86-2.43-1.73c-0.55-0.86-0.7-1.77-0.44-2.71c0.25-0.95,0.85-1.64,1.79-2.1
		L1291.62,131.8z M1292.71,133.99c-0.15,0.56-0.08,1.09,0.2,1.57c0.28,0.5,0.7,0.81,1.25,0.96s1.08,0.08,1.57-0.21
		c0.5-0.29,0.82-0.7,0.96-1.25c0.15-0.54,0.08-1.07-0.21-1.57c-0.28-0.5-0.69-0.81-1.25-0.96c-0.55-0.15-1.07-0.08-1.56,0.19
		C1293.18,133.01,1292.86,133.44,1292.71,133.99z"/>
	<path d="M1299.35,127.08l-6.93,1.75l0.62-2.32l4.61-1.05l-3.5-3.1l0.61-2.29l9.36,8.67l-0.6,2.25L1299.35,127.08z"/>
</g>
<circle fill="#FFFFFF" stroke="#000000" stroke-width="3" stroke-miterlimit="10" cx="1344.44" cy="249" r="10"/>
<g>
	<path d="M1349.47,234.63l-11.2-3l0.4-1.48l9.41-4.63l-7.38-1.98l0.57-2.13l11.17,2.99l-0.4,1.48l-9.41,4.62l7.41,1.98
		L1349.47,234.63z"/>
	<path d="M1346.49,216.42c0.32-1.2,0.93-2.07,1.83-2.63c0.9-0.56,1.91-0.69,3.04-0.39c1.12,0.3,1.94,0.92,2.43,1.86
		c0.49,0.95,0.58,2.02,0.26,3.23c-0.32,1.21-0.94,2.08-1.86,2.64c-0.91,0.55-1.92,0.68-3.03,0.38c-1.11-0.3-1.92-0.93-2.41-1.88
		C1346.25,218.69,1346.17,217.61,1346.49,216.42z M1348.27,216.92c-0.15,0.55-0.08,1.08,0.2,1.57c0.28,0.5,0.7,0.82,1.25,0.97
		c0.55,0.15,1.08,0.08,1.57-0.21c0.5-0.29,0.82-0.71,0.96-1.26c0.15-0.55,0.08-1.08-0.2-1.58c-0.28-0.5-0.69-0.81-1.25-0.96
		c-0.55-0.15-1.07-0.08-1.57,0.21C1348.74,215.94,1348.42,216.37,1348.27,216.92z"/>
	<path d="M1355.85,210.83l-0.53,1.99l-7.11-1.91l0.53-1.99l1.08,0.29c-0.74-0.72-1-1.53-0.75-2.42c0.07-0.28,0.21-0.55,0.41-0.82
		l1.78,0.78c-0.25,0.25-0.41,0.54-0.49,0.88c-0.3,1.14,0.26,1.9,1.68,2.28L1355.85,210.83z"/>
	<path d="M1352.17,203l5.39,1.44l-0.53,1.99l-5.39-1.44l-0.21,0.79l-1.72-0.46l0.21-0.79l-2.43-0.65l0.53-1.99l2.43,0.65l0.38-1.41
		l1.72,0.46L1352.17,203z"/>
	<path d="M1345.94,198.6l0.53-1.99l6.11,1.64c-0.61-0.79-0.79-1.63-0.55-2.53c0.24-0.9,0.71-1.51,1.42-1.84
		c0.55-0.26,1.27-0.26,2.16-0.02l4.46,1.2l-0.53,1.99l-3.89-1.04c-0.57-0.15-0.98-0.19-1.24-0.12c-0.44,0.11-0.74,0.46-0.89,1.01
		c-0.27,1,0.26,1.69,1.6,2.04l3.65,0.98l-0.53,1.99L1345.94,198.6z"/>
	<path d="M1354.15,184.51c0.31,0.08,0.6,0.04,0.85-0.14c0.25-0.18,0.66-0.65,1.21-1.42s1.04-1.3,1.49-1.6
		c0.72-0.5,1.59-0.61,2.62-0.34c1.03,0.28,1.79,0.86,2.27,1.73c0.48,0.88,0.57,1.89,0.26,3.03c-0.41,1.55-1.45,2.61-3.09,3.2
		l-0.96-1.74c1.11-0.25,1.8-0.88,2.07-1.9c0.13-0.49,0.1-0.94-0.11-1.33c-0.21-0.39-0.53-0.65-0.99-0.77
		c-0.46-0.12-0.87-0.03-1.25,0.29c-0.19,0.15-0.57,0.64-1.14,1.46c-0.57,0.82-1.14,1.37-1.69,1.66c-0.55,0.29-1.19,0.33-1.91,0.14
		c-0.92-0.25-1.6-0.77-2.02-1.58s-0.51-1.7-0.25-2.69c0.33-1.22,1.02-2.18,2.08-2.9l1.16,1.51c-0.73,0.36-1.19,0.88-1.36,1.54
		c-0.12,0.44-0.1,0.83,0.06,1.19C1353.6,184.2,1353.84,184.42,1354.15,184.51z"/>
	<path d="M1362.72,172.27l-1.43,5.33c1.29,0.29,2.08-0.12,2.37-1.23c0.19-0.69,0.02-1.34-0.5-1.95l0.79-1.76
		c1.31,1.01,1.74,2.36,1.29,4.07c-0.31,1.16-0.9,1.99-1.78,2.5c-0.88,0.51-1.88,0.61-3.03,0.31c-1.15-0.31-1.97-0.89-2.48-1.75
		c-0.51-0.87-0.61-1.86-0.31-2.99s0.89-1.93,1.74-2.4c0.86-0.47,1.88-0.54,3.08-0.21L1362.72,172.27z M1360.04,177.2l0.9-3.37
		c-1-0.03-1.62,0.41-1.86,1.31C1358.84,176.02,1359.19,176.79,1360.04,177.2z"/>
	<path d="M1366.89,169.64l-0.53,1.99l-7.11-1.91l0.53-1.99l1.08,0.29c-0.74-0.72-1-1.53-0.75-2.42c0.08-0.28,0.21-0.55,0.41-0.82
		l1.78,0.78c-0.25,0.25-0.41,0.54-0.49,0.88c-0.3,1.14,0.26,1.9,1.68,2.28L1366.89,169.64z"/>
	<path d="M1361.31,162.01l4.53-0.79l-3.53-2.93l0.6-2.24l6.28,5.61l-0.24,0.9l-8.23,1.69L1361.31,162.01z"/>
	<path d="M1359.25,152.88c0.09-0.33,0.28-0.58,0.57-0.75c0.29-0.17,0.61-0.21,0.93-0.12c0.33,0.09,0.59,0.29,0.76,0.58
		c0.18,0.3,0.22,0.62,0.13,0.95s-0.28,0.58-0.58,0.75s-0.62,0.21-0.94,0.12s-0.59-0.29-0.75-0.59
		C1359.2,153.53,1359.16,153.21,1359.25,152.88z M1363.71,153.04l7.11,1.91l-0.53,1.98l-7.11-1.91L1363.71,153.04z"/>
	<path d="M1367.82,146.41c-0.55,0.41-0.9,0.9-1.05,1.47c-0.15,0.57-0.09,1.09,0.18,1.59c0.27,0.49,0.69,0.81,1.27,0.97
		c0.58,0.16,1.1,0.09,1.58-0.2c0.48-0.29,0.8-0.72,0.96-1.3c0.15-0.58,0.11-1.17-0.15-1.78l1.93,0.52c0.14,0.66,0.12,1.3-0.04,1.94
		c-0.3,1.11-0.9,1.93-1.83,2.48c-0.91,0.55-1.91,0.68-2.98,0.4c-1.07-0.29-1.87-0.91-2.41-1.85c-0.53-0.94-0.65-1.97-0.35-3.08
		c0.17-0.65,0.48-1.21,0.91-1.69L1367.82,146.41z"/>
	<path d="M1371.8,138.36l-1.43,5.33c1.29,0.29,2.08-0.12,2.37-1.23c0.18-0.69,0.01-1.34-0.5-1.95l0.79-1.76
		c1.31,1.01,1.74,2.37,1.29,4.08c-0.31,1.16-0.9,1.99-1.78,2.5c-0.88,0.51-1.88,0.61-3.03,0.31c-1.15-0.31-1.97-0.89-2.48-1.76
		c-0.51-0.87-0.61-1.86-0.31-2.99c0.3-1.13,0.89-1.93,1.74-2.39c0.86-0.47,1.88-0.54,3.08-0.22L1371.8,138.36z M1369.13,143.29
		l0.9-3.37c-1-0.04-1.62,0.41-1.87,1.31C1367.93,142.11,1368.27,142.88,1369.13,143.29z"/>
	<path d="M1372.79,129.99l4.4,1.18l-0.57,2.13l-10.95-2.93l0.85-3.17c0.33-1.24,0.84-2.1,1.52-2.58c0.79-0.56,1.72-0.7,2.75-0.42
		c1.04,0.28,1.76,0.82,2.15,1.63c0.25,0.5,0.35,1.06,0.29,1.69l5.54-2.21l-0.71,2.63l-5.19,1.77L1372.79,129.99z M1371.29,129.59
		l0.17-0.62c0.36-1.36-0.05-2.25-1.12-2.53c-1.1-0.29-1.83,0.24-2.19,1.61l-0.18,0.66L1371.29,129.59z"/>
	<path d="M1372.66,118.75c0.32-1.19,0.93-2.07,1.83-2.63c0.9-0.56,1.91-0.69,3.03-0.39c1.12,0.3,1.94,0.92,2.43,1.86
		c0.49,0.95,0.58,2.02,0.26,3.23c-0.33,1.21-0.95,2.08-1.86,2.64c-0.91,0.55-1.92,0.68-3.03,0.38c-1.11-0.3-1.92-0.93-2.41-1.87
		S1372.34,119.94,1372.66,118.75z M1374.44,119.25c-0.15,0.55-0.08,1.08,0.2,1.57s0.7,0.82,1.25,0.97s1.08,0.08,1.57-0.21
		c0.5-0.29,0.82-0.71,0.96-1.26c0.15-0.55,0.08-1.09-0.2-1.58c-0.28-0.5-0.69-0.81-1.25-0.96c-0.55-0.15-1.07-0.08-1.57,0.21
		C1374.91,118.28,1374.59,118.7,1374.44,119.25z"/>
	<path d="M1375.83,107.79l0.53-1.99l7.11,1.91l-0.53,1.99l-0.92-0.25c0.6,0.82,0.77,1.71,0.51,2.68s-0.84,1.69-1.74,2.16
		c-0.9,0.47-1.89,0.57-2.95,0.28c-1.07-0.29-1.88-0.87-2.43-1.73c-0.55-0.86-0.7-1.77-0.44-2.71s0.85-1.64,1.79-2.1L1375.83,107.79z
		 M1376.92,109.98c-0.15,0.56-0.08,1.09,0.2,1.57c0.28,0.5,0.7,0.82,1.25,0.96s1.08,0.08,1.57-0.21c0.5-0.29,0.81-0.7,0.96-1.25
		s0.08-1.07-0.21-1.57c-0.28-0.5-0.69-0.81-1.25-0.96c-0.55-0.15-1.07-0.08-1.56,0.19C1377.39,109.01,1377.07,109.43,1376.92,109.98
		z"/>
	<path d="M1373.15,97.06l0.53-1.99l12.3,3.3l-0.53,1.99l-0.92-0.25c0.6,0.82,0.77,1.71,0.51,2.68s-0.84,1.69-1.74,2.16
		c-0.9,0.47-1.89,0.57-2.95,0.28c-1.07-0.29-1.88-0.86-2.43-1.73c-0.55-0.86-0.69-1.77-0.44-2.71c0.25-0.95,0.85-1.64,1.79-2.1
		L1373.15,97.06z M1379.43,100.64c-0.15,0.56-0.08,1.09,0.2,1.57c0.28,0.5,0.7,0.82,1.25,0.96s1.08,0.08,1.57-0.21
		c0.5-0.29,0.81-0.7,0.96-1.25s0.08-1.07-0.21-1.57c-0.28-0.5-0.69-0.81-1.25-0.96c-0.55-0.15-1.07-0.08-1.56,0.19
		C1379.89,99.67,1379.58,100.09,1379.43,100.64z"/>
</g>
<circle fill="#FFFFFF" stroke="#000000" stroke-width="3" stroke-miterlimit="10" cx="1422.22" cy="249" r="10"/>
<g>
	<path d="M1427.09,235.23l-10.61-5.03l0.39-1.46l7.96-1.07l-6.33-5.02l0.39-1.48l11.64,1.16l-0.58,2.16l-7.01-0.82l6.09,4.85
		l-0.16,0.59l-7.68,1.06l6.46,2.91L1427.09,235.23z"/>
	<path d="M1419.93,216.69c0.09-0.33,0.28-0.58,0.57-0.75c0.29-0.17,0.61-0.21,0.93-0.12c0.33,0.09,0.58,0.29,0.76,0.58
		c0.18,0.3,0.22,0.62,0.13,0.95s-0.28,0.58-0.58,0.75s-0.62,0.21-0.94,0.12c-0.33-0.09-0.59-0.29-0.75-0.59
		C1419.88,217.34,1419.84,217.02,1419.93,216.69z M1424.39,216.84l7.11,1.91l-0.53,1.98l-7.11-1.91L1424.39,216.84z"/>
	<path d="M1424.89,214.97l0.53-1.99l0.89,0.24c-0.65-0.83-0.78-1.57-0.52-2.53c0.23-0.87,0.7-1.49,1.41-1.84
		c0.52-0.26,1.23-0.27,2.12-0.03l4.51,1.21l-0.53,1.99l-3.94-1.06c-0.54-0.15-0.95-0.18-1.2-0.11c-0.43,0.11-0.72,0.44-0.87,1.01
		c-0.27,1,0.25,1.68,1.57,2.04l3.68,0.99l-0.53,1.99L1424.89,214.97z"/>
	<path d="M1432.99,200.27l-1.43,5.33c1.29,0.29,2.08-0.12,2.37-1.23c0.18-0.69,0.01-1.34-0.5-1.95l0.79-1.76
		c1.31,1.01,1.74,2.37,1.29,4.08c-0.31,1.16-0.9,1.99-1.78,2.5c-0.88,0.51-1.88,0.61-3.03,0.31c-1.15-0.31-1.97-0.89-2.48-1.75
		s-0.61-1.86-0.31-2.99c0.3-1.13,0.89-1.93,1.74-2.4c0.86-0.47,1.88-0.54,3.08-0.22L1432.99,200.27z M1430.32,205.2l0.9-3.37
		c-1-0.04-1.62,0.41-1.86,1.31C1429.12,204.02,1429.46,204.79,1430.32,205.2z"/>
	<path d="M1430.29,193.95c0.32-1.19,0.93-2.07,1.83-2.63c0.9-0.56,1.91-0.69,3.04-0.39s1.94,0.92,2.43,1.86
		c0.49,0.95,0.58,2.02,0.26,3.23c-0.32,1.21-0.94,2.08-1.86,2.64c-0.91,0.55-1.92,0.68-3.03,0.38s-1.92-0.93-2.41-1.88
		C1430.05,196.22,1429.97,195.14,1430.29,193.95z M1432.07,194.45c-0.15,0.55-0.08,1.08,0.2,1.57c0.28,0.5,0.7,0.82,1.25,0.97
		s1.08,0.08,1.57-0.21c0.5-0.29,0.82-0.71,0.97-1.26c0.15-0.55,0.08-1.09-0.2-1.58c-0.28-0.5-0.69-0.81-1.25-0.96
		c-0.55-0.15-1.07-0.08-1.57,0.21C1432.54,193.48,1432.22,193.9,1432.07,194.45z"/>
	<path d="M1427.35,185.07l12.3,3.29l-0.53,1.99l-12.3-3.29L1427.35,185.07z"/>
	<path d="M1434.5,179.1l0.53-1.99l7.11,1.91l-0.53,1.99l-0.92-0.25c0.6,0.82,0.77,1.71,0.51,2.68c-0.26,0.97-0.84,1.69-1.74,2.16
		c-0.9,0.47-1.89,0.57-2.95,0.28c-1.07-0.29-1.88-0.87-2.43-1.73c-0.55-0.86-0.7-1.77-0.44-2.71c0.25-0.95,0.85-1.64,1.79-2.1
		L1434.5,179.1z M1435.59,181.29c-0.15,0.56-0.08,1.08,0.2,1.57c0.28,0.5,0.7,0.82,1.25,0.96c0.55,0.15,1.08,0.08,1.57-0.21
		c0.5-0.29,0.82-0.7,0.96-1.25c0.15-0.54,0.08-1.07-0.21-1.57c-0.28-0.5-0.69-0.81-1.25-0.96c-0.55-0.15-1.07-0.08-1.56,0.19
		C1436.06,180.32,1435.74,180.74,1435.59,181.29z"/>
</g>
<circle fill="#FFFFFF" stroke="#000000" stroke-width="3" stroke-miterlimit="10" cx="1500" cy="249" r="10"/>
<g>
	<path d="M1501.54,231.41l4.06,1.09l-0.57,2.13l-10.95-2.93l0.86-3.2c0.19-0.71,0.41-1.27,0.64-1.67c0.24-0.4,0.57-0.73,0.97-1
		c0.87-0.57,1.83-0.71,2.86-0.43s1.79,0.81,2.28,1.58s0.56,1.79,0.22,3.05L1501.54,231.41z M1499.69,230.92l0.23-0.87
		c0.36-1.34,0.01-2.15-1.04-2.43c-1.11-0.3-1.77,0.2-2.18,1.7l-0.2,0.74L1499.69,230.92z"/>
	<path d="M1500.86,220.83c0.32-1.2,0.93-2.07,1.83-2.63c0.9-0.56,1.91-0.69,3.04-0.39c1.12,0.3,1.94,0.92,2.43,1.86
		c0.49,0.95,0.58,2.02,0.26,3.23c-0.33,1.21-0.95,2.08-1.86,2.64c-0.91,0.55-1.92,0.68-3.03,0.38c-1.11-0.3-1.92-0.93-2.41-1.88
		C1500.62,223.11,1500.54,222.03,1500.86,220.83z M1502.64,221.34c-0.15,0.55-0.08,1.08,0.2,1.57c0.28,0.5,0.7,0.82,1.25,0.97
		s1.08,0.08,1.57-0.21c0.5-0.29,0.82-0.71,0.96-1.26c0.15-0.55,0.08-1.08-0.2-1.58c-0.28-0.5-0.69-0.81-1.25-0.96
		c-0.55-0.15-1.07-0.08-1.57,0.21C1503.11,220.36,1502.79,220.78,1502.64,221.34z"/>
	<path d="M1510.22,215.25l-0.53,1.99l-7.11-1.91l0.53-1.99l1.08,0.29c-0.74-0.72-1-1.53-0.75-2.42c0.08-0.28,0.21-0.55,0.41-0.82
		l1.78,0.78c-0.25,0.25-0.41,0.54-0.49,0.88c-0.3,1.14,0.26,1.9,1.67,2.28L1510.22,215.25z"/>
	<path d="M1506.54,207.42l5.39,1.44l-0.53,1.99l-5.39-1.44l-0.21,0.79l-1.72-0.46l0.21-0.79l-2.43-0.65l0.53-1.99l2.43,0.65
		l0.38-1.41l1.72,0.46L1506.54,207.42z"/>
	<path d="M1507.87,191.98c-1.05,0.61-1.7,1.41-1.96,2.39c-0.26,0.98-0.12,1.91,0.43,2.8c0.54,0.89,1.36,1.48,2.42,1.77
		c1.07,0.29,2.05,0.18,2.95-0.33c0.9-0.5,1.48-1.27,1.76-2.3c0.14-0.51,0.17-0.99,0.09-1.44c-0.08-0.45-0.27-0.95-0.58-1.51
		l2.51,0.67c0.18,1.04,0.16,1.98-0.08,2.85c-0.43,1.62-1.35,2.84-2.74,3.66c-1.4,0.82-2.89,1.02-4.48,0.6s-2.8-1.35-3.63-2.79
		s-1.02-2.95-0.6-4.54c0.24-0.89,0.7-1.72,1.39-2.5L1507.87,191.98z"/>
	<path d="M1516.86,190.47l-0.53,1.99l-7.11-1.91l0.53-1.99l1.08,0.29c-0.74-0.72-1-1.53-0.75-2.42c0.08-0.28,0.21-0.55,0.41-0.82
		l1.78,0.78c-0.25,0.25-0.41,0.54-0.49,0.88c-0.31,1.14,0.26,1.9,1.67,2.28L1516.86,190.47z"/>
	<path d="M1516.54,178.74l-1.43,5.33c1.29,0.29,2.08-0.12,2.37-1.23c0.18-0.69,0.01-1.34-0.5-1.95l0.79-1.76
		c1.31,1.01,1.74,2.37,1.29,4.08c-0.31,1.16-0.9,1.99-1.78,2.5c-0.88,0.51-1.88,0.61-3.03,0.31c-1.15-0.31-1.97-0.89-2.48-1.75
		s-0.61-1.86-0.31-2.99c0.3-1.13,0.89-1.93,1.74-2.4c0.86-0.47,1.88-0.54,3.08-0.22L1516.54,178.74z M1513.86,183.67l0.9-3.37
		c-1-0.04-1.62,0.41-1.86,1.31C1512.67,182.49,1513.01,183.26,1513.86,183.67z"/>
	<path d="M1509.34,169.35l0.53-1.99l12.3,3.3l-0.53,1.99l-0.92-0.25c0.6,0.82,0.77,1.71,0.51,2.68c-0.26,0.97-0.84,1.69-1.74,2.16
		c-0.9,0.47-1.89,0.57-2.95,0.28c-1.07-0.29-1.88-0.87-2.43-1.73c-0.55-0.86-0.69-1.77-0.44-2.71c0.25-0.95,0.85-1.65,1.79-2.1
		L1509.34,169.35z M1515.61,172.93c-0.15,0.56-0.08,1.09,0.2,1.57c0.28,0.5,0.7,0.82,1.25,0.96s1.08,0.08,1.57-0.21
		c0.5-0.29,0.82-0.7,0.96-1.25c0.15-0.55,0.08-1.07-0.21-1.57c-0.28-0.5-0.69-0.81-1.25-0.96c-0.55-0.15-1.07-0.08-1.56,0.19
		C1516.08,171.96,1515.76,172.38,1515.61,172.93z"/>
	<path d="M1511.63,164.75c0.09-0.33,0.28-0.58,0.57-0.75c0.29-0.17,0.61-0.21,0.93-0.12c0.33,0.09,0.59,0.29,0.76,0.58
		c0.18,0.3,0.22,0.62,0.13,0.95c-0.09,0.33-0.28,0.58-0.58,0.75c-0.29,0.17-0.62,0.21-0.94,0.13c-0.33-0.09-0.59-0.29-0.75-0.59
		C1511.57,165.4,1511.54,165.08,1511.63,164.75z M1516.09,164.9l7.11,1.91l-0.53,1.98l-7.11-1.91L1516.09,164.9z"/>
	<path d="M1518.85,161.48l5.39,1.44l-0.53,1.99l-5.39-1.44l-0.21,0.79l-1.72-0.46l0.21-0.79l-2.43-0.65l0.53-1.99l2.43,0.65
		l0.38-1.41l1.72,0.46L1518.85,161.48z"/>
	<path d="M1521.69,149l1.34-5c1.44,0.39,2.47,0.88,3.1,1.44c1.6,1.39,2.17,3.36,1.59,5.53c-0.44,1.66-1.35,2.89-2.71,3.69
		c-1.36,0.8-2.87,0.98-4.53,0.53c-1.66-0.44-2.88-1.36-3.68-2.75c-0.8-1.39-0.97-2.92-0.52-4.61c0.56-2.08,1.83-3.42,3.84-4.01
		l0.5,2.14c-1.26,0.37-2.06,1.17-2.39,2.4c-0.28,1.03-0.15,1.99,0.39,2.86s1.35,1.46,2.44,1.75c1.09,0.29,2.08,0.2,2.97-0.3
		c0.89-0.49,1.47-1.25,1.75-2.28c0.21-0.78,0.17-1.48-0.11-2.13c-0.28-0.64-0.76-1.1-1.44-1.36l-0.69,2.57L1521.69,149z"/>
	<path d="M1519.65,135.26c0.44-1.63,1.36-2.85,2.77-3.68c1.41-0.83,2.92-1.03,4.54-0.6c1.61,0.43,2.81,1.36,3.61,2.8
		c0.79,1.43,0.96,2.97,0.52,4.63c-0.44,1.65-1.37,2.88-2.78,3.7c-1.41,0.82-2.92,1.01-4.52,0.58s-2.8-1.37-3.6-2.81
		C1519.39,138.42,1519.21,136.88,1519.65,135.26z M1521.6,135.8c-0.27,1-0.13,1.97,0.41,2.88c0.54,0.92,1.33,1.52,2.37,1.8
		s2.03,0.16,2.96-0.36c0.93-0.52,1.53-1.28,1.8-2.29c0.27-1.01,0.13-1.97-0.41-2.89c-0.55-0.91-1.34-1.5-2.38-1.78
		c-1.04-0.28-2.03-0.16-2.95,0.35C1522.47,134.04,1521.87,134.8,1521.6,135.8z"/>
</g>
<g>
	<path fill="#9B9B9B" d="M741.86,277.58v-7.16h3.17c0.64,0,1.12,0.06,1.46,0.19c0.33,0.13,0.6,0.36,0.8,0.68s0.3,0.69,0.3,1.08
		c0,0.51-0.16,0.94-0.49,1.28s-0.84,0.57-1.52,0.66c0.25,0.12,0.44,0.24,0.57,0.36c0.28,0.25,0.54,0.57,0.79,0.95l1.25,1.95h-1.19
		l-0.95-1.49c-0.28-0.43-0.5-0.76-0.68-0.99s-0.34-0.39-0.48-0.48s-0.29-0.15-0.43-0.19c-0.11-0.02-0.28-0.03-0.53-0.03h-1.1v3.18
		H741.86z M742.81,273.58h2.04c0.43,0,0.77-0.04,1.02-0.13c0.24-0.09,0.43-0.23,0.56-0.43c0.13-0.2,0.19-0.41,0.19-0.64
		c0-0.34-0.12-0.62-0.37-0.83s-0.63-0.33-1.16-0.33h-2.27V273.58z"/>
	<path fill="#9B9B9B" d="M752.34,276.94c-0.33,0.28-0.64,0.47-0.94,0.59s-0.62,0.17-0.97,0.17c-0.57,0-1.01-0.14-1.31-0.42
		c-0.31-0.28-0.46-0.63-0.46-1.07c0-0.25,0.06-0.49,0.17-0.7c0.12-0.21,0.27-0.38,0.45-0.51s0.4-0.22,0.63-0.29
		c0.17-0.05,0.43-0.09,0.78-0.13c0.71-0.08,1.23-0.19,1.57-0.3c0-0.12,0-0.2,0-0.23c0-0.36-0.08-0.61-0.25-0.76
		c-0.22-0.2-0.56-0.3-1-0.3c-0.41,0-0.72,0.07-0.92,0.22c-0.2,0.14-0.34,0.4-0.44,0.77l-0.86-0.12c0.08-0.37,0.21-0.67,0.39-0.89
		c0.18-0.23,0.44-0.4,0.78-0.52c0.34-0.12,0.73-0.18,1.18-0.18c0.44,0,0.8,0.05,1.08,0.16s0.48,0.24,0.61,0.39
		c0.13,0.16,0.22,0.36,0.27,0.6c0.03,0.15,0.04,0.42,0.04,0.81v1.17c0,0.82,0.02,1.33,0.06,1.55c0.04,0.22,0.11,0.42,0.22,0.62
		h-0.92C752.43,277.4,752.37,277.19,752.34,276.94z M752.27,274.98c-0.32,0.13-0.8,0.24-1.44,0.33c-0.36,0.05-0.62,0.11-0.77,0.18
		s-0.27,0.16-0.35,0.29c-0.08,0.12-0.12,0.26-0.12,0.42c0,0.23,0.09,0.43,0.27,0.59s0.44,0.23,0.78,0.23c0.34,0,0.64-0.07,0.9-0.22
		c0.26-0.15,0.46-0.35,0.58-0.61c0.09-0.2,0.14-0.49,0.14-0.88V274.98z"/>
	<path fill="#9B9B9B" d="M754.52,271.43v-1.01h0.88v1.01H754.52z M754.52,277.58v-5.19h0.88v5.19H754.52z"/>
	<path fill="#9B9B9B" d="M756.72,277.58v-7.16h0.88v7.16H756.72z"/>
	<path fill="#9B9B9B" d="M761.9,277.58v-7.16h4.83v0.84h-3.88v2.22h3.36v0.84h-3.36v3.25H761.9z"/>
	<path fill="#9B9B9B" d="M771.23,276.94c-0.33,0.28-0.64,0.47-0.94,0.59s-0.62,0.17-0.97,0.17c-0.57,0-1.01-0.14-1.31-0.42
		c-0.31-0.28-0.46-0.63-0.46-1.07c0-0.25,0.06-0.49,0.17-0.7c0.12-0.21,0.27-0.38,0.45-0.51s0.4-0.22,0.63-0.29
		c0.17-0.05,0.43-0.09,0.78-0.13c0.71-0.08,1.23-0.19,1.57-0.3c0-0.12,0-0.2,0-0.23c0-0.36-0.08-0.61-0.25-0.76
		c-0.22-0.2-0.56-0.3-1-0.3c-0.41,0-0.72,0.07-0.92,0.22c-0.2,0.14-0.34,0.4-0.44,0.77l-0.86-0.12c0.08-0.37,0.21-0.67,0.39-0.89
		c0.18-0.23,0.44-0.4,0.78-0.52c0.34-0.12,0.73-0.18,1.18-0.18c0.44,0,0.8,0.05,1.08,0.16s0.48,0.24,0.61,0.39
		c0.13,0.16,0.22,0.36,0.27,0.6c0.03,0.15,0.04,0.42,0.04,0.81v1.17c0,0.82,0.02,1.33,0.06,1.55c0.04,0.22,0.11,0.42,0.22,0.62
		h-0.92C771.32,277.4,771.26,277.19,771.23,276.94z M771.16,274.98c-0.32,0.13-0.8,0.24-1.44,0.33c-0.36,0.05-0.62,0.11-0.77,0.18
		s-0.27,0.16-0.35,0.29c-0.08,0.12-0.12,0.26-0.12,0.42c0,0.23,0.09,0.43,0.27,0.59s0.44,0.23,0.78,0.23c0.34,0,0.64-0.07,0.9-0.22
		c0.26-0.15,0.46-0.35,0.58-0.61c0.09-0.2,0.14-0.49,0.14-0.88V274.98z"/>
	<path fill="#9B9B9B" d="M773.41,277.58v-5.19h0.79v0.74c0.38-0.57,0.93-0.85,1.65-0.85c0.31,0,0.6,0.06,0.86,0.17
		c0.26,0.11,0.46,0.26,0.59,0.44s0.22,0.4,0.27,0.65c0.03,0.16,0.05,0.45,0.05,0.85v3.19h-0.88v-3.15c0-0.36-0.03-0.63-0.1-0.8
		c-0.07-0.18-0.19-0.32-0.36-0.43c-0.17-0.11-0.38-0.16-0.61-0.16c-0.37,0-0.7,0.12-0.97,0.36s-0.41,0.69-0.41,1.35v2.83H773.41z"/>
	<path fill="#9B9B9B" d="M778.62,276.03l0.87-0.14c0.05,0.35,0.18,0.62,0.41,0.8s0.53,0.28,0.94,0.28c0.4,0,0.7-0.08,0.9-0.25
		c0.2-0.17,0.29-0.36,0.29-0.58c0-0.2-0.09-0.35-0.26-0.47c-0.12-0.08-0.42-0.18-0.9-0.3c-0.64-0.16-1.09-0.3-1.34-0.42
		c-0.25-0.12-0.44-0.28-0.57-0.49c-0.13-0.21-0.19-0.44-0.19-0.7c0-0.23,0.05-0.45,0.16-0.64c0.11-0.2,0.25-0.36,0.43-0.49
		c0.14-0.1,0.32-0.19,0.56-0.26c0.24-0.07,0.49-0.11,0.76-0.11c0.41,0,0.76,0.06,1.07,0.18s0.53,0.28,0.68,0.48
		c0.15,0.2,0.25,0.47,0.3,0.8l-0.86,0.12c-0.04-0.27-0.15-0.48-0.34-0.62s-0.45-0.22-0.79-0.22c-0.4,0-0.69,0.07-0.86,0.2
		s-0.26,0.29-0.26,0.47c0,0.11,0.04,0.22,0.11,0.31c0.07,0.09,0.18,0.17,0.34,0.23c0.09,0.03,0.35,0.11,0.78,0.22
		c0.62,0.17,1.06,0.3,1.3,0.41c0.25,0.11,0.44,0.26,0.58,0.46s0.21,0.45,0.21,0.75c0,0.29-0.09,0.57-0.26,0.83
		c-0.17,0.26-0.42,0.46-0.74,0.6c-0.32,0.14-0.69,0.21-1.09,0.21c-0.67,0-1.19-0.14-1.54-0.42S778.72,276.58,778.62,276.03z"/>
	<path fill="#9B9B9B" d="M791.97,275.07l0.95,0.24c-0.2,0.78-0.56,1.37-1.07,1.78c-0.52,0.41-1.15,0.61-1.89,0.61
		c-0.77,0-1.4-0.16-1.88-0.47c-0.48-0.31-0.85-0.77-1.1-1.36s-0.38-1.24-0.38-1.92c0-0.75,0.14-1.4,0.43-1.95
		c0.28-0.55,0.69-0.98,1.22-1.26c0.53-0.29,1.1-0.43,1.74-0.43c0.72,0,1.32,0.18,1.81,0.55s0.83,0.88,1.02,1.54l-0.93,0.22
		c-0.17-0.52-0.41-0.9-0.72-1.14s-0.71-0.36-1.19-0.36c-0.55,0-1.01,0.13-1.38,0.4s-0.63,0.62-0.78,1.06
		c-0.15,0.44-0.22,0.9-0.22,1.37c0,0.61,0.09,1.14,0.27,1.59c0.18,0.45,0.45,0.79,0.83,1.02s0.78,0.34,1.22,0.34
		c0.53,0,0.98-0.15,1.35-0.46S791.84,275.67,791.97,275.07z"/>
	<path fill="#9B9B9B" d="M797.36,276.94c-0.33,0.28-0.64,0.47-0.94,0.59s-0.62,0.17-0.97,0.17c-0.57,0-1.01-0.14-1.31-0.42
		c-0.31-0.28-0.46-0.63-0.46-1.07c0-0.25,0.06-0.49,0.17-0.7c0.12-0.21,0.27-0.38,0.45-0.51s0.4-0.22,0.63-0.29
		c0.17-0.05,0.43-0.09,0.78-0.13c0.71-0.08,1.23-0.19,1.57-0.3c0-0.12,0-0.2,0-0.23c0-0.36-0.08-0.61-0.25-0.76
		c-0.22-0.2-0.56-0.3-1-0.3c-0.41,0-0.72,0.07-0.92,0.22c-0.2,0.14-0.34,0.4-0.44,0.77l-0.86-0.12c0.08-0.37,0.21-0.67,0.39-0.89
		c0.18-0.23,0.44-0.4,0.78-0.52c0.34-0.12,0.73-0.18,1.18-0.18c0.44,0,0.8,0.05,1.08,0.16s0.48,0.24,0.61,0.39
		c0.13,0.16,0.22,0.36,0.27,0.6c0.03,0.15,0.04,0.42,0.04,0.81v1.17c0,0.82,0.02,1.33,0.06,1.55c0.04,0.22,0.11,0.42,0.22,0.62
		h-0.92C797.44,277.4,797.38,277.19,797.36,276.94z M797.28,274.98c-0.32,0.13-0.8,0.24-1.44,0.33c-0.36,0.05-0.62,0.11-0.77,0.18
		s-0.27,0.16-0.35,0.29c-0.08,0.12-0.12,0.26-0.12,0.42c0,0.23,0.09,0.43,0.27,0.59s0.44,0.23,0.78,0.23c0.34,0,0.64-0.07,0.9-0.22
		c0.26-0.15,0.46-0.35,0.58-0.61c0.09-0.2,0.14-0.49,0.14-0.88V274.98z"/>
	<path fill="#9B9B9B" d="M799.53,277.58v-5.19h0.79v0.74c0.38-0.57,0.93-0.85,1.65-0.85c0.31,0,0.6,0.06,0.86,0.17
		c0.26,0.11,0.46,0.26,0.59,0.44c0.13,0.18,0.22,0.4,0.27,0.65c0.03,0.16,0.05,0.45,0.05,0.85v3.19h-0.88v-3.15
		c0-0.36-0.04-0.63-0.1-0.8c-0.07-0.18-0.19-0.32-0.36-0.43c-0.17-0.11-0.38-0.16-0.61-0.16c-0.37,0-0.7,0.12-0.97,0.36
		c-0.27,0.24-0.41,0.69-0.41,1.35v2.83H799.53z"/>
	<path fill="#9B9B9B" d="M808.48,276.94c-0.33,0.28-0.64,0.47-0.94,0.59s-0.62,0.17-0.97,0.17c-0.57,0-1.01-0.14-1.31-0.42
		c-0.31-0.28-0.46-0.63-0.46-1.07c0-0.25,0.06-0.49,0.17-0.7c0.12-0.21,0.27-0.38,0.45-0.51s0.4-0.22,0.63-0.29
		c0.17-0.05,0.43-0.09,0.78-0.13c0.71-0.08,1.23-0.19,1.57-0.3c0-0.12,0-0.2,0-0.23c0-0.36-0.08-0.61-0.25-0.76
		c-0.22-0.2-0.56-0.3-1-0.3c-0.41,0-0.72,0.07-0.92,0.22c-0.2,0.14-0.34,0.4-0.44,0.77l-0.86-0.12c0.08-0.37,0.21-0.67,0.38-0.89
		c0.18-0.23,0.44-0.4,0.78-0.52c0.34-0.12,0.73-0.18,1.18-0.18c0.44,0,0.8,0.05,1.08,0.16c0.28,0.1,0.48,0.24,0.61,0.39
		c0.13,0.16,0.22,0.36,0.27,0.6c0.03,0.15,0.04,0.42,0.04,0.81v1.17c0,0.82,0.02,1.33,0.06,1.55c0.04,0.22,0.11,0.42,0.22,0.62
		h-0.92C808.56,277.4,808.5,277.19,808.48,276.94z M808.41,274.98c-0.32,0.13-0.8,0.24-1.44,0.33c-0.36,0.05-0.62,0.11-0.77,0.18
		c-0.15,0.07-0.26,0.16-0.35,0.29c-0.08,0.12-0.12,0.26-0.12,0.42c0,0.23,0.09,0.43,0.27,0.59s0.44,0.23,0.78,0.23
		c0.34,0,0.64-0.07,0.9-0.22c0.26-0.15,0.46-0.35,0.58-0.61c0.09-0.2,0.14-0.49,0.14-0.88V274.98z"/>
	<path fill="#9B9B9B" d="M814.02,277.58v-0.65c-0.33,0.51-0.81,0.77-1.45,0.77c-0.41,0-0.79-0.11-1.14-0.34s-0.62-0.55-0.81-0.96
		c-0.19-0.41-0.29-0.88-0.29-1.41c0-0.52,0.09-0.99,0.26-1.41c0.17-0.42,0.43-0.75,0.78-0.97c0.34-0.22,0.73-0.34,1.16-0.34
		c0.31,0,0.59,0.07,0.84,0.2c0.24,0.13,0.44,0.3,0.6,0.52v-2.57h0.87v7.16H814.02z M811.24,274.99c0,0.66,0.14,1.16,0.42,1.49
		c0.28,0.33,0.61,0.49,0.99,0.49c0.38,0,0.71-0.16,0.98-0.47c0.27-0.31,0.4-0.79,0.4-1.44c0-0.71-0.14-1.23-0.41-1.56
		s-0.61-0.5-1.01-0.5c-0.39,0-0.72,0.16-0.98,0.48S811.24,274.31,811.24,274.99z"/>
	<path fill="#9B9B9B" d="M819.6,276.94c-0.33,0.28-0.64,0.47-0.94,0.59s-0.62,0.17-0.97,0.17c-0.57,0-1.01-0.14-1.31-0.42
		c-0.31-0.28-0.46-0.63-0.46-1.07c0-0.25,0.06-0.49,0.17-0.7c0.12-0.21,0.27-0.38,0.45-0.51s0.4-0.22,0.63-0.29
		c0.17-0.05,0.43-0.09,0.78-0.13c0.71-0.08,1.23-0.19,1.57-0.3c0-0.12,0-0.2,0-0.23c0-0.36-0.08-0.61-0.25-0.76
		c-0.22-0.2-0.56-0.3-1-0.3c-0.41,0-0.72,0.07-0.92,0.22c-0.2,0.14-0.34,0.4-0.44,0.77l-0.86-0.12c0.08-0.37,0.21-0.67,0.38-0.89
		c0.18-0.23,0.44-0.4,0.78-0.52c0.34-0.12,0.73-0.18,1.18-0.18c0.44,0,0.8,0.05,1.08,0.16c0.28,0.1,0.48,0.24,0.61,0.39
		c0.13,0.16,0.22,0.36,0.27,0.6c0.03,0.15,0.04,0.42,0.04,0.81v1.17c0,0.82,0.02,1.33,0.06,1.55c0.04,0.22,0.11,0.42,0.22,0.62
		h-0.92C819.69,277.4,819.63,277.19,819.6,276.94z M819.53,274.98c-0.32,0.13-0.8,0.24-1.44,0.33c-0.36,0.05-0.62,0.11-0.77,0.18
		c-0.15,0.07-0.26,0.16-0.35,0.29c-0.08,0.12-0.12,0.26-0.12,0.42c0,0.23,0.09,0.43,0.27,0.59s0.44,0.23,0.78,0.23
		c0.34,0,0.64-0.07,0.9-0.22c0.26-0.15,0.46-0.35,0.58-0.61c0.09-0.2,0.14-0.49,0.14-0.88V274.98z"/>
	<path fill="#9B9B9B" d="M823.9,275.35v-0.71h10v0.71H823.9z"/>
	<path fill="#9B9B9B" d="M841.71,276.74v0.84h-4.73c-0.01-0.21,0.03-0.42,0.1-0.61c0.12-0.32,0.31-0.64,0.58-0.95
		s0.65-0.67,1.15-1.08c0.78-0.64,1.3-1.14,1.58-1.52c0.27-0.37,0.41-0.73,0.41-1.06c0-0.35-0.12-0.64-0.37-0.88
		c-0.25-0.24-0.57-0.36-0.97-0.36c-0.42,0-0.76,0.13-1.02,0.38s-0.38,0.61-0.39,1.05l-0.9-0.09c0.06-0.67,0.29-1.19,0.7-1.54
		c0.4-0.35,0.95-0.53,1.63-0.53c0.69,0,1.23,0.19,1.63,0.57s0.6,0.85,0.6,1.42c0,0.29-0.06,0.57-0.18,0.84s-0.31,0.57-0.58,0.87
		s-0.72,0.73-1.35,1.26c-0.53,0.44-0.87,0.74-1.02,0.9c-0.15,0.16-0.27,0.32-0.37,0.48H841.71z"/>
	<path fill="#9B9B9B" d="M842.65,274.05c0-0.85,0.09-1.53,0.26-2.04c0.17-0.52,0.43-0.91,0.78-1.19s0.78-0.42,1.3-0.42
		c0.38,0,0.72,0.08,1.01,0.23c0.29,0.15,0.53,0.38,0.72,0.67c0.19,0.29,0.34,0.65,0.44,1.06c0.11,0.42,0.16,0.98,0.16,1.69
		c0,0.84-0.09,1.52-0.26,2.03c-0.17,0.52-0.43,0.91-0.77,1.2c-0.34,0.28-0.78,0.42-1.3,0.42c-0.69,0-1.23-0.25-1.63-0.74
		C842.89,276.37,842.65,275.4,842.65,274.05z M843.56,274.05c0,1.17,0.14,1.96,0.41,2.35c0.27,0.39,0.61,0.58,1.02,0.58
		c0.4,0,0.74-0.2,1.02-0.59s0.41-1.17,0.41-2.34c0-1.18-0.14-1.96-0.41-2.35s-0.62-0.58-1.03-0.58c-0.4,0-0.73,0.17-0.97,0.51
		C843.71,272.07,843.56,272.88,843.56,274.05z"/>
	<path fill="#9B9B9B" d="M852.83,276.74v0.84h-4.73c-0.01-0.21,0.03-0.42,0.1-0.61c0.12-0.32,0.31-0.64,0.58-0.95
		s0.65-0.67,1.15-1.08c0.78-0.64,1.3-1.14,1.58-1.52c0.27-0.37,0.41-0.73,0.41-1.06c0-0.35-0.12-0.64-0.37-0.88
		c-0.25-0.24-0.57-0.36-0.97-0.36c-0.42,0-0.76,0.13-1.02,0.38s-0.38,0.61-0.39,1.05l-0.9-0.09c0.06-0.67,0.29-1.19,0.7-1.54
		c0.4-0.35,0.95-0.53,1.63-0.53c0.69,0,1.23,0.19,1.63,0.57s0.6,0.85,0.6,1.42c0,0.29-0.06,0.57-0.18,0.84s-0.31,0.57-0.58,0.87
		s-0.72,0.73-1.35,1.26c-0.53,0.44-0.87,0.74-1.02,0.9c-0.15,0.16-0.27,0.32-0.37,0.48H852.83z"/>
	<path fill="#9B9B9B" d="M858.34,272.18l-0.88,0.07c-0.08-0.34-0.19-0.6-0.33-0.75c-0.24-0.25-0.53-0.38-0.88-0.38
		c-0.28,0-0.53,0.08-0.74,0.23c-0.28,0.2-0.5,0.5-0.65,0.88c-0.16,0.39-0.24,0.94-0.25,1.66c0.21-0.32,0.47-0.56,0.78-0.72
		c0.31-0.16,0.63-0.23,0.96-0.23c0.59,0,1.09,0.22,1.5,0.65c0.41,0.43,0.62,0.99,0.62,1.67c0,0.45-0.1,0.87-0.29,1.25
		c-0.19,0.39-0.46,0.68-0.8,0.89c-0.34,0.21-0.72,0.31-1.15,0.31c-0.73,0-1.33-0.27-1.79-0.81c-0.46-0.54-0.69-1.43-0.69-2.66
		c0-1.38,0.25-2.39,0.77-3.02c0.45-0.55,1.05-0.82,1.8-0.82c0.56,0,1.02,0.16,1.38,0.47S858.27,271.62,858.34,272.18z
		 M854.75,275.26c0,0.3,0.06,0.59,0.19,0.87s0.31,0.49,0.54,0.63c0.23,0.15,0.47,0.22,0.73,0.22c0.37,0,0.69-0.15,0.96-0.45
		c0.27-0.3,0.4-0.71,0.4-1.22c0-0.5-0.13-0.88-0.4-1.17c-0.26-0.29-0.6-0.43-1-0.43c-0.4,0-0.73,0.14-1.01,0.43
		C854.89,274.43,854.75,274.8,854.75,275.26z"/>
</g>
<g>
	<path d="M19.71,21.33v24.38h9.02v4.96H14V21.33H19.71z"/>
	<path d="M34.65,20.36c0.88,0,1.63,0.3,2.26,0.92s0.92,1.38,0.92,2.26s-0.32,1.65-0.95,2.28c-0.62,0.64-1.4,0.97-2.28,0.97
		s-1.63-0.32-2.26-0.95s-0.95-1.4-0.95-2.28s0.32-1.65,0.97-2.28C32.99,20.66,33.77,20.36,34.65,20.36z M37.25,31.62v19.06h-5.31
		V31.62H37.25z"/>
	<path d="M42.27,31.62h5.33V34c1.63-2.17,3.39-2.99,5.97-2.99c2.34,0,4.19,0.75,5.54,2.28c1.01,1.14,1.5,2.9,1.5,5.29v12.1h-5.33
		V40.1c0-1.46-0.17-2.49-0.54-3.07c-0.56-1.01-1.59-1.5-3.12-1.5c-2.69,0-4.04,1.76-4.04,5.29v9.86h-5.33V31.62z"/>
	<path d="M84.45,42.02H70.16c0.15,3.42,1.7,5.11,4.66,5.09c1.85,0,3.35-0.86,4.53-2.56l4.92,0.79c-1.65,3.95-4.75,5.93-9.32,5.95
		c-3.12,0-5.59-0.92-7.46-2.77s-2.79-4.3-2.79-7.37s0.9-5.52,2.73-7.37s4.23-2.77,7.26-2.77s5.41,0.92,7.15,2.75s2.6,4.34,2.6,7.54
		V42.02z M70.33,38.62h9.02c-0.58-2.51-2.11-3.78-4.53-3.78C72.48,34.84,70.78,36.21,70.33,38.62z"/>
	<path d="M106.92,26.29h-4.23v-4.96h9.95v29.35h-5.71V26.29z"/>
	<path d="M134.4,20.57c3.33,0,6.08,1.5,8.29,4.49c2.02,2.81,3.03,6.47,3.03,10.91s-1.01,8.1-3.03,10.96
		c-2.06,2.81-5.16,4.49-8.31,4.49c-3.42,0-6.17-1.46-8.25-4.38s-3.14-6.62-3.14-11.11s1.01-8.1,3.03-10.87
		C128.28,22.08,131.07,20.57,134.4,20.57z M134.38,25.64c-1.65,0-3.01,0.97-4.08,2.88s-1.61,4.4-1.61,7.43s0.54,5.52,1.59,7.48
		s2.43,2.92,4.08,2.92s3.03-0.97,4.08-2.9s1.57-4.43,1.57-7.46s-0.54-5.52-1.59-7.46S136.01,25.64,134.38,25.64z"/>
	<path d="M157.82,38.36h9.9v4.43h-9.9V38.36z"/>
	<path d="M187.81,32.67h12.4V21.33h5.74v29.35h-5.74V37.65h-12.4v13.02h-5.71V21.33h5.71V32.67z"/>
	<path d="M226.7,31.62h5.33v19.06h-5.33V48.2c-1.65,2.04-3.76,3.07-6.36,3.07s-4.79-0.97-6.57-2.9s-2.69-4.34-2.69-7.2
		s0.9-5.29,2.69-7.24s3.95-2.92,6.49-2.92s4.68,1.03,6.45,3.07V31.62z M221.95,35.81c-1.5,0-2.77,0.52-3.8,1.55
		c-1.05,1.03-1.57,2.3-1.57,3.78s0.52,2.75,1.57,3.78c1.05,1.05,2.3,1.57,3.76,1.57s2.73-0.52,3.78-1.57
		c1.05-1.03,1.57-2.28,1.57-3.76s-0.52-2.73-1.53-3.78C224.7,36.32,223.43,35.81,221.95,35.81z"/>
	<path d="M254.58,46.05v4.62H235.1l10.81-14.52h-9.15v-4.62h18.54l-10.79,14.52H254.58z"/>
	<path d="M276.88,42.02H262.6c0.15,3.42,1.7,5.11,4.66,5.09c1.85,0,3.35-0.86,4.53-2.56l4.92,0.79c-1.65,3.95-4.75,5.93-9.32,5.95
		c-3.12,0-5.59-0.92-7.46-2.77s-2.79-4.3-2.79-7.37s0.9-5.52,2.73-7.37s4.23-2.77,7.26-2.77s5.41,0.92,7.15,2.75s2.6,4.34,2.6,7.54
		V42.02z M262.77,38.62h9.02c-0.58-2.51-2.11-3.78-4.53-3.78C264.92,34.84,263.22,36.21,262.77,38.62z"/>
	<path d="M286.38,17.72v32.96h-5.33V17.72H286.38z"/>
	<path d="M301.72,50.67l5.46-29.88h3.91l8.01,19.19l8.31-19.19h3.95l4.9,29.88h-5.78l-2.64-18.09l-8.04,18.48h-1.59l-7.8-18.48
		l-2.94,18.09H301.72z"/>
	<path d="M354.94,37.44c-1.4-1.1-2.86-1.63-4.38-1.63s-2.79,0.49-3.85,1.5s-1.57,2.28-1.57,3.82s0.52,2.81,1.57,3.82
		s2.34,1.53,3.89,1.53s2.99-0.52,4.34-1.57v5.18c-1.57,0.79-3.18,1.18-4.88,1.2c-2.96,0-5.44-0.97-7.43-2.9
		c-2-1.91-2.99-4.32-2.99-7.18s1.01-5.29,3.01-7.26c2-1.96,4.49-2.94,7.46-2.94c1.74,0,3.35,0.39,4.83,1.14V37.44z"/>
	<path d="M381,29.21c-2.23-2.21-4.66-3.31-7.28-3.31s-4.86,0.99-6.7,2.94c-1.87,1.96-2.79,4.38-2.79,7.24s0.92,5.24,2.79,7.15
		c1.85,1.91,4.17,2.86,6.94,2.86c1.38,0,2.6-0.24,3.67-0.73s2.19-1.31,3.37-2.47v6.72c-2.47,1.14-4.86,1.72-7.18,1.72
		c-4.34,0-8.01-1.46-11-4.4s-4.49-6.53-4.49-10.81s1.5-7.91,4.53-10.94s6.68-4.53,10.96-4.53c2.38,0,4.77,0.6,7.18,1.8V29.21z"/>
	<path d="M400.03,31.62h5.33v19.06h-5.33V48.2c-1.65,2.04-3.76,3.07-6.36,3.07s-4.79-0.97-6.57-2.9s-2.69-4.34-2.69-7.2
		s0.9-5.29,2.69-7.24s3.95-2.92,6.49-2.92s4.68,1.03,6.45,3.07V31.62z M395.28,35.81c-1.5,0-2.77,0.52-3.8,1.55
		c-1.05,1.03-1.57,2.3-1.57,3.78s0.52,2.75,1.57,3.78c1.05,1.05,2.3,1.57,3.76,1.57s2.73-0.52,3.78-1.57
		c1.05-1.03,1.57-2.28,1.57-3.76s-0.52-2.73-1.53-3.78C398.03,36.32,396.77,35.81,395.28,35.81z"/>
	<path d="M415.78,17.72v32.96h-5.33V17.72H415.78z"/>
	<path d="M426.2,17.72v32.96h-5.33V17.72H426.2z"/>
	<path d="M433.91,20.36c0.88,0,1.63,0.3,2.26,0.92s0.92,1.38,0.92,2.26s-0.32,1.65-0.95,2.28c-0.62,0.64-1.4,0.97-2.28,0.97
		s-1.63-0.32-2.26-0.95s-0.95-1.4-0.95-2.28s0.32-1.65,0.97-2.28C432.26,20.66,433.03,20.36,433.91,20.36z M436.51,31.62v19.06
		h-5.31V31.62H436.51z"/>
	<path d="M451.49,31.02c3.2,0,5.8,0.95,7.8,2.81s3.01,4.32,3.01,7.33s-1.01,5.46-3.03,7.33c-2.04,1.87-4.66,2.81-7.91,2.81
		s-5.84-0.97-7.84-2.88s-2.99-4.34-2.99-7.33s1.03-5.41,3.07-7.28S448.29,31.02,451.49,31.02z M451.42,35.81
		c-1.48,0-2.75,0.52-3.8,1.55s-1.59,2.3-1.59,3.78s0.52,2.75,1.57,3.78c1.05,1.05,2.32,1.57,3.8,1.57s2.77-0.52,3.82-1.57
		c1.05-1.03,1.57-2.28,1.57-3.76s-0.52-2.73-1.57-3.78S452.9,35.81,451.42,35.81z"/>
	<path d="M466.4,31.62h5.33V34c1.63-2.17,3.39-2.99,5.97-2.99c2.34,0,4.19,0.75,5.54,2.28c1.01,1.14,1.5,2.9,1.5,5.29v12.1h-5.33
		V40.1c0-1.46-0.17-2.49-0.54-3.07c-0.56-1.01-1.59-1.5-3.12-1.5c-2.69,0-4.04,1.76-4.04,5.29v9.86h-5.33V31.62z"/>
	<path d="M507.39,21.33v24.38h9.02v4.96h-14.74V21.33H507.39z"/>
	<path d="M522.32,20.36c0.88,0,1.63,0.3,2.26,0.92s0.92,1.38,0.92,2.26s-0.32,1.65-0.95,2.28c-0.62,0.64-1.4,0.97-2.28,0.97
		s-1.63-0.32-2.26-0.95s-0.95-1.4-0.95-2.28s0.32-1.65,0.97-2.28C520.67,20.66,521.44,20.36,522.32,20.36z M524.92,31.62v19.06
		h-5.31V31.62H524.92z"/>
	<path d="M529.95,31.62h5.33V34c1.63-2.17,3.39-2.99,5.97-2.99c2.34,0,4.19,0.75,5.54,2.28c1.01,1.14,1.5,2.9,1.5,5.29v12.1h-5.33
		V40.1c0-1.46-0.17-2.49-0.54-3.07c-0.56-1.01-1.59-1.5-3.12-1.5c-2.69,0-4.04,1.76-4.04,5.29v9.86h-5.33V31.62z"/>
	<path d="M572.12,42.02h-14.29c0.15,3.42,1.7,5.11,4.66,5.09c1.85,0,3.35-0.86,4.53-2.56l4.92,0.79c-1.65,3.95-4.75,5.93-9.32,5.95
		c-3.12,0-5.59-0.92-7.46-2.77s-2.79-4.3-2.79-7.37s0.9-5.52,2.73-7.37s4.23-2.77,7.26-2.77s5.41,0.92,7.15,2.75s2.6,4.34,2.6,7.54
		V42.02z M558.01,38.62h9.02c-0.58-2.51-2.11-3.78-4.53-3.78C560.15,34.84,558.46,36.21,558.01,38.62z"/>
</g>
<g>
	<path fill="#5A5A5A" d="M14,77.45V64.56h2.57l3.05,9.12c0.28,0.85,0.49,1.49,0.62,1.91c0.15-0.47,0.38-1.16,0.69-2.07L24,64.56
		h2.29v12.88h-1.64V66.66l-3.74,10.78h-1.54l-3.73-10.97v10.97H14z"/>
	<path fill="#5A5A5A" d="M35.23,74.44l1.63,0.2c-0.26,0.96-0.74,1.7-1.43,2.22s-1.59,0.79-2.67,0.79c-1.37,0-2.45-0.42-3.25-1.26
		c-0.8-0.84-1.2-2.02-1.2-3.54c0-1.57,0.4-2.79,1.21-3.66s1.86-1.3,3.15-1.3c1.25,0,2.27,0.42,3.06,1.27s1.19,2.04,1.19,3.59
		c0,0.09,0,0.23-0.01,0.42h-6.96c0.06,1.03,0.35,1.81,0.87,2.36s1.17,0.82,1.95,0.82c0.58,0,1.08-0.15,1.49-0.46
		S34.99,75.11,35.23,74.44z M30.04,71.88h5.21c-0.07-0.79-0.27-1.37-0.6-1.77c-0.5-0.61-1.16-0.91-1.96-0.91
		c-0.73,0-1.34,0.24-1.83,0.73S30.09,71.07,30.04,71.88z"/>
	<path fill="#5A5A5A" d="M42.31,76.03l0.23,1.4c-0.45,0.09-0.84,0.14-1.2,0.14c-0.57,0-1.02-0.09-1.34-0.27s-0.54-0.42-0.67-0.72
		s-0.19-0.92-0.19-1.87v-5.37h-1.16v-1.23h1.16V65.8l1.57-0.95v3.26h1.59v1.23h-1.59v5.46c0,0.45,0.03,0.74,0.08,0.87
		s0.15,0.23,0.27,0.31s0.31,0.11,0.54,0.11C41.79,76.09,42.02,76.07,42.31,76.03z"/>
	<path fill="#5A5A5A" d="M43.84,77.45v-9.33h1.42v1.42c0.36-0.66,0.7-1.1,1.01-1.31s0.65-0.32,1.02-0.32c0.53,0,1.08,0.17,1.63,0.51
		l-0.54,1.47c-0.39-0.23-0.77-0.34-1.16-0.34c-0.35,0-0.66,0.1-0.93,0.31s-0.47,0.5-0.59,0.87c-0.18,0.56-0.26,1.18-0.26,1.85v4.89
		H43.84z"/>
	<path fill="#5A5A5A" d="M49.26,72.78c0-1.73,0.48-3.01,1.44-3.84c0.8-0.69,1.78-1.04,2.94-1.04c1.28,0,2.33,0.42,3.15,1.26
		s1.22,2,1.22,3.48c0,1.2-0.18,2.15-0.54,2.83c-0.36,0.69-0.88,1.22-1.57,1.6s-1.44,0.57-2.25,0.57c-1.31,0-2.36-0.42-3.17-1.26
		S49.26,74.36,49.26,72.78z M50.89,72.78c0,1.2,0.26,2.09,0.78,2.68c0.52,0.6,1.18,0.89,1.97,0.89c0.79,0,1.44-0.3,1.96-0.9
		s0.78-1.51,0.78-2.73c0-1.15-0.26-2.03-0.79-2.62c-0.52-0.59-1.18-0.89-1.96-0.89c-0.79,0-1.45,0.3-1.97,0.89
		S50.89,71.58,50.89,72.78z"/>
	<path fill="#5A5A5A" d="M59.83,77.45V64.56h1.58v12.88H59.83z"/>
	<path fill="#5A5A5A" d="M63.87,66.38v-1.82h1.58v1.82H63.87z M63.87,77.45v-9.33h1.58v9.33H63.87z"/>
	<path fill="#5A5A5A" d="M67.86,77.45v-9.33h1.42v1.33c0.69-1.03,1.68-1.54,2.97-1.54c0.56,0,1.08,0.1,1.55,0.3
		c0.47,0.2,0.82,0.47,1.06,0.8s0.4,0.72,0.49,1.17c0.06,0.29,0.09,0.81,0.09,1.54v5.74h-1.58v-5.68c0-0.64-0.06-1.13-0.18-1.45
		s-0.34-0.57-0.65-0.77c-0.31-0.19-0.68-0.29-1.1-0.29c-0.67,0-1.26,0.21-1.74,0.64s-0.73,1.24-0.73,2.43v5.1H67.86z"/>
	<path fill="#5A5A5A" d="M76.82,77.45l3.41-4.85l-3.16-4.48h1.98l1.43,2.19c0.27,0.42,0.49,0.76,0.65,1.05
		c0.26-0.39,0.5-0.73,0.71-1.03l1.57-2.21h1.89l-3.23,4.39l3.47,4.94h-1.94l-1.92-2.9l-0.51-0.78l-2.45,3.68H76.82z"/>
	<path fill="#5A5A5A" d="M91.64,71.14c0-0.62,0.22-1.14,0.65-1.57s0.96-0.65,1.57-0.65c0.62,0,1.14,0.22,1.58,0.65
		s0.65,0.96,0.65,1.57s-0.22,1.14-0.65,1.58s-0.96,0.65-1.58,0.65c-0.61,0-1.13-0.22-1.57-0.65S91.64,71.75,91.64,71.14z"/>
	<path fill="#5A5A5A" d="M103.38,77.45V64.56h4.86c0.86,0,1.51,0.04,1.96,0.12c0.63,0.11,1.16,0.31,1.59,0.6
		c0.43,0.3,0.77,0.71,1.03,1.24s0.39,1.12,0.39,1.76c0,1.1-0.35,2.02-1.05,2.78c-0.7,0.76-1.96,1.14-3.78,1.14h-3.3v5.24H103.38z
		 M105.08,70.69h3.33c1.1,0,1.88-0.21,2.35-0.62s0.69-0.99,0.69-1.73c0-0.54-0.14-1-0.41-1.38c-0.27-0.38-0.63-0.64-1.08-0.76
		c-0.29-0.08-0.82-0.11-1.59-0.11h-3.3V70.69z"/>
	<path fill="#5A5A5A" d="M121.57,74.44l1.63,0.2c-0.26,0.96-0.74,1.7-1.43,2.22s-1.59,0.79-2.67,0.79c-1.37,0-2.45-0.42-3.25-1.26
		c-0.8-0.84-1.2-2.02-1.2-3.54c0-1.57,0.4-2.79,1.21-3.66s1.86-1.3,3.15-1.3c1.25,0,2.27,0.42,3.06,1.27s1.19,2.04,1.19,3.59
		c0,0.09,0,0.23-0.01,0.42h-6.96c0.06,1.03,0.35,1.81,0.87,2.36s1.17,0.82,1.95,0.82c0.58,0,1.08-0.15,1.49-0.46
		S121.33,75.11,121.57,74.44z M116.38,71.88h5.21c-0.07-0.79-0.27-1.37-0.6-1.77c-0.5-0.61-1.16-0.91-1.96-0.91
		c-0.73,0-1.34,0.24-1.83,0.73S116.43,71.07,116.38,71.88z"/>
	<path fill="#5A5A5A" d="M131.58,74.44l1.63,0.2c-0.26,0.96-0.74,1.7-1.43,2.22s-1.59,0.79-2.67,0.79c-1.37,0-2.45-0.42-3.25-1.26
		c-0.8-0.84-1.2-2.02-1.2-3.54c0-1.57,0.4-2.79,1.21-3.66s1.86-1.3,3.15-1.3c1.25,0,2.27,0.42,3.06,1.27s1.19,2.04,1.19,3.59
		c0,0.09,0,0.23-0.01,0.42h-6.96c0.06,1.03,0.35,1.81,0.87,2.36s1.17,0.82,1.95,0.82c0.58,0,1.08-0.15,1.49-0.46
		S131.34,75.11,131.58,74.44z M126.39,71.88h5.21c-0.07-0.79-0.27-1.37-0.6-1.77c-0.5-0.61-1.16-0.91-1.96-0.91
		c-0.73,0-1.34,0.24-1.83,0.73S126.44,71.07,126.39,71.88z"/>
	<path fill="#5A5A5A" d="M135.17,77.45V64.56h1.58v12.88H135.17z"/>
	<path fill="#5A5A5A" d="M144.43,77.45V64.56h5.71c1.15,0,2.02,0.12,2.62,0.35s1.08,0.64,1.43,1.23s0.54,1.23,0.54,1.94
		c0,0.91-0.3,1.68-0.89,2.31s-1.51,1.03-2.74,1.2c0.45,0.22,0.79,0.43,1.03,0.64c0.5,0.46,0.97,1.03,1.42,1.71l2.24,3.51h-2.14
		l-1.71-2.68c-0.5-0.77-0.91-1.37-1.23-1.78s-0.61-0.7-0.87-0.86s-0.51-0.28-0.78-0.34c-0.19-0.04-0.51-0.06-0.95-0.06h-1.98v5.72
		H144.43z M146.13,70.25h3.67c0.78,0,1.39-0.08,1.83-0.24s0.77-0.42,1-0.77s0.34-0.74,0.34-1.16c0-0.61-0.22-1.11-0.66-1.5
		s-1.14-0.59-2.1-0.59h-4.08V70.25z"/>
	<path fill="#5A5A5A" d="M163.59,74.44l1.63,0.2c-0.26,0.96-0.74,1.7-1.43,2.22s-1.59,0.79-2.67,0.79c-1.37,0-2.45-0.42-3.25-1.26
		c-0.8-0.84-1.2-2.02-1.2-3.54c0-1.57,0.4-2.79,1.21-3.66s1.86-1.3,3.15-1.3c1.25,0,2.27,0.42,3.06,1.27s1.19,2.04,1.19,3.59
		c0,0.09,0,0.23-0.01,0.42h-6.96c0.06,1.03,0.35,1.81,0.87,2.36s1.17,0.82,1.95,0.82c0.58,0,1.08-0.15,1.49-0.46
		S163.35,75.11,163.59,74.44z M158.4,71.88h5.21c-0.07-0.79-0.27-1.37-0.6-1.77c-0.5-0.61-1.16-0.91-1.96-0.91
		c-0.73,0-1.34,0.24-1.83,0.73S158.45,71.07,158.4,71.88z"/>
	<path fill="#5A5A5A" d="M166.92,78.22l1.54,0.23c0.06,0.47,0.24,0.82,0.54,1.04c0.39,0.29,0.93,0.44,1.61,0.44
		c0.73,0,1.3-0.15,1.7-0.44s0.67-0.7,0.81-1.23c0.08-0.32,0.12-1,0.11-2.03c-0.69,0.81-1.55,1.22-2.58,1.22
		c-1.28,0-2.28-0.46-2.98-1.39s-1.05-2.04-1.05-3.33c0-0.89,0.16-1.71,0.48-2.47c0.32-0.75,0.79-1.33,1.4-1.74s1.33-0.62,2.16-0.62
		c1.1,0,2.01,0.45,2.72,1.34v-1.12h1.46v8.07c0,1.45-0.15,2.48-0.44,3.09c-0.3,0.61-0.76,1.08-1.41,1.44s-1.43,0.53-2.37,0.53
		c-1.11,0-2.01-0.25-2.7-0.75C167.23,79.98,166.9,79.23,166.92,78.22z M168.23,72.61c0,1.22,0.24,2.12,0.73,2.68s1.1,0.84,1.83,0.84
		c0.73,0,1.34-0.28,1.83-0.84s0.74-1.44,0.74-2.63c0-1.14-0.25-2-0.76-2.58s-1.12-0.87-1.83-0.87c-0.7,0-1.3,0.29-1.79,0.86
		C168.48,70.64,168.23,71.49,168.23,72.61z"/>
	<path fill="#5A5A5A" d="M177.23,66.38v-1.82h1.58v1.82H177.23z M177.23,77.45v-9.33h1.58v9.33H177.23z"/>
	<path fill="#5A5A5A" d="M180.63,72.78c0-1.73,0.48-3.01,1.44-3.84c0.8-0.69,1.78-1.04,2.94-1.04c1.28,0,2.33,0.42,3.15,1.26
		s1.22,2,1.22,3.48c0,1.2-0.18,2.15-0.54,2.83c-0.36,0.69-0.88,1.22-1.57,1.6s-1.44,0.57-2.25,0.57c-1.31,0-2.36-0.42-3.17-1.26
		S180.63,74.36,180.63,72.78z M182.26,72.78c0,1.2,0.26,2.09,0.78,2.68c0.52,0.6,1.18,0.89,1.97,0.89c0.79,0,1.44-0.3,1.96-0.9
		s0.78-1.51,0.78-2.73c0-1.15-0.26-2.03-0.79-2.62c-0.52-0.59-1.18-0.89-1.96-0.89c-0.79,0-1.45,0.3-1.97,0.89
		S182.26,71.58,182.26,72.78z"/>
	<path fill="#5A5A5A" d="M191.23,77.45v-9.33h1.42v1.33c0.69-1.03,1.68-1.54,2.97-1.54c0.56,0,1.08,0.1,1.55,0.3
		c0.47,0.2,0.82,0.47,1.06,0.8s0.4,0.72,0.49,1.17c0.06,0.29,0.09,0.81,0.09,1.54v5.74h-1.58v-5.68c0-0.64-0.06-1.13-0.18-1.45
		s-0.34-0.57-0.65-0.77c-0.31-0.19-0.68-0.29-1.1-0.29c-0.67,0-1.26,0.21-1.74,0.64s-0.73,1.24-0.73,2.43v5.1H191.23z"/>
	<path fill="#5A5A5A" d="M206.01,71.14c0-0.62,0.22-1.14,0.65-1.57s0.96-0.65,1.57-0.65c0.62,0,1.14,0.22,1.58,0.65
		s0.65,0.96,0.65,1.57s-0.22,1.14-0.65,1.58s-0.96,0.65-1.58,0.65c-0.61,0-1.13-0.22-1.57-0.65S206.01,71.75,206.01,71.14z"/>
	<path fill="#5A5A5A" d="M220.7,77.45V66.08h-4.25v-1.52h10.21v1.52h-4.26v11.36H220.7z"/>
	<path fill="#5A5A5A" d="M228.35,77.45V64.56h4.83c0.98,0,1.77,0.13,2.37,0.39c0.59,0.26,1.06,0.66,1.4,1.21s0.51,1.11,0.51,1.7
		c0,0.55-0.15,1.07-0.45,1.56s-0.75,0.88-1.35,1.18c0.78,0.23,1.38,0.62,1.8,1.17s0.63,1.2,0.63,1.95c0,0.6-0.13,1.17-0.38,1.68
		c-0.25,0.52-0.57,0.92-0.94,1.2s-0.85,0.49-1.41,0.64s-1.26,0.21-2.08,0.21H228.35z M230.05,69.98h2.79c0.76,0,1.3-0.05,1.63-0.15
		c0.43-0.13,0.76-0.34,0.98-0.64s0.33-0.67,0.33-1.12c0-0.43-0.1-0.8-0.31-1.13c-0.21-0.33-0.5-0.55-0.88-0.67s-1.03-0.18-1.96-0.18
		h-2.58V69.98z M230.05,75.93h3.21c0.55,0,0.94-0.02,1.16-0.06c0.39-0.07,0.72-0.19,0.98-0.35s0.48-0.4,0.65-0.72
		c0.17-0.31,0.25-0.67,0.25-1.08c0-0.48-0.12-0.9-0.37-1.25c-0.25-0.35-0.59-0.6-1.02-0.75s-1.06-0.22-1.89-0.22h-2.98V75.93z"/>
	<path fill="#5A5A5A" d="M240.42,77.45V64.56h4.44c1,0,1.77,0.06,2.29,0.18c0.74,0.17,1.37,0.48,1.89,0.92
		c0.68,0.57,1.19,1.31,1.52,2.2c0.34,0.89,0.51,1.92,0.51,3.06c0,0.98-0.11,1.85-0.34,2.6s-0.52,1.38-0.88,1.88
		c-0.36,0.5-0.75,0.89-1.17,1.17s-0.94,0.5-1.54,0.65s-1.29,0.22-2.07,0.22H240.42z M242.13,75.93h2.75c0.85,0,1.52-0.08,2-0.24
		s0.87-0.38,1.16-0.67c0.4-0.4,0.72-0.95,0.94-1.63c0.23-0.68,0.34-1.51,0.34-2.48c0-1.35-0.22-2.38-0.66-3.11
		c-0.44-0.72-0.98-1.21-1.61-1.45c-0.46-0.18-1.19-0.26-2.21-0.26h-2.71V75.93z"/>
</g>
</svg>
