<?xml version="1.0" encoding="iso-8859-1"?>
<!-- Generator: Adobe Illustrator 29.8.4, SVG Export Plug-In . SVG Version: 9.03 Build 0)  -->
<svg version="1.1" id="Layer_1" xmlns="http://www.w3.org/2000/svg" xmlns:xlink="http://www.w3.org/1999/xlink" x="0px" y="0px"
	 viewBox="0 0 1500 253" enable-background="new 0 0 1500 253" xml:space="preserve">
<rect id="bg-white" fill="#FFFFFF" width="1500" height="253"/>
<line fill="none" stroke="#84BD00" stroke-width="10" stroke-linecap="round" stroke-miterlimit="10" x1="90" y1="218" x2="1410" y2="218"/>
<circle fill="#FFFFFF" stroke="#000000" stroke-width="3" stroke-miterlimit="10" cx="90" cy="218" r="10"/>
<g>
	<path d="M92.21,194.99l1.42-5.3c1.53,0.42,2.62,0.93,3.28,1.52c1.69,1.47,2.3,3.55,1.68,5.85c-0.47,1.76-1.43,3.07-2.87,3.91
		c-1.44,0.84-3.03,1.03-4.79,0.56c-1.76-0.47-3.05-1.44-3.9-2.91c-0.84-1.47-1.03-3.1-0.55-4.88c0.59-2.2,1.94-3.62,4.07-4.24
		l0.53,2.27c-1.33,0.39-2.18,1.24-2.53,2.54c-0.29,1.09-0.15,2.11,0.42,3.03c0.57,0.93,1.43,1.55,2.59,1.86
		c1.15,0.31,2.2,0.21,3.14-0.31s1.55-1.32,1.85-2.42c0.22-0.82,0.18-1.57-0.11-2.26c-0.3-0.68-0.81-1.16-1.53-1.44l-0.73,2.73
		L92.21,194.99z"/>
	<path d="M94.34,181.74l0.56-2.11l7.53,2.02l-0.56,2.11l-0.98-0.26c0.63,0.87,0.82,1.81,0.54,2.84s-0.89,1.79-1.84,2.29
		c-0.95,0.5-2,0.6-3.13,0.3c-1.13-0.3-1.99-0.92-2.58-1.83s-0.74-1.87-0.47-2.87s0.9-1.74,1.9-2.22L94.34,181.74z M95.49,184.06
		c-0.16,0.59-0.09,1.15,0.21,1.67c0.3,0.53,0.74,0.86,1.33,1.02c0.58,0.16,1.14,0.09,1.66-0.22c0.53-0.3,0.86-0.74,1.02-1.32
		c0.15-0.58,0.08-1.13-0.22-1.66c-0.3-0.53-0.73-0.86-1.32-1.02c-0.59-0.16-1.13-0.09-1.66,0.2
		C95.99,183.03,95.65,183.47,95.49,184.06z"/>
	<path d="M103.54,177.53l-0.56,2.11l-7.53-2.02l0.56-2.11l1.15,0.31c-0.79-0.77-1.06-1.62-0.8-2.56c0.08-0.3,0.22-0.59,0.43-0.87
		l1.88,0.82c-0.26,0.27-0.44,0.58-0.52,0.93c-0.32,1.21,0.27,2.01,1.77,2.41L103.54,177.53z"/>
	<path d="M103.2,165.11l-1.51,5.65c1.37,0.3,2.2-0.13,2.51-1.3c0.2-0.73,0.02-1.42-0.53-2.06l0.83-1.86
		c1.39,1.07,1.84,2.5,1.36,4.31c-0.33,1.23-0.96,2.11-1.88,2.65c-0.93,0.54-1.99,0.65-3.21,0.32s-2.09-0.94-2.62-1.86
		c-0.54-0.92-0.65-1.97-0.33-3.16c0.32-1.2,0.94-2.04,1.84-2.54c0.91-0.49,1.99-0.57,3.26-0.23L103.2,165.11z M100.36,170.33
		l0.96-3.57c-1.05-0.04-1.72,0.43-1.97,1.39C99.1,169.08,99.46,169.9,100.36,170.33z"/>
	<path d="M104.5,153.04c-0.58,0.44-0.95,0.96-1.11,1.56c-0.16,0.6-0.1,1.16,0.19,1.68c0.29,0.52,0.73,0.86,1.35,1.02
		c0.61,0.16,1.17,0.09,1.68-0.21c0.51-0.31,0.85-0.76,1.01-1.38s0.11-1.23-0.16-1.88l2.05,0.55c0.15,0.7,0.13,1.38-0.04,2.05
		c-0.31,1.17-0.96,2.04-1.93,2.63c-0.97,0.59-2.02,0.72-3.15,0.42s-1.98-0.96-2.55-1.96c-0.56-1-0.69-2.09-0.37-3.26
		c0.18-0.69,0.51-1.28,0.96-1.79L104.5,153.04z"/>
	<path d="M108.72,144.52l-1.51,5.65c1.37,0.3,2.2-0.13,2.51-1.3c0.2-0.73,0.02-1.42-0.53-2.06l0.83-1.86
		c1.39,1.07,1.84,2.5,1.36,4.31c-0.33,1.23-0.96,2.11-1.88,2.65c-0.93,0.54-1.99,0.65-3.21,0.32s-2.09-0.94-2.62-1.86
		c-0.54-0.92-0.65-1.97-0.33-3.16c0.32-1.2,0.94-2.04,1.84-2.54c0.91-0.49,1.99-0.57,3.25-0.23L108.72,144.52z M105.88,149.74
		l0.96-3.57c-1.05-0.04-1.72,0.43-1.97,1.39C104.62,148.49,104.98,149.3,105.88,149.74z"/>
	<path d="M105.04,141.82l0.56-2.11l0.94,0.25c-0.68-0.88-0.82-1.66-0.55-2.68c0.25-0.92,0.74-1.58,1.49-1.95
		c0.56-0.28,1.31-0.29,2.25-0.03l4.78,1.28l-0.56,2.11l-4.18-1.12c-0.58-0.16-1-0.2-1.27-0.11c-0.46,0.11-0.76,0.47-0.92,1.07
		c-0.28,1.06,0.27,1.78,1.66,2.16l3.9,1.04l-0.56,2.11L105.04,141.82z"/>
	<path d="M109.91,130.93l5.71,1.53l-0.56,2.11l-5.71-1.53l-0.22,0.83l-1.83-0.49l0.22-0.83l-2.57-0.69l0.56-2.11l2.57,0.69l0.4-1.49
		l1.82,0.49L109.91,130.93z"/>
	<path d="M116.91,127.65l-0.56,2.11l-7.53-2.02l0.56-2.11l1.15,0.31c-0.79-0.77-1.06-1.62-0.8-2.56c0.08-0.3,0.22-0.59,0.43-0.87
		l1.88,0.82c-0.26,0.27-0.44,0.58-0.52,0.93c-0.32,1.21,0.27,2.01,1.77,2.41L116.91,127.65z"/>
	<path d="M112.02,115.78l0.56-2.11l7.53,2.02l-0.56,2.11l-0.98-0.26c0.63,0.87,0.82,1.81,0.54,2.84c-0.27,1.03-0.89,1.79-1.84,2.29
		s-2,0.6-3.13,0.3c-1.13-0.3-1.99-0.92-2.58-1.83c-0.58-0.91-0.74-1.87-0.47-2.87c0.27-1,0.9-1.74,1.9-2.22L112.02,115.78z
		 M113.17,118.1c-0.16,0.59-0.09,1.15,0.21,1.67c0.3,0.53,0.74,0.86,1.33,1.02c0.58,0.16,1.14,0.09,1.66-0.22
		c0.53-0.3,0.86-0.74,1.02-1.32c0.15-0.58,0.08-1.13-0.22-1.66c-0.3-0.52-0.73-0.86-1.32-1.02s-1.13-0.08-1.66,0.2
		C113.66,117.06,113.33,117.51,113.17,118.1z"/>
	<path d="M108.19,108.08l13.02,3.49l-0.56,2.11l-13.02-3.49L108.19,108.08z"/>
	<path d="M120.32,101.24l-1.51,5.65c1.37,0.3,2.2-0.13,2.51-1.3c0.2-0.73,0.01-1.42-0.53-2.06l0.84-1.86
		c1.39,1.07,1.84,2.5,1.36,4.31c-0.33,1.23-0.96,2.11-1.88,2.65s-1.99,0.65-3.21,0.32c-1.21-0.33-2.09-0.94-2.62-1.86
		c-0.54-0.92-0.65-1.97-0.33-3.16c0.32-1.2,0.94-2.04,1.84-2.54c0.91-0.49,1.99-0.57,3.25-0.23L120.32,101.24z M117.48,106.46
		l0.96-3.57c-1.05-0.04-1.72,0.43-1.97,1.39C116.21,105.21,116.58,106.02,117.48,106.46z"/>
</g>
<circle fill="#FFFFFF" stroke="#000000" stroke-width="3" stroke-miterlimit="10" cx="420" cy="218" r="10"/>
<g>
	<path d="M414.39,200.16l-1.67-3.36l3.13-2.1l0.76,1.36l-2.01,1.25l1.11,2.09L414.39,200.16z M417.54,196.87l11.6,3.11l-0.61,2.26
		l-11.6-3.11L417.54,196.87z"/>
	<path d="M417.3,192.05l13.02,3.49l-0.56,2.11l-13.02-3.49L417.3,192.05z"/>
	<path d="M429.42,185.21l-1.51,5.65c1.37,0.3,2.2-0.13,2.51-1.3c0.2-0.73,0.01-1.42-0.53-2.06l0.84-1.86
		c1.39,1.07,1.84,2.5,1.36,4.31c-0.33,1.23-0.96,2.11-1.88,2.65c-0.93,0.54-1.99,0.65-3.21,0.32c-1.21-0.33-2.09-0.94-2.62-1.86
		c-0.54-0.92-0.65-1.97-0.33-3.16c0.32-1.2,0.94-2.04,1.84-2.54c0.91-0.49,1.99-0.57,3.25-0.23L429.42,185.21z M426.58,190.43
		l0.96-3.57c-1.05-0.04-1.72,0.43-1.97,1.39C425.32,189.18,425.68,190,426.58,190.43z"/>
	<path d="M428.33,183.49l1.05-3.91l1.75,0.47l-1.05,3.91L428.33,183.49z"/>
	<path d="M423.04,170.62l0.56-2.11l13.02,3.49l-0.56,2.11l-0.98-0.26c0.63,0.87,0.82,1.81,0.54,2.84c-0.27,1.03-0.89,1.79-1.84,2.29
		s-2,0.6-3.13,0.3c-1.13-0.3-1.99-0.92-2.58-1.83c-0.58-0.91-0.74-1.87-0.47-2.87s0.9-1.74,1.9-2.22L423.04,170.62z M429.69,174.41
		c-0.16,0.59-0.09,1.15,0.21,1.67c0.3,0.53,0.74,0.86,1.33,1.02c0.58,0.16,1.14,0.09,1.66-0.22c0.53-0.3,0.86-0.74,1.02-1.32
		c0.15-0.58,0.08-1.13-0.22-1.66c-0.3-0.53-0.73-0.86-1.32-1.02c-0.59-0.16-1.13-0.09-1.66,0.2
		C430.18,173.38,429.84,173.82,429.69,174.41z"/>
	<path d="M435.73,161.67l-1.51,5.65c1.37,0.3,2.2-0.13,2.51-1.3c0.2-0.73,0.02-1.42-0.53-2.06l0.83-1.86
		c1.39,1.07,1.84,2.5,1.36,4.31c-0.33,1.23-0.96,2.11-1.88,2.65c-0.93,0.54-1.99,0.65-3.21,0.32s-2.09-0.94-2.62-1.86
		s-0.65-1.97-0.33-3.16c0.32-1.2,0.94-2.04,1.84-2.54c0.91-0.49,1.99-0.57,3.25-0.23L435.73,161.67z M432.89,166.89l0.96-3.57
		c-1.05-0.04-1.72,0.43-1.97,1.39C431.63,165.64,431.99,166.45,432.89,166.89z"/>
	<path d="M434.88,155.44c-0.45,0.35-0.72,0.68-0.8,0.99c-0.08,0.31-0.09,0.56-0.01,0.75c0.08,0.2,0.22,0.31,0.39,0.36
		s0.34,0.01,0.5-0.12c0.15-0.13,0.41-0.46,0.77-1c0.36-0.53,0.68-0.92,0.97-1.14c0.53-0.45,1.17-0.58,1.93-0.38
		c0.76,0.2,1.31,0.67,1.66,1.39c0.35,0.73,0.4,1.56,0.15,2.49c-0.3,1.14-0.98,1.98-2.02,2.52l-0.99-1.45
		c0.74-0.43,1.2-0.94,1.36-1.55c0.14-0.53-0.12-1.06-0.57-1.18c-0.23-0.06-0.42-0.04-0.58,0.07c-0.15,0.12-0.42,0.44-0.8,1
		c-0.38,0.55-0.69,0.92-0.93,1.11c-0.48,0.41-1.07,0.52-1.77,0.33c-0.71-0.19-1.21-0.6-1.52-1.23c-0.32-0.62-0.35-1.36-0.13-2.21
		c0.23-0.85,0.71-1.56,1.44-2.14L434.88,155.44z"/>
	<path d="M436.45,153.2l1.05-3.91l1.75,0.47l-1.05,3.91L436.45,153.2z"/>
	<path d="M434.75,144.44c0.33,0.09,0.63,0.04,0.9-0.15c0.27-0.19,0.69-0.69,1.28-1.51c0.58-0.82,1.11-1.38,1.57-1.7
		c0.76-0.53,1.68-0.65,2.78-0.36c1.1,0.29,1.9,0.91,2.4,1.84s0.6,2,0.28,3.21c-0.44,1.64-1.53,2.76-3.27,3.39l-1.02-1.84
		c1.17-0.27,1.91-0.94,2.2-2.01c0.14-0.52,0.1-0.99-0.11-1.41c-0.22-0.41-0.56-0.69-1.05-0.82c-0.48-0.13-0.92-0.03-1.33,0.31
		c-0.2,0.16-0.6,0.68-1.21,1.54c-0.61,0.87-1.21,1.45-1.79,1.76c-0.58,0.31-1.26,0.35-2.02,0.15c-0.98-0.26-1.69-0.82-2.14-1.68
		c-0.45-0.86-0.54-1.8-0.27-2.85c0.35-1.29,1.08-2.31,2.21-3.07l1.23,1.6c-0.78,0.38-1.26,0.93-1.44,1.62
		c-0.12,0.47-0.1,0.88,0.06,1.26S434.42,144.35,434.75,144.44z"/>
	<path d="M443.97,130.89c1.31,0.25,2.24-0.25,2.54-1.37c0.21-0.76,0.01-1.44-0.57-2.04l0.85-1.86c1.39,1.05,1.84,2.5,1.35,4.37
		c-0.34,1.28-1.09,2.15-2.26,2.58c0.41,0.62,0.65,1.19,0.75,1.73c0.09,0.53,0.05,1.15-0.14,1.85c-0.32,1.21-0.96,2.1-1.93,2.68
		c-0.96,0.58-2.01,0.72-3.17,0.4c-1.16-0.31-2.01-0.96-2.56-1.96c-0.55-0.99-0.66-2.12-0.33-3.36c0.33-1.25,1.07-2.15,2.2-2.72
		c-0.73-0.93-0.93-2.03-0.58-3.3c0.25-0.93,0.68-1.66,1.29-2.19c0.61-0.52,1.34-0.79,2.19-0.8c0.58-0.01,1.22,0.08,1.91,0.27
		L443.97,130.89z M440.41,134.44c-0.15,0.57-0.09,1.11,0.21,1.6c0.29,0.51,0.73,0.83,1.32,0.99s1.14,0.1,1.66-0.18
		c0.52-0.27,0.86-0.7,1.02-1.28c0.16-0.58,0.08-1.12-0.23-1.63c-0.3-0.5-0.75-0.83-1.34-0.99s-1.14-0.1-1.64,0.2
		S440.56,133.87,440.41,134.44z M443.62,126.85c-1.06-0.01-1.72,0.45-1.97,1.39c-0.25,0.94,0.09,1.68,1,2.23L443.62,126.85z"/>
	<path d="M442.4,120.35l4.26,1.14c1.15,0.31,1.86-0.05,2.13-1.08s-0.17-1.69-1.31-2l-4.26-1.14l0.56-2.11l4.61,1.24
		c2.04,0.55,2.82,2.14,2.19,4.48c-0.63,2.34-2.11,3.35-4.14,2.8l-4.61-1.24L442.4,120.35z"/>
	<path d="M452.42,113.07l-0.56,2.11l-7.53-2.02l0.56-2.11l1.15,0.31c-0.79-0.77-1.06-1.62-0.8-2.56c0.08-0.3,0.22-0.59,0.43-0.87
		l1.88,0.82c-0.26,0.27-0.44,0.58-0.52,0.93c-0.32,1.21,0.27,2.01,1.77,2.41L452.42,113.07z"/>
	<path d="M448.84,103.33c-0.45,0.35-0.72,0.68-0.8,1s-0.09,0.56-0.01,0.75c0.08,0.2,0.22,0.31,0.39,0.36
		c0.18,0.05,0.34,0.01,0.5-0.12c0.15-0.13,0.41-0.46,0.77-1c0.36-0.53,0.68-0.92,0.97-1.14c0.53-0.45,1.17-0.58,1.93-0.38
		c0.76,0.2,1.31,0.67,1.66,1.39c0.35,0.73,0.4,1.56,0.15,2.49c-0.3,1.14-0.98,1.98-2.02,2.52l-0.99-1.45
		c0.74-0.43,1.2-0.94,1.36-1.55c0.14-0.54-0.12-1.06-0.57-1.18c-0.23-0.06-0.42-0.04-0.58,0.07c-0.15,0.11-0.42,0.44-0.8,1
		c-0.38,0.55-0.69,0.92-0.93,1.11c-0.48,0.41-1.07,0.52-1.77,0.33c-0.71-0.19-1.21-0.6-1.52-1.23c-0.32-0.62-0.35-1.36-0.13-2.21
		s0.71-1.56,1.44-2.14L448.84,103.33z"/>
</g>
<circle fill="#FFFFFF" stroke="#000000" stroke-width="3" stroke-miterlimit="10" cx="750" cy="218" r="10"/>
<g>
	<path d="M753.16,199.08l4.3,1.15l-0.61,2.26l-11.6-3.11l0.91-3.39c0.2-0.76,0.43-1.34,0.68-1.76c0.26-0.42,0.6-0.78,1.02-1.06
		c0.92-0.6,1.94-0.75,3.03-0.45c1.1,0.29,1.9,0.85,2.42,1.68c0.52,0.82,0.59,1.9,0.24,3.23L753.16,199.08z M751.2,198.56l0.25-0.92
		c0.38-1.42,0.01-2.27-1.1-2.57c-1.18-0.32-1.88,0.22-2.31,1.8l-0.21,0.78L751.2,198.56z"/>
	<path d="M753.18,186.07l0.56-2.11l7.53,2.02l-0.56,2.11l-0.98-0.26c0.63,0.87,0.82,1.81,0.54,2.84s-0.89,1.79-1.84,2.29
		s-2,0.6-3.13,0.3c-1.13-0.3-1.99-0.92-2.58-1.83c-0.58-0.91-0.74-1.87-0.47-2.87s0.9-1.74,1.9-2.22L753.18,186.07z M754.33,188.39
		c-0.16,0.59-0.09,1.15,0.21,1.67c0.3,0.53,0.74,0.86,1.33,1.02c0.58,0.16,1.14,0.09,1.66-0.22c0.53-0.3,0.86-0.74,1.02-1.32
		c0.15-0.58,0.08-1.13-0.22-1.66c-0.3-0.53-0.73-0.86-1.32-1.02s-1.13-0.09-1.66,0.2C754.83,187.36,754.49,187.8,754.33,188.39z"/>
	<path d="M754.28,181.95l0.56-2.1l0.94,0.25c-0.68-0.88-0.82-1.66-0.55-2.68c0.25-0.93,0.74-1.58,1.49-1.95
		c0.56-0.28,1.31-0.29,2.25-0.03l4.78,1.28l-0.56,2.11l-4.18-1.12c-0.58-0.15-1-0.2-1.27-0.11c-0.46,0.11-0.76,0.47-0.92,1.07
		c-0.28,1.06,0.27,1.78,1.66,2.16l3.9,1.04l-0.56,2.1L754.28,181.95z"/>
	<path d="M758.31,166.92l0.56-2.11l7.53,2.02l-0.56,2.11l-0.98-0.26c0.63,0.87,0.82,1.81,0.54,2.84s-0.89,1.79-1.84,2.29
		s-2,0.6-3.13,0.3c-1.13-0.3-1.99-0.92-2.58-1.83c-0.58-0.91-0.74-1.87-0.47-2.87s0.9-1.74,1.9-2.22L758.31,166.92z M759.47,169.24
		c-0.16,0.59-0.09,1.15,0.21,1.67c0.3,0.53,0.74,0.86,1.33,1.02c0.58,0.16,1.14,0.09,1.66-0.22c0.53-0.3,0.86-0.74,1.02-1.32
		c0.15-0.58,0.08-1.13-0.22-1.66c-0.3-0.53-0.73-0.86-1.32-1.02s-1.13-0.09-1.66,0.2C759.96,168.21,759.62,168.65,759.47,169.24z"/>
	<path d="M764.94,156.86l3.86,1.04l-0.56,2.11l-4-1.07c-0.59-0.16-1.01-0.23-1.27-0.19c-0.25,0.03-0.48,0.13-0.67,0.31
		c-0.19,0.18-0.32,0.39-0.39,0.62c-0.13,0.48,0.02,1.04,0.42,1.44c0.2,0.2,0.64,0.39,1.31,0.56l3.86,1.03l-0.56,2.11l-7.53-2.02
		l0.56-2.11l0.87,0.23c-0.56-0.85-0.72-1.75-0.47-2.7s0.91-1.58,1.97-1.87c-0.76-0.84-1-1.76-0.73-2.77s0.83-1.63,1.67-1.88
		c0.5-0.15,1.14-0.12,1.93,0.09l4.87,1.3l-0.56,2.1l-4.12-1.1c-0.54-0.14-0.96-0.19-1.25-0.15c-0.49,0.08-0.81,0.37-0.95,0.88
		C762.95,155.81,763.52,156.48,764.94,156.86z"/>
	<path d="M764.64,143.3l0.56-2.11l7.53,2.02l-0.56,2.11l-0.98-0.26c0.63,0.87,0.82,1.81,0.54,2.84c-0.28,1.03-0.89,1.79-1.84,2.29
		c-0.95,0.5-2,0.6-3.13,0.3c-1.13-0.3-1.99-0.92-2.58-1.83c-0.58-0.91-0.74-1.87-0.47-2.87s0.9-1.74,1.9-2.22L764.64,143.3z
		 M765.79,145.62c-0.16,0.59-0.09,1.15,0.21,1.67c0.3,0.53,0.74,0.86,1.33,1.02c0.58,0.16,1.14,0.09,1.66-0.22
		c0.53-0.3,0.86-0.74,1.02-1.32c0.16-0.58,0.08-1.13-0.22-1.66c-0.3-0.53-0.73-0.86-1.32-1.02s-1.13-0.08-1.66,0.2
		C766.29,144.59,765.95,145.03,765.79,145.62z"/>
</g>
<circle fill="#FFFFFF" stroke="#000000" stroke-width="3" stroke-miterlimit="10" cx="1080" cy="218" r="10"/>
<g>
	<path d="M1086.85,202.49l-11.6-3.11l0.89-3.32c0.45-1.69,1.27-2.95,2.45-3.79c0.71-0.51,1.5-0.85,2.38-1s1.75-0.11,2.62,0.12
		c0.87,0.23,1.64,0.64,2.33,1.22c0.69,0.58,1.21,1.28,1.58,2.09c0.61,1.29,0.69,2.79,0.23,4.49L1086.85,202.49z M1085.5,199.71
		l0.16-0.61c0.37-1.38,0.34-2.49-0.1-3.34c-0.48-0.97-1.47-1.74-2.58-2.04c-1.18-0.32-2.26-0.16-3.22,0.48
		c-0.81,0.53-1.4,1.47-1.77,2.84l-0.16,0.61L1085.5,199.71z"/>
	<path d="M1082.91,187.07l4.26,1.14c1.15,0.31,1.86-0.05,2.14-1.08s-0.17-1.69-1.31-2l-4.26-1.14l0.56-2.11l4.61,1.23
		c2.04,0.55,2.82,2.14,2.19,4.48s-2.11,3.35-4.14,2.8l-4.61-1.24L1082.91,187.07z"/>
	<path d="M1087.68,176.27c-1.71-0.46-2.99-1.45-3.84-2.97s-1.04-3.15-0.57-4.91c0.47-1.76,1.45-3.07,2.94-3.95
		c1.49-0.88,3.09-1.09,4.81-0.63c1.5,0.4,2.74,1.32,3.7,2.74l2.37-1.38l-0.39,2.33l-1.32,0.67c0.32,1.11,0.32,2.26,0.02,3.44
		c-0.48,1.77-1.45,3.11-2.94,4C1090.99,176.5,1089.39,176.72,1087.68,176.27z M1092.58,167.68c-0.51-0.78-1.29-1.31-2.33-1.59
		c-1.04-0.28-2.04-0.15-3.02,0.4c-0.97,0.55-1.6,1.37-1.89,2.47c-0.3,1.1-0.16,2.13,0.41,3.09c0.57,0.96,1.42,1.59,2.56,1.9
		c1.14,0.3,2.18,0.18,3.13-0.35c0.95-0.54,1.57-1.34,1.86-2.43c0.17-0.65,0.17-1.25-0.02-1.8l-2.79,1.65l0.43-2.4L1092.58,167.68z"
		/>
	<path d="M1090.33,159.38l4.26,1.14c1.15,0.31,1.86-0.05,2.13-1.08c0.28-1.03-0.17-1.69-1.31-2l-4.26-1.14l0.56-2.11l4.61,1.23
		c2.04,0.55,2.82,2.14,2.19,4.48c-0.63,2.34-2.11,3.35-4.14,2.8l-4.61-1.24L1090.33,159.38z"/>
	<path d="M1093.81,146.41l0.56-2.11l7.53,2.02l-0.56,2.11l-0.98-0.26c0.63,0.87,0.82,1.81,0.54,2.84c-0.28,1.03-0.89,1.79-1.84,2.29
		c-0.95,0.5-2,0.6-3.13,0.3c-1.13-0.3-1.99-0.92-2.58-1.83c-0.58-0.91-0.74-1.87-0.47-2.87s0.9-1.74,1.9-2.22L1093.81,146.41z
		 M1094.96,148.73c-0.16,0.59-0.09,1.15,0.21,1.67c0.3,0.53,0.74,0.86,1.33,1.02c0.59,0.16,1.14,0.09,1.66-0.22
		c0.53-0.3,0.86-0.74,1.02-1.32c0.16-0.58,0.09-1.13-0.22-1.66c-0.3-0.52-0.73-0.86-1.32-1.02c-0.59-0.16-1.13-0.08-1.66,0.2
		C1095.45,147.7,1095.12,148.15,1094.96,148.73z"/>
	<path d="M1103,142.21l-0.56,2.11l-7.53-2.02l0.56-2.11l1.15,0.31c-0.79-0.77-1.06-1.62-0.8-2.56c0.08-0.3,0.22-0.59,0.43-0.87
		l1.88,0.82c-0.26,0.27-0.44,0.58-0.52,0.93c-0.32,1.21,0.27,2.01,1.77,2.41L1103,142.21z"/>
	<path d="M1099.11,133.92l5.71,1.53l-0.56,2.11l-5.71-1.53l-0.22,0.83l-1.83-0.49l0.22-0.83l-2.57-0.69l0.56-2.11l2.57,0.69
		l0.4-1.49l1.83,0.49L1099.11,133.92z"/>
	<path d="M1093.84,128.51c0.09-0.35,0.29-0.61,0.6-0.79c0.31-0.18,0.64-0.22,0.99-0.13c0.35,0.09,0.62,0.3,0.8,0.62
		c0.19,0.31,0.23,0.65,0.14,1c-0.09,0.35-0.3,0.61-0.61,0.79c-0.31,0.18-0.65,0.23-1,0.13c-0.35-0.09-0.62-0.3-0.8-0.62
		C1093.78,129.19,1093.74,128.85,1093.84,128.51z M1098.56,128.67l7.53,2.02l-0.56,2.1l-7.53-2.02L1098.56,128.67z"/>
	<path d="M1105.19,120.38l-1.51,5.64c1.37,0.3,2.2-0.13,2.51-1.3c0.2-0.73,0.02-1.42-0.53-2.06l0.83-1.86
		c1.39,1.07,1.84,2.5,1.36,4.31c-0.33,1.23-0.96,2.11-1.88,2.65c-0.93,0.54-1.99,0.65-3.21,0.32c-1.21-0.33-2.09-0.94-2.62-1.86
		c-0.54-0.92-0.65-1.96-0.33-3.16c0.32-1.2,0.94-2.04,1.84-2.54s1.99-0.57,3.25-0.23L1105.19,120.38z M1102.35,125.6l0.96-3.57
		c-1.05-0.04-1.72,0.43-1.97,1.39C1101.08,124.35,1101.45,125.17,1102.35,125.6z"/>
	<path d="M1109.6,117.6l-0.56,2.11l-7.53-2.02l0.56-2.11l1.15,0.31c-0.79-0.77-1.06-1.62-0.8-2.56c0.08-0.3,0.22-0.59,0.43-0.87
		l1.88,0.82c-0.26,0.27-0.44,0.57-0.52,0.93c-0.32,1.21,0.27,2.01,1.77,2.41L1109.6,117.6z"/>
</g>
<circle fill="#FFFFFF" stroke="#000000" stroke-width="3" stroke-miterlimit="10" cx="1410" cy="218" r="10"/>
<g>
	<path d="M1416.85,202.49l-11.6-3.11l0.77-2.87c0.35-1.31,0.83-2.19,1.45-2.64c0.73-0.55,1.61-0.69,2.64-0.41
		c0.64,0.17,1.15,0.46,1.54,0.88c0.18,0.22,0.33,0.56,0.47,1.02c0.34-0.66,0.72-1.09,1.14-1.32c0.7-0.4,1.52-0.48,2.46-0.23
		s1.62,0.8,2.05,1.63c0.42,0.83,0.46,1.88,0.12,3.14L1416.85,202.49z M1410.69,198.42l0.17-0.64c0.31-1.17-0.03-1.89-1.03-2.16
		s-1.66,0.17-1.96,1.32l-0.18,0.68L1410.69,198.42z M1415.63,199.75l0.26-0.98c0.4-1.5,0.07-2.4-0.99-2.69
		c-0.59-0.16-1.08-0.04-1.47,0.33c-0.31,0.27-0.57,0.81-0.79,1.62l-0.23,0.85L1415.63,199.75z"/>
	<path d="M1419.98,190.81l-0.56,2.11l-7.53-2.02l0.56-2.11l1.15,0.31c-0.79-0.77-1.06-1.62-0.8-2.56c0.08-0.3,0.22-0.59,0.43-0.87
		l1.88,0.82c-0.26,0.27-0.44,0.57-0.52,0.93c-0.32,1.21,0.27,2.01,1.77,2.41L1419.98,190.81z"/>
	<path d="M1414.36,180.73c0.34-1.26,0.99-2.19,1.94-2.78c0.95-0.59,2.02-0.73,3.21-0.41c1.19,0.32,2.05,0.98,2.58,1.97
		c0.52,1,0.62,2.14,0.27,3.42c-0.34,1.28-1,2.21-1.97,2.79c-0.97,0.59-2.03,0.72-3.21,0.4c-1.18-0.32-2.03-0.98-2.55-1.99
		C1414.1,183.14,1414.02,182,1414.36,180.73z M1416.24,181.27c-0.16,0.59-0.09,1.14,0.21,1.67c0.3,0.53,0.74,0.87,1.33,1.03
		c0.58,0.16,1.14,0.09,1.66-0.22c0.53-0.3,0.87-0.75,1.02-1.34c0.16-0.58,0.09-1.15-0.21-1.68c-0.3-0.53-0.73-0.86-1.32-1.02
		s-1.13-0.08-1.66,0.22S1416.4,180.68,1416.24,181.27z"/>
	<path d="M1419.03,171.26c-0.45,0.35-0.72,0.68-0.8,1s-0.09,0.56-0.01,0.75c0.08,0.2,0.22,0.31,0.39,0.36
		c0.18,0.05,0.34,0.01,0.5-0.12s0.41-0.46,0.77-1c0.36-0.53,0.68-0.92,0.97-1.14c0.53-0.45,1.17-0.58,1.93-0.37
		c0.76,0.2,1.31,0.67,1.66,1.39c0.35,0.73,0.4,1.56,0.15,2.49c-0.31,1.14-0.98,1.98-2.02,2.52l-0.99-1.45
		c0.74-0.43,1.2-0.94,1.36-1.55c0.14-0.54-0.12-1.06-0.57-1.18c-0.23-0.06-0.42-0.04-0.58,0.07c-0.15,0.12-0.42,0.44-0.8,1
		c-0.38,0.55-0.69,0.92-0.93,1.11c-0.48,0.41-1.07,0.51-1.77,0.33c-0.71-0.19-1.21-0.6-1.52-1.23c-0.32-0.62-0.36-1.36-0.13-2.21
		c0.23-0.85,0.71-1.56,1.44-2.14L1419.03,171.26z"/>
	<path d="M1420.91,164.27c-0.45,0.35-0.72,0.68-0.8,1c-0.08,0.31-0.09,0.56-0.01,0.75c0.08,0.2,0.22,0.31,0.39,0.36
		c0.18,0.05,0.34,0.01,0.5-0.12s0.41-0.46,0.77-1c0.36-0.53,0.68-0.92,0.97-1.14c0.53-0.45,1.17-0.58,1.93-0.38
		c0.76,0.2,1.31,0.67,1.66,1.39c0.35,0.73,0.4,1.56,0.15,2.49c-0.31,1.14-0.98,1.98-2.02,2.52l-0.99-1.45
		c0.74-0.43,1.2-0.94,1.36-1.55c0.14-0.54-0.12-1.06-0.57-1.18c-0.23-0.06-0.42-0.04-0.58,0.07c-0.15,0.11-0.42,0.44-0.8,1
		c-0.38,0.55-0.69,0.92-0.93,1.11c-0.48,0.41-1.07,0.51-1.77,0.33c-0.71-0.19-1.21-0.6-1.52-1.23c-0.32-0.62-0.36-1.36-0.13-2.21
		s0.71-1.56,1.44-2.14L1420.91,164.27z"/>
	<path d="M1421.48,155.09l0.56-2.11l7.53,2.02l-0.56,2.11l-0.98-0.26c0.63,0.87,0.82,1.81,0.54,2.84c-0.28,1.03-0.89,1.79-1.84,2.29
		s-2,0.6-3.13,0.3c-1.13-0.3-1.99-0.92-2.58-1.83c-0.58-0.91-0.74-1.87-0.47-2.87s0.9-1.74,1.9-2.22L1421.48,155.09z
		 M1422.63,157.41c-0.16,0.59-0.09,1.15,0.21,1.67c0.3,0.53,0.74,0.86,1.33,1.02c0.58,0.16,1.14,0.09,1.66-0.22
		c0.53-0.3,0.86-0.74,1.02-1.32c0.15-0.58,0.08-1.13-0.22-1.66c-0.3-0.53-0.73-0.86-1.32-1.02s-1.13-0.08-1.66,0.2
		C1423.13,156.38,1422.79,156.82,1422.63,157.41z"/>
	<path d="M1430.68,150.89l-0.56,2.11l-7.53-2.02l0.56-2.11l1.15,0.31c-0.79-0.77-1.06-1.62-0.8-2.56c0.08-0.3,0.22-0.59,0.43-0.87
		l1.88,0.82c-0.26,0.27-0.44,0.58-0.52,0.93c-0.32,1.21,0.27,2.01,1.77,2.41L1430.68,150.89z"/>
	<path d="M1420.3,137.54l0.56-2.11l13.02,3.49l-0.56,2.11l-0.98-0.26c0.63,0.87,0.82,1.81,0.54,2.84s-0.89,1.79-1.84,2.29
		s-2,0.6-3.13,0.3s-1.99-0.92-2.58-1.83c-0.58-0.91-0.74-1.87-0.47-2.87s0.9-1.74,1.9-2.22L1420.3,137.54z M1426.94,141.33
		c-0.16,0.59-0.09,1.15,0.21,1.67c0.3,0.53,0.74,0.86,1.33,1.02s1.14,0.09,1.66-0.22c0.53-0.3,0.86-0.74,1.02-1.32
		c0.15-0.58,0.08-1.13-0.22-1.66c-0.3-0.53-0.73-0.86-1.32-1.02s-1.13-0.09-1.66,0.2C1427.44,140.3,1427.1,140.75,1426.94,141.33z"
		/>
</g>
<g>
	<path fill="#9B9B9B" d="M691.86,246.58v-7.16h3.17c0.64,0,1.12,0.06,1.46,0.19c0.33,0.13,0.6,0.36,0.8,0.68s0.3,0.69,0.3,1.08
		c0,0.51-0.16,0.94-0.49,1.28s-0.84,0.57-1.52,0.66c0.25,0.12,0.44,0.24,0.57,0.36c0.28,0.25,0.54,0.57,0.79,0.95l1.25,1.95h-1.19
		l-0.95-1.49c-0.28-0.43-0.5-0.76-0.68-0.99s-0.34-0.39-0.48-0.48s-0.29-0.15-0.43-0.19c-0.11-0.02-0.28-0.03-0.53-0.03h-1.1v3.18
		H691.86z M692.81,242.58h2.04c0.43,0,0.77-0.04,1.02-0.13c0.24-0.09,0.43-0.23,0.56-0.43c0.13-0.2,0.19-0.41,0.19-0.64
		c0-0.34-0.12-0.62-0.37-0.83s-0.63-0.33-1.16-0.33h-2.27V242.58z"/>
	<path fill="#9B9B9B" d="M702.34,245.94c-0.33,0.28-0.64,0.47-0.94,0.59s-0.62,0.17-0.97,0.17c-0.57,0-1.01-0.14-1.31-0.42
		c-0.31-0.28-0.46-0.63-0.46-1.07c0-0.25,0.06-0.49,0.17-0.7c0.12-0.21,0.27-0.38,0.45-0.51s0.4-0.22,0.63-0.29
		c0.17-0.05,0.43-0.09,0.78-0.13c0.71-0.08,1.23-0.19,1.57-0.3c0-0.12,0-0.2,0-0.23c0-0.36-0.08-0.61-0.25-0.76
		c-0.22-0.2-0.56-0.3-1-0.3c-0.41,0-0.72,0.07-0.92,0.22c-0.2,0.14-0.34,0.4-0.44,0.77l-0.86-0.12c0.08-0.37,0.21-0.67,0.39-0.89
		c0.18-0.23,0.44-0.4,0.78-0.52c0.34-0.12,0.73-0.18,1.18-0.18c0.44,0,0.8,0.05,1.08,0.16s0.48,0.24,0.61,0.39
		c0.13,0.16,0.22,0.36,0.27,0.6c0.03,0.15,0.04,0.42,0.04,0.81v1.17c0,0.82,0.02,1.33,0.06,1.55c0.04,0.22,0.11,0.42,0.22,0.62
		h-0.92C702.43,246.4,702.37,246.19,702.34,245.94z M702.27,243.98c-0.32,0.13-0.8,0.24-1.44,0.33c-0.36,0.05-0.62,0.11-0.77,0.18
		s-0.27,0.16-0.35,0.29c-0.08,0.12-0.12,0.26-0.12,0.42c0,0.23,0.09,0.43,0.27,0.59s0.44,0.23,0.78,0.23c0.34,0,0.64-0.07,0.9-0.22
		c0.26-0.15,0.46-0.35,0.58-0.61c0.09-0.2,0.14-0.49,0.14-0.88V243.98z"/>
	<path fill="#9B9B9B" d="M704.52,240.43v-1.01h0.88v1.01H704.52z M704.52,246.58v-5.19h0.88v5.19H704.52z"/>
	<path fill="#9B9B9B" d="M706.72,246.58v-7.16h0.88v7.16H706.72z"/>
	<path fill="#9B9B9B" d="M711.9,246.58v-7.16h4.83v0.84h-3.88v2.22h3.36v0.84h-3.36v3.25H711.9z"/>
	<path fill="#9B9B9B" d="M721.23,245.94c-0.33,0.28-0.64,0.47-0.94,0.59s-0.62,0.17-0.97,0.17c-0.57,0-1.01-0.14-1.31-0.42
		c-0.31-0.28-0.46-0.63-0.46-1.07c0-0.25,0.06-0.49,0.17-0.7c0.12-0.21,0.27-0.38,0.45-0.51s0.4-0.22,0.63-0.29
		c0.17-0.05,0.43-0.09,0.78-0.13c0.71-0.08,1.23-0.19,1.57-0.3c0-0.12,0-0.2,0-0.23c0-0.36-0.08-0.61-0.25-0.76
		c-0.22-0.2-0.56-0.3-1-0.3c-0.41,0-0.72,0.07-0.92,0.22c-0.2,0.14-0.34,0.4-0.44,0.77l-0.86-0.12c0.08-0.37,0.21-0.67,0.39-0.89
		c0.18-0.23,0.44-0.4,0.78-0.52c0.34-0.12,0.73-0.18,1.18-0.18c0.44,0,0.8,0.05,1.08,0.16s0.48,0.24,0.61,0.39
		c0.13,0.16,0.22,0.36,0.27,0.6c0.03,0.15,0.04,0.42,0.04,0.81v1.17c0,0.82,0.02,1.33,0.06,1.55c0.04,0.22,0.11,0.42,0.22,0.62
		h-0.92C721.32,246.4,721.26,246.19,721.23,245.94z M721.16,243.98c-0.32,0.13-0.8,0.24-1.44,0.33c-0.36,0.05-0.62,0.11-0.77,0.18
		s-0.27,0.16-0.35,0.29c-0.08,0.12-0.12,0.26-0.12,0.42c0,0.23,0.09,0.43,0.27,0.59s0.44,0.23,0.78,0.23c0.34,0,0.64-0.07,0.9-0.22
		c0.26-0.15,0.46-0.35,0.58-0.61c0.09-0.2,0.14-0.49,0.14-0.88V243.98z"/>
	<path fill="#9B9B9B" d="M723.41,246.58v-5.19h0.79v0.74c0.38-0.57,0.93-0.85,1.65-0.85c0.31,0,0.6,0.06,0.86,0.17
		c0.26,0.11,0.46,0.26,0.59,0.44s0.22,0.4,0.27,0.65c0.03,0.16,0.05,0.45,0.05,0.85v3.19h-0.88v-3.15c0-0.36-0.03-0.63-0.1-0.8
		c-0.07-0.18-0.19-0.32-0.36-0.43c-0.17-0.11-0.38-0.16-0.61-0.16c-0.37,0-0.7,0.12-0.97,0.36s-0.41,0.69-0.41,1.35v2.83H723.41z"/>
	<path fill="#9B9B9B" d="M728.62,245.03l0.87-0.14c0.05,0.35,0.18,0.62,0.41,0.8s0.53,0.28,0.94,0.28c0.4,0,0.7-0.08,0.9-0.25
		c0.2-0.17,0.29-0.36,0.29-0.58c0-0.2-0.09-0.35-0.26-0.47c-0.12-0.08-0.42-0.18-0.9-0.3c-0.64-0.16-1.09-0.3-1.34-0.42
		c-0.25-0.12-0.44-0.28-0.57-0.49c-0.13-0.21-0.19-0.44-0.19-0.7c0-0.23,0.05-0.45,0.16-0.64c0.11-0.2,0.25-0.36,0.43-0.49
		c0.14-0.1,0.32-0.19,0.56-0.26c0.24-0.07,0.49-0.11,0.76-0.11c0.41,0,0.76,0.06,1.07,0.18s0.53,0.28,0.68,0.48
		c0.15,0.2,0.25,0.47,0.3,0.8l-0.86,0.12c-0.04-0.27-0.15-0.48-0.34-0.62s-0.45-0.22-0.79-0.22c-0.4,0-0.69,0.07-0.86,0.2
		s-0.26,0.29-0.26,0.47c0,0.11,0.04,0.22,0.11,0.31c0.07,0.09,0.18,0.17,0.34,0.23c0.09,0.03,0.35,0.11,0.78,0.22
		c0.62,0.17,1.06,0.3,1.3,0.41c0.25,0.11,0.44,0.26,0.58,0.46s0.21,0.45,0.21,0.75c0,0.29-0.09,0.57-0.26,0.83
		c-0.17,0.26-0.42,0.46-0.74,0.6c-0.32,0.14-0.69,0.21-1.09,0.21c-0.67,0-1.19-0.14-1.54-0.42S728.72,245.58,728.62,245.03z"/>
	<path fill="#9B9B9B" d="M741.97,244.07l0.95,0.24c-0.2,0.78-0.56,1.37-1.07,1.78c-0.52,0.41-1.15,0.61-1.89,0.61
		c-0.77,0-1.4-0.16-1.88-0.47c-0.48-0.31-0.85-0.77-1.1-1.36s-0.38-1.24-0.38-1.92c0-0.75,0.14-1.4,0.43-1.95
		c0.28-0.55,0.69-0.98,1.22-1.26c0.53-0.29,1.1-0.43,1.74-0.43c0.72,0,1.32,0.18,1.81,0.55s0.83,0.88,1.02,1.54l-0.93,0.22
		c-0.17-0.52-0.41-0.9-0.72-1.14s-0.71-0.36-1.19-0.36c-0.55,0-1.01,0.13-1.38,0.4s-0.63,0.62-0.78,1.06
		c-0.15,0.44-0.22,0.9-0.22,1.37c0,0.61,0.09,1.14,0.27,1.59c0.18,0.45,0.45,0.79,0.83,1.02s0.78,0.34,1.22,0.34
		c0.53,0,0.98-0.15,1.35-0.46S741.84,244.67,741.97,244.07z"/>
	<path fill="#9B9B9B" d="M747.36,245.94c-0.33,0.28-0.64,0.47-0.94,0.59s-0.62,0.17-0.97,0.17c-0.57,0-1.01-0.14-1.31-0.42
		c-0.31-0.28-0.46-0.63-0.46-1.07c0-0.25,0.06-0.49,0.17-0.7c0.12-0.21,0.27-0.38,0.45-0.51s0.4-0.22,0.63-0.29
		c0.17-0.05,0.43-0.09,0.78-0.13c0.71-0.08,1.23-0.19,1.57-0.3c0-0.12,0-0.2,0-0.23c0-0.36-0.08-0.61-0.25-0.76
		c-0.22-0.2-0.56-0.3-1-0.3c-0.41,0-0.72,0.07-0.92,0.22c-0.2,0.14-0.34,0.4-0.44,0.77l-0.86-0.12c0.08-0.37,0.21-0.67,0.39-0.89
		c0.18-0.23,0.44-0.4,0.78-0.52c0.34-0.12,0.73-0.18,1.18-0.18c0.44,0,0.8,0.05,1.08,0.16s0.48,0.24,0.61,0.39
		c0.13,0.16,0.22,0.36,0.27,0.6c0.03,0.15,0.04,0.42,0.04,0.81v1.17c0,0.82,0.02,1.33,0.06,1.55c0.04,0.22,0.11,0.42,0.22,0.62
		h-0.92C747.44,246.4,747.38,246.19,747.36,245.94z M747.28,243.98c-0.32,0.13-0.8,0.24-1.44,0.33c-0.36,0.05-0.62,0.11-0.77,0.18
		s-0.27,0.16-0.35,0.29c-0.08,0.12-0.12,0.26-0.12,0.42c0,0.23,0.09,0.43,0.27,0.59s0.44,0.23,0.78,0.23c0.34,0,0.64-0.07,0.9-0.22
		c0.26-0.15,0.46-0.35,0.58-0.61c0.09-0.2,0.14-0.49,0.14-0.88V243.98z"/>
	<path fill="#9B9B9B" d="M749.53,246.58v-5.19h0.79v0.74c0.38-0.57,0.93-0.85,1.65-0.85c0.31,0,0.6,0.06,0.86,0.17
		c0.26,0.11,0.46,0.26,0.59,0.44c0.13,0.18,0.22,0.4,0.27,0.65c0.03,0.16,0.05,0.45,0.05,0.85v3.19h-0.88v-3.15
		c0-0.36-0.04-0.63-0.1-0.8c-0.07-0.18-0.19-0.32-0.36-0.43c-0.17-0.11-0.38-0.16-0.61-0.16c-0.37,0-0.7,0.12-0.97,0.36
		c-0.27,0.24-0.41,0.69-0.41,1.35v2.83H749.53z"/>
	<path fill="#9B9B9B" d="M758.48,245.94c-0.33,0.28-0.64,0.47-0.94,0.59s-0.62,0.17-0.97,0.17c-0.57,0-1.01-0.14-1.31-0.42
		c-0.31-0.28-0.46-0.63-0.46-1.07c0-0.25,0.06-0.49,0.17-0.7c0.12-0.21,0.27-0.38,0.45-0.51s0.4-0.22,0.63-0.29
		c0.17-0.05,0.43-0.09,0.78-0.13c0.71-0.08,1.23-0.19,1.57-0.3c0-0.12,0-0.2,0-0.23c0-0.36-0.08-0.61-0.25-0.76
		c-0.22-0.2-0.56-0.3-1-0.3c-0.41,0-0.72,0.07-0.92,0.22c-0.2,0.14-0.34,0.4-0.44,0.77l-0.86-0.12c0.08-0.37,0.21-0.67,0.38-0.89
		c0.18-0.23,0.44-0.4,0.78-0.52c0.34-0.12,0.73-0.18,1.18-0.18c0.44,0,0.8,0.05,1.08,0.16c0.28,0.1,0.48,0.24,0.61,0.39
		c0.13,0.16,0.22,0.36,0.27,0.6c0.03,0.15,0.04,0.42,0.04,0.81v1.17c0,0.82,0.02,1.33,0.06,1.55c0.04,0.22,0.11,0.42,0.22,0.62
		h-0.92C758.56,246.4,758.5,246.19,758.48,245.94z M758.41,243.98c-0.32,0.13-0.8,0.24-1.44,0.33c-0.36,0.05-0.62,0.11-0.77,0.18
		c-0.15,0.07-0.26,0.16-0.35,0.29c-0.08,0.12-0.12,0.26-0.12,0.42c0,0.23,0.09,0.43,0.27,0.59s0.44,0.23,0.78,0.23
		c0.34,0,0.64-0.07,0.9-0.22c0.26-0.15,0.46-0.35,0.58-0.61c0.09-0.2,0.14-0.49,0.14-0.88V243.98z"/>
	<path fill="#9B9B9B" d="M764.02,246.58v-0.65c-0.33,0.51-0.81,0.77-1.45,0.77c-0.41,0-0.79-0.11-1.14-0.34s-0.62-0.55-0.81-0.96
		c-0.19-0.41-0.29-0.88-0.29-1.41c0-0.52,0.09-0.99,0.26-1.41c0.17-0.42,0.43-0.75,0.78-0.97c0.34-0.22,0.73-0.34,1.16-0.34
		c0.31,0,0.59,0.07,0.84,0.2c0.24,0.13,0.44,0.3,0.6,0.52v-2.57h0.87v7.16H764.02z M761.24,243.99c0,0.66,0.14,1.16,0.42,1.49
		c0.28,0.33,0.61,0.49,0.99,0.49c0.38,0,0.71-0.16,0.98-0.47c0.27-0.31,0.4-0.79,0.4-1.44c0-0.71-0.14-1.23-0.41-1.56
		s-0.61-0.5-1.01-0.5c-0.39,0-0.72,0.16-0.98,0.48S761.24,243.31,761.24,243.99z"/>
	<path fill="#9B9B9B" d="M769.6,245.94c-0.33,0.28-0.64,0.47-0.94,0.59s-0.62,0.17-0.97,0.17c-0.57,0-1.01-0.14-1.31-0.42
		c-0.31-0.28-0.46-0.63-0.46-1.07c0-0.25,0.06-0.49,0.17-0.7c0.12-0.21,0.27-0.38,0.45-0.51s0.4-0.22,0.63-0.29
		c0.17-0.05,0.43-0.09,0.78-0.13c0.71-0.08,1.23-0.19,1.57-0.3c0-0.12,0-0.2,0-0.23c0-0.36-0.08-0.61-0.25-0.76
		c-0.22-0.2-0.56-0.3-1-0.3c-0.41,0-0.72,0.07-0.92,0.22c-0.2,0.14-0.34,0.4-0.44,0.77l-0.86-0.12c0.08-0.37,0.21-0.67,0.38-0.89
		c0.18-0.23,0.44-0.4,0.78-0.52c0.34-0.12,0.73-0.18,1.18-0.18c0.44,0,0.8,0.05,1.08,0.16c0.28,0.1,0.48,0.24,0.61,0.39
		c0.13,0.16,0.22,0.36,0.27,0.6c0.03,0.15,0.04,0.42,0.04,0.81v1.17c0,0.82,0.02,1.33,0.06,1.55c0.04,0.22,0.11,0.42,0.22,0.62
		h-0.92C769.69,246.4,769.63,246.19,769.6,245.94z M769.53,243.98c-0.32,0.13-0.8,0.24-1.44,0.33c-0.36,0.05-0.62,0.11-0.77,0.18
		c-0.15,0.07-0.26,0.16-0.35,0.29c-0.08,0.12-0.12,0.26-0.12,0.42c0,0.23,0.09,0.43,0.27,0.59s0.44,0.23,0.78,0.23
		c0.34,0,0.64-0.07,0.9-0.22c0.26-0.15,0.46-0.35,0.58-0.61c0.09-0.2,0.14-0.49,0.14-0.88V243.98z"/>
	<path fill="#9B9B9B" d="M773.9,244.35v-0.71h10v0.71H773.9z"/>
	<path fill="#9B9B9B" d="M791.71,245.74v0.84h-4.73c-0.01-0.21,0.03-0.42,0.1-0.61c0.12-0.32,0.31-0.64,0.58-0.95
		s0.65-0.67,1.15-1.08c0.78-0.64,1.3-1.14,1.58-1.52c0.27-0.37,0.41-0.73,0.41-1.06c0-0.35-0.12-0.64-0.37-0.88
		c-0.25-0.24-0.57-0.36-0.97-0.36c-0.42,0-0.76,0.13-1.02,0.38s-0.38,0.61-0.39,1.05l-0.9-0.09c0.06-0.67,0.29-1.19,0.7-1.54
		c0.4-0.35,0.95-0.53,1.63-0.53c0.69,0,1.23,0.19,1.63,0.57s0.6,0.85,0.6,1.42c0,0.29-0.06,0.57-0.18,0.84s-0.31,0.57-0.58,0.87
		s-0.72,0.73-1.35,1.26c-0.53,0.44-0.87,0.74-1.02,0.9c-0.15,0.16-0.27,0.32-0.37,0.48H791.71z"/>
	<path fill="#9B9B9B" d="M792.65,243.05c0-0.85,0.09-1.53,0.26-2.04c0.17-0.52,0.43-0.91,0.78-1.19s0.78-0.42,1.3-0.42
		c0.38,0,0.72,0.08,1.01,0.23c0.29,0.15,0.53,0.38,0.72,0.67c0.19,0.29,0.34,0.65,0.44,1.06c0.11,0.42,0.16,0.98,0.16,1.69
		c0,0.84-0.09,1.52-0.26,2.03c-0.17,0.52-0.43,0.91-0.77,1.2c-0.34,0.28-0.78,0.42-1.3,0.42c-0.69,0-1.23-0.25-1.63-0.74
		C792.89,245.37,792.65,244.4,792.65,243.05z M793.56,243.05c0,1.17,0.14,1.96,0.41,2.35c0.27,0.39,0.61,0.58,1.02,0.58
		c0.4,0,0.74-0.2,1.02-0.59s0.41-1.17,0.41-2.34c0-1.18-0.14-1.96-0.41-2.35s-0.62-0.58-1.03-0.58c-0.4,0-0.73,0.17-0.97,0.51
		C793.71,241.07,793.56,241.88,793.56,243.05z"/>
	<path fill="#9B9B9B" d="M802.83,245.74v0.84h-4.73c-0.01-0.21,0.03-0.42,0.1-0.61c0.12-0.32,0.31-0.64,0.58-0.95
		s0.65-0.67,1.15-1.08c0.78-0.64,1.3-1.14,1.58-1.52c0.27-0.37,0.41-0.73,0.41-1.06c0-0.35-0.12-0.64-0.37-0.88
		c-0.25-0.24-0.57-0.36-0.97-0.36c-0.42,0-0.76,0.13-1.02,0.38s-0.38,0.61-0.39,1.05l-0.9-0.09c0.06-0.67,0.29-1.19,0.7-1.54
		c0.4-0.35,0.95-0.53,1.63-0.53c0.69,0,1.23,0.19,1.63,0.57s0.6,0.85,0.6,1.42c0,0.29-0.06,0.57-0.18,0.84s-0.31,0.57-0.58,0.87
		s-0.72,0.73-1.35,1.26c-0.53,0.44-0.87,0.74-1.02,0.9c-0.15,0.16-0.27,0.32-0.37,0.48H802.83z"/>
	<path fill="#9B9B9B" d="M808.34,241.18l-0.88,0.07c-0.08-0.34-0.19-0.6-0.33-0.75c-0.24-0.25-0.53-0.38-0.88-0.38
		c-0.28,0-0.53,0.08-0.74,0.23c-0.28,0.2-0.5,0.5-0.65,0.88c-0.16,0.39-0.24,0.94-0.25,1.66c0.21-0.32,0.47-0.56,0.78-0.72
		c0.31-0.16,0.63-0.23,0.96-0.23c0.59,0,1.09,0.22,1.5,0.65c0.41,0.43,0.62,0.99,0.62,1.67c0,0.45-0.1,0.87-0.29,1.25
		c-0.19,0.39-0.46,0.68-0.8,0.89c-0.34,0.21-0.72,0.31-1.15,0.31c-0.73,0-1.33-0.27-1.79-0.81c-0.46-0.54-0.69-1.43-0.69-2.66
		c0-1.38,0.25-2.39,0.77-3.02c0.45-0.55,1.05-0.82,1.8-0.82c0.56,0,1.02,0.16,1.38,0.47S808.27,240.62,808.34,241.18z
		 M804.75,244.26c0,0.3,0.06,0.59,0.19,0.87s0.31,0.49,0.54,0.63c0.23,0.15,0.47,0.22,0.73,0.22c0.37,0,0.69-0.15,0.96-0.45
		c0.27-0.3,0.4-0.71,0.4-1.22c0-0.5-0.13-0.88-0.4-1.17c-0.26-0.29-0.6-0.43-1-0.43c-0.4,0-0.73,0.14-1.01,0.43
		C804.89,243.43,804.75,243.8,804.75,244.26z"/>
</g>
<g>
	<path d="M30.29,38.97h13.41c-0.02,3.87-0.54,6.77-1.53,8.7c-2.41,4.92-6.94,7.67-12.76,7.67c-4.45,0-8.14-1.44-11.04-4.3
		S14,44.53,14,40.09s1.46-8.12,4.4-11.04s6.66-4.38,11.17-4.38c5.56,0,9.78,2.3,12.59,6.92l-5.03,2.69c-1.76-2.9-4.3-4.36-7.61-4.36
		c-2.77,0-5.07,0.97-6.9,2.9s-2.75,4.36-2.75,7.28s0.9,5.33,2.73,7.22s4.1,2.84,6.88,2.84c2.08,0,3.82-0.56,5.26-1.7
		c1.42-1.14,2.23-2.64,2.43-4.51h-6.9V38.97z"/>
	<path d="M62.92,35.62h5.33v19.06h-5.33V52.2c-1.65,2.04-3.76,3.07-6.36,3.07s-4.79-0.97-6.57-2.9s-2.69-4.34-2.69-7.2
		s0.9-5.29,2.69-7.24s3.95-2.92,6.49-2.92s4.68,1.03,6.45,3.07V35.62z M58.17,39.81c-1.5,0-2.77,0.52-3.8,1.55
		c-1.05,1.03-1.57,2.3-1.57,3.78s0.52,2.75,1.57,3.78c1.05,1.05,2.3,1.57,3.76,1.57s2.73-0.52,3.78-1.57
		c1.05-1.03,1.57-2.28,1.57-3.76s-0.52-2.73-1.53-3.78C60.92,40.32,59.65,39.81,58.17,39.81z"/>
	<path d="M78.67,54.67h-5.33V35.62h5.33v2.9c1.31-2.34,3.16-3.52,5.54-3.5c0.75,0,1.53,0.15,2.32,0.47l-0.75,4.96
		c-0.79-0.45-1.63-0.67-2.54-0.64c-3.05,0-4.58,1.91-4.58,5.71V54.67z"/>
	<path d="M107.78,46.02H93.49c0.15,3.42,1.7,5.11,4.66,5.09c1.85,0,3.35-0.86,4.53-2.56l4.92,0.79c-1.65,3.95-4.75,5.93-9.32,5.95
		c-3.12,0-5.59-0.92-7.46-2.77s-2.79-4.3-2.79-7.37s0.9-5.52,2.73-7.37s4.23-2.77,7.26-2.77s5.41,0.92,7.15,2.75s2.6,4.34,2.6,7.54
		V46.02z M93.66,42.62h9.02c-0.58-2.51-2.11-3.78-4.53-3.78C95.81,38.84,94.12,40.21,93.66,42.62z"/>
	<path d="M137.11,41.44c-1.4-1.1-2.86-1.63-4.38-1.63s-2.79,0.49-3.85,1.5s-1.57,2.28-1.57,3.82s0.52,2.81,1.57,3.82
		s2.34,1.53,3.89,1.53s2.99-0.52,4.34-1.57v5.18c-1.57,0.79-3.18,1.18-4.88,1.2c-2.96,0-5.44-0.97-7.43-2.9
		c-2-1.91-2.99-4.32-2.99-7.18s1.01-5.29,3.01-7.26c2-1.96,4.49-2.94,7.46-2.94c1.74,0,3.35,0.39,4.83,1.14V41.44z"/>
	<path d="M159.9,46.02h-14.29c0.15,3.42,1.7,5.11,4.66,5.09c1.85,0,3.35-0.86,4.53-2.56l4.92,0.79c-1.65,3.95-4.75,5.93-9.32,5.95
		c-3.12,0-5.59-0.92-7.46-2.77s-2.79-4.3-2.79-7.37s0.9-5.52,2.73-7.37s4.23-2.77,7.26-2.77s5.41,0.92,7.15,2.75s2.6,4.34,2.6,7.54
		V46.02z M145.79,42.62h9.02c-0.58-2.51-2.11-3.78-4.53-3.78C147.93,38.84,146.24,40.21,145.79,42.62z"/>
	<path d="M163.94,35.62h5.33V38c1.63-2.17,3.39-2.99,5.97-2.99c2.34,0,4.19,0.75,5.54,2.28c1.01,1.14,1.5,2.9,1.5,5.29v12.1h-5.33
		V44.1c0-1.46-0.17-2.49-0.54-3.07c-0.56-1.01-1.59-1.5-3.12-1.5c-2.69,0-4.04,1.76-4.04,5.29v9.86h-5.33V35.62z"/>
	<path d="M192.75,40.24v14.44h-5.33V40.24h-2.11v-4.62h2.11v-6.51h5.33v6.51h3.78v4.62H192.75z"/>
	<path d="M204.91,54.67h-5.33V35.62h5.33v2.9c1.31-2.34,3.16-3.52,5.54-3.5c0.75,0,1.53,0.15,2.32,0.47l-0.75,4.96
		c-0.79-0.45-1.63-0.67-2.54-0.64c-3.05,0-4.58,1.91-4.58,5.71V54.67z"/>
	<path d="M229.85,35.62h5.33v19.06h-5.33V52.2c-1.65,2.04-3.76,3.07-6.36,3.07s-4.79-0.97-6.57-2.9s-2.69-4.34-2.69-7.2
		s0.9-5.29,2.69-7.24s3.95-2.92,6.49-2.92s4.68,1.03,6.45,3.07V35.62z M225.11,39.81c-1.5,0-2.77,0.52-3.8,1.55
		c-1.05,1.03-1.57,2.3-1.57,3.78s0.52,2.75,1.57,3.78c1.05,1.05,2.3,1.57,3.76,1.57s2.73-0.52,3.78-1.57
		c1.05-1.03,1.57-2.28,1.57-3.76s-0.52-2.73-1.53-3.78C227.86,40.32,226.59,39.81,225.11,39.81z"/>
	<path d="M245.6,21.72v32.96h-5.33V21.72H245.6z"/>
	<path d="M269.43,46.02h-14.29c0.15,3.42,1.7,5.11,4.66,5.09c1.85,0,3.35-0.86,4.53-2.56l4.92,0.79c-1.65,3.95-4.75,5.93-9.32,5.95
		c-3.12,0-5.59-0.92-7.46-2.77s-2.79-4.3-2.79-7.37s0.9-5.52,2.73-7.37s4.23-2.77,7.26-2.77s5.41,0.92,7.15,2.75s2.6,4.34,2.6,7.54
		V46.02z M255.31,42.62h9.02c-0.58-2.51-2.11-3.78-4.53-3.78C257.46,38.84,255.76,40.21,255.31,42.62z"/>
	<path d="M281.91,42.36h9.9v4.43h-9.9V42.36z"/>
	<path d="M306.19,54.67V25.33h7.26c3.31,0,5.69,0.58,7.15,1.76c1.76,1.38,2.64,3.37,2.64,5.97c0,1.61-0.37,3.01-1.1,4.19
		c-0.41,0.56-1.12,1.14-2.11,1.76c1.76,0.39,3.03,1.01,3.82,1.85c1.4,1.4,2.11,3.29,2.11,5.67s-0.86,4.34-2.56,5.87
		s-4.15,2.28-7.35,2.28H306.19z M311.9,37.55h1.63c2.96,0,4.45-1.27,4.45-3.8s-1.46-3.8-4.36-3.8h-1.72V37.55z M311.9,50.05h2.47
		c3.8,0,5.71-1.35,5.71-4.04c0-1.48-0.58-2.58-1.72-3.27c-0.84-0.56-2.28-0.84-4.32-0.84h-2.15V50.05z"/>
	<path d="M335.75,54.67h-5.33V35.62h5.33v2.9c1.31-2.34,3.16-3.52,5.54-3.5c0.75,0,1.53,0.15,2.32,0.47l-0.75,4.96
		c-0.79-0.45-1.63-0.67-2.54-0.64c-3.05,0-4.58,1.91-4.58,5.71V54.67z"/>
	<path d="M355.99,35.02c3.2,0,5.8,0.95,7.8,2.81s3.01,4.32,3.01,7.33s-1.01,5.46-3.03,7.33c-2.04,1.87-4.66,2.81-7.91,2.81
		s-5.84-0.97-7.84-2.88s-2.99-4.34-2.99-7.33s1.03-5.41,3.07-7.28S352.79,35.02,355.99,35.02z M355.92,39.81
		c-1.48,0-2.75,0.52-3.8,1.55s-1.59,2.3-1.59,3.78s0.52,2.75,1.57,3.78c1.05,1.05,2.32,1.57,3.8,1.57s2.77-0.52,3.82-1.57
		c1.05-1.03,1.57-2.28,1.57-3.76s-0.52-2.73-1.57-3.78S357.41,39.81,355.92,39.81z"/>
	<path d="M381.32,40.06c-1.12-0.84-2.06-1.27-2.86-1.27s-1.38,0.15-1.78,0.45c-0.41,0.32-0.6,0.71-0.6,1.16s0.19,0.82,0.6,1.1
		s1.35,0.67,2.84,1.18s2.6,1.03,3.31,1.57c1.4,0.97,2.11,2.41,2.11,4.32s-0.75,3.52-2.23,4.79c-1.5,1.29-3.44,1.93-5.78,1.93
		c-2.88,0-5.29-1.05-7.22-3.18l2.79-3.24c1.48,1.48,2.99,2.23,4.51,2.23c1.35,0,2.43-0.95,2.43-2.08c0-0.58-0.17-1.01-0.54-1.31
		c-0.37-0.28-1.31-0.71-2.86-1.27s-2.62-1.05-3.2-1.5c-1.27-0.88-1.89-2.19-1.89-3.97s0.64-3.22,1.93-4.36
		c1.27-1.14,2.99-1.7,5.13-1.7s4.12,0.69,5.95,2.04L381.32,40.06z"/>
	<path d="M399,40.06c-1.12-0.84-2.06-1.27-2.86-1.27s-1.38,0.15-1.78,0.45c-0.41,0.32-0.6,0.71-0.6,1.16s0.19,0.82,0.6,1.1
		s1.35,0.67,2.84,1.18s2.6,1.03,3.31,1.57c1.4,0.97,2.11,2.41,2.11,4.32s-0.75,3.52-2.23,4.79c-1.5,1.29-3.44,1.93-5.78,1.93
		c-2.88,0-5.29-1.05-7.22-3.18l2.79-3.24c1.48,1.48,2.99,2.23,4.51,2.23c1.35,0,2.43-0.95,2.43-2.08c0-0.58-0.17-1.01-0.54-1.31
		c-0.37-0.28-1.31-0.71-2.86-1.27s-2.62-1.05-3.2-1.5c-1.27-0.88-1.89-2.19-1.89-3.97s0.64-3.22,1.93-4.36
		c1.27-1.14,2.99-1.7,5.13-1.7s4.12,0.69,5.95,2.04L399,40.06z"/>
	<path d="M421.04,35.62h5.33v19.06h-5.33V52.2c-1.65,2.04-3.76,3.07-6.36,3.07s-4.79-0.97-6.57-2.9s-2.69-4.34-2.69-7.2
		s0.9-5.29,2.69-7.24s3.95-2.92,6.49-2.92s4.68,1.03,6.45,3.07V35.62z M416.29,39.81c-1.5,0-2.77,0.52-3.8,1.55
		c-1.05,1.03-1.57,2.3-1.57,3.78s0.52,2.75,1.57,3.78c1.05,1.05,2.3,1.57,3.76,1.57s2.73-0.52,3.78-1.57
		c1.05-1.03,1.57-2.28,1.57-3.76s-0.52-2.73-1.53-3.78C419.04,40.32,417.78,39.81,416.29,39.81z"/>
	<path d="M436.79,54.67h-5.33V35.62h5.33v2.9c1.31-2.34,3.16-3.52,5.54-3.5c0.75,0,1.53,0.15,2.32,0.47l-0.75,4.96
		c-0.79-0.45-1.63-0.67-2.54-0.64c-3.05,0-4.58,1.91-4.58,5.71V54.67z"/>
	<path d="M461.73,21.72h5.33v32.96h-5.33V52.2c-1.65,2.04-3.76,3.07-6.36,3.07s-4.79-0.97-6.57-2.9s-2.69-4.34-2.69-7.2
		s0.9-5.29,2.69-7.24s3.95-2.92,6.49-2.92s4.68,1.03,6.45,3.07V21.72z M456.99,39.81c-1.5,0-2.77,0.52-3.8,1.55
		c-1.05,1.03-1.57,2.3-1.57,3.78s0.52,2.75,1.57,3.78c1.05,1.05,2.3,1.57,3.76,1.57s2.73-0.52,3.78-1.57
		c1.05-1.03,1.57-2.28,1.57-3.76s-0.52-2.73-1.53-3.78C459.74,40.32,458.47,39.81,456.99,39.81z"/>
</g>
<g>
	<path fill="#5A5A5A" d="M16.08,74.05v4.29H14V67.66h3.09c1.21,0,2.12,0.25,2.72,0.75c0.7,0.59,1.05,1.39,1.05,2.4
		c0,1.02-0.32,1.8-0.96,2.35c-0.39,0.35-0.88,0.58-1.47,0.68l3.36,4.49h-2.56l-2.88-4.29H16.08z M16.08,72.58h0.61
		c1.32,0,2.03-0.59,2.03-1.63c0-1.07-0.66-1.6-2-1.6h-0.64V72.58z"/>
	<path fill="#5A5A5A" d="M29.46,75.19h-5.2c0.05,1.24,0.62,1.86,1.7,1.85c0.67,0,1.22-0.31,1.65-0.93l1.79,0.29
		c-0.6,1.44-1.73,2.16-3.39,2.16c-1.13,0-2.03-0.34-2.71-1.01s-1.02-1.56-1.02-2.68s0.33-2.01,0.99-2.68s1.54-1.01,2.64-1.01
		s1.97,0.34,2.6,1s0.95,1.58,0.95,2.74V75.19z M24.33,73.95h3.28c-0.21-0.91-0.77-1.38-1.65-1.38
		C25.11,72.58,24.49,73.08,24.33,73.95z M28.12,68.03l-2.4,2.16l-0.93-0.64l1.91-2.42L28.12,68.03z"/>
	<path fill="#5A5A5A" d="M34.72,73.02c-0.41-0.3-0.75-0.46-1.04-0.46s-0.5,0.05-0.65,0.16c-0.15,0.12-0.22,0.26-0.22,0.42
		s0.07,0.3,0.22,0.4s0.49,0.24,1.03,0.43s0.95,0.38,1.2,0.57c0.51,0.35,0.77,0.88,0.77,1.57s-0.27,1.28-0.81,1.74
		c-0.55,0.47-1.25,0.7-2.1,0.7c-1.05,0-1.92-0.38-2.62-1.16l1.02-1.18c0.54,0.54,1.09,0.81,1.64,0.81c0.49,0,0.88-0.34,0.88-0.76
		c0-0.21-0.06-0.37-0.2-0.48c-0.13-0.1-0.48-0.26-1.04-0.46s-0.95-0.38-1.16-0.55c-0.46-0.32-0.69-0.8-0.69-1.45s0.23-1.17,0.7-1.59
		c0.46-0.41,1.09-0.62,1.87-0.62s1.5,0.25,2.16,0.74L34.72,73.02z"/>
	<path fill="#5A5A5A" d="M44.22,75.19h-5.2c0.05,1.24,0.62,1.86,1.7,1.85c0.67,0,1.22-0.31,1.65-0.93l1.79,0.29
		c-0.6,1.44-1.73,2.16-3.39,2.16c-1.13,0-2.03-0.34-2.71-1.01s-1.02-1.56-1.02-2.68s0.33-2.01,0.99-2.68s1.54-1.01,2.64-1.01
		s1.97,0.34,2.6,1s0.95,1.58,0.95,2.74V75.19z M39.09,73.95h3.28c-0.21-0.91-0.77-1.38-1.65-1.38
		C39.87,72.58,39.25,73.08,39.09,73.95z"/>
	<path fill="#5A5A5A" d="M51,71.41h1.94v6.93H51v-0.9c-0.6,0.74-1.37,1.12-2.31,1.12s-1.74-0.35-2.39-1.05s-0.98-1.58-0.98-2.62
		s0.33-1.92,0.98-2.63s1.44-1.06,2.36-1.06s1.7,0.38,2.34,1.12V71.41z M49.27,72.93c-0.55,0-1.01,0.19-1.38,0.56
		c-0.38,0.38-0.57,0.84-0.57,1.38s0.19,1,0.57,1.38c0.38,0.38,0.84,0.57,1.37,0.57s0.99-0.19,1.38-0.57
		c0.38-0.38,0.57-0.83,0.57-1.37s-0.19-0.99-0.55-1.38C50.27,73.12,49.81,72.93,49.27,72.93z"/>
	<path fill="#5A5A5A" d="M56.73,71.41v3.92c0,1.05,0.47,1.59,1.41,1.59s1.41-0.53,1.41-1.59v-3.92h1.94v4.24
		c0,1.88-1.19,2.91-3.34,2.91s-3.36-1.04-3.36-2.91v-4.24H56.73z"/>
	<path fill="#5A5A5A" d="M73.55,69.47h-3.82v2.38h3.68v1.8h-3.68v2.88h3.82v1.8h-5.9V67.66h5.9V69.47z"/>
	<path fill="#5A5A5A" d="M77.64,74.58l-2.67-3.17h2.45l1.45,1.8l1.45-1.8h2.46l-2.72,3.17l3.25,3.76h-2.48l-1.98-2.41l-2,2.41h-2.5
		L77.64,74.58z"/>
	<path fill="#5A5A5A" d="M86.18,82.03h-1.94V71.41h1.94v0.9c0.6-0.74,1.37-1.12,2.3-1.12s1.73,0.35,2.39,1.05s0.98,1.58,0.98,2.62
		s-0.33,1.92-0.98,2.63s-1.44,1.06-2.35,1.06s-1.7-0.38-2.35-1.12V82.03z M87.91,72.93c-0.54,0-0.99,0.19-1.38,0.56
		s-0.57,0.84-0.57,1.38s0.19,1,0.57,1.38c0.38,0.38,0.84,0.57,1.37,0.57s0.99-0.19,1.38-0.57c0.38-0.38,0.58-0.83,0.58-1.37
		s-0.19-0.99-0.57-1.38S88.45,72.93,87.91,72.93z"/>
	<path fill="#5A5A5A" d="M95.28,78.34h-1.94v-6.93h1.94v1.05c0.48-0.85,1.15-1.28,2.02-1.27c0.27,0,0.55,0.05,0.84,0.17l-0.27,1.8
		c-0.29-0.16-0.59-0.24-0.92-0.23c-1.11,0-1.66,0.7-1.66,2.08V78.34z"/>
	<path fill="#5A5A5A" d="M105.87,75.19h-5.2c0.05,1.24,0.62,1.86,1.7,1.85c0.67,0,1.22-0.31,1.65-0.93l1.79,0.29
		c-0.6,1.44-1.73,2.16-3.39,2.16c-1.13,0-2.03-0.34-2.71-1.01s-1.02-1.56-1.02-2.68s0.33-2.01,0.99-2.68s1.54-1.01,2.64-1.01
		s1.97,0.34,2.6,1s0.95,1.58,0.95,2.74V75.19z M100.73,73.95h3.28c-0.21-0.91-0.77-1.38-1.65-1.38
		C101.52,72.58,100.9,73.08,100.73,73.95z"/>
	<path fill="#5A5A5A" d="M111.02,73.02c-0.41-0.3-0.75-0.46-1.04-0.46s-0.5,0.05-0.65,0.16c-0.15,0.12-0.22,0.26-0.22,0.42
		s0.07,0.3,0.22,0.4s0.49,0.24,1.03,0.43s0.95,0.38,1.2,0.57c0.51,0.35,0.77,0.88,0.77,1.57s-0.27,1.28-0.81,1.74
		c-0.55,0.47-1.25,0.7-2.1,0.7c-1.05,0-1.92-0.38-2.62-1.16l1.02-1.18c0.54,0.54,1.09,0.81,1.64,0.81c0.49,0,0.88-0.34,0.88-0.76
		c0-0.21-0.06-0.37-0.2-0.48c-0.13-0.1-0.48-0.26-1.04-0.46s-0.95-0.38-1.16-0.55c-0.46-0.32-0.69-0.8-0.69-1.45s0.23-1.17,0.7-1.59
		c0.46-0.41,1.09-0.62,1.87-0.62s1.5,0.25,2.16,0.74L111.02,73.02z"/>
	<path fill="#5A5A5A" d="M117.45,73.02c-0.41-0.3-0.75-0.46-1.04-0.46s-0.5,0.05-0.65,0.16c-0.15,0.12-0.22,0.26-0.22,0.42
		s0.07,0.3,0.22,0.4s0.49,0.24,1.03,0.43s0.95,0.38,1.2,0.57c0.51,0.35,0.77,0.88,0.77,1.57s-0.27,1.28-0.81,1.74
		c-0.55,0.47-1.25,0.7-2.1,0.7c-1.05,0-1.92-0.38-2.62-1.16l1.02-1.18c0.54,0.54,1.09,0.81,1.64,0.81c0.49,0,0.88-0.34,0.88-0.76
		c0-0.21-0.06-0.37-0.2-0.48c-0.13-0.1-0.48-0.26-1.04-0.46s-0.95-0.38-1.16-0.55c-0.46-0.32-0.69-0.8-0.69-1.45s0.23-1.17,0.7-1.59
		c0.46-0.41,1.09-0.62,1.87-0.62s1.5,0.25,2.16,0.74L117.45,73.02z"/>
	<path fill="#5A5A5A" d="M123.86,78.34l1.98-10.87h1.42l2.91,6.98l3.02-6.98h1.44l1.78,10.87h-2.1l-0.96-6.58l-2.92,6.72h-0.58
		l-2.84-6.72l-1.07,6.58H123.86z"/>
	<path fill="#5A5A5A" d="M144.83,75.19h-5.2c0.05,1.24,0.62,1.86,1.7,1.85c0.67,0,1.22-0.31,1.65-0.93l1.79,0.29
		c-0.6,1.44-1.73,2.16-3.39,2.16c-1.13,0-2.03-0.34-2.71-1.01s-1.02-1.56-1.02-2.68s0.33-2.01,0.99-2.68s1.54-1.01,2.64-1.01
		s1.97,0.34,2.6,1s0.95,1.58,0.95,2.74V75.19z M139.7,73.95h3.28c-0.21-0.91-0.77-1.38-1.65-1.38
		C140.48,72.58,139.86,73.08,139.7,73.95z M143.48,68.03l-2.4,2.16l-0.93-0.64l1.91-2.42L143.48,68.03z"/>
	<path fill="#5A5A5A" d="M148.36,73.09v5.25h-1.94v-5.25h-0.77v-1.68h0.77v-2.37h1.94v2.37h1.38v1.68H148.36z"/>
	<path fill="#5A5A5A" d="M152.78,78.34h-1.94v-6.93h1.94v1.05c0.48-0.85,1.15-1.28,2.02-1.27c0.27,0,0.55,0.05,0.84,0.17l-0.27,1.8
		c-0.29-0.16-0.59-0.24-0.92-0.23c-1.11,0-1.66,0.7-1.66,2.08V78.34z"/>
	<path fill="#5A5A5A" d="M160.14,71.19c1.16,0,2.11,0.34,2.84,1.02s1.09,1.57,1.09,2.66s-0.37,1.98-1.1,2.66
		c-0.74,0.68-1.7,1.02-2.88,1.02s-2.12-0.35-2.85-1.05s-1.09-1.58-1.09-2.66s0.38-1.97,1.12-2.65S158.98,71.19,160.14,71.19z
		 M160.12,72.93c-0.54,0-1,0.19-1.38,0.56s-0.58,0.84-0.58,1.38s0.19,1,0.57,1.38c0.38,0.38,0.84,0.57,1.38,0.57
		s1.01-0.19,1.39-0.57c0.38-0.38,0.57-0.83,0.57-1.37s-0.19-0.99-0.57-1.38S160.66,72.93,160.12,72.93z"/>
	<path fill="#5A5A5A" d="M167.5,82.03h-1.94V71.41h1.94v0.9c0.6-0.74,1.37-1.12,2.3-1.12s1.73,0.35,2.39,1.05s0.98,1.58,0.98,2.62
		s-0.33,1.92-0.98,2.63s-1.44,1.06-2.35,1.06s-1.7-0.38-2.35-1.12V82.03z M169.23,72.93c-0.54,0-0.99,0.19-1.38,0.56
		s-0.57,0.84-0.57,1.38s0.19,1,0.57,1.38c0.38,0.38,0.84,0.57,1.37,0.57s0.99-0.19,1.38-0.57c0.38-0.38,0.58-0.83,0.58-1.37
		s-0.19-0.99-0.57-1.38S169.77,72.93,169.23,72.93z"/>
	<path fill="#5A5A5A" d="M178.28,71.19c1.16,0,2.11,0.34,2.84,1.02s1.09,1.57,1.09,2.66s-0.37,1.98-1.1,2.66
		c-0.74,0.68-1.7,1.02-2.88,1.02s-2.12-0.35-2.85-1.05s-1.09-1.58-1.09-2.66s0.38-1.97,1.12-2.65S177.12,71.19,178.28,71.19z
		 M178.26,72.93c-0.54,0-1,0.19-1.38,0.56s-0.58,0.84-0.58,1.38s0.19,1,0.57,1.38c0.38,0.38,0.84,0.57,1.38,0.57
		s1.01-0.19,1.39-0.57c0.38-0.38,0.57-0.83,0.57-1.37s-0.19-0.99-0.57-1.38S178.8,72.93,178.26,72.93z"/>
	<path fill="#5A5A5A" d="M185.64,66.35v11.98h-1.94V66.35H185.64z"/>
	<path fill="#5A5A5A" d="M188.45,67.31c0.32,0,0.59,0.11,0.82,0.34s0.34,0.5,0.34,0.82s-0.12,0.6-0.34,0.83
		c-0.23,0.23-0.51,0.35-0.83,0.35s-0.59-0.12-0.82-0.34s-0.34-0.51-0.34-0.83s0.12-0.6,0.35-0.83
		C187.84,67.42,188.12,67.31,188.45,67.31z M189.39,71.41v6.93h-1.93v-6.93H189.39z"/>
	<path fill="#5A5A5A" d="M193.17,73.09v5.25h-1.94v-5.25h-0.77v-1.68h0.77v-2.37h1.94v2.37h1.38v1.68H193.17z"/>
	<path fill="#5A5A5A" d="M200.88,71.41h1.94v6.93h-1.94v-0.9c-0.6,0.74-1.37,1.12-2.31,1.12s-1.74-0.35-2.39-1.05
		s-0.98-1.58-0.98-2.62s0.33-1.92,0.98-2.63s1.44-1.06,2.36-1.06s1.7,0.38,2.34,1.12V71.41z M199.15,72.93
		c-0.55,0-1.01,0.19-1.38,0.56c-0.38,0.38-0.57,0.84-0.57,1.38s0.19,1,0.57,1.38c0.38,0.38,0.84,0.57,1.37,0.57s0.99-0.19,1.38-0.57
		c0.38-0.38,0.57-0.83,0.57-1.37s-0.19-0.99-0.55-1.38C200.15,73.12,199.69,72.93,199.15,72.93z"/>
	<path fill="#5A5A5A" d="M205.62,67.31c0.32,0,0.59,0.11,0.82,0.34s0.34,0.5,0.34,0.82s-0.12,0.6-0.34,0.83
		c-0.23,0.23-0.51,0.35-0.83,0.35s-0.59-0.12-0.82-0.34s-0.34-0.51-0.34-0.83s0.12-0.6,0.35-0.83
		C205.02,67.42,205.3,67.31,205.62,67.31z M206.56,71.41v6.93h-1.93v-6.93H206.56z"/>
	<path fill="#5A5A5A" d="M208.39,71.41h1.94v0.87c0.59-0.79,1.23-1.09,2.17-1.09c0.85,0,1.52,0.27,2.02,0.83
		c0.37,0.41,0.55,1.05,0.55,1.92v4.4h-1.94v-3.84c0-0.53-0.06-0.91-0.2-1.12c-0.2-0.37-0.58-0.55-1.13-0.55
		c-0.98,0-1.47,0.64-1.47,1.92v3.59h-1.94V71.41z"/>
	<path fill="#5A5A5A" d="M225.34,70.7c0.61,0,1.13,0.22,1.56,0.66s0.65,0.96,0.65,1.57s-0.22,1.12-0.65,1.55s-0.95,0.65-1.56,0.65
		s-1.13-0.22-1.57-0.65s-0.66-0.95-0.66-1.56s0.22-1.14,0.66-1.57S224.73,70.7,225.34,70.7z"/>
	<path fill="#5A5A5A" d="M235.31,78.34l1.98-10.87h1.42l2.91,6.98l3.02-6.98h1.44l1.78,10.87h-2.1l-0.96-6.58l-2.92,6.72h-0.58
		l-2.84-6.72l-1.07,6.58H235.31z"/>
	<path fill="#5A5A5A" d="M253.09,71.19c1.16,0,2.11,0.34,2.84,1.02s1.09,1.57,1.09,2.66s-0.37,1.98-1.1,2.66
		c-0.74,0.68-1.7,1.02-2.88,1.02s-2.12-0.35-2.85-1.05s-1.09-1.58-1.09-2.66s0.38-1.97,1.12-2.65S251.92,71.19,253.09,71.19z
		 M253.06,72.93c-0.54,0-1,0.19-1.38,0.56s-0.58,0.84-0.58,1.38s0.19,1,0.57,1.38c0.38,0.38,0.84,0.57,1.38,0.57
		s1.01-0.19,1.39-0.57c0.38-0.38,0.57-0.83,0.57-1.37s-0.19-0.99-0.57-1.38S253.6,72.93,253.06,72.93z"/>
	<path fill="#5A5A5A" d="M258.51,71.41h1.94v0.87c0.59-0.79,1.23-1.09,2.17-1.09c0.85,0,1.52,0.27,2.02,0.83
		c0.37,0.41,0.55,1.05,0.55,1.92v4.4h-1.94v-3.84c0-0.53-0.06-0.91-0.2-1.12c-0.2-0.37-0.58-0.55-1.13-0.55
		c-0.98,0-1.47,0.64-1.47,1.92v3.59h-1.94V71.41z"/>
	<path fill="#5A5A5A" d="M268.98,73.09v5.25h-1.94v-5.25h-0.77v-1.68h0.77v-2.37h1.94v2.37h1.38v1.68H268.98z"/>
	<path fill="#5A5A5A" d="M273.41,78.34h-1.94v-6.93h1.94v1.05c0.48-0.85,1.15-1.28,2.02-1.27c0.27,0,0.55,0.05,0.84,0.17l-0.27,1.8
		c-0.29-0.16-0.59-0.24-0.92-0.23c-1.11,0-1.66,0.7-1.66,2.08V78.34z"/>
	<path fill="#5A5A5A" d="M283.99,75.19h-5.2c0.05,1.24,0.62,1.86,1.7,1.85c0.67,0,1.22-0.31,1.65-0.93l1.79,0.29
		c-0.6,1.44-1.73,2.16-3.39,2.16c-1.13,0-2.03-0.34-2.71-1.01s-1.02-1.56-1.02-2.68s0.33-2.01,0.99-2.68s1.54-1.01,2.64-1.01
		s1.97,0.34,2.6,1s0.95,1.58,0.95,2.74V75.19z M278.86,73.95h3.28c-0.21-0.91-0.77-1.38-1.65-1.38
		C279.64,72.58,279.02,73.08,278.86,73.95z"/>
	<path fill="#5A5A5A" d="M290.77,71.41h1.94v6.93h-1.94v-0.9c-0.6,0.74-1.37,1.12-2.31,1.12s-1.74-0.35-2.39-1.05
		s-0.98-1.58-0.98-2.62s0.33-1.92,0.98-2.63s1.44-1.06,2.36-1.06s1.7,0.38,2.34,1.12V71.41z M289.05,72.93
		c-0.55,0-1.01,0.19-1.38,0.56c-0.38,0.38-0.57,0.84-0.57,1.38s0.19,1,0.57,1.38c0.38,0.38,0.84,0.57,1.37,0.57s0.99-0.19,1.38-0.57
		c0.38-0.38,0.57-0.83,0.57-1.37s-0.19-0.99-0.55-1.38C290.05,73.12,289.59,72.93,289.05,72.93z"/>
	<path fill="#5A5A5A" d="M296.5,66.35v11.98h-1.94V66.35H296.5z"/>
	<path fill="#5A5A5A" d="M306.78,70.7c0.61,0,1.13,0.22,1.56,0.66s0.65,0.96,0.65,1.57s-0.22,1.12-0.65,1.55s-0.95,0.65-1.56,0.65
		s-1.13-0.22-1.57-0.65s-0.66-0.95-0.66-1.56s0.22-1.14,0.66-1.57S306.17,70.7,306.78,70.7z"/>
	<path fill="#5A5A5A" d="M324.12,76.53v1.8h-7.76l3.15-3.57c0.97-1.11,1.62-1.93,1.95-2.45s0.5-1.02,0.5-1.47s-0.16-0.84-0.47-1.15
		c-0.32-0.3-0.71-0.46-1.17-0.46s-0.84,0.16-1.11,0.46c-0.28,0.3-0.43,0.74-0.45,1.3h-2.23c0.07-1.11,0.45-1.98,1.12-2.63
		c0.67-0.65,1.55-0.97,2.62-0.97c1.07,0,1.97,0.33,2.69,0.98c0.71,0.66,1.07,1.51,1.07,2.56s-0.65,2.27-1.94,3.63l-1.86,1.97H324.12
		z"/>
	<path fill="#5A5A5A" d="M329.72,67.39c1.21,0,2.21,0.55,3.02,1.63c0.73,1.02,1.1,2.35,1.1,3.97s-0.37,2.95-1.1,3.98
		c-0.75,1.02-1.88,1.63-3.02,1.63c-1.24,0-2.24-0.53-3-1.59s-1.14-2.41-1.14-4.04s0.37-2.95,1.1-3.95
		C327.49,67.94,328.51,67.39,329.72,67.39z M329.71,69.23c-0.6,0-1.09,0.35-1.48,1.05s-0.59,1.6-0.59,2.7s0.2,2.01,0.58,2.72
		s0.88,1.06,1.48,1.06s1.1-0.35,1.48-1.05s0.57-1.61,0.57-2.71s-0.2-2.01-0.58-2.71S330.3,69.23,329.71,69.23z"/>
	<path fill="#5A5A5A" d="M342.27,76.53v1.8h-7.76l3.15-3.57c0.97-1.11,1.62-1.93,1.95-2.45s0.5-1.02,0.5-1.47s-0.16-0.84-0.47-1.15
		c-0.32-0.3-0.71-0.46-1.17-0.46s-0.84,0.16-1.11,0.46c-0.28,0.3-0.43,0.74-0.45,1.3h-2.23c0.07-1.11,0.45-1.98,1.12-2.63
		c0.67-0.65,1.55-0.97,2.62-0.97c1.07,0,1.97,0.33,2.69,0.98c0.71,0.66,1.07,1.51,1.07,2.56s-0.65,2.27-1.94,3.63l-1.86,1.97H342.27
		z"/>
	<path fill="#5A5A5A" d="M350.27,77.67c-0.7,0.62-1.62,0.94-2.75,0.94c-1.52,0-2.63-0.6-3.36-1.81c-0.3-0.49-0.45-1-0.47-1.53h2.08
		c0.12,0.94,0.77,1.5,1.77,1.5c0.5,0,0.91-0.16,1.23-0.48c0.32-0.31,0.48-0.71,0.48-1.2s-0.16-0.89-0.47-1.22
		c-0.32-0.32-0.71-0.48-1.18-0.48c-0.05,0-0.19,0.01-0.4,0.03v-1.48h0.29c0.9,0,1.47-0.59,1.47-1.45s-0.59-1.44-1.44-1.44
		c-0.84,0-1.32,0.46-1.43,1.39h-1.97c0.3-2.04,1.48-3.05,3.54-3.05c0.98,0,1.77,0.27,2.37,0.81c0.6,0.55,0.9,1.27,0.9,2.15
		c0,1.09-0.34,1.72-1.23,2.27c1.09,0.45,1.63,1.31,1.63,2.61C351.32,76.24,350.97,77.05,350.27,77.67z"/>
</g>
</svg>
