<?xml version="1.0" encoding="iso-8859-1"?>
<!-- Generator: Adobe Illustrator 29.8.4, SVG Export Plug-In . SVG Version: 9.03 Build 0)  -->
<svg version="1.1" id="Layer_1" xmlns="http://www.w3.org/2000/svg" xmlns:xlink="http://www.w3.org/1999/xlink" x="0px" y="0px"
	 viewBox="0 0 1500 396" enable-background="new 0 0 1500 396" xml:space="preserve">
<rect id="bg-white" fill="#FFFFFF" width="1500" height="396"/>
<line fill="none" stroke="#6F8F82" stroke-width="10" stroke-linecap="round" stroke-miterlimit="10" x1="90" y1="361" x2="1410" y2="361"/>
<circle fill="#FFFFFF" stroke="#000000" stroke-width="3" stroke-miterlimit="10" cx="90" cy="361" r="10"/>
<g>
	<path d="M98.17,340.58l-0.61,2.26l-5.32-1.43l-7.34,2.32l0.72-2.67l4.7-1.42l-3.38-3.53l0.72-2.69l5.18,5.75L98.17,340.58z"/>
	<path d="M88.6,329.92l6.64,1.78c0.59,0.16,1.03,0.25,1.3,0.28c0.28,0.03,0.59,0,0.94-0.1c0.68-0.19,1.33-0.87,1.56-1.73
		c0.23-0.85,0.01-1.76-0.49-2.27c-0.25-0.26-0.5-0.44-0.75-0.56c-0.25-0.11-0.68-0.25-1.27-0.41l-6.64-1.78l0.6-2.26l7.1,1.9
		c1.31,0.35,2.26,0.91,2.86,1.68c0.41,0.55,0.67,1.19,0.79,1.94c0.13,0.75,0.07,1.52-0.14,2.31c-0.21,0.79-0.55,1.48-1.04,2.07
		c-0.48,0.59-1.03,1.03-1.66,1.29c-0.91,0.37-2.01,0.37-3.32,0.02l-7.1-1.9L88.6,329.92z"/>
	<path d="M91.81,317.94l9.63,2.58l0.96-3.57l1.96,0.53l-1.56,5.82l-11.6-3.11L91.81,317.94z"/>
	<path d="M99.9,314.65l1.94-7.23l1.75,0.47l-1.94,7.23L99.9,314.65z"/>
	<path d="M106.8,298.53l-1.27,4.75l2.17,1.7l-0.64,2.4l-10.5-8.2l0.46-1.71l13.15-1.69l-0.65,2.42L106.8,298.53z M104.79,298.76
		l-4.6,0.5l3.72,2.8L104.79,298.76z"/>
	<path d="M100.84,285.8l1.65,3.24l-0.97,0.82l-2.08-2.78L100.84,285.8z M109.01,286.42l-1.51,5.65c1.37,0.3,2.2-0.13,2.51-1.3
		c0.2-0.73,0.02-1.42-0.53-2.06l0.83-1.86c1.39,1.07,1.84,2.5,1.36,4.31c-0.33,1.23-0.96,2.11-1.88,2.65s-1.99,0.65-3.21,0.32
		c-1.21-0.33-2.09-0.94-2.62-1.86c-0.54-0.92-0.65-1.97-0.33-3.16c0.32-1.2,0.94-2.04,1.84-2.54c0.91-0.49,1.99-0.57,3.25-0.23
		L109.01,286.42z M106.18,291.64l0.96-3.56c-1.05-0.04-1.72,0.43-1.97,1.39C104.91,290.39,105.27,291.21,106.18,291.64z"/>
	<path d="M113.43,283.64l-0.56,2.11l-7.53-2.02l0.56-2.11l1.15,0.31c-0.79-0.77-1.06-1.62-0.8-2.56c0.08-0.3,0.22-0.59,0.43-0.87
		l1.88,0.82c-0.26,0.27-0.44,0.57-0.52,0.93c-0.32,1.21,0.27,2.01,1.77,2.41L113.43,283.64z"/>
	<path d="M107.8,273.56c0.34-1.27,0.99-2.19,1.94-2.79c0.95-0.59,2.03-0.73,3.21-0.41s2.05,0.98,2.57,1.97
		c0.52,1,0.62,2.14,0.27,3.42s-1,2.21-1.97,2.79c-0.97,0.59-2.03,0.72-3.21,0.41c-1.18-0.32-2.03-0.98-2.55-1.99
		C107.55,275.97,107.46,274.82,107.8,273.56z M109.69,274.09c-0.16,0.58-0.09,1.14,0.21,1.67s0.74,0.87,1.33,1.03
		c0.58,0.16,1.14,0.09,1.66-0.22c0.53-0.3,0.87-0.75,1.02-1.34c0.16-0.59,0.09-1.15-0.21-1.68c-0.3-0.53-0.73-0.86-1.32-1.02
		c-0.59-0.16-1.13-0.09-1.66,0.22S109.84,273.51,109.69,274.09z"/>
	<path d="M121.73,268.72l-0.56,2.11l-11.55-3.09l0.56-2.11l0.98,0.26c-0.63-0.87-0.82-1.81-0.54-2.83c0.27-1.02,0.89-1.78,1.84-2.29
		c0.95-0.51,2-0.61,3.14-0.31s1.99,0.92,2.58,1.83c0.58,0.91,0.74,1.87,0.47,2.86c-0.27,0.99-0.9,1.74-1.91,2.23L121.73,268.72z
		 M112.34,264.19c-0.16,0.59-0.08,1.13,0.21,1.66c0.3,0.52,0.74,0.86,1.33,1.02c0.58,0.16,1.14,0.09,1.66-0.22
		c0.53-0.3,0.86-0.74,1.02-1.32s0.08-1.13-0.22-1.66c-0.3-0.53-0.73-0.87-1.32-1.03s-1.13-0.08-1.66,0.22
		C112.83,263.16,112.5,263.6,112.34,264.19z"/>
	<path d="M113.08,253.85c0.34-1.27,0.99-2.19,1.94-2.79c0.95-0.59,2.02-0.73,3.21-0.41c1.19,0.32,2.05,0.98,2.57,1.97
		c0.52,1,0.62,2.14,0.27,3.42c-0.34,1.28-1,2.21-1.97,2.79s-2.03,0.72-3.21,0.41c-1.18-0.32-2.03-0.98-2.55-1.99
		C112.83,256.25,112.74,255.11,113.08,253.85z M114.97,254.38c-0.16,0.59-0.09,1.14,0.21,1.67s0.74,0.87,1.33,1.03
		c0.58,0.16,1.14,0.09,1.66-0.22c0.53-0.3,0.87-0.75,1.02-1.34c0.16-0.58,0.09-1.15-0.21-1.68c-0.3-0.53-0.73-0.86-1.32-1.02
		c-0.59-0.16-1.13-0.09-1.66,0.22S115.13,253.79,114.97,254.38z"/>
	<path d="M122.99,247.93l-0.56,2.11l-7.53-2.02l0.56-2.11l1.15,0.31c-0.79-0.77-1.06-1.62-0.8-2.56c0.08-0.3,0.22-0.59,0.43-0.87
		l1.88,0.82c-0.26,0.27-0.44,0.57-0.52,0.93c-0.32,1.21,0.27,2.01,1.77,2.41L122.99,247.93z"/>
	<path d="M119.1,239.65l5.71,1.53l-0.56,2.11l-5.71-1.53l-0.22,0.83l-1.83-0.49l0.22-0.83l-2.57-0.69l0.56-2.11l2.57,0.69l0.4-1.49
		l1.83,0.49L119.1,239.65z"/>
	<path d="M120.51,237.76l1.05-3.91l1.75,0.47l-1.05,3.91L120.51,237.76z"/>
	<path d="M126.61,234.44l-11.23-5.32l0.41-1.55l8.43-1.13l-6.7-5.32l0.42-1.56l12.33,1.23l-0.61,2.28l-7.43-0.87l6.45,5.13
		l-0.17,0.63l-8.13,1.13l6.84,3.08L126.61,234.44z"/>
	<path d="M124.01,213.05c0.34-1.26,0.99-2.19,1.94-2.78c0.95-0.59,2.03-0.73,3.21-0.41c1.19,0.32,2.05,0.98,2.57,1.97
		c0.52,1,0.62,2.14,0.28,3.42s-1,2.21-1.97,2.79c-0.97,0.59-2.03,0.72-3.21,0.4c-1.18-0.32-2.03-0.98-2.55-1.99
		C123.76,215.45,123.68,214.31,124.01,213.05z M125.9,213.58c-0.16,0.59-0.09,1.14,0.21,1.67c0.3,0.53,0.74,0.87,1.33,1.03
		c0.58,0.16,1.14,0.09,1.66-0.22c0.53-0.3,0.87-0.75,1.02-1.34c0.16-0.59,0.09-1.15-0.21-1.68c-0.3-0.52-0.73-0.86-1.32-1.02
		s-1.13-0.09-1.66,0.22S126.06,212.99,125.9,213.58z"/>
	<path d="M125.83,207.22l0.56-2.11l0.94,0.25c-0.68-0.88-0.82-1.66-0.55-2.68c0.25-0.93,0.74-1.58,1.49-1.95
		c0.56-0.28,1.31-0.29,2.25-0.03l4.78,1.28l-0.56,2.11l-4.18-1.12c-0.58-0.15-1-0.2-1.27-0.11c-0.46,0.11-0.76,0.47-0.92,1.07
		c-0.29,1.06,0.27,1.78,1.66,2.16l3.9,1.04l-0.56,2.11L125.83,207.22z"/>
	<path d="M130.71,196.32l5.71,1.53l-0.56,2.1l-5.71-1.53l-0.22,0.83l-1.83-0.49l0.22-0.83l-2.57-0.69l0.56-2.1l2.57,0.69l0.4-1.49
		l1.83,0.49L130.71,196.32z"/>
	<path d="M137.7,193.05l-0.56,2.11l-7.53-2.02l0.56-2.11l1.15,0.31c-0.79-0.77-1.06-1.62-0.8-2.56c0.08-0.3,0.22-0.59,0.43-0.87
		l1.88,0.82c-0.26,0.27-0.44,0.57-0.52,0.93c-0.32,1.21,0.27,2.01,1.77,2.41L137.7,193.05z"/>
	<path d="M129.19,180l1.65,3.24l-0.97,0.82l-2.08-2.78L129.19,180z M137.36,180.63l-1.51,5.65c1.37,0.3,2.2-0.13,2.51-1.3
		c0.2-0.73,0.02-1.42-0.53-2.06l0.83-1.86c1.39,1.07,1.84,2.5,1.36,4.31c-0.33,1.23-0.96,2.11-1.88,2.65
		c-0.93,0.54-1.99,0.65-3.21,0.32s-2.09-0.94-2.62-1.86c-0.54-0.92-0.65-1.97-0.33-3.16c0.32-1.2,0.94-2.04,1.84-2.54
		c0.91-0.49,1.99-0.57,3.26-0.23L137.36,180.63z M134.52,185.84l0.96-3.57c-1.05-0.04-1.72,0.43-1.97,1.39
		C133.26,184.59,133.62,185.41,134.52,185.84z"/>
	<path d="M135.23,172.16l0.56-2.11l7.53,2.02l-0.56,2.11l-0.98-0.26c0.63,0.87,0.82,1.81,0.54,2.84c-0.28,1.03-0.89,1.79-1.84,2.29
		s-2,0.6-3.13,0.3c-1.13-0.3-1.99-0.92-2.58-1.83c-0.58-0.91-0.74-1.87-0.47-2.87c0.27-1,0.9-1.74,1.9-2.22L135.23,172.16z
		 M136.38,174.48c-0.16,0.59-0.09,1.15,0.21,1.67c0.3,0.53,0.74,0.86,1.33,1.02s1.14,0.09,1.66-0.22c0.53-0.3,0.86-0.74,1.02-1.32
		c0.16-0.58,0.09-1.13-0.22-1.66c-0.3-0.53-0.73-0.86-1.32-1.02s-1.13-0.09-1.66,0.2C136.87,173.44,136.54,173.89,136.38,174.48z"/>
	<path d="M131.4,164.46l13.02,3.49l-0.56,2.11l-13.02-3.49L131.4,164.46z"/>
	<path d="M139.83,165.65l1.05-3.91l1.75,0.47l-1.05,3.91L139.83,165.65z"/>
	<path d="M147.09,157.98l-0.61,2.27l-9.64-2.58l-0.69,2.59l-1.96-0.53l2-7.46l1.96,0.53l-0.7,2.61L147.09,157.98z"/>
	<path d="M148.52,152.66l-0.56,2.11l-7.53-2.02l0.56-2.11l1.15,0.31c-0.79-0.77-1.06-1.62-0.8-2.56c0.08-0.3,0.22-0.59,0.43-0.87
		l1.88,0.82c-0.26,0.27-0.44,0.58-0.52,0.93c-0.32,1.21,0.27,2.01,1.77,2.41L148.52,152.66z"/>
	<path d="M142.68,144.34l4.26,1.14c1.15,0.31,1.86-0.05,2.14-1.08s-0.17-1.69-1.31-2l-4.26-1.14l0.56-2.11l4.61,1.23
		c2.04,0.55,2.82,2.14,2.19,4.48s-2.11,3.35-4.14,2.8l-4.61-1.23L142.68,144.34z"/>
	<path d="M140.66,129.9l0.56-2.11l13.02,3.49l-0.56,2.11l-0.98-0.26c0.63,0.87,0.82,1.81,0.54,2.84s-0.89,1.79-1.84,2.29
		c-0.95,0.5-2,0.6-3.13,0.3c-1.13-0.3-1.99-0.92-2.58-1.83c-0.58-0.91-0.74-1.87-0.47-2.87c0.27-1,0.9-1.74,1.9-2.22L140.66,129.9z
		 M147.31,133.69c-0.16,0.59-0.09,1.15,0.21,1.67c0.3,0.52,0.74,0.86,1.33,1.02s1.14,0.09,1.66-0.22c0.53-0.3,0.86-0.74,1.02-1.32
		c0.16-0.58,0.09-1.13-0.22-1.66c-0.3-0.52-0.73-0.86-1.32-1.02s-1.13-0.09-1.66,0.2C147.8,132.66,147.46,133.11,147.31,133.69z"/>
	<path d="M153.35,120.95l-1.51,5.65c1.37,0.3,2.2-0.13,2.51-1.3c0.2-0.73,0.02-1.42-0.53-2.06l0.83-1.86
		c1.39,1.07,1.84,2.5,1.36,4.31c-0.33,1.23-0.96,2.11-1.88,2.65c-0.93,0.54-1.99,0.65-3.21,0.32c-1.21-0.33-2.09-0.94-2.62-1.86
		c-0.54-0.92-0.65-1.97-0.33-3.16c0.32-1.2,0.94-2.04,1.84-2.54c0.91-0.49,1.99-0.57,3.25-0.23L153.35,120.95z M150.51,126.17
		l0.96-3.57c-1.05-0.04-1.72,0.43-1.97,1.39C149.25,124.92,149.61,125.74,150.51,126.17z"/>
	<path d="M151.22,112.48l0.56-2.11l7.53,2.02l-0.56,2.11l-0.98-0.26c0.63,0.87,0.82,1.81,0.54,2.84s-0.89,1.79-1.84,2.29
		c-0.95,0.5-2,0.6-3.13,0.3c-1.13-0.3-1.99-0.92-2.58-1.83c-0.58-0.91-0.74-1.87-0.47-2.87c0.27-1,0.9-1.74,1.9-2.22L151.22,112.48z
		 M152.37,114.8c-0.16,0.59-0.09,1.15,0.21,1.67c0.3,0.53,0.74,0.86,1.33,1.02s1.14,0.09,1.66-0.22c0.53-0.3,0.86-0.74,1.02-1.32
		c0.16-0.58,0.09-1.13-0.22-1.66c-0.3-0.52-0.73-0.86-1.32-1.02s-1.13-0.08-1.66,0.2C152.86,113.77,152.53,114.22,152.37,114.8z"/>
	<path d="M152.88,106.26l4.26,1.14c1.15,0.31,1.86-0.05,2.14-1.07s-0.17-1.69-1.31-2l-4.26-1.14l0.56-2.11l4.61,1.24
		c2.04,0.55,2.82,2.14,2.19,4.48c-0.63,2.34-2.11,3.35-4.14,2.8l-4.61-1.24L152.88,106.26z"/>
</g>
<circle fill="#FFFFFF" stroke="#000000" stroke-width="3" stroke-miterlimit="10" cx="200" cy="361" r="10"/>
<g>
	<path d="M206.68,346.12l-11.23-5.32l0.41-1.55l8.43-1.13l-6.7-5.32l0.42-1.56l12.33,1.23l-0.61,2.28l-7.43-0.87l6.45,5.13
		l-0.17,0.63l-8.13,1.12l6.84,3.08L206.68,346.12z"/>
	<path d="M204.82,322.95l0.56-2.11l7.53,2.02l-0.56,2.11l-0.98-0.26c0.63,0.87,0.82,1.81,0.54,2.84c-0.28,1.03-0.89,1.79-1.84,2.29
		c-0.95,0.5-2,0.6-3.13,0.3c-1.13-0.3-1.99-0.92-2.58-1.83c-0.58-0.91-0.74-1.87-0.47-2.87c0.27-1,0.9-1.74,1.9-2.22L204.82,322.95z
		 M205.97,325.27c-0.16,0.59-0.09,1.15,0.21,1.67c0.3,0.53,0.74,0.86,1.33,1.02c0.58,0.16,1.14,0.09,1.66-0.22
		c0.53-0.3,0.86-0.74,1.02-1.32c0.16-0.58,0.08-1.13-0.22-1.66c-0.3-0.53-0.73-0.86-1.32-1.02s-1.13-0.08-1.66,0.2
		C206.47,324.24,206.13,324.68,205.97,325.27z"/>
	<path d="M214.02,318.74l-0.56,2.11l-7.53-2.02l0.56-2.11l1.15,0.31c-0.79-0.77-1.06-1.62-0.8-2.56c0.08-0.3,0.22-0.59,0.43-0.87
		l1.88,0.82c-0.26,0.27-0.44,0.58-0.52,0.93c-0.32,1.21,0.27,2.01,1.77,2.41L214.02,318.74z"/>
	<path d="M203.45,310.26c0.09-0.35,0.29-0.61,0.6-0.79c0.31-0.18,0.64-0.22,0.99-0.13c0.35,0.09,0.62,0.3,0.8,0.62
		c0.19,0.31,0.23,0.65,0.14,1c-0.09,0.35-0.3,0.61-0.61,0.79c-0.31,0.18-0.65,0.23-1,0.13c-0.35-0.09-0.62-0.3-0.8-0.62
		C203.4,310.95,203.36,310.61,203.45,310.26z M208.18,310.43l7.53,2.02l-0.56,2.1l-7.53-2.02L208.18,310.43z"/>
	<path d="M214.8,302.14l-1.51,5.65c1.37,0.3,2.2-0.13,2.51-1.3c0.2-0.73,0.02-1.42-0.53-2.06l0.83-1.86
		c1.39,1.07,1.84,2.5,1.36,4.31c-0.33,1.23-0.96,2.11-1.88,2.65c-0.93,0.54-1.99,0.65-3.21,0.32s-2.09-0.94-2.62-1.86
		c-0.54-0.92-0.65-1.97-0.33-3.16c0.32-1.2,0.94-2.04,1.84-2.54c0.91-0.49,1.99-0.57,3.26-0.23L214.8,302.14z M211.96,307.36
		l0.96-3.57c-1.05-0.04-1.72,0.43-1.97,1.39C210.7,306.11,211.06,306.92,211.96,307.36z"/>
	<path d="M213.71,300.42l1.05-3.91l1.75,0.47l-1.05,3.91L213.71,300.42z"/>
	<path d="M213.99,284.92c-1.11,0.65-1.8,1.49-2.08,2.53s-0.12,2.02,0.45,2.96c0.58,0.95,1.44,1.57,2.57,1.87
		c1.13,0.3,2.17,0.19,3.12-0.35c0.95-0.53,1.57-1.34,1.86-2.44c0.15-0.54,0.18-1.05,0.1-1.53c-0.08-0.48-0.29-1-0.62-1.59l2.66,0.71
		c0.19,1.1,0.17,2.1-0.08,3.02c-0.46,1.71-1.43,3.01-2.91,3.88c-1.48,0.87-3.06,1.08-4.75,0.63s-2.96-1.43-3.84-2.95
		s-1.08-3.12-0.63-4.81c0.25-0.94,0.74-1.82,1.47-2.64L213.99,284.92z"/>
	<path d="M215.98,281.3l4.26,1.14c1.15,0.31,1.86-0.05,2.13-1.07s-0.17-1.69-1.31-2l-4.26-1.14l0.56-2.11l4.61,1.24
		c2.04,0.55,2.82,2.14,2.19,4.48c-0.63,2.34-2.11,3.35-4.15,2.8l-4.61-1.24L215.98,281.3z"/>
	<path d="M226,274.02l-0.56,2.11l-7.53-2.02l0.56-2.11l1.15,0.31c-0.79-0.77-1.06-1.62-0.8-2.56c0.08-0.3,0.22-0.59,0.43-0.87
		l1.88,0.82c-0.26,0.27-0.44,0.57-0.52,0.93c-0.32,1.21,0.27,2.01,1.77,2.41L226,274.02z"/>
	<path d="M215.44,265.54c0.09-0.35,0.29-0.61,0.6-0.79c0.31-0.18,0.64-0.22,0.99-0.13c0.35,0.09,0.62,0.3,0.8,0.62
		c0.19,0.31,0.23,0.65,0.14,1c-0.09,0.35-0.3,0.61-0.61,0.79s-0.65,0.23-1,0.13c-0.35-0.09-0.62-0.3-0.8-0.62
		C215.38,266.22,215.34,265.89,215.44,265.54z M220.16,265.7l7.53,2.02l-0.56,2.1l-7.53-2.02L220.16,265.7z"/>
	<path d="M226.78,257.41l-1.51,5.65c1.37,0.3,2.2-0.13,2.51-1.3c0.2-0.73,0.02-1.42-0.53-2.06l0.83-1.86
		c1.39,1.07,1.84,2.5,1.36,4.31c-0.33,1.23-0.96,2.11-1.88,2.65c-0.93,0.54-1.99,0.65-3.21,0.32c-1.21-0.33-2.09-0.94-2.62-1.86
		c-0.54-0.92-0.65-1.97-0.33-3.16c0.32-1.2,0.94-2.04,1.84-2.54c0.91-0.49,1.99-0.57,3.25-0.23L226.78,257.41z M223.95,262.63
		l0.96-3.57c-1.05-0.04-1.72,0.43-1.97,1.39C222.68,261.38,223.05,262.2,223.95,262.63z"/>
</g>
<circle fill="#FFFFFF" stroke="#000000" stroke-width="3" stroke-miterlimit="10" cx="310" cy="361" r="10"/>
<g>
	<path d="M310.61,334.86c-1.11,0.65-1.8,1.49-2.08,2.53c-0.28,1.04-0.12,2.02,0.45,2.96c0.58,0.95,1.44,1.57,2.57,1.87
		s2.17,0.19,3.12-0.35c0.95-0.53,1.57-1.34,1.86-2.44c0.15-0.54,0.18-1.05,0.1-1.53s-0.29-1-0.62-1.59l2.66,0.71
		c0.19,1.1,0.17,2.1-0.08,3.02c-0.46,1.71-1.43,3.01-2.91,3.88c-1.48,0.87-3.06,1.08-4.75,0.63c-1.69-0.45-2.96-1.43-3.84-2.95
		c-0.88-1.52-1.08-3.12-0.63-4.81c0.25-0.94,0.74-1.82,1.47-2.64L310.61,334.86z"/>
	<path d="M309.92,331.78l-1.62-3.58l3.21-2.35l0.75,1.36l-2.11,1.46l1.09,2.33L309.92,331.78z M312.85,329.35
		c0.34-1.27,0.99-2.19,1.94-2.78c0.95-0.59,2.02-0.73,3.21-0.41s2.05,0.98,2.57,1.97c0.52,1,0.62,2.14,0.28,3.42
		c-0.34,1.28-1,2.21-1.97,2.79c-0.97,0.59-2.03,0.72-3.21,0.4c-1.18-0.32-2.03-0.98-2.55-1.99
		C312.6,331.76,312.51,330.62,312.85,329.35z M314.74,329.89c-0.16,0.59-0.09,1.14,0.21,1.67c0.3,0.53,0.74,0.87,1.33,1.03
		c0.58,0.16,1.14,0.09,1.66-0.22c0.53-0.3,0.87-0.75,1.02-1.34c0.16-0.59,0.09-1.15-0.21-1.68c-0.3-0.52-0.73-0.86-1.32-1.02
		s-1.13-0.08-1.66,0.22S314.89,329.3,314.74,329.89z"/>
	<path d="M317.08,321.82l5.71,1.53l-0.56,2.11l-5.71-1.53l-0.22,0.83l-1.83-0.49l0.22-0.83l-2.57-0.69l0.56-2.11l2.57,0.69l0.4-1.49
		l1.83,0.49L317.08,321.82z"/>
	<path d="M322.05,312.42l-1.51,5.65c1.37,0.3,2.2-0.13,2.51-1.3c0.2-0.73,0.02-1.42-0.53-2.06l0.83-1.86
		c1.39,1.07,1.84,2.5,1.36,4.31c-0.33,1.23-0.96,2.11-1.88,2.65c-0.93,0.54-1.99,0.65-3.21,0.32c-1.21-0.33-2.09-0.94-2.62-1.86
		c-0.54-0.92-0.65-1.97-0.33-3.16c0.32-1.2,0.94-2.04,1.84-2.54c0.91-0.49,1.99-0.57,3.25-0.23L322.05,312.42z M319.21,317.64
		l0.96-3.57c-1.05-0.04-1.72,0.43-1.97,1.39C317.94,316.39,318.31,317.2,319.21,317.64z"/>
	<path d="M320.96,310.7l1.05-3.91l1.75,0.47l-1.05,3.91L320.96,310.7z"/>
	<path d="M315.67,297.82l0.56-2.11l13.02,3.49l-0.56,2.11l-0.98-0.26c0.63,0.87,0.82,1.81,0.54,2.84c-0.27,1.03-0.89,1.79-1.84,2.29
		s-2,0.6-3.13,0.3c-1.13-0.3-1.99-0.92-2.58-1.83c-0.58-0.91-0.74-1.87-0.47-2.87s0.9-1.74,1.9-2.22L315.67,297.82z M322.31,301.62
		c-0.16,0.59-0.09,1.15,0.21,1.67c0.3,0.53,0.74,0.86,1.33,1.02c0.58,0.16,1.14,0.09,1.66-0.22c0.53-0.3,0.86-0.74,1.02-1.32
		c0.15-0.58,0.08-1.13-0.22-1.66c-0.3-0.53-0.73-0.86-1.32-1.02c-0.59-0.16-1.13-0.09-1.66,0.2
		C322.81,300.58,322.47,301.03,322.31,301.62z"/>
	<path d="M328.35,288.88l-1.51,5.64c1.37,0.3,2.2-0.13,2.51-1.3c0.2-0.73,0.02-1.42-0.53-2.06l0.83-1.86
		c1.39,1.07,1.84,2.5,1.36,4.31c-0.33,1.23-0.96,2.11-1.88,2.65c-0.93,0.54-1.99,0.65-3.21,0.32s-2.09-0.94-2.62-1.86
		c-0.54-0.92-0.65-1.97-0.33-3.16c0.32-1.2,0.94-2.04,1.84-2.54s1.99-0.57,3.25-0.23L328.35,288.88z M325.52,294.09l0.96-3.57
		c-1.05-0.04-1.72,0.43-1.97,1.39C324.25,292.85,324.62,293.66,325.52,294.09z"/>
	<path d="M327.27,287.16l1.05-3.91l1.75,0.47l-1.05,3.91L327.27,287.16z"/>
	<path d="M322.55,277.85l9.64,2.58l0.96-3.57l1.96,0.53l-1.56,5.82l-11.6-3.11L322.55,277.85z"/>
	<path d="M323.75,271.85c0.09-0.35,0.29-0.61,0.6-0.79c0.31-0.18,0.64-0.22,0.99-0.13c0.35,0.09,0.62,0.3,0.8,0.62
		c0.19,0.31,0.23,0.65,0.14,1c-0.09,0.35-0.3,0.61-0.61,0.79c-0.31,0.18-0.65,0.23-1,0.13c-0.35-0.09-0.62-0.3-0.8-0.62
		C323.69,272.53,323.65,272.19,323.75,271.85z M328.47,272.01l7.53,2.02l-0.56,2.1l-7.53-2.02L328.47,272.01z"/>
	<path d="M335.09,263.72l-1.51,5.64c1.37,0.3,2.2-0.13,2.51-1.3c0.2-0.73,0.02-1.42-0.53-2.06l0.83-1.86
		c1.39,1.07,1.84,2.5,1.36,4.31c-0.33,1.23-0.96,2.11-1.88,2.65c-0.93,0.54-1.99,0.65-3.21,0.32c-1.21-0.33-2.09-0.94-2.62-1.86
		c-0.54-0.92-0.65-1.96-0.33-3.16c0.32-1.2,0.94-2.04,1.84-2.54c0.91-0.49,1.99-0.57,3.25-0.23L335.09,263.72z M332.26,268.94
		l0.96-3.57c-1.05-0.04-1.72,0.43-1.97,1.39C330.99,267.69,331.36,268.51,332.26,268.94z"/>
	<path d="M334.24,257.5c-0.45,0.35-0.72,0.68-0.8,1s-0.09,0.56-0.01,0.75c0.08,0.2,0.22,0.31,0.39,0.36
		c0.18,0.05,0.34,0.01,0.5-0.12s0.41-0.46,0.77-1c0.36-0.53,0.68-0.92,0.97-1.14c0.53-0.45,1.17-0.58,1.93-0.38s1.31,0.67,1.66,1.39
		c0.35,0.73,0.4,1.56,0.15,2.49c-0.3,1.14-0.98,1.98-2.02,2.52l-0.99-1.45c0.74-0.43,1.2-0.94,1.36-1.55
		c0.14-0.54-0.12-1.06-0.57-1.18c-0.23-0.06-0.42-0.04-0.57,0.07c-0.15,0.12-0.42,0.44-0.8,1c-0.38,0.55-0.69,0.92-0.93,1.11
		c-0.48,0.41-1.07,0.52-1.77,0.33c-0.71-0.19-1.21-0.6-1.52-1.23c-0.32-0.62-0.35-1.36-0.13-2.21c0.23-0.85,0.71-1.56,1.44-2.14
		L334.24,257.5z"/>
	<path d="M336.11,250.51c-0.45,0.35-0.72,0.68-0.8,1c-0.08,0.31-0.09,0.56-0.01,0.75c0.08,0.2,0.22,0.31,0.39,0.36
		c0.18,0.05,0.34,0.01,0.5-0.12c0.15-0.13,0.41-0.46,0.77-1c0.36-0.53,0.68-0.92,0.97-1.14c0.53-0.45,1.17-0.58,1.93-0.37
		s1.31,0.67,1.66,1.39c0.35,0.73,0.4,1.56,0.15,2.49c-0.3,1.14-0.98,1.98-2.02,2.52l-0.99-1.45c0.74-0.43,1.2-0.94,1.36-1.55
		c0.14-0.53-0.12-1.06-0.57-1.18c-0.23-0.06-0.42-0.04-0.57,0.07c-0.15,0.12-0.42,0.44-0.8,1s-0.69,0.92-0.93,1.11
		c-0.48,0.41-1.07,0.51-1.77,0.33s-1.21-0.6-1.52-1.23c-0.32-0.62-0.35-1.36-0.13-2.21c0.23-0.85,0.71-1.56,1.44-2.13L336.11,250.51
		z"/>
	<path d="M341.23,240.82l-1.51,5.65c1.37,0.3,2.2-0.13,2.51-1.3c0.2-0.73,0.02-1.42-0.53-2.06l0.83-1.86
		c1.39,1.07,1.84,2.5,1.36,4.31c-0.33,1.23-0.96,2.11-1.88,2.65c-0.93,0.54-1.99,0.65-3.21,0.32s-2.09-0.94-2.62-1.86
		c-0.54-0.92-0.65-1.97-0.33-3.16c0.32-1.2,0.94-2.04,1.84-2.54c0.91-0.49,1.99-0.57,3.25-0.23L341.23,240.82z M338.4,246.04
		l0.96-3.57c-1.05-0.04-1.72,0.43-1.97,1.39C337.13,244.79,337.49,245.6,338.4,246.04z"/>
</g>
<circle fill="#FFFFFF" stroke="#000000" stroke-width="3" stroke-miterlimit="10" cx="420" cy="361" r="10"/>
<g>
	<path d="M415.56,341.24l8.61-1l-6.95-5.22l0.66-2.45l10.55,8.2l-0.33,1.21l-13.21,1.74L415.56,341.24z"/>
	<path d="M418.1,330.22c0.09-0.35,0.29-0.61,0.6-0.79c0.31-0.18,0.64-0.22,0.99-0.13c0.35,0.09,0.62,0.3,0.8,0.62
		c0.19,0.31,0.23,0.65,0.14,1c-0.09,0.35-0.3,0.61-0.61,0.79c-0.31,0.18-0.65,0.23-1,0.13c-0.35-0.09-0.62-0.3-0.8-0.62
		C418.05,330.91,418.01,330.57,418.1,330.22z M422.83,330.38l7.53,2.02l-0.56,2.1l-7.53-2.02L422.83,330.38z"/>
	<path d="M418.43,324.82l13.02,3.49l-0.56,2.11l-13.02-3.49L418.43,324.82z"/>
	<path d="M419.54,320.7l13.02,3.49l-0.56,2.11l-13.02-3.49L419.54,320.7z"/>
	<path d="M431.66,313.86l-1.51,5.65c1.37,0.3,2.2-0.13,2.51-1.3c0.2-0.73,0.02-1.42-0.53-2.06l0.83-1.86
		c1.39,1.07,1.84,2.5,1.36,4.31c-0.33,1.23-0.96,2.11-1.88,2.65c-0.93,0.54-1.99,0.65-3.21,0.32c-1.21-0.33-2.09-0.94-2.62-1.86
		c-0.54-0.92-0.65-1.97-0.33-3.16c0.32-1.2,0.94-2.04,1.84-2.54c0.91-0.49,1.99-0.57,3.25-0.23L431.66,313.86z M428.82,319.08
		l0.96-3.57c-1.05-0.04-1.72,0.43-1.97,1.39C427.56,317.83,427.92,318.65,428.82,319.08z"/>
	<path d="M430.57,312.14l1.05-3.91l1.75,0.47l-1.05,3.91L430.57,312.14z"/>
	<path d="M425.28,299.27l0.56-2.11l13.02,3.49l-0.56,2.11l-0.98-0.26c0.63,0.87,0.82,1.81,0.54,2.84c-0.27,1.03-0.89,1.79-1.84,2.29
		c-0.95,0.5-2,0.6-3.13,0.3c-1.13-0.3-1.99-0.92-2.58-1.83s-0.74-1.87-0.47-2.87s0.9-1.74,1.9-2.22L425.28,299.27z M431.92,303.06
		c-0.16,0.59-0.09,1.15,0.21,1.67c0.3,0.53,0.74,0.86,1.33,1.02c0.58,0.16,1.14,0.09,1.66-0.22c0.53-0.3,0.86-0.74,1.02-1.32
		c0.15-0.58,0.08-1.13-0.22-1.66c-0.3-0.53-0.73-0.86-1.32-1.02c-0.59-0.16-1.13-0.09-1.66,0.2
		C432.42,302.03,432.08,302.47,431.92,303.06z"/>
	<path d="M437.97,290.32l-1.51,5.64c1.37,0.3,2.2-0.13,2.51-1.3c0.2-0.73,0.02-1.42-0.53-2.06l0.83-1.86
		c1.39,1.07,1.84,2.5,1.36,4.31c-0.33,1.23-0.96,2.11-1.88,2.65c-0.93,0.54-1.99,0.65-3.21,0.32c-1.21-0.33-2.09-0.94-2.62-1.86
		c-0.54-0.92-0.65-1.96-0.33-3.16c0.32-1.2,0.94-2.04,1.84-2.54c0.91-0.5,1.99-0.57,3.25-0.23L437.97,290.32z M435.13,295.54
		l0.96-3.57c-1.05-0.04-1.72,0.43-1.97,1.39C433.87,294.29,434.23,295.11,435.13,295.54z"/>
	<path d="M436.88,288.6l1.05-3.91l1.75,0.47l-1.05,3.91L436.88,288.6z"/>
	<path d="M442.98,285.29l-11.23-5.32l0.41-1.54l8.43-1.14l-6.7-5.32l0.42-1.56l12.33,1.23l-0.61,2.28l-7.43-0.87l6.45,5.13
		l-0.17,0.63l-8.13,1.12l6.84,3.08L442.98,285.29z"/>
	<path d="M440.39,263.89c0.34-1.27,0.99-2.19,1.94-2.78c0.95-0.59,2.03-0.73,3.21-0.41s2.05,0.98,2.57,1.97
		c0.52,1,0.62,2.14,0.27,3.42c-0.34,1.28-1,2.21-1.97,2.79c-0.97,0.59-2.03,0.72-3.21,0.4c-1.18-0.32-2.03-0.98-2.55-1.99
		C440.14,266.3,440.05,265.16,440.39,263.89z M442.28,264.42c-0.16,0.59-0.09,1.14,0.21,1.67s0.74,0.87,1.33,1.03
		c0.59,0.16,1.14,0.09,1.66-0.22c0.53-0.3,0.87-0.75,1.02-1.34s0.09-1.15-0.21-1.68c-0.3-0.53-0.73-0.86-1.32-1.02
		s-1.13-0.09-1.66,0.22S442.43,263.84,442.28,264.42z"/>
	<path d="M442.21,258.06l0.56-2.11l0.94,0.25c-0.68-0.88-0.82-1.66-0.55-2.68c0.25-0.93,0.74-1.58,1.49-1.95
		c0.56-0.28,1.31-0.29,2.25-0.04l4.78,1.28l-0.56,2.11l-4.18-1.12c-0.58-0.16-1-0.2-1.27-0.11c-0.46,0.11-0.76,0.47-0.92,1.07
		c-0.28,1.06,0.27,1.78,1.66,2.16l3.9,1.04l-0.56,2.11L442.21,258.06z"/>
	<path d="M447.08,247.17l5.71,1.53l-0.56,2.11l-5.71-1.53l-0.22,0.83l-1.83-0.49l0.22-0.83l-2.57-0.69l0.56-2.11l2.57,0.69l0.4-1.49
		l1.83,0.49L447.08,247.17z"/>
	<path d="M448.49,245.28l1.05-3.91l1.75,0.47l-1.05,3.91L448.49,245.28z"/>
	<path d="M450.7,237.83l4.66,1.25l-0.61,2.26l-11.6-3.11l0.9-3.35c0.35-1.32,0.89-2.23,1.61-2.74c0.84-0.59,1.82-0.74,2.91-0.45
		c1.1,0.3,1.86,0.87,2.28,1.73c0.27,0.53,0.37,1.13,0.31,1.79l5.86-2.34l-0.75,2.78l-5.5,1.88L450.7,237.83z M449.11,237.4
		l0.18-0.66c0.38-1.43-0.05-2.38-1.18-2.68c-1.16-0.31-1.93,0.25-2.32,1.71l-0.19,0.7L449.11,237.4z"/>
	<path d="M450.56,225.92c0.34-1.26,0.99-2.19,1.94-2.78c0.95-0.59,2.02-0.73,3.21-0.41s2.05,0.98,2.57,1.97
		c0.52,1,0.62,2.14,0.28,3.42c-0.34,1.28-1,2.21-1.97,2.79c-0.97,0.59-2.03,0.72-3.21,0.4s-2.03-0.98-2.55-1.99
		C450.31,228.33,450.22,227.19,450.56,225.92z M452.45,226.46c-0.16,0.59-0.09,1.14,0.21,1.67c0.3,0.53,0.74,0.87,1.33,1.03
		s1.14,0.09,1.66-0.22c0.53-0.3,0.87-0.75,1.02-1.34c0.16-0.59,0.09-1.15-0.21-1.68c-0.3-0.52-0.73-0.86-1.32-1.02
		s-1.13-0.09-1.66,0.22S452.61,225.87,452.45,226.46z"/>
	<path d="M459.33,219.68l-7.34,1.86l0.66-2.45l4.88-1.11l-3.71-3.29l0.65-2.42l9.92,9.18l-0.64,2.39L459.33,219.68z"/>
	<path d="M456.19,205.86l0.56-2.11l7.53,2.02l-0.56,2.11l-0.98-0.26c0.63,0.87,0.82,1.81,0.54,2.84s-0.89,1.79-1.84,2.29
		c-0.95,0.5-2,0.6-3.13,0.3c-1.13-0.3-1.99-0.92-2.58-1.83c-0.58-0.91-0.74-1.87-0.47-2.87c0.27-1,0.9-1.74,1.9-2.22L456.19,205.86z
		 M457.35,208.18c-0.16,0.59-0.09,1.15,0.21,1.67c0.3,0.53,0.74,0.86,1.33,1.02c0.58,0.16,1.14,0.09,1.66-0.22
		c0.53-0.3,0.86-0.74,1.02-1.32c0.15-0.58,0.08-1.13-0.22-1.66c-0.3-0.53-0.73-0.86-1.32-1.02s-1.13-0.08-1.66,0.2
		C457.84,207.15,457.5,207.59,457.35,208.18z"/>
	<path d="M452.37,198.17l13.02,3.49l-0.56,2.11l-13.02-3.49L452.37,198.17z"/>
</g>
<circle fill="#FFFFFF" stroke="#000000" stroke-width="3" stroke-miterlimit="10" cx="530" cy="361" r="10"/>
<g>
	<path d="M530.61,334.86c-1.11,0.65-1.8,1.49-2.08,2.53c-0.28,1.04-0.12,2.02,0.45,2.96c0.58,0.95,1.44,1.57,2.57,1.87
		s2.17,0.19,3.12-0.35c0.95-0.53,1.57-1.34,1.86-2.44c0.15-0.54,0.18-1.05,0.1-1.53s-0.29-1-0.62-1.59l2.66,0.71
		c0.19,1.1,0.17,2.1-0.08,3.02c-0.46,1.72-1.43,3.01-2.91,3.88c-1.48,0.87-3.06,1.08-4.75,0.63s-2.96-1.43-3.84-2.95
		c-0.88-1.52-1.08-3.12-0.63-4.81c0.25-0.94,0.74-1.82,1.47-2.64L530.61,334.86z"/>
	<path d="M533.58,327.59l0.56-2.11l7.53,2.02l-0.56,2.11l-0.98-0.26c0.63,0.87,0.82,1.81,0.54,2.84c-0.28,1.03-0.89,1.79-1.84,2.29
		c-0.95,0.5-2,0.6-3.13,0.3s-1.99-0.92-2.58-1.83c-0.58-0.91-0.74-1.87-0.47-2.87s0.9-1.74,1.9-2.22L533.58,327.59z M534.73,329.91
		c-0.16,0.59-0.09,1.15,0.21,1.67c0.3,0.53,0.74,0.86,1.33,1.02c0.58,0.16,1.14,0.09,1.66-0.22c0.53-0.3,0.86-0.74,1.02-1.32
		c0.16-0.58,0.08-1.13-0.22-1.66c-0.3-0.53-0.73-0.86-1.32-1.02c-0.59-0.16-1.13-0.09-1.66,0.2
		C535.22,328.88,534.89,329.33,534.73,329.91z"/>
	<path d="M534.68,323.48l0.56-2.11l0.94,0.25c-0.68-0.87-0.82-1.66-0.55-2.68c0.25-0.92,0.74-1.58,1.49-1.95
		c0.56-0.28,1.31-0.29,2.25-0.03l4.78,1.28l-0.56,2.11l-4.18-1.12c-0.58-0.16-1-0.2-1.27-0.11c-0.46,0.11-0.76,0.47-0.92,1.07
		c-0.28,1.06,0.27,1.78,1.66,2.16l3.9,1.04l-0.56,2.11L534.68,323.48z"/>
	<path d="M537.98,310.22c0.34-1.26,0.99-2.19,1.94-2.78s2.03-0.73,3.21-0.41s2.05,0.98,2.57,1.97c0.52,1,0.62,2.14,0.27,3.42
		s-1,2.21-1.97,2.79c-0.97,0.59-2.03,0.72-3.21,0.4c-1.18-0.32-2.03-0.98-2.55-1.99S537.64,311.48,537.98,310.22z M539.86,310.75
		c-0.16,0.59-0.09,1.14,0.21,1.67s0.74,0.87,1.33,1.03c0.59,0.16,1.14,0.09,1.66-0.22c0.53-0.3,0.87-0.75,1.02-1.34
		s0.09-1.15-0.21-1.68c-0.3-0.52-0.73-0.86-1.32-1.02c-0.59-0.16-1.13-0.08-1.66,0.22C540.36,309.72,540.02,310.17,539.86,310.75z"
		/>
	<path d="M547.89,304.3l-0.56,2.11l-7.53-2.02l0.56-2.11l1.15,0.31c-0.79-0.77-1.06-1.62-0.8-2.56c0.08-0.3,0.22-0.59,0.43-0.87
		l1.88,0.82c-0.26,0.27-0.44,0.57-0.52,0.93c-0.32,1.21,0.27,2.01,1.77,2.41L547.89,304.3z"/>
	<path d="M543,292.43l0.56-2.11l7.53,2.02l-0.56,2.11l-0.98-0.26c0.63,0.87,0.82,1.81,0.54,2.84s-0.89,1.79-1.84,2.29
		c-0.95,0.5-2,0.6-3.13,0.3s-1.99-0.92-2.58-1.83c-0.58-0.91-0.74-1.87-0.47-2.87c0.27-1,0.9-1.74,1.9-2.22L543,292.43z
		 M544.15,294.75c-0.16,0.59-0.09,1.15,0.21,1.67c0.3,0.53,0.74,0.86,1.33,1.02c0.59,0.16,1.14,0.09,1.66-0.22
		c0.53-0.3,0.86-0.74,1.02-1.32c0.16-0.58,0.09-1.13-0.22-1.66c-0.3-0.53-0.73-0.86-1.32-1.02c-0.59-0.16-1.13-0.09-1.66,0.2
		C544.65,293.72,544.31,294.16,544.15,294.75z"/>
</g>
<circle fill="#FFFFFF" stroke="#000000" stroke-width="3" stroke-miterlimit="10" cx="640" cy="361" r="10"/>
<g>
	<path d="M635.14,335.65l1.2,3.43l-1.09,0.69l-1.68-3L635.14,335.65z M640.27,336.5l-1.11,4.15l2.58,0.69l1.07-4l1.96,0.53l-1.07,4
		l3.13,0.84l1.11-4.15l1.96,0.53l-1.72,6.41l-11.6-3.11l1.72-6.41L640.27,336.5z"/>
	<path d="M638.92,327.96l0.56-2.11l13.02,3.49l-0.56,2.11l-0.98-0.26c0.63,0.87,0.82,1.81,0.54,2.84s-0.89,1.79-1.84,2.29
		c-0.95,0.5-2,0.6-3.13,0.3c-1.13-0.3-1.99-0.92-2.58-1.83c-0.58-0.91-0.74-1.87-0.47-2.87c0.27-1,0.9-1.74,1.9-2.22L638.92,327.96z
		 M645.57,331.75c-0.16,0.59-0.09,1.15,0.21,1.67c0.3,0.53,0.74,0.86,1.33,1.02s1.14,0.09,1.66-0.22c0.53-0.3,0.86-0.74,1.02-1.32
		c0.15-0.58,0.08-1.13-0.22-1.66c-0.3-0.53-0.73-0.86-1.32-1.02s-1.13-0.08-1.66,0.2C646.06,330.72,645.73,331.17,645.57,331.75z"/>
	<path d="M646.33,321.32c0.34-1.27,0.99-2.19,1.94-2.78c0.95-0.59,2.03-0.73,3.21-0.41s2.05,0.98,2.57,1.97
		c0.52,1,0.62,2.14,0.27,3.42c-0.34,1.28-1,2.21-1.97,2.79c-0.97,0.59-2.03,0.72-3.21,0.4s-2.03-0.98-2.55-1.99
		S646,322.59,646.33,321.32z M648.22,321.86c-0.16,0.59-0.09,1.14,0.21,1.67s0.74,0.87,1.33,1.03s1.14,0.09,1.66-0.22
		c0.53-0.3,0.87-0.75,1.02-1.34s0.09-1.15-0.21-1.68c-0.3-0.52-0.73-0.86-1.32-1.02c-0.59-0.16-1.13-0.08-1.66,0.22
		C648.72,320.82,648.38,321.27,648.22,321.86z"/>
	<path d="M648.72,313.39l4.26,1.14c1.15,0.31,1.86-0.05,2.13-1.08s-0.17-1.69-1.31-2l-4.26-1.14l0.56-2.11l4.61,1.24
		c2.04,0.55,2.82,2.14,2.19,4.48c-0.63,2.34-2.11,3.35-4.14,2.8l-4.61-1.24L648.72,313.39z"/>
	<path d="M652.19,300.42l0.56-2.1l7.53,2.02l-0.56,2.1l-0.98-0.26c0.63,0.87,0.82,1.81,0.54,2.84c-0.28,1.03-0.89,1.79-1.84,2.29
		s-2,0.6-3.13,0.3s-1.99-0.92-2.58-1.83c-0.58-0.91-0.74-1.87-0.47-2.87s0.9-1.74,1.9-2.22L652.19,300.42z M653.34,302.75
		c-0.16,0.59-0.09,1.15,0.21,1.67c0.3,0.53,0.74,0.86,1.33,1.02c0.58,0.16,1.14,0.09,1.66-0.22c0.53-0.3,0.86-0.74,1.02-1.32
		c0.16-0.58,0.08-1.13-0.22-1.66c-0.3-0.53-0.73-0.86-1.32-1.02c-0.59-0.16-1.13-0.09-1.66,0.2
		C653.84,301.71,653.5,302.16,653.34,302.75z"/>
	<path d="M661.39,296.22l-0.56,2.11l-7.53-2.02l0.56-2.11l1.15,0.31c-0.79-0.77-1.06-1.62-0.8-2.56c0.08-0.3,0.22-0.59,0.43-0.87
		l1.88,0.82c-0.26,0.27-0.44,0.57-0.52,0.93c-0.32,1.21,0.27,2.01,1.77,2.41L661.39,296.22z"/>
	<path d="M651,282.87l0.56-2.11l13.02,3.49l-0.56,2.11l-0.98-0.26c0.63,0.87,0.82,1.81,0.54,2.84c-0.27,1.03-0.89,1.79-1.84,2.29
		c-0.95,0.5-2,0.6-3.13,0.3c-1.13-0.3-1.99-0.92-2.58-1.83c-0.58-0.91-0.74-1.87-0.47-2.87s0.9-1.74,1.9-2.22L651,282.87z
		 M657.65,286.67c-0.16,0.59-0.09,1.15,0.21,1.67c0.3,0.53,0.74,0.86,1.33,1.02c0.58,0.16,1.14,0.09,1.66-0.22
		c0.53-0.3,0.86-0.74,1.02-1.32c0.15-0.58,0.08-1.13-0.22-1.66c-0.3-0.52-0.73-0.86-1.32-1.02c-0.59-0.16-1.13-0.08-1.66,0.2
		C658.15,285.63,657.81,286.08,657.65,286.67z"/>
	<path d="M660,281.95l1.05-3.91l1.75,0.47l-1.05,3.91L660,281.95z"/>
	<path d="M666.1,278.64l-11.23-5.32l0.41-1.54l8.43-1.14l-6.7-5.32l0.42-1.56l12.33,1.23l-0.61,2.28l-7.43-0.87l6.45,5.13
		l-0.17,0.63l-8.13,1.13l6.84,3.08L666.1,278.64z"/>
	<path d="M663.5,257.24c0.34-1.26,0.99-2.19,1.94-2.78c0.95-0.59,2.03-0.73,3.21-0.41c1.19,0.32,2.05,0.98,2.57,1.97
		c0.52,1,0.62,2.14,0.27,3.42c-0.34,1.28-1,2.21-1.97,2.79c-0.97,0.59-2.03,0.72-3.21,0.4s-2.03-0.98-2.55-1.99
		C663.25,259.65,663.17,258.51,663.5,257.24z M665.39,257.78c-0.16,0.59-0.09,1.14,0.21,1.67c0.3,0.53,0.74,0.87,1.33,1.03
		s1.14,0.09,1.66-0.22c0.53-0.3,0.87-0.75,1.02-1.34s0.09-1.15-0.21-1.68c-0.3-0.53-0.73-0.86-1.32-1.02s-1.13-0.08-1.66,0.22
		C665.89,256.74,665.55,257.19,665.39,257.78z"/>
	<path d="M665.32,251.42l0.56-2.11l0.94,0.25c-0.68-0.87-0.82-1.66-0.55-2.68c0.25-0.93,0.74-1.58,1.49-1.95
		c0.56-0.28,1.31-0.29,2.25-0.03l4.78,1.28l-0.56,2.11l-4.18-1.12c-0.58-0.16-1-0.2-1.27-0.11c-0.46,0.11-0.76,0.47-0.92,1.07
		c-0.28,1.06,0.27,1.78,1.66,2.16l3.9,1.04l-0.56,2.11L665.32,251.42z"/>
	<path d="M670.2,240.52l5.71,1.53l-0.56,2.11l-5.71-1.53l-0.22,0.83l-1.83-0.49l0.22-0.83l-2.57-0.69l0.56-2.11l2.57,0.69l0.4-1.49
		l1.83,0.49L670.2,240.52z"/>
	<path d="M681.21,238.32l-0.56,2.11l-11.55-3.09l0.56-2.11l0.98,0.26c-0.63-0.87-0.82-1.81-0.54-2.83c0.27-1.02,0.89-1.78,1.84-2.29
		c0.96-0.51,2-0.61,3.14-0.31c1.14,0.31,1.99,0.92,2.58,1.83c0.58,0.91,0.74,1.87,0.47,2.86c-0.27,0.99-0.9,1.74-1.91,2.23
		L681.21,238.32z M671.82,233.78c-0.16,0.59-0.09,1.13,0.21,1.66c0.3,0.53,0.74,0.86,1.33,1.02c0.58,0.16,1.14,0.09,1.66-0.22
		c0.53-0.3,0.86-0.74,1.02-1.32c0.15-0.58,0.08-1.13-0.22-1.66c-0.3-0.53-0.73-0.87-1.32-1.03s-1.13-0.09-1.66,0.22
		S671.98,233.2,671.82,233.78z"/>
	<path d="M677.84,221.14l-1.51,5.65c1.37,0.3,2.2-0.13,2.51-1.3c0.2-0.73,0.02-1.42-0.53-2.06l0.83-1.86
		c1.39,1.07,1.84,2.5,1.36,4.31c-0.33,1.23-0.96,2.11-1.88,2.65c-0.93,0.54-1.99,0.65-3.21,0.32c-1.21-0.33-2.09-0.94-2.62-1.86
		c-0.54-0.92-0.65-1.97-0.33-3.16c0.32-1.2,0.94-2.04,1.84-2.54s1.99-0.57,3.25-0.23L677.84,221.14z M675,226.36l0.96-3.57
		c-1.05-0.04-1.72,0.43-1.97,1.39C673.74,225.11,674.1,225.92,675,226.36z"/>
	<path d="M676.58,216.69l5.71,1.53l-0.56,2.11l-5.71-1.53l-0.22,0.83l-1.83-0.49l0.22-0.83l-2.57-0.69l0.56-2.11l2.57,0.69l0.4-1.49
		l1.83,0.49L676.58,216.69z"/>
	<path d="M671.31,211.27c0.09-0.35,0.29-0.61,0.6-0.79c0.31-0.18,0.64-0.22,0.99-0.13c0.35,0.09,0.62,0.3,0.8,0.62
		c0.19,0.31,0.23,0.65,0.14,1c-0.09,0.35-0.3,0.61-0.61,0.79c-0.31,0.18-0.65,0.23-1,0.13c-0.35-0.09-0.62-0.3-0.8-0.62
		C671.25,211.96,671.22,211.62,671.31,211.27z M676.03,211.44l7.53,2.02l-0.56,2.1l-7.53-2.02L676.03,211.44z"/>
	<path d="M678.96,207.82l5.71,1.53l-0.56,2.11l-5.71-1.53l-0.22,0.83l-1.83-0.49l0.22-0.83l-2.57-0.69l0.56-2.11l2.57,0.69l0.4-1.49
		l1.83,0.49L678.96,207.82z"/>
</g>
<circle fill="#FFFFFF" stroke="#000000" stroke-width="3" stroke-miterlimit="10" cx="750" cy="361" r="10"/>
<g>
	<path d="M756.68,346.12l-11.23-5.32l0.41-1.55l8.43-1.13l-6.7-5.32l0.42-1.56l12.33,1.23l-0.61,2.28l-7.43-0.87l6.45,5.13
		l-0.17,0.63l-8.13,1.13l6.84,3.08L756.68,346.12z"/>
	<path d="M757.09,323.69c-0.58,0.44-0.95,0.96-1.11,1.56c-0.16,0.6-0.1,1.16,0.19,1.68c0.29,0.52,0.73,0.86,1.34,1.02
		c0.61,0.16,1.17,0.09,1.68-0.21c0.51-0.31,0.85-0.76,1.01-1.38c0.16-0.61,0.11-1.23-0.16-1.88l2.05,0.55
		c0.15,0.7,0.13,1.38-0.04,2.05c-0.31,1.17-0.96,2.05-1.93,2.63c-0.97,0.59-2.02,0.72-3.15,0.42s-1.98-0.96-2.55-1.96
		c-0.56-1-0.69-2.09-0.37-3.26c0.18-0.69,0.51-1.28,0.96-1.79L757.09,323.69z"/>
	<path d="M758.2,315.65l1.42-5.3c1.53,0.42,2.62,0.93,3.28,1.52c1.69,1.47,2.3,3.55,1.68,5.86c-0.47,1.76-1.43,3.06-2.87,3.91
		c-1.44,0.84-3.03,1.03-4.79,0.56c-1.76-0.47-3.05-1.44-3.9-2.91s-1.03-3.1-0.55-4.88c0.59-2.2,1.94-3.62,4.07-4.24l0.53,2.27
		c-1.33,0.39-2.18,1.24-2.53,2.54c-0.29,1.09-0.15,2.11,0.42,3.03c0.57,0.93,1.43,1.55,2.59,1.86s2.2,0.21,3.14-0.31
		s1.56-1.32,1.85-2.42c0.22-0.82,0.18-1.57-0.11-2.26c-0.3-0.68-0.81-1.16-1.53-1.44l-0.73,2.73L758.2,315.65z"/>
	<path d="M754.59,306c0.09-0.35,0.29-0.61,0.6-0.79c0.31-0.18,0.64-0.22,0.99-0.13c0.35,0.09,0.62,0.3,0.8,0.62
		c0.19,0.31,0.23,0.65,0.14,1c-0.09,0.35-0.3,0.61-0.61,0.79c-0.31,0.18-0.65,0.23-1,0.13c-0.35-0.09-0.62-0.3-0.8-0.62
		C754.54,306.69,754.5,306.35,754.59,306z M759.32,306.17l7.53,2.02l-0.56,2.1l-7.53-2.02L759.32,306.17z"/>
	<path d="M754.92,300.6l13.02,3.49l-0.56,2.11l-13.02-3.49L754.92,300.6z"/>
	<path d="M756.03,296.48l13.02,3.49l-0.56,2.11l-13.02-3.49L756.03,296.48z"/>
</g>
<circle fill="#FFFFFF" stroke="#000000" stroke-width="3" stroke-miterlimit="10" cx="860" cy="361" r="10"/>
<g>
	<path d="M862.21,337.99l1.42-5.3c1.53,0.42,2.62,0.93,3.28,1.52c1.69,1.47,2.3,3.55,1.68,5.85c-0.47,1.76-1.43,3.07-2.87,3.91
		c-1.44,0.84-3.03,1.03-4.79,0.56c-1.76-0.47-3.05-1.44-3.9-2.91c-0.84-1.47-1.03-3.1-0.55-4.88c0.59-2.2,1.94-3.62,4.07-4.24
		l0.53,2.27c-1.33,0.39-2.18,1.24-2.53,2.54c-0.29,1.09-0.15,2.11,0.42,3.03c0.57,0.93,1.43,1.55,2.59,1.86
		c1.15,0.31,2.2,0.21,3.14-0.31s1.55-1.32,1.85-2.42c0.22-0.82,0.18-1.57-0.11-2.26c-0.3-0.68-0.81-1.16-1.53-1.44l-0.73,2.73
		L862.21,337.99z"/>
	<path d="M864.34,324.74l0.56-2.11l7.53,2.02l-0.56,2.11l-0.98-0.26c0.63,0.87,0.82,1.81,0.54,2.84s-0.89,1.79-1.84,2.29
		c-0.95,0.5-2,0.6-3.13,0.3c-1.13-0.3-1.99-0.92-2.58-1.83s-0.74-1.87-0.47-2.87s0.9-1.74,1.9-2.22L864.34,324.74z M865.49,327.06
		c-0.16,0.59-0.09,1.15,0.21,1.67c0.3,0.53,0.74,0.86,1.33,1.02c0.58,0.16,1.14,0.09,1.66-0.22c0.53-0.3,0.86-0.74,1.02-1.32
		c0.15-0.58,0.08-1.13-0.22-1.66c-0.3-0.53-0.73-0.86-1.32-1.02c-0.59-0.16-1.13-0.09-1.66,0.2
		C865.99,326.03,865.65,326.47,865.49,327.06z"/>
	<path d="M873.54,320.53l-0.56,2.11l-7.53-2.02l0.56-2.11l1.15,0.31c-0.79-0.77-1.06-1.62-0.8-2.56c0.08-0.3,0.22-0.59,0.43-0.87
		l1.88,0.82c-0.26,0.27-0.44,0.58-0.52,0.93c-0.32,1.21,0.27,2.01,1.77,2.41L873.54,320.53z"/>
	<path d="M873.2,308.11l-1.51,5.65c1.37,0.3,2.2-0.13,2.51-1.3c0.2-0.73,0.02-1.42-0.53-2.06l0.83-1.86
		c1.39,1.07,1.84,2.5,1.36,4.31c-0.33,1.23-0.96,2.11-1.88,2.65c-0.93,0.54-1.99,0.65-3.21,0.32s-2.09-0.94-2.62-1.86
		c-0.54-0.92-0.65-1.97-0.33-3.16c0.32-1.2,0.94-2.04,1.84-2.54c0.91-0.49,1.99-0.57,3.26-0.23L873.2,308.11z M870.36,313.33
		l0.96-3.57c-1.05-0.04-1.72,0.43-1.97,1.39C869.1,312.08,869.46,312.9,870.36,313.33z"/>
	<path d="M874.5,296.04c-0.58,0.44-0.95,0.96-1.11,1.56c-0.16,0.6-0.1,1.16,0.19,1.68c0.29,0.52,0.73,0.86,1.35,1.02
		c0.61,0.16,1.17,0.09,1.68-0.21c0.51-0.31,0.85-0.76,1.01-1.38s0.11-1.23-0.16-1.88l2.05,0.55c0.15,0.7,0.13,1.38-0.04,2.05
		c-0.31,1.17-0.96,2.04-1.93,2.63c-0.97,0.59-2.02,0.72-3.15,0.42s-1.98-0.96-2.55-1.96c-0.56-1-0.69-2.09-0.37-3.26
		c0.18-0.69,0.51-1.28,0.96-1.79L874.5,296.04z"/>
	<path d="M878.72,287.52l-1.51,5.65c1.37,0.3,2.2-0.13,2.51-1.3c0.2-0.73,0.02-1.42-0.53-2.06l0.83-1.86
		c1.39,1.07,1.84,2.5,1.36,4.31c-0.33,1.23-0.96,2.11-1.88,2.65c-0.93,0.54-1.99,0.65-3.21,0.32s-2.09-0.94-2.62-1.86
		c-0.54-0.92-0.65-1.97-0.33-3.16c0.32-1.2,0.94-2.04,1.84-2.54c0.91-0.49,1.99-0.57,3.25-0.23L878.72,287.52z M875.88,292.74
		l0.96-3.57c-1.05-0.04-1.72,0.43-1.97,1.39C874.62,291.49,874.98,292.3,875.88,292.74z"/>
	<path d="M875.04,284.82l0.56-2.11l0.94,0.25c-0.68-0.88-0.82-1.66-0.55-2.68c0.25-0.92,0.74-1.58,1.49-1.95
		c0.56-0.28,1.31-0.29,2.25-0.03l4.78,1.28l-0.56,2.11l-4.18-1.12c-0.58-0.16-1-0.2-1.27-0.11c-0.46,0.11-0.76,0.47-0.92,1.07
		c-0.28,1.06,0.27,1.78,1.66,2.16l3.9,1.04l-0.56,2.11L875.04,284.82z"/>
	<path d="M879.91,273.93l5.71,1.53l-0.56,2.11l-5.71-1.53l-0.22,0.83l-1.83-0.49l0.22-0.83l-2.57-0.69l0.56-2.11l2.57,0.69l0.4-1.49
		l1.82,0.49L879.91,273.93z"/>
	<path d="M886.91,270.65l-0.56,2.11l-7.53-2.02l0.56-2.11l1.15,0.31c-0.79-0.77-1.06-1.62-0.8-2.56c0.08-0.3,0.22-0.59,0.43-0.87
		l1.88,0.82c-0.26,0.27-0.44,0.58-0.52,0.93c-0.32,1.21,0.27,2.01,1.77,2.41L886.91,270.65z"/>
	<path d="M882.02,258.78l0.56-2.11l7.53,2.02l-0.56,2.11l-0.98-0.26c0.63,0.87,0.82,1.81,0.54,2.84c-0.27,1.03-0.89,1.79-1.84,2.29
		s-2,0.6-3.13,0.3c-1.13-0.3-1.99-0.92-2.58-1.83c-0.58-0.91-0.74-1.87-0.47-2.87c0.27-1,0.9-1.74,1.9-2.22L882.02,258.78z
		 M883.17,261.1c-0.16,0.59-0.09,1.15,0.21,1.67c0.3,0.53,0.74,0.86,1.33,1.02c0.58,0.16,1.14,0.09,1.66-0.22
		c0.53-0.3,0.86-0.74,1.02-1.32c0.15-0.58,0.08-1.13-0.22-1.66c-0.3-0.52-0.73-0.86-1.32-1.02s-1.13-0.08-1.66,0.2
		C883.66,260.06,883.33,260.51,883.17,261.1z"/>
	<path d="M878.19,251.08l13.02,3.49l-0.56,2.11l-13.02-3.49L878.19,251.08z"/>
	<path d="M890.32,244.24l-1.51,5.65c1.37,0.3,2.2-0.13,2.51-1.3c0.2-0.73,0.01-1.42-0.53-2.06l0.84-1.86
		c1.39,1.07,1.84,2.5,1.36,4.31c-0.33,1.23-0.96,2.11-1.88,2.65s-1.99,0.65-3.21,0.32c-1.21-0.33-2.09-0.94-2.62-1.86
		c-0.54-0.92-0.65-1.97-0.33-3.16c0.32-1.2,0.94-2.04,1.84-2.54c0.91-0.49,1.99-0.57,3.25-0.23L890.32,244.24z M887.48,249.46
		l0.96-3.57c-1.05-0.04-1.72,0.43-1.97,1.39C886.21,248.21,886.58,249.02,887.48,249.46z"/>
</g>
<circle fill="#FFFFFF" stroke="#000000" stroke-width="3" stroke-miterlimit="10" cx="970" cy="361" r="10"/>
<g>
	<path d="M972.21,337.99l1.42-5.3c1.53,0.42,2.62,0.93,3.28,1.52c1.69,1.47,2.3,3.55,1.68,5.85c-0.47,1.76-1.43,3.07-2.87,3.91
		c-1.44,0.84-3.03,1.03-4.79,0.56c-1.76-0.47-3.05-1.44-3.9-2.91c-0.84-1.47-1.03-3.1-0.55-4.88c0.59-2.2,1.94-3.62,4.07-4.24
		l0.53,2.27c-1.33,0.39-2.18,1.24-2.53,2.54c-0.29,1.09-0.15,2.11,0.42,3.03c0.57,0.93,1.43,1.55,2.59,1.86
		c1.15,0.31,2.2,0.21,3.14-0.31s1.55-1.32,1.85-2.42c0.22-0.82,0.18-1.57-0.11-2.26c-0.3-0.68-0.81-1.16-1.53-1.44l-0.73,2.73
		L972.21,337.99z"/>
	<path d="M980.88,330.48l-0.56,2.11l-7.53-2.02l0.56-2.11l1.15,0.31c-0.79-0.77-1.06-1.62-0.8-2.56c0.08-0.3,0.22-0.59,0.43-0.87
		l1.88,0.82c-0.26,0.27-0.44,0.58-0.52,0.93c-0.32,1.21,0.27,2.01,1.77,2.41L980.88,330.48z"/>
	<path d="M970.31,321.99c0.09-0.35,0.29-0.61,0.6-0.79c0.31-0.18,0.64-0.22,0.99-0.13c0.35,0.09,0.62,0.3,0.8,0.61
		c0.19,0.31,0.23,0.65,0.14,1c-0.09,0.35-0.3,0.61-0.61,0.79c-0.31,0.18-0.65,0.23-1,0.13c-0.35-0.09-0.62-0.3-0.8-0.62
		C970.25,322.68,970.22,322.34,970.31,321.99z M975.03,322.16l7.53,2.02l-0.56,2.1l-7.53-2.02L975.03,322.16z"/>
	<path d="M977.97,318.49l5.71,1.53l-0.56,2.11l-5.71-1.53l-0.22,0.81l-1.83-0.49l0.22-0.81l-2.41-0.65c-0.99-0.27-1.7-0.7-2.11-1.31
		c-0.5-0.78-0.63-1.61-0.4-2.49c0.1-0.37,0.29-0.72,0.56-1.04l1.91,0.51c-0.3,0.36-0.48,0.66-0.53,0.89
		c-0.11,0.42-0.01,0.74,0.32,0.96c0.19,0.16,0.57,0.32,1.12,0.46l2.11,0.56l0.52-1.93l1.82,0.49L977.97,318.49z"/>
	<path d="M979.46,312.93l5.71,1.53l-0.56,2.1l-5.71-1.53l-0.22,0.82l-1.83-0.49l0.22-0.82l-2.41-0.65c-0.99-0.27-1.7-0.7-2.11-1.31
		c-0.5-0.78-0.63-1.61-0.4-2.49c0.1-0.37,0.29-0.72,0.56-1.04l1.91,0.51c-0.3,0.36-0.48,0.66-0.53,0.89
		c-0.11,0.42-0.01,0.74,0.32,0.96c0.19,0.16,0.57,0.32,1.12,0.46l2.11,0.56l0.52-1.93l1.83,0.49L979.46,312.93z"/>
	<path d="M974.3,307.09c0.09-0.35,0.29-0.61,0.6-0.79c0.31-0.18,0.64-0.22,0.99-0.13c0.35,0.09,0.62,0.3,0.8,0.61
		c0.19,0.31,0.23,0.65,0.14,1c-0.09,0.35-0.3,0.61-0.61,0.79c-0.31,0.18-0.65,0.23-1,0.13c-0.35-0.09-0.62-0.3-0.8-0.62
		C974.25,307.78,974.21,307.44,974.3,307.09z M979.02,307.26l7.53,2.02l-0.56,2.1l-7.53-2.02L979.02,307.26z"/>
	<path d="M979.56,305.27l0.56-2.11l0.94,0.25c-0.68-0.88-0.82-1.66-0.55-2.68c0.25-0.93,0.74-1.58,1.49-1.95
		c0.56-0.28,1.31-0.29,2.25-0.03l4.78,1.28l-0.56,2.11l-4.18-1.12c-0.58-0.15-1-0.2-1.27-0.11c-0.46,0.11-0.76,0.47-0.92,1.07
		c-0.28,1.06,0.27,1.78,1.66,2.16l3.9,1.04l-0.56,2.11L979.56,305.27z"/>
	<path d="M984.43,294.38l5.71,1.53l-0.56,2.11l-5.71-1.53l-0.22,0.83l-1.83-0.49l0.22-0.83l-2.57-0.69l0.56-2.11l2.57,0.69l0.4-1.49
		l1.83,0.49L984.43,294.38z"/>
	<path d="M984.11,287.31c0.34-1.26,0.99-2.19,1.94-2.78s2.02-0.73,3.21-0.41c1.19,0.32,2.05,0.98,2.57,1.97
		c0.52,1,0.62,2.14,0.28,3.42c-0.34,1.28-1,2.21-1.97,2.79c-0.97,0.59-2.03,0.72-3.21,0.4c-1.18-0.32-2.03-0.98-2.55-1.98
		C983.86,289.72,983.78,288.58,984.11,287.31z M986,287.85c-0.16,0.59-0.09,1.14,0.21,1.67c0.3,0.53,0.74,0.87,1.33,1.03
		c0.58,0.16,1.14,0.09,1.66-0.22c0.53-0.3,0.87-0.75,1.02-1.34c0.16-0.59,0.09-1.15-0.21-1.68c-0.3-0.53-0.73-0.86-1.32-1.02
		s-1.13-0.08-1.66,0.22C986.5,286.81,986.16,287.26,986,287.85z"/>
	<path d="M986.2,280.49l4.88-0.81l-4-3.27l0.24-0.9l5.17-0.82l-3.88-3.19l0.63-2.35l6.64,5.96l-0.25,0.95l-5.11,0.81l4.03,3.23
		l-0.26,0.97l-8.72,1.8L986.2,280.49z"/>
	<path d="M989.52,268.1l0.56-2.11l0.94,0.25c-0.68-0.88-0.82-1.66-0.55-2.68c0.25-0.93,0.74-1.58,1.49-1.95
		c0.56-0.28,1.31-0.29,2.25-0.03l4.78,1.28l-0.56,2.11l-4.18-1.12c-0.58-0.15-1-0.2-1.27-0.11c-0.46,0.11-0.76,0.47-0.92,1.07
		c-0.28,1.06,0.27,1.78,1.66,2.16l3.9,1.04l-0.56,2.11L989.52,268.1z"/>
	<path d="M994.75,259.25l1.94-7.23l1.75,0.47l-1.94,7.23L994.75,259.25z"/>
	<path d="M1002.26,250.67l-11.6-3.11l0.77-2.87c0.35-1.31,0.83-2.19,1.45-2.64c0.73-0.55,1.61-0.69,2.64-0.41
		c0.64,0.17,1.15,0.46,1.54,0.88c0.18,0.22,0.33,0.56,0.47,1.02c0.34-0.66,0.72-1.09,1.14-1.32c0.7-0.4,1.52-0.48,2.46-0.23
		s1.62,0.8,2.05,1.63c0.42,0.83,0.46,1.88,0.12,3.14L1002.26,250.67z M996.1,246.59l0.17-0.65c0.31-1.17-0.03-1.89-1.03-2.16
		c-1-0.27-1.66,0.17-1.96,1.32l-0.18,0.68L996.1,246.59z M1001.04,247.92l0.26-0.98c0.4-1.5,0.07-2.4-0.99-2.69
		c-0.59-0.16-1.08-0.04-1.47,0.33c-0.31,0.27-0.57,0.81-0.79,1.62l-0.23,0.85L1001.04,247.92z"/>
	<path d="M1003.39,232.77l-1.51,5.65c1.37,0.3,2.2-0.13,2.51-1.3c0.2-0.73,0.02-1.42-0.53-2.06l0.83-1.86
		c1.39,1.07,1.84,2.5,1.37,4.31c-0.33,1.23-0.96,2.11-1.88,2.65c-0.93,0.54-1.99,0.65-3.21,0.32c-1.21-0.33-2.09-0.94-2.62-1.86
		c-0.54-0.92-0.65-1.97-0.33-3.16c0.32-1.2,0.94-2.04,1.84-2.54c0.91-0.49,1.99-0.57,3.25-0.23L1003.39,232.77z M1000.55,237.99
		l0.96-3.57c-1.05-0.04-1.72,0.43-1.97,1.39C999.29,236.74,999.65,237.55,1000.55,237.99z"/>
	<path d="M1007.8,229.98l-0.56,2.11l-7.53-2.02l0.56-2.11l1.15,0.31c-0.79-0.77-1.06-1.62-0.8-2.56c0.08-0.3,0.22-0.59,0.43-0.87
		l1.88,0.82c-0.26,0.27-0.44,0.58-0.52,0.93c-0.32,1.21,0.27,2.01,1.77,2.41L1007.8,229.98z"/>
	<path d="M1001.4,223.75l0.56-2.11l0.94,0.25c-0.68-0.88-0.82-1.66-0.55-2.68c0.25-0.93,0.74-1.58,1.49-1.95
		c0.56-0.28,1.31-0.29,2.25-0.03l4.78,1.28l-0.56,2.11l-4.18-1.12c-0.58-0.15-1-0.2-1.27-0.11c-0.46,0.11-0.76,0.47-0.92,1.07
		c-0.29,1.06,0.27,1.78,1.66,2.16l3.9,1.04l-0.56,2.11L1001.4,223.75z"/>
	<path d="M1005.43,208.71l0.56-2.11l7.53,2.02l-0.56,2.11l-0.98-0.26c0.63,0.87,0.82,1.81,0.54,2.84c-0.28,1.03-0.89,1.79-1.84,2.29
		c-0.95,0.5-2,0.6-3.13,0.3c-1.13-0.3-1.99-0.92-2.58-1.83c-0.58-0.91-0.74-1.87-0.47-2.87c0.27-1,0.9-1.74,1.9-2.22L1005.43,208.71
		z M1006.58,211.03c-0.16,0.59-0.09,1.15,0.21,1.67c0.3,0.53,0.74,0.86,1.33,1.02c0.58,0.16,1.14,0.09,1.66-0.22
		c0.53-0.3,0.86-0.74,1.02-1.32c0.16-0.58,0.09-1.13-0.22-1.66c-0.3-0.52-0.73-0.86-1.32-1.02s-1.13-0.09-1.66,0.2
		C1007.08,210,1006.74,210.45,1006.58,211.03z"/>
	<path d="M1014.63,204.51l-0.56,2.11l-7.53-2.02l0.56-2.11l1.15,0.31c-0.79-0.77-1.06-1.62-0.8-2.56c0.08-0.3,0.22-0.59,0.43-0.87
		l1.88,0.82c-0.26,0.27-0.44,0.57-0.52,0.93c-0.32,1.21,0.27,2.01,1.77,2.41L1014.63,204.51z"/>
	<path d="M1004.25,191.16l0.56-2.11l13.02,3.49l-0.56,2.11l-0.98-0.26c0.63,0.87,0.82,1.81,0.54,2.84
		c-0.28,1.03-0.89,1.79-1.84,2.29c-0.95,0.5-2,0.6-3.13,0.3c-1.13-0.3-1.99-0.92-2.58-1.83c-0.58-0.91-0.74-1.87-0.47-2.87
		s0.9-1.74,1.9-2.22L1004.25,191.16z M1010.89,194.95c-0.16,0.59-0.09,1.15,0.21,1.67c0.3,0.53,0.74,0.86,1.33,1.02
		c0.58,0.16,1.14,0.09,1.66-0.22c0.53-0.3,0.86-0.74,1.02-1.32c0.16-0.58,0.08-1.13-0.22-1.66c-0.3-0.52-0.73-0.86-1.32-1.02
		s-1.13-0.09-1.66,0.2C1011.39,193.92,1011.05,194.37,1010.89,194.95z"/>
	<path d="M1013.24,190.24l1.05-3.91l1.75,0.47l-1.05,3.91L1013.24,190.24z"/>
	<path d="M1008.52,180.93l9.64,2.58l0.96-3.57l1.96,0.53l-1.56,5.82l-11.6-3.11L1008.52,180.93z"/>
	<path d="M1015.44,171.35l0.56-2.11l7.53,2.02l-0.56,2.11l-0.98-0.26c0.63,0.87,0.82,1.81,0.54,2.84s-0.89,1.79-1.84,2.29
		s-2,0.6-3.13,0.3c-1.13-0.3-1.99-0.92-2.58-1.83c-0.58-0.91-0.74-1.87-0.47-2.87c0.27-1,0.9-1.74,1.9-2.22L1015.44,171.35z
		 M1016.59,173.67c-0.16,0.59-0.09,1.15,0.21,1.67c0.3,0.53,0.74,0.86,1.33,1.02c0.58,0.16,1.14,0.09,1.66-0.22
		c0.53-0.3,0.86-0.74,1.02-1.32c0.15-0.58,0.08-1.13-0.22-1.66c-0.3-0.52-0.73-0.86-1.32-1.02s-1.13-0.08-1.66,0.2
		C1017.09,172.64,1016.75,173.08,1016.59,173.67z"/>
	<path d="M1016.54,167.23l0.56-2.11l0.94,0.25c-0.68-0.87-0.82-1.66-0.55-2.68c0.25-0.93,0.74-1.58,1.49-1.95
		c0.56-0.28,1.31-0.29,2.25-0.03l4.78,1.28l-0.56,2.11l-4.18-1.12c-0.58-0.16-1-0.2-1.27-0.11c-0.46,0.11-0.76,0.47-0.92,1.07
		c-0.28,1.06,0.27,1.78,1.66,2.16l3.9,1.04l-0.56,2.11L1016.54,167.23z"/>
	<path d="M1015.08,150.73l0.56-2.11l13.02,3.49l-0.56,2.11l-0.98-0.26c0.63,0.87,0.82,1.81,0.54,2.84
		c-0.28,1.03-0.89,1.79-1.84,2.29s-2,0.6-3.13,0.3c-1.13-0.3-1.99-0.92-2.58-1.83c-0.58-0.91-0.74-1.87-0.47-2.87
		c0.27-1,0.9-1.74,1.9-2.22L1015.08,150.73z M1021.73,154.52c-0.16,0.59-0.09,1.15,0.21,1.67c0.3,0.53,0.74,0.86,1.33,1.02
		c0.58,0.16,1.14,0.09,1.66-0.22c0.53-0.3,0.86-0.74,1.02-1.32c0.15-0.58,0.08-1.13-0.22-1.66c-0.3-0.53-0.73-0.86-1.32-1.02
		s-1.13-0.09-1.66,0.2C1022.22,153.48,1021.88,153.93,1021.73,154.52z"/>
	<path d="M1029.77,147.99l-0.56,2.11l-7.53-2.02l0.56-2.11l1.15,0.31c-0.79-0.77-1.06-1.62-0.8-2.56c0.08-0.3,0.22-0.59,0.43-0.87
		l1.88,0.82c-0.26,0.27-0.44,0.57-0.52,0.93c-0.32,1.21,0.27,2.01,1.77,2.41L1029.77,147.99z"/>
	<path d="M1030.57,140.43l-7.34,1.86l0.66-2.45l4.88-1.11l-3.71-3.29l0.65-2.42l9.91,9.18l-0.64,2.39L1030.57,140.43z"/>
</g>
<circle fill="#FFFFFF" stroke="#000000" stroke-width="3" stroke-miterlimit="10" cx="1080" cy="361" r="10"/>
<g>
	<path d="M1074.39,343.16l-1.67-3.36l3.13-2.1l0.76,1.36l-2.01,1.25l1.11,2.09L1074.39,343.16z M1077.54,339.87l11.6,3.11
		l-0.61,2.26l-11.6-3.11L1077.54,339.87z"/>
	<path d="M1077.3,335.05l13.02,3.49l-0.56,2.11l-13.02-3.49L1077.3,335.05z"/>
	<path d="M1089.42,328.21l-1.51,5.65c1.37,0.3,2.2-0.13,2.51-1.3c0.2-0.73,0.01-1.42-0.53-2.06l0.84-1.86
		c1.39,1.07,1.84,2.5,1.36,4.31c-0.33,1.23-0.96,2.11-1.88,2.65c-0.93,0.54-1.99,0.65-3.21,0.32c-1.21-0.33-2.09-0.94-2.62-1.86
		c-0.54-0.92-0.65-1.97-0.33-3.16c0.32-1.2,0.94-2.04,1.84-2.54c0.91-0.49,1.99-0.57,3.25-0.23L1089.42,328.21z M1086.58,333.43
		l0.96-3.57c-1.05-0.04-1.72,0.43-1.97,1.39C1085.32,332.18,1085.68,333,1086.58,333.43z"/>
	<path d="M1088.33,326.49l1.05-3.91l1.75,0.47l-1.05,3.91L1088.33,326.49z"/>
	<path d="M1083.04,313.62l0.56-2.11l13.02,3.49l-0.56,2.11l-0.98-0.26c0.63,0.87,0.82,1.81,0.54,2.84
		c-0.27,1.03-0.89,1.79-1.84,2.29s-2,0.6-3.13,0.3c-1.13-0.3-1.99-0.92-2.58-1.83c-0.58-0.91-0.74-1.87-0.47-2.87s0.9-1.74,1.9-2.22
		L1083.04,313.62z M1089.69,317.41c-0.16,0.59-0.09,1.15,0.21,1.67c0.3,0.53,0.74,0.86,1.33,1.02c0.58,0.16,1.14,0.09,1.66-0.22
		c0.53-0.3,0.86-0.74,1.02-1.32c0.15-0.58,0.08-1.13-0.22-1.66c-0.3-0.53-0.73-0.86-1.32-1.02c-0.59-0.16-1.13-0.09-1.66,0.2
		C1090.18,316.38,1089.84,316.82,1089.69,317.41z"/>
	<path d="M1095.73,304.67l-1.51,5.65c1.37,0.3,2.2-0.13,2.51-1.3c0.2-0.73,0.02-1.42-0.53-2.06l0.83-1.86
		c1.39,1.07,1.84,2.5,1.36,4.31c-0.33,1.23-0.96,2.11-1.88,2.65c-0.93,0.54-1.99,0.65-3.21,0.32s-2.09-0.94-2.62-1.86
		s-0.65-1.97-0.33-3.16c0.32-1.2,0.94-2.04,1.84-2.54c0.91-0.49,1.99-0.57,3.25-0.23L1095.73,304.67z M1092.89,309.89l0.96-3.57
		c-1.05-0.04-1.72,0.43-1.97,1.39C1091.63,308.64,1091.99,309.45,1092.89,309.89z"/>
	<path d="M1094.88,298.44c-0.45,0.35-0.72,0.68-0.8,0.99c-0.08,0.31-0.09,0.56-0.01,0.75c0.08,0.2,0.22,0.31,0.39,0.36
		s0.34,0.01,0.5-0.12c0.15-0.13,0.41-0.46,0.77-1c0.36-0.53,0.68-0.92,0.97-1.14c0.53-0.45,1.17-0.58,1.93-0.38
		c0.76,0.2,1.31,0.67,1.66,1.39c0.35,0.73,0.4,1.56,0.15,2.49c-0.3,1.14-0.98,1.98-2.02,2.52l-0.99-1.45
		c0.74-0.43,1.2-0.94,1.36-1.55c0.14-0.53-0.12-1.06-0.57-1.18c-0.23-0.06-0.42-0.04-0.58,0.07c-0.15,0.12-0.42,0.44-0.8,1
		c-0.38,0.55-0.69,0.92-0.93,1.11c-0.48,0.41-1.07,0.52-1.77,0.33c-0.71-0.19-1.21-0.6-1.52-1.23c-0.32-0.62-0.35-1.36-0.13-2.21
		c0.23-0.85,0.71-1.56,1.44-2.14L1094.88,298.44z"/>
	<path d="M1096.45,296.2l1.05-3.91l1.75,0.47l-1.05,3.91L1096.45,296.2z"/>
	<path d="M1094.75,287.44c0.33,0.09,0.63,0.04,0.9-0.15c0.27-0.19,0.69-0.69,1.28-1.51c0.58-0.82,1.11-1.38,1.57-1.7
		c0.76-0.53,1.68-0.65,2.78-0.36c1.1,0.29,1.9,0.91,2.4,1.84s0.6,2,0.28,3.21c-0.44,1.64-1.53,2.76-3.27,3.39l-1.02-1.84
		c1.17-0.27,1.91-0.94,2.2-2.01c0.14-0.52,0.1-0.99-0.11-1.41c-0.22-0.41-0.56-0.69-1.05-0.82c-0.48-0.13-0.92-0.03-1.33,0.31
		c-0.2,0.16-0.6,0.68-1.21,1.54c-0.61,0.87-1.21,1.45-1.79,1.76c-0.58,0.31-1.26,0.35-2.02,0.15c-0.98-0.26-1.69-0.82-2.14-1.68
		c-0.45-0.86-0.54-1.8-0.27-2.85c0.35-1.29,1.08-2.31,2.21-3.07l1.23,1.6c-0.78,0.38-1.26,0.93-1.44,1.62
		c-0.12,0.47-0.1,0.88,0.06,1.26S1094.42,287.35,1094.75,287.44z"/>
	<path d="M1103.97,273.89c1.31,0.25,2.24-0.25,2.54-1.37c0.21-0.76,0.01-1.44-0.57-2.04l0.85-1.86c1.39,1.05,1.84,2.5,1.35,4.37
		c-0.34,1.28-1.09,2.15-2.26,2.58c0.41,0.62,0.65,1.19,0.75,1.73c0.09,0.53,0.05,1.15-0.14,1.85c-0.32,1.21-0.96,2.1-1.93,2.68
		c-0.96,0.58-2.01,0.72-3.17,0.4c-1.16-0.31-2.01-0.96-2.56-1.96c-0.55-0.99-0.66-2.12-0.33-3.36c0.33-1.25,1.07-2.15,2.2-2.72
		c-0.73-0.93-0.93-2.03-0.58-3.3c0.25-0.93,0.68-1.66,1.29-2.19c0.61-0.52,1.34-0.79,2.19-0.8c0.58-0.01,1.22,0.08,1.91,0.27
		L1103.97,273.89z M1100.41,277.44c-0.15,0.57-0.09,1.11,0.21,1.6c0.29,0.51,0.73,0.83,1.32,0.99s1.14,0.1,1.66-0.18
		c0.52-0.27,0.86-0.7,1.02-1.28c0.16-0.58,0.08-1.12-0.23-1.63c-0.3-0.5-0.75-0.83-1.34-0.99s-1.14-0.1-1.64,0.2
		S1100.56,276.87,1100.41,277.44z M1103.62,269.85c-1.06-0.01-1.72,0.45-1.97,1.39c-0.25,0.94,0.09,1.68,1,2.23L1103.62,269.85z"/>
	<path d="M1102.4,263.35l4.26,1.14c1.15,0.31,1.86-0.05,2.13-1.08s-0.17-1.69-1.31-2l-4.26-1.14l0.56-2.11l4.61,1.24
		c2.04,0.55,2.82,2.14,2.19,4.48c-0.63,2.34-2.11,3.35-4.14,2.8l-4.61-1.24L1102.4,263.35z"/>
	<path d="M1112.42,256.07l-0.56,2.11l-7.53-2.02l0.56-2.11l1.15,0.31c-0.79-0.77-1.06-1.62-0.8-2.56c0.08-0.3,0.22-0.59,0.43-0.87
		l1.88,0.82c-0.26,0.27-0.44,0.58-0.52,0.93c-0.32,1.21,0.27,2.01,1.77,2.41L1112.42,256.07z"/>
	<path d="M1108.84,246.33c-0.45,0.35-0.72,0.68-0.8,1s-0.09,0.56-0.01,0.75c0.08,0.2,0.22,0.31,0.39,0.36
		c0.18,0.05,0.34,0.01,0.5-0.12c0.15-0.13,0.41-0.46,0.77-1c0.36-0.53,0.68-0.92,0.97-1.14c0.53-0.45,1.17-0.58,1.93-0.38
		c0.76,0.2,1.31,0.67,1.66,1.39c0.35,0.73,0.4,1.56,0.15,2.49c-0.3,1.14-0.98,1.98-2.02,2.52l-0.99-1.45
		c0.74-0.43,1.2-0.94,1.36-1.55c0.14-0.54-0.12-1.06-0.57-1.18c-0.23-0.06-0.42-0.04-0.58,0.07c-0.15,0.11-0.42,0.44-0.8,1
		c-0.38,0.55-0.69,0.92-0.93,1.11c-0.48,0.41-1.07,0.52-1.77,0.33c-0.71-0.19-1.21-0.6-1.52-1.23c-0.32-0.62-0.35-1.36-0.13-2.21
		s0.71-1.56,1.44-2.14L1108.84,246.33z"/>
</g>
<circle fill="#FFFFFF" stroke="#000000" stroke-width="3" stroke-miterlimit="10" cx="1190" cy="361" r="10"/>
<g>
	<path d="M1193.16,342.08l4.3,1.15l-0.61,2.26l-11.6-3.11l0.91-3.39c0.2-0.76,0.43-1.34,0.68-1.76c0.26-0.42,0.6-0.78,1.02-1.06
		c0.92-0.6,1.94-0.75,3.03-0.45c1.1,0.29,1.9,0.85,2.42,1.68c0.52,0.82,0.59,1.9,0.24,3.23L1193.16,342.08z M1191.2,341.56
		l0.25-0.92c0.38-1.42,0.01-2.27-1.1-2.57c-1.18-0.32-1.88,0.22-2.31,1.8l-0.21,0.78L1191.2,341.56z"/>
	<path d="M1193.18,329.07l0.56-2.11l7.53,2.02l-0.56,2.11l-0.98-0.26c0.63,0.87,0.82,1.81,0.54,2.84s-0.89,1.79-1.84,2.29
		s-2,0.6-3.13,0.3c-1.13-0.3-1.99-0.92-2.58-1.83c-0.58-0.91-0.74-1.87-0.47-2.87s0.9-1.74,1.9-2.22L1193.18,329.07z
		 M1194.33,331.39c-0.16,0.59-0.09,1.15,0.21,1.67c0.3,0.53,0.74,0.86,1.33,1.02c0.58,0.16,1.14,0.09,1.66-0.22
		c0.53-0.3,0.86-0.74,1.02-1.32c0.15-0.58,0.08-1.13-0.22-1.66c-0.3-0.53-0.73-0.86-1.32-1.02s-1.13-0.09-1.66,0.2
		C1194.83,330.36,1194.49,330.8,1194.33,331.39z"/>
	<path d="M1194.28,324.95l0.56-2.1l0.94,0.25c-0.68-0.88-0.82-1.66-0.55-2.68c0.25-0.93,0.74-1.58,1.49-1.95
		c0.56-0.28,1.31-0.29,2.25-0.03l4.78,1.28l-0.56,2.11l-4.18-1.12c-0.58-0.15-1-0.2-1.27-0.11c-0.46,0.11-0.76,0.47-0.92,1.07
		c-0.28,1.06,0.27,1.78,1.66,2.16l3.9,1.04l-0.56,2.1L1194.28,324.95z"/>
	<path d="M1198.31,309.92l0.56-2.11l7.53,2.02l-0.56,2.11l-0.98-0.26c0.63,0.87,0.82,1.81,0.54,2.84s-0.89,1.79-1.84,2.29
		s-2,0.6-3.13,0.3c-1.13-0.3-1.99-0.92-2.58-1.83c-0.58-0.91-0.74-1.87-0.47-2.87s0.9-1.74,1.9-2.22L1198.31,309.92z
		 M1199.47,312.24c-0.16,0.59-0.09,1.15,0.21,1.67c0.3,0.53,0.74,0.86,1.33,1.02c0.58,0.16,1.14,0.09,1.66-0.22
		c0.53-0.3,0.86-0.74,1.02-1.32c0.15-0.58,0.08-1.13-0.22-1.66c-0.3-0.53-0.73-0.86-1.32-1.02s-1.13-0.09-1.66,0.2
		C1199.96,311.21,1199.62,311.65,1199.47,312.24z"/>
	<path d="M1204.94,299.86l3.86,1.04l-0.56,2.11l-4-1.07c-0.59-0.16-1.01-0.23-1.27-0.19c-0.25,0.03-0.48,0.13-0.67,0.31
		c-0.19,0.18-0.32,0.39-0.39,0.62c-0.13,0.48,0.02,1.04,0.42,1.44c0.2,0.2,0.64,0.39,1.31,0.56l3.86,1.03l-0.56,2.11l-7.53-2.02
		l0.56-2.11l0.87,0.23c-0.56-0.85-0.72-1.75-0.47-2.7s0.91-1.58,1.97-1.87c-0.76-0.84-1-1.76-0.73-2.77s0.83-1.63,1.67-1.88
		c0.5-0.15,1.14-0.12,1.93,0.09l4.87,1.3l-0.56,2.1l-4.12-1.1c-0.54-0.14-0.96-0.19-1.25-0.15c-0.49,0.08-0.81,0.37-0.95,0.88
		C1202.95,298.81,1203.52,299.48,1204.94,299.86z"/>
	<path d="M1204.64,286.3l0.56-2.11l7.53,2.02l-0.56,2.11l-0.98-0.26c0.63,0.87,0.82,1.81,0.54,2.84c-0.28,1.03-0.89,1.79-1.84,2.29
		c-0.95,0.5-2,0.6-3.13,0.3c-1.13-0.3-1.99-0.92-2.58-1.83c-0.58-0.91-0.74-1.87-0.47-2.87s0.9-1.74,1.9-2.22L1204.64,286.3z
		 M1205.79,288.62c-0.16,0.59-0.09,1.15,0.21,1.67c0.3,0.53,0.74,0.86,1.33,1.02c0.58,0.16,1.14,0.09,1.66-0.22
		c0.53-0.3,0.86-0.74,1.02-1.32c0.16-0.58,0.08-1.13-0.22-1.66c-0.3-0.53-0.73-0.86-1.32-1.02s-1.13-0.08-1.66,0.2
		C1206.29,287.59,1205.95,288.03,1205.79,288.62z"/>
</g>
<circle fill="#FFFFFF" stroke="#000000" stroke-width="3" stroke-miterlimit="10" cx="1300" cy="361" r="10"/>
<g>
	<path d="M1306.85,345.49l-11.6-3.11l0.89-3.32c0.45-1.69,1.27-2.95,2.45-3.79c0.71-0.51,1.5-0.85,2.38-1s1.75-0.11,2.62,0.12
		c0.87,0.23,1.64,0.64,2.33,1.22c0.69,0.58,1.21,1.28,1.58,2.09c0.61,1.29,0.69,2.79,0.23,4.49L1306.85,345.49z M1305.5,342.71
		l0.16-0.61c0.37-1.38,0.34-2.49-0.1-3.34c-0.48-0.97-1.47-1.74-2.58-2.04c-1.18-0.32-2.26-0.16-3.22,0.48
		c-0.81,0.53-1.4,1.47-1.77,2.84l-0.16,0.61L1305.5,342.71z"/>
	<path d="M1302.91,330.07l4.26,1.14c1.15,0.31,1.86-0.05,2.14-1.08s-0.17-1.69-1.31-2l-4.26-1.14l0.56-2.11l4.61,1.23
		c2.04,0.55,2.82,2.14,2.19,4.48s-2.11,3.35-4.14,2.8l-4.61-1.24L1302.91,330.07z"/>
	<path d="M1307.68,319.27c-1.71-0.46-2.99-1.45-3.84-2.97s-1.04-3.15-0.57-4.91c0.47-1.76,1.45-3.07,2.94-3.95
		c1.49-0.88,3.09-1.09,4.81-0.63c1.5,0.4,2.74,1.32,3.7,2.74l2.37-1.38l-0.39,2.33l-1.32,0.67c0.32,1.11,0.32,2.26,0.02,3.44
		c-0.48,1.77-1.45,3.11-2.94,4C1310.99,319.5,1309.39,319.72,1307.68,319.27z M1312.58,310.68c-0.51-0.78-1.29-1.31-2.33-1.59
		c-1.04-0.28-2.04-0.15-3.02,0.4c-0.97,0.55-1.6,1.37-1.89,2.47c-0.3,1.1-0.16,2.13,0.41,3.09c0.57,0.96,1.42,1.59,2.56,1.9
		c1.14,0.3,2.18,0.18,3.13-0.35c0.95-0.54,1.57-1.34,1.86-2.43c0.17-0.65,0.17-1.25-0.02-1.8l-2.79,1.65l0.43-2.4L1312.58,310.68z"
		/>
	<path d="M1310.33,302.38l4.26,1.14c1.15,0.31,1.86-0.05,2.13-1.08c0.28-1.03-0.17-1.69-1.31-2l-4.26-1.14l0.56-2.11l4.61,1.23
		c2.04,0.55,2.82,2.14,2.19,4.48c-0.63,2.34-2.11,3.35-4.14,2.8l-4.61-1.24L1310.33,302.38z"/>
	<path d="M1313.81,289.41l0.56-2.11l7.53,2.02l-0.56,2.11l-0.98-0.26c0.63,0.87,0.82,1.81,0.54,2.84c-0.28,1.03-0.89,1.79-1.84,2.29
		c-0.95,0.5-2,0.6-3.13,0.3c-1.13-0.3-1.99-0.92-2.58-1.83c-0.58-0.91-0.74-1.87-0.47-2.87s0.9-1.74,1.9-2.22L1313.81,289.41z
		 M1314.96,291.73c-0.16,0.59-0.09,1.15,0.21,1.67c0.3,0.53,0.74,0.86,1.33,1.02c0.59,0.16,1.14,0.09,1.66-0.22
		c0.53-0.3,0.86-0.74,1.02-1.32c0.16-0.58,0.09-1.13-0.22-1.66c-0.3-0.52-0.73-0.86-1.32-1.02c-0.59-0.16-1.13-0.08-1.66,0.2
		C1315.45,290.7,1315.12,291.15,1314.96,291.73z"/>
	<path d="M1323,285.21l-0.56,2.11l-7.53-2.02l0.56-2.11l1.15,0.31c-0.79-0.77-1.06-1.62-0.8-2.56c0.08-0.3,0.22-0.59,0.43-0.87
		l1.88,0.82c-0.26,0.27-0.44,0.58-0.52,0.93c-0.32,1.21,0.27,2.01,1.77,2.41L1323,285.21z"/>
	<path d="M1319.11,276.92l5.71,1.53l-0.56,2.11l-5.71-1.53l-0.22,0.83l-1.83-0.49l0.22-0.83l-2.57-0.69l0.56-2.11l2.57,0.69
		l0.4-1.49l1.83,0.49L1319.11,276.92z"/>
	<path d="M1313.84,271.51c0.09-0.35,0.29-0.61,0.6-0.79c0.31-0.18,0.64-0.22,0.99-0.13c0.35,0.09,0.62,0.3,0.8,0.62
		c0.19,0.31,0.23,0.65,0.14,1c-0.09,0.35-0.3,0.61-0.61,0.79c-0.31,0.18-0.65,0.23-1,0.13c-0.35-0.09-0.62-0.3-0.8-0.62
		C1313.78,272.19,1313.74,271.85,1313.84,271.51z M1318.56,271.67l7.53,2.02l-0.56,2.1l-7.53-2.02L1318.56,271.67z"/>
	<path d="M1325.19,263.38l-1.51,5.64c1.37,0.3,2.2-0.13,2.51-1.3c0.2-0.73,0.02-1.42-0.53-2.06l0.83-1.86
		c1.39,1.07,1.84,2.5,1.36,4.31c-0.33,1.23-0.96,2.11-1.88,2.65c-0.93,0.54-1.99,0.65-3.21,0.32c-1.21-0.33-2.09-0.94-2.62-1.86
		c-0.54-0.92-0.65-1.96-0.33-3.16c0.32-1.2,0.94-2.04,1.84-2.54s1.99-0.57,3.25-0.23L1325.19,263.38z M1322.35,268.6l0.96-3.57
		c-1.05-0.04-1.72,0.43-1.97,1.39C1321.08,267.35,1321.45,268.17,1322.35,268.6z"/>
	<path d="M1329.6,260.6l-0.56,2.11l-7.53-2.02l0.56-2.11l1.15,0.31c-0.79-0.77-1.06-1.62-0.8-2.56c0.08-0.3,0.22-0.59,0.43-0.87
		l1.88,0.82c-0.26,0.27-0.44,0.57-0.52,0.93c-0.32,1.21,0.27,2.01,1.77,2.41L1329.6,260.6z"/>
</g>
<circle fill="#FFFFFF" stroke="#000000" stroke-width="3" stroke-miterlimit="10" cx="1410" cy="361" r="10"/>
<g>
	<path d="M1416.85,345.49l-11.6-3.11l0.77-2.87c0.35-1.31,0.83-2.19,1.45-2.64c0.73-0.55,1.61-0.69,2.64-0.41
		c0.64,0.17,1.15,0.46,1.54,0.88c0.18,0.22,0.33,0.56,0.47,1.02c0.34-0.66,0.72-1.09,1.14-1.32c0.7-0.4,1.52-0.48,2.46-0.23
		s1.62,0.8,2.05,1.63c0.42,0.83,0.46,1.88,0.12,3.14L1416.85,345.49z M1410.69,341.42l0.17-0.64c0.31-1.17-0.03-1.89-1.03-2.16
		s-1.66,0.17-1.96,1.32l-0.18,0.68L1410.69,341.42z M1415.63,342.75l0.26-0.98c0.4-1.5,0.07-2.4-0.99-2.69
		c-0.59-0.16-1.08-0.04-1.47,0.33c-0.31,0.27-0.57,0.81-0.79,1.62l-0.23,0.85L1415.63,342.75z"/>
	<path d="M1419.98,333.81l-0.56,2.11l-7.53-2.02l0.56-2.11l1.15,0.31c-0.79-0.77-1.06-1.62-0.8-2.56c0.08-0.3,0.22-0.59,0.43-0.87
		l1.88,0.82c-0.26,0.27-0.44,0.57-0.52,0.93c-0.32,1.21,0.27,2.01,1.77,2.41L1419.98,333.81z"/>
	<path d="M1414.36,323.73c0.34-1.26,0.99-2.19,1.94-2.78c0.95-0.59,2.02-0.73,3.21-0.41c1.19,0.32,2.05,0.98,2.58,1.97
		c0.52,1,0.62,2.14,0.27,3.42c-0.34,1.28-1,2.21-1.97,2.79c-0.97,0.59-2.03,0.72-3.21,0.4c-1.18-0.32-2.03-0.98-2.55-1.99
		C1414.1,326.14,1414.02,325,1414.36,323.73z M1416.24,324.27c-0.16,0.59-0.09,1.14,0.21,1.67c0.3,0.53,0.74,0.87,1.33,1.03
		c0.58,0.16,1.14,0.09,1.66-0.22c0.53-0.3,0.87-0.75,1.02-1.34c0.16-0.58,0.09-1.15-0.21-1.68c-0.3-0.53-0.73-0.86-1.32-1.02
		s-1.13-0.08-1.66,0.22S1416.4,323.68,1416.24,324.27z"/>
	<path d="M1419.03,314.26c-0.45,0.35-0.72,0.68-0.8,1s-0.09,0.56-0.01,0.75c0.08,0.2,0.22,0.31,0.39,0.36
		c0.18,0.05,0.34,0.01,0.5-0.12s0.41-0.46,0.77-1c0.36-0.53,0.68-0.92,0.97-1.14c0.53-0.45,1.17-0.58,1.93-0.37
		c0.76,0.2,1.31,0.67,1.66,1.39c0.35,0.73,0.4,1.56,0.15,2.49c-0.31,1.14-0.98,1.98-2.02,2.52l-0.99-1.45
		c0.74-0.43,1.2-0.94,1.36-1.55c0.14-0.54-0.12-1.06-0.57-1.18c-0.23-0.06-0.42-0.04-0.58,0.07c-0.15,0.12-0.42,0.44-0.8,1
		c-0.38,0.55-0.69,0.92-0.93,1.11c-0.48,0.41-1.07,0.51-1.77,0.33c-0.71-0.19-1.21-0.6-1.52-1.23c-0.32-0.62-0.36-1.36-0.13-2.21
		c0.23-0.85,0.71-1.56,1.44-2.14L1419.03,314.26z"/>
	<path d="M1420.91,307.27c-0.45,0.35-0.72,0.68-0.8,1c-0.08,0.31-0.09,0.56-0.01,0.75c0.08,0.2,0.22,0.31,0.39,0.36
		c0.18,0.05,0.34,0.01,0.5-0.12s0.41-0.46,0.77-1c0.36-0.53,0.68-0.92,0.97-1.14c0.53-0.45,1.17-0.58,1.93-0.38
		c0.76,0.2,1.31,0.67,1.66,1.39c0.35,0.73,0.4,1.56,0.15,2.49c-0.31,1.14-0.98,1.98-2.02,2.52l-0.99-1.45
		c0.74-0.43,1.2-0.94,1.36-1.55c0.14-0.54-0.12-1.06-0.57-1.18c-0.23-0.06-0.42-0.04-0.58,0.07c-0.15,0.11-0.42,0.44-0.8,1
		c-0.38,0.55-0.69,0.92-0.93,1.11c-0.48,0.41-1.07,0.51-1.77,0.33c-0.71-0.19-1.21-0.6-1.52-1.23c-0.32-0.62-0.36-1.36-0.13-2.21
		s0.71-1.56,1.44-2.14L1420.91,307.27z"/>
	<path d="M1421.48,298.09l0.56-2.11l7.53,2.02l-0.56,2.11l-0.98-0.26c0.63,0.87,0.82,1.81,0.54,2.84c-0.28,1.03-0.89,1.79-1.84,2.29
		s-2,0.6-3.13,0.3c-1.13-0.3-1.99-0.92-2.58-1.83c-0.58-0.91-0.74-1.87-0.47-2.87s0.9-1.74,1.9-2.22L1421.48,298.09z
		 M1422.63,300.41c-0.16,0.59-0.09,1.15,0.21,1.67c0.3,0.53,0.74,0.86,1.33,1.02c0.58,0.16,1.14,0.09,1.66-0.22
		c0.53-0.3,0.86-0.74,1.02-1.32c0.15-0.58,0.08-1.13-0.22-1.66c-0.3-0.53-0.73-0.86-1.32-1.02s-1.13-0.08-1.66,0.2
		C1423.13,299.38,1422.79,299.82,1422.63,300.41z"/>
	<path d="M1430.68,293.89l-0.56,2.11l-7.53-2.02l0.56-2.11l1.15,0.31c-0.79-0.77-1.06-1.62-0.8-2.56c0.08-0.3,0.22-0.59,0.43-0.87
		l1.88,0.82c-0.26,0.27-0.44,0.58-0.52,0.93c-0.32,1.21,0.27,2.01,1.77,2.41L1430.68,293.89z"/>
	<path d="M1420.3,280.54l0.56-2.11l13.02,3.49l-0.56,2.11l-0.98-0.26c0.63,0.87,0.82,1.81,0.54,2.84s-0.89,1.79-1.84,2.29
		s-2,0.6-3.13,0.3s-1.99-0.92-2.58-1.83c-0.58-0.91-0.74-1.87-0.47-2.87s0.9-1.74,1.9-2.22L1420.3,280.54z M1426.94,284.33
		c-0.16,0.59-0.09,1.15,0.21,1.67c0.3,0.53,0.74,0.86,1.33,1.02s1.14,0.09,1.66-0.22c0.53-0.3,0.86-0.74,1.02-1.32
		c0.15-0.58,0.08-1.13-0.22-1.66c-0.3-0.53-0.73-0.86-1.32-1.02s-1.13-0.09-1.66,0.2C1427.44,283.3,1427.1,283.75,1426.94,284.33z"
		/>
</g>
<g>
	<path fill="#9B9B9B" d="M691.86,389.58v-7.16h3.17c0.64,0,1.12,0.06,1.46,0.19c0.33,0.13,0.6,0.36,0.8,0.68s0.3,0.69,0.3,1.08
		c0,0.51-0.16,0.94-0.49,1.28s-0.84,0.57-1.52,0.66c0.25,0.12,0.44,0.24,0.57,0.36c0.28,0.25,0.54,0.57,0.79,0.95l1.25,1.95h-1.19
		l-0.95-1.49c-0.28-0.43-0.5-0.76-0.68-0.99s-0.34-0.39-0.48-0.48s-0.29-0.15-0.43-0.19c-0.11-0.02-0.28-0.03-0.53-0.03h-1.1v3.18
		H691.86z M692.81,385.58h2.04c0.43,0,0.77-0.04,1.02-0.13c0.24-0.09,0.43-0.23,0.56-0.43c0.13-0.2,0.19-0.41,0.19-0.64
		c0-0.34-0.12-0.62-0.37-0.83s-0.63-0.33-1.16-0.33h-2.27V385.58z"/>
	<path fill="#9B9B9B" d="M702.34,388.94c-0.33,0.28-0.64,0.47-0.94,0.59s-0.62,0.17-0.97,0.17c-0.57,0-1.01-0.14-1.31-0.42
		c-0.31-0.28-0.46-0.63-0.46-1.07c0-0.25,0.06-0.49,0.17-0.7c0.12-0.21,0.27-0.38,0.45-0.51s0.4-0.22,0.63-0.29
		c0.17-0.05,0.43-0.09,0.78-0.13c0.71-0.08,1.23-0.19,1.57-0.3c0-0.12,0-0.2,0-0.23c0-0.36-0.08-0.61-0.25-0.76
		c-0.22-0.2-0.56-0.3-1-0.3c-0.41,0-0.72,0.07-0.92,0.22c-0.2,0.14-0.34,0.4-0.44,0.77l-0.86-0.12c0.08-0.37,0.21-0.67,0.39-0.89
		c0.18-0.23,0.44-0.4,0.78-0.52c0.34-0.12,0.73-0.18,1.18-0.18c0.44,0,0.8,0.05,1.08,0.16s0.48,0.24,0.61,0.39
		c0.13,0.16,0.22,0.36,0.27,0.6c0.03,0.15,0.04,0.42,0.04,0.81v1.17c0,0.82,0.02,1.33,0.06,1.55c0.04,0.22,0.11,0.42,0.22,0.62
		h-0.92C702.43,389.4,702.37,389.19,702.34,388.94z M702.27,386.98c-0.32,0.13-0.8,0.24-1.44,0.33c-0.36,0.05-0.62,0.11-0.77,0.18
		s-0.27,0.16-0.35,0.29c-0.08,0.12-0.12,0.26-0.12,0.42c0,0.23,0.09,0.43,0.27,0.59s0.44,0.23,0.78,0.23c0.34,0,0.64-0.07,0.9-0.22
		c0.26-0.15,0.46-0.35,0.58-0.61c0.09-0.2,0.14-0.49,0.14-0.88V386.98z"/>
	<path fill="#9B9B9B" d="M704.52,383.43v-1.01h0.88v1.01H704.52z M704.52,389.58v-5.19h0.88v5.19H704.52z"/>
	<path fill="#9B9B9B" d="M706.72,389.58v-7.16h0.88v7.16H706.72z"/>
	<path fill="#9B9B9B" d="M711.9,389.58v-7.16h4.83v0.84h-3.88v2.22h3.36v0.84h-3.36v3.25H711.9z"/>
	<path fill="#9B9B9B" d="M721.23,388.94c-0.33,0.28-0.64,0.47-0.94,0.59s-0.62,0.17-0.97,0.17c-0.57,0-1.01-0.14-1.31-0.42
		c-0.31-0.28-0.46-0.63-0.46-1.07c0-0.25,0.06-0.49,0.17-0.7c0.12-0.21,0.27-0.38,0.45-0.51s0.4-0.22,0.63-0.29
		c0.17-0.05,0.43-0.09,0.78-0.13c0.71-0.08,1.23-0.19,1.57-0.3c0-0.12,0-0.2,0-0.23c0-0.36-0.08-0.61-0.25-0.76
		c-0.22-0.2-0.56-0.3-1-0.3c-0.41,0-0.72,0.07-0.92,0.22c-0.2,0.14-0.34,0.4-0.44,0.77l-0.86-0.12c0.08-0.37,0.21-0.67,0.39-0.89
		c0.18-0.23,0.44-0.4,0.78-0.52c0.34-0.12,0.73-0.18,1.18-0.18c0.44,0,0.8,0.05,1.08,0.16s0.48,0.24,0.61,0.39
		c0.13,0.16,0.22,0.36,0.27,0.6c0.03,0.15,0.04,0.42,0.04,0.81v1.17c0,0.82,0.02,1.33,0.06,1.55c0.04,0.22,0.11,0.42,0.22,0.62
		h-0.92C721.32,389.4,721.26,389.19,721.23,388.94z M721.16,386.98c-0.32,0.13-0.8,0.24-1.44,0.33c-0.36,0.05-0.62,0.11-0.77,0.18
		s-0.27,0.16-0.35,0.29c-0.08,0.12-0.12,0.26-0.12,0.42c0,0.23,0.09,0.43,0.27,0.59s0.44,0.23,0.78,0.23c0.34,0,0.64-0.07,0.9-0.22
		c0.26-0.15,0.46-0.35,0.58-0.61c0.09-0.2,0.14-0.49,0.14-0.88V386.98z"/>
	<path fill="#9B9B9B" d="M723.41,389.58v-5.19h0.79v0.74c0.38-0.57,0.93-0.85,1.65-0.85c0.31,0,0.6,0.06,0.86,0.17
		c0.26,0.11,0.46,0.26,0.59,0.44s0.22,0.4,0.27,0.65c0.03,0.16,0.05,0.45,0.05,0.85v3.19h-0.88v-3.15c0-0.36-0.03-0.63-0.1-0.8
		c-0.07-0.18-0.19-0.32-0.36-0.43c-0.17-0.11-0.38-0.16-0.61-0.16c-0.37,0-0.7,0.12-0.97,0.36s-0.41,0.69-0.41,1.35v2.83H723.41z"/>
	<path fill="#9B9B9B" d="M728.62,388.03l0.87-0.14c0.05,0.35,0.18,0.62,0.41,0.8s0.53,0.28,0.94,0.28c0.4,0,0.7-0.08,0.9-0.25
		c0.2-0.17,0.29-0.36,0.29-0.58c0-0.2-0.09-0.35-0.26-0.47c-0.12-0.08-0.42-0.18-0.9-0.3c-0.64-0.16-1.09-0.3-1.34-0.42
		c-0.25-0.12-0.44-0.28-0.57-0.49c-0.13-0.21-0.19-0.44-0.19-0.7c0-0.23,0.05-0.45,0.16-0.64c0.11-0.2,0.25-0.36,0.43-0.49
		c0.14-0.1,0.32-0.19,0.56-0.26c0.24-0.07,0.49-0.11,0.76-0.11c0.41,0,0.76,0.06,1.07,0.18s0.53,0.28,0.68,0.48
		c0.15,0.2,0.25,0.47,0.3,0.8l-0.86,0.12c-0.04-0.27-0.15-0.48-0.34-0.62s-0.45-0.22-0.79-0.22c-0.4,0-0.69,0.07-0.86,0.2
		s-0.26,0.29-0.26,0.47c0,0.11,0.04,0.22,0.11,0.31c0.07,0.09,0.18,0.17,0.34,0.23c0.09,0.03,0.35,0.11,0.78,0.22
		c0.62,0.17,1.06,0.3,1.3,0.41c0.25,0.11,0.44,0.26,0.58,0.46s0.21,0.45,0.21,0.75c0,0.29-0.09,0.57-0.26,0.83
		c-0.17,0.26-0.42,0.46-0.74,0.6c-0.32,0.14-0.69,0.21-1.09,0.21c-0.67,0-1.19-0.14-1.54-0.42S728.72,388.58,728.62,388.03z"/>
	<path fill="#9B9B9B" d="M741.97,387.07l0.95,0.24c-0.2,0.78-0.56,1.37-1.07,1.78c-0.52,0.41-1.15,0.61-1.89,0.61
		c-0.77,0-1.4-0.16-1.88-0.47c-0.48-0.31-0.85-0.77-1.1-1.36s-0.38-1.24-0.38-1.92c0-0.75,0.14-1.4,0.43-1.95
		c0.28-0.55,0.69-0.98,1.22-1.26c0.53-0.29,1.1-0.43,1.74-0.43c0.72,0,1.32,0.18,1.81,0.55s0.83,0.88,1.02,1.54l-0.93,0.22
		c-0.17-0.52-0.41-0.9-0.72-1.14s-0.71-0.36-1.19-0.36c-0.55,0-1.01,0.13-1.38,0.4s-0.63,0.62-0.78,1.06
		c-0.15,0.44-0.22,0.9-0.22,1.37c0,0.61,0.09,1.14,0.27,1.59c0.18,0.45,0.45,0.79,0.83,1.02s0.78,0.34,1.22,0.34
		c0.53,0,0.98-0.15,1.35-0.46S741.84,387.67,741.97,387.07z"/>
	<path fill="#9B9B9B" d="M747.36,388.94c-0.33,0.28-0.64,0.47-0.94,0.59s-0.62,0.17-0.97,0.17c-0.57,0-1.01-0.14-1.31-0.42
		c-0.31-0.28-0.46-0.63-0.46-1.07c0-0.25,0.06-0.49,0.17-0.7c0.12-0.21,0.27-0.38,0.45-0.51s0.4-0.22,0.63-0.29
		c0.17-0.05,0.43-0.09,0.78-0.13c0.71-0.08,1.23-0.19,1.57-0.3c0-0.12,0-0.2,0-0.23c0-0.36-0.08-0.61-0.25-0.76
		c-0.22-0.2-0.56-0.3-1-0.3c-0.41,0-0.72,0.07-0.92,0.22c-0.2,0.14-0.34,0.4-0.44,0.77l-0.86-0.12c0.08-0.37,0.21-0.67,0.39-0.89
		c0.18-0.23,0.44-0.4,0.78-0.52c0.34-0.12,0.73-0.18,1.18-0.18c0.44,0,0.8,0.05,1.08,0.16s0.48,0.24,0.61,0.39
		c0.13,0.16,0.22,0.36,0.27,0.6c0.03,0.15,0.04,0.42,0.04,0.81v1.17c0,0.82,0.02,1.33,0.06,1.55c0.04,0.22,0.11,0.42,0.22,0.62
		h-0.92C747.44,389.4,747.38,389.19,747.36,388.94z M747.28,386.98c-0.32,0.13-0.8,0.24-1.44,0.33c-0.36,0.05-0.62,0.11-0.77,0.18
		s-0.27,0.16-0.35,0.29c-0.08,0.12-0.12,0.26-0.12,0.42c0,0.23,0.09,0.43,0.27,0.59s0.44,0.23,0.78,0.23c0.34,0,0.64-0.07,0.9-0.22
		c0.26-0.15,0.46-0.35,0.58-0.61c0.09-0.2,0.14-0.49,0.14-0.88V386.98z"/>
	<path fill="#9B9B9B" d="M749.53,389.58v-5.19h0.79v0.74c0.38-0.57,0.93-0.85,1.65-0.85c0.31,0,0.6,0.06,0.86,0.17
		c0.26,0.11,0.46,0.26,0.59,0.44c0.13,0.18,0.22,0.4,0.27,0.65c0.03,0.16,0.05,0.45,0.05,0.85v3.19h-0.88v-3.15
		c0-0.36-0.04-0.63-0.1-0.8c-0.07-0.18-0.19-0.32-0.36-0.43c-0.17-0.11-0.38-0.16-0.61-0.16c-0.37,0-0.7,0.12-0.97,0.36
		c-0.27,0.24-0.41,0.69-0.41,1.35v2.83H749.53z"/>
	<path fill="#9B9B9B" d="M758.48,388.94c-0.33,0.28-0.64,0.47-0.94,0.59s-0.62,0.17-0.97,0.17c-0.57,0-1.01-0.14-1.31-0.42
		c-0.31-0.28-0.46-0.63-0.46-1.07c0-0.25,0.06-0.49,0.17-0.7c0.12-0.21,0.27-0.38,0.45-0.51s0.4-0.22,0.63-0.29
		c0.17-0.05,0.43-0.09,0.78-0.13c0.71-0.08,1.23-0.19,1.57-0.3c0-0.12,0-0.2,0-0.23c0-0.36-0.08-0.61-0.25-0.76
		c-0.22-0.2-0.56-0.3-1-0.3c-0.41,0-0.72,0.07-0.92,0.22c-0.2,0.14-0.34,0.4-0.44,0.77l-0.86-0.12c0.08-0.37,0.21-0.67,0.38-0.89
		c0.18-0.23,0.44-0.4,0.78-0.52c0.34-0.12,0.73-0.18,1.18-0.18c0.44,0,0.8,0.05,1.08,0.16c0.28,0.1,0.48,0.24,0.61,0.39
		c0.13,0.16,0.22,0.36,0.27,0.6c0.03,0.15,0.04,0.42,0.04,0.81v1.17c0,0.82,0.02,1.33,0.06,1.55c0.04,0.22,0.11,0.42,0.22,0.62
		h-0.92C758.56,389.4,758.5,389.19,758.48,388.94z M758.41,386.98c-0.32,0.13-0.8,0.24-1.44,0.33c-0.36,0.05-0.62,0.11-0.77,0.18
		c-0.15,0.07-0.26,0.16-0.35,0.29c-0.08,0.12-0.12,0.26-0.12,0.42c0,0.23,0.09,0.43,0.27,0.59s0.44,0.23,0.78,0.23
		c0.34,0,0.64-0.07,0.9-0.22c0.26-0.15,0.46-0.35,0.58-0.61c0.09-0.2,0.14-0.49,0.14-0.88V386.98z"/>
	<path fill="#9B9B9B" d="M764.02,389.58v-0.65c-0.33,0.51-0.81,0.77-1.45,0.77c-0.41,0-0.79-0.11-1.14-0.34s-0.62-0.55-0.81-0.96
		c-0.19-0.41-0.29-0.88-0.29-1.41c0-0.52,0.09-0.99,0.26-1.41c0.17-0.42,0.43-0.75,0.78-0.97c0.34-0.22,0.73-0.34,1.16-0.34
		c0.31,0,0.59,0.07,0.84,0.2c0.24,0.13,0.44,0.3,0.6,0.52v-2.57h0.87v7.16H764.02z M761.24,386.99c0,0.66,0.14,1.16,0.42,1.49
		c0.28,0.33,0.61,0.49,0.99,0.49c0.38,0,0.71-0.16,0.98-0.47c0.27-0.31,0.4-0.79,0.4-1.44c0-0.71-0.14-1.23-0.41-1.56
		s-0.61-0.5-1.01-0.5c-0.39,0-0.72,0.16-0.98,0.48S761.24,386.31,761.24,386.99z"/>
	<path fill="#9B9B9B" d="M769.6,388.94c-0.33,0.28-0.64,0.47-0.94,0.59s-0.62,0.17-0.97,0.17c-0.57,0-1.01-0.14-1.31-0.42
		c-0.31-0.28-0.46-0.63-0.46-1.07c0-0.25,0.06-0.49,0.17-0.7c0.12-0.21,0.27-0.38,0.45-0.51s0.4-0.22,0.63-0.29
		c0.17-0.05,0.43-0.09,0.78-0.13c0.71-0.08,1.23-0.19,1.57-0.3c0-0.12,0-0.2,0-0.23c0-0.36-0.08-0.61-0.25-0.76
		c-0.22-0.2-0.56-0.3-1-0.3c-0.41,0-0.72,0.07-0.92,0.22c-0.2,0.14-0.34,0.4-0.44,0.77l-0.86-0.12c0.08-0.37,0.21-0.67,0.38-0.89
		c0.18-0.23,0.44-0.4,0.78-0.52c0.34-0.12,0.73-0.18,1.18-0.18c0.44,0,0.8,0.05,1.08,0.16c0.28,0.1,0.48,0.24,0.61,0.39
		c0.13,0.16,0.22,0.36,0.27,0.6c0.03,0.15,0.04,0.42,0.04,0.81v1.17c0,0.82,0.02,1.33,0.06,1.55c0.04,0.22,0.11,0.42,0.22,0.62
		h-0.92C769.69,389.4,769.63,389.19,769.6,388.94z M769.53,386.98c-0.32,0.13-0.8,0.24-1.44,0.33c-0.36,0.05-0.62,0.11-0.77,0.18
		c-0.15,0.07-0.26,0.16-0.35,0.29c-0.08,0.12-0.12,0.26-0.12,0.42c0,0.23,0.09,0.43,0.27,0.59s0.44,0.23,0.78,0.23
		c0.34,0,0.64-0.07,0.9-0.22c0.26-0.15,0.46-0.35,0.58-0.61c0.09-0.2,0.14-0.49,0.14-0.88V386.98z"/>
	<path fill="#9B9B9B" d="M773.9,387.35v-0.71h10v0.71H773.9z"/>
	<path fill="#9B9B9B" d="M791.71,388.74v0.84h-4.73c-0.01-0.21,0.03-0.42,0.1-0.61c0.12-0.32,0.31-0.64,0.58-0.95
		s0.65-0.67,1.15-1.08c0.78-0.64,1.3-1.14,1.58-1.52c0.27-0.37,0.41-0.73,0.41-1.06c0-0.35-0.12-0.64-0.37-0.88
		c-0.25-0.24-0.57-0.36-0.97-0.36c-0.42,0-0.76,0.13-1.02,0.38s-0.38,0.61-0.39,1.05l-0.9-0.09c0.06-0.67,0.29-1.19,0.7-1.54
		c0.4-0.35,0.95-0.53,1.63-0.53c0.69,0,1.23,0.19,1.63,0.57s0.6,0.85,0.6,1.42c0,0.29-0.06,0.57-0.18,0.84s-0.31,0.57-0.58,0.87
		s-0.72,0.73-1.35,1.26c-0.53,0.44-0.87,0.74-1.02,0.9c-0.15,0.16-0.27,0.32-0.37,0.48H791.71z"/>
	<path fill="#9B9B9B" d="M792.65,386.05c0-0.85,0.09-1.53,0.26-2.04c0.17-0.52,0.43-0.91,0.78-1.19s0.78-0.42,1.3-0.42
		c0.38,0,0.72,0.08,1.01,0.23c0.29,0.15,0.53,0.38,0.72,0.67c0.19,0.29,0.34,0.65,0.44,1.06c0.11,0.42,0.16,0.98,0.16,1.69
		c0,0.84-0.09,1.52-0.26,2.03c-0.17,0.52-0.43,0.91-0.77,1.2c-0.34,0.28-0.78,0.42-1.3,0.42c-0.69,0-1.23-0.25-1.63-0.74
		C792.89,388.37,792.65,387.4,792.65,386.05z M793.56,386.05c0,1.17,0.14,1.96,0.41,2.35c0.27,0.39,0.61,0.58,1.02,0.58
		c0.4,0,0.74-0.2,1.02-0.59s0.41-1.17,0.41-2.34c0-1.18-0.14-1.96-0.41-2.35s-0.62-0.58-1.03-0.58c-0.4,0-0.73,0.17-0.97,0.51
		C793.71,384.07,793.56,384.88,793.56,386.05z"/>
	<path fill="#9B9B9B" d="M802.83,388.74v0.84h-4.73c-0.01-0.21,0.03-0.42,0.1-0.61c0.12-0.32,0.31-0.64,0.58-0.95
		s0.65-0.67,1.15-1.08c0.78-0.64,1.3-1.14,1.58-1.52c0.27-0.37,0.41-0.73,0.41-1.06c0-0.35-0.12-0.64-0.37-0.88
		c-0.25-0.24-0.57-0.36-0.97-0.36c-0.42,0-0.76,0.13-1.02,0.38s-0.38,0.61-0.39,1.05l-0.9-0.09c0.06-0.67,0.29-1.19,0.7-1.54
		c0.4-0.35,0.95-0.53,1.63-0.53c0.69,0,1.23,0.19,1.63,0.57s0.6,0.85,0.6,1.42c0,0.29-0.06,0.57-0.18,0.84s-0.31,0.57-0.58,0.87
		s-0.72,0.73-1.35,1.26c-0.53,0.44-0.87,0.74-1.02,0.9c-0.15,0.16-0.27,0.32-0.37,0.48H802.83z"/>
	<path fill="#9B9B9B" d="M808.34,384.18l-0.88,0.07c-0.08-0.34-0.19-0.6-0.33-0.75c-0.24-0.25-0.53-0.38-0.88-0.38
		c-0.28,0-0.53,0.08-0.74,0.23c-0.28,0.2-0.5,0.5-0.65,0.88c-0.16,0.39-0.24,0.94-0.25,1.66c0.21-0.32,0.47-0.56,0.78-0.72
		c0.31-0.16,0.63-0.23,0.96-0.23c0.59,0,1.09,0.22,1.5,0.65c0.41,0.43,0.62,0.99,0.62,1.67c0,0.45-0.1,0.87-0.29,1.25
		c-0.19,0.39-0.46,0.68-0.8,0.89c-0.34,0.21-0.72,0.31-1.15,0.31c-0.73,0-1.33-0.27-1.79-0.81c-0.46-0.54-0.69-1.43-0.69-2.66
		c0-1.38,0.25-2.39,0.77-3.02c0.45-0.55,1.05-0.82,1.8-0.82c0.56,0,1.02,0.16,1.38,0.47S808.27,383.62,808.34,384.18z
		 M804.75,387.26c0,0.3,0.06,0.59,0.19,0.87s0.31,0.49,0.54,0.63c0.23,0.15,0.47,0.22,0.73,0.22c0.37,0,0.69-0.15,0.96-0.45
		c0.27-0.3,0.4-0.71,0.4-1.22c0-0.5-0.13-0.88-0.4-1.17c-0.26-0.29-0.6-0.43-1-0.43c-0.4,0-0.73,0.14-1.01,0.43
		C804.89,386.43,804.75,386.8,804.75,387.26z"/>
</g>
<g>
	<path d="M29.83,54.67h-5.71V41.2L14,25.33h6.77l6.34,10.21l6.21-10.21h6.81L29.83,41.2V54.67z"/>
	<path d="M48.96,25.33v16.8c0,1.48,0.06,2.58,0.17,3.24c0.11,0.69,0.39,1.4,0.84,2.15c0.88,1.48,2.9,2.58,5.07,2.58
		c2.15,0,4.17-1.1,5.05-2.58c0.45-0.75,0.73-1.46,0.84-2.13s0.17-1.76,0.17-3.27v-16.8h5.71v17.96c0,3.31-0.71,5.91-2.15,7.82
		c-1.03,1.31-2.38,2.34-4.08,3.09c-1.7,0.77-3.54,1.14-5.54,1.14s-3.85-0.37-5.54-1.14c-1.7-0.75-3.07-1.78-4.1-3.09
		c-1.44-1.91-2.15-4.51-2.15-7.82V25.33H48.96z"/>
	<path d="M79.27,25.33v24.38h9.02v4.96H73.55V25.33H79.27z"/>
	<path d="M99.85,42.36h9.9v4.43h-9.9V42.36z"/>
	<path d="M124.13,54.67V25.33h7.26c3.31,0,5.69,0.58,7.15,1.76c1.76,1.38,2.64,3.37,2.64,5.97c0,1.61-0.37,3.01-1.1,4.19
		c-0.41,0.56-1.12,1.14-2.11,1.76c1.76,0.39,3.03,1.01,3.82,1.85c1.4,1.4,2.11,3.29,2.11,5.67s-0.86,4.34-2.56,5.87
		s-4.15,2.28-7.35,2.28H124.13z M129.84,37.55h1.63c2.96,0,4.45-1.27,4.45-3.8s-1.46-3.8-4.36-3.8h-1.72V37.55z M129.84,50.05h2.47
		c3.8,0,5.71-1.35,5.71-4.04c0-1.48-0.58-2.58-1.72-3.27c-0.84-0.56-2.28-0.84-4.32-0.84h-2.15V50.05z"/>
	<path d="M153.69,54.67h-5.33V35.62h5.33v2.9c1.31-2.34,3.16-3.52,5.54-3.5c0.75,0,1.53,0.15,2.32,0.47l-0.75,4.96
		c-0.79-0.45-1.63-0.67-2.54-0.64c-3.05,0-4.58,1.91-4.58,5.71V54.67z"/>
	<path d="M173.93,35.02c3.2,0,5.8,0.95,7.8,2.81s3.01,4.32,3.01,7.33s-1.01,5.46-3.03,7.33c-2.04,1.87-4.66,2.81-7.91,2.81
		s-5.84-0.97-7.84-2.88s-2.99-4.34-2.99-7.33s1.03-5.41,3.07-7.28S170.73,35.02,173.93,35.02z M173.87,39.81
		c-1.48,0-2.75,0.52-3.8,1.55s-1.59,2.3-1.59,3.78s0.52,2.75,1.57,3.78c1.05,1.05,2.32,1.57,3.8,1.57s2.77-0.52,3.82-1.57
		c1.05-1.03,1.57-2.28,1.57-3.76s-0.52-2.73-1.57-3.78S175.35,39.81,173.87,39.81z"/>
	<path d="M199.26,40.06c-1.12-0.84-2.06-1.27-2.86-1.27s-1.38,0.15-1.78,0.45c-0.41,0.32-0.6,0.71-0.6,1.16s0.19,0.82,0.6,1.1
		s1.35,0.67,2.84,1.18s2.6,1.03,3.31,1.57c1.4,0.97,2.11,2.41,2.11,4.32s-0.75,3.52-2.23,4.79c-1.5,1.29-3.44,1.93-5.78,1.93
		c-2.88,0-5.29-1.05-7.22-3.18l2.79-3.24c1.48,1.48,2.99,2.23,4.51,2.23c1.35,0,2.43-0.95,2.43-2.08c0-0.58-0.17-1.01-0.54-1.31
		c-0.37-0.28-1.31-0.71-2.86-1.27s-2.62-1.05-3.2-1.5c-1.27-0.88-1.89-2.19-1.89-3.97s0.64-3.22,1.93-4.36
		c1.27-1.14,2.99-1.7,5.13-1.7s4.12,0.69,5.95,2.04L199.26,40.06z"/>
	<path d="M216.94,40.06c-1.12-0.84-2.06-1.27-2.86-1.27s-1.38,0.15-1.78,0.45c-0.41,0.32-0.6,0.71-0.6,1.16s0.19,0.82,0.6,1.1
		s1.35,0.67,2.84,1.18s2.6,1.03,3.31,1.57c1.4,0.97,2.11,2.41,2.11,4.32s-0.75,3.52-2.23,4.79c-1.5,1.29-3.44,1.93-5.78,1.93
		c-2.88,0-5.29-1.05-7.22-3.18l2.79-3.24c1.48,1.48,2.99,2.23,4.51,2.23c1.35,0,2.43-0.95,2.43-2.08c0-0.58-0.17-1.01-0.54-1.31
		c-0.37-0.28-1.31-0.71-2.86-1.27s-2.62-1.05-3.2-1.5c-1.27-0.88-1.89-2.19-1.89-3.97s0.64-3.22,1.93-4.36
		c1.27-1.14,2.99-1.7,5.13-1.7s4.12,0.69,5.95,2.04L216.94,40.06z"/>
	<path d="M238.98,35.62h5.33v19.06h-5.33V52.2c-1.65,2.04-3.76,3.07-6.36,3.07s-4.79-0.97-6.57-2.9s-2.69-4.34-2.69-7.2
		s0.9-5.29,2.69-7.24s3.95-2.92,6.49-2.92s4.68,1.03,6.45,3.07V35.62z M234.24,39.81c-1.5,0-2.77,0.52-3.8,1.55
		c-1.05,1.03-1.57,2.3-1.57,3.78s0.52,2.75,1.57,3.78c1.05,1.05,2.3,1.57,3.76,1.57s2.73-0.52,3.78-1.57
		c1.05-1.03,1.57-2.28,1.57-3.76s-0.52-2.73-1.53-3.78C236.99,40.32,235.72,39.81,234.24,39.81z"/>
	<path d="M254.73,54.67h-5.33V35.62h5.33v2.9c1.31-2.34,3.16-3.52,5.54-3.5c0.75,0,1.53,0.15,2.32,0.47l-0.75,4.96
		c-0.79-0.45-1.63-0.67-2.54-0.64c-3.05,0-4.58,1.91-4.58,5.71V54.67z"/>
	<path d="M279.68,21.72H285v32.96h-5.33V52.2c-1.65,2.04-3.76,3.07-6.36,3.07s-4.79-0.97-6.57-2.9s-2.69-4.34-2.69-7.2
		s0.9-5.29,2.69-7.24s3.95-2.92,6.49-2.92s4.68,1.03,6.45,3.07V21.72z M274.93,39.81c-1.5,0-2.77,0.52-3.8,1.55
		c-1.05,1.03-1.57,2.3-1.57,3.78s0.52,2.75,1.57,3.78c1.05,1.05,2.3,1.57,3.76,1.57s2.73-0.52,3.78-1.57
		c1.05-1.03,1.57-2.28,1.57-3.76s-0.52-2.73-1.53-3.78C277.68,40.32,276.41,39.81,274.93,39.81z"/>
</g>
<g>
	<path fill="#5A5A5A" d="M16.08,74.05v4.29H14V67.66h3.09c1.21,0,2.12,0.25,2.72,0.75c0.7,0.59,1.05,1.39,1.05,2.4
		c0,1.02-0.32,1.8-0.96,2.35c-0.39,0.35-0.88,0.58-1.47,0.68l3.36,4.49h-2.56l-2.88-4.29H16.08z M16.08,72.58h0.61
		c1.32,0,2.03-0.59,2.03-1.63c0-1.07-0.66-1.6-2-1.6h-0.64V72.58z"/>
	<path fill="#5A5A5A" d="M29.46,75.19h-5.2c0.05,1.24,0.62,1.86,1.7,1.85c0.67,0,1.22-0.31,1.65-0.93l1.79,0.29
		c-0.6,1.44-1.73,2.16-3.39,2.16c-1.13,0-2.03-0.34-2.71-1.01s-1.02-1.56-1.02-2.68s0.33-2.01,0.99-2.68s1.54-1.01,2.64-1.01
		s1.97,0.34,2.6,1s0.95,1.58,0.95,2.74V75.19z M24.33,73.95h3.28c-0.21-0.91-0.77-1.38-1.65-1.38
		C25.11,72.58,24.49,73.08,24.33,73.95z M28.12,68.03l-2.4,2.16l-0.93-0.64l1.91-2.42L28.12,68.03z"/>
	<path fill="#5A5A5A" d="M34.72,73.02c-0.41-0.3-0.75-0.46-1.04-0.46s-0.5,0.05-0.65,0.16c-0.15,0.12-0.22,0.26-0.22,0.42
		s0.07,0.3,0.22,0.4s0.49,0.24,1.03,0.43s0.95,0.38,1.2,0.57c0.51,0.35,0.77,0.88,0.77,1.57s-0.27,1.28-0.81,1.74
		c-0.55,0.47-1.25,0.7-2.1,0.7c-1.05,0-1.92-0.38-2.62-1.16l1.02-1.18c0.54,0.54,1.09,0.81,1.64,0.81c0.49,0,0.88-0.34,0.88-0.76
		c0-0.21-0.06-0.37-0.2-0.48c-0.13-0.1-0.48-0.26-1.04-0.46s-0.95-0.38-1.16-0.55c-0.46-0.32-0.69-0.8-0.69-1.45s0.23-1.17,0.7-1.59
		c0.46-0.41,1.09-0.62,1.87-0.62s1.5,0.25,2.16,0.74L34.72,73.02z"/>
	<path fill="#5A5A5A" d="M44.22,75.19h-5.2c0.05,1.24,0.62,1.86,1.7,1.85c0.67,0,1.22-0.31,1.65-0.93l1.79,0.29
		c-0.6,1.44-1.73,2.16-3.39,2.16c-1.13,0-2.03-0.34-2.71-1.01s-1.02-1.56-1.02-2.68s0.33-2.01,0.99-2.68s1.54-1.01,2.64-1.01
		s1.97,0.34,2.6,1s0.95,1.58,0.95,2.74V75.19z M39.09,73.95h3.28c-0.21-0.91-0.77-1.38-1.65-1.38
		C39.87,72.58,39.25,73.08,39.09,73.95z"/>
	<path fill="#5A5A5A" d="M51,71.41h1.94v6.93H51v-0.9c-0.6,0.74-1.37,1.12-2.31,1.12s-1.74-0.35-2.39-1.05s-0.98-1.58-0.98-2.62
		s0.33-1.92,0.98-2.63s1.44-1.06,2.36-1.06s1.7,0.38,2.34,1.12V71.41z M49.27,72.93c-0.55,0-1.01,0.19-1.38,0.56
		c-0.38,0.38-0.57,0.84-0.57,1.38s0.19,1,0.57,1.38c0.38,0.38,0.84,0.57,1.37,0.57s0.99-0.19,1.38-0.57
		c0.38-0.38,0.57-0.83,0.57-1.37s-0.19-0.99-0.55-1.38C50.27,73.12,49.81,72.93,49.27,72.93z"/>
	<path fill="#5A5A5A" d="M56.73,71.41v3.92c0,1.05,0.47,1.59,1.41,1.59s1.41-0.53,1.41-1.59v-3.92h1.94v4.24
		c0,1.88-1.19,2.91-3.34,2.91s-3.36-1.04-3.36-2.91v-4.24H56.73z"/>
	<path fill="#5A5A5A" d="M73.55,69.47h-3.82v2.38h3.68v1.8h-3.68v2.88h3.82v1.8h-5.9V67.66h5.9V69.47z"/>
	<path fill="#5A5A5A" d="M77.64,74.58l-2.67-3.17h2.45l1.45,1.8l1.45-1.8h2.46l-2.72,3.17l3.25,3.76h-2.48l-1.98-2.41l-2,2.41h-2.5
		L77.64,74.58z"/>
	<path fill="#5A5A5A" d="M86.18,82.03h-1.94V71.41h1.94v0.9c0.6-0.74,1.37-1.12,2.3-1.12s1.73,0.35,2.39,1.05s0.98,1.58,0.98,2.62
		s-0.33,1.92-0.98,2.63s-1.44,1.06-2.35,1.06s-1.7-0.38-2.35-1.12V82.03z M87.91,72.93c-0.54,0-0.99,0.19-1.38,0.56
		s-0.57,0.84-0.57,1.38s0.19,1,0.57,1.38c0.38,0.38,0.84,0.57,1.37,0.57s0.99-0.19,1.38-0.57c0.38-0.38,0.58-0.83,0.58-1.37
		s-0.19-0.99-0.57-1.38S88.45,72.93,87.91,72.93z"/>
	<path fill="#5A5A5A" d="M95.28,78.34h-1.94v-6.93h1.94v1.05c0.48-0.85,1.15-1.28,2.02-1.27c0.27,0,0.55,0.05,0.84,0.17l-0.27,1.8
		c-0.29-0.16-0.59-0.24-0.92-0.23c-1.11,0-1.66,0.7-1.66,2.08V78.34z"/>
	<path fill="#5A5A5A" d="M105.87,75.19h-5.2c0.05,1.24,0.62,1.86,1.7,1.85c0.67,0,1.22-0.31,1.65-0.93l1.79,0.29
		c-0.6,1.44-1.73,2.16-3.39,2.16c-1.13,0-2.03-0.34-2.71-1.01s-1.02-1.56-1.02-2.68s0.33-2.01,0.99-2.68s1.54-1.01,2.64-1.01
		s1.97,0.34,2.6,1s0.95,1.58,0.95,2.74V75.19z M100.73,73.95h3.28c-0.21-0.91-0.77-1.38-1.65-1.38
		C101.52,72.58,100.9,73.08,100.73,73.95z"/>
	<path fill="#5A5A5A" d="M111.02,73.02c-0.41-0.3-0.75-0.46-1.04-0.46s-0.5,0.05-0.65,0.16c-0.15,0.12-0.22,0.26-0.22,0.42
		s0.07,0.3,0.22,0.4s0.49,0.24,1.03,0.43s0.95,0.38,1.2,0.57c0.51,0.35,0.77,0.88,0.77,1.57s-0.27,1.28-0.81,1.74
		c-0.55,0.47-1.25,0.7-2.1,0.7c-1.05,0-1.92-0.38-2.62-1.16l1.02-1.18c0.54,0.54,1.09,0.81,1.64,0.81c0.49,0,0.88-0.34,0.88-0.76
		c0-0.21-0.06-0.37-0.2-0.48c-0.13-0.1-0.48-0.26-1.04-0.46s-0.95-0.38-1.16-0.55c-0.46-0.32-0.69-0.8-0.69-1.45s0.23-1.17,0.7-1.59
		c0.46-0.41,1.09-0.62,1.87-0.62s1.5,0.25,2.16,0.74L111.02,73.02z"/>
	<path fill="#5A5A5A" d="M117.45,73.02c-0.41-0.3-0.75-0.46-1.04-0.46s-0.5,0.05-0.65,0.16c-0.15,0.12-0.22,0.26-0.22,0.42
		s0.07,0.3,0.22,0.4s0.49,0.24,1.03,0.43s0.95,0.38,1.2,0.57c0.51,0.35,0.77,0.88,0.77,1.57s-0.27,1.28-0.81,1.74
		c-0.55,0.47-1.25,0.7-2.1,0.7c-1.05,0-1.92-0.38-2.62-1.16l1.02-1.18c0.54,0.54,1.09,0.81,1.64,0.81c0.49,0,0.88-0.34,0.88-0.76
		c0-0.21-0.06-0.37-0.2-0.48c-0.13-0.1-0.48-0.26-1.04-0.46s-0.95-0.38-1.16-0.55c-0.46-0.32-0.69-0.8-0.69-1.45s0.23-1.17,0.7-1.59
		c0.46-0.41,1.09-0.62,1.87-0.62s1.5,0.25,2.16,0.74L117.45,73.02z"/>
	<path fill="#5A5A5A" d="M123.86,78.34l1.98-10.87h1.42l2.91,6.98l3.02-6.98h1.44l1.78,10.87h-2.1l-0.96-6.58l-2.92,6.72h-0.58
		l-2.84-6.72l-1.07,6.58H123.86z"/>
	<path fill="#5A5A5A" d="M144.83,75.19h-5.2c0.05,1.24,0.62,1.86,1.7,1.85c0.67,0,1.22-0.31,1.65-0.93l1.79,0.29
		c-0.6,1.44-1.73,2.16-3.39,2.16c-1.13,0-2.03-0.34-2.71-1.01s-1.02-1.56-1.02-2.68s0.33-2.01,0.99-2.68s1.54-1.01,2.64-1.01
		s1.97,0.34,2.6,1s0.95,1.58,0.95,2.74V75.19z M139.7,73.95h3.28c-0.21-0.91-0.77-1.38-1.65-1.38
		C140.48,72.58,139.86,73.08,139.7,73.95z M143.48,68.03l-2.4,2.16l-0.93-0.64l1.91-2.42L143.48,68.03z"/>
	<path fill="#5A5A5A" d="M148.36,73.09v5.25h-1.94v-5.25h-0.77v-1.68h0.77v-2.37h1.94v2.37h1.38v1.68H148.36z"/>
	<path fill="#5A5A5A" d="M152.78,78.34h-1.94v-6.93h1.94v1.05c0.48-0.85,1.15-1.28,2.02-1.27c0.27,0,0.55,0.05,0.84,0.17l-0.27,1.8
		c-0.29-0.16-0.59-0.24-0.92-0.23c-1.11,0-1.66,0.7-1.66,2.08V78.34z"/>
	<path fill="#5A5A5A" d="M160.14,71.19c1.16,0,2.11,0.34,2.84,1.02s1.09,1.57,1.09,2.66s-0.37,1.98-1.1,2.66
		c-0.74,0.68-1.7,1.02-2.88,1.02s-2.12-0.35-2.85-1.05s-1.09-1.58-1.09-2.66s0.38-1.97,1.12-2.65S158.98,71.19,160.14,71.19z
		 M160.12,72.93c-0.54,0-1,0.19-1.38,0.56s-0.58,0.84-0.58,1.38s0.19,1,0.57,1.38c0.38,0.38,0.84,0.57,1.38,0.57
		s1.01-0.19,1.39-0.57c0.38-0.38,0.57-0.83,0.57-1.37s-0.19-0.99-0.57-1.38S160.66,72.93,160.12,72.93z"/>
	<path fill="#5A5A5A" d="M167.5,82.03h-1.94V71.41h1.94v0.9c0.6-0.74,1.37-1.12,2.3-1.12s1.73,0.35,2.39,1.05s0.98,1.58,0.98,2.62
		s-0.33,1.92-0.98,2.63s-1.44,1.06-2.35,1.06s-1.7-0.38-2.35-1.12V82.03z M169.23,72.93c-0.54,0-0.99,0.19-1.38,0.56
		s-0.57,0.84-0.57,1.38s0.19,1,0.57,1.38c0.38,0.38,0.84,0.57,1.37,0.57s0.99-0.19,1.38-0.57c0.38-0.38,0.58-0.83,0.58-1.37
		s-0.19-0.99-0.57-1.38S169.77,72.93,169.23,72.93z"/>
	<path fill="#5A5A5A" d="M178.28,71.19c1.16,0,2.11,0.34,2.84,1.02s1.09,1.57,1.09,2.66s-0.37,1.98-1.1,2.66
		c-0.74,0.68-1.7,1.02-2.88,1.02s-2.12-0.35-2.85-1.05s-1.09-1.58-1.09-2.66s0.38-1.97,1.12-2.65S177.12,71.19,178.28,71.19z
		 M178.26,72.93c-0.54,0-1,0.19-1.38,0.56s-0.58,0.84-0.58,1.38s0.19,1,0.57,1.38c0.38,0.38,0.84,0.57,1.38,0.57
		s1.01-0.19,1.39-0.57c0.38-0.38,0.57-0.83,0.57-1.37s-0.19-0.99-0.57-1.38S178.8,72.93,178.26,72.93z"/>
	<path fill="#5A5A5A" d="M185.64,66.35v11.98h-1.94V66.35H185.64z"/>
	<path fill="#5A5A5A" d="M188.45,67.31c0.32,0,0.59,0.11,0.82,0.34s0.34,0.5,0.34,0.82s-0.12,0.6-0.34,0.83
		c-0.23,0.23-0.51,0.35-0.83,0.35s-0.59-0.12-0.82-0.34s-0.34-0.51-0.34-0.83s0.12-0.6,0.35-0.83
		C187.84,67.42,188.12,67.31,188.45,67.31z M189.39,71.41v6.93h-1.93v-6.93H189.39z"/>
	<path fill="#5A5A5A" d="M193.17,73.09v5.25h-1.94v-5.25h-0.77v-1.68h0.77v-2.37h1.94v2.37h1.38v1.68H193.17z"/>
	<path fill="#5A5A5A" d="M200.88,71.41h1.94v6.93h-1.94v-0.9c-0.6,0.74-1.37,1.12-2.31,1.12s-1.74-0.35-2.39-1.05
		s-0.98-1.58-0.98-2.62s0.33-1.92,0.98-2.63s1.44-1.06,2.36-1.06s1.7,0.38,2.34,1.12V71.41z M199.15,72.93
		c-0.55,0-1.01,0.19-1.38,0.56c-0.38,0.38-0.57,0.84-0.57,1.38s0.19,1,0.57,1.38c0.38,0.38,0.84,0.57,1.37,0.57s0.99-0.19,1.38-0.57
		c0.38-0.38,0.57-0.83,0.57-1.37s-0.19-0.99-0.55-1.38C200.15,73.12,199.69,72.93,199.15,72.93z"/>
	<path fill="#5A5A5A" d="M205.62,67.31c0.32,0,0.59,0.11,0.82,0.34s0.34,0.5,0.34,0.82s-0.12,0.6-0.34,0.83
		c-0.23,0.23-0.51,0.35-0.83,0.35s-0.59-0.12-0.82-0.34s-0.34-0.51-0.34-0.83s0.12-0.6,0.35-0.83
		C205.02,67.42,205.3,67.31,205.62,67.31z M206.56,71.41v6.93h-1.93v-6.93H206.56z"/>
	<path fill="#5A5A5A" d="M208.39,71.41h1.94v0.87c0.59-0.79,1.23-1.09,2.17-1.09c0.85,0,1.52,0.27,2.02,0.83
		c0.37,0.41,0.55,1.05,0.55,1.92v4.4h-1.94v-3.84c0-0.53-0.06-0.91-0.2-1.12c-0.2-0.37-0.58-0.55-1.13-0.55
		c-0.98,0-1.47,0.64-1.47,1.92v3.59h-1.94V71.41z"/>
	<path fill="#5A5A5A" d="M225.34,70.7c0.61,0,1.13,0.22,1.56,0.66s0.65,0.96,0.65,1.57s-0.22,1.12-0.65,1.55s-0.95,0.65-1.56,0.65
		s-1.13-0.22-1.57-0.65s-0.66-0.95-0.66-1.56s0.22-1.14,0.66-1.57S224.73,70.7,225.34,70.7z"/>
	<path fill="#5A5A5A" d="M235.31,78.34l1.98-10.87h1.42l2.91,6.98l3.02-6.98h1.44l1.78,10.87h-2.1l-0.96-6.58l-2.92,6.72h-0.58
		l-2.84-6.72l-1.07,6.58H235.31z"/>
	<path fill="#5A5A5A" d="M253.09,71.19c1.16,0,2.11,0.34,2.84,1.02s1.09,1.57,1.09,2.66s-0.37,1.98-1.1,2.66
		c-0.74,0.68-1.7,1.02-2.88,1.02s-2.12-0.35-2.85-1.05s-1.09-1.58-1.09-2.66s0.38-1.97,1.12-2.65S251.92,71.19,253.09,71.19z
		 M253.06,72.93c-0.54,0-1,0.19-1.38,0.56s-0.58,0.84-0.58,1.38s0.19,1,0.57,1.38c0.38,0.38,0.84,0.57,1.38,0.57
		s1.01-0.19,1.39-0.57c0.38-0.38,0.57-0.83,0.57-1.37s-0.19-0.99-0.57-1.38S253.6,72.93,253.06,72.93z"/>
	<path fill="#5A5A5A" d="M258.51,71.41h1.94v0.87c0.59-0.79,1.23-1.09,2.17-1.09c0.85,0,1.52,0.27,2.02,0.83
		c0.37,0.41,0.55,1.05,0.55,1.92v4.4h-1.94v-3.84c0-0.53-0.06-0.91-0.2-1.12c-0.2-0.37-0.58-0.55-1.13-0.55
		c-0.98,0-1.47,0.64-1.47,1.92v3.59h-1.94V71.41z"/>
	<path fill="#5A5A5A" d="M268.98,73.09v5.25h-1.94v-5.25h-0.77v-1.68h0.77v-2.37h1.94v2.37h1.38v1.68H268.98z"/>
	<path fill="#5A5A5A" d="M273.41,78.34h-1.94v-6.93h1.94v1.05c0.48-0.85,1.15-1.28,2.02-1.27c0.27,0,0.55,0.05,0.84,0.17l-0.27,1.8
		c-0.29-0.16-0.59-0.24-0.92-0.23c-1.11,0-1.66,0.7-1.66,2.08V78.34z"/>
	<path fill="#5A5A5A" d="M283.99,75.19h-5.2c0.05,1.24,0.62,1.86,1.7,1.85c0.67,0,1.22-0.31,1.65-0.93l1.79,0.29
		c-0.6,1.44-1.73,2.16-3.39,2.16c-1.13,0-2.03-0.34-2.71-1.01s-1.02-1.56-1.02-2.68s0.33-2.01,0.99-2.68s1.54-1.01,2.64-1.01
		s1.97,0.34,2.6,1s0.95,1.58,0.95,2.74V75.19z M278.86,73.95h3.28c-0.21-0.91-0.77-1.38-1.65-1.38
		C279.64,72.58,279.02,73.08,278.86,73.95z"/>
	<path fill="#5A5A5A" d="M290.77,71.41h1.94v6.93h-1.94v-0.9c-0.6,0.74-1.37,1.12-2.31,1.12s-1.74-0.35-2.39-1.05
		s-0.98-1.58-0.98-2.62s0.33-1.92,0.98-2.63s1.44-1.06,2.36-1.06s1.7,0.38,2.34,1.12V71.41z M289.05,72.93
		c-0.55,0-1.01,0.19-1.38,0.56c-0.38,0.38-0.57,0.84-0.57,1.38s0.19,1,0.57,1.38c0.38,0.38,0.84,0.57,1.37,0.57s0.99-0.19,1.38-0.57
		c0.38-0.38,0.57-0.83,0.57-1.37s-0.19-0.99-0.55-1.38C290.05,73.12,289.59,72.93,289.05,72.93z"/>
	<path fill="#5A5A5A" d="M296.5,66.35v11.98h-1.94V66.35H296.5z"/>
	<path fill="#5A5A5A" d="M306.78,70.7c0.61,0,1.13,0.22,1.56,0.66s0.65,0.96,0.65,1.57s-0.22,1.12-0.65,1.55s-0.95,0.65-1.56,0.65
		s-1.13-0.22-1.57-0.65s-0.66-0.95-0.66-1.56s0.22-1.14,0.66-1.57S306.17,70.7,306.78,70.7z"/>
	<path fill="#5A5A5A" d="M320.67,78.34h-2.09v-8.87h-2.38v-1.8h6.87v1.8h-2.4V78.34z"/>
	<path fill="#5A5A5A" d="M324.41,78.34V67.66h2.64c1.2,0,2.07,0.21,2.6,0.64c0.64,0.5,0.96,1.23,0.96,2.17
		c0,0.59-0.13,1.09-0.4,1.52c-0.15,0.2-0.41,0.41-0.77,0.64c0.64,0.14,1.1,0.37,1.39,0.67c0.51,0.51,0.77,1.2,0.77,2.06
		s-0.31,1.58-0.93,2.13s-1.51,0.83-2.67,0.83H324.41z M326.49,72.11h0.59c1.08,0,1.62-0.46,1.62-1.38s-0.53-1.38-1.59-1.38h-0.62
		V72.11z M326.49,76.66h0.9c1.38,0,2.08-0.49,2.08-1.47c0-0.54-0.21-0.94-0.62-1.19c-0.3-0.2-0.83-0.3-1.57-0.3h-0.78V76.66z"/>
	<path fill="#5A5A5A" d="M333.53,78.34V67.66h3.05c1.55,0,2.83,0.41,3.82,1.23c0.6,0.49,1.07,1.09,1.41,1.81s0.5,1.48,0.5,2.27
		s-0.17,1.55-0.51,2.28c-0.34,0.73-0.82,1.34-1.43,1.84c-0.97,0.82-2.23,1.23-3.8,1.23H333.53z M335.61,76.53h0.56
		c1.27,0,2.22-0.28,2.84-0.85c0.73-0.63,1.16-1.66,1.16-2.69c0-1.09-0.38-1.98-1.16-2.66c-0.64-0.58-1.59-0.87-2.84-0.87h-0.56
		V76.53z"/>
</g>
</svg>
