<?xml version="1.0" encoding="iso-8859-1"?>
<!-- Generator: Adobe Illustrator 29.8.4, SVG Export Plug-In . SVG Version: 9.03 Build 0)  -->
<svg version="1.1" id="Layer_1" xmlns="http://www.w3.org/2000/svg" xmlns:xlink="http://www.w3.org/1999/xlink" x="0px" y="0px"
	 viewBox="0 0 1500 286" enable-background="new 0 0 1500 286" xml:space="preserve">
<rect id="bg-white" fill="#FFFFFF" width="1500" height="286"/>
<line fill="none" stroke="#8A999A" stroke-width="10" stroke-linecap="round" stroke-miterlimit="10" x1="90" y1="251" x2="1410" y2="251"/>
<circle fill="#FFFFFF" stroke="#000000" stroke-width="3" stroke-miterlimit="10" cx="90" cy="251" r="10"/>
<g>
	<path d="M90.34,231.33l1.31-4.9l-4.48-1.2l0.61-2.27l11.6,3.11l-0.61,2.27l-5.14-1.38l-1.31,4.9l5.14,1.38l-0.61,2.26l-11.6-3.11
		l0.61-2.26L90.34,231.33z"/>
	<path d="M93.03,219.62l4.26,1.14c1.15,0.31,1.86-0.05,2.13-1.08s-0.17-1.69-1.31-2l-4.26-1.14l0.56-2.11l4.61,1.24
		c2.04,0.54,2.82,2.14,2.19,4.48s-2.11,3.35-4.14,2.8l-4.61-1.23L93.03,219.62z"/>
	<path d="M100.48,206.49l3.86,1.03l-0.56,2.11l-4-1.07c-0.59-0.16-1.01-0.23-1.27-0.19c-0.25,0.03-0.48,0.13-0.67,0.31
		c-0.19,0.18-0.32,0.39-0.39,0.62c-0.13,0.48,0.02,1.04,0.42,1.44c0.2,0.2,0.64,0.39,1.31,0.56l3.86,1.04l-0.56,2.11l-7.53-2.02
		l0.56-2.11l0.88,0.23c-0.56-0.85-0.72-1.75-0.47-2.7c0.25-0.95,0.91-1.58,1.97-1.87c-0.76-0.84-1-1.76-0.73-2.77
		c0.27-1.01,0.83-1.63,1.67-1.88c0.5-0.15,1.14-0.12,1.93,0.09l4.86,1.3l-0.56,2.11l-4.12-1.1c-0.54-0.15-0.96-0.19-1.25-0.15
		c-0.49,0.08-0.81,0.37-0.95,0.88C98.49,205.44,99.06,206.11,100.48,206.49z"/>
	<path d="M93.71,195.12l6.47,1.73c-0.62-0.92-0.8-1.89-0.53-2.89c0.27-1,0.88-1.75,1.83-2.25s2-0.59,3.14-0.29
		c1.15,0.31,2,0.91,2.58,1.82c0.58,0.91,0.73,1.88,0.45,2.91s-0.91,1.76-1.9,2.19l0.98,0.26l-0.56,2.1l-13.02-3.49L93.71,195.12z
		 M101.36,195.16c-0.16,0.59-0.09,1.13,0.21,1.66s0.74,0.86,1.33,1.02c0.58,0.16,1.14,0.09,1.66-0.22c0.53-0.3,0.86-0.74,1.02-1.32
		s0.08-1.13-0.22-1.66c-0.3-0.53-0.73-0.87-1.32-1.03s-1.13-0.08-1.66,0.22S101.52,194.57,101.36,195.16z"/>
	<path d="M107.38,182.51l-1.51,5.65c1.37,0.3,2.2-0.13,2.51-1.3c0.2-0.73,0.02-1.42-0.53-2.06l0.83-1.86
		c1.39,1.07,1.84,2.5,1.36,4.31c-0.33,1.23-0.96,2.11-1.88,2.65c-0.93,0.54-1.99,0.65-3.21,0.32c-1.21-0.33-2.09-0.94-2.62-1.86
		c-0.54-0.92-0.65-1.97-0.33-3.16c0.32-1.2,0.94-2.04,1.84-2.54s1.99-0.57,3.25-0.23L107.38,182.51z M104.54,187.73l0.96-3.57
		c-1.05-0.04-1.72,0.43-1.97,1.39C103.28,186.48,103.64,187.3,104.54,187.73z"/>
	<path d="M111.79,179.73l-0.56,2.11l-7.53-2.02l0.56-2.11l1.15,0.31c-0.79-0.77-1.06-1.62-0.8-2.56c0.08-0.3,0.22-0.59,0.43-0.87
		l1.88,0.82c-0.26,0.27-0.44,0.58-0.52,0.93c-0.32,1.21,0.27,2.01,1.77,2.41L111.79,179.73z"/>
	<path d="M107.92,160.26c-1.11,0.65-1.8,1.49-2.08,2.53c-0.28,1.04-0.12,2.02,0.45,2.96c0.58,0.95,1.44,1.57,2.57,1.87
		c1.13,0.3,2.17,0.19,3.12-0.35c0.95-0.53,1.57-1.34,1.86-2.44c0.15-0.54,0.18-1.05,0.1-1.53c-0.08-0.48-0.29-1-0.62-1.59l2.66,0.71
		c0.19,1.1,0.17,2.1-0.08,3.02c-0.46,1.71-1.42,3.01-2.9,3.88c-1.48,0.87-3.06,1.08-4.75,0.63c-1.69-0.45-2.96-1.43-3.84-2.95
		c-0.88-1.52-1.08-3.12-0.63-4.81c0.25-0.94,0.74-1.82,1.47-2.64L107.92,160.26z"/>
	<path d="M110.15,154.79c0.34-1.26,0.99-2.19,1.94-2.78c0.95-0.59,2.02-0.73,3.21-0.41s2.05,0.98,2.57,1.97
		c0.52,1,0.62,2.14,0.28,3.42c-0.34,1.28-1,2.21-1.97,2.79c-0.97,0.59-2.03,0.72-3.21,0.4c-1.18-0.32-2.03-0.98-2.55-1.99
		C109.9,157.2,109.81,156.05,110.15,154.79z M112.04,155.32c-0.16,0.59-0.09,1.14,0.21,1.67c0.3,0.53,0.74,0.87,1.33,1.03
		s1.14,0.09,1.66-0.22c0.53-0.3,0.87-0.75,1.02-1.34c0.16-0.59,0.09-1.15-0.21-1.68c-0.3-0.53-0.73-0.86-1.32-1.02
		c-0.59-0.16-1.13-0.09-1.66,0.22S112.19,154.74,112.04,155.32z"/>
	<path d="M107.04,145.38l13.02,3.49l-0.56,2.11l-13.02-3.49L107.04,145.38z"/>
	<path d="M108.14,141.27l13.02,3.49l-0.56,2.11l-13.02-3.49L108.14,141.27z"/>
	<path d="M120.26,134.43l-1.51,5.65c1.37,0.3,2.2-0.13,2.51-1.3c0.2-0.73,0.02-1.42-0.53-2.06l0.83-1.86
		c1.39,1.07,1.84,2.5,1.36,4.31c-0.33,1.23-0.96,2.11-1.88,2.65c-0.93,0.54-1.99,0.65-3.21,0.32c-1.21-0.33-2.09-0.94-2.62-1.86
		c-0.54-0.92-0.65-1.96-0.33-3.16c0.32-1.2,0.94-2.04,1.84-2.54c0.91-0.49,1.99-0.57,3.25-0.23L120.26,134.43z M117.43,139.64
		l0.96-3.57c-1.05-0.04-1.72,0.43-1.97,1.39C116.16,138.39,116.53,139.21,117.43,139.64z"/>
	<path d="M118.68,123.89l7.25,1.94c0.77,0.21,1.36,0.43,1.75,0.66c0.39,0.24,0.73,0.57,1.01,0.99c0.69,0.98,0.83,2.19,0.44,3.64
		s-1.24,2.42-2.54,2.89c-0.55,0.2-1.11,0.26-1.66,0.18l0.62-2.3c0.96,0.03,1.57-0.43,1.83-1.4c0.15-0.57,0.09-1.09-0.17-1.56
		c-0.25-0.4-0.73-0.7-1.44-0.9l-1.13-0.3c0.34,0.52,0.56,1,0.65,1.43c0.09,0.44,0.06,0.93-0.08,1.46c-0.28,1.03-0.87,1.79-1.79,2.27
		s-1.95,0.57-3.12,0.26c-1.16-0.31-2.04-0.92-2.62-1.82c-0.59-0.9-0.75-1.87-0.47-2.88c0.27-1.02,0.91-1.75,1.89-2.2l-0.98-0.26
		L118.68,123.89z M119.28,128.28c-0.16,0.59-0.08,1.13,0.21,1.66s0.74,0.86,1.33,1.02s1.14,0.09,1.66-0.22
		c0.53-0.3,0.86-0.74,1.02-1.32c0.16-0.58,0.09-1.13-0.22-1.66c-0.3-0.52-0.73-0.86-1.32-1.02s-1.13-0.09-1.66,0.21
		C119.77,127.26,119.44,127.7,119.28,128.28z"/>
	<path d="M125.34,115.5l-1.51,5.65c1.37,0.3,2.2-0.13,2.51-1.3c0.2-0.73,0.02-1.42-0.53-2.06l0.83-1.86
		c1.39,1.07,1.84,2.5,1.36,4.31c-0.33,1.23-0.96,2.11-1.88,2.65s-1.99,0.65-3.21,0.32s-2.09-0.94-2.62-1.86
		c-0.54-0.92-0.65-1.97-0.33-3.16c0.32-1.2,0.94-2.04,1.84-2.54c0.91-0.49,1.99-0.57,3.25-0.23L125.34,115.5z M122.5,120.72
		l0.96-3.57c-1.05-0.04-1.72,0.43-1.97,1.39C121.23,119.47,121.6,120.29,122.5,120.72z"/>
</g>
<circle fill="#FFFFFF" stroke="#000000" stroke-width="3" stroke-miterlimit="10" cx="167.65" cy="251" r="10"/>
<g>
	<path d="M163.19,231.33l8.59-0.49l-7.24-4.98l0.33-1.23l8.72-0.55l-7.15-4.9l0.64-2.39l10.66,7.53l-0.43,1.59l-8.27,0.54l6.86,4.74
		l-0.43,1.59l-12.92,0.93L163.19,231.33z"/>
	<path d="M177.33,211.24l-1.51,5.64c1.37,0.3,2.2-0.13,2.51-1.3c0.2-0.73,0.02-1.42-0.53-2.06l0.83-1.86
		c1.39,1.07,1.84,2.5,1.36,4.31c-0.33,1.23-0.96,2.11-1.88,2.65c-0.93,0.54-1.99,0.65-3.21,0.32s-2.09-0.94-2.62-1.86
		c-0.54-0.92-0.65-1.96-0.33-3.16c0.32-1.2,0.94-2.04,1.84-2.54c0.91-0.49,1.99-0.57,3.26-0.23L177.33,211.24z M174.49,216.46
		l0.96-3.57c-1.05-0.04-1.72,0.43-1.97,1.39C173.23,215.21,173.59,216.03,174.49,216.46z"/>
	<path d="M176.48,205.01c-0.45,0.35-0.72,0.68-0.8,1c-0.08,0.31-0.09,0.56-0.01,0.75c0.08,0.2,0.22,0.31,0.39,0.36
		s0.34,0.01,0.5-0.12c0.15-0.13,0.41-0.46,0.77-1c0.36-0.53,0.68-0.92,0.97-1.14c0.53-0.45,1.17-0.58,1.93-0.38
		c0.76,0.2,1.31,0.67,1.66,1.39c0.35,0.73,0.4,1.56,0.15,2.49c-0.3,1.14-0.98,1.98-2.02,2.52l-0.99-1.45
		c0.74-0.43,1.2-0.94,1.36-1.55c0.14-0.53-0.12-1.06-0.57-1.18c-0.23-0.06-0.42-0.04-0.58,0.07c-0.15,0.12-0.42,0.44-0.8,1
		c-0.38,0.55-0.69,0.92-0.93,1.11c-0.48,0.41-1.07,0.52-1.77,0.33c-0.71-0.19-1.21-0.6-1.52-1.23c-0.32-0.62-0.35-1.36-0.13-2.21
		c0.23-0.85,0.71-1.56,1.44-2.14L176.48,205.01z"/>
	<path d="M177.94,199.82l5.71,1.53l-0.56,2.11l-5.71-1.53l-0.22,0.83l-1.83-0.49l0.22-0.83l-2.57-0.69l0.56-2.11l2.57,0.69l0.4-1.49
		l1.83,0.49L177.94,199.82z"/>
	<path d="M182.36,190.7l3.86,1.04l-0.56,2.11l-4-1.07c-0.59-0.16-1.01-0.23-1.27-0.19c-0.25,0.03-0.48,0.13-0.67,0.31
		c-0.19,0.18-0.32,0.39-0.38,0.62c-0.13,0.47,0.02,1.04,0.42,1.44c0.2,0.2,0.64,0.39,1.31,0.56l3.86,1.03l-0.56,2.11l-7.53-2.02
		l0.56-2.11l0.88,0.23c-0.56-0.85-0.72-1.75-0.47-2.7s0.91-1.58,1.97-1.87c-0.76-0.84-1-1.76-0.73-2.77
		c0.27-1.01,0.83-1.63,1.67-1.88c0.5-0.15,1.14-0.12,1.93,0.09l4.86,1.3l-0.56,2.11l-4.12-1.1c-0.54-0.14-0.96-0.19-1.25-0.15
		c-0.49,0.08-0.81,0.37-0.95,0.88C180.37,189.64,180.94,190.32,182.36,190.7z"/>
	<path d="M181.33,178.91c0.34-1.27,0.99-2.19,1.94-2.78s2.03-0.73,3.21-0.41c1.19,0.32,2.05,0.98,2.57,1.97
		c0.52,1,0.62,2.14,0.28,3.42c-0.34,1.28-1,2.21-1.97,2.79c-0.97,0.59-2.03,0.72-3.21,0.4c-1.18-0.32-2.03-0.98-2.55-1.99
		S181,180.17,181.33,178.91z M183.22,179.44c-0.16,0.59-0.09,1.14,0.21,1.67c0.3,0.53,0.74,0.87,1.33,1.03
		c0.58,0.16,1.14,0.09,1.66-0.22c0.53-0.3,0.87-0.75,1.02-1.34c0.16-0.59,0.09-1.15-0.21-1.68c-0.3-0.52-0.73-0.86-1.32-1.02
		s-1.13-0.08-1.66,0.22C183.72,178.41,183.38,178.86,183.22,179.44z"/>
	<path d="M191.25,172.99l-0.56,2.11l-7.53-2.02l0.56-2.11l1.15,0.31c-0.79-0.77-1.06-1.62-0.8-2.56c0.08-0.3,0.22-0.59,0.43-0.87
		l1.88,0.82c-0.26,0.27-0.44,0.57-0.52,0.93c-0.32,1.21,0.27,2.01,1.77,2.41L191.25,172.99z"/>
	<path d="M190.91,160.57l-1.51,5.65c1.37,0.3,2.2-0.13,2.51-1.3c0.2-0.73,0.02-1.42-0.53-2.06l0.83-1.86
		c1.39,1.07,1.84,2.5,1.36,4.31c-0.33,1.23-0.96,2.11-1.88,2.65c-0.93,0.54-1.99,0.65-3.21,0.32s-2.09-0.94-2.62-1.86
		c-0.54-0.92-0.65-1.97-0.33-3.16c0.32-1.2,0.94-2.04,1.84-2.54c0.91-0.49,1.99-0.57,3.25-0.23L190.91,160.57z M188.07,165.79
		l0.96-3.57c-1.05-0.04-1.72,0.43-1.97,1.39C186.8,164.54,187.17,165.36,188.07,165.79z"/>
</g>
<circle fill="#FFFFFF" stroke="#000000" stroke-width="3" stroke-miterlimit="10" cx="245.29" cy="251" r="10"/>
<g>
	<path d="M251.98,236.12l-11.23-5.32l0.41-1.55l8.43-1.13l-6.7-5.32l0.42-1.56l12.33,1.23l-0.61,2.28l-7.43-0.87l6.45,5.13
		l-0.17,0.63l-8.13,1.12l6.84,3.08L251.98,236.12z"/>
	<path d="M250.12,212.95l0.56-2.11l7.53,2.02l-0.56,2.11l-0.98-0.26c0.63,0.87,0.82,1.81,0.54,2.84c-0.28,1.03-0.89,1.79-1.84,2.29
		c-0.95,0.5-2,0.6-3.13,0.3c-1.13-0.3-1.99-0.92-2.58-1.83c-0.58-0.91-0.74-1.87-0.47-2.87c0.27-1,0.9-1.74,1.9-2.22L250.12,212.95z
		 M251.27,215.27c-0.16,0.59-0.09,1.15,0.21,1.67c0.3,0.53,0.74,0.86,1.33,1.02c0.58,0.16,1.14,0.09,1.66-0.22
		c0.53-0.3,0.86-0.74,1.02-1.32c0.16-0.58,0.08-1.13-0.22-1.66c-0.3-0.53-0.73-0.86-1.32-1.02s-1.13-0.08-1.66,0.2
		C251.76,214.24,251.43,214.68,251.27,215.27z"/>
	<path d="M259.31,208.74l-0.56,2.11l-7.53-2.02l0.56-2.11l1.15,0.31c-0.79-0.77-1.06-1.62-0.8-2.56c0.08-0.3,0.22-0.59,0.43-0.87
		l1.88,0.82c-0.26,0.27-0.44,0.58-0.52,0.93c-0.32,1.21,0.27,2.01,1.77,2.41L259.31,208.74z"/>
	<path d="M255.42,200.46l5.71,1.53l-0.56,2.11l-5.71-1.53l-0.22,0.83l-1.83-0.49l0.22-0.83l-2.57-0.69l0.56-2.11l2.57,0.69l0.4-1.49
		l1.83,0.49L255.42,200.46z"/>
	<path d="M250.15,195.04c0.09-0.35,0.29-0.61,0.6-0.79c0.31-0.18,0.64-0.22,0.99-0.13c0.35,0.09,0.62,0.3,0.8,0.62
		c0.19,0.31,0.23,0.65,0.14,1c-0.09,0.35-0.3,0.61-0.61,0.79c-0.31,0.18-0.65,0.23-1,0.13c-0.35-0.09-0.62-0.3-0.8-0.62
		C250.09,195.73,250.05,195.39,250.15,195.04z M254.87,195.21l7.53,2.02l-0.56,2.1l-7.53-2.02L254.87,195.21z"/>
	<path d="M255.4,193.22l0.56-2.11l0.94,0.25c-0.68-0.88-0.82-1.66-0.55-2.68c0.25-0.93,0.74-1.58,1.49-1.95
		c0.56-0.28,1.31-0.29,2.25-0.03l4.78,1.28l-0.56,2.11l-4.18-1.12c-0.58-0.15-1-0.2-1.27-0.11c-0.46,0.11-0.76,0.47-0.92,1.07
		c-0.28,1.06,0.27,1.78,1.66,2.16l3.9,1.04l-0.56,2.11L255.4,193.22z"/>
	<path d="M262.03,173.79l1.42-5.3c1.53,0.42,2.62,0.93,3.28,1.53c1.69,1.47,2.3,3.55,1.68,5.85c-0.47,1.76-1.43,3.07-2.87,3.91
		c-1.44,0.84-3.03,1.03-4.79,0.56c-1.76-0.47-3.05-1.44-3.9-2.91c-0.84-1.47-1.03-3.1-0.55-4.88c0.59-2.2,1.94-3.62,4.07-4.24
		l0.53,2.27c-1.33,0.39-2.18,1.24-2.53,2.54c-0.29,1.1-0.16,2.11,0.42,3.03c0.57,0.93,1.43,1.55,2.59,1.86
		c1.15,0.31,2.2,0.21,3.14-0.31c0.94-0.52,1.55-1.32,1.85-2.42c0.22-0.82,0.18-1.57-0.11-2.26c-0.3-0.68-0.81-1.16-1.53-1.44
		l-0.73,2.73L262.03,173.79z"/>
	<path d="M270.69,166.28l-0.56,2.11l-7.53-2.02l0.56-2.11l1.15,0.31c-0.79-0.77-1.06-1.62-0.8-2.56c0.08-0.3,0.22-0.59,0.43-0.87
		l1.88,0.82c-0.26,0.27-0.44,0.58-0.52,0.93c-0.32,1.21,0.27,2.01,1.77,2.41L270.69,166.28z"/>
	<path d="M265.07,156.2c0.34-1.26,0.99-2.19,1.94-2.78s2.02-0.73,3.21-0.41c1.19,0.32,2.05,0.98,2.57,1.97
		c0.52,1,0.62,2.14,0.27,3.42s-1,2.21-1.97,2.79c-0.97,0.59-2.03,0.72-3.21,0.4c-1.18-0.32-2.03-0.98-2.55-1.99
		C264.81,158.61,264.73,157.46,265.07,156.2z M266.95,156.73c-0.16,0.59-0.09,1.14,0.21,1.67s0.74,0.87,1.33,1.03
		c0.58,0.16,1.14,0.09,1.66-0.22c0.53-0.3,0.87-0.75,1.02-1.34c0.16-0.59,0.09-1.15-0.21-1.68c-0.3-0.52-0.73-0.86-1.32-1.02
		c-0.59-0.16-1.13-0.08-1.66,0.22S267.11,156.15,266.95,156.73z"/>
	<path d="M267.15,149.38l4.79-0.84l-3.74-3.1l0.63-2.37l6.64,5.94l-0.25,0.95l-8.71,1.79L267.15,149.38z"/>
	<path d="M275.11,136.11l-1.51,5.65c1.37,0.3,2.2-0.13,2.51-1.3c0.2-0.73,0.02-1.42-0.53-2.06l0.83-1.86
		c1.39,1.07,1.84,2.5,1.36,4.31c-0.33,1.23-0.96,2.11-1.88,2.65c-0.93,0.54-1.99,0.65-3.21,0.32s-2.09-0.94-2.62-1.86
		c-0.54-0.92-0.65-1.97-0.33-3.16c0.32-1.2,0.94-2.04,1.84-2.54c0.91-0.49,1.99-0.57,3.26-0.23L275.11,136.11z M272.27,141.32
		l0.96-3.57c-1.05-0.04-1.72,0.43-1.97,1.39C271.01,140.08,271.37,140.89,272.27,141.32z"/>
</g>
<circle fill="#FFFFFF" stroke="#000000" stroke-width="3" stroke-miterlimit="10" cx="322.94" cy="251" r="10"/>
<g>
	<path d="M329.18,227.97l-1.27,4.75l2.17,1.7l-0.64,2.4l-10.5-8.2l0.46-1.71l13.15-1.69l-0.65,2.42L329.18,227.97z M327.16,228.19
		l-4.6,0.5l3.72,2.8L327.16,228.19z"/>
	<path d="M320.36,218.58l13.02,3.49l-0.56,2.11l-13.02-3.49L320.36,218.58z"/>
	<path d="M321.47,214.46l6.47,1.73c-0.62-0.92-0.8-1.89-0.53-2.89c0.27-1,0.88-1.75,1.83-2.25c0.95-0.5,2-0.59,3.14-0.29
		c1.15,0.31,2,0.91,2.58,1.82s0.72,1.88,0.45,2.9c-0.28,1.03-0.91,1.76-1.9,2.19l0.98,0.26l-0.56,2.11l-13.02-3.49L321.47,214.46z
		 M329.12,214.5c-0.16,0.59-0.08,1.13,0.21,1.66s0.74,0.86,1.33,1.02c0.59,0.16,1.14,0.09,1.66-0.22c0.53-0.3,0.86-0.74,1.02-1.32
		c0.15-0.58,0.08-1.13-0.22-1.66c-0.3-0.52-0.73-0.87-1.32-1.03c-0.59-0.16-1.13-0.09-1.66,0.22S329.28,213.91,329.12,214.5z"/>
	<path d="M324.88,205.92c0.09-0.35,0.29-0.61,0.6-0.79c0.31-0.18,0.64-0.22,0.99-0.13c0.35,0.09,0.62,0.3,0.8,0.61
		c0.19,0.31,0.23,0.65,0.14,1c-0.09,0.35-0.3,0.61-0.61,0.79c-0.31,0.18-0.65,0.23-1,0.13c-0.35-0.09-0.62-0.3-0.8-0.62
		C324.82,206.61,324.78,206.27,324.88,205.92z M329.6,206.09l7.53,2.02l-0.56,2.1l-7.53-2.02L329.6,206.09z"/>
	<path d="M330.95,200.11c0.34-1.26,0.99-2.19,1.94-2.78c0.95-0.59,2.02-0.73,3.21-0.41s2.05,0.98,2.57,1.97
		c0.52,1,0.62,2.14,0.27,3.42c-0.34,1.28-1,2.21-1.97,2.79c-0.97,0.59-2.03,0.72-3.21,0.4s-2.03-0.98-2.55-1.99
		C330.69,202.52,330.61,201.37,330.95,200.11z M332.83,200.64c-0.16,0.59-0.09,1.14,0.21,1.67c0.3,0.53,0.74,0.87,1.33,1.03
		s1.14,0.09,1.66-0.22c0.53-0.3,0.87-0.75,1.02-1.34s0.09-1.15-0.21-1.68c-0.3-0.53-0.73-0.86-1.32-1.02
		c-0.59-0.16-1.13-0.09-1.66,0.22S332.99,200.06,332.83,200.64z"/>
	<path d="M332.76,194.28l0.56-2.11l0.94,0.25c-0.68-0.88-0.82-1.66-0.55-2.68c0.25-0.93,0.74-1.58,1.49-1.95
		c0.56-0.28,1.31-0.29,2.25-0.03l4.78,1.28l-0.56,2.11l-4.18-1.12c-0.58-0.15-1-0.2-1.27-0.11c-0.46,0.11-0.76,0.47-0.92,1.07
		c-0.28,1.06,0.27,1.78,1.66,2.16l3.9,1.04l-0.56,2.11L332.76,194.28z"/>
</g>
<circle fill="#FFFFFF" stroke="#000000" stroke-width="3" stroke-miterlimit="10" cx="400.59" cy="251" r="10"/>
<g>
	<path d="M399.37,231.02c0.33,0.09,0.63,0.04,0.9-0.15c0.27-0.19,0.69-0.69,1.28-1.5s1.11-1.38,1.57-1.7
		c0.76-0.53,1.68-0.65,2.78-0.36c1.1,0.29,1.9,0.91,2.4,1.84c0.51,0.93,0.6,2,0.28,3.21c-0.44,1.64-1.53,2.76-3.27,3.39l-1.02-1.84
		c1.17-0.27,1.91-0.94,2.2-2.01c0.14-0.52,0.1-0.99-0.11-1.41c-0.22-0.41-0.56-0.69-1.05-0.82c-0.48-0.13-0.92-0.03-1.33,0.31
		c-0.2,0.16-0.6,0.68-1.21,1.54c-0.6,0.87-1.21,1.45-1.79,1.76c-0.58,0.31-1.26,0.35-2.02,0.15c-0.98-0.26-1.69-0.82-2.14-1.67
		c-0.45-0.86-0.55-1.8-0.27-2.85c0.35-1.29,1.08-2.31,2.21-3.07l1.23,1.6c-0.78,0.38-1.26,0.93-1.44,1.63
		c-0.13,0.47-0.1,0.88,0.06,1.26S399.04,230.93,399.37,231.02z"/>
	<path d="M404.75,222.7l5.71,1.53l-0.56,2.11l-5.71-1.53l-0.22,0.83l-1.83-0.49l0.22-0.83l-2.57-0.69l0.56-2.11l2.57,0.69l0.4-1.49
		l1.83,0.49L404.75,222.7z"/>
	<path d="M409.72,213.29l-1.51,5.64c1.37,0.3,2.2-0.13,2.51-1.3c0.2-0.73,0.02-1.42-0.53-2.06l0.83-1.86
		c1.39,1.07,1.84,2.5,1.36,4.31c-0.33,1.23-0.96,2.11-1.88,2.65s-1.99,0.65-3.21,0.32c-1.21-0.33-2.09-0.94-2.62-1.86
		c-0.54-0.92-0.65-1.96-0.33-3.16c0.32-1.2,0.94-2.04,1.84-2.54c0.91-0.5,1.99-0.57,3.25-0.23L409.72,213.29z M406.88,218.51
		l0.96-3.57c-1.05-0.04-1.72,0.43-1.97,1.39C405.62,217.26,405.98,218.08,406.88,218.51z"/>
	<path d="M406.31,209.57l4.79-0.84l-3.74-3.1l0.63-2.37l6.64,5.94l-0.25,0.95l-8.71,1.79L406.31,209.57z"/>
	<path d="M414.27,196.3l-1.51,5.64c1.37,0.3,2.2-0.13,2.51-1.3c0.2-0.73,0.02-1.42-0.53-2.06l0.83-1.86
		c1.39,1.07,1.84,2.5,1.36,4.31c-0.33,1.23-0.96,2.11-1.88,2.65c-0.93,0.54-1.99,0.65-3.21,0.32c-1.21-0.33-2.09-0.94-2.62-1.86
		c-0.54-0.92-0.65-1.96-0.33-3.16c0.32-1.2,0.94-2.04,1.84-2.54c0.91-0.49,1.99-0.57,3.25-0.23L414.27,196.3z M411.44,201.52
		l0.96-3.57c-1.05-0.04-1.72,0.43-1.97,1.39C410.17,200.27,410.54,201.08,411.44,201.52z"/>
	<path d="M410.59,193.6l0.56-2.11l0.94,0.25c-0.68-0.88-0.82-1.66-0.55-2.68c0.25-0.93,0.74-1.58,1.49-1.95
		c0.56-0.28,1.31-0.29,2.25-0.04l4.78,1.28l-0.56,2.11l-4.18-1.12c-0.58-0.16-1-0.2-1.27-0.11c-0.46,0.11-0.76,0.47-0.92,1.07
		c-0.28,1.06,0.27,1.78,1.66,2.16l3.9,1.04l-0.56,2.11L410.59,193.6z"/>
	<path d="M415.94,180.69c-0.45,0.35-0.72,0.68-0.8,1s-0.09,0.56-0.01,0.75c0.08,0.2,0.22,0.31,0.39,0.36
		c0.18,0.05,0.34,0.01,0.5-0.12s0.41-0.46,0.77-1s0.68-0.92,0.97-1.14c0.53-0.45,1.17-0.58,1.93-0.38s1.31,0.67,1.66,1.39
		c0.35,0.73,0.4,1.56,0.15,2.49c-0.3,1.14-0.98,1.98-2.02,2.52l-0.99-1.45c0.74-0.43,1.2-0.94,1.36-1.55
		c0.14-0.54-0.12-1.06-0.57-1.18c-0.23-0.06-0.42-0.04-0.57,0.07c-0.15,0.12-0.42,0.44-0.8,1c-0.38,0.55-0.69,0.92-0.93,1.11
		c-0.48,0.41-1.07,0.51-1.77,0.33c-0.71-0.19-1.21-0.6-1.52-1.23c-0.32-0.62-0.35-1.36-0.13-2.21s0.71-1.56,1.44-2.14L415.94,180.69
		z"/>
	<path d="M415.78,173.31c0.34-1.26,0.99-2.19,1.94-2.78s2.03-0.73,3.21-0.41s2.05,0.98,2.57,1.97c0.52,1,0.62,2.14,0.27,3.42
		c-0.34,1.28-1,2.21-1.97,2.79c-0.97,0.59-2.03,0.72-3.21,0.4c-1.18-0.32-2.03-0.98-2.55-1.99
		C415.52,175.71,415.44,174.57,415.78,173.31z M417.66,173.84c-0.16,0.59-0.09,1.14,0.21,1.67s0.74,0.87,1.33,1.03
		c0.59,0.16,1.14,0.09,1.66-0.22c0.53-0.3,0.87-0.75,1.02-1.34s0.09-1.15-0.21-1.68c-0.3-0.52-0.73-0.86-1.32-1.02
		c-0.59-0.16-1.13-0.08-1.66,0.22C418.16,172.81,417.82,173.25,417.66,173.84z"/>
	<path d="M417.59,167.48l0.56-2.11l0.94,0.25c-0.69-0.88-0.82-1.66-0.55-2.68c0.25-0.92,0.74-1.58,1.49-1.95
		c0.56-0.28,1.31-0.29,2.25-0.03l4.78,1.28l-0.56,2.11l-4.18-1.12c-0.58-0.15-1-0.2-1.27-0.11c-0.46,0.11-0.76,0.47-0.92,1.07
		c-0.28,1.06,0.27,1.78,1.66,2.16l3.9,1.04l-0.56,2.11L417.59,167.48z"/>
</g>
<circle fill="#FFFFFF" stroke="#000000" stroke-width="3" stroke-miterlimit="10" cx="478.24" cy="251" r="10"/>
<g>
	<path d="M484.92,236.12l-11.23-5.32l0.41-1.55l8.43-1.13l-6.7-5.32l0.42-1.56l12.33,1.23l-0.61,2.28l-7.43-0.87l6.45,5.13
		l-0.17,0.63l-8.13,1.12l6.84,3.08L484.92,236.12z"/>
	<path d="M482.33,214.73c0.34-1.26,0.99-2.19,1.94-2.78s2.03-0.73,3.21-0.41s2.05,0.98,2.57,1.97c0.52,1,0.62,2.14,0.27,3.42
		s-1,2.21-1.97,2.79c-0.97,0.59-2.03,0.72-3.21,0.4s-2.03-0.98-2.55-1.99S481.99,215.99,482.33,214.73z M484.21,215.26
		c-0.16,0.59-0.09,1.14,0.21,1.67s0.74,0.87,1.33,1.03c0.58,0.16,1.14,0.09,1.66-0.22c0.53-0.3,0.87-0.75,1.02-1.34
		s0.09-1.15-0.21-1.68c-0.3-0.52-0.73-0.86-1.32-1.02c-0.59-0.16-1.13-0.08-1.66,0.22C484.71,214.23,484.37,214.67,484.21,215.26z"
		/>
	<path d="M484.71,206.79l4.26,1.14c1.15,0.31,1.86-0.05,2.13-1.08s-0.17-1.69-1.31-2l-4.26-1.14l0.56-2.11l4.61,1.24
		c2.04,0.55,2.82,2.14,2.19,4.48c-0.63,2.34-2.11,3.35-4.14,2.8l-4.61-1.24L484.71,206.79z"/>
	<path d="M486.63,199.6l0.56-2.11l0.94,0.25c-0.68-0.87-0.82-1.66-0.55-2.68c0.25-0.92,0.74-1.58,1.49-1.95
		c0.56-0.28,1.31-0.29,2.25-0.03l4.78,1.28l-0.56,2.11l-4.18-1.12c-0.58-0.16-1-0.2-1.27-0.11c-0.46,0.11-0.76,0.47-0.92,1.07
		c-0.28,1.06,0.27,1.78,1.66,2.16l3.9,1.04l-0.56,2.11L486.63,199.6z"/>
	<path d="M491.51,188.71l5.71,1.53l-0.56,2.11l-5.71-1.53l-0.22,0.83l-1.83-0.49l0.22-0.83l-2.57-0.69l0.56-2.11l2.57,0.69l0.4-1.49
		l1.83,0.49L491.51,188.71z"/>
	<path d="M488.8,174.18c0.46-1.72,1.44-3.02,2.93-3.9c1.49-0.88,3.09-1.09,4.8-0.63c1.71,0.46,2.98,1.44,3.82,2.96
		c0.84,1.52,1.02,3.15,0.55,4.9c-0.47,1.75-1.45,3.05-2.94,3.92c-1.5,0.86-3.09,1.06-4.79,0.61c-1.7-0.46-2.97-1.45-3.81-2.98
		S488.34,175.9,488.8,174.18z M490.87,174.76c-0.28,1.06-0.14,2.08,0.43,3.04c0.57,0.97,1.41,1.61,2.51,1.9s2.15,0.17,3.13-0.38
		s1.62-1.35,1.9-2.42c0.29-1.07,0.14-2.09-0.44-3.06c-0.58-0.96-1.42-1.59-2.52-1.89c-1.1-0.3-2.15-0.17-3.12,0.37
		C491.79,172.89,491.15,173.7,490.87,174.76z"/>
	<path d="M490.33,163.84l13.02,3.49l-0.56,2.11l-13.02-3.49L490.33,163.84z"/>
	<path d="M492.19,161.07c0.09-0.35,0.29-0.61,0.6-0.79c0.31-0.18,0.64-0.22,0.99-0.13c0.35,0.09,0.62,0.3,0.8,0.62
		c0.19,0.31,0.23,0.65,0.14,1c-0.09,0.35-0.3,0.61-0.61,0.79c-0.31,0.18-0.65,0.23-1,0.13c-0.35-0.09-0.62-0.3-0.8-0.62
		C492.13,161.76,492.09,161.42,492.19,161.07z M496.91,161.24l7.53,2.02l-0.56,2.1l-7.53-2.02L496.91,161.24z"/>
	<path d="M497.83,157.81l4.79-0.84l-3.74-3.1l0.63-2.37l6.64,5.94l-0.25,0.95l-8.71,1.79L497.83,157.81z"/>
	<path d="M505.79,144.54l-1.51,5.65c1.37,0.3,2.2-0.13,2.51-1.3c0.2-0.73,0.02-1.42-0.53-2.06l0.83-1.86
		c1.39,1.07,1.84,2.5,1.36,4.31c-0.33,1.23-0.96,2.11-1.88,2.65c-0.93,0.54-1.99,0.65-3.21,0.32c-1.21-0.33-2.09-0.94-2.62-1.86
		s-0.65-1.97-0.33-3.16c0.32-1.2,0.94-2.04,1.84-2.54c0.91-0.49,1.99-0.57,3.26-0.23L505.79,144.54z M502.96,149.75l0.96-3.56
		c-1.05-0.04-1.72,0.43-1.97,1.39C501.69,148.51,502.05,149.32,502.96,149.75z"/>
</g>
<circle fill="#FFFFFF" stroke="#000000" stroke-width="3" stroke-miterlimit="10" cx="555.88" cy="251" r="10"/>
<g>
	<path d="M558.68,231.99l4.66,1.25l-0.61,2.26l-11.6-3.11l0.9-3.35c0.35-1.32,0.89-2.23,1.61-2.74c0.84-0.59,1.82-0.74,2.91-0.45
		c1.1,0.29,1.86,0.87,2.28,1.73c0.27,0.53,0.37,1.13,0.31,1.79l5.86-2.34l-0.75,2.78l-5.5,1.88L558.68,231.99z M557.08,231.56
		l0.18-0.66c0.38-1.43-0.05-2.38-1.18-2.68c-1.16-0.31-1.93,0.25-2.32,1.71l-0.19,0.7L557.08,231.56z"/>
	<path d="M558.54,220.08c0.34-1.27,0.99-2.19,1.94-2.78c0.95-0.59,2.03-0.73,3.21-0.41s2.05,0.98,2.57,1.97
		c0.52,1,0.62,2.14,0.27,3.42c-0.34,1.28-1,2.21-1.97,2.79c-0.97,0.59-2.03,0.72-3.21,0.4c-1.18-0.32-2.03-0.98-2.55-1.99
		C558.28,222.49,558.2,221.35,558.54,220.08z M560.42,220.62c-0.16,0.59-0.09,1.14,0.21,1.67s0.74,0.87,1.33,1.03
		c0.59,0.16,1.14,0.09,1.66-0.22c0.53-0.3,0.87-0.75,1.02-1.34c0.16-0.59,0.09-1.15-0.21-1.68c-0.3-0.53-0.73-0.86-1.32-1.02
		s-1.13-0.09-1.66,0.22C560.92,219.58,560.58,220.03,560.42,220.62z"/>
	<path d="M560.62,213.26l4.88-0.81l-4-3.27l0.24-0.9l5.17-0.82l-3.88-3.19l0.63-2.35l6.64,5.96l-0.25,0.95l-5.11,0.81l4.03,3.23
		l-0.26,0.97l-8.72,1.8L560.62,213.26z"/>
	<path d="M563.94,200.87l0.56-2.11l0.94,0.25c-0.68-0.88-0.82-1.66-0.55-2.68c0.25-0.93,0.74-1.58,1.49-1.95
		c0.56-0.28,1.31-0.29,2.25-0.03l4.78,1.28l-0.56,2.11l-4.18-1.12c-0.58-0.15-1-0.2-1.27-0.11c-0.46,0.11-0.76,0.47-0.92,1.07
		c-0.29,1.06,0.27,1.78,1.66,2.16l3.9,1.04l-0.56,2.11L563.94,200.87z"/>
	<path d="M568.82,189.97l5.71,1.53l-0.56,2.11l-5.71-1.53l-0.22,0.83l-1.83-0.49l0.22-0.83l-2.57-0.69l0.56-2.11l2.57,0.69l0.4-1.49
		l1.83,0.49L568.82,189.97z"/>
	<path d="M575.81,186.7l-0.56,2.11l-7.53-2.02l0.56-2.11l1.15,0.31c-0.79-0.77-1.06-1.62-0.8-2.56c0.08-0.3,0.22-0.59,0.43-0.87
		l1.88,0.82c-0.26,0.27-0.44,0.57-0.52,0.93c-0.32,1.21,0.27,2.01,1.77,2.41L575.81,186.7z"/>
	<path d="M575.47,174.28l-1.51,5.65c1.37,0.3,2.2-0.13,2.51-1.3c0.2-0.73,0.02-1.42-0.53-2.06l0.83-1.86
		c1.39,1.07,1.84,2.5,1.36,4.31c-0.33,1.23-0.96,2.11-1.88,2.65c-0.93,0.54-1.99,0.65-3.21,0.32s-2.09-0.94-2.62-1.86
		s-0.65-1.97-0.33-3.16c0.32-1.2,0.94-2.04,1.84-2.54c0.91-0.49,1.99-0.57,3.26-0.23L575.47,174.28z M572.63,179.49l0.96-3.57
		c-1.05-0.04-1.72,0.43-1.97,1.39C571.37,178.24,571.73,179.06,572.63,179.49z"/>
	<path d="M577.88,165.28l-1.51,5.65c1.37,0.3,2.2-0.13,2.51-1.3c0.2-0.73,0.02-1.42-0.53-2.06l0.83-1.86
		c1.39,1.07,1.84,2.5,1.36,4.31c-0.33,1.23-0.96,2.11-1.88,2.65c-0.93,0.54-1.99,0.65-3.21,0.32s-2.09-0.94-2.62-1.86
		c-0.54-0.92-0.65-1.97-0.33-3.16c0.32-1.2,0.94-2.04,1.84-2.54c0.91-0.49,1.99-0.57,3.26-0.23L577.88,165.28z M575.04,170.49
		l0.96-3.57c-1.05-0.04-1.72,0.43-1.97,1.39C573.78,169.25,574.14,170.06,575.04,170.49z"/>
	<path d="M582.82,160.55l-11.23-5.32l0.41-1.54l8.43-1.13l-6.7-5.32l0.42-1.56l12.33,1.23l-0.61,2.28l-7.43-0.87l6.45,5.13
		l-0.17,0.63l-8.13,1.12l6.84,3.08L582.82,160.55z"/>
	<path d="M575.24,140.92c0.09-0.35,0.29-0.61,0.6-0.79c0.31-0.18,0.64-0.22,0.99-0.13c0.35,0.09,0.62,0.3,0.8,0.62
		c0.19,0.31,0.23,0.65,0.14,1c-0.09,0.35-0.3,0.61-0.61,0.79c-0.31,0.18-0.65,0.23-1,0.13c-0.35-0.09-0.62-0.3-0.8-0.62
		C575.18,141.6,575.14,141.27,575.24,140.92z M579.96,141.08l7.53,2.02l-0.56,2.1l-7.53-2.02L579.96,141.08z"/>
	<path d="M575.56,135.52l13.02,3.49l-0.56,2.11L575,137.62L575.56,135.52z"/>
	<path d="M576.67,131.4l13.02,3.49l-0.56,2.11l-13.02-3.49L576.67,131.4z"/>
	<path d="M585.56,127.22c-0.45,0.35-0.72,0.68-0.8,0.99c-0.08,0.31-0.09,0.56-0.01,0.75c0.08,0.2,0.22,0.31,0.39,0.36
		c0.18,0.05,0.34,0.01,0.5-0.12s0.41-0.46,0.77-1c0.36-0.53,0.68-0.92,0.97-1.14c0.53-0.45,1.17-0.58,1.93-0.37
		c0.76,0.2,1.31,0.67,1.66,1.39c0.35,0.73,0.4,1.56,0.15,2.49c-0.31,1.14-0.98,1.98-2.02,2.52l-0.99-1.45
		c0.74-0.43,1.2-0.94,1.36-1.55c0.14-0.54-0.12-1.06-0.57-1.18c-0.23-0.06-0.42-0.04-0.58,0.07c-0.15,0.11-0.42,0.44-0.8,0.99
		c-0.38,0.55-0.69,0.92-0.93,1.11c-0.48,0.41-1.07,0.52-1.77,0.33c-0.71-0.19-1.21-0.6-1.52-1.23c-0.32-0.62-0.36-1.36-0.13-2.21
		c0.23-0.85,0.71-1.56,1.44-2.14L585.56,127.22z"/>
</g>
<circle fill="#FFFFFF" stroke="#000000" stroke-width="3" stroke-miterlimit="10" cx="633.53" cy="251" r="10"/>
<g>
	<path d="M636.69,232.08l4.3,1.15l-0.61,2.26l-11.6-3.11l0.91-3.39c0.2-0.76,0.43-1.34,0.68-1.76c0.26-0.42,0.6-0.78,1.02-1.06
		c0.92-0.6,1.94-0.75,3.03-0.45c1.1,0.29,1.9,0.85,2.42,1.68c0.52,0.82,0.59,1.9,0.24,3.23L636.69,232.08z M634.73,231.56l0.25-0.92
		c0.38-1.42,0.01-2.27-1.1-2.57c-1.18-0.32-1.88,0.22-2.31,1.8l-0.21,0.78L634.73,231.56z"/>
	<path d="M641.26,218.52l-1.51,5.65c1.37,0.3,2.2-0.13,2.51-1.3c0.2-0.73,0.01-1.42-0.53-2.06l0.84-1.86
		c1.39,1.07,1.84,2.5,1.36,4.31c-0.33,1.23-0.96,2.11-1.88,2.65c-0.93,0.54-1.99,0.65-3.21,0.32c-1.21-0.33-2.09-0.94-2.62-1.86
		c-0.54-0.92-0.65-1.97-0.33-3.16c0.32-1.2,0.94-2.04,1.84-2.54c0.91-0.49,1.99-0.57,3.25-0.23L641.26,218.52z M638.42,223.74
		l0.96-3.57c-1.05-0.04-1.72,0.43-1.97,1.39C637.16,222.49,637.52,223.31,638.42,223.74z"/>
	<path d="M639.13,210.05l0.56-2.11l7.53,2.02l-0.56,2.11l-0.98-0.26c0.63,0.87,0.82,1.81,0.54,2.84s-0.89,1.79-1.84,2.29
		s-2,0.6-3.13,0.3s-1.99-0.92-2.58-1.83c-0.58-0.91-0.74-1.87-0.47-2.87s0.9-1.74,1.9-2.22L639.13,210.05z M640.28,212.37
		c-0.16,0.59-0.09,1.15,0.21,1.67c0.3,0.53,0.74,0.86,1.33,1.02c0.59,0.16,1.14,0.09,1.66-0.22c0.53-0.3,0.86-0.74,1.02-1.32
		c0.15-0.58,0.08-1.13-0.22-1.66c-0.3-0.53-0.73-0.86-1.32-1.02c-0.59-0.16-1.13-0.09-1.66,0.2
		C640.77,211.34,640.44,211.79,640.28,212.37z"/>
	<path d="M648.32,205.85l-0.56,2.11l-7.53-2.02l0.56-2.11l1.15,0.31c-0.79-0.77-1.06-1.62-0.8-2.56c0.08-0.3,0.22-0.59,0.43-0.87
		l1.88,0.82c-0.26,0.27-0.44,0.57-0.52,0.93c-0.32,1.21,0.27,2.01,1.77,2.41L648.32,205.85z"/>
	<path d="M637,196.04l13.02,3.49l-0.56,2.11l-13.02-3.49L637,196.04z"/>
	<path d="M639.08,188.25l0.56-2.11l13.02,3.49l-0.56,2.11l-0.98-0.26c0.63,0.87,0.82,1.81,0.54,2.84s-0.89,1.79-1.84,2.29
		c-0.95,0.5-2,0.6-3.13,0.3c-1.13-0.3-1.99-0.92-2.58-1.83c-0.58-0.91-0.74-1.87-0.47-2.87c0.27-1,0.9-1.74,1.9-2.22L639.08,188.25z
		 M645.73,192.04c-0.16,0.59-0.09,1.15,0.21,1.67c0.3,0.53,0.74,0.86,1.33,1.02s1.14,0.09,1.66-0.22c0.53-0.3,0.86-0.74,1.02-1.32
		c0.16-0.58,0.09-1.13-0.22-1.66c-0.3-0.52-0.73-0.86-1.32-1.02s-1.13-0.08-1.66,0.2C646.22,191.01,645.88,191.46,645.73,192.04z"/>
	<path d="M647.24,179.76l0.56-2.11l7.53,2.02l-0.56,2.11l-0.98-0.26c0.63,0.87,0.82,1.81,0.54,2.84s-0.89,1.79-1.84,2.29
		s-2,0.6-3.13,0.3c-1.13-0.3-1.99-0.92-2.58-1.83c-0.58-0.91-0.74-1.87-0.47-2.87s0.9-1.74,1.9-2.22L647.24,179.76z M648.4,182.08
		c-0.16,0.59-0.09,1.15,0.21,1.67c0.3,0.53,0.74,0.86,1.33,1.02s1.14,0.09,1.66-0.22c0.53-0.3,0.86-0.74,1.02-1.32
		c0.15-0.58,0.08-1.13-0.22-1.66c-0.3-0.53-0.73-0.86-1.32-1.02s-1.13-0.09-1.66,0.2C648.89,181.05,648.55,181.5,648.4,182.08z"/>
	<path d="M643.42,172.07l13.02,3.49l-0.56,2.11l-13.02-3.49L643.42,172.07z"/>
	<path d="M655.54,165.23l-1.51,5.65c1.37,0.3,2.2-0.13,2.51-1.3c0.2-0.73,0.02-1.42-0.53-2.06l0.83-1.86
		c1.39,1.07,1.84,2.5,1.36,4.31c-0.33,1.23-0.96,2.11-1.88,2.65c-0.93,0.54-1.99,0.65-3.21,0.32s-2.09-0.94-2.62-1.86
		s-0.65-1.97-0.33-3.16c0.32-1.2,0.94-2.04,1.84-2.54c0.91-0.49,1.99-0.57,3.26-0.23L655.54,165.23z M652.71,170.45l0.96-3.57
		c-1.05-0.04-1.72,0.43-1.97,1.39C651.44,169.2,651.8,170.01,652.71,170.45z"/>
</g>
<circle fill="#FFFFFF" stroke="#000000" stroke-width="3" stroke-miterlimit="10" cx="711.18" cy="251" r="10"/>
<g>
	<path d="M718.03,235.49l-11.6-3.11l0.89-3.32c0.45-1.69,1.27-2.95,2.45-3.79c0.71-0.51,1.5-0.84,2.38-1
		c0.88-0.16,1.75-0.11,2.62,0.12c0.87,0.23,1.64,0.64,2.33,1.22c0.69,0.58,1.21,1.28,1.58,2.09c0.61,1.29,0.69,2.79,0.23,4.49
		L718.03,235.49z M716.67,232.71l0.16-0.61c0.37-1.38,0.34-2.49-0.1-3.34c-0.48-0.97-1.47-1.74-2.58-2.04
		c-1.18-0.32-2.26-0.16-3.22,0.48c-0.81,0.53-1.4,1.47-1.77,2.84l-0.16,0.61L716.67,232.71z"/>
	<path d="M714.09,220.07l4.26,1.14c1.15,0.31,1.86-0.05,2.14-1.08s-0.17-1.69-1.31-2l-4.26-1.14l0.56-2.11l4.61,1.24
		c2.04,0.54,2.82,2.14,2.19,4.48s-2.11,3.35-4.14,2.8l-4.61-1.23L714.09,220.07z"/>
	<path d="M716.02,212.88l0.56-2.11l0.94,0.25c-0.68-0.88-0.82-1.66-0.55-2.68c0.25-0.92,0.74-1.58,1.49-1.95
		c0.56-0.28,1.31-0.29,2.25-0.03l4.78,1.28l-0.56,2.11l-4.18-1.12c-0.58-0.15-1-0.2-1.27-0.11c-0.46,0.11-0.76,0.47-0.92,1.07
		c-0.28,1.06,0.27,1.78,1.66,2.16l3.9,1.04l-0.56,2.11L716.02,212.88z"/>
	<path d="M722.31,198.59c-0.58,0.44-0.95,0.96-1.11,1.56c-0.16,0.6-0.1,1.16,0.19,1.68c0.29,0.52,0.73,0.86,1.34,1.02
		c0.61,0.16,1.17,0.09,1.68-0.21c0.51-0.31,0.85-0.76,1.01-1.38c0.16-0.61,0.11-1.23-0.16-1.88l2.05,0.55
		c0.15,0.7,0.13,1.38-0.04,2.05c-0.31,1.17-0.96,2.04-1.93,2.63c-0.97,0.59-2.02,0.72-3.15,0.42c-1.13-0.3-1.98-0.96-2.55-1.96
		c-0.56-1-0.69-2.09-0.37-3.26c0.18-0.69,0.51-1.28,0.96-1.79L722.31,198.59z"/>
	<path d="M721.99,190.6l0.56-2.11l7.53,2.02l-0.56,2.11l-0.98-0.26c0.63,0.87,0.82,1.81,0.54,2.84c-0.28,1.03-0.89,1.79-1.84,2.29
		c-0.95,0.5-2,0.6-3.13,0.3c-1.13-0.3-1.99-0.92-2.58-1.83c-0.58-0.91-0.74-1.87-0.47-2.87c0.27-1,0.9-1.74,1.9-2.22L721.99,190.6z
		 M723.14,192.92c-0.16,0.59-0.09,1.15,0.21,1.67c0.3,0.53,0.74,0.86,1.33,1.02c0.59,0.16,1.14,0.09,1.66-0.22
		c0.53-0.3,0.86-0.74,1.02-1.32c0.16-0.58,0.09-1.13-0.22-1.66c-0.3-0.52-0.73-0.86-1.32-1.02c-0.59-0.16-1.13-0.08-1.66,0.2
		C723.63,191.88,723.3,192.33,723.14,192.92z"/>
	<path d="M723.09,186.48l0.56-2.11l0.94,0.25c-0.68-0.88-0.82-1.66-0.55-2.68c0.25-0.93,0.74-1.58,1.49-1.95
		c0.56-0.28,1.31-0.29,2.25-0.04l4.78,1.28l-0.56,2.11l-4.18-1.12c-0.58-0.16-1-0.2-1.27-0.11c-0.46,0.11-0.76,0.47-0.92,1.07
		c-0.28,1.06,0.27,1.78,1.66,2.16l3.9,1.04l-0.56,2.11L723.09,186.48z"/>
	<path d="M725.86,176.14l4.88-0.81l-4-3.27l0.24-0.9l5.17-0.82l-3.88-3.19l0.63-2.35l6.64,5.96l-0.25,0.95l-5.11,0.81l4.03,3.23
		l-0.26,0.97l-8.72,1.8L725.86,176.14z"/>
	<path d="M729.89,160.15c0.34-1.27,0.99-2.19,1.94-2.78s2.02-0.73,3.21-0.41s2.05,0.98,2.57,1.97c0.52,1,0.62,2.14,0.28,3.42
		c-0.34,1.28-1,2.21-1.97,2.79c-0.97,0.59-2.03,0.72-3.21,0.4c-1.18-0.32-2.03-0.98-2.55-1.99S729.55,161.41,729.89,160.15z
		 M731.78,160.68c-0.16,0.59-0.09,1.14,0.21,1.67c0.3,0.53,0.74,0.87,1.33,1.03c0.58,0.16,1.14,0.09,1.66-0.22
		c0.53-0.3,0.87-0.75,1.02-1.34c0.16-0.59,0.09-1.15-0.21-1.68c-0.3-0.53-0.73-0.86-1.32-1.02s-1.13-0.09-1.66,0.22
		S731.93,160.1,731.78,160.68z"/>
	<path d="M732.52,150.33c0.34-1.27,0.99-2.19,1.94-2.78c0.95-0.59,2.02-0.73,3.21-0.41c1.19,0.32,2.05,0.98,2.57,1.97
		c0.52,1,0.62,2.14,0.27,3.42c-0.34,1.28-1,2.21-1.97,2.79s-2.03,0.72-3.21,0.41c-1.18-0.32-2.03-0.98-2.55-1.99
		S732.18,151.59,732.52,150.33z M734.41,150.86c-0.16,0.59-0.09,1.14,0.21,1.67c0.3,0.53,0.74,0.87,1.33,1.03
		c0.58,0.16,1.14,0.09,1.66-0.22c0.53-0.3,0.87-0.75,1.02-1.34c0.16-0.58,0.09-1.15-0.21-1.68c-0.3-0.53-0.73-0.86-1.32-1.02
		c-0.59-0.16-1.13-0.09-1.66,0.22S734.57,150.27,734.41,150.86z"/>
	<path d="M730.39,137.25l0.56-2.11l13.02,3.49l-0.56,2.11l-0.98-0.26c0.63,0.87,0.82,1.81,0.54,2.84c-0.27,1.03-0.89,1.79-1.84,2.29
		s-2,0.6-3.13,0.3c-1.13-0.3-1.99-0.92-2.58-1.83c-0.58-0.91-0.74-1.87-0.47-2.87c0.27-1,0.9-1.74,1.9-2.22L730.39,137.25z
		 M737.04,141.04c-0.16,0.59-0.09,1.15,0.21,1.67c0.3,0.53,0.74,0.86,1.33,1.02c0.58,0.16,1.14,0.09,1.66-0.22
		c0.53-0.3,0.86-0.74,1.02-1.32c0.15-0.58,0.08-1.13-0.22-1.66c-0.3-0.52-0.73-0.86-1.32-1.02c-0.59-0.16-1.13-0.08-1.66,0.2
		C737.53,140.01,737.2,140.46,737.04,141.04z"/>
	<path d="M739.85,130.96c-0.45,0.35-0.72,0.68-0.8,0.99c-0.08,0.31-0.09,0.56-0.01,0.75c0.08,0.2,0.22,0.31,0.39,0.36
		c0.18,0.05,0.34,0.01,0.5-0.12s0.41-0.46,0.77-1c0.36-0.53,0.68-0.92,0.97-1.14c0.53-0.45,1.17-0.58,1.93-0.37
		c0.76,0.2,1.31,0.67,1.66,1.39c0.35,0.73,0.4,1.56,0.15,2.49c-0.3,1.14-0.98,1.98-2.02,2.52l-0.99-1.45
		c0.74-0.43,1.2-0.94,1.36-1.55c0.14-0.53-0.12-1.06-0.57-1.18c-0.23-0.06-0.42-0.04-0.58,0.07c-0.15,0.12-0.42,0.44-0.8,1
		c-0.38,0.55-0.69,0.92-0.93,1.11c-0.48,0.41-1.07,0.52-1.77,0.33c-0.71-0.19-1.21-0.6-1.52-1.23c-0.32-0.62-0.35-1.36-0.13-2.21
		c0.23-0.85,0.71-1.56,1.44-2.14L739.85,130.96z"/>
</g>
<circle fill="#FFFFFF" stroke="#000000" stroke-width="3" stroke-miterlimit="10" cx="788.82" cy="251" r="10"/>
<g>
	<path d="M795.51,236.12l-11.23-5.32l0.41-1.55l8.43-1.13l-6.7-5.32l0.42-1.56l12.33,1.23l-0.61,2.28l-7.43-0.87l6.45,5.13
		l-0.17,0.63l-8.13,1.12l6.84,3.08L795.51,236.12z"/>
	<path d="M787.93,216.49c0.09-0.35,0.29-0.61,0.6-0.79c0.31-0.18,0.64-0.22,0.99-0.13c0.35,0.09,0.62,0.3,0.8,0.62
		c0.19,0.31,0.23,0.65,0.14,1c-0.09,0.35-0.3,0.61-0.61,0.79c-0.31,0.18-0.65,0.23-1,0.13c-0.35-0.09-0.62-0.3-0.8-0.62
		C787.87,217.18,787.83,216.84,787.93,216.49z M792.65,216.66l7.53,2.02l-0.56,2.1l-7.53-2.02L792.65,216.66z"/>
	<path d="M788.25,211.09l13.02,3.49l-0.56,2.11l-13.02-3.49L788.25,211.09z"/>
	<path d="M794.67,209.13l4.79-0.84l-3.74-3.1l0.63-2.37l6.64,5.94l-0.25,0.95l-8.71,1.79L794.67,209.13z"/>
	<path d="M798.08,196.4l0.56-2.11l7.53,2.02l-0.56,2.11l-0.98-0.26c0.63,0.87,0.82,1.81,0.54,2.84s-0.89,1.79-1.84,2.29
		c-0.95,0.5-2,0.6-3.13,0.3s-1.99-0.92-2.58-1.83c-0.58-0.91-0.74-1.87-0.47-2.87c0.27-1,0.9-1.74,1.9-2.22L798.08,196.4z
		 M799.23,198.72c-0.16,0.59-0.09,1.15,0.21,1.67c0.3,0.53,0.74,0.86,1.33,1.02c0.58,0.16,1.14,0.09,1.66-0.22
		c0.53-0.3,0.86-0.74,1.02-1.32c0.16-0.58,0.08-1.13-0.22-1.66c-0.3-0.53-0.73-0.86-1.32-1.02s-1.13-0.09-1.66,0.2
		C799.73,197.69,799.39,198.14,799.23,198.72z"/>
	<path d="M799.18,192.28l0.56-2.11l0.94,0.25c-0.68-0.88-0.82-1.66-0.55-2.68c0.25-0.93,0.74-1.58,1.49-1.95
		c0.56-0.28,1.31-0.29,2.25-0.03l4.78,1.28l-0.56,2.11l-4.18-1.12c-0.58-0.15-1-0.2-1.27-0.11c-0.46,0.11-0.76,0.47-0.92,1.07
		c-0.28,1.06,0.27,1.78,1.66,2.16l3.9,1.04l-0.56,2.11L799.18,192.28z"/>
	<path d="M806.39,176.86l4.66,1.25l-0.61,2.26l-11.6-3.11l0.9-3.35c0.35-1.32,0.89-2.23,1.61-2.74c0.84-0.59,1.82-0.74,2.91-0.45
		c1.1,0.3,1.86,0.87,2.28,1.73c0.27,0.53,0.37,1.13,0.31,1.79l5.86-2.34l-0.75,2.78l-5.5,1.88L806.39,176.86z M804.8,176.43
		l0.18-0.66c0.38-1.44-0.05-2.38-1.18-2.68c-1.16-0.31-1.93,0.25-2.32,1.71l-0.19,0.7L804.8,176.43z"/>
	<path d="M806.01,166.81l4.26,1.14c1.15,0.31,1.86-0.05,2.13-1.08c0.28-1.03-0.17-1.69-1.31-2l-4.26-1.14l0.56-2.11l4.61,1.23
		c2.04,0.55,2.82,2.14,2.19,4.48s-2.11,3.35-4.14,2.8l-4.61-1.24L806.01,166.81z"/>
	<path d="M813.46,153.68l3.86,1.04l-0.56,2.11l-4-1.07c-0.59-0.16-1.01-0.23-1.27-0.19c-0.25,0.03-0.48,0.13-0.67,0.31
		c-0.19,0.18-0.32,0.39-0.38,0.62c-0.13,0.48,0.02,1.04,0.42,1.44c0.2,0.2,0.64,0.39,1.31,0.56l3.86,1.03l-0.56,2.11l-7.53-2.02
		l0.56-2.11l0.87,0.23c-0.56-0.85-0.72-1.75-0.47-2.7s0.91-1.58,1.97-1.87c-0.76-0.84-1-1.76-0.73-2.77
		c0.27-1.01,0.83-1.63,1.67-1.88c0.5-0.15,1.14-0.12,1.93,0.09l4.86,1.3l-0.56,2.1l-4.12-1.1c-0.54-0.14-0.96-0.19-1.25-0.15
		c-0.49,0.08-0.81,0.37-0.95,0.88C811.46,152.63,812.04,153.3,813.46,153.68z"/>
	<path d="M807.44,143.66c0.09-0.35,0.29-0.61,0.6-0.79c0.31-0.18,0.64-0.22,0.99-0.13c0.35,0.09,0.62,0.3,0.8,0.62
		c0.19,0.31,0.23,0.65,0.14,1c-0.09,0.35-0.3,0.61-0.61,0.79c-0.31,0.18-0.65,0.23-1,0.13c-0.35-0.09-0.62-0.3-0.8-0.62
		C807.39,144.35,807.35,144.01,807.44,143.66z M812.17,143.83l7.53,2.02l-0.56,2.1l-7.53-2.02L812.17,143.83z"/>
	<path d="M807.77,138.26l8.24,2.21l-2-3.55l0.76-2.85l2.36,4.42l5.25-2.68l-0.78,2.9l-3.99,1.95l0.17,0.28l3,0.81l-0.56,2.11
		l-13.02-3.49L807.77,138.26z"/>
	<path d="M821.1,126.94l-1.51,5.65c1.37,0.3,2.2-0.13,2.51-1.3c0.2-0.73,0.02-1.42-0.53-2.06l0.83-1.86
		c1.39,1.07,1.84,2.5,1.36,4.31c-0.33,1.23-0.96,2.11-1.88,2.65c-0.93,0.54-1.99,0.65-3.21,0.32s-2.09-0.94-2.62-1.86
		c-0.54-0.92-0.65-1.97-0.33-3.16c0.32-1.2,0.94-2.04,1.84-2.54c0.91-0.49,1.99-0.57,3.25-0.23L821.1,126.94z M818.26,132.16
		l0.96-3.57c-1.05-0.04-1.72,0.43-1.97,1.39C816.99,130.91,817.36,131.72,818.26,132.16z"/>
</g>
<circle fill="#FFFFFF" stroke="#000000" stroke-width="3" stroke-miterlimit="10" cx="866.47" cy="251" r="10"/>
<g>
	<path d="M865.4,226.5l-1.11,4.15l2.58,0.69l1.07-4l1.96,0.53l-1.07,4l3.13,0.84l1.11-4.15l1.96,0.53l-1.72,6.41l-11.6-3.11
		l1.72-6.41L865.4,226.5z"/>
	<path d="M873.53,219.27l3.86,1.04l-0.56,2.11l-4-1.07c-0.59-0.16-1.01-0.23-1.27-0.19c-0.25,0.03-0.48,0.13-0.67,0.31
		c-0.19,0.18-0.32,0.39-0.39,0.62c-0.13,0.47,0.02,1.04,0.42,1.44c0.2,0.2,0.64,0.39,1.31,0.56l3.86,1.03l-0.56,2.11l-7.53-2.02
		l0.56-2.11l0.87,0.23c-0.56-0.85-0.72-1.75-0.47-2.7c0.25-0.95,0.91-1.58,1.97-1.87c-0.76-0.84-1-1.76-0.73-2.77
		c0.27-1.01,0.83-1.63,1.67-1.88c0.5-0.15,1.14-0.12,1.93,0.09l4.86,1.3l-0.56,2.11l-4.12-1.1c-0.54-0.14-0.96-0.19-1.25-0.15
		c-0.49,0.08-0.81,0.37-0.95,0.88C871.54,218.22,872.11,218.89,873.53,219.27z"/>
	<path d="M877.78,205.18l-1.51,5.65c1.37,0.3,2.2-0.13,2.51-1.3c0.2-0.73,0.02-1.42-0.53-2.06l0.83-1.86
		c1.39,1.07,1.84,2.5,1.36,4.31c-0.33,1.23-0.96,2.11-1.88,2.65c-0.93,0.54-1.99,0.65-3.21,0.32c-1.21-0.33-2.09-0.94-2.62-1.86
		c-0.54-0.92-0.65-1.97-0.33-3.16c0.32-1.2,0.94-2.04,1.84-2.54c0.91-0.49,1.99-0.57,3.26-0.23L877.78,205.18z M874.94,210.4
		l0.96-3.57c-1.05-0.04-1.72,0.43-1.97,1.39C873.67,209.15,874.04,209.96,874.94,210.4z"/>
	<path d="M882.19,202.39l-0.56,2.11l-7.53-2.02l0.56-2.11l1.15,0.31c-0.79-0.77-1.06-1.62-0.8-2.56c0.08-0.3,0.22-0.59,0.43-0.87
		l1.88,0.82c-0.26,0.27-0.44,0.57-0.52,0.93c-0.32,1.21,0.27,2.01,1.77,2.41L882.19,202.39z"/>
	<path d="M882.99,194.83l-7.34,1.85l0.66-2.45l4.88-1.11l-3.71-3.29l0.65-2.42l9.92,9.18l-0.64,2.39L882.99,194.83z"/>
</g>
<circle fill="#FFFFFF" stroke="#000000" stroke-width="3" stroke-miterlimit="10" cx="944.12" cy="251" r="10"/>
<g>
	<path d="M942.9,231.02c0.33,0.09,0.63,0.04,0.9-0.15c0.27-0.19,0.69-0.69,1.28-1.5s1.11-1.38,1.57-1.7
		c0.76-0.53,1.68-0.65,2.78-0.36c1.1,0.29,1.9,0.91,2.4,1.84c0.51,0.93,0.6,2,0.28,3.21c-0.44,1.64-1.53,2.76-3.27,3.39l-1.02-1.84
		c1.17-0.27,1.91-0.94,2.2-2.01c0.14-0.52,0.1-0.99-0.11-1.41c-0.22-0.41-0.56-0.69-1.05-0.82s-0.92-0.03-1.33,0.31
		c-0.2,0.16-0.6,0.68-1.21,1.54c-0.6,0.87-1.21,1.45-1.79,1.76c-0.58,0.31-1.26,0.35-2.02,0.15c-0.98-0.26-1.69-0.82-2.14-1.68
		c-0.45-0.86-0.55-1.8-0.27-2.85c0.35-1.29,1.08-2.31,2.21-3.07l1.23,1.6c-0.78,0.38-1.26,0.93-1.44,1.63
		c-0.13,0.47-0.1,0.88,0.06,1.26C942.32,230.7,942.57,230.93,942.9,231.02z"/>
	<path d="M941.71,222.14c0.09-0.35,0.29-0.61,0.6-0.79c0.31-0.18,0.64-0.22,0.99-0.13c0.35,0.09,0.62,0.3,0.8,0.62
		c0.19,0.31,0.23,0.65,0.14,1c-0.09,0.35-0.3,0.61-0.61,0.79c-0.31,0.18-0.65,0.23-1,0.13c-0.35-0.09-0.62-0.3-0.8-0.62
		C941.65,222.82,941.61,222.49,941.71,222.14z M946.43,222.3l7.53,2.02l-0.56,2.1l-7.53-2.02L946.43,222.3z"/>
	<path d="M949.07,212.45l7.25,1.94c0.77,0.21,1.36,0.43,1.75,0.66c0.39,0.24,0.73,0.57,1.01,0.99c0.68,0.98,0.83,2.19,0.44,3.64
		c-0.39,1.45-1.24,2.42-2.54,2.9c-0.55,0.2-1.11,0.26-1.66,0.17l0.62-2.3c0.97,0.03,1.57-0.43,1.83-1.4
		c0.15-0.57,0.09-1.09-0.17-1.56c-0.25-0.4-0.73-0.7-1.44-0.9l-1.13-0.3c0.34,0.52,0.56,1,0.65,1.43c0.09,0.44,0.06,0.93-0.08,1.46
		c-0.28,1.03-0.87,1.79-1.79,2.27c-0.92,0.48-1.95,0.57-3.12,0.26s-2.04-0.92-2.62-1.82s-0.75-1.87-0.47-2.88
		c0.27-1.02,0.91-1.75,1.89-2.2l-0.98-0.26L949.07,212.45z M949.67,216.84c-0.16,0.59-0.08,1.13,0.21,1.66s0.74,0.86,1.33,1.02
		c0.59,0.16,1.14,0.09,1.66-0.22c0.53-0.3,0.86-0.74,1.02-1.32c0.15-0.58,0.08-1.13-0.22-1.66c-0.3-0.53-0.73-0.86-1.32-1.02
		c-0.59-0.16-1.13-0.08-1.66,0.21C950.16,215.81,949.83,216.25,949.67,216.84z"/>
	<path d="M949.61,210.43l0.56-2.11l0.94,0.25c-0.68-0.87-0.82-1.66-0.55-2.68c0.25-0.92,0.74-1.58,1.49-1.95
		c0.56-0.28,1.31-0.29,2.25-0.03l4.78,1.28l-0.56,2.11l-4.18-1.12c-0.58-0.16-1-0.2-1.27-0.11c-0.46,0.11-0.76,0.47-0.92,1.07
		c-0.29,1.06,0.27,1.78,1.66,2.16l3.9,1.04l-0.56,2.11L949.61,210.43z"/>
	<path d="M958.19,194.86l-1.51,5.65c1.37,0.3,2.2-0.13,2.51-1.3c0.2-0.73,0.01-1.42-0.53-2.06l0.83-1.86
		c1.39,1.07,1.84,2.5,1.36,4.31c-0.33,1.23-0.96,2.11-1.88,2.65c-0.93,0.54-1.99,0.65-3.21,0.32c-1.21-0.33-2.09-0.94-2.62-1.86
		c-0.54-0.92-0.65-1.97-0.33-3.16c0.32-1.2,0.94-2.04,1.84-2.54c0.91-0.49,1.99-0.57,3.25-0.23L958.19,194.86z M955.35,200.08
		l0.96-3.56c-1.05-0.04-1.72,0.43-1.97,1.39C954.09,198.83,954.45,199.65,955.35,200.08z"/>
	<path d="M956.93,190.41l5.71,1.53l-0.56,2.1l-5.71-1.53l-0.22,0.83l-1.83-0.49l0.22-0.83l-2.57-0.69l0.56-2.1l2.57,0.69l0.4-1.49
		l1.83,0.49L956.93,190.41z"/>
	<path d="M963.96,177.17l-1.27,4.75l2.17,1.7l-0.64,2.4l-10.5-8.2l0.46-1.71l13.15-1.69l-0.65,2.42L963.96,177.17z M961.95,177.4
		l-4.6,0.5l3.72,2.8L961.95,177.4z"/>
	<path d="M968.17,171.28l-0.56,2.11l-7.53-2.02l0.56-2.11l1.15,0.31c-0.79-0.77-1.06-1.62-0.8-2.56c0.08-0.3,0.22-0.59,0.43-0.87
		l1.88,0.82c-0.26,0.27-0.44,0.58-0.52,0.93c-0.32,1.21,0.27,2.01,1.77,2.41L968.17,171.28z"/>
	<path d="M969.87,164.95l-0.56,2.11l-7.53-2.02l0.56-2.11l1.15,0.31c-0.79-0.77-1.06-1.62-0.8-2.56c0.08-0.3,0.22-0.59,0.43-0.87
		l1.88,0.82c-0.26,0.27-0.44,0.58-0.52,0.93c-0.32,1.21,0.27,2.01,1.77,2.41L969.87,164.95z"/>
	<path d="M964.24,154.88c0.34-1.26,0.99-2.19,1.94-2.78c0.95-0.59,2.03-0.73,3.21-0.41s2.05,0.98,2.57,1.97
		c0.52,1,0.62,2.14,0.27,3.42s-1,2.21-1.97,2.79c-0.97,0.59-2.03,0.72-3.21,0.4s-2.03-0.98-2.55-1.99S963.91,156.14,964.24,154.88z
		 M966.13,155.41c-0.16,0.59-0.09,1.14,0.21,1.67s0.74,0.87,1.33,1.03s1.14,0.09,1.66-0.22c0.53-0.3,0.87-0.75,1.02-1.34
		s0.09-1.15-0.21-1.68c-0.3-0.52-0.73-0.86-1.32-1.02c-0.59-0.16-1.13-0.08-1.66,0.22C966.62,154.38,966.29,154.82,966.13,155.41z"
		/>
	<path d="M966.33,148.05l4.88-0.81l-4-3.27l0.24-0.9l5.17-0.82l-3.88-3.2l0.63-2.35l6.64,5.96l-0.25,0.95l-5.11,0.81l4.03,3.23
		l-0.26,0.97l-8.72,1.8L966.33,148.05z"/>
</g>
<circle fill="#FFFFFF" stroke="#000000" stroke-width="3" stroke-miterlimit="10" cx="1021.76" cy="251" r="10"/>
<g>
	<path d="M1028.62,235.49l-11.86-3.18l0.42-1.56l9.97-4.9l-7.81-2.09l0.6-2.26l11.83,3.17l-0.42,1.57l-9.96,4.89l7.84,2.1
		L1028.62,235.49z"/>
	<path d="M1025.46,216.2c0.34-1.26,0.99-2.19,1.94-2.78s2.03-0.73,3.21-0.41c1.19,0.32,2.05,0.98,2.57,1.97
		c0.52,1,0.62,2.14,0.27,3.42c-0.34,1.28-1,2.21-1.97,2.79s-2.03,0.72-3.21,0.4c-1.18-0.32-2.03-0.98-2.55-1.99
		S1025.12,217.47,1025.46,216.2z M1027.34,216.74c-0.16,0.59-0.09,1.14,0.21,1.67c0.3,0.53,0.74,0.87,1.33,1.03
		c0.58,0.16,1.14,0.09,1.66-0.22c0.53-0.3,0.87-0.75,1.02-1.34c0.16-0.59,0.09-1.15-0.21-1.68c-0.3-0.53-0.73-0.86-1.32-1.02
		s-1.13-0.08-1.66,0.22C1027.84,215.7,1027.5,216.15,1027.34,216.74z"/>
	<path d="M1035.37,210.29l-0.56,2.11l-7.53-2.02l0.56-2.11l1.15,0.31c-0.79-0.77-1.06-1.62-0.8-2.56c0.08-0.3,0.22-0.59,0.43-0.87
		l1.88,0.82c-0.26,0.27-0.44,0.58-0.52,0.93c-0.32,1.21,0.27,2.01,1.77,2.41L1035.37,210.29z"/>
	<path d="M1031.48,201.98l5.71,1.53l-0.56,2.1l-5.71-1.53l-0.22,0.82l-1.83-0.49l0.22-0.82l-2.41-0.65c-0.99-0.27-1.7-0.7-2.11-1.31
		c-0.5-0.78-0.63-1.61-0.4-2.49c0.1-0.37,0.29-0.72,0.56-1.04l1.91,0.51c-0.3,0.36-0.48,0.66-0.53,0.89
		c-0.11,0.42-0.01,0.74,0.32,0.96c0.19,0.16,0.57,0.32,1.12,0.46l2.11,0.56l0.52-1.93l1.83,0.49L1031.48,201.98z"/>
	<path d="M1026.32,196.15c0.09-0.35,0.29-0.61,0.6-0.79c0.31-0.18,0.64-0.22,0.99-0.13c0.35,0.09,0.62,0.3,0.8,0.61
		c0.19,0.32,0.23,0.65,0.14,1c-0.09,0.35-0.3,0.61-0.61,0.79c-0.31,0.18-0.65,0.23-1,0.13c-0.35-0.09-0.62-0.3-0.8-0.62
		C1026.26,196.84,1026.23,196.5,1026.32,196.15z M1031.04,196.32l7.53,2.02l-0.56,2.1l-7.53-2.02L1031.04,196.32z"/>
	<path d="M1031.57,194.33l0.56-2.11l0.94,0.25c-0.68-0.88-0.82-1.66-0.55-2.68c0.25-0.92,0.74-1.58,1.49-1.95
		c0.56-0.28,1.31-0.29,2.25-0.03l4.78,1.28l-0.56,2.11l-4.18-1.12c-0.58-0.15-1-0.2-1.27-0.11c-0.46,0.11-0.76,0.47-0.92,1.07
		c-0.28,1.06,0.27,1.78,1.66,2.16l3.9,1.04l-0.56,2.11L1031.57,194.33z"/>
	<path d="M1037.87,180.04c-0.58,0.44-0.95,0.96-1.11,1.56c-0.16,0.6-0.1,1.16,0.19,1.68c0.29,0.52,0.73,0.86,1.35,1.02
		c0.61,0.16,1.17,0.09,1.68-0.21c0.51-0.31,0.85-0.76,1.01-1.38c0.16-0.61,0.11-1.23-0.16-1.88l2.05,0.55
		c0.15,0.7,0.13,1.38-0.04,2.05c-0.31,1.17-0.96,2.04-1.93,2.63c-0.97,0.59-2.02,0.72-3.15,0.42s-1.98-0.96-2.55-1.96
		c-0.56-1-0.69-2.08-0.37-3.26c0.18-0.69,0.51-1.28,0.96-1.79L1037.87,180.04z"/>
	<path d="M1030.55,176.18l0.56-2.1l6.47,1.73c-0.64-0.84-0.84-1.73-0.58-2.68c0.25-0.95,0.76-1.6,1.51-1.95
		c0.58-0.27,1.34-0.28,2.28-0.03l4.73,1.27l-0.56,2.11l-4.12-1.1c-0.6-0.16-1.04-0.21-1.31-0.12c-0.47,0.12-0.78,0.48-0.94,1.07
		c-0.28,1.06,0.28,1.79,1.69,2.16l3.86,1.04l-0.56,2.11L1030.55,176.18z"/>
	<path d="M1036.96,156.91c0.46-1.72,1.44-3.02,2.93-3.9s3.09-1.09,4.8-0.63c1.71,0.46,2.98,1.44,3.82,2.96
		c0.84,1.52,1.02,3.15,0.55,4.9c-0.47,1.75-1.45,3.05-2.94,3.92c-1.5,0.86-3.09,1.06-4.79,0.61c-1.7-0.46-2.97-1.45-3.81-2.98
		C1036.69,160.26,1036.5,158.63,1036.96,156.91z M1039.02,157.49c-0.28,1.06-0.14,2.08,0.43,3.04c0.57,0.97,1.41,1.61,2.51,1.9
		s2.15,0.17,3.13-0.38c0.98-0.55,1.62-1.35,1.9-2.42c0.29-1.07,0.14-2.09-0.44-3.06c-0.58-0.96-1.42-1.59-2.52-1.89
		c-1.1-0.29-2.15-0.17-3.12,0.37C1039.95,155.62,1039.31,156.43,1039.02,157.49z"/>
	<path d="M1044.96,144.38l0.56-2.11l7.53,2.02l-0.56,2.11l-0.98-0.26c0.63,0.87,0.82,1.81,0.54,2.84c-0.28,1.03-0.89,1.79-1.84,2.29
		s-2,0.6-3.13,0.3c-1.13-0.3-1.99-0.92-2.58-1.83c-0.58-0.91-0.74-1.87-0.47-2.87s0.9-1.74,1.9-2.22L1044.96,144.38z M1046.11,146.7
		c-0.16,0.59-0.09,1.15,0.21,1.67c0.3,0.53,0.74,0.86,1.33,1.02s1.14,0.09,1.66-0.22c0.53-0.3,0.86-0.74,1.02-1.32
		c0.15-0.58,0.08-1.13-0.22-1.66c-0.3-0.53-0.73-0.86-1.32-1.02s-1.13-0.08-1.66,0.2C1046.61,145.67,1046.27,146.11,1046.11,146.7z"
		/>
	<path d="M1041.13,136.68l8.24,2.21l-2-3.55l0.76-2.85l2.36,4.42l5.25-2.68l-0.78,2.9l-3.99,1.95l0.17,0.28l3,0.81l-0.56,2.11
		l-13.02-3.49L1041.13,136.68z"/>
	<path d="M1044.42,124.42l0.56-2.11l13.02,3.49l-0.56,2.11l-0.98-0.26c0.63,0.87,0.82,1.81,0.54,2.84
		c-0.27,1.03-0.89,1.79-1.84,2.29s-2,0.6-3.13,0.3c-1.13-0.3-1.99-0.92-2.58-1.83c-0.58-0.91-0.74-1.87-0.47-2.87s0.9-1.74,1.9-2.22
		L1044.42,124.42z M1051.07,128.21c-0.16,0.59-0.09,1.15,0.21,1.67c0.3,0.53,0.74,0.86,1.33,1.02c0.58,0.16,1.14,0.09,1.66-0.22
		c0.53-0.3,0.86-0.74,1.02-1.32c0.15-0.58,0.08-1.13-0.22-1.66c-0.3-0.53-0.73-0.86-1.32-1.02s-1.13-0.09-1.66,0.2
		C1051.56,127.17,1051.22,127.62,1051.07,128.21z"/>
	<path d="M1052.58,115.93l0.56-2.1l7.53,2.02l-0.56,2.1l-0.98-0.26c0.63,0.87,0.82,1.81,0.54,2.84s-0.89,1.79-1.84,2.29
		c-0.95,0.5-2,0.6-3.13,0.3c-1.13-0.3-1.99-0.92-2.58-1.83c-0.58-0.91-0.74-1.87-0.47-2.87c0.27-1,0.9-1.74,1.9-2.22L1052.58,115.93
		z M1053.74,118.25c-0.16,0.59-0.09,1.15,0.21,1.67c0.3,0.53,0.74,0.86,1.33,1.02s1.14,0.09,1.66-0.22c0.53-0.3,0.86-0.74,1.02-1.32
		c0.16-0.58,0.09-1.13-0.22-1.66c-0.3-0.53-0.73-0.86-1.32-1.02s-1.13-0.08-1.66,0.2C1054.23,117.22,1053.89,117.66,1053.74,118.25z
		"/>
	<path d="M1048.76,108.23l13.02,3.49l-0.56,2.11l-13.02-3.49L1048.76,108.23z"/>
	<path d="M1060.88,101.39l-1.51,5.65c1.37,0.3,2.2-0.13,2.51-1.3c0.2-0.73,0.02-1.42-0.53-2.06l0.83-1.86
		c1.39,1.07,1.84,2.5,1.36,4.31c-0.33,1.23-0.96,2.11-1.88,2.65c-0.93,0.54-1.99,0.65-3.21,0.32s-2.09-0.94-2.62-1.86
		c-0.54-0.92-0.65-1.97-0.33-3.16c0.32-1.2,0.94-2.04,1.84-2.54s1.99-0.57,3.25-0.23L1060.88,101.39z M1058.04,106.61l0.96-3.57
		c-1.05-0.04-1.72,0.43-1.97,1.39C1056.78,105.36,1057.14,106.18,1058.04,106.61z"/>
</g>
<circle fill="#FFFFFF" stroke="#000000" stroke-width="3" stroke-miterlimit="10" cx="1099.41" cy="251" r="10"/>
<g>
	<path d="M1095.89,227.82l7.83,2.1c1.52,0.41,2.51,1.04,2.98,1.9c0.38,0.73,0.43,1.57,0.18,2.51c-0.25,0.94-0.85,1.71-1.79,2.29
		l-1.29-1.79c0.52-0.18,0.85-0.51,0.98-0.99c0.13-0.48-0.01-0.87-0.44-1.15c-0.25-0.18-0.78-0.37-1.59-0.6l-7.46-2L1095.89,227.82z"
		/>
	<path d="M1102.13,220.79l0.56-2.11l7.53,2.02l-0.56,2.11l-0.98-0.26c0.63,0.87,0.82,1.81,0.54,2.84s-0.89,1.79-1.84,2.29
		s-2,0.6-3.13,0.3c-1.13-0.3-1.99-0.92-2.58-1.83c-0.58-0.91-0.74-1.87-0.47-2.87s0.9-1.74,1.9-2.22L1102.13,220.79z
		 M1103.28,223.11c-0.16,0.59-0.09,1.15,0.21,1.67c0.3,0.53,0.74,0.86,1.33,1.02c0.58,0.16,1.14,0.09,1.66-0.22
		c0.53-0.3,0.86-0.74,1.02-1.32c0.15-0.58,0.08-1.13-0.22-1.66c-0.3-0.53-0.73-0.86-1.32-1.02s-1.13-0.09-1.66,0.2
		C1103.78,222.08,1103.44,222.53,1103.28,223.11z"/>
	<path d="M1103.23,216.67l0.56-2.11l0.94,0.25c-0.68-0.88-0.82-1.66-0.55-2.68c0.25-0.93,0.74-1.58,1.49-1.95
		c0.56-0.28,1.31-0.29,2.25-0.03l4.78,1.28l-0.56,2.11l-4.18-1.12c-0.58-0.15-1-0.2-1.27-0.11c-0.46,0.11-0.76,0.47-0.92,1.07
		c-0.28,1.06,0.27,1.78,1.66,2.16l3.9,1.04l-0.56,2.11L1103.23,216.67z"/>
	<path d="M1111.81,201.11l-1.51,5.64c1.37,0.3,2.2-0.13,2.51-1.3c0.2-0.73,0.02-1.42-0.53-2.06l0.83-1.86
		c1.39,1.07,1.84,2.5,1.36,4.31c-0.33,1.23-0.96,2.11-1.88,2.65c-0.93,0.54-1.99,0.65-3.21,0.32s-2.09-0.94-2.62-1.86
		c-0.54-0.92-0.65-1.96-0.33-3.16c0.32-1.2,0.94-2.04,1.84-2.54s1.99-0.57,3.26-0.23L1111.81,201.11z M1108.97,206.33l0.96-3.57
		c-1.05-0.04-1.72,0.43-1.97,1.39C1107.71,205.08,1108.07,205.9,1108.97,206.33z"/>
	<path d="M1110.84,188.29l0.56-2.11l7.53,2.02l-0.56,2.11l-0.98-0.26c0.63,0.87,0.82,1.81,0.54,2.84s-0.89,1.79-1.84,2.29
		s-2,0.6-3.13,0.3c-1.13-0.3-1.99-0.92-2.58-1.83c-0.58-0.91-0.74-1.87-0.47-2.87s0.9-1.74,1.9-2.22L1110.84,188.29z
		 M1111.99,190.61c-0.16,0.59-0.09,1.15,0.21,1.67c0.3,0.52,0.74,0.86,1.33,1.02s1.14,0.09,1.66-0.22c0.53-0.3,0.86-0.74,1.02-1.32
		c0.15-0.58,0.08-1.13-0.22-1.66c-0.3-0.53-0.73-0.86-1.32-1.02s-1.13-0.09-1.66,0.2C1112.49,189.58,1112.15,190.03,1111.99,190.61z
		"/>
	<path d="M1111.94,184.18l0.56-2.11l0.94,0.25c-0.69-0.88-0.82-1.66-0.55-2.68c0.25-0.93,0.74-1.58,1.49-1.95
		c0.56-0.28,1.31-0.29,2.25-0.03l4.78,1.28l-0.56,2.11l-4.18-1.12c-0.58-0.15-1-0.2-1.27-0.11c-0.46,0.11-0.76,0.47-0.92,1.07
		c-0.28,1.06,0.27,1.78,1.66,2.16l3.9,1.04l-0.56,2.11L1111.94,184.18z"/>
	<path d="M1110.48,167.67l0.56-2.11l13.02,3.49l-0.56,2.11l-0.98-0.26c0.63,0.87,0.82,1.81,0.54,2.84s-0.89,1.79-1.84,2.29
		s-2,0.6-3.13,0.3c-1.13-0.3-1.99-0.92-2.58-1.83c-0.58-0.91-0.74-1.87-0.47-2.87s0.9-1.74,1.9-2.22L1110.48,167.67z
		 M1117.12,171.46c-0.16,0.59-0.09,1.15,0.21,1.67c0.3,0.53,0.74,0.86,1.33,1.02c0.59,0.16,1.14,0.09,1.66-0.22
		c0.53-0.3,0.86-0.74,1.02-1.32c0.15-0.58,0.08-1.13-0.22-1.66c-0.3-0.53-0.73-0.86-1.32-1.02c-0.59-0.16-1.13-0.09-1.66,0.2
		C1117.62,170.43,1117.28,170.88,1117.12,171.46z"/>
	<path d="M1117.87,153.64l-1.04,3.88l2.58,0.69l0.97-3.63l1.96,0.53l-0.97,3.63l5.09,1.37l-0.61,2.26l-11.6-3.11l1.65-6.14
		L1117.87,153.64z"/>
	<path d="M1116.23,150.37c0.09-0.35,0.29-0.61,0.6-0.79c0.31-0.18,0.64-0.22,0.99-0.13c0.35,0.09,0.62,0.3,0.8,0.61
		c0.19,0.31,0.23,0.65,0.14,1c-0.09,0.35-0.3,0.61-0.61,0.79c-0.31,0.18-0.65,0.23-1,0.13c-0.35-0.09-0.62-0.3-0.8-0.62
		C1116.18,151.05,1116.14,150.72,1116.23,150.37z M1120.96,150.53l7.53,2.02l-0.56,2.1l-7.53-2.02L1120.96,150.53z"/>
	<path d="M1121.49,148.55l0.56-2.11l0.94,0.25c-0.68-0.88-0.82-1.66-0.55-2.68c0.25-0.93,0.74-1.58,1.49-1.95
		c0.56-0.28,1.31-0.29,2.25-0.03l4.78,1.28l-0.56,2.11l-4.18-1.12c-0.58-0.15-1-0.2-1.27-0.11c-0.46,0.11-0.76,0.47-0.92,1.07
		c-0.28,1.06,0.27,1.78,1.66,2.16l3.9,1.04l-0.56,2.11L1121.49,148.55z"/>
	<path d="M1127.79,134.25c-0.58,0.44-0.95,0.96-1.11,1.56c-0.16,0.6-0.1,1.16,0.19,1.68c0.29,0.52,0.73,0.86,1.35,1.03
		c0.61,0.16,1.17,0.09,1.68-0.21c0.51-0.31,0.85-0.76,1.01-1.38c0.16-0.61,0.11-1.23-0.16-1.88l2.05,0.55
		c0.15,0.7,0.13,1.38-0.04,2.05c-0.31,1.17-0.96,2.05-1.93,2.63c-0.97,0.59-2.02,0.72-3.15,0.42s-1.98-0.96-2.55-1.96
		c-0.56-1-0.69-2.09-0.37-3.26c0.18-0.69,0.51-1.28,0.96-1.79L1127.79,134.25z"/>
	<path d="M1120.47,130.39l0.56-2.1l6.47,1.73c-0.64-0.84-0.84-1.73-0.58-2.68c0.25-0.95,0.76-1.6,1.51-1.95
		c0.58-0.27,1.34-0.28,2.28-0.03l4.73,1.27l-0.56,2.11l-4.12-1.1c-0.6-0.16-1.04-0.21-1.31-0.12c-0.47,0.12-0.78,0.48-0.94,1.07
		c-0.28,1.06,0.28,1.79,1.7,2.17l3.86,1.03l-0.56,2.11L1120.47,130.39z"/>
</g>
<circle fill="#FFFFFF" stroke="#000000" stroke-width="3" stroke-miterlimit="10" cx="1177.06" cy="251" r="10"/>
<g>
	<path d="M1183.91,235.49l-11.6-3.11l0.89-3.32c0.45-1.69,1.27-2.95,2.45-3.79c0.71-0.51,1.5-0.84,2.38-1
		c0.88-0.16,1.75-0.11,2.62,0.12c0.87,0.23,1.64,0.64,2.33,1.22c0.69,0.58,1.21,1.28,1.58,2.09c0.61,1.29,0.69,2.79,0.23,4.49
		L1183.91,235.49z M1182.55,232.71l0.16-0.61c0.37-1.38,0.34-2.49-0.1-3.34c-0.48-0.97-1.47-1.74-2.58-2.04
		c-1.18-0.32-2.26-0.16-3.22,0.48c-0.81,0.53-1.4,1.47-1.77,2.84l-0.16,0.61L1182.55,232.71z"/>
	<path d="M1187.5,222.09l-0.56,2.11l-7.53-2.02l0.56-2.11l1.15,0.31c-0.79-0.77-1.06-1.62-0.8-2.56c0.08-0.3,0.22-0.59,0.43-0.87
		l1.88,0.82c-0.26,0.27-0.44,0.57-0.52,0.93c-0.32,1.21,0.27,2.01,1.77,2.41L1187.5,222.09z"/>
	<path d="M1176.94,213.61c0.09-0.35,0.29-0.61,0.6-0.79c0.31-0.18,0.64-0.22,0.99-0.13c0.35,0.09,0.62,0.3,0.8,0.62
		c0.19,0.31,0.23,0.65,0.14,1c-0.09,0.35-0.3,0.61-0.61,0.79c-0.31,0.18-0.65,0.23-1,0.13c-0.35-0.09-0.62-0.3-0.8-0.62
		C1176.88,214.29,1176.84,213.96,1176.94,213.61z M1181.66,213.77l7.53,2.02l-0.56,2.1l-7.53-2.02L1181.66,213.77z"/>
	<path d="M1184.6,210.1l5.71,1.53l-0.56,2.11l-5.71-1.53l-0.22,0.81l-1.83-0.49l0.22-0.82l-2.41-0.65c-0.99-0.27-1.7-0.7-2.11-1.31
		c-0.5-0.78-0.63-1.61-0.4-2.49c0.1-0.37,0.29-0.72,0.56-1.04l1.91,0.51c-0.29,0.36-0.47,0.66-0.53,0.89
		c-0.11,0.42-0.01,0.74,0.32,0.96c0.19,0.16,0.57,0.32,1.12,0.46l2.11,0.56l0.52-1.93l1.83,0.49L1184.6,210.1z"/>
	<path d="M1186.08,204.56l5.71,1.53l-0.56,2.11l-5.71-1.53l-0.22,0.83l-1.83-0.49l0.22-0.83l-2.57-0.69l0.56-2.11l2.57,0.69
		l0.4-1.49l1.83,0.49L1186.08,204.56z"/>
	<path d="M1185.45,199.61l4.88-0.81l-4-3.27l0.24-0.9l5.17-0.82l-3.88-3.2l0.63-2.35l6.64,5.96l-0.25,0.95l-5.11,0.81l4.03,3.23
		l-0.26,0.97l-8.72,1.8L1185.45,199.61z"/>
	<path d="M1189.48,183.62c0.34-1.26,0.99-2.19,1.94-2.78s2.03-0.73,3.21-0.41c1.19,0.32,2.05,0.98,2.57,1.97
		c0.52,1,0.62,2.14,0.27,3.42c-0.34,1.28-1,2.21-1.97,2.79s-2.03,0.72-3.21,0.4s-2.03-0.98-2.55-1.99S1189.14,184.89,1189.48,183.62
		z M1191.37,184.15c-0.16,0.59-0.09,1.14,0.21,1.67c0.3,0.53,0.74,0.87,1.33,1.03c0.58,0.16,1.14,0.09,1.66-0.22
		c0.53-0.3,0.87-0.75,1.02-1.34c0.16-0.59,0.09-1.15-0.21-1.68c-0.3-0.53-0.73-0.86-1.32-1.02s-1.13-0.08-1.66,0.22
		C1191.86,183.12,1191.53,183.57,1191.37,184.15z"/>
	<path d="M1192.12,173.8c0.34-1.26,0.99-2.19,1.94-2.78s2.03-0.73,3.21-0.41c1.19,0.32,2.05,0.98,2.57,1.97
		c0.52,1,0.62,2.14,0.27,3.42c-0.34,1.28-1,2.21-1.97,2.79c-0.97,0.59-2.03,0.72-3.21,0.4c-1.18-0.32-2.03-0.98-2.55-1.98
		C1191.86,176.21,1191.78,175.06,1192.12,173.8z M1194,174.33c-0.16,0.59-0.09,1.14,0.21,1.67c0.3,0.53,0.74,0.87,1.33,1.03
		c0.58,0.16,1.14,0.09,1.66-0.22c0.53-0.3,0.87-0.75,1.02-1.34c0.16-0.59,0.09-1.15-0.21-1.68c-0.3-0.53-0.73-0.86-1.32-1.02
		s-1.13-0.08-1.66,0.22C1194.5,173.3,1194.16,173.75,1194,174.33z"/>
	<path d="M1189.99,160.73l0.56-2.11l13.02,3.49l-0.56,2.11l-0.98-0.26c0.63,0.87,0.82,1.81,0.54,2.84
		c-0.28,1.03-0.89,1.79-1.84,2.29c-0.95,0.5-2,0.6-3.13,0.3s-1.99-0.92-2.58-1.83c-0.58-0.91-0.74-1.87-0.47-2.87s0.9-1.74,1.9-2.22
		L1189.99,160.73z M1196.63,164.52c-0.16,0.59-0.09,1.15,0.21,1.67c0.3,0.53,0.74,0.86,1.33,1.02c0.59,0.16,1.14,0.09,1.66-0.22
		c0.53-0.3,0.86-0.74,1.02-1.32c0.16-0.58,0.09-1.13-0.22-1.66c-0.3-0.53-0.73-0.86-1.32-1.02c-0.59-0.16-1.13-0.09-1.66,0.2
		C1197.13,163.49,1196.79,163.93,1196.63,164.52z"/>
</g>
<circle fill="#FFFFFF" stroke="#000000" stroke-width="3" stroke-miterlimit="10" cx="1254.71" cy="251" r="10"/>
<g>
	<path d="M1262.53,231.86l-0.61,2.27l-9.64-2.58l-0.69,2.59l-1.96-0.53l2-7.46l1.96,0.53l-0.7,2.61L1262.53,231.86z"/>
	<path d="M1256.63,222.79c0.34-1.27,0.99-2.19,1.94-2.78s2.03-0.73,3.21-0.41s2.05,0.98,2.57,1.97c0.52,1,0.62,2.14,0.27,3.42
		c-0.34,1.28-1,2.21-1.97,2.79c-0.97,0.59-2.03,0.72-3.21,0.4s-2.03-0.98-2.55-1.99S1256.29,224.06,1256.63,222.79z M1258.52,223.33
		c-0.16,0.58-0.09,1.14,0.21,1.67s0.74,0.87,1.33,1.03s1.14,0.09,1.66-0.22c0.53-0.3,0.87-0.75,1.02-1.34s0.09-1.15-0.21-1.68
		c-0.3-0.53-0.73-0.86-1.32-1.02s-1.13-0.09-1.66,0.22S1258.68,222.74,1258.52,223.33z"/>
	<path d="M1253.52,213.39l6.47,1.73c-0.62-0.92-0.8-1.89-0.53-2.89c0.27-1,0.88-1.75,1.83-2.25c0.95-0.5,2-0.59,3.14-0.29
		s2,0.91,2.58,1.82s0.72,1.88,0.45,2.9c-0.27,1.03-0.91,1.76-1.9,2.19l0.98,0.26l-0.56,2.11l-13.02-3.49L1253.52,213.39z
		 M1261.17,213.42c-0.16,0.59-0.08,1.13,0.21,1.66s0.74,0.86,1.33,1.02c0.59,0.16,1.14,0.09,1.66-0.22c0.53-0.3,0.86-0.74,1.02-1.32
		c0.16-0.58,0.09-1.13-0.22-1.66c-0.3-0.52-0.73-0.87-1.32-1.03c-0.59-0.16-1.13-0.09-1.66,0.22S1261.33,212.83,1261.17,213.42z"/>
	<path d="M1267.19,200.77l-1.51,5.65c1.37,0.3,2.2-0.13,2.51-1.3c0.2-0.73,0.02-1.42-0.53-2.06l0.83-1.86
		c1.39,1.07,1.84,2.5,1.36,4.31c-0.33,1.23-0.96,2.11-1.88,2.65c-0.93,0.54-1.99,0.65-3.21,0.32s-2.09-0.94-2.62-1.86
		c-0.54-0.92-0.65-1.97-0.33-3.16c0.32-1.2,0.94-2.04,1.84-2.54c0.91-0.49,1.99-0.57,3.25-0.23L1267.19,200.77z M1264.36,205.99
		l0.96-3.57c-1.05-0.04-1.72,0.43-1.97,1.39C1263.09,204.74,1263.45,205.56,1264.36,205.99z"/>
	<path d="M1271.61,197.99l-0.56,2.11l-7.53-2.02l0.56-2.11l1.15,0.31c-0.79-0.77-1.06-1.62-0.8-2.56c0.08-0.3,0.22-0.59,0.43-0.87
		l1.88,0.82c-0.26,0.27-0.44,0.57-0.52,0.93c-0.32,1.21,0.27,2.01,1.77,2.41L1271.61,197.99z"/>
	<path d="M1270.73,185.81l3.86,1.04l-0.56,2.1l-4-1.07c-0.59-0.16-1.01-0.23-1.27-0.19c-0.25,0.03-0.48,0.13-0.67,0.31
		s-0.32,0.39-0.39,0.62c-0.13,0.48,0.02,1.04,0.42,1.44c0.2,0.2,0.64,0.39,1.31,0.56l3.86,1.04l-0.56,2.11l-7.53-2.02l0.56-2.11
		l0.87,0.23c-0.56-0.85-0.72-1.75-0.47-2.7c0.25-0.95,0.91-1.58,1.97-1.87c-0.76-0.84-1-1.76-0.73-2.77s0.83-1.63,1.67-1.88
		c0.5-0.15,1.14-0.12,1.93,0.09l4.86,1.3l-0.56,2.11l-4.12-1.1c-0.54-0.15-0.96-0.19-1.25-0.15c-0.49,0.08-0.81,0.37-0.95,0.88
		C1268.74,184.76,1269.31,185.43,1270.73,185.81z"/>
	<path d="M1269.7,174.03c0.34-1.26,0.99-2.19,1.94-2.78c0.95-0.59,2.03-0.73,3.21-0.41s2.05,0.98,2.57,1.97
		c0.52,1,0.62,2.14,0.27,3.42c-0.34,1.28-1,2.21-1.97,2.79c-0.97,0.59-2.03,0.72-3.21,0.41c-1.18-0.32-2.03-0.98-2.55-1.99
		C1269.45,176.44,1269.36,175.29,1269.7,174.03z M1271.59,174.56c-0.16,0.58-0.09,1.14,0.21,1.67s0.74,0.87,1.33,1.03
		c0.59,0.16,1.14,0.09,1.66-0.22c0.53-0.3,0.87-0.75,1.02-1.34s0.09-1.15-0.21-1.68c-0.3-0.53-0.73-0.86-1.32-1.02
		c-0.59-0.16-1.13-0.09-1.66,0.22C1272.08,173.53,1271.74,173.98,1271.59,174.56z"/>
	<path d="M1279.61,168.11l-0.56,2.11l-7.53-2.02l0.56-2.11l1.15,0.31c-0.79-0.77-1.06-1.62-0.8-2.56c0.08-0.3,0.22-0.59,0.43-0.87
		l1.88,0.82c-0.26,0.27-0.44,0.57-0.52,0.93c-0.32,1.21,0.27,2.01,1.77,2.41L1279.61,168.11z"/>
	<path d="M1280.41,160.55l-7.34,1.86l0.66-2.45l4.88-1.11l-3.71-3.29l0.65-2.42l9.92,9.18l-0.64,2.38L1280.41,160.55z"/>
</g>
<circle fill="#FFFFFF" stroke="#000000" stroke-width="3" stroke-miterlimit="10" cx="1332.35" cy="251" r="10"/>
<g>
	<path d="M1331.14,231.02c0.33,0.09,0.63,0.04,0.9-0.15c0.27-0.19,0.69-0.69,1.28-1.5s1.11-1.38,1.57-1.7
		c0.76-0.53,1.68-0.65,2.78-0.36c1.1,0.29,1.9,0.91,2.4,1.84c0.51,0.93,0.6,2,0.28,3.21c-0.44,1.64-1.53,2.76-3.27,3.39l-1.02-1.84
		c1.17-0.27,1.91-0.94,2.2-2.01c0.14-0.52,0.1-0.99-0.11-1.41c-0.22-0.41-0.56-0.69-1.05-0.82s-0.92-0.03-1.33,0.31
		c-0.2,0.16-0.6,0.68-1.21,1.54c-0.6,0.87-1.21,1.45-1.79,1.76c-0.58,0.31-1.26,0.35-2.02,0.15c-0.98-0.26-1.69-0.82-2.14-1.68
		c-0.45-0.86-0.55-1.8-0.27-2.85c0.35-1.29,1.08-2.31,2.21-3.07l1.23,1.6c-0.78,0.38-1.26,0.93-1.44,1.63
		c-0.13,0.47-0.1,0.88,0.06,1.26C1330.55,230.7,1330.81,230.93,1331.14,231.02z"/>
	<path d="M1340.21,218.06l-1.51,5.65c1.37,0.3,2.2-0.13,2.51-1.3c0.2-0.73,0.02-1.42-0.53-2.06l0.83-1.86
		c1.39,1.07,1.84,2.5,1.36,4.31c-0.33,1.23-0.96,2.11-1.88,2.65c-0.93,0.54-1.99,0.65-3.21,0.32s-2.09-0.94-2.62-1.86
		s-0.65-1.97-0.33-3.16c0.32-1.2,0.94-2.04,1.84-2.54c0.91-0.49,1.99-0.57,3.26-0.23L1340.21,218.06z M1337.37,223.28l0.96-3.57
		c-1.05-0.04-1.72,0.43-1.97,1.39C1336.1,222.03,1336.47,222.85,1337.37,223.28z"/>
	<path d="M1336.53,215.37l0.56-2.1l0.94,0.25c-0.69-0.88-0.82-1.66-0.55-2.68c0.25-0.92,0.74-1.58,1.49-1.95
		c0.56-0.28,1.31-0.29,2.25-0.03l4.78,1.28l-0.56,2.11l-4.18-1.12c-0.58-0.15-1-0.2-1.27-0.11c-0.46,0.11-0.76,0.47-0.92,1.07
		c-0.28,1.06,0.27,1.78,1.66,2.16l3.9,1.04l-0.56,2.1L1336.53,215.37z"/>
	<path d="M1341.4,204.47l5.71,1.53l-0.56,2.11l-5.71-1.53l-0.22,0.83l-1.83-0.49l0.22-0.83l-2.57-0.69l0.56-2.11l2.57,0.69l0.4-1.49
		l1.83,0.49L1341.4,204.47z"/>
	<path d="M1336.13,199.06c0.09-0.35,0.29-0.61,0.6-0.79c0.31-0.18,0.64-0.22,0.99-0.13c0.35,0.09,0.62,0.3,0.8,0.62
		c0.19,0.31,0.23,0.65,0.14,1c-0.09,0.35-0.3,0.61-0.61,0.79c-0.31,0.18-0.65,0.23-1,0.13c-0.35-0.09-0.62-0.3-0.8-0.62
		C1336.07,199.74,1336.04,199.4,1336.13,199.06z M1340.85,199.22l7.53,2.02l-0.56,2.1l-7.53-2.02L1340.85,199.22z"/>
	<path d="M1341.38,197.23l0.56-2.11l0.94,0.25c-0.68-0.88-0.82-1.66-0.55-2.68c0.25-0.93,0.74-1.58,1.49-1.95
		c0.56-0.28,1.31-0.29,2.25-0.03l4.78,1.28l-0.56,2.11l-4.18-1.12c-0.58-0.15-1-0.2-1.27-0.11c-0.46,0.11-0.76,0.47-0.92,1.07
		c-0.28,1.06,0.27,1.78,1.66,2.16l3.9,1.04l-0.56,2.11L1341.38,197.23z"/>
	<path d="M1349.96,181.67l-1.51,5.65c1.37,0.3,2.2-0.13,2.51-1.3c0.2-0.73,0.02-1.42-0.53-2.06l0.83-1.86
		c1.39,1.07,1.84,2.5,1.36,4.31c-0.33,1.23-0.96,2.11-1.88,2.65c-0.93,0.54-1.99,0.65-3.21,0.32s-2.09-0.94-2.62-1.86
		s-0.65-1.97-0.33-3.16c0.32-1.2,0.94-2.04,1.84-2.54c0.91-0.49,1.99-0.57,3.26-0.23L1349.96,181.67z M1347.12,186.89l0.96-3.57
		c-1.05-0.04-1.72,0.43-1.97,1.39C1345.86,185.64,1346.22,186.46,1347.12,186.89z"/>
	<path d="M1341.36,175.34l13.02,3.49l-0.56,2.11l-13.02-3.49L1341.36,175.34z"/>
</g>
<circle fill="#FFFFFF" stroke="#000000" stroke-width="3" stroke-miterlimit="10" cx="1410" cy="251" r="10"/>
<g>
	<path d="M1408.86,226.78l-1.04,3.88l2.58,0.69l0.97-3.63l1.96,0.53l-0.97,3.63l5.09,1.37l-0.61,2.26l-11.6-3.11l1.64-6.14
		L1408.86,226.78z"/>
	<path d="M1407.23,223.5c0.09-0.35,0.29-0.61,0.6-0.79c0.31-0.18,0.64-0.22,0.99-0.13c0.35,0.09,0.62,0.3,0.8,0.62
		c0.19,0.31,0.23,0.65,0.14,1c-0.09,0.35-0.3,0.61-0.61,0.79c-0.31,0.18-0.65,0.23-1,0.13c-0.35-0.09-0.62-0.3-0.8-0.62
		C1407.17,224.18,1407.13,223.85,1407.23,223.5z M1411.95,223.66l7.53,2.02l-0.56,2.1l-7.53-2.02L1411.95,223.66z"/>
	<path d="M1412.48,221.68l0.56-2.11l0.94,0.25c-0.68-0.88-0.82-1.66-0.55-2.68c0.25-0.92,0.74-1.58,1.49-1.95
		c0.56-0.28,1.31-0.29,2.25-0.04l4.78,1.28l-0.56,2.11l-4.18-1.12c-0.58-0.15-1-0.2-1.27-0.11c-0.46,0.11-0.76,0.47-0.92,1.07
		c-0.28,1.06,0.27,1.78,1.66,2.16l3.9,1.04l-0.56,2.11L1412.48,221.68z"/>
	<path d="M1418.78,207.38c-0.58,0.44-0.95,0.96-1.11,1.56c-0.16,0.6-0.1,1.16,0.19,1.68c0.29,0.52,0.73,0.86,1.35,1.02
		c0.61,0.16,1.17,0.09,1.68-0.21c0.51-0.31,0.85-0.76,1.01-1.38s0.11-1.23-0.16-1.88l2.05,0.55c0.15,0.7,0.13,1.38-0.04,2.05
		c-0.31,1.17-0.96,2.04-1.93,2.63c-0.97,0.59-2.02,0.72-3.15,0.42s-1.98-0.96-2.55-1.96c-0.56-1-0.69-2.09-0.37-3.26
		c0.18-0.69,0.51-1.28,0.96-1.79L1418.78,207.38z"/>
	<path d="M1411.46,203.52l0.56-2.11l6.47,1.73c-0.64-0.84-0.84-1.73-0.58-2.68s0.76-1.6,1.51-1.95c0.58-0.27,1.34-0.28,2.28-0.03
		l4.73,1.27l-0.56,2.11l-4.12-1.1c-0.6-0.16-1.04-0.21-1.31-0.12c-0.47,0.12-0.78,0.48-0.94,1.07c-0.28,1.06,0.28,1.79,1.69,2.16
		l3.86,1.04l-0.56,2.11L1411.46,203.52z"/>
	<path d="M1416.91,188.9l8.59-0.49l-7.24-4.98l0.33-1.23l8.72-0.55l-7.15-4.9l0.64-2.39l10.66,7.53l-0.43,1.59l-8.27,0.54l6.86,4.74
		l-0.42,1.59l-12.92,0.93L1416.91,188.9z"/>
	<path d="M1431.05,168.82l-1.51,5.65c1.37,0.3,2.2-0.13,2.51-1.3c0.2-0.73,0.02-1.42-0.53-2.06l0.83-1.86
		c1.39,1.07,1.84,2.5,1.36,4.31c-0.33,1.23-0.96,2.11-1.88,2.65c-0.93,0.54-1.99,0.65-3.21,0.32s-2.09-0.94-2.62-1.86
		c-0.54-0.92-0.65-1.97-0.33-3.16c0.32-1.2,0.94-2.04,1.84-2.54c0.91-0.49,1.99-0.57,3.26-0.23L1431.05,168.82z M1428.21,174.04
		l0.96-3.56c-1.05-0.04-1.72,0.43-1.97,1.39C1426.95,172.79,1427.31,173.6,1428.21,174.04z"/>
	<path d="M1430.2,162.59c-0.45,0.35-0.72,0.68-0.8,1c-0.08,0.31-0.09,0.56-0.01,0.75c0.08,0.2,0.22,0.31,0.39,0.36
		c0.18,0.05,0.34,0.01,0.5-0.12c0.15-0.13,0.41-0.46,0.77-1c0.36-0.53,0.68-0.92,0.97-1.14c0.53-0.45,1.17-0.58,1.93-0.37
		s1.31,0.67,1.66,1.39c0.35,0.73,0.4,1.56,0.15,2.49c-0.3,1.14-0.98,1.98-2.02,2.51l-0.99-1.45c0.74-0.43,1.2-0.94,1.36-1.55
		c0.14-0.54-0.12-1.06-0.57-1.18c-0.23-0.06-0.42-0.04-0.58,0.07c-0.15,0.12-0.42,0.44-0.8,1s-0.69,0.92-0.93,1.11
		c-0.48,0.41-1.07,0.51-1.77,0.33c-0.71-0.19-1.21-0.6-1.52-1.23c-0.32-0.62-0.35-1.36-0.13-2.21c0.23-0.85,0.71-1.56,1.44-2.14
		L1430.2,162.59z"/>
	<path d="M1431.66,157.4l5.71,1.53l-0.56,2.11l-5.71-1.53l-0.22,0.83l-1.83-0.49l0.22-0.83l-2.57-0.69l0.56-2.11l2.57,0.69l0.4-1.49
		l1.83,0.49L1431.66,157.4z"/>
</g>
<g>
	<path fill="#9B9B9B" d="M691.86,279.58v-7.16h3.17c0.64,0,1.12,0.06,1.46,0.19c0.33,0.13,0.6,0.36,0.8,0.68s0.3,0.69,0.3,1.08
		c0,0.51-0.16,0.94-0.49,1.28s-0.84,0.57-1.52,0.66c0.25,0.12,0.44,0.24,0.57,0.36c0.28,0.25,0.54,0.57,0.79,0.95l1.25,1.95h-1.19
		l-0.95-1.49c-0.28-0.43-0.5-0.76-0.68-0.99s-0.34-0.39-0.48-0.48s-0.29-0.15-0.43-0.19c-0.11-0.02-0.28-0.03-0.53-0.03h-1.1v3.18
		H691.86z M692.81,275.58h2.04c0.43,0,0.77-0.04,1.02-0.13c0.24-0.09,0.43-0.23,0.56-0.43c0.13-0.2,0.19-0.41,0.19-0.64
		c0-0.34-0.12-0.62-0.37-0.83s-0.63-0.33-1.16-0.33h-2.27V275.58z"/>
	<path fill="#9B9B9B" d="M702.34,278.94c-0.33,0.28-0.64,0.47-0.94,0.59s-0.62,0.17-0.97,0.17c-0.57,0-1.01-0.14-1.31-0.42
		c-0.31-0.28-0.46-0.63-0.46-1.07c0-0.25,0.06-0.49,0.17-0.7c0.12-0.21,0.27-0.38,0.45-0.51s0.4-0.22,0.63-0.29
		c0.17-0.05,0.43-0.09,0.78-0.13c0.71-0.08,1.23-0.19,1.57-0.3c0-0.12,0-0.2,0-0.23c0-0.36-0.08-0.61-0.25-0.76
		c-0.22-0.2-0.56-0.3-1-0.3c-0.41,0-0.72,0.07-0.92,0.22c-0.2,0.14-0.34,0.4-0.44,0.77l-0.86-0.12c0.08-0.37,0.21-0.67,0.39-0.89
		c0.18-0.23,0.44-0.4,0.78-0.52c0.34-0.12,0.73-0.18,1.18-0.18c0.44,0,0.8,0.05,1.08,0.16s0.48,0.24,0.61,0.39
		c0.13,0.16,0.22,0.36,0.27,0.6c0.03,0.15,0.04,0.42,0.04,0.81v1.17c0,0.82,0.02,1.33,0.06,1.55c0.04,0.22,0.11,0.42,0.22,0.62
		h-0.92C702.43,279.4,702.37,279.19,702.34,278.94z M702.27,276.98c-0.32,0.13-0.8,0.24-1.44,0.33c-0.36,0.05-0.62,0.11-0.77,0.18
		s-0.27,0.16-0.35,0.29c-0.08,0.12-0.12,0.26-0.12,0.42c0,0.23,0.09,0.43,0.27,0.59s0.44,0.23,0.78,0.23c0.34,0,0.64-0.07,0.9-0.22
		c0.26-0.15,0.46-0.35,0.58-0.61c0.09-0.2,0.14-0.49,0.14-0.88V276.98z"/>
	<path fill="#9B9B9B" d="M704.52,273.43v-1.01h0.88v1.01H704.52z M704.52,279.58v-5.19h0.88v5.19H704.52z"/>
	<path fill="#9B9B9B" d="M706.72,279.58v-7.16h0.88v7.16H706.72z"/>
	<path fill="#9B9B9B" d="M711.9,279.58v-7.16h4.83v0.84h-3.88v2.22h3.36v0.84h-3.36v3.25H711.9z"/>
	<path fill="#9B9B9B" d="M721.23,278.94c-0.33,0.28-0.64,0.47-0.94,0.59s-0.62,0.17-0.97,0.17c-0.57,0-1.01-0.14-1.31-0.42
		c-0.31-0.28-0.46-0.63-0.46-1.07c0-0.25,0.06-0.49,0.17-0.7c0.12-0.21,0.27-0.38,0.45-0.51s0.4-0.22,0.63-0.29
		c0.17-0.05,0.43-0.09,0.78-0.13c0.71-0.08,1.23-0.19,1.57-0.3c0-0.12,0-0.2,0-0.23c0-0.36-0.08-0.61-0.25-0.76
		c-0.22-0.2-0.56-0.3-1-0.3c-0.41,0-0.72,0.07-0.92,0.22c-0.2,0.14-0.34,0.4-0.44,0.77l-0.86-0.12c0.08-0.37,0.21-0.67,0.39-0.89
		c0.18-0.23,0.44-0.4,0.78-0.52c0.34-0.12,0.73-0.18,1.18-0.18c0.44,0,0.8,0.05,1.08,0.16s0.48,0.24,0.61,0.39
		c0.13,0.16,0.22,0.36,0.27,0.6c0.03,0.15,0.04,0.42,0.04,0.81v1.17c0,0.82,0.02,1.33,0.06,1.55c0.04,0.22,0.11,0.42,0.22,0.62
		h-0.92C721.32,279.4,721.26,279.19,721.23,278.94z M721.16,276.98c-0.32,0.13-0.8,0.24-1.44,0.33c-0.36,0.05-0.62,0.11-0.77,0.18
		s-0.27,0.16-0.35,0.29c-0.08,0.12-0.12,0.26-0.12,0.42c0,0.23,0.09,0.43,0.27,0.59s0.44,0.23,0.78,0.23c0.34,0,0.64-0.07,0.9-0.22
		c0.26-0.15,0.46-0.35,0.58-0.61c0.09-0.2,0.14-0.49,0.14-0.88V276.98z"/>
	<path fill="#9B9B9B" d="M723.41,279.58v-5.19h0.79v0.74c0.38-0.57,0.93-0.85,1.65-0.85c0.31,0,0.6,0.06,0.86,0.17
		c0.26,0.11,0.46,0.26,0.59,0.44s0.22,0.4,0.27,0.65c0.03,0.16,0.05,0.45,0.05,0.85v3.19h-0.88v-3.15c0-0.36-0.03-0.63-0.1-0.8
		c-0.07-0.18-0.19-0.32-0.36-0.43c-0.17-0.11-0.38-0.16-0.61-0.16c-0.37,0-0.7,0.12-0.97,0.36s-0.41,0.69-0.41,1.35v2.83H723.41z"/>
	<path fill="#9B9B9B" d="M728.62,278.03l0.87-0.14c0.05,0.35,0.18,0.62,0.41,0.8s0.53,0.28,0.94,0.28c0.4,0,0.7-0.08,0.9-0.25
		c0.2-0.17,0.29-0.36,0.29-0.58c0-0.2-0.09-0.35-0.26-0.47c-0.12-0.08-0.42-0.18-0.9-0.3c-0.64-0.16-1.09-0.3-1.34-0.42
		c-0.25-0.12-0.44-0.28-0.57-0.49c-0.13-0.21-0.19-0.44-0.19-0.7c0-0.23,0.05-0.45,0.16-0.64c0.11-0.2,0.25-0.36,0.43-0.49
		c0.14-0.1,0.32-0.19,0.56-0.26c0.24-0.07,0.49-0.11,0.76-0.11c0.41,0,0.76,0.06,1.07,0.18s0.53,0.28,0.68,0.48
		c0.15,0.2,0.25,0.47,0.3,0.8l-0.86,0.12c-0.04-0.27-0.15-0.48-0.34-0.62s-0.45-0.22-0.79-0.22c-0.4,0-0.69,0.07-0.86,0.2
		s-0.26,0.29-0.26,0.47c0,0.11,0.04,0.22,0.11,0.31c0.07,0.09,0.18,0.17,0.34,0.23c0.09,0.03,0.35,0.11,0.78,0.22
		c0.62,0.17,1.06,0.3,1.3,0.41c0.25,0.11,0.44,0.26,0.58,0.46s0.21,0.45,0.21,0.75c0,0.29-0.09,0.57-0.26,0.83
		c-0.17,0.26-0.42,0.46-0.74,0.6c-0.32,0.14-0.69,0.21-1.09,0.21c-0.67,0-1.19-0.14-1.54-0.42S728.72,278.58,728.62,278.03z"/>
	<path fill="#9B9B9B" d="M741.97,277.07l0.95,0.24c-0.2,0.78-0.56,1.37-1.07,1.78c-0.52,0.41-1.15,0.61-1.89,0.61
		c-0.77,0-1.4-0.16-1.88-0.47c-0.48-0.31-0.85-0.77-1.1-1.36s-0.38-1.24-0.38-1.92c0-0.75,0.14-1.4,0.43-1.95
		c0.28-0.55,0.69-0.98,1.22-1.26c0.53-0.29,1.1-0.43,1.74-0.43c0.72,0,1.32,0.18,1.81,0.55s0.83,0.88,1.02,1.54l-0.93,0.22
		c-0.17-0.52-0.41-0.9-0.72-1.14s-0.71-0.36-1.19-0.36c-0.55,0-1.01,0.13-1.38,0.4s-0.63,0.62-0.78,1.06
		c-0.15,0.44-0.22,0.9-0.22,1.37c0,0.61,0.09,1.14,0.27,1.59c0.18,0.45,0.45,0.79,0.83,1.02s0.78,0.34,1.22,0.34
		c0.53,0,0.98-0.15,1.35-0.46S741.84,277.67,741.97,277.07z"/>
	<path fill="#9B9B9B" d="M747.36,278.94c-0.33,0.28-0.64,0.47-0.94,0.59s-0.62,0.17-0.97,0.17c-0.57,0-1.01-0.14-1.31-0.42
		c-0.31-0.28-0.46-0.63-0.46-1.07c0-0.25,0.06-0.49,0.17-0.7c0.12-0.21,0.27-0.38,0.45-0.51s0.4-0.22,0.63-0.29
		c0.17-0.05,0.43-0.09,0.78-0.13c0.71-0.08,1.23-0.19,1.57-0.3c0-0.12,0-0.2,0-0.23c0-0.36-0.08-0.61-0.25-0.76
		c-0.22-0.2-0.56-0.3-1-0.3c-0.41,0-0.72,0.07-0.92,0.22c-0.2,0.14-0.34,0.4-0.44,0.77l-0.86-0.12c0.08-0.37,0.21-0.67,0.39-0.89
		c0.18-0.23,0.44-0.4,0.78-0.52c0.34-0.12,0.73-0.18,1.18-0.18c0.44,0,0.8,0.05,1.08,0.16s0.48,0.24,0.61,0.39
		c0.13,0.16,0.22,0.36,0.27,0.6c0.03,0.15,0.04,0.42,0.04,0.81v1.17c0,0.82,0.02,1.33,0.06,1.55c0.04,0.22,0.11,0.42,0.22,0.62
		h-0.92C747.44,279.4,747.38,279.19,747.36,278.94z M747.28,276.98c-0.32,0.13-0.8,0.24-1.44,0.33c-0.36,0.05-0.62,0.11-0.77,0.18
		s-0.27,0.16-0.35,0.29c-0.08,0.12-0.12,0.26-0.12,0.42c0,0.23,0.09,0.43,0.27,0.59s0.44,0.23,0.78,0.23c0.34,0,0.64-0.07,0.9-0.22
		c0.26-0.15,0.46-0.35,0.58-0.61c0.09-0.2,0.14-0.49,0.14-0.88V276.98z"/>
	<path fill="#9B9B9B" d="M749.53,279.58v-5.19h0.79v0.74c0.38-0.57,0.93-0.85,1.65-0.85c0.31,0,0.6,0.06,0.86,0.17
		c0.26,0.11,0.46,0.26,0.59,0.44c0.13,0.18,0.22,0.4,0.27,0.65c0.03,0.16,0.05,0.45,0.05,0.85v3.19h-0.88v-3.15
		c0-0.36-0.04-0.63-0.1-0.8c-0.07-0.18-0.19-0.32-0.36-0.43c-0.17-0.11-0.38-0.16-0.61-0.16c-0.37,0-0.7,0.12-0.97,0.36
		c-0.27,0.24-0.41,0.69-0.41,1.35v2.83H749.53z"/>
	<path fill="#9B9B9B" d="M758.48,278.94c-0.33,0.28-0.64,0.47-0.94,0.59s-0.62,0.17-0.97,0.17c-0.57,0-1.01-0.14-1.31-0.42
		c-0.31-0.28-0.46-0.63-0.46-1.07c0-0.25,0.06-0.49,0.17-0.7c0.12-0.21,0.27-0.38,0.45-0.51s0.4-0.22,0.63-0.29
		c0.17-0.05,0.43-0.09,0.78-0.13c0.71-0.08,1.23-0.19,1.57-0.3c0-0.12,0-0.2,0-0.23c0-0.36-0.08-0.61-0.25-0.76
		c-0.22-0.2-0.56-0.3-1-0.3c-0.41,0-0.72,0.07-0.92,0.22c-0.2,0.14-0.34,0.4-0.44,0.77l-0.86-0.12c0.08-0.37,0.21-0.67,0.38-0.89
		c0.18-0.23,0.44-0.4,0.78-0.52c0.34-0.12,0.73-0.18,1.18-0.18c0.44,0,0.8,0.05,1.08,0.16c0.28,0.1,0.48,0.24,0.61,0.39
		c0.13,0.16,0.22,0.36,0.27,0.6c0.03,0.15,0.04,0.42,0.04,0.81v1.17c0,0.82,0.02,1.33,0.06,1.55c0.04,0.22,0.11,0.42,0.22,0.62
		h-0.92C758.56,279.4,758.5,279.19,758.48,278.94z M758.41,276.98c-0.32,0.13-0.8,0.24-1.44,0.33c-0.36,0.05-0.62,0.11-0.77,0.18
		c-0.15,0.07-0.26,0.16-0.35,0.29c-0.08,0.12-0.12,0.26-0.12,0.42c0,0.23,0.09,0.43,0.27,0.59s0.44,0.23,0.78,0.23
		c0.34,0,0.64-0.07,0.9-0.22c0.26-0.15,0.46-0.35,0.58-0.61c0.09-0.2,0.14-0.49,0.14-0.88V276.98z"/>
	<path fill="#9B9B9B" d="M764.02,279.58v-0.65c-0.33,0.51-0.81,0.77-1.45,0.77c-0.41,0-0.79-0.11-1.14-0.34s-0.62-0.55-0.81-0.96
		c-0.19-0.41-0.29-0.88-0.29-1.41c0-0.52,0.09-0.99,0.26-1.41c0.17-0.42,0.43-0.75,0.78-0.97c0.34-0.22,0.73-0.34,1.16-0.34
		c0.31,0,0.59,0.07,0.84,0.2c0.24,0.13,0.44,0.3,0.6,0.52v-2.57h0.87v7.16H764.02z M761.24,276.99c0,0.66,0.14,1.16,0.42,1.49
		c0.28,0.33,0.61,0.49,0.99,0.49c0.38,0,0.71-0.16,0.98-0.47c0.27-0.31,0.4-0.79,0.4-1.44c0-0.71-0.14-1.23-0.41-1.56
		s-0.61-0.5-1.01-0.5c-0.39,0-0.72,0.16-0.98,0.48S761.24,276.31,761.24,276.99z"/>
	<path fill="#9B9B9B" d="M769.6,278.94c-0.33,0.28-0.64,0.47-0.94,0.59s-0.62,0.17-0.97,0.17c-0.57,0-1.01-0.14-1.31-0.42
		c-0.31-0.28-0.46-0.63-0.46-1.07c0-0.25,0.06-0.49,0.17-0.7c0.12-0.21,0.27-0.38,0.45-0.51s0.4-0.22,0.63-0.29
		c0.17-0.05,0.43-0.09,0.78-0.13c0.71-0.08,1.23-0.19,1.57-0.3c0-0.12,0-0.2,0-0.23c0-0.36-0.08-0.61-0.25-0.76
		c-0.22-0.2-0.56-0.3-1-0.3c-0.41,0-0.72,0.07-0.92,0.22c-0.2,0.14-0.34,0.4-0.44,0.77l-0.86-0.12c0.08-0.37,0.21-0.67,0.38-0.89
		c0.18-0.23,0.44-0.4,0.78-0.52c0.34-0.12,0.73-0.18,1.18-0.18c0.44,0,0.8,0.05,1.08,0.16c0.28,0.1,0.48,0.24,0.61,0.39
		c0.13,0.16,0.22,0.36,0.27,0.6c0.03,0.15,0.04,0.42,0.04,0.81v1.17c0,0.82,0.02,1.33,0.06,1.55c0.04,0.22,0.11,0.42,0.22,0.62
		h-0.92C769.69,279.4,769.63,279.19,769.6,278.94z M769.53,276.98c-0.32,0.13-0.8,0.24-1.44,0.33c-0.36,0.05-0.62,0.11-0.77,0.18
		c-0.15,0.07-0.26,0.16-0.35,0.29c-0.08,0.12-0.12,0.26-0.12,0.42c0,0.23,0.09,0.43,0.27,0.59s0.44,0.23,0.78,0.23
		c0.34,0,0.64-0.07,0.9-0.22c0.26-0.15,0.46-0.35,0.58-0.61c0.09-0.2,0.14-0.49,0.14-0.88V276.98z"/>
	<path fill="#9B9B9B" d="M773.9,277.35v-0.71h10v0.71H773.9z"/>
	<path fill="#9B9B9B" d="M791.71,278.74v0.84h-4.73c-0.01-0.21,0.03-0.42,0.1-0.61c0.12-0.32,0.31-0.64,0.58-0.95
		s0.65-0.67,1.15-1.08c0.78-0.64,1.3-1.14,1.58-1.52c0.27-0.37,0.41-0.73,0.41-1.06c0-0.35-0.12-0.64-0.37-0.88
		c-0.25-0.24-0.57-0.36-0.97-0.36c-0.42,0-0.76,0.13-1.02,0.38s-0.38,0.61-0.39,1.05l-0.9-0.09c0.06-0.67,0.29-1.19,0.7-1.54
		c0.4-0.35,0.95-0.53,1.63-0.53c0.69,0,1.23,0.19,1.63,0.57s0.6,0.85,0.6,1.42c0,0.29-0.06,0.57-0.18,0.84s-0.31,0.57-0.58,0.87
		s-0.72,0.73-1.35,1.26c-0.53,0.44-0.87,0.74-1.02,0.9c-0.15,0.16-0.27,0.32-0.37,0.48H791.71z"/>
	<path fill="#9B9B9B" d="M792.65,276.05c0-0.85,0.09-1.53,0.26-2.04c0.17-0.52,0.43-0.91,0.78-1.19s0.78-0.42,1.3-0.42
		c0.38,0,0.72,0.08,1.01,0.23c0.29,0.15,0.53,0.38,0.72,0.67c0.19,0.29,0.34,0.65,0.44,1.06c0.11,0.42,0.16,0.98,0.16,1.69
		c0,0.84-0.09,1.52-0.26,2.03c-0.17,0.52-0.43,0.91-0.77,1.2c-0.34,0.28-0.78,0.42-1.3,0.42c-0.69,0-1.23-0.25-1.63-0.74
		C792.89,278.37,792.65,277.4,792.65,276.05z M793.56,276.05c0,1.17,0.14,1.96,0.41,2.35c0.27,0.39,0.61,0.58,1.02,0.58
		c0.4,0,0.74-0.2,1.02-0.59s0.41-1.17,0.41-2.34c0-1.18-0.14-1.96-0.41-2.35s-0.62-0.58-1.03-0.58c-0.4,0-0.73,0.17-0.97,0.51
		C793.71,274.07,793.56,274.88,793.56,276.05z"/>
	<path fill="#9B9B9B" d="M802.83,278.74v0.84h-4.73c-0.01-0.21,0.03-0.42,0.1-0.61c0.12-0.32,0.31-0.64,0.58-0.95
		s0.65-0.67,1.15-1.08c0.78-0.64,1.3-1.14,1.58-1.52c0.27-0.37,0.41-0.73,0.41-1.06c0-0.35-0.12-0.64-0.37-0.88
		c-0.25-0.24-0.57-0.36-0.97-0.36c-0.42,0-0.76,0.13-1.02,0.38s-0.38,0.61-0.39,1.05l-0.9-0.09c0.06-0.67,0.29-1.19,0.7-1.54
		c0.4-0.35,0.95-0.53,1.63-0.53c0.69,0,1.23,0.19,1.63,0.57s0.6,0.85,0.6,1.42c0,0.29-0.06,0.57-0.18,0.84s-0.31,0.57-0.58,0.87
		s-0.72,0.73-1.35,1.26c-0.53,0.44-0.87,0.74-1.02,0.9c-0.15,0.16-0.27,0.32-0.37,0.48H802.83z"/>
	<path fill="#9B9B9B" d="M808.34,274.18l-0.88,0.07c-0.08-0.34-0.19-0.6-0.33-0.75c-0.24-0.25-0.53-0.38-0.88-0.38
		c-0.28,0-0.53,0.08-0.74,0.23c-0.28,0.2-0.5,0.5-0.65,0.88c-0.16,0.39-0.24,0.94-0.25,1.66c0.21-0.32,0.47-0.56,0.78-0.72
		c0.31-0.16,0.63-0.23,0.96-0.23c0.59,0,1.09,0.22,1.5,0.65c0.41,0.43,0.62,0.99,0.62,1.67c0,0.45-0.1,0.87-0.29,1.25
		c-0.19,0.39-0.46,0.68-0.8,0.89c-0.34,0.21-0.72,0.31-1.15,0.31c-0.73,0-1.33-0.27-1.79-0.81c-0.46-0.54-0.69-1.43-0.69-2.66
		c0-1.38,0.25-2.39,0.77-3.02c0.45-0.55,1.05-0.82,1.8-0.82c0.56,0,1.02,0.16,1.38,0.47S808.27,273.62,808.34,274.18z
		 M804.75,277.26c0,0.3,0.06,0.59,0.19,0.87s0.31,0.49,0.54,0.63c0.23,0.15,0.47,0.22,0.73,0.22c0.37,0,0.69-0.15,0.96-0.45
		c0.27-0.3,0.4-0.71,0.4-1.22c0-0.5-0.13-0.88-0.4-1.17c-0.26-0.29-0.6-0.43-1-0.43c-0.4,0-0.73,0.14-1.01,0.43
		C804.89,276.43,804.75,276.8,804.75,277.26z"/>
</g>
<g>
	<path d="M19.71,25.33v24.38h9.02v4.96H14V25.33H19.71z"/>
	<path d="M34.65,24.36c0.88,0,1.63,0.3,2.26,0.92s0.92,1.38,0.92,2.26s-0.32,1.65-0.95,2.28c-0.62,0.64-1.4,0.97-2.28,0.97
		s-1.63-0.32-2.26-0.95s-0.95-1.4-0.95-2.28s0.32-1.65,0.97-2.28C32.99,24.66,33.77,24.36,34.65,24.36z M37.25,35.62v19.06h-5.31
		V35.62H37.25z"/>
	<path d="M42.27,35.62h5.33V38c1.63-2.17,3.39-2.99,5.97-2.99c2.34,0,4.19,0.75,5.54,2.28c1.01,1.14,1.5,2.9,1.5,5.29v12.1h-5.33
		V44.1c0-1.46-0.17-2.49-0.54-3.07c-0.56-1.01-1.59-1.5-3.12-1.5c-2.69,0-4.04,1.76-4.04,5.29v9.86h-5.33V35.62z"/>
	<path d="M84.45,46.02H70.16c0.15,3.42,1.7,5.11,4.66,5.09c1.85,0,3.35-0.86,4.53-2.56l4.92,0.79c-1.65,3.95-4.75,5.93-9.32,5.95
		c-3.12,0-5.59-0.92-7.46-2.77s-2.79-4.3-2.79-7.37s0.9-5.52,2.73-7.37s4.23-2.77,7.26-2.77s5.41,0.92,7.15,2.75s2.6,4.34,2.6,7.54
		V46.02z M70.33,42.62h9.02c-0.58-2.51-2.11-3.78-4.53-3.78C72.48,38.84,70.78,40.21,70.33,42.62z"/>
	<path d="M117.88,38.15c1.76,1.87,2.64,4.25,2.64,7.15s-1.03,5.31-3.09,7.22c-2.08,1.93-4.75,2.9-8.01,2.9s-5.95-0.95-8.04-2.84
		s-3.14-4.3-3.14-7.24s1.22-6.04,3.7-9.28l8.94-11.92l4.06,3.03l-6.96,8.94c1.22-0.49,2.38-0.75,3.44-0.75
		C113.97,35.36,116.12,36.28,117.88,38.15z M109.43,39.94c-1.53,0-2.81,0.52-3.87,1.57s-1.59,2.36-1.59,3.91s0.54,2.84,1.59,3.89
		s2.34,1.59,3.82,1.59s2.77-0.54,3.82-1.59s1.57-2.34,1.57-3.87s-0.52-2.81-1.53-3.89C112.23,40.47,110.96,39.94,109.43,39.94z"/>
	<path d="M136.18,42.36h18.3v4.43h-18.3V42.36z"/>
	<path d="M187.74,30.29h-9.82v6.53h9.2v4.96h-9.2v12.89h-5.71V25.33h15.53V30.29z"/>
	<path d="M194.45,24.36c0.88,0,1.63,0.3,2.26,0.92s0.92,1.38,0.92,2.26s-0.32,1.65-0.95,2.28c-0.62,0.64-1.4,0.97-2.28,0.97
		s-1.63-0.32-2.26-0.95s-0.95-1.4-0.95-2.28s0.32-1.65,0.97-2.28C192.79,24.66,193.57,24.36,194.45,24.36z M197.05,35.62v19.06
		h-5.31V35.62H197.05z"/>
	<path d="M202.07,35.62h5.33V38c1.63-2.17,3.39-2.99,5.97-2.99c2.34,0,4.19,0.75,5.54,2.28c1.01,1.14,1.5,2.9,1.5,5.29v12.1h-5.33
		V44.1c0-1.46-0.17-2.49-0.54-3.07c-0.56-1.01-1.59-1.5-3.12-1.5c-2.69,0-4.04,1.76-4.04,5.29v9.86h-5.33V35.62z"/>
	<path d="M239.8,41.44c-1.4-1.1-2.86-1.63-4.38-1.63s-2.79,0.49-3.85,1.5S230,43.59,230,45.13s0.52,2.81,1.57,3.82
		s2.34,1.53,3.89,1.53s2.99-0.52,4.34-1.57v5.18c-1.57,0.79-3.18,1.18-4.88,1.2c-2.96,0-5.44-0.97-7.43-2.9
		c-2-1.91-2.99-4.32-2.99-7.18s1.01-5.29,3.01-7.26c2-1.96,4.49-2.94,7.46-2.94c1.74,0,3.35,0.39,4.83,1.14V41.44z"/>
	<path d="M244.29,21.72h5.33v16.37c1.57-2.04,3.54-3.07,5.95-3.07s4.25,0.77,5.56,2.32c1.01,1.2,1.5,2.99,1.5,5.37v11.97h-5.33
		V44.25c0-1.53-0.17-2.58-0.54-3.18c-0.58-1.03-1.63-1.55-3.12-1.55c-2.69,0-4.04,1.78-4.04,5.37v9.78h-5.33V21.72z"/>
	<path d="M282.25,25.33l6.6,19.98l7.18-20.24h3.12l6.81,20.24L313,25.33h6.04l-11.04,29.93h-4.02l-6.51-19.19l-6.85,19.19h-4.02
		l-10.38-29.93H282.25z"/>
	<path d="M338.63,46.02h-14.29c0.15,3.42,1.7,5.11,4.66,5.09c1.85,0,3.35-0.86,4.53-2.56l4.92,0.79c-1.65,3.95-4.75,5.93-9.32,5.95
		c-3.12,0-5.59-0.92-7.46-2.77s-2.79-4.3-2.79-7.37s0.9-5.52,2.73-7.37s4.23-2.77,7.26-2.77s5.41,0.92,7.15,2.75s2.6,4.34,2.6,7.54
		V46.02z M324.51,42.62h9.02c-0.58-2.51-2.11-3.78-4.53-3.78C326.66,38.84,324.96,40.21,324.51,42.62z"/>
	<path d="M352.79,40.06c-1.12-0.84-2.06-1.27-2.86-1.27s-1.38,0.15-1.78,0.45c-0.41,0.32-0.6,0.71-0.6,1.16s0.19,0.82,0.6,1.1
		s1.35,0.67,2.84,1.18s2.6,1.03,3.31,1.57c1.4,0.97,2.11,2.41,2.11,4.32s-0.75,3.52-2.23,4.79c-1.5,1.29-3.44,1.93-5.78,1.93
		c-2.88,0-5.29-1.05-7.22-3.18l2.79-3.24c1.48,1.48,2.99,2.23,4.51,2.23c1.35,0,2.43-0.95,2.43-2.08c0-0.58-0.17-1.01-0.54-1.31
		c-0.37-0.28-1.31-0.71-2.86-1.27s-2.62-1.05-3.2-1.5c-1.27-0.88-1.89-2.19-1.89-3.97s0.64-3.22,1.93-4.36
		c1.27-1.14,2.99-1.7,5.13-1.7s4.12,0.69,5.95,2.04L352.79,40.06z"/>
	<path d="M365.98,40.24v14.44h-5.33V40.24h-2.11v-4.62h2.11v-6.51h5.33v6.51h3.78v4.62H365.98z"/>
	<path d="M390.02,25.33v24.38h9.02v4.96H384.3V25.33H390.02z"/>
	<path d="M408.71,42.88v11.79H403V25.33h8.49c3.33,0,5.82,0.69,7.48,2.06c1.93,1.61,2.9,3.82,2.9,6.6c0,2.79-0.88,4.94-2.64,6.47
		c-1.07,0.97-2.43,1.59-4.04,1.87l9.24,12.35h-7.05l-7.91-11.79H408.71z M408.71,38.84h1.68c3.63,0,5.59-1.63,5.59-4.49
		c0-2.94-1.83-4.4-5.5-4.4h-1.76V38.84z"/>
	<path d="M437.31,54.67h-5.74V30.29h-6.55v-4.96h18.88v4.96h-6.6V54.67z"/>
</g>
<g>
	<path fill="#5A5A5A" d="M18.47,78.34h-2.09v-8.87H14v-1.8h6.87v1.8h-2.4V78.34z"/>
	<path fill="#5A5A5A" d="M24.9,71.19c1.16,0,2.11,0.34,2.84,1.02s1.09,1.57,1.09,2.66s-0.37,1.98-1.1,2.66
		c-0.74,0.68-1.7,1.02-2.88,1.02s-2.12-0.35-2.85-1.05s-1.09-1.58-1.09-2.66s0.38-1.97,1.12-2.65S23.73,71.19,24.9,71.19z
		 M24.88,72.93c-0.54,0-1,0.19-1.38,0.56s-0.58,0.84-0.58,1.38s0.19,1,0.57,1.38c0.38,0.38,0.84,0.57,1.38,0.57s1.01-0.19,1.39-0.57
		c0.38-0.38,0.57-0.83,0.57-1.37s-0.19-0.99-0.57-1.38S25.41,72.93,24.88,72.93z"/>
	<path fill="#5A5A5A" d="M32.26,78.34h-1.94v-6.93h1.94v1.05c0.48-0.85,1.15-1.28,2.02-1.27c0.27,0,0.55,0.05,0.84,0.17l-0.27,1.8
		c-0.29-0.16-0.59-0.24-0.92-0.23c-1.11,0-1.66,0.7-1.66,2.08V78.34z"/>
	<path fill="#5A5A5A" d="M39.62,71.19c1.16,0,2.11,0.34,2.84,1.02s1.09,1.57,1.09,2.66s-0.37,1.98-1.1,2.66
		c-0.74,0.68-1.7,1.02-2.88,1.02s-2.12-0.35-2.85-1.05s-1.09-1.58-1.09-2.66s0.38-1.97,1.12-2.65S38.45,71.19,39.62,71.19z
		 M39.59,72.93c-0.54,0-1,0.19-1.38,0.56s-0.58,0.84-0.58,1.38s0.19,1,0.57,1.38c0.38,0.38,0.84,0.57,1.38,0.57s1.01-0.19,1.39-0.57
		c0.38-0.38,0.57-0.83,0.57-1.37s-0.19-0.99-0.57-1.38S40.13,72.93,39.59,72.93z"/>
	<path fill="#5A5A5A" d="M45.04,71.41h1.94v0.87c0.59-0.79,1.23-1.09,2.17-1.09c0.85,0,1.52,0.27,2.02,0.83
		c0.37,0.41,0.55,1.05,0.55,1.92v4.4h-1.94v-3.84c0-0.53-0.06-0.91-0.2-1.12c-0.2-0.37-0.58-0.55-1.13-0.55
		c-0.98,0-1.47,0.64-1.47,1.92v3.59h-1.94V71.41z"/>
	<path fill="#5A5A5A" d="M55.52,73.09v5.25h-1.94v-5.25h-0.77v-1.68h0.77v-2.37h1.94v2.37h1.38v1.68H55.52z"/>
	<path fill="#5A5A5A" d="M61.51,71.19c1.16,0,2.11,0.34,2.84,1.02s1.09,1.57,1.09,2.66s-0.37,1.98-1.1,2.66
		c-0.74,0.68-1.7,1.02-2.88,1.02s-2.12-0.35-2.85-1.05s-1.09-1.58-1.09-2.66s0.38-1.97,1.12-2.65S60.34,71.19,61.51,71.19z
		 M61.48,72.93c-0.54,0-1,0.19-1.38,0.56s-0.58,0.84-0.58,1.38s0.19,1,0.57,1.38c0.38,0.38,0.84,0.57,1.38,0.57s1.01-0.19,1.39-0.57
		c0.38-0.38,0.57-0.83,0.57-1.37s-0.19-0.99-0.57-1.38S62.02,72.93,61.48,72.93z"/>
	<path fill="#5A5A5A" d="M74.58,78.34h-2.09v-8.87h-2.38v-1.8h6.87v1.8h-2.4V78.34z"/>
	<path fill="#5A5A5A" d="M79.48,78.34h-1.94v-6.93h1.94v1.05c0.48-0.85,1.15-1.28,2.02-1.27c0.27,0,0.55,0.05,0.84,0.17l-0.27,1.8
		c-0.29-0.16-0.59-0.24-0.92-0.23c-1.11,0-1.66,0.7-1.66,2.08V78.34z"/>
	<path fill="#5A5A5A" d="M88.55,71.41h1.94v6.93h-1.94v-0.9c-0.6,0.74-1.37,1.12-2.31,1.12s-1.74-0.35-2.39-1.05
		s-0.98-1.58-0.98-2.62s0.33-1.92,0.98-2.63s1.44-1.06,2.36-1.06s1.7,0.38,2.34,1.12V71.41z M86.82,72.93
		c-0.55,0-1.01,0.19-1.38,0.56c-0.38,0.38-0.57,0.84-0.57,1.38s0.19,1,0.57,1.38c0.38,0.38,0.84,0.57,1.37,0.57s0.99-0.19,1.38-0.57
		c0.38-0.38,0.57-0.83,0.57-1.37s-0.19-0.99-0.55-1.38C87.82,73.12,87.36,72.93,86.82,72.93z"/>
	<path fill="#5A5A5A" d="M92.34,71.41h1.94v0.87c0.59-0.79,1.23-1.09,2.17-1.09c0.85,0,1.52,0.27,2.02,0.83
		c0.37,0.41,0.55,1.05,0.55,1.92v4.4h-1.94v-3.84c0-0.53-0.06-0.91-0.2-1.12c-0.2-0.37-0.58-0.55-1.13-0.55
		c-0.98,0-1.47,0.64-1.47,1.92v3.59h-1.94V71.41z"/>
	<path fill="#5A5A5A" d="M104.65,73.02c-0.41-0.3-0.75-0.46-1.04-0.46s-0.5,0.05-0.65,0.16c-0.15,0.12-0.22,0.26-0.22,0.42
		s0.07,0.3,0.22,0.4s0.49,0.24,1.03,0.43s0.95,0.38,1.2,0.57c0.51,0.35,0.77,0.88,0.77,1.57s-0.27,1.28-0.81,1.74
		c-0.55,0.47-1.25,0.7-2.1,0.7c-1.05,0-1.92-0.38-2.62-1.16l1.02-1.18c0.54,0.54,1.09,0.81,1.64,0.81c0.49,0,0.88-0.34,0.88-0.76
		c0-0.21-0.06-0.37-0.2-0.48c-0.13-0.1-0.48-0.26-1.04-0.46s-0.95-0.38-1.16-0.55c-0.46-0.32-0.69-0.8-0.69-1.45s0.23-1.17,0.7-1.59
		c0.46-0.41,1.09-0.62,1.87-0.62s1.5,0.25,2.16,0.74L104.65,73.02z"/>
	<path fill="#5A5A5A" d="M108.29,67.31c0.32,0,0.59,0.11,0.82,0.34s0.34,0.5,0.34,0.82s-0.12,0.6-0.34,0.83
		c-0.23,0.23-0.51,0.35-0.83,0.35s-0.59-0.12-0.82-0.34s-0.34-0.51-0.34-0.83s0.12-0.6,0.35-0.83
		C107.69,67.42,107.97,67.31,108.29,67.31z M109.23,71.41v6.93h-1.93v-6.93H109.23z"/>
	<path fill="#5A5A5A" d="M113.02,73.09v5.25h-1.94v-5.25h-0.77v-1.68h0.77v-2.37h1.94v2.37h1.38v1.68H113.02z"/>
	<path fill="#5A5A5A" d="M127.38,70.53c-0.81-0.8-1.7-1.2-2.65-1.2s-1.77,0.36-2.44,1.07c-0.68,0.71-1.02,1.59-1.02,2.63
		s0.34,1.91,1.02,2.6c0.67,0.7,1.52,1.04,2.52,1.04c0.5,0,0.95-0.09,1.34-0.27s0.8-0.48,1.23-0.9v2.45
		c-0.9,0.41-1.77,0.62-2.61,0.62c-1.58,0-2.91-0.53-4-1.6s-1.63-2.38-1.63-3.93s0.55-2.88,1.65-3.98s2.43-1.65,3.98-1.65
		c0.87,0,1.73,0.22,2.61,0.66V70.53z"/>
	<path fill="#5A5A5A" d="M132.59,71.19c1.16,0,2.11,0.34,2.84,1.02s1.09,1.57,1.09,2.66s-0.37,1.98-1.1,2.66
		c-0.74,0.68-1.7,1.02-2.88,1.02s-2.12-0.35-2.85-1.05s-1.09-1.58-1.09-2.66s0.38-1.97,1.12-2.65S131.42,71.19,132.59,71.19z
		 M132.56,72.93c-0.54,0-1,0.19-1.38,0.56s-0.58,0.84-0.58,1.38s0.19,1,0.57,1.38c0.38,0.38,0.84,0.57,1.38,0.57
		s1.01-0.19,1.39-0.57c0.38-0.38,0.57-0.83,0.57-1.37s-0.19-0.99-0.57-1.38S133.1,72.93,132.56,72.93z"/>
	<path fill="#5A5A5A" d="M144.38,74.78v3.55h-1.94v-3.68c0-0.54-0.04-0.92-0.12-1.13s-0.23-0.38-0.42-0.51s-0.41-0.19-0.62-0.19
		c-0.44,0-0.89,0.26-1.14,0.7c-0.12,0.22-0.19,0.64-0.18,1.26v3.55h-1.94v-6.93h1.94v0.8c0.6-0.68,1.34-1.02,2.21-1.02
		s1.56,0.42,2.05,1.26c0.55-0.84,1.28-1.27,2.21-1.27s1.59,0.34,2,1c0.24,0.4,0.37,0.95,0.37,1.68v4.48h-1.94v-3.79
		c0-0.5-0.05-0.87-0.16-1.11c-0.18-0.41-0.51-0.61-0.98-0.61C144.82,72.83,144.38,73.48,144.38,74.78z"/>
	<path fill="#5A5A5A" d="M157.01,74.78v3.55h-1.94v-3.68c0-0.54-0.04-0.92-0.12-1.13s-0.23-0.38-0.42-0.51s-0.41-0.19-0.62-0.19
		c-0.44,0-0.89,0.26-1.14,0.7c-0.12,0.22-0.19,0.64-0.18,1.26v3.55h-1.94v-6.93h1.94v0.8c0.6-0.68,1.34-1.02,2.21-1.02
		s1.56,0.42,2.05,1.26c0.55-0.84,1.28-1.27,2.21-1.27s1.59,0.34,2,1c0.24,0.4,0.37,0.95,0.37,1.68v4.48h-1.94v-3.79
		c0-0.5-0.05-0.87-0.16-1.11c-0.18-0.41-0.51-0.61-0.98-0.61C157.45,72.83,157.01,73.48,157.01,74.78z"/>
	<path fill="#5A5A5A" d="M164.23,67.31c0.32,0,0.59,0.11,0.82,0.34s0.34,0.5,0.34,0.82s-0.12,0.6-0.34,0.83
		c-0.23,0.23-0.51,0.35-0.83,0.35s-0.59-0.12-0.82-0.34s-0.34-0.51-0.34-0.83s0.12-0.6,0.35-0.83
		C163.62,67.42,163.91,67.31,164.23,67.31z M165.17,71.41v6.93h-1.93v-6.93H165.17z"/>
	<path fill="#5A5A5A" d="M170.79,73.02c-0.41-0.3-0.75-0.46-1.04-0.46s-0.5,0.05-0.65,0.16c-0.15,0.12-0.22,0.26-0.22,0.42
		s0.07,0.3,0.22,0.4s0.49,0.24,1.03,0.43s0.95,0.38,1.2,0.57c0.51,0.35,0.77,0.88,0.77,1.57s-0.27,1.28-0.81,1.74
		c-0.55,0.47-1.25,0.7-2.1,0.7c-1.05,0-1.92-0.38-2.62-1.16l1.02-1.18c0.54,0.54,1.09,0.81,1.64,0.81c0.49,0,0.88-0.34,0.88-0.76
		c0-0.21-0.06-0.37-0.2-0.48c-0.13-0.1-0.48-0.26-1.04-0.46s-0.95-0.38-1.16-0.55c-0.46-0.32-0.69-0.8-0.69-1.45s0.23-1.17,0.7-1.59
		c0.46-0.41,1.09-0.62,1.87-0.62s1.5,0.25,2.16,0.74L170.79,73.02z"/>
	<path fill="#5A5A5A" d="M177.22,73.02c-0.41-0.3-0.75-0.46-1.04-0.46s-0.5,0.05-0.65,0.16c-0.15,0.12-0.22,0.26-0.22,0.42
		s0.07,0.3,0.22,0.4s0.49,0.24,1.03,0.43s0.95,0.38,1.2,0.57c0.51,0.35,0.77,0.88,0.77,1.57s-0.27,1.28-0.81,1.74
		c-0.55,0.47-1.25,0.7-2.1,0.7c-1.05,0-1.92-0.38-2.62-1.16l1.02-1.18c0.54,0.54,1.09,0.81,1.64,0.81c0.49,0,0.88-0.34,0.88-0.76
		c0-0.21-0.06-0.37-0.2-0.48c-0.13-0.1-0.48-0.26-1.04-0.46s-0.95-0.38-1.16-0.55c-0.46-0.32-0.69-0.8-0.69-1.45s0.23-1.17,0.7-1.59
		c0.46-0.41,1.09-0.62,1.87-0.62s1.5,0.25,2.16,0.74L177.22,73.02z"/>
	<path fill="#5A5A5A" d="M180.86,67.31c0.32,0,0.59,0.11,0.82,0.34s0.34,0.5,0.34,0.82s-0.12,0.6-0.34,0.83
		c-0.23,0.23-0.51,0.35-0.83,0.35s-0.59-0.12-0.82-0.34s-0.34-0.51-0.34-0.83s0.12-0.6,0.35-0.83
		C180.26,67.42,180.54,67.31,180.86,67.31z M181.8,71.41v6.93h-1.93v-6.93H181.8z"/>
	<path fill="#5A5A5A" d="M187.25,71.19c1.16,0,2.11,0.34,2.84,1.02s1.09,1.57,1.09,2.66s-0.37,1.98-1.1,2.66
		c-0.74,0.68-1.7,1.02-2.88,1.02s-2.12-0.35-2.85-1.05s-1.09-1.58-1.09-2.66s0.38-1.97,1.12-2.65S186.09,71.19,187.25,71.19z
		 M187.23,72.93c-0.54,0-1,0.19-1.38,0.56s-0.58,0.84-0.58,1.38s0.19,1,0.57,1.38c0.38,0.38,0.84,0.57,1.38,0.57
		s1.01-0.19,1.39-0.57c0.38-0.38,0.57-0.83,0.57-1.37s-0.19-0.99-0.57-1.38S187.77,72.93,187.23,72.93z"/>
	<path fill="#5A5A5A" d="M192.67,71.41h1.94v0.87c0.59-0.79,1.23-1.09,2.17-1.09c0.85,0,1.52,0.27,2.02,0.83
		c0.37,0.41,0.55,1.05,0.55,1.92v4.4h-1.94v-3.84c0-0.53-0.06-0.91-0.2-1.12c-0.2-0.37-0.58-0.55-1.13-0.55
		c-0.98,0-1.47,0.64-1.47,1.92v3.59h-1.94V71.41z"/>
	<path fill="#5A5A5A" d="M209.62,70.7c0.61,0,1.13,0.22,1.56,0.66s0.65,0.96,0.65,1.57s-0.22,1.12-0.65,1.55s-0.95,0.65-1.56,0.65
		s-1.13-0.22-1.57-0.65s-0.66-0.95-0.66-1.56s0.22-1.14,0.66-1.57S209.02,70.7,209.62,70.7z"/>
	<path fill="#5A5A5A" d="M223.52,78.34h-2.09v-8.87h-2.38v-1.8h6.87v1.8h-2.4V78.34z"/>
	<path fill="#5A5A5A" d="M229.95,71.19c1.16,0,2.11,0.34,2.84,1.02s1.09,1.57,1.09,2.66s-0.37,1.98-1.1,2.66
		c-0.74,0.68-1.7,1.02-2.88,1.02s-2.12-0.35-2.85-1.05s-1.09-1.58-1.09-2.66s0.38-1.97,1.12-2.65S228.78,71.19,229.95,71.19z
		 M229.92,72.93c-0.54,0-1,0.19-1.38,0.56s-0.58,0.84-0.58,1.38s0.19,1,0.57,1.38c0.38,0.38,0.84,0.57,1.38,0.57
		s1.01-0.19,1.39-0.57c0.38-0.38,0.57-0.83,0.57-1.37s-0.19-0.99-0.57-1.38S230.46,72.93,229.92,72.93z"/>
	<path fill="#5A5A5A" d="M237.3,78.34h-1.94v-6.93h1.94v1.05c0.48-0.85,1.15-1.28,2.02-1.27c0.27,0,0.55,0.05,0.84,0.17l-0.27,1.8
		c-0.29-0.16-0.59-0.24-0.92-0.23c-1.11,0-1.66,0.7-1.66,2.08V78.34z"/>
	<path fill="#5A5A5A" d="M244.66,71.19c1.16,0,2.11,0.34,2.84,1.02s1.09,1.57,1.09,2.66s-0.37,1.98-1.1,2.66
		c-0.74,0.68-1.7,1.02-2.88,1.02s-2.12-0.35-2.85-1.05s-1.09-1.58-1.09-2.66s0.38-1.97,1.12-2.65S243.5,71.19,244.66,71.19z
		 M244.64,72.93c-0.54,0-1,0.19-1.38,0.56s-0.58,0.84-0.58,1.38s0.19,1,0.57,1.38c0.38,0.38,0.84,0.57,1.38,0.57
		s1.01-0.19,1.39-0.57c0.38-0.38,0.57-0.83,0.57-1.37s-0.19-0.99-0.57-1.38S245.18,72.93,244.64,72.93z"/>
	<path fill="#5A5A5A" d="M250.09,71.41h1.94v0.87c0.59-0.79,1.23-1.09,2.17-1.09c0.85,0,1.52,0.27,2.02,0.83
		c0.37,0.41,0.55,1.05,0.55,1.92v4.4h-1.94v-3.84c0-0.53-0.06-0.91-0.2-1.12c-0.2-0.37-0.58-0.55-1.13-0.55
		c-0.98,0-1.47,0.64-1.47,1.92v3.59h-1.94V71.41z"/>
	<path fill="#5A5A5A" d="M260.56,73.09v5.25h-1.94v-5.25h-0.77v-1.68h0.77v-2.37h1.94v2.37h1.38v1.68H260.56z"/>
	<path fill="#5A5A5A" d="M266.55,71.19c1.16,0,2.11,0.34,2.84,1.02s1.09,1.57,1.09,2.66s-0.37,1.98-1.1,2.66
		c-0.74,0.68-1.7,1.02-2.88,1.02s-2.12-0.35-2.85-1.05s-1.09-1.58-1.09-2.66s0.38-1.97,1.12-2.65S265.39,71.19,266.55,71.19z
		 M266.53,72.93c-0.54,0-1,0.19-1.38,0.56s-0.58,0.84-0.58,1.38s0.19,1,0.57,1.38c0.38,0.38,0.84,0.57,1.38,0.57
		s1.01-0.19,1.39-0.57c0.38-0.38,0.57-0.83,0.57-1.37s-0.19-0.99-0.57-1.38S267.07,72.93,266.53,72.93z"/>
	<path fill="#5A5A5A" d="M280.41,70.7c0.61,0,1.13,0.22,1.56,0.66s0.65,0.96,0.65,1.57s-0.22,1.12-0.65,1.55s-0.95,0.65-1.56,0.65
		s-1.13-0.22-1.57-0.65s-0.66-0.95-0.66-1.56s0.22-1.14,0.66-1.57S279.8,70.7,280.41,70.7z"/>
	<path fill="#5A5A5A" d="M297.75,76.53v1.8h-7.76l3.15-3.57c0.97-1.11,1.62-1.93,1.95-2.45s0.5-1.02,0.5-1.47s-0.16-0.84-0.47-1.15
		c-0.32-0.3-0.71-0.46-1.17-0.46s-0.84,0.16-1.11,0.46c-0.28,0.3-0.43,0.74-0.45,1.3h-2.23c0.07-1.11,0.45-1.98,1.12-2.63
		c0.67-0.65,1.55-0.97,2.62-0.97c1.07,0,1.97,0.33,2.69,0.98c0.71,0.66,1.07,1.51,1.07,2.56s-0.65,2.27-1.94,3.63l-1.86,1.97H297.75
		z"/>
	<path fill="#5A5A5A" d="M303.34,67.39c1.21,0,2.21,0.55,3.02,1.63c0.73,1.02,1.1,2.35,1.1,3.97s-0.37,2.95-1.1,3.98
		c-0.75,1.02-1.88,1.63-3.02,1.63c-1.24,0-2.24-0.53-3-1.59s-1.14-2.41-1.14-4.04s0.37-2.95,1.1-3.95
		C301.12,67.94,302.13,67.39,303.34,67.39z M303.34,69.23c-0.6,0-1.09,0.35-1.48,1.05s-0.59,1.6-0.59,2.7s0.2,2.01,0.58,2.72
		s0.88,1.06,1.48,1.06s1.1-0.35,1.48-1.05s0.57-1.61,0.57-2.71s-0.2-2.01-0.58-2.71S303.93,69.23,303.34,69.23z"/>
	<path fill="#5A5A5A" d="M315.89,76.53v1.8h-7.76l3.15-3.57c0.97-1.11,1.62-1.93,1.95-2.45s0.5-1.02,0.5-1.47s-0.16-0.84-0.47-1.15
		c-0.32-0.3-0.71-0.46-1.17-0.46s-0.84,0.16-1.11,0.46c-0.28,0.3-0.43,0.74-0.45,1.3h-2.23c0.07-1.11,0.45-1.98,1.12-2.63
		c0.67-0.65,1.55-0.97,2.62-0.97c1.07,0,1.97,0.33,2.69,0.98c0.71,0.66,1.07,1.51,1.07,2.56s-0.65,2.27-1.94,3.63l-1.86,1.97H315.89
		z"/>
	<path fill="#5A5A5A" d="M324.45,69.47h-3.52l-0.41,1.66c0.33-0.04,0.59-0.06,0.78-0.06c1.05,0,1.91,0.35,2.6,1.06
		s1.03,1.61,1.03,2.7s-0.39,1.99-1.16,2.7c-0.78,0.71-1.82,1.07-3.11,1.07s-2.4-0.46-3.31-1.39l0.69-1.81
		c0.78,0.91,1.67,1.36,2.67,1.36c0.6,0,1.11-0.2,1.52-0.6s0.62-0.88,0.62-1.47s-0.23-1.09-0.7-1.5s-1.05-0.62-1.75-0.62
		s-1.38,0.23-2.03,0.69h-0.11l1.27-5.6h4.93V69.47z"/>
</g>
</svg>
