<?xml version="1.0" encoding="iso-8859-1"?>
<!-- Generator: Adobe Illustrator 29.8.4, SVG Export Plug-In . SVG Version: 9.03 Build 0)  -->
<svg version="1.1" id="Layer_1" xmlns="http://www.w3.org/2000/svg" xmlns:xlink="http://www.w3.org/1999/xlink" x="0px" y="0px"
	 viewBox="0 0 1500 281" enable-background="new 0 0 1500 281" xml:space="preserve">
<rect id="bg-white" fill="#FFFFFF" width="1500" height="281"/>
<line fill="none" stroke="#834187" stroke-width="10" stroke-linecap="round" stroke-miterlimit="10" x1="90" y1="246" x2="1410" y2="246"/>
<circle fill="#FFFFFF" stroke="#000000" stroke-width="3" stroke-miterlimit="10" cx="90" cy="246" r="10"/>
<g>
	<path d="M88.79,226.02c0.33,0.09,0.63,0.04,0.9-0.15c0.27-0.19,0.69-0.69,1.28-1.5s1.11-1.38,1.57-1.7
		c0.76-0.53,1.68-0.65,2.78-0.36c1.1,0.29,1.9,0.91,2.4,1.84c0.51,0.93,0.6,2,0.28,3.21c-0.44,1.64-1.53,2.76-3.27,3.39l-1.02-1.84
		c1.17-0.27,1.91-0.94,2.2-2.01c0.14-0.52,0.1-0.99-0.11-1.41c-0.22-0.41-0.56-0.69-1.05-0.82c-0.48-0.13-0.92-0.03-1.33,0.31
		c-0.2,0.16-0.6,0.68-1.21,1.54c-0.6,0.87-1.21,1.45-1.79,1.76c-0.58,0.31-1.26,0.35-2.02,0.15c-0.98-0.26-1.69-0.82-2.14-1.67
		c-0.45-0.86-0.55-1.8-0.27-2.85c0.35-1.29,1.08-2.31,2.21-3.07l1.23,1.6c-0.78,0.38-1.26,0.93-1.44,1.63
		c-0.13,0.47-0.1,0.88,0.06,1.26S88.46,225.93,88.79,226.02z"/>
	<path d="M86.27,217.9l0.56-2.11l6.47,1.73c-0.64-0.84-0.84-1.73-0.58-2.68c0.25-0.95,0.76-1.6,1.51-1.95
		c0.58-0.27,1.34-0.28,2.28-0.03l4.73,1.27l-0.56,2.11l-4.12-1.1c-0.6-0.16-1.04-0.21-1.31-0.12c-0.47,0.12-0.78,0.48-0.94,1.07
		c-0.28,1.06,0.28,1.79,1.69,2.16l3.86,1.04l-0.56,2.11L86.27,217.9z"/>
	<path d="M100.34,203.8l-1.51,5.65c1.37,0.3,2.2-0.13,2.51-1.3c0.2-0.73,0.01-1.42-0.53-2.06l0.83-1.86
		c1.39,1.07,1.84,2.5,1.36,4.31c-0.33,1.23-0.96,2.11-1.88,2.65s-1.99,0.65-3.21,0.32c-1.21-0.33-2.09-0.94-2.62-1.86
		c-0.54-0.92-0.65-1.97-0.33-3.16c0.32-1.2,0.94-2.04,1.84-2.54s1.99-0.57,3.25-0.23L100.34,203.8z M97.5,209.02l0.96-3.57
		c-1.05-0.04-1.72,0.43-1.97,1.39C96.23,207.77,96.6,208.59,97.5,209.02z"/>
	<path d="M108.76,202.09l-0.56,2.11l-11.55-3.09l0.56-2.11l0.98,0.26c-0.63-0.87-0.82-1.81-0.54-2.83c0.27-1.02,0.89-1.78,1.84-2.29
		c0.96-0.51,2-0.61,3.14-0.31c1.14,0.3,1.99,0.92,2.58,1.83c0.58,0.91,0.74,1.87,0.47,2.87s-0.9,1.74-1.91,2.23L108.76,202.09z
		 M99.38,197.56c-0.16,0.59-0.08,1.13,0.21,1.66s0.74,0.86,1.33,1.02c0.59,0.16,1.14,0.09,1.66-0.22c0.53-0.3,0.86-0.74,1.02-1.32
		c0.15-0.58,0.08-1.13-0.22-1.66c-0.3-0.53-0.73-0.87-1.32-1.03s-1.13-0.08-1.66,0.22C99.87,196.54,99.54,196.97,99.38,197.56z"/>
	<path d="M111.41,192.2l-0.56,2.11l-11.55-3.09l0.56-2.11l0.98,0.26c-0.63-0.87-0.82-1.81-0.54-2.83c0.27-1.02,0.89-1.78,1.84-2.29
		c0.96-0.51,2-0.61,3.14-0.31c1.14,0.3,1.99,0.92,2.58,1.83c0.58,0.91,0.74,1.87,0.47,2.87c-0.27,0.99-0.9,1.74-1.91,2.23
		L111.41,192.2z M102.03,187.67c-0.16,0.59-0.08,1.13,0.21,1.66s0.74,0.86,1.33,1.02s1.14,0.09,1.66-0.22
		c0.53-0.3,0.86-0.74,1.02-1.32c0.16-0.58,0.09-1.13-0.22-1.66c-0.3-0.53-0.73-0.87-1.32-1.03s-1.13-0.08-1.66,0.22
		C102.52,186.65,102.19,187.08,102.03,187.67z"/>
	<path d="M103.5,175.55l0.56-2.11l7.53,2.02l-0.56,2.11l-0.98-0.26c0.63,0.87,0.82,1.81,0.54,2.84c-0.28,1.03-0.89,1.79-1.84,2.29
		s-2,0.6-3.13,0.3c-1.13-0.3-1.99-0.92-2.58-1.83c-0.58-0.91-0.74-1.87-0.47-2.87c0.27-1,0.9-1.74,1.9-2.22L103.5,175.55z
		 M104.65,177.87c-0.16,0.59-0.09,1.15,0.21,1.67c0.3,0.53,0.74,0.86,1.33,1.02c0.58,0.16,1.14,0.09,1.66-0.22
		c0.53-0.3,0.86-0.74,1.02-1.32c0.15-0.58,0.08-1.13-0.22-1.66c-0.3-0.52-0.73-0.86-1.32-1.02c-0.59-0.16-1.13-0.08-1.66,0.2
		C105.15,176.84,104.81,177.29,104.65,177.87z"/>
	<path d="M112.7,171.35l-0.56,2.11l-7.53-2.02l0.56-2.11l1.15,0.31c-0.79-0.77-1.06-1.62-0.8-2.56c0.08-0.3,0.22-0.59,0.43-0.87
		l1.88,0.82c-0.26,0.27-0.44,0.58-0.52,0.93c-0.32,1.21,0.27,2.01,1.77,2.41L112.7,171.35z"/>
	<path d="M102.32,158l0.56-2.11l13.02,3.49l-0.56,2.11l-0.98-0.26c0.63,0.87,0.82,1.81,0.54,2.84s-0.89,1.79-1.84,2.29
		s-2,0.6-3.13,0.3c-1.13-0.3-1.99-0.92-2.58-1.83c-0.58-0.91-0.74-1.87-0.47-2.87s0.9-1.74,1.9-2.22L102.32,158z M108.96,161.79
		c-0.16,0.59-0.09,1.15,0.21,1.67c0.3,0.53,0.74,0.86,1.33,1.02c0.58,0.16,1.14,0.09,1.66-0.22c0.53-0.3,0.86-0.74,1.02-1.32
		c0.15-0.58,0.08-1.13-0.22-1.66c-0.3-0.53-0.73-0.86-1.32-1.02s-1.13-0.08-1.66,0.2C109.46,160.76,109.12,161.21,108.96,161.79z"/>
	<path d="M111.66,155.77l1.94-7.23l1.75,0.47l-1.94,7.23L111.66,155.77z"/>
	<path d="M120.47,142.36l-0.61,2.26l-5.32-1.43l-7.35,2.32l0.72-2.67l4.7-1.42l-3.38-3.53l0.72-2.69l5.18,5.75L120.47,142.36z"/>
	<path d="M114.76,132.59c0.34-1.27,0.99-2.19,1.94-2.78c0.95-0.59,2.02-0.73,3.21-0.41c1.19,0.32,2.05,0.98,2.57,1.97
		c0.52,1,0.62,2.14,0.27,3.42c-0.34,1.28-1,2.21-1.97,2.79s-2.03,0.72-3.21,0.41c-1.18-0.32-2.03-0.98-2.55-1.99
		S114.42,133.86,114.76,132.59z M116.64,133.12c-0.16,0.59-0.09,1.14,0.21,1.67c0.3,0.53,0.74,0.87,1.33,1.03
		c0.58,0.16,1.14,0.09,1.66-0.22c0.53-0.3,0.87-0.75,1.02-1.34c0.16-0.58,0.09-1.15-0.21-1.68c-0.3-0.53-0.73-0.86-1.32-1.02
		s-1.13-0.08-1.66,0.22C117.14,132.09,116.8,132.54,116.64,133.12z"/>
	<path d="M116.57,126.76l0.56-2.11l0.94,0.25c-0.68-0.88-0.82-1.66-0.55-2.68c0.25-0.93,0.74-1.58,1.49-1.95
		c0.56-0.28,1.31-0.29,2.25-0.03l4.78,1.28l-0.56,2.11l-4.18-1.12c-0.58-0.15-1-0.2-1.27-0.11c-0.46,0.11-0.76,0.47-0.92,1.07
		c-0.28,1.06,0.27,1.78,1.66,2.16l3.9,1.04l-0.56,2.11L116.57,126.76z"/>
	<path d="M121.16,109.65l7.25,1.94c0.77,0.21,1.36,0.43,1.75,0.66c0.39,0.24,0.73,0.57,1.01,0.99c0.68,0.98,0.83,2.19,0.44,3.64
		c-0.39,1.45-1.24,2.42-2.54,2.89c-0.55,0.2-1.11,0.26-1.66,0.18l0.62-2.3c0.97,0.03,1.57-0.43,1.83-1.4
		c0.15-0.57,0.09-1.09-0.17-1.56c-0.25-0.4-0.73-0.7-1.44-0.9l-1.13-0.3c0.34,0.52,0.56,1,0.65,1.43c0.09,0.44,0.06,0.93-0.08,1.46
		c-0.28,1.03-0.87,1.79-1.79,2.27c-0.92,0.48-1.95,0.57-3.12,0.26c-1.16-0.31-2.04-0.92-2.62-1.82c-0.59-0.9-0.75-1.87-0.47-2.88
		c0.27-1.02,0.91-1.75,1.89-2.2l-0.98-0.26L121.16,109.65z M121.76,114.04c-0.16,0.59-0.08,1.13,0.21,1.66
		c0.3,0.53,0.74,0.86,1.33,1.02c0.58,0.16,1.14,0.09,1.66-0.22c0.53-0.3,0.86-0.74,1.02-1.32c0.15-0.58,0.08-1.13-0.22-1.66
		c-0.3-0.52-0.73-0.86-1.32-1.02s-1.13-0.09-1.66,0.21C122.25,113.02,121.92,113.45,121.76,114.04z"/>
	<path d="M127.81,101.26l-1.51,5.65c1.37,0.3,2.2-0.13,2.51-1.3c0.2-0.73,0.02-1.42-0.53-2.06l0.83-1.86
		c1.39,1.07,1.84,2.5,1.36,4.31c-0.33,1.23-0.96,2.11-1.88,2.65c-0.93,0.54-1.99,0.65-3.21,0.32s-2.09-0.94-2.62-1.86
		c-0.54-0.92-0.65-1.97-0.33-3.16c0.32-1.2,0.94-2.04,1.84-2.54c0.91-0.49,1.99-0.57,3.26-0.23L127.81,101.26z M124.98,106.48
		l0.96-3.57c-1.05-0.04-1.72,0.43-1.97,1.39C123.71,105.23,124.07,106.04,124.98,106.48z"/>
</g>
<circle fill="#FFFFFF" stroke="#000000" stroke-width="3" stroke-miterlimit="10" cx="420" cy="246" r="10"/>
<g>
	<path d="M426.85,230.49l-11.6-3.11l0.77-2.87c0.35-1.31,0.83-2.19,1.45-2.64c0.73-0.55,1.61-0.69,2.64-0.41
		c0.64,0.17,1.15,0.46,1.54,0.88c0.18,0.22,0.33,0.56,0.47,1.02c0.34-0.66,0.72-1.09,1.14-1.32c0.7-0.4,1.52-0.48,2.46-0.23
		s1.62,0.8,2.05,1.63c0.42,0.83,0.46,1.88,0.12,3.14L426.85,230.49z M420.69,226.42l0.17-0.64c0.31-1.17-0.03-1.89-1.03-2.16
		s-1.66,0.17-1.96,1.32l-0.18,0.68L420.69,226.42z M425.63,227.75l0.26-0.98c0.4-1.5,0.07-2.4-0.99-2.69
		c-0.59-0.16-1.08-0.04-1.47,0.33c-0.31,0.27-0.57,0.81-0.79,1.62l-0.23,0.85L425.63,227.75z"/>
	<path d="M423.43,213.13l0.56-2.11l7.53,2.02l-0.56,2.11l-0.98-0.26c0.63,0.87,0.82,1.81,0.54,2.84s-0.89,1.79-1.84,2.29
		c-0.95,0.5-2,0.6-3.13,0.3s-1.99-0.92-2.58-1.83c-0.58-0.91-0.74-1.87-0.47-2.87c0.27-1,0.9-1.74,1.9-2.22L423.43,213.13z
		 M424.59,215.45c-0.16,0.59-0.09,1.15,0.21,1.67c0.3,0.53,0.74,0.86,1.33,1.02s1.14,0.09,1.66-0.22c0.53-0.3,0.86-0.74,1.02-1.32
		c0.16-0.58,0.09-1.13-0.22-1.66c-0.3-0.53-0.73-0.86-1.32-1.02s-1.13-0.09-1.66,0.2C425.08,214.41,424.74,214.86,424.59,215.45z"/>
	<path d="M431.62,208.13l-7.34,1.85l0.66-2.45l4.88-1.11l-3.71-3.29l0.65-2.42l9.92,9.18l-0.64,2.39L431.62,208.13z"/>
	<path d="M427.4,198.32l4.79-0.84l-3.74-3.1l0.63-2.37l6.64,5.94l-0.25,0.95l-8.71,1.79L427.4,198.32z"/>
	<path d="M425.22,188.66c0.09-0.35,0.29-0.61,0.6-0.79c0.31-0.18,0.64-0.22,0.99-0.13c0.35,0.09,0.62,0.3,0.8,0.62
		c0.19,0.31,0.23,0.65,0.14,1c-0.09,0.35-0.3,0.61-0.61,0.79c-0.31,0.18-0.65,0.23-1,0.13c-0.35-0.09-0.62-0.3-0.8-0.62
		C425.17,189.34,425.13,189,425.22,188.66z M429.95,188.82l7.53,2.02l-0.56,2.1l-7.53-2.02L429.95,188.82z"/>
	<path d="M436.57,180.53l-1.51,5.65c1.37,0.3,2.2-0.13,2.51-1.3c0.2-0.73,0.01-1.42-0.53-2.06l0.83-1.86
		c1.39,1.07,1.84,2.5,1.36,4.31c-0.33,1.23-0.96,2.11-1.88,2.65c-0.93,0.54-1.99,0.65-3.21,0.32c-1.21-0.33-2.09-0.94-2.62-1.86
		c-0.54-0.92-0.65-1.97-0.33-3.16c0.32-1.2,0.94-2.04,1.84-2.54c0.91-0.49,1.99-0.57,3.25-0.23L436.57,180.53z M433.74,185.75
		l0.96-3.56c-1.05-0.04-1.72,0.43-1.97,1.39C432.47,184.5,432.83,185.32,433.74,185.75z"/>
	<path d="M433.17,176.81l4.88-0.81l-4-3.27l0.24-0.9l5.17-0.82l-3.88-3.19l0.63-2.35l6.64,5.96l-0.25,0.95l-5.11,0.81l4.03,3.23
		l-0.26,0.97l-8.72,1.8L433.17,176.81z"/>
</g>
<circle fill="#FFFFFF" stroke="#000000" stroke-width="3" stroke-miterlimit="10" cx="750" cy="246" r="10"/>
<g>
	<path d="M756.85,230.49l-11.6-3.11l0.77-2.87c0.35-1.31,0.83-2.19,1.45-2.64c0.73-0.55,1.61-0.69,2.64-0.41
		c0.64,0.17,1.15,0.46,1.54,0.88c0.18,0.22,0.33,0.56,0.47,1.02c0.34-0.66,0.72-1.09,1.14-1.32c0.7-0.4,1.52-0.48,2.46-0.23
		s1.62,0.8,2.05,1.63s0.46,1.88,0.12,3.14L756.85,230.49z M750.69,226.42l0.17-0.64c0.31-1.17-0.03-1.89-1.03-2.16
		s-1.66,0.17-1.96,1.32l-0.18,0.68L750.69,226.42z M755.63,227.75l0.26-0.98c0.4-1.5,0.07-2.4-0.99-2.69
		c-0.59-0.16-1.08-0.04-1.47,0.33c-0.31,0.27-0.57,0.81-0.79,1.62l-0.23,0.85L755.63,227.75z"/>
	<path d="M757.98,212.6l-1.51,5.65c1.37,0.3,2.2-0.13,2.51-1.3c0.2-0.73,0.01-1.42-0.53-2.06l0.83-1.86
		c1.39,1.07,1.84,2.5,1.36,4.31c-0.33,1.23-0.96,2.11-1.88,2.65c-0.93,0.54-1.99,0.65-3.21,0.32s-2.09-0.94-2.62-1.86
		c-0.54-0.92-0.65-1.97-0.33-3.16c0.32-1.2,0.94-2.04,1.84-2.54c0.91-0.49,1.99-0.57,3.25-0.23L757.98,212.6z M755.14,217.82
		l0.96-3.57c-1.05-0.04-1.72,0.43-1.97,1.39C753.88,216.57,754.24,217.38,755.14,217.82z"/>
	<path d="M757.13,206.37c-0.45,0.35-0.72,0.68-0.8,1c-0.08,0.31-0.09,0.56-0.01,0.75c0.08,0.2,0.22,0.31,0.39,0.36
		c0.18,0.05,0.34,0.01,0.5-0.12s0.41-0.46,0.77-1c0.36-0.53,0.68-0.92,0.97-1.14c0.53-0.45,1.17-0.58,1.93-0.37
		c0.76,0.2,1.31,0.67,1.66,1.39c0.35,0.73,0.4,1.56,0.15,2.49c-0.31,1.14-0.98,1.98-2.02,2.52l-0.99-1.45
		c0.74-0.43,1.2-0.94,1.36-1.55c0.14-0.54-0.12-1.06-0.57-1.18c-0.23-0.06-0.42-0.04-0.58,0.07c-0.15,0.12-0.42,0.44-0.8,1
		c-0.38,0.55-0.69,0.92-0.93,1.11c-0.48,0.41-1.07,0.51-1.77,0.33c-0.71-0.19-1.21-0.6-1.52-1.23c-0.32-0.62-0.36-1.36-0.13-2.21
		c0.23-0.85,0.71-1.56,1.44-2.14L757.13,206.37z"/>
	<path d="M759,199.39c-0.45,0.35-0.72,0.68-0.8,1c-0.08,0.31-0.09,0.56-0.01,0.75c0.08,0.2,0.22,0.31,0.39,0.36
		c0.18,0.05,0.34,0.01,0.5-0.12s0.41-0.46,0.77-1c0.36-0.53,0.68-0.92,0.97-1.14c0.53-0.45,1.17-0.58,1.93-0.38
		c0.76,0.2,1.31,0.67,1.66,1.39c0.35,0.73,0.4,1.56,0.15,2.49c-0.31,1.14-0.98,1.98-2.02,2.52l-0.99-1.45
		c0.74-0.43,1.2-0.94,1.36-1.55c0.14-0.54-0.12-1.06-0.57-1.18c-0.23-0.06-0.42-0.04-0.58,0.07c-0.15,0.11-0.42,0.44-0.8,1
		c-0.38,0.55-0.69,0.92-0.93,1.11c-0.48,0.41-1.07,0.51-1.77,0.33c-0.71-0.19-1.21-0.6-1.52-1.23c-0.32-0.62-0.36-1.36-0.13-2.21
		s0.71-1.56,1.44-2.14L759,199.39z"/>
	<path d="M759.58,190.21l0.56-2.11l7.53,2.02l-0.56,2.11l-0.98-0.26c0.63,0.87,0.82,1.81,0.54,2.84c-0.28,1.03-0.89,1.79-1.84,2.29
		s-2,0.6-3.13,0.3c-1.13-0.3-1.99-0.92-2.58-1.83c-0.58-0.91-0.74-1.87-0.47-2.87s0.9-1.74,1.9-2.22L759.58,190.21z M760.73,192.53
		c-0.16,0.59-0.09,1.15,0.21,1.67c0.3,0.53,0.74,0.86,1.33,1.02s1.14,0.09,1.66-0.22c0.53-0.3,0.86-0.74,1.02-1.32
		c0.15-0.58,0.08-1.13-0.22-1.66c-0.3-0.53-0.73-0.86-1.32-1.02s-1.13-0.08-1.66,0.2C761.22,191.49,760.88,191.94,760.73,192.53z"/>
	<path d="M768.77,186l-0.56,2.11l-7.53-2.02l0.56-2.11l1.15,0.31c-0.79-0.77-1.06-1.62-0.8-2.56c0.08-0.3,0.22-0.59,0.43-0.87
		l1.88,0.82c-0.26,0.27-0.44,0.58-0.52,0.93c-0.32,1.21,0.27,2.01,1.77,2.41L768.77,186z"/>
	<path d="M758.21,177.52c0.09-0.35,0.29-0.61,0.6-0.79c0.31-0.18,0.64-0.22,0.99-0.13c0.35,0.09,0.62,0.3,0.8,0.62
		c0.19,0.31,0.23,0.65,0.14,1c-0.09,0.35-0.3,0.61-0.61,0.79c-0.31,0.18-0.65,0.23-1,0.13c-0.35-0.09-0.62-0.3-0.8-0.62
		C758.15,178.2,758.11,177.87,758.21,177.52z M762.93,177.68l7.53,2.02l-0.56,2.1l-7.53-2.02L762.93,177.68z"/>
	<path d="M764.28,171.7c0.34-1.27,0.99-2.19,1.94-2.78c0.95-0.59,2.02-0.73,3.21-0.41s2.05,0.98,2.57,1.97
		c0.52,1,0.62,2.14,0.28,3.42c-0.34,1.28-1,2.21-1.97,2.79c-0.97,0.59-2.03,0.72-3.21,0.4c-1.18-0.32-2.03-0.98-2.55-1.99
		C764.02,174.11,763.94,172.97,764.28,171.7z M766.17,172.24c-0.16,0.59-0.09,1.14,0.21,1.67c0.3,0.53,0.74,0.87,1.33,1.03
		c0.59,0.16,1.14,0.09,1.66-0.22c0.53-0.3,0.87-0.75,1.02-1.34c0.16-0.59,0.09-1.15-0.21-1.68c-0.3-0.53-0.73-0.86-1.32-1.02
		s-1.13-0.09-1.66,0.22S766.32,171.65,766.17,172.24z"/>
	<path d="M766.09,165.88l0.56-2.11l0.94,0.25c-0.68-0.88-0.82-1.66-0.55-2.68c0.25-0.93,0.74-1.58,1.49-1.95
		c0.56-0.28,1.31-0.29,2.25-0.04l4.78,1.28l-0.56,2.11l-4.18-1.12c-0.58-0.16-1-0.2-1.27-0.11c-0.46,0.11-0.76,0.47-0.92,1.07
		c-0.28,1.06,0.27,1.78,1.66,2.16l3.9,1.04l-0.56,2.11L766.09,165.88z"/>
</g>
<circle fill="#FFFFFF" stroke="#000000" stroke-width="3" stroke-miterlimit="10" cx="1080" cy="246" r="10"/>
<g>
	<path d="M1075.86,225.13l9.64,2.58l0.96-3.57l1.96,0.53l-1.56,5.82l-11.6-3.11L1075.86,225.13z"/>
	<path d="M1087.33,215.02l-1.51,5.65c1.37,0.3,2.2-0.13,2.51-1.3c0.2-0.73,0.02-1.42-0.53-2.06l0.83-1.86
		c1.39,1.07,1.84,2.5,1.36,4.31c-0.33,1.23-0.96,2.11-1.88,2.65c-0.93,0.54-1.99,0.65-3.21,0.32c-1.21-0.33-2.09-0.94-2.62-1.86
		c-0.54-0.92-0.65-1.97-0.33-3.16c0.32-1.2,0.94-2.04,1.84-2.54c0.91-0.49,1.99-0.57,3.25-0.23L1087.33,215.02z M1084.5,220.24
		l0.96-3.57c-1.05-0.04-1.72,0.43-1.97,1.39C1083.23,218.99,1083.59,219.8,1084.5,220.24z"/>
	<path d="M1086.48,208.79c-0.45,0.35-0.72,0.68-0.8,1c-0.08,0.31-0.09,0.56-0.01,0.75c0.08,0.2,0.22,0.31,0.39,0.36
		c0.18,0.05,0.34,0.01,0.5-0.12s0.41-0.46,0.77-1c0.36-0.53,0.68-0.92,0.97-1.14c0.53-0.45,1.17-0.58,1.93-0.38
		c0.76,0.2,1.31,0.67,1.66,1.39c0.35,0.73,0.4,1.56,0.15,2.49c-0.3,1.14-0.98,1.98-2.02,2.52l-0.99-1.45
		c0.74-0.43,1.2-0.94,1.36-1.55c0.14-0.53-0.12-1.06-0.57-1.18c-0.23-0.06-0.42-0.04-0.57,0.07c-0.15,0.11-0.42,0.44-0.8,1
		c-0.38,0.55-0.69,0.92-0.93,1.11c-0.48,0.41-1.07,0.51-1.77,0.33s-1.21-0.6-1.52-1.23c-0.32-0.62-0.35-1.36-0.13-2.21
		c0.23-0.85,0.71-1.56,1.44-2.13L1086.48,208.79z"/>
	<path d="M1080.58,201.82l13.02,3.49l-0.56,2.11l-13.02-3.49L1080.58,201.82z"/>
	<path d="M1082.44,199.06c0.09-0.35,0.29-0.61,0.6-0.79c0.31-0.18,0.64-0.22,0.99-0.13c0.35,0.09,0.62,0.3,0.8,0.62
		c0.19,0.31,0.23,0.65,0.14,1c-0.09,0.35-0.3,0.61-0.61,0.79c-0.31,0.18-0.65,0.23-1,0.13c-0.35-0.09-0.62-0.3-0.8-0.62
		C1082.38,199.74,1082.34,199.4,1082.44,199.06z M1087.16,199.22l7.53,2.02l-0.56,2.1l-7.53-2.02L1087.16,199.22z"/>
	<path d="M1093.78,190.93l-1.51,5.64c1.37,0.3,2.2-0.13,2.51-1.3c0.2-0.73,0.02-1.42-0.53-2.06l0.83-1.86
		c1.39,1.07,1.84,2.5,1.36,4.31c-0.33,1.23-0.96,2.11-1.88,2.65c-0.93,0.54-1.99,0.65-3.21,0.32c-1.21-0.33-2.09-0.94-2.62-1.86
		c-0.54-0.92-0.65-1.96-0.33-3.16c0.32-1.2,0.94-2.04,1.84-2.54c0.91-0.49,1.99-0.57,3.25-0.23L1093.78,190.93z M1090.95,196.15
		l0.96-3.57c-1.05-0.04-1.72,0.43-1.97,1.39C1089.68,194.9,1090.05,195.72,1090.95,196.15z"/>
</g>
<circle fill="#FFFFFF" stroke="#000000" stroke-width="3" stroke-miterlimit="10" cx="1410" cy="246" r="10"/>
<g>
	<path d="M1416.85,230.49l-11.6-3.11l0.89-3.32c0.45-1.69,1.27-2.95,2.45-3.79c0.71-0.51,1.5-0.84,2.38-1
		c0.88-0.16,1.75-0.11,2.62,0.12c0.87,0.23,1.64,0.64,2.33,1.22c0.69,0.58,1.21,1.28,1.58,2.09c0.61,1.29,0.69,2.79,0.23,4.49
		L1416.85,230.49z M1415.5,227.71l0.16-0.61c0.37-1.38,0.34-2.49-0.1-3.34c-0.48-0.97-1.47-1.74-2.58-2.04
		c-1.18-0.32-2.26-0.16-3.22,0.48c-0.81,0.53-1.4,1.47-1.77,2.84l-0.16,0.61L1415.5,227.71z"/>
	<path d="M1413.16,213.2c0.34-1.26,0.99-2.19,1.94-2.78c0.95-0.59,2.02-0.73,3.21-0.41c1.19,0.32,2.05,0.98,2.57,1.97
		c0.52,1,0.62,2.14,0.28,3.42c-0.34,1.28-1,2.21-1.97,2.79c-0.97,0.59-2.03,0.72-3.21,0.4c-1.18-0.32-2.03-0.98-2.55-1.98
		C1412.91,215.61,1412.82,214.46,1413.16,213.2z M1415.05,213.73c-0.16,0.59-0.09,1.14,0.21,1.67c0.3,0.53,0.74,0.87,1.33,1.03
		c0.59,0.16,1.14,0.09,1.66-0.22c0.53-0.3,0.87-0.75,1.02-1.34s0.09-1.15-0.21-1.68c-0.3-0.53-0.73-0.86-1.32-1.02
		s-1.13-0.08-1.66,0.22C1415.54,212.7,1415.2,213.15,1415.05,213.73z"/>
	<path d="M1414.98,207.37l0.56-2.11l0.94,0.25c-0.68-0.87-0.82-1.66-0.55-2.68c0.25-0.93,0.74-1.58,1.49-1.95
		c0.56-0.28,1.31-0.29,2.25-0.03l4.78,1.28l-0.56,2.11l-4.18-1.12c-0.58-0.16-1-0.2-1.27-0.11c-0.46,0.11-0.76,0.47-0.92,1.07
		c-0.28,1.06,0.27,1.78,1.66,2.16l3.9,1.04l-0.56,2.11L1414.98,207.37z"/>
	<path d="M1426.07,196.08l-11.23-5.32l0.41-1.54l8.43-1.13l-6.7-5.32l0.42-1.56l12.33,1.23l-0.61,2.28l-7.43-0.87l6.45,5.13
		l-0.17,0.63l-8.13,1.13l6.84,3.08L1426.07,196.08z"/>
	<path d="M1418.49,176.45c0.09-0.35,0.29-0.61,0.6-0.79c0.31-0.18,0.64-0.22,0.99-0.13c0.35,0.09,0.62,0.3,0.8,0.62
		c0.19,0.31,0.23,0.65,0.14,1c-0.09,0.35-0.3,0.61-0.61,0.79c-0.31,0.18-0.65,0.23-1,0.13c-0.35-0.09-0.62-0.3-0.8-0.62
		C1418.44,177.13,1418.4,176.8,1418.49,176.45z M1423.22,176.61l7.53,2.02l-0.56,2.1l-7.53-2.02L1423.22,176.61z"/>
	<path d="M1418.82,171.05l13.02,3.49l-0.56,2.11l-13.02-3.49L1418.82,171.05z"/>
	<path d="M1419.92,166.93l13.02,3.49l-0.56,2.11l-13.02-3.49L1419.92,166.93z"/>
	<path d="M1428.82,162.75c-0.45,0.35-0.72,0.68-0.8,0.99c-0.08,0.31-0.09,0.56-0.01,0.75c0.08,0.2,0.22,0.31,0.39,0.36
		s0.34,0.01,0.5-0.12c0.15-0.13,0.41-0.46,0.77-1c0.36-0.53,0.68-0.92,0.97-1.14c0.53-0.45,1.17-0.58,1.93-0.38
		c0.76,0.2,1.31,0.67,1.66,1.39c0.35,0.73,0.4,1.56,0.15,2.49c-0.3,1.14-0.98,1.98-2.02,2.52l-0.99-1.45
		c0.74-0.43,1.2-0.94,1.36-1.55c0.14-0.54-0.12-1.06-0.57-1.18c-0.23-0.06-0.42-0.04-0.58,0.07c-0.15,0.11-0.42,0.44-0.8,0.99
		c-0.38,0.55-0.69,0.92-0.93,1.11c-0.48,0.41-1.07,0.52-1.77,0.33c-0.71-0.19-1.21-0.6-1.52-1.23c-0.32-0.62-0.35-1.36-0.13-2.21
		c0.23-0.85,0.71-1.56,1.44-2.14L1428.82,162.75z"/>
</g>
<g>
	<path fill="#9B9B9B" d="M691.86,274.58v-7.16h3.17c0.64,0,1.12,0.06,1.46,0.19c0.33,0.13,0.6,0.36,0.8,0.68s0.3,0.69,0.3,1.08
		c0,0.51-0.16,0.94-0.49,1.28s-0.84,0.57-1.52,0.66c0.25,0.12,0.44,0.24,0.57,0.36c0.28,0.25,0.54,0.57,0.79,0.95l1.25,1.95h-1.19
		l-0.95-1.49c-0.28-0.43-0.5-0.76-0.68-0.99s-0.34-0.39-0.48-0.48s-0.29-0.15-0.43-0.19c-0.11-0.02-0.28-0.03-0.53-0.03h-1.1v3.18
		H691.86z M692.81,270.58h2.04c0.43,0,0.77-0.04,1.02-0.13c0.24-0.09,0.43-0.23,0.56-0.43c0.13-0.2,0.19-0.41,0.19-0.64
		c0-0.34-0.12-0.62-0.37-0.83s-0.63-0.33-1.16-0.33h-2.27V270.58z"/>
	<path fill="#9B9B9B" d="M702.34,273.94c-0.33,0.28-0.64,0.47-0.94,0.59s-0.62,0.17-0.97,0.17c-0.57,0-1.01-0.14-1.31-0.42
		c-0.31-0.28-0.46-0.63-0.46-1.07c0-0.25,0.06-0.49,0.17-0.7c0.12-0.21,0.27-0.38,0.45-0.51s0.4-0.22,0.63-0.29
		c0.17-0.05,0.43-0.09,0.78-0.13c0.71-0.08,1.23-0.19,1.57-0.3c0-0.12,0-0.2,0-0.23c0-0.36-0.08-0.61-0.25-0.76
		c-0.22-0.2-0.56-0.3-1-0.3c-0.41,0-0.72,0.07-0.92,0.22c-0.2,0.14-0.34,0.4-0.44,0.77l-0.86-0.12c0.08-0.37,0.21-0.67,0.39-0.89
		c0.18-0.23,0.44-0.4,0.78-0.52c0.34-0.12,0.73-0.18,1.18-0.18c0.44,0,0.8,0.05,1.08,0.16s0.48,0.24,0.61,0.39
		c0.13,0.16,0.22,0.36,0.27,0.6c0.03,0.15,0.04,0.42,0.04,0.81v1.17c0,0.82,0.02,1.33,0.06,1.55c0.04,0.22,0.11,0.42,0.22,0.62
		h-0.92C702.43,274.4,702.37,274.19,702.34,273.94z M702.27,271.98c-0.32,0.13-0.8,0.24-1.44,0.33c-0.36,0.05-0.62,0.11-0.77,0.18
		s-0.27,0.16-0.35,0.29c-0.08,0.12-0.12,0.26-0.12,0.42c0,0.23,0.09,0.43,0.27,0.59s0.44,0.23,0.78,0.23c0.34,0,0.64-0.07,0.9-0.22
		c0.26-0.15,0.46-0.35,0.58-0.61c0.09-0.2,0.14-0.49,0.14-0.88V271.98z"/>
	<path fill="#9B9B9B" d="M704.52,268.43v-1.01h0.88v1.01H704.52z M704.52,274.58v-5.19h0.88v5.19H704.52z"/>
	<path fill="#9B9B9B" d="M706.72,274.58v-7.16h0.88v7.16H706.72z"/>
	<path fill="#9B9B9B" d="M711.9,274.58v-7.16h4.83v0.84h-3.88v2.22h3.36v0.84h-3.36v3.25H711.9z"/>
	<path fill="#9B9B9B" d="M721.23,273.94c-0.33,0.28-0.64,0.47-0.94,0.59s-0.62,0.17-0.97,0.17c-0.57,0-1.01-0.14-1.31-0.42
		c-0.31-0.28-0.46-0.63-0.46-1.07c0-0.25,0.06-0.49,0.17-0.7c0.12-0.21,0.27-0.38,0.45-0.51s0.4-0.22,0.63-0.29
		c0.17-0.05,0.43-0.09,0.78-0.13c0.71-0.08,1.23-0.19,1.57-0.3c0-0.12,0-0.2,0-0.23c0-0.36-0.08-0.61-0.25-0.76
		c-0.22-0.2-0.56-0.3-1-0.3c-0.41,0-0.72,0.07-0.92,0.22c-0.2,0.14-0.34,0.4-0.44,0.77l-0.86-0.12c0.08-0.37,0.21-0.67,0.39-0.89
		c0.18-0.23,0.44-0.4,0.78-0.52c0.34-0.12,0.73-0.18,1.18-0.18c0.44,0,0.8,0.05,1.08,0.16s0.48,0.24,0.61,0.39
		c0.13,0.16,0.22,0.36,0.27,0.6c0.03,0.15,0.04,0.42,0.04,0.81v1.17c0,0.82,0.02,1.33,0.06,1.55c0.04,0.22,0.11,0.42,0.22,0.62
		h-0.92C721.32,274.4,721.26,274.19,721.23,273.94z M721.16,271.98c-0.32,0.13-0.8,0.24-1.44,0.33c-0.36,0.05-0.62,0.11-0.77,0.18
		s-0.27,0.16-0.35,0.29c-0.08,0.12-0.12,0.26-0.12,0.42c0,0.23,0.09,0.43,0.27,0.59s0.44,0.23,0.78,0.23c0.34,0,0.64-0.07,0.9-0.22
		c0.26-0.15,0.46-0.35,0.58-0.61c0.09-0.2,0.14-0.49,0.14-0.88V271.98z"/>
	<path fill="#9B9B9B" d="M723.41,274.58v-5.19h0.79v0.74c0.38-0.57,0.93-0.85,1.65-0.85c0.31,0,0.6,0.06,0.86,0.17
		c0.26,0.11,0.46,0.26,0.59,0.44s0.22,0.4,0.27,0.65c0.03,0.16,0.05,0.45,0.05,0.85v3.19h-0.88v-3.15c0-0.36-0.03-0.63-0.1-0.8
		c-0.07-0.18-0.19-0.32-0.36-0.43c-0.17-0.11-0.38-0.16-0.61-0.16c-0.37,0-0.7,0.12-0.97,0.36s-0.41,0.69-0.41,1.35v2.83H723.41z"/>
	<path fill="#9B9B9B" d="M728.62,273.03l0.87-0.14c0.05,0.35,0.18,0.62,0.41,0.8s0.53,0.28,0.94,0.28c0.4,0,0.7-0.08,0.9-0.25
		c0.2-0.17,0.29-0.36,0.29-0.58c0-0.2-0.09-0.35-0.26-0.47c-0.12-0.08-0.42-0.18-0.9-0.3c-0.64-0.16-1.09-0.3-1.34-0.42
		c-0.25-0.12-0.44-0.28-0.57-0.49c-0.13-0.21-0.19-0.44-0.19-0.7c0-0.23,0.05-0.45,0.16-0.64c0.11-0.2,0.25-0.36,0.43-0.49
		c0.14-0.1,0.32-0.19,0.56-0.26c0.24-0.07,0.49-0.11,0.76-0.11c0.41,0,0.76,0.06,1.07,0.18s0.53,0.28,0.68,0.48
		c0.15,0.2,0.25,0.47,0.3,0.8l-0.86,0.12c-0.04-0.27-0.15-0.48-0.34-0.62s-0.45-0.22-0.79-0.22c-0.4,0-0.69,0.07-0.86,0.2
		s-0.26,0.29-0.26,0.47c0,0.11,0.04,0.22,0.11,0.31c0.07,0.09,0.18,0.17,0.34,0.23c0.09,0.03,0.35,0.11,0.78,0.22
		c0.62,0.17,1.06,0.3,1.3,0.41c0.25,0.11,0.44,0.26,0.58,0.46s0.21,0.45,0.21,0.75c0,0.29-0.09,0.57-0.26,0.83
		c-0.17,0.26-0.42,0.46-0.74,0.6c-0.32,0.14-0.69,0.21-1.09,0.21c-0.67,0-1.19-0.14-1.54-0.42S728.72,273.58,728.62,273.03z"/>
	<path fill="#9B9B9B" d="M741.97,272.07l0.95,0.24c-0.2,0.78-0.56,1.37-1.07,1.78c-0.52,0.41-1.15,0.61-1.89,0.61
		c-0.77,0-1.4-0.16-1.88-0.47c-0.48-0.31-0.85-0.77-1.1-1.36s-0.38-1.24-0.38-1.92c0-0.75,0.14-1.4,0.43-1.95
		c0.28-0.55,0.69-0.98,1.22-1.26c0.53-0.29,1.1-0.43,1.74-0.43c0.72,0,1.32,0.18,1.81,0.55s0.83,0.88,1.02,1.54l-0.93,0.22
		c-0.17-0.52-0.41-0.9-0.72-1.14s-0.71-0.36-1.19-0.36c-0.55,0-1.01,0.13-1.38,0.4s-0.63,0.62-0.78,1.06
		c-0.15,0.44-0.22,0.9-0.22,1.37c0,0.61,0.09,1.14,0.27,1.59c0.18,0.45,0.45,0.79,0.83,1.02s0.78,0.34,1.22,0.34
		c0.53,0,0.98-0.15,1.35-0.46S741.84,272.67,741.97,272.07z"/>
	<path fill="#9B9B9B" d="M747.36,273.94c-0.33,0.28-0.64,0.47-0.94,0.59s-0.62,0.17-0.97,0.17c-0.57,0-1.01-0.14-1.31-0.42
		c-0.31-0.28-0.46-0.63-0.46-1.07c0-0.25,0.06-0.49,0.17-0.7c0.12-0.21,0.27-0.38,0.45-0.51s0.4-0.22,0.63-0.29
		c0.17-0.05,0.43-0.09,0.78-0.13c0.71-0.08,1.23-0.19,1.57-0.3c0-0.12,0-0.2,0-0.23c0-0.36-0.08-0.61-0.25-0.76
		c-0.22-0.2-0.56-0.3-1-0.3c-0.41,0-0.72,0.07-0.92,0.22c-0.2,0.14-0.34,0.4-0.44,0.77l-0.86-0.12c0.08-0.37,0.21-0.67,0.39-0.89
		c0.18-0.23,0.44-0.4,0.78-0.52c0.34-0.12,0.73-0.18,1.18-0.18c0.44,0,0.8,0.05,1.08,0.16s0.48,0.24,0.61,0.39
		c0.13,0.16,0.22,0.36,0.27,0.6c0.03,0.15,0.04,0.42,0.04,0.81v1.17c0,0.82,0.02,1.33,0.06,1.55c0.04,0.22,0.11,0.42,0.22,0.62
		h-0.92C747.44,274.4,747.38,274.19,747.36,273.94z M747.28,271.98c-0.32,0.13-0.8,0.24-1.44,0.33c-0.36,0.05-0.62,0.11-0.77,0.18
		s-0.27,0.16-0.35,0.29c-0.08,0.12-0.12,0.26-0.12,0.42c0,0.23,0.09,0.43,0.27,0.59s0.44,0.23,0.78,0.23c0.34,0,0.64-0.07,0.9-0.22
		c0.26-0.15,0.46-0.35,0.58-0.61c0.09-0.2,0.14-0.49,0.14-0.88V271.98z"/>
	<path fill="#9B9B9B" d="M749.53,274.58v-5.19h0.79v0.74c0.38-0.57,0.93-0.85,1.65-0.85c0.31,0,0.6,0.06,0.86,0.17
		c0.26,0.11,0.46,0.26,0.59,0.44c0.13,0.18,0.22,0.4,0.27,0.65c0.03,0.16,0.05,0.45,0.05,0.85v3.19h-0.88v-3.15
		c0-0.36-0.04-0.63-0.1-0.8c-0.07-0.18-0.19-0.32-0.36-0.43c-0.17-0.11-0.38-0.16-0.61-0.16c-0.37,0-0.7,0.12-0.97,0.36
		c-0.27,0.24-0.41,0.69-0.41,1.35v2.83H749.53z"/>
	<path fill="#9B9B9B" d="M758.48,273.94c-0.33,0.28-0.64,0.47-0.94,0.59s-0.62,0.17-0.97,0.17c-0.57,0-1.01-0.14-1.31-0.42
		c-0.31-0.28-0.46-0.63-0.46-1.07c0-0.25,0.06-0.49,0.17-0.7c0.12-0.21,0.27-0.38,0.45-0.51s0.4-0.22,0.63-0.29
		c0.17-0.05,0.43-0.09,0.78-0.13c0.71-0.08,1.23-0.19,1.57-0.3c0-0.12,0-0.2,0-0.23c0-0.36-0.08-0.61-0.25-0.76
		c-0.22-0.2-0.56-0.3-1-0.3c-0.41,0-0.72,0.07-0.92,0.22c-0.2,0.14-0.34,0.4-0.44,0.77l-0.86-0.12c0.08-0.37,0.21-0.67,0.38-0.89
		c0.18-0.23,0.44-0.4,0.78-0.52c0.34-0.12,0.73-0.18,1.18-0.18c0.44,0,0.8,0.05,1.08,0.16c0.28,0.1,0.48,0.24,0.61,0.39
		c0.13,0.16,0.22,0.36,0.27,0.6c0.03,0.15,0.04,0.42,0.04,0.81v1.17c0,0.82,0.02,1.33,0.06,1.55c0.04,0.22,0.11,0.42,0.22,0.62
		h-0.92C758.56,274.4,758.5,274.19,758.48,273.94z M758.41,271.98c-0.32,0.13-0.8,0.24-1.44,0.33c-0.36,0.05-0.62,0.11-0.77,0.18
		c-0.15,0.07-0.26,0.16-0.35,0.29c-0.08,0.12-0.12,0.26-0.12,0.42c0,0.23,0.09,0.43,0.27,0.59s0.44,0.23,0.78,0.23
		c0.34,0,0.64-0.07,0.9-0.22c0.26-0.15,0.46-0.35,0.58-0.61c0.09-0.2,0.14-0.49,0.14-0.88V271.98z"/>
	<path fill="#9B9B9B" d="M764.02,274.58v-0.65c-0.33,0.51-0.81,0.77-1.45,0.77c-0.41,0-0.79-0.11-1.14-0.34s-0.62-0.55-0.81-0.96
		c-0.19-0.41-0.29-0.88-0.29-1.41c0-0.52,0.09-0.99,0.26-1.41c0.17-0.42,0.43-0.75,0.78-0.97c0.34-0.22,0.73-0.34,1.16-0.34
		c0.31,0,0.59,0.07,0.84,0.2c0.24,0.13,0.44,0.3,0.6,0.52v-2.57h0.87v7.16H764.02z M761.24,271.99c0,0.66,0.14,1.16,0.42,1.49
		c0.28,0.33,0.61,0.49,0.99,0.49c0.38,0,0.71-0.16,0.98-0.47c0.27-0.31,0.4-0.79,0.4-1.44c0-0.71-0.14-1.23-0.41-1.56
		s-0.61-0.5-1.01-0.5c-0.39,0-0.72,0.16-0.98,0.48S761.24,271.31,761.24,271.99z"/>
	<path fill="#9B9B9B" d="M769.6,273.94c-0.33,0.28-0.64,0.47-0.94,0.59s-0.62,0.17-0.97,0.17c-0.57,0-1.01-0.14-1.31-0.42
		c-0.31-0.28-0.46-0.63-0.46-1.07c0-0.25,0.06-0.49,0.17-0.7c0.12-0.21,0.27-0.38,0.45-0.51s0.4-0.22,0.63-0.29
		c0.17-0.05,0.43-0.09,0.78-0.13c0.71-0.08,1.23-0.19,1.57-0.3c0-0.12,0-0.2,0-0.23c0-0.36-0.08-0.61-0.25-0.76
		c-0.22-0.2-0.56-0.3-1-0.3c-0.41,0-0.72,0.07-0.92,0.22c-0.2,0.14-0.34,0.4-0.44,0.77l-0.86-0.12c0.08-0.37,0.21-0.67,0.38-0.89
		c0.18-0.23,0.44-0.4,0.78-0.52c0.34-0.12,0.73-0.18,1.18-0.18c0.44,0,0.8,0.05,1.08,0.16c0.28,0.1,0.48,0.24,0.61,0.39
		c0.13,0.16,0.22,0.36,0.27,0.6c0.03,0.15,0.04,0.42,0.04,0.81v1.17c0,0.82,0.02,1.33,0.06,1.55c0.04,0.22,0.11,0.42,0.22,0.62
		h-0.92C769.69,274.4,769.63,274.19,769.6,273.94z M769.53,271.98c-0.32,0.13-0.8,0.24-1.44,0.33c-0.36,0.05-0.62,0.11-0.77,0.18
		c-0.15,0.07-0.26,0.16-0.35,0.29c-0.08,0.12-0.12,0.26-0.12,0.42c0,0.23,0.09,0.43,0.27,0.59s0.44,0.23,0.78,0.23
		c0.34,0,0.64-0.07,0.9-0.22c0.26-0.15,0.46-0.35,0.58-0.61c0.09-0.2,0.14-0.49,0.14-0.88V271.98z"/>
	<path fill="#9B9B9B" d="M773.9,272.35v-0.71h10v0.71H773.9z"/>
	<path fill="#9B9B9B" d="M791.71,273.74v0.84h-4.73c-0.01-0.21,0.03-0.42,0.1-0.61c0.12-0.32,0.31-0.64,0.58-0.95
		s0.65-0.67,1.15-1.08c0.78-0.64,1.3-1.14,1.58-1.52c0.27-0.37,0.41-0.73,0.41-1.06c0-0.35-0.12-0.64-0.37-0.88
		c-0.25-0.24-0.57-0.36-0.97-0.36c-0.42,0-0.76,0.13-1.02,0.38s-0.38,0.61-0.39,1.05l-0.9-0.09c0.06-0.67,0.29-1.19,0.7-1.54
		c0.4-0.35,0.95-0.53,1.63-0.53c0.69,0,1.23,0.19,1.63,0.57s0.6,0.85,0.6,1.42c0,0.29-0.06,0.57-0.18,0.84s-0.31,0.57-0.58,0.87
		s-0.72,0.73-1.35,1.26c-0.53,0.44-0.87,0.74-1.02,0.9c-0.15,0.16-0.27,0.32-0.37,0.48H791.71z"/>
	<path fill="#9B9B9B" d="M792.65,271.05c0-0.85,0.09-1.53,0.26-2.04c0.17-0.52,0.43-0.91,0.78-1.19s0.78-0.42,1.3-0.42
		c0.38,0,0.72,0.08,1.01,0.23c0.29,0.15,0.53,0.38,0.72,0.67c0.19,0.29,0.34,0.65,0.44,1.06c0.11,0.42,0.16,0.98,0.16,1.69
		c0,0.84-0.09,1.52-0.26,2.03c-0.17,0.52-0.43,0.91-0.77,1.2c-0.34,0.28-0.78,0.42-1.3,0.42c-0.69,0-1.23-0.25-1.63-0.74
		C792.89,273.37,792.65,272.4,792.65,271.05z M793.56,271.05c0,1.17,0.14,1.96,0.41,2.35c0.27,0.39,0.61,0.58,1.02,0.58
		c0.4,0,0.74-0.2,1.02-0.59s0.41-1.17,0.41-2.34c0-1.18-0.14-1.96-0.41-2.35s-0.62-0.58-1.03-0.58c-0.4,0-0.73,0.17-0.97,0.51
		C793.71,269.07,793.56,269.88,793.56,271.05z"/>
	<path fill="#9B9B9B" d="M802.83,273.74v0.84h-4.73c-0.01-0.21,0.03-0.42,0.1-0.61c0.12-0.32,0.31-0.64,0.58-0.95
		s0.65-0.67,1.15-1.08c0.78-0.64,1.3-1.14,1.58-1.52c0.27-0.37,0.41-0.73,0.41-1.06c0-0.35-0.12-0.64-0.37-0.88
		c-0.25-0.24-0.57-0.36-0.97-0.36c-0.42,0-0.76,0.13-1.02,0.38s-0.38,0.61-0.39,1.05l-0.9-0.09c0.06-0.67,0.29-1.19,0.7-1.54
		c0.4-0.35,0.95-0.53,1.63-0.53c0.69,0,1.23,0.19,1.63,0.57s0.6,0.85,0.6,1.42c0,0.29-0.06,0.57-0.18,0.84s-0.31,0.57-0.58,0.87
		s-0.72,0.73-1.35,1.26c-0.53,0.44-0.87,0.74-1.02,0.9c-0.15,0.16-0.27,0.32-0.37,0.48H802.83z"/>
	<path fill="#9B9B9B" d="M808.34,269.18l-0.88,0.07c-0.08-0.34-0.19-0.6-0.33-0.75c-0.24-0.25-0.53-0.38-0.88-0.38
		c-0.28,0-0.53,0.08-0.74,0.23c-0.28,0.2-0.5,0.5-0.65,0.88c-0.16,0.39-0.24,0.94-0.25,1.66c0.21-0.32,0.47-0.56,0.78-0.72
		c0.31-0.16,0.63-0.23,0.96-0.23c0.59,0,1.09,0.22,1.5,0.65c0.41,0.43,0.62,0.99,0.62,1.67c0,0.45-0.1,0.87-0.29,1.25
		c-0.19,0.39-0.46,0.68-0.8,0.89c-0.34,0.21-0.72,0.31-1.15,0.31c-0.73,0-1.33-0.27-1.79-0.81c-0.46-0.54-0.69-1.43-0.69-2.66
		c0-1.38,0.25-2.39,0.77-3.02c0.45-0.55,1.05-0.82,1.8-0.82c0.56,0,1.02,0.16,1.38,0.47S808.27,268.62,808.34,269.18z
		 M804.75,272.26c0,0.3,0.06,0.59,0.19,0.87s0.31,0.49,0.54,0.63c0.23,0.15,0.47,0.22,0.73,0.22c0.37,0,0.69-0.15,0.96-0.45
		c0.27-0.3,0.4-0.71,0.4-1.22c0-0.5-0.13-0.88-0.4-1.17c-0.26-0.29-0.6-0.43-1-0.43c-0.4,0-0.73,0.14-1.01,0.43
		C804.89,271.43,804.75,271.8,804.75,272.26z"/>
</g>
<g>
	<path d="M19.71,25.33v24.38h9.02v4.96H14V25.33H19.71z"/>
	<path d="M34.65,24.36c0.88,0,1.63,0.3,2.26,0.92s0.92,1.38,0.92,2.26s-0.32,1.65-0.95,2.28c-0.62,0.64-1.4,0.97-2.28,0.97
		s-1.63-0.32-2.26-0.95s-0.95-1.4-0.95-2.28s0.32-1.65,0.97-2.28C32.99,24.66,33.77,24.36,34.65,24.36z M37.25,35.62v19.06h-5.31
		V35.62H37.25z"/>
	<path d="M42.27,35.62h5.33V38c1.63-2.17,3.39-2.99,5.97-2.99c2.34,0,4.19,0.75,5.54,2.28c1.01,1.14,1.5,2.9,1.5,5.29v12.1h-5.33
		V44.1c0-1.46-0.17-2.49-0.54-3.07c-0.56-1.01-1.59-1.5-3.12-1.5c-2.69,0-4.04,1.76-4.04,5.29v9.86h-5.33V35.62z"/>
	<path d="M84.45,46.02H70.16c0.15,3.42,1.7,5.11,4.66,5.09c1.85,0,3.35-0.86,4.53-2.56l4.92,0.79c-1.65,3.95-4.75,5.93-9.32,5.95
		c-3.12,0-5.59-0.92-7.46-2.77s-2.79-4.3-2.79-7.37s0.9-5.52,2.73-7.37s4.23-2.77,7.26-2.77s5.41,0.92,7.15,2.75s2.6,4.34,2.6,7.54
		V46.02z M70.33,42.62h9.02c-0.58-2.51-2.11-3.78-4.53-3.78C72.48,38.84,70.78,40.21,70.33,42.62z"/>
	<path d="M117.51,44.9h3.48v4.58h-3.48v5.2h-5.31v-5.2H97.85v-2.54l14.52-22.15h5.13V44.9z M112.21,44.9V33.25l-7.58,11.64H112.21z"
		/>
	<path d="M136.18,42.36h18.3v4.43h-18.3V42.36z"/>
	<path d="M177.67,32.8c0,0.84,0.3,1.53,0.92,2.02c0.62,0.52,2.06,1.2,4.36,2.06s3.95,1.74,5.01,2.64c1.74,1.46,2.6,3.57,2.6,6.34
		s-0.95,5.05-2.81,6.83s-4.34,2.69-7.39,2.69c-4.15,0-7.5-1.87-10.08-5.59l3.7-3.57c1.38,2.6,3.42,3.91,6.14,3.91
		c1.31,0,2.41-0.39,3.27-1.16c0.84-0.77,1.27-1.76,1.27-2.99s-0.52-2.19-1.57-2.94c-0.49-0.37-1.98-0.99-4.4-1.87
		s-4.19-1.93-5.29-3.12s-1.63-2.75-1.63-4.68c0-2.47,0.86-4.51,2.6-6.12s3.91-2.43,6.55-2.43c3.27,0,6.14,1.1,8.64,3.27l-3.01,3.91
		c-1.4-1.59-2.99-2.38-4.75-2.36c-1.18,0-2.15,0.32-2.94,0.95S177.67,31.96,177.67,32.8z"/>
	<path d="M195.26,21.72h5.33v16.37c1.57-2.04,3.54-3.07,5.95-3.07s4.25,0.77,5.56,2.32c1.01,1.2,1.5,2.99,1.5,5.37v11.97h-5.33
		V44.25c0-1.53-0.17-2.58-0.54-3.18c-0.58-1.03-1.63-1.55-3.12-1.55c-2.69,0-4.04,1.78-4.04,5.37v9.78h-5.33V21.72z"/>
	<path d="M237.44,46.02h-14.29c0.15,3.42,1.7,5.11,4.66,5.09c1.85,0,3.35-0.86,4.53-2.56l4.92,0.79c-1.65,3.95-4.75,5.93-9.32,5.95
		c-3.12,0-5.59-0.92-7.46-2.77s-2.79-4.3-2.79-7.37s0.9-5.52,2.73-7.37s4.23-2.77,7.26-2.77s5.41,0.92,7.15,2.75s2.6,4.34,2.6,7.54
		V46.02z M223.32,42.62h9.02c-0.58-2.51-2.11-3.78-4.53-3.78C225.47,38.84,223.77,40.21,223.32,42.62z"/>
	<path d="M246.8,64.84h-5.33V35.62h5.33v2.47c1.65-2.04,3.76-3.07,6.34-3.07s4.77,0.97,6.57,2.9s2.71,4.34,2.71,7.22
		s-0.9,5.29-2.69,7.24s-3.95,2.92-6.47,2.92s-4.68-1.03-6.47-3.09V64.84z M251.57,39.81c-1.48,0-2.73,0.52-3.78,1.55
		s-1.57,2.3-1.57,3.78s0.52,2.75,1.57,3.78c1.05,1.05,2.3,1.57,3.76,1.57s2.73-0.52,3.78-1.57c1.05-1.03,1.59-2.28,1.59-3.76
		s-0.52-2.73-1.57-3.78S253.06,39.81,251.57,39.81z"/>
	<path d="M271.83,64.84h-5.33V35.62h5.33v2.47c1.65-2.04,3.76-3.07,6.34-3.07s4.77,0.97,6.57,2.9s2.71,4.34,2.71,7.22
		s-0.9,5.29-2.69,7.24s-3.95,2.92-6.47,2.92s-4.68-1.03-6.47-3.09V64.84z M276.6,39.81c-1.48,0-2.73,0.52-3.78,1.55
		s-1.57,2.3-1.57,3.78s0.52,2.75,1.57,3.78c1.05,1.05,2.3,1.57,3.76,1.57s2.73-0.52,3.78-1.57c1.05-1.03,1.59-2.28,1.59-3.76
		s-0.52-2.73-1.57-3.78S278.09,39.81,276.6,39.81z"/>
	<path d="M306.14,35.62h5.33v19.06h-5.33V52.2c-1.65,2.04-3.76,3.07-6.36,3.07s-4.79-0.97-6.57-2.9s-2.69-4.34-2.69-7.2
		s0.9-5.29,2.69-7.24s3.95-2.92,6.49-2.92s4.68,1.03,6.45,3.07V35.62z M301.4,39.81c-1.5,0-2.77,0.52-3.8,1.55
		c-1.05,1.03-1.57,2.3-1.57,3.78s0.52,2.75,1.57,3.78c1.05,1.05,2.3,1.57,3.76,1.57s2.73-0.52,3.78-1.57
		c1.05-1.03,1.57-2.28,1.57-3.76s-0.52-2.73-1.53-3.78C304.15,40.32,302.88,39.81,301.4,39.81z"/>
	<path d="M321.89,54.67h-5.33V35.62h5.33v2.9c1.31-2.34,3.16-3.52,5.54-3.5c0.75,0,1.53,0.15,2.32,0.47L329,40.45
		c-0.79-0.45-1.63-0.67-2.54-0.64c-3.05,0-4.58,1.91-4.58,5.71V54.67z"/>
	<path d="M346.84,21.72h5.33v32.96h-5.33V52.2c-1.65,2.04-3.76,3.07-6.36,3.07s-4.79-0.97-6.57-2.9s-2.69-4.34-2.69-7.2
		s0.9-5.29,2.69-7.24s3.95-2.92,6.49-2.92s4.68,1.03,6.45,3.07V21.72z M342.09,39.81c-1.5,0-2.77,0.52-3.8,1.55
		c-1.05,1.03-1.57,2.3-1.57,3.78s0.52,2.75,1.57,3.78c1.05,1.05,2.3,1.57,3.76,1.57s2.73-0.52,3.78-1.57
		c1.05-1.03,1.57-2.28,1.57-3.76s-0.52-2.73-1.53-3.78C344.84,40.32,343.57,39.81,342.09,39.81z"/>
</g>
<g>
	<path fill="#5A5A5A" d="M18.47,78.34h-2.09v-8.87H14v-1.8h6.87v1.8h-2.4V78.34z"/>
	<path fill="#5A5A5A" d="M24.9,71.19c1.16,0,2.11,0.34,2.84,1.02s1.09,1.57,1.09,2.66s-0.37,1.98-1.1,2.66
		c-0.74,0.68-1.7,1.02-2.88,1.02s-2.12-0.35-2.85-1.05s-1.09-1.58-1.09-2.66s0.38-1.97,1.12-2.65S23.73,71.19,24.9,71.19z
		 M24.88,72.93c-0.54,0-1,0.19-1.38,0.56s-0.58,0.84-0.58,1.38s0.19,1,0.57,1.38c0.38,0.38,0.84,0.57,1.38,0.57s1.01-0.19,1.39-0.57
		c0.38-0.38,0.57-0.83,0.57-1.37s-0.19-0.99-0.57-1.38S25.41,72.93,24.88,72.93z"/>
	<path fill="#5A5A5A" d="M32.26,78.34h-1.94v-6.93h1.94v1.05c0.48-0.85,1.15-1.28,2.02-1.27c0.27,0,0.55,0.05,0.84,0.17l-0.27,1.8
		c-0.29-0.16-0.59-0.24-0.92-0.23c-1.11,0-1.66,0.7-1.66,2.08V78.34z"/>
	<path fill="#5A5A5A" d="M39.62,71.19c1.16,0,2.11,0.34,2.84,1.02s1.09,1.57,1.09,2.66s-0.37,1.98-1.1,2.66
		c-0.74,0.68-1.7,1.02-2.88,1.02s-2.12-0.35-2.85-1.05s-1.09-1.58-1.09-2.66s0.38-1.97,1.12-2.65S38.45,71.19,39.62,71.19z
		 M39.59,72.93c-0.54,0-1,0.19-1.38,0.56s-0.58,0.84-0.58,1.38s0.19,1,0.57,1.38c0.38,0.38,0.84,0.57,1.38,0.57s1.01-0.19,1.39-0.57
		c0.38-0.38,0.57-0.83,0.57-1.37s-0.19-0.99-0.57-1.38S40.13,72.93,39.59,72.93z"/>
	<path fill="#5A5A5A" d="M45.04,71.41h1.94v0.87c0.59-0.79,1.23-1.09,2.17-1.09c0.85,0,1.52,0.27,2.02,0.83
		c0.37,0.41,0.55,1.05,0.55,1.92v4.4h-1.94v-3.84c0-0.53-0.06-0.91-0.2-1.12c-0.2-0.37-0.58-0.55-1.13-0.55
		c-0.98,0-1.47,0.64-1.47,1.92v3.59h-1.94V71.41z"/>
	<path fill="#5A5A5A" d="M55.52,73.09v5.25h-1.94v-5.25h-0.77v-1.68h0.77v-2.37h1.94v2.37h1.38v1.68H55.52z"/>
	<path fill="#5A5A5A" d="M61.51,71.19c1.16,0,2.11,0.34,2.84,1.02s1.09,1.57,1.09,2.66s-0.37,1.98-1.1,2.66
		c-0.74,0.68-1.7,1.02-2.88,1.02s-2.12-0.35-2.85-1.05s-1.09-1.58-1.09-2.66s0.38-1.97,1.12-2.65S60.34,71.19,61.51,71.19z
		 M61.48,72.93c-0.54,0-1,0.19-1.38,0.56s-0.58,0.84-0.58,1.38s0.19,1,0.57,1.38c0.38,0.38,0.84,0.57,1.38,0.57s1.01-0.19,1.39-0.57
		c0.38-0.38,0.57-0.83,0.57-1.37s-0.19-0.99-0.57-1.38S62.02,72.93,61.48,72.93z"/>
	<path fill="#5A5A5A" d="M74.58,78.34h-2.09v-8.87h-2.38v-1.8h6.87v1.8h-2.4V78.34z"/>
	<path fill="#5A5A5A" d="M79.48,78.34h-1.94v-6.93h1.94v1.05c0.48-0.85,1.15-1.28,2.02-1.27c0.27,0,0.55,0.05,0.84,0.17l-0.27,1.8
		c-0.29-0.16-0.59-0.24-0.92-0.23c-1.11,0-1.66,0.7-1.66,2.08V78.34z"/>
	<path fill="#5A5A5A" d="M88.55,71.41h1.94v6.93h-1.94v-0.9c-0.6,0.74-1.37,1.12-2.31,1.12s-1.74-0.35-2.39-1.05
		s-0.98-1.58-0.98-2.62s0.33-1.92,0.98-2.63s1.44-1.06,2.36-1.06s1.7,0.38,2.34,1.12V71.41z M86.82,72.93
		c-0.55,0-1.01,0.19-1.38,0.56c-0.38,0.38-0.57,0.84-0.57,1.38s0.19,1,0.57,1.38c0.38,0.38,0.84,0.57,1.37,0.57s0.99-0.19,1.38-0.57
		c0.38-0.38,0.57-0.83,0.57-1.37s-0.19-0.99-0.55-1.38C87.82,73.12,87.36,72.93,86.82,72.93z"/>
	<path fill="#5A5A5A" d="M92.34,71.41h1.94v0.87c0.59-0.79,1.23-1.09,2.17-1.09c0.85,0,1.52,0.27,2.02,0.83
		c0.37,0.41,0.55,1.05,0.55,1.92v4.4h-1.94v-3.84c0-0.53-0.06-0.91-0.2-1.12c-0.2-0.37-0.58-0.55-1.13-0.55
		c-0.98,0-1.47,0.64-1.47,1.92v3.59h-1.94V71.41z"/>
	<path fill="#5A5A5A" d="M104.65,73.02c-0.41-0.3-0.75-0.46-1.04-0.46s-0.5,0.05-0.65,0.16c-0.15,0.12-0.22,0.26-0.22,0.42
		s0.07,0.3,0.22,0.4s0.49,0.24,1.03,0.43s0.95,0.38,1.2,0.57c0.51,0.35,0.77,0.88,0.77,1.57s-0.27,1.28-0.81,1.74
		c-0.55,0.47-1.25,0.7-2.1,0.7c-1.05,0-1.92-0.38-2.62-1.16l1.02-1.18c0.54,0.54,1.09,0.81,1.64,0.81c0.49,0,0.88-0.34,0.88-0.76
		c0-0.21-0.06-0.37-0.2-0.48c-0.13-0.1-0.48-0.26-1.04-0.46s-0.95-0.38-1.16-0.55c-0.46-0.32-0.69-0.8-0.69-1.45s0.23-1.17,0.7-1.59
		c0.46-0.41,1.09-0.62,1.87-0.62s1.5,0.25,2.16,0.74L104.65,73.02z"/>
	<path fill="#5A5A5A" d="M108.29,67.31c0.32,0,0.59,0.11,0.82,0.34s0.34,0.5,0.34,0.82s-0.12,0.6-0.34,0.83
		c-0.23,0.23-0.51,0.35-0.83,0.35s-0.59-0.12-0.82-0.34s-0.34-0.51-0.34-0.83s0.12-0.6,0.35-0.83
		C107.69,67.42,107.97,67.31,108.29,67.31z M109.23,71.41v6.93h-1.93v-6.93H109.23z"/>
	<path fill="#5A5A5A" d="M113.02,73.09v5.25h-1.94v-5.25h-0.77v-1.68h0.77v-2.37h1.94v2.37h1.38v1.68H113.02z"/>
	<path fill="#5A5A5A" d="M127.38,70.53c-0.81-0.8-1.7-1.2-2.65-1.2s-1.77,0.36-2.44,1.07c-0.68,0.71-1.02,1.59-1.02,2.63
		s0.34,1.91,1.02,2.6c0.67,0.7,1.52,1.04,2.52,1.04c0.5,0,0.95-0.09,1.34-0.27s0.8-0.48,1.23-0.9v2.45
		c-0.9,0.41-1.77,0.62-2.61,0.62c-1.58,0-2.91-0.53-4-1.6s-1.63-2.38-1.63-3.93s0.55-2.88,1.65-3.98s2.43-1.65,3.98-1.65
		c0.87,0,1.73,0.22,2.61,0.66V70.53z"/>
	<path fill="#5A5A5A" d="M132.59,71.19c1.16,0,2.11,0.34,2.84,1.02s1.09,1.57,1.09,2.66s-0.37,1.98-1.1,2.66
		c-0.74,0.68-1.7,1.02-2.88,1.02s-2.12-0.35-2.85-1.05s-1.09-1.58-1.09-2.66s0.38-1.97,1.12-2.65S131.42,71.19,132.59,71.19z
		 M132.56,72.93c-0.54,0-1,0.19-1.38,0.56s-0.58,0.84-0.58,1.38s0.19,1,0.57,1.38c0.38,0.38,0.84,0.57,1.38,0.57
		s1.01-0.19,1.39-0.57c0.38-0.38,0.57-0.83,0.57-1.37s-0.19-0.99-0.57-1.38S133.1,72.93,132.56,72.93z"/>
	<path fill="#5A5A5A" d="M144.38,74.78v3.55h-1.94v-3.68c0-0.54-0.04-0.92-0.12-1.13s-0.23-0.38-0.42-0.51s-0.41-0.19-0.62-0.19
		c-0.44,0-0.89,0.26-1.14,0.7c-0.12,0.22-0.19,0.64-0.18,1.26v3.55h-1.94v-6.93h1.94v0.8c0.6-0.68,1.34-1.02,2.21-1.02
		s1.56,0.42,2.05,1.26c0.55-0.84,1.28-1.27,2.21-1.27s1.59,0.34,2,1c0.24,0.4,0.37,0.95,0.37,1.68v4.48h-1.94v-3.79
		c0-0.5-0.05-0.87-0.16-1.11c-0.18-0.41-0.51-0.61-0.98-0.61C144.82,72.83,144.38,73.48,144.38,74.78z"/>
	<path fill="#5A5A5A" d="M157.01,74.78v3.55h-1.94v-3.68c0-0.54-0.04-0.92-0.12-1.13s-0.23-0.38-0.42-0.51s-0.41-0.19-0.62-0.19
		c-0.44,0-0.89,0.26-1.14,0.7c-0.12,0.22-0.19,0.64-0.18,1.26v3.55h-1.94v-6.93h1.94v0.8c0.6-0.68,1.34-1.02,2.21-1.02
		s1.56,0.42,2.05,1.26c0.55-0.84,1.28-1.27,2.21-1.27s1.59,0.34,2,1c0.24,0.4,0.37,0.95,0.37,1.68v4.48h-1.94v-3.79
		c0-0.5-0.05-0.87-0.16-1.11c-0.18-0.41-0.51-0.61-0.98-0.61C157.45,72.83,157.01,73.48,157.01,74.78z"/>
	<path fill="#5A5A5A" d="M164.23,67.31c0.32,0,0.59,0.11,0.82,0.34s0.34,0.5,0.34,0.82s-0.12,0.6-0.34,0.83
		c-0.23,0.23-0.51,0.35-0.83,0.35s-0.59-0.12-0.82-0.34s-0.34-0.51-0.34-0.83s0.12-0.6,0.35-0.83
		C163.62,67.42,163.91,67.31,164.23,67.31z M165.17,71.41v6.93h-1.93v-6.93H165.17z"/>
	<path fill="#5A5A5A" d="M170.79,73.02c-0.41-0.3-0.75-0.46-1.04-0.46s-0.5,0.05-0.65,0.16c-0.15,0.12-0.22,0.26-0.22,0.42
		s0.07,0.3,0.22,0.4s0.49,0.24,1.03,0.43s0.95,0.38,1.2,0.57c0.51,0.35,0.77,0.88,0.77,1.57s-0.27,1.28-0.81,1.74
		c-0.55,0.47-1.25,0.7-2.1,0.7c-1.05,0-1.92-0.38-2.62-1.16l1.02-1.18c0.54,0.54,1.09,0.81,1.64,0.81c0.49,0,0.88-0.34,0.88-0.76
		c0-0.21-0.06-0.37-0.2-0.48c-0.13-0.1-0.48-0.26-1.04-0.46s-0.95-0.38-1.16-0.55c-0.46-0.32-0.69-0.8-0.69-1.45s0.23-1.17,0.7-1.59
		c0.46-0.41,1.09-0.62,1.87-0.62s1.5,0.25,2.16,0.74L170.79,73.02z"/>
	<path fill="#5A5A5A" d="M177.22,73.02c-0.41-0.3-0.75-0.46-1.04-0.46s-0.5,0.05-0.65,0.16c-0.15,0.12-0.22,0.26-0.22,0.42
		s0.07,0.3,0.22,0.4s0.49,0.24,1.03,0.43s0.95,0.38,1.2,0.57c0.51,0.35,0.77,0.88,0.77,1.57s-0.27,1.28-0.81,1.74
		c-0.55,0.47-1.25,0.7-2.1,0.7c-1.05,0-1.92-0.38-2.62-1.16l1.02-1.18c0.54,0.54,1.09,0.81,1.64,0.81c0.49,0,0.88-0.34,0.88-0.76
		c0-0.21-0.06-0.37-0.2-0.48c-0.13-0.1-0.48-0.26-1.04-0.46s-0.95-0.38-1.16-0.55c-0.46-0.32-0.69-0.8-0.69-1.45s0.23-1.17,0.7-1.59
		c0.46-0.41,1.09-0.62,1.87-0.62s1.5,0.25,2.16,0.74L177.22,73.02z"/>
	<path fill="#5A5A5A" d="M180.86,67.31c0.32,0,0.59,0.11,0.82,0.34s0.34,0.5,0.34,0.82s-0.12,0.6-0.34,0.83
		c-0.23,0.23-0.51,0.35-0.83,0.35s-0.59-0.12-0.82-0.34s-0.34-0.51-0.34-0.83s0.12-0.6,0.35-0.83
		C180.26,67.42,180.54,67.31,180.86,67.31z M181.8,71.41v6.93h-1.93v-6.93H181.8z"/>
	<path fill="#5A5A5A" d="M187.25,71.19c1.16,0,2.11,0.34,2.84,1.02s1.09,1.57,1.09,2.66s-0.37,1.98-1.1,2.66
		c-0.74,0.68-1.7,1.02-2.88,1.02s-2.12-0.35-2.85-1.05s-1.09-1.58-1.09-2.66s0.38-1.97,1.12-2.65S186.09,71.19,187.25,71.19z
		 M187.23,72.93c-0.54,0-1,0.19-1.38,0.56s-0.58,0.84-0.58,1.38s0.19,1,0.57,1.38c0.38,0.38,0.84,0.57,1.38,0.57
		s1.01-0.19,1.39-0.57c0.38-0.38,0.57-0.83,0.57-1.37s-0.19-0.99-0.57-1.38S187.77,72.93,187.23,72.93z"/>
	<path fill="#5A5A5A" d="M192.67,71.41h1.94v0.87c0.59-0.79,1.23-1.09,2.17-1.09c0.85,0,1.52,0.27,2.02,0.83
		c0.37,0.41,0.55,1.05,0.55,1.92v4.4h-1.94v-3.84c0-0.53-0.06-0.91-0.2-1.12c-0.2-0.37-0.58-0.55-1.13-0.55
		c-0.98,0-1.47,0.64-1.47,1.92v3.59h-1.94V71.41z"/>
	<path fill="#5A5A5A" d="M209.62,70.7c0.61,0,1.13,0.22,1.56,0.66s0.65,0.96,0.65,1.57s-0.22,1.12-0.65,1.55s-0.95,0.65-1.56,0.65
		s-1.13-0.22-1.57-0.65s-0.66-0.95-0.66-1.56s0.22-1.14,0.66-1.57S209.02,70.7,209.62,70.7z"/>
	<path fill="#5A5A5A" d="M223.52,78.34h-2.09v-8.87h-2.38v-1.8h6.87v1.8h-2.4V78.34z"/>
	<path fill="#5A5A5A" d="M229.95,71.19c1.16,0,2.11,0.34,2.84,1.02s1.09,1.57,1.09,2.66s-0.37,1.98-1.1,2.66
		c-0.74,0.68-1.7,1.02-2.88,1.02s-2.12-0.35-2.85-1.05s-1.09-1.58-1.09-2.66s0.38-1.97,1.12-2.65S228.78,71.19,229.95,71.19z
		 M229.92,72.93c-0.54,0-1,0.19-1.38,0.56s-0.58,0.84-0.58,1.38s0.19,1,0.57,1.38c0.38,0.38,0.84,0.57,1.38,0.57
		s1.01-0.19,1.39-0.57c0.38-0.38,0.57-0.83,0.57-1.37s-0.19-0.99-0.57-1.38S230.46,72.93,229.92,72.93z"/>
	<path fill="#5A5A5A" d="M237.3,78.34h-1.94v-6.93h1.94v1.05c0.48-0.85,1.15-1.28,2.02-1.27c0.27,0,0.55,0.05,0.84,0.17l-0.27,1.8
		c-0.29-0.16-0.59-0.24-0.92-0.23c-1.11,0-1.66,0.7-1.66,2.08V78.34z"/>
	<path fill="#5A5A5A" d="M244.66,71.19c1.16,0,2.11,0.34,2.84,1.02s1.09,1.57,1.09,2.66s-0.37,1.98-1.1,2.66
		c-0.74,0.68-1.7,1.02-2.88,1.02s-2.12-0.35-2.85-1.05s-1.09-1.58-1.09-2.66s0.38-1.97,1.12-2.65S243.5,71.19,244.66,71.19z
		 M244.64,72.93c-0.54,0-1,0.19-1.38,0.56s-0.58,0.84-0.58,1.38s0.19,1,0.57,1.38c0.38,0.38,0.84,0.57,1.38,0.57
		s1.01-0.19,1.39-0.57c0.38-0.38,0.57-0.83,0.57-1.37s-0.19-0.99-0.57-1.38S245.18,72.93,244.64,72.93z"/>
	<path fill="#5A5A5A" d="M250.09,71.41h1.94v0.87c0.59-0.79,1.23-1.09,2.17-1.09c0.85,0,1.52,0.27,2.02,0.83
		c0.37,0.41,0.55,1.05,0.55,1.92v4.4h-1.94v-3.84c0-0.53-0.06-0.91-0.2-1.12c-0.2-0.37-0.58-0.55-1.13-0.55
		c-0.98,0-1.47,0.64-1.47,1.92v3.59h-1.94V71.41z"/>
	<path fill="#5A5A5A" d="M260.56,73.09v5.25h-1.94v-5.25h-0.77v-1.68h0.77v-2.37h1.94v2.37h1.38v1.68H260.56z"/>
	<path fill="#5A5A5A" d="M266.55,71.19c1.16,0,2.11,0.34,2.84,1.02s1.09,1.57,1.09,2.66s-0.37,1.98-1.1,2.66
		c-0.74,0.68-1.7,1.02-2.88,1.02s-2.12-0.35-2.85-1.05s-1.09-1.58-1.09-2.66s0.38-1.97,1.12-2.65S265.39,71.19,266.55,71.19z
		 M266.53,72.93c-0.54,0-1,0.19-1.38,0.56s-0.58,0.84-0.58,1.38s0.19,1,0.57,1.38c0.38,0.38,0.84,0.57,1.38,0.57
		s1.01-0.19,1.39-0.57c0.38-0.38,0.57-0.83,0.57-1.37s-0.19-0.99-0.57-1.38S267.07,72.93,266.53,72.93z"/>
	<path fill="#5A5A5A" d="M280.41,70.7c0.61,0,1.13,0.22,1.56,0.66s0.65,0.96,0.65,1.57s-0.22,1.12-0.65,1.55s-0.95,0.65-1.56,0.65
		s-1.13-0.22-1.57-0.65s-0.66-0.95-0.66-1.56s0.22-1.14,0.66-1.57S279.8,70.7,280.41,70.7z"/>
	<path fill="#5A5A5A" d="M297.75,76.53v1.8h-7.76l3.15-3.57c0.97-1.11,1.62-1.93,1.95-2.45s0.5-1.02,0.5-1.47s-0.16-0.84-0.47-1.15
		c-0.32-0.3-0.71-0.46-1.17-0.46s-0.84,0.16-1.11,0.46c-0.28,0.3-0.43,0.74-0.45,1.3h-2.23c0.07-1.11,0.45-1.98,1.12-2.63
		c0.67-0.65,1.55-0.97,2.62-0.97c1.07,0,1.97,0.33,2.69,0.98c0.71,0.66,1.07,1.51,1.07,2.56s-0.65,2.27-1.94,3.63l-1.86,1.97H297.75
		z"/>
	<path fill="#5A5A5A" d="M303.34,67.39c1.21,0,2.21,0.55,3.02,1.63c0.73,1.02,1.1,2.35,1.1,3.97s-0.37,2.95-1.1,3.98
		c-0.75,1.02-1.88,1.63-3.02,1.63c-1.24,0-2.24-0.53-3-1.59s-1.14-2.41-1.14-4.04s0.37-2.95,1.1-3.95
		C301.12,67.94,302.13,67.39,303.34,67.39z M303.34,69.23c-0.6,0-1.09,0.35-1.48,1.05s-0.59,1.6-0.59,2.7s0.2,2.01,0.58,2.72
		s0.88,1.06,1.48,1.06s1.1-0.35,1.48-1.05s0.57-1.61,0.57-2.71s-0.2-2.01-0.58-2.71S303.93,69.23,303.34,69.23z"/>
	<path fill="#5A5A5A" d="M312.41,67.39c1.21,0,2.21,0.55,3.02,1.63c0.73,1.02,1.1,2.35,1.1,3.97s-0.37,2.95-1.1,3.98
		c-0.75,1.02-1.88,1.63-3.02,1.63c-1.24,0-2.24-0.53-3-1.59s-1.14-2.41-1.14-4.04s0.37-2.95,1.1-3.95
		C310.19,67.94,311.2,67.39,312.41,67.39z M312.41,69.23c-0.6,0-1.09,0.35-1.48,1.05s-0.59,1.6-0.59,2.7s0.2,2.01,0.58,2.72
		s0.88,1.06,1.48,1.06s1.1-0.35,1.48-1.05s0.57-1.61,0.57-2.71s-0.2-2.01-0.58-2.71S313,69.23,312.41,69.23z"/>
	<path fill="#5A5A5A" d="M324.96,76.53v1.8h-7.76l3.15-3.57c0.97-1.11,1.62-1.93,1.95-2.45s0.5-1.02,0.5-1.47s-0.16-0.84-0.47-1.15
		c-0.32-0.3-0.71-0.46-1.17-0.46s-0.84,0.16-1.11,0.46c-0.28,0.3-0.43,0.74-0.45,1.3h-2.23c0.07-1.11,0.45-1.98,1.12-2.63
		c0.67-0.65,1.55-0.97,2.62-0.97c1.07,0,1.97,0.33,2.69,0.98c0.71,0.66,1.07,1.51,1.07,2.56s-0.65,2.27-1.94,3.63l-1.86,1.97H324.96
		z"/>
</g>
</svg>
