<?xml version="1.0" encoding="iso-8859-1"?>
<!-- Generator: Adobe Illustrator 29.8.4, SVG Export Plug-In . SVG Version: 9.03 Build 0)  -->
<svg version="1.1" id="Layer_1" xmlns="http://www.w3.org/2000/svg" xmlns:xlink="http://www.w3.org/1999/xlink" x="0px" y="0px"
	 viewBox="0 0 1500 321" enable-background="new 0 0 1500 321" xml:space="preserve">
<rect id="bg-white" fill="#FFFFFF" width="1500" height="321"/>
<line fill="none" stroke="#005EB8" stroke-width="10" stroke-linecap="round" stroke-miterlimit="10" x1="90" y1="286" x2="1410" y2="286"/>
<circle fill="#FFFFFF" stroke="#000000" stroke-width="3" stroke-miterlimit="10" cx="90" cy="286" r="10"/>
<g>
	<path d="M88.79,266.02c0.33,0.09,0.63,0.04,0.9-0.15c0.27-0.19,0.69-0.69,1.28-1.5s1.11-1.38,1.57-1.7
		c0.76-0.53,1.68-0.65,2.78-0.36c1.1,0.29,1.9,0.91,2.4,1.84c0.51,0.93,0.6,2,0.28,3.21c-0.44,1.64-1.53,2.76-3.27,3.39l-1.02-1.84
		c1.17-0.27,1.91-0.94,2.2-2.01c0.14-0.52,0.1-0.99-0.11-1.41c-0.22-0.41-0.56-0.69-1.05-0.82c-0.48-0.13-0.92-0.03-1.33,0.31
		c-0.2,0.16-0.6,0.68-1.21,1.54c-0.6,0.87-1.21,1.45-1.79,1.76c-0.58,0.31-1.26,0.35-2.02,0.15c-0.98-0.26-1.69-0.82-2.14-1.67
		c-0.45-0.86-0.55-1.8-0.27-2.85c0.35-1.29,1.08-2.31,2.21-3.07l1.23,1.6c-0.78,0.38-1.26,0.93-1.44,1.63
		c-0.13,0.47-0.1,0.88,0.06,1.26S88.46,265.93,88.79,266.02z"/>
	<path d="M91.71,259.56l0.56-2.11l0.94,0.25c-0.68-0.88-0.82-1.66-0.55-2.68c0.25-0.92,0.74-1.58,1.49-1.95
		c0.56-0.28,1.31-0.29,2.25-0.03l4.78,1.28l-0.56,2.11l-4.18-1.12c-0.58-0.15-1-0.2-1.27-0.11c-0.46,0.11-0.76,0.47-0.92,1.07
		c-0.28,1.06,0.27,1.78,1.66,2.16l3.9,1.04l-0.56,2.11L91.71,259.56z"/>
	<path d="M95.01,246.31c0.34-1.27,0.99-2.19,1.94-2.78s2.03-0.73,3.21-0.41s2.05,0.98,2.57,1.97c0.52,1,0.62,2.14,0.27,3.42
		c-0.34,1.28-1,2.21-1.97,2.79c-0.97,0.59-2.03,0.72-3.21,0.4c-1.18-0.32-2.03-0.98-2.55-1.99S94.67,247.57,95.01,246.31z
		 M96.89,246.84c-0.16,0.59-0.09,1.14,0.21,1.67s0.74,0.87,1.33,1.03c0.58,0.16,1.14,0.09,1.66-0.22c0.53-0.3,0.87-0.75,1.02-1.34
		c0.16-0.59,0.09-1.15-0.21-1.68c-0.3-0.53-0.73-0.86-1.32-1.02s-1.13-0.09-1.66,0.22S97.05,246.25,96.89,246.84z"/>
	<path d="M97.09,239.49l4.88-0.81l-4-3.27l0.24-0.9l5.17-0.82l-3.88-3.19l0.63-2.35l6.64,5.96l-0.25,0.95l-5.11,0.81l4.03,3.23
		l-0.26,0.97l-8.72,1.8L97.09,239.49z"/>
	<path d="M96.46,219.85l0.56-2.11l13.02,3.49l-0.56,2.11l-0.98-0.26c0.63,0.87,0.82,1.81,0.54,2.84c-0.28,1.03-0.89,1.79-1.84,2.29
		c-0.95,0.5-2,0.6-3.13,0.3c-1.13-0.3-1.99-0.92-2.58-1.83c-0.58-0.91-0.74-1.87-0.47-2.87c0.27-1,0.9-1.74,1.9-2.22L96.46,219.85z
		 M103.11,223.64c-0.16,0.59-0.09,1.15,0.21,1.67c0.3,0.53,0.74,0.86,1.33,1.02s1.14,0.09,1.66-0.22c0.53-0.3,0.86-0.74,1.02-1.32
		c0.16-0.58,0.09-1.13-0.22-1.66c-0.3-0.53-0.73-0.86-1.32-1.02s-1.13-0.08-1.66,0.2C103.6,222.6,103.27,223.05,103.11,223.64z"/>
	<path d="M103.88,213.21c0.34-1.26,0.99-2.19,1.94-2.78s2.03-0.73,3.21-0.41s2.05,0.98,2.57,1.97c0.52,1,0.62,2.14,0.27,3.42
		c-0.34,1.28-1,2.21-1.97,2.79c-0.97,0.59-2.03,0.72-3.21,0.4c-1.18-0.32-2.03-0.98-2.55-1.98
		C103.62,215.61,103.54,214.47,103.88,213.21z M105.76,213.74c-0.16,0.59-0.09,1.14,0.21,1.67s0.74,0.87,1.33,1.03
		c0.59,0.16,1.14,0.09,1.66-0.22c0.53-0.3,0.87-0.75,1.02-1.34s0.09-1.15-0.21-1.68c-0.3-0.52-0.73-0.86-1.32-1.02
		c-0.59-0.16-1.13-0.08-1.66,0.22C106.26,212.71,105.92,213.15,105.76,213.74z"/>
	<path d="M105.69,207.38l0.56-2.11l0.94,0.25c-0.68-0.88-0.82-1.66-0.55-2.68c0.25-0.92,0.74-1.58,1.49-1.95
		c0.56-0.28,1.31-0.29,2.25-0.03l4.78,1.28l-0.56,2.11l-4.18-1.12c-0.58-0.15-1-0.2-1.27-0.11c-0.46,0.11-0.76,0.47-0.92,1.07
		c-0.28,1.06,0.27,1.78,1.66,2.16l3.9,1.04l-0.56,2.11L105.69,207.38z"/>
</g>
<circle fill="#FFFFFF" stroke="#000000" stroke-width="3" stroke-miterlimit="10" cx="210" cy="286" r="10"/>
<g>
	<path d="M210.61,259.86c-1.11,0.65-1.8,1.49-2.08,2.53c-0.28,1.04-0.12,2.02,0.45,2.96c0.58,0.95,1.44,1.57,2.57,1.87
		s2.17,0.19,3.12-0.35c0.95-0.53,1.57-1.34,1.86-2.44c0.15-0.54,0.18-1.05,0.1-1.53s-0.29-1-0.62-1.59l2.66,0.71
		c0.19,1.1,0.17,2.1-0.08,3.02c-0.46,1.71-1.43,3.01-2.91,3.88c-1.48,0.87-3.06,1.08-4.75,0.63c-1.69-0.45-2.96-1.43-3.84-2.95
		c-0.88-1.52-1.08-3.12-0.63-4.81c0.25-0.94,0.74-1.82,1.47-2.64L210.61,259.86z"/>
	<path d="M209.92,256.78l-1.62-3.58l3.21-2.35l0.75,1.36l-2.11,1.46l1.09,2.33L209.92,256.78z M212.85,254.35
		c0.34-1.27,0.99-2.19,1.94-2.78c0.95-0.59,2.02-0.73,3.21-0.41s2.05,0.98,2.57,1.97c0.52,1,0.62,2.14,0.28,3.42
		c-0.34,1.28-1,2.21-1.97,2.79c-0.97,0.59-2.03,0.72-3.21,0.4c-1.18-0.32-2.03-0.98-2.55-1.99
		C212.6,256.76,212.51,255.62,212.85,254.35z M214.74,254.89c-0.16,0.59-0.09,1.14,0.21,1.67c0.3,0.53,0.74,0.87,1.33,1.03
		c0.58,0.16,1.14,0.09,1.66-0.22c0.53-0.3,0.87-0.75,1.02-1.34c0.16-0.59,0.09-1.15-0.21-1.68c-0.3-0.52-0.73-0.86-1.32-1.02
		s-1.13-0.08-1.66,0.22S214.89,254.3,214.74,254.89z"/>
	<path d="M217.08,246.82l5.71,1.53l-0.56,2.11l-5.71-1.53l-0.22,0.83l-1.83-0.49l0.22-0.83l-2.57-0.69l0.56-2.11l2.57,0.69l0.4-1.49
		l1.83,0.49L217.08,246.82z"/>
	<path d="M222.05,237.42l-1.51,5.65c1.37,0.3,2.2-0.13,2.51-1.3c0.2-0.73,0.02-1.42-0.53-2.06l0.83-1.86
		c1.39,1.07,1.84,2.5,1.36,4.31c-0.33,1.23-0.96,2.11-1.88,2.65c-0.93,0.54-1.99,0.65-3.21,0.32c-1.21-0.33-2.09-0.94-2.62-1.86
		c-0.54-0.92-0.65-1.97-0.33-3.16c0.32-1.2,0.94-2.04,1.84-2.54c0.91-0.49,1.99-0.57,3.25-0.23L222.05,237.42z M219.21,242.64
		l0.96-3.57c-1.05-0.04-1.72,0.43-1.97,1.39C217.94,241.39,218.31,242.2,219.21,242.64z"/>
	<path d="M220.96,235.7l1.05-3.91l1.75,0.47l-1.05,3.91L220.96,235.7z"/>
	<path d="M215.67,222.82l0.56-2.11l13.02,3.49l-0.56,2.11l-0.98-0.26c0.63,0.87,0.82,1.81,0.54,2.84c-0.27,1.03-0.89,1.79-1.84,2.29
		s-2,0.6-3.13,0.3c-1.13-0.3-1.99-0.92-2.58-1.83c-0.58-0.91-0.74-1.87-0.47-2.87s0.9-1.74,1.9-2.22L215.67,222.82z M222.31,226.62
		c-0.16,0.59-0.09,1.15,0.21,1.67c0.3,0.53,0.74,0.86,1.33,1.02c0.58,0.16,1.14,0.09,1.66-0.22c0.53-0.3,0.86-0.74,1.02-1.32
		c0.15-0.58,0.08-1.13-0.22-1.66c-0.3-0.53-0.73-0.86-1.32-1.02c-0.59-0.16-1.13-0.09-1.66,0.2
		C222.81,225.58,222.47,226.03,222.31,226.62z"/>
	<path d="M228.35,213.88l-1.51,5.64c1.37,0.3,2.2-0.13,2.51-1.3c0.2-0.73,0.02-1.42-0.53-2.06l0.83-1.86
		c1.39,1.07,1.84,2.5,1.36,4.31c-0.33,1.23-0.96,2.11-1.88,2.65c-0.93,0.54-1.99,0.65-3.21,0.32s-2.09-0.94-2.62-1.86
		c-0.54-0.92-0.65-1.97-0.33-3.16c0.32-1.2,0.94-2.04,1.84-2.54s1.99-0.57,3.25-0.23L228.35,213.88z M225.52,219.09l0.96-3.57
		c-1.05-0.04-1.72,0.43-1.97,1.39C224.25,217.85,224.62,218.66,225.52,219.09z"/>
	<path d="M227.5,207.65c-0.45,0.35-0.72,0.68-0.8,1c-0.08,0.31-0.09,0.56-0.01,0.75c0.08,0.2,0.22,0.31,0.39,0.36
		c0.18,0.05,0.34,0.01,0.5-0.12c0.15-0.13,0.41-0.46,0.77-1c0.36-0.53,0.68-0.92,0.97-1.14c0.53-0.45,1.17-0.58,1.93-0.38
		s1.31,0.67,1.66,1.39c0.35,0.73,0.4,1.56,0.15,2.49c-0.3,1.14-0.98,1.98-2.02,2.52l-0.99-1.45c0.74-0.43,1.2-0.94,1.36-1.55
		c0.14-0.53-0.12-1.06-0.57-1.18c-0.23-0.06-0.42-0.04-0.57,0.07c-0.15,0.12-0.42,0.44-0.8,1c-0.38,0.55-0.69,0.92-0.93,1.11
		c-0.48,0.41-1.07,0.52-1.77,0.33c-0.71-0.19-1.21-0.6-1.52-1.23c-0.32-0.62-0.35-1.36-0.13-2.21c0.23-0.85,0.71-1.56,1.44-2.14
		L227.5,207.65z"/>
	<path d="M229.08,205.41l1.05-3.91l1.75,0.47l-1.05,3.91L229.08,205.41z"/>
	<path d="M235.35,201.46l-11.86-3.18l0.42-1.56l9.97-4.9l-7.81-2.09l0.61-2.26l11.83,3.17l-0.42,1.57l-9.96,4.89l7.84,2.1
		L235.35,201.46z"/>
	<path d="M237.48,179.83l-1.51,5.64c1.37,0.3,2.2-0.13,2.51-1.3c0.2-0.73,0.02-1.42-0.53-2.06l0.83-1.86
		c1.39,1.07,1.84,2.5,1.37,4.31c-0.33,1.23-0.96,2.11-1.88,2.65s-1.99,0.65-3.21,0.32c-1.21-0.33-2.09-0.94-2.62-1.86
		c-0.54-0.92-0.65-1.96-0.33-3.16c0.32-1.2,0.94-2.04,1.84-2.54c0.91-0.5,1.99-0.57,3.25-0.23L237.48,179.83z M234.64,185.05
		l0.96-3.57c-1.05-0.04-1.72,0.43-1.97,1.39C233.37,183.8,233.74,184.62,234.64,185.05z"/>
	<path d="M229.62,174.91c0.09-0.35,0.29-0.61,0.6-0.79c0.31-0.18,0.64-0.22,0.99-0.13c0.35,0.09,0.62,0.3,0.8,0.61
		c0.19,0.31,0.23,0.65,0.14,1c-0.09,0.35-0.3,0.61-0.61,0.79c-0.31,0.18-0.65,0.23-1,0.13c-0.35-0.09-0.62-0.3-0.8-0.62
		C229.57,175.59,229.53,175.26,229.62,174.91z M234.35,175.07l7.53,2.02l-0.56,2.1l-7.53-2.02L234.35,175.07z"/>
	<path d="M236.99,165.22l7.25,1.94c0.77,0.21,1.36,0.43,1.75,0.66c0.39,0.24,0.73,0.57,1.01,0.99c0.68,0.97,0.83,2.19,0.44,3.64
		c-0.39,1.45-1.24,2.42-2.54,2.9c-0.55,0.2-1.11,0.26-1.66,0.17l0.62-2.3c0.97,0.03,1.57-0.43,1.83-1.4
		c0.15-0.57,0.09-1.09-0.17-1.56c-0.25-0.4-0.73-0.7-1.44-0.9l-1.13-0.3c0.34,0.52,0.56,1,0.65,1.43c0.09,0.44,0.06,0.93-0.08,1.46
		c-0.28,1.03-0.87,1.79-1.79,2.27c-0.92,0.48-1.95,0.57-3.12,0.26s-2.04-0.92-2.62-1.82c-0.59-0.9-0.75-1.87-0.47-2.88
		c0.27-1.02,0.91-1.75,1.89-2.2l-0.98-0.26L236.99,165.22z M237.59,169.61c-0.16,0.59-0.09,1.13,0.21,1.66
		c0.3,0.53,0.74,0.86,1.33,1.02c0.58,0.16,1.14,0.09,1.66-0.22c0.53-0.3,0.86-0.74,1.02-1.32c0.15-0.58,0.08-1.13-0.22-1.66
		c-0.3-0.53-0.73-0.86-1.32-1.02s-1.13-0.09-1.66,0.21C238.08,168.58,237.74,169.02,237.59,169.61z"/>
	<path d="M243.64,156.83l-1.51,5.65c1.37,0.3,2.2-0.13,2.51-1.3c0.2-0.73,0.02-1.42-0.53-2.06l0.83-1.86
		c1.39,1.07,1.84,2.5,1.36,4.31c-0.33,1.23-0.96,2.11-1.88,2.65c-0.93,0.54-1.99,0.65-3.21,0.32c-1.21-0.33-2.09-0.94-2.62-1.86
		s-0.65-1.97-0.33-3.16c0.32-1.2,0.94-2.04,1.84-2.54c0.91-0.49,1.99-0.57,3.26-0.23L243.64,156.83z M240.8,162.04l0.96-3.57
		c-1.05-0.04-1.72,0.43-1.97,1.39C239.54,160.8,239.9,161.61,240.8,162.04z"/>
	<path d="M242.79,150.6c-0.45,0.35-0.72,0.68-0.8,1c-0.08,0.31-0.09,0.56-0.01,0.75c0.08,0.2,0.22,0.31,0.39,0.36
		c0.18,0.05,0.34,0.01,0.5-0.12c0.15-0.13,0.41-0.46,0.77-1c0.36-0.53,0.68-0.92,0.97-1.14c0.53-0.45,1.17-0.58,1.93-0.38
		c0.76,0.2,1.31,0.67,1.66,1.39c0.35,0.73,0.4,1.56,0.15,2.49c-0.3,1.14-0.98,1.98-2.02,2.52l-0.99-1.45
		c0.74-0.43,1.2-0.94,1.36-1.55c0.14-0.54-0.12-1.06-0.57-1.18c-0.23-0.06-0.42-0.04-0.58,0.07c-0.15,0.11-0.42,0.44-0.8,1
		c-0.38,0.55-0.69,0.92-0.93,1.11c-0.48,0.41-1.07,0.52-1.77,0.33c-0.71-0.19-1.21-0.6-1.52-1.23c-0.32-0.62-0.35-1.36-0.13-2.21
		s0.71-1.56,1.44-2.14L242.79,150.6z"/>
</g>
<circle fill="#FFFFFF" stroke="#000000" stroke-width="3" stroke-miterlimit="10" cx="330" cy="286" r="10"/>
<g>
	<path d="M325.86,265.13l6.64,1.78c0.59,0.16,1.03,0.25,1.3,0.28c0.28,0.03,0.59,0,0.94-0.1c0.68-0.19,1.33-0.87,1.56-1.73
		c0.23-0.85,0.01-1.76-0.49-2.27c-0.25-0.26-0.5-0.44-0.75-0.56c-0.25-0.11-0.68-0.25-1.27-0.41l-6.64-1.78l0.61-2.26l7.1,1.9
		c1.31,0.35,2.26,0.91,2.86,1.68c0.41,0.55,0.67,1.19,0.79,1.94c0.13,0.75,0.07,1.52-0.14,2.31c-0.21,0.79-0.55,1.48-1.04,2.07
		c-0.48,0.59-1.03,1.03-1.66,1.29c-0.91,0.37-2.01,0.37-3.32,0.02l-7.1-1.9L325.86,265.13z"/>
	<path d="M332.45,256.79l0.56-2.11l0.94,0.25c-0.68-0.88-0.82-1.66-0.55-2.68c0.25-0.93,0.74-1.58,1.49-1.95
		c0.56-0.28,1.31-0.29,2.25-0.03l4.78,1.28l-0.56,2.11l-4.18-1.12c-0.58-0.15-1-0.2-1.27-0.11c-0.46,0.11-0.76,0.47-0.92,1.07
		c-0.29,1.06,0.27,1.78,1.66,2.16l3.9,1.04l-0.56,2.11L332.45,256.79z"/>
	<path d="M330.76,245.3c0.09-0.35,0.29-0.61,0.6-0.79s0.64-0.22,0.99-0.13c0.35,0.09,0.62,0.3,0.8,0.61c0.19,0.31,0.23,0.65,0.14,1
		c-0.09,0.35-0.3,0.61-0.61,0.79c-0.31,0.18-0.65,0.23-1,0.13c-0.35-0.09-0.62-0.3-0.8-0.62
		C330.71,245.99,330.67,245.65,330.76,245.3z M335.49,245.47l7.53,2.02l-0.56,2.1l-7.53-2.02L335.49,245.47z"/>
	<path d="M336.4,242.04l4.79-0.84l-3.74-3.1l0.63-2.37l6.64,5.94l-0.25,0.95l-8.71,1.79L336.4,242.04z"/>
	<path d="M344.36,228.77l-1.51,5.65c1.37,0.3,2.2-0.13,2.51-1.3c0.2-0.73,0.02-1.42-0.53-2.06l0.83-1.86
		c1.39,1.07,1.84,2.5,1.36,4.31c-0.33,1.23-0.96,2.11-1.88,2.65c-0.93,0.54-1.99,0.65-3.21,0.32s-2.09-0.94-2.62-1.86
		s-0.65-1.97-0.33-3.16c0.32-1.2,0.94-2.04,1.84-2.54c0.91-0.49,1.99-0.57,3.25-0.23L344.36,228.77z M341.53,233.99l0.96-3.57
		c-1.05-0.04-1.72,0.43-1.97,1.39C340.26,232.74,340.63,233.55,341.53,233.99z"/>
	<path d="M348.78,225.98l-0.56,2.11l-7.53-2.02l0.56-2.11l1.15,0.31c-0.79-0.77-1.06-1.62-0.8-2.56c0.08-0.3,0.22-0.59,0.43-0.87
		l1.88,0.82c-0.26,0.27-0.44,0.57-0.52,0.93c-0.32,1.21,0.27,2.01,1.77,2.41L348.78,225.98z"/>
	<path d="M345.2,216.23c-0.45,0.35-0.72,0.68-0.8,1c-0.08,0.31-0.09,0.56-0.01,0.75c0.08,0.2,0.22,0.31,0.39,0.36
		c0.18,0.05,0.34,0.01,0.5-0.12c0.15-0.13,0.41-0.46,0.77-1c0.36-0.53,0.68-0.92,0.97-1.14c0.53-0.45,1.17-0.58,1.93-0.38
		c0.76,0.2,1.31,0.67,1.66,1.39c0.35,0.73,0.4,1.56,0.15,2.49c-0.3,1.14-0.98,1.98-2.02,2.52l-0.99-1.45
		c0.74-0.43,1.2-0.94,1.36-1.55c0.14-0.53-0.12-1.06-0.57-1.18c-0.23-0.06-0.42-0.04-0.57,0.07c-0.15,0.12-0.42,0.44-0.8,1
		s-0.69,0.92-0.93,1.11c-0.48,0.41-1.07,0.51-1.77,0.33s-1.21-0.6-1.52-1.23c-0.32-0.62-0.35-1.36-0.13-2.21
		c0.23-0.85,0.71-1.56,1.44-2.13L345.2,216.23z"/>
	<path d="M340.06,210.62c0.09-0.35,0.29-0.61,0.6-0.79s0.64-0.22,0.99-0.13c0.35,0.09,0.62,0.3,0.8,0.61c0.19,0.31,0.23,0.65,0.14,1
		c-0.09,0.35-0.3,0.61-0.61,0.79c-0.31,0.18-0.65,0.23-1,0.13c-0.35-0.09-0.62-0.3-0.8-0.62C340,211.3,339.96,210.96,340.06,210.62z
		 M344.78,210.78l7.53,2.02l-0.56,2.1l-7.53-2.02L344.78,210.78z"/>
	<path d="M347.71,207.16l5.71,1.53l-0.56,2.11l-5.71-1.53l-0.22,0.83l-1.83-0.49l0.22-0.83l-2.57-0.69l0.56-2.11l2.57,0.69l0.4-1.49
		l1.83,0.49L347.71,207.16z"/>
	<path d="M344.51,197.13l1.65,3.24l-0.97,0.82l-2.08-2.78L344.51,197.13z M352.67,197.75l-1.51,5.65c1.37,0.3,2.2-0.13,2.51-1.3
		c0.2-0.73,0.02-1.42-0.53-2.06l0.83-1.86c1.39,1.07,1.84,2.5,1.36,4.31c-0.33,1.23-0.96,2.11-1.88,2.65
		c-0.93,0.54-1.99,0.65-3.21,0.32s-2.09-0.94-2.62-1.86c-0.54-0.92-0.65-1.97-0.33-3.16c0.32-1.2,0.94-2.04,1.84-2.54
		c0.91-0.49,1.99-0.57,3.26-0.23L352.67,197.75z M349.84,202.97l0.96-3.56c-1.05-0.04-1.72,0.43-1.97,1.39
		C348.57,201.72,348.94,202.54,349.84,202.97z"/>
	<path d="M351.59,196.04l1.05-3.91l1.75,0.47l-1.05,3.91L351.59,196.04z"/>
	<path d="M346.29,183.16l0.56-2.1l13.02,3.49l-0.56,2.11l-0.98-0.26c0.63,0.87,0.82,1.81,0.54,2.84s-0.89,1.79-1.84,2.29
		s-2,0.6-3.13,0.3c-1.13-0.3-1.99-0.92-2.58-1.83c-0.58-0.91-0.74-1.87-0.47-2.87c0.27-1,0.9-1.74,1.9-2.22L346.29,183.16z
		 M352.94,186.95c-0.16,0.59-0.09,1.15,0.21,1.67c0.3,0.53,0.74,0.86,1.33,1.02c0.58,0.16,1.14,0.09,1.66-0.22
		c0.53-0.3,0.86-0.74,1.02-1.32c0.15-0.58,0.08-1.13-0.22-1.66c-0.3-0.52-0.73-0.86-1.32-1.02s-1.13-0.08-1.66,0.2
		C353.43,185.92,353.1,186.37,352.94,186.95z"/>
	<path d="M358.98,174.21l-1.51,5.65c1.37,0.3,2.2-0.13,2.51-1.3c0.2-0.73,0.02-1.42-0.53-2.06l0.83-1.86
		c1.39,1.07,1.84,2.5,1.37,4.31c-0.33,1.23-0.96,2.11-1.88,2.65c-0.93,0.54-1.99,0.65-3.21,0.32c-1.21-0.33-2.09-0.94-2.62-1.86
		c-0.54-0.92-0.65-1.97-0.33-3.16c0.32-1.2,0.94-2.04,1.84-2.54c0.91-0.49,1.99-0.57,3.25-0.23L358.98,174.21z M356.15,179.43
		l0.96-3.57c-1.05-0.04-1.72,0.43-1.97,1.39C354.88,178.18,355.24,179,356.15,179.43z"/>
	<path d="M357.9,172.49l1.05-3.91l1.75,0.47l-1.05,3.91L357.9,172.49z"/>
	<path d="M364,169.18l-11.23-5.32l0.41-1.54l8.43-1.14l-6.7-5.32l0.42-1.56l12.33,1.23l-0.61,2.28l-7.43-0.87l6.45,5.13l-0.17,0.63
		l-8.13,1.12l6.84,3.08L364,169.18z"/>
	<path d="M361.41,147.78c0.34-1.27,0.99-2.19,1.94-2.78s2.03-0.73,3.21-0.41c1.19,0.32,2.05,0.98,2.57,1.97
		c0.52,1,0.62,2.14,0.27,3.42c-0.34,1.28-1,2.21-1.97,2.79c-0.97,0.59-2.03,0.72-3.21,0.4s-2.03-0.98-2.55-1.98
		C361.15,150.19,361.07,149.05,361.41,147.78z M363.29,148.32c-0.16,0.59-0.09,1.14,0.21,1.67c0.3,0.53,0.74,0.87,1.33,1.03
		s1.14,0.09,1.66-0.22c0.53-0.3,0.87-0.75,1.02-1.34c0.16-0.59,0.09-1.15-0.21-1.68c-0.3-0.53-0.73-0.86-1.32-1.02
		s-1.13-0.09-1.66,0.22C363.79,147.28,363.45,147.73,363.29,148.32z"/>
	<path d="M363.22,141.96l0.56-2.11l0.94,0.25c-0.68-0.88-0.82-1.66-0.55-2.68c0.25-0.93,0.74-1.58,1.49-1.95
		c0.56-0.28,1.31-0.29,2.25-0.04l4.78,1.28l-0.56,2.11l-4.18-1.12c-0.58-0.15-1-0.2-1.27-0.11c-0.46,0.11-0.76,0.47-0.92,1.07
		c-0.28,1.06,0.27,1.78,1.66,2.16l3.9,1.04l-0.56,2.11L363.22,141.96z"/>
	<path d="M368.1,131.06l5.71,1.53l-0.56,2.11l-5.71-1.53l-0.22,0.83l-1.83-0.49l0.22-0.83l-2.57-0.69l0.56-2.11l2.57,0.69l0.4-1.49
		l1.83,0.49L368.1,131.06z"/>
	<path d="M375.09,127.78l-0.56,2.11l-7.53-2.02l0.56-2.11l1.15,0.31c-0.79-0.77-1.06-1.62-0.8-2.56c0.08-0.3,0.22-0.59,0.43-0.87
		l1.88,0.82c-0.26,0.27-0.44,0.57-0.52,0.93c-0.32,1.21,0.27,2.01,1.77,2.41L375.09,127.78z"/>
	<path d="M366.58,114.74l1.65,3.24l-0.97,0.82l-2.08-2.78L366.58,114.74z M374.75,115.36l-1.51,5.65c1.37,0.3,2.2-0.13,2.51-1.3
		c0.2-0.73,0.02-1.42-0.53-2.06l0.83-1.86c1.39,1.07,1.84,2.5,1.36,4.31c-0.33,1.23-0.96,2.11-1.88,2.65
		c-0.93,0.54-1.99,0.65-3.21,0.32c-1.21-0.33-2.09-0.94-2.62-1.86c-0.54-0.92-0.65-1.97-0.33-3.16c0.32-1.2,0.94-2.04,1.84-2.54
		c0.91-0.49,1.99-0.57,3.25-0.23L374.75,115.36z M371.92,120.58l0.96-3.57c-1.05-0.04-1.72,0.43-1.97,1.39
		C370.65,119.33,371.01,120.15,371.92,120.58z"/>
	<path d="M372.62,106.89l0.56-2.11l7.53,2.02l-0.56,2.11l-0.98-0.26c0.63,0.87,0.82,1.81,0.54,2.84s-0.89,1.79-1.84,2.29
		c-0.95,0.5-2,0.6-3.13,0.3c-1.13-0.3-1.99-0.92-2.58-1.83s-0.74-1.87-0.47-2.87c0.27-1,0.9-1.74,1.9-2.22L372.62,106.89z
		 M373.77,109.21c-0.16,0.59-0.09,1.15,0.21,1.67c0.3,0.53,0.74,0.86,1.33,1.02c0.58,0.16,1.14,0.09,1.66-0.22
		c0.53-0.3,0.86-0.74,1.02-1.32c0.15-0.58,0.08-1.13-0.22-1.66c-0.3-0.52-0.73-0.86-1.32-1.02s-1.13-0.09-1.66,0.2
		C374.26,108.18,373.93,108.63,373.77,109.21z"/>
	<path d="M368.79,99.2l13.02,3.49l-0.56,2.11l-13.02-3.49L368.79,99.2z"/>
</g>
<circle fill="#FFFFFF" stroke="#000000" stroke-width="3" stroke-miterlimit="10" cx="450" cy="286" r="10"/>
<g>
	<path d="M445.14,260.65l1.2,3.43l-1.09,0.69l-1.68-3L445.14,260.65z M450.27,261.5l-1.11,4.15l2.58,0.69l1.07-4l1.96,0.53l-1.07,4
		l3.13,0.84l1.11-4.15l1.96,0.53l-1.72,6.41l-11.6-3.11l1.72-6.41L450.27,261.5z"/>
	<path d="M448.92,252.96l0.56-2.11l13.02,3.49l-0.56,2.11l-0.98-0.26c0.63,0.87,0.82,1.81,0.54,2.84s-0.89,1.79-1.84,2.29
		c-0.95,0.5-2,0.6-3.13,0.3c-1.13-0.3-1.99-0.92-2.58-1.83c-0.58-0.91-0.74-1.87-0.47-2.87c0.27-1,0.9-1.74,1.9-2.22L448.92,252.96z
		 M455.57,256.75c-0.16,0.59-0.09,1.15,0.21,1.67c0.3,0.53,0.74,0.86,1.33,1.02s1.14,0.09,1.66-0.22c0.53-0.3,0.86-0.74,1.02-1.32
		c0.15-0.58,0.08-1.13-0.22-1.66c-0.3-0.53-0.73-0.86-1.32-1.02s-1.13-0.08-1.66,0.2C456.06,255.72,455.73,256.17,455.57,256.75z"/>
	<path d="M456.33,246.32c0.34-1.27,0.99-2.19,1.94-2.78c0.95-0.59,2.03-0.73,3.21-0.41s2.05,0.98,2.57,1.97
		c0.52,1,0.62,2.14,0.27,3.42c-0.34,1.28-1,2.21-1.97,2.79c-0.97,0.59-2.03,0.72-3.21,0.4s-2.03-0.98-2.55-1.99
		S456,247.59,456.33,246.32z M458.22,246.86c-0.16,0.59-0.09,1.14,0.21,1.67s0.74,0.87,1.33,1.03s1.14,0.09,1.66-0.22
		c0.53-0.3,0.87-0.75,1.02-1.34s0.09-1.15-0.21-1.68c-0.3-0.52-0.73-0.86-1.32-1.02c-0.59-0.16-1.13-0.08-1.66,0.22
		C458.72,245.82,458.38,246.27,458.22,246.86z"/>
	<path d="M458.72,238.39l4.26,1.14c1.15,0.31,1.86-0.05,2.13-1.08s-0.17-1.69-1.31-2l-4.26-1.14l0.56-2.11l4.61,1.24
		c2.04,0.55,2.82,2.14,2.19,4.48c-0.63,2.34-2.11,3.35-4.14,2.8l-4.61-1.24L458.72,238.39z"/>
	<path d="M462.19,225.42l0.56-2.1l7.53,2.02l-0.56,2.1l-0.98-0.26c0.63,0.87,0.82,1.81,0.54,2.84c-0.28,1.03-0.89,1.79-1.84,2.29
		s-2,0.6-3.13,0.3s-1.99-0.92-2.58-1.83c-0.58-0.91-0.74-1.87-0.47-2.87s0.9-1.74,1.9-2.22L462.19,225.42z M463.34,227.75
		c-0.16,0.59-0.09,1.15,0.21,1.67c0.3,0.53,0.74,0.86,1.33,1.02c0.58,0.16,1.14,0.09,1.66-0.22c0.53-0.3,0.86-0.74,1.02-1.32
		c0.16-0.58,0.08-1.13-0.22-1.66c-0.3-0.53-0.73-0.86-1.32-1.02c-0.59-0.16-1.13-0.09-1.66,0.2
		C463.84,226.71,463.5,227.16,463.34,227.75z"/>
	<path d="M471.39,221.22l-0.56,2.11l-7.53-2.02l0.56-2.11l1.15,0.31c-0.79-0.77-1.06-1.62-0.8-2.56c0.08-0.3,0.22-0.59,0.43-0.87
		l1.88,0.82c-0.26,0.27-0.44,0.57-0.52,0.93c-0.32,1.21,0.27,2.01,1.77,2.41L471.39,221.22z"/>
	<path d="M461,207.87l0.56-2.11l13.02,3.49l-0.56,2.11l-0.98-0.26c0.63,0.87,0.82,1.81,0.54,2.84c-0.27,1.03-0.89,1.79-1.84,2.29
		c-0.95,0.5-2,0.6-3.13,0.3c-1.13-0.3-1.99-0.92-2.58-1.83c-0.58-0.91-0.74-1.87-0.47-2.87s0.9-1.74,1.9-2.22L461,207.87z
		 M467.65,211.67c-0.16,0.59-0.09,1.15,0.21,1.67c0.3,0.53,0.74,0.86,1.33,1.02c0.58,0.16,1.14,0.09,1.66-0.22
		c0.53-0.3,0.86-0.74,1.02-1.32c0.15-0.58,0.08-1.13-0.22-1.66c-0.3-0.52-0.73-0.86-1.32-1.02c-0.59-0.16-1.13-0.08-1.66,0.2
		C468.15,210.63,467.81,211.08,467.65,211.67z"/>
	<path d="M470,206.95l1.05-3.91l1.75,0.47l-1.05,3.91L470,206.95z"/>
	<path d="M476.1,203.64l-11.23-5.32l0.41-1.54l8.43-1.14l-6.7-5.32l0.42-1.56l12.33,1.23l-0.61,2.28l-7.43-0.87l6.45,5.13
		l-0.17,0.63l-8.13,1.13l6.84,3.08L476.1,203.64z"/>
	<path d="M473.5,182.24c0.34-1.26,0.99-2.19,1.94-2.78c0.95-0.59,2.03-0.73,3.21-0.41c1.19,0.32,2.05,0.98,2.57,1.97
		c0.52,1,0.62,2.14,0.27,3.42c-0.34,1.28-1,2.21-1.97,2.79c-0.97,0.59-2.03,0.72-3.21,0.4s-2.03-0.98-2.55-1.99
		C473.25,184.65,473.17,183.51,473.5,182.24z M475.39,182.78c-0.16,0.59-0.09,1.14,0.21,1.67c0.3,0.53,0.74,0.87,1.33,1.03
		s1.14,0.09,1.66-0.22c0.53-0.3,0.87-0.75,1.02-1.34s0.09-1.15-0.21-1.68c-0.3-0.53-0.73-0.86-1.32-1.02s-1.13-0.08-1.66,0.22
		C475.89,181.74,475.55,182.19,475.39,182.78z"/>
	<path d="M475.32,176.42l0.56-2.11l0.94,0.25c-0.68-0.87-0.82-1.66-0.55-2.68c0.25-0.93,0.74-1.58,1.49-1.95
		c0.56-0.28,1.31-0.29,2.25-0.03l4.78,1.28l-0.56,2.11l-4.18-1.12c-0.58-0.16-1-0.2-1.27-0.11c-0.46,0.11-0.76,0.47-0.92,1.07
		c-0.28,1.06,0.27,1.78,1.66,2.16l3.9,1.04l-0.56,2.11L475.32,176.42z"/>
	<path d="M480.2,165.52l5.71,1.53l-0.56,2.11l-5.71-1.53l-0.22,0.83l-1.83-0.49l0.22-0.83l-2.57-0.69l0.56-2.11l2.57,0.69l0.4-1.49
		l1.83,0.49L480.2,165.52z"/>
	<path d="M491.21,163.32l-0.56,2.11l-11.55-3.09l0.56-2.11l0.98,0.26c-0.63-0.87-0.82-1.81-0.54-2.83c0.27-1.02,0.89-1.78,1.84-2.29
		c0.96-0.51,2-0.61,3.14-0.31c1.14,0.31,1.99,0.92,2.58,1.83c0.58,0.91,0.74,1.87,0.47,2.86c-0.27,0.99-0.9,1.74-1.91,2.23
		L491.21,163.32z M481.82,158.78c-0.16,0.59-0.09,1.13,0.21,1.66c0.3,0.53,0.74,0.86,1.33,1.02c0.58,0.16,1.14,0.09,1.66-0.22
		c0.53-0.3,0.86-0.74,1.02-1.32c0.15-0.58,0.08-1.13-0.22-1.66c-0.3-0.53-0.73-0.87-1.32-1.03s-1.13-0.09-1.66,0.22
		S481.98,158.2,481.82,158.78z"/>
	<path d="M487.84,146.14l-1.51,5.65c1.37,0.3,2.2-0.13,2.51-1.3c0.2-0.73,0.02-1.42-0.53-2.06l0.83-1.86
		c1.39,1.07,1.84,2.5,1.36,4.31c-0.33,1.23-0.96,2.11-1.88,2.65c-0.93,0.54-1.99,0.65-3.21,0.32c-1.21-0.33-2.09-0.94-2.62-1.86
		c-0.54-0.92-0.65-1.97-0.33-3.16c0.32-1.2,0.94-2.04,1.84-2.54s1.99-0.57,3.25-0.23L487.84,146.14z M485,151.36l0.96-3.57
		c-1.05-0.04-1.72,0.43-1.97,1.39C483.74,150.11,484.1,150.92,485,151.36z"/>
	<path d="M486.58,141.69l5.71,1.53l-0.56,2.11l-5.71-1.53l-0.22,0.83l-1.83-0.49l0.22-0.83l-2.57-0.69l0.56-2.11l2.57,0.69l0.4-1.49
		l1.83,0.49L486.58,141.69z"/>
	<path d="M481.31,136.27c0.09-0.35,0.29-0.61,0.6-0.79c0.31-0.18,0.64-0.22,0.99-0.13c0.35,0.09,0.62,0.3,0.8,0.62
		c0.19,0.31,0.23,0.65,0.14,1c-0.09,0.35-0.3,0.61-0.61,0.79c-0.31,0.18-0.65,0.23-1,0.13c-0.35-0.09-0.62-0.3-0.8-0.62
		C481.25,136.96,481.22,136.62,481.31,136.27z M486.03,136.44l7.53,2.02l-0.56,2.1l-7.53-2.02L486.03,136.44z"/>
	<path d="M488.96,132.82l5.71,1.53l-0.56,2.11l-5.71-1.53l-0.22,0.83l-1.83-0.49l0.22-0.83l-2.57-0.69l0.56-2.11l2.57,0.69l0.4-1.49
		l1.83,0.49L488.96,132.82z"/>
</g>
<circle fill="#FFFFFF" stroke="#000000" stroke-width="3" stroke-miterlimit="10" cx="570" cy="286" r="10"/>
<g>
	<path d="M566.5,261.68c0.46-1.72,1.44-3.02,2.93-3.9c1.49-0.88,3.09-1.09,4.8-0.63c1.71,0.46,2.98,1.44,3.82,2.96
		c0.84,1.52,1.02,3.15,0.55,4.9c-0.47,1.75-1.45,3.05-2.94,3.92c-1.5,0.86-3.09,1.06-4.79,0.61c-1.7-0.46-2.97-1.45-3.81-2.98
		C566.23,265.03,566.04,263.4,566.5,261.68z M568.57,262.26c-0.29,1.06-0.14,2.08,0.43,3.04c0.57,0.97,1.41,1.61,2.51,1.9
		c1.1,0.3,2.15,0.17,3.13-0.38c0.98-0.55,1.62-1.35,1.9-2.42c0.29-1.07,0.14-2.09-0.44-3.06c-0.58-0.96-1.42-1.59-2.52-1.89
		c-1.1-0.29-2.15-0.17-3.12,0.37C569.49,260.39,568.85,261.2,568.57,262.26z"/>
	<path d="M573.52,252.81l4.26,1.14c1.15,0.31,1.86-0.05,2.14-1.08c0.27-1.03-0.17-1.69-1.31-2l-4.26-1.14l0.56-2.11l4.61,1.24
		c2.04,0.55,2.82,2.14,2.19,4.48c-0.63,2.34-2.11,3.35-4.14,2.8l-4.61-1.24L573.52,252.81z"/>
	<path d="M577.84,243.99l5.71,1.53l-0.56,2.1l-5.71-1.53l-0.22,0.83l-1.83-0.49l0.22-0.83l-2.57-0.69l0.56-2.1l2.57,0.69l0.4-1.49
		l1.83,0.49L577.84,243.99z"/>
	<path d="M584.83,240.71l-0.56,2.11l-7.53-2.02l0.56-2.11l1.15,0.31c-0.79-0.77-1.06-1.62-0.8-2.56c0.08-0.3,0.22-0.59,0.43-0.87
		l1.88,0.82c-0.26,0.27-0.44,0.57-0.52,0.93c-0.32,1.21,0.27,2.01,1.77,2.41L584.83,240.71z"/>
	<path d="M584.49,228.29l-1.51,5.65c1.37,0.3,2.2-0.13,2.51-1.3c0.2-0.73,0.02-1.42-0.53-2.06l0.83-1.86
		c1.39,1.07,1.84,2.5,1.36,4.31c-0.33,1.23-0.96,2.11-1.88,2.65s-1.99,0.65-3.21,0.32s-2.09-0.94-2.62-1.86
		c-0.54-0.92-0.65-1.97-0.33-3.16c0.32-1.2,0.94-2.04,1.84-2.54c0.91-0.49,1.99-0.57,3.25-0.23L584.49,228.29z M581.66,233.51
		l0.96-3.57c-1.05-0.04-1.72,0.43-1.97,1.39C580.39,232.26,580.75,233.08,581.66,233.51z"/>
	<path d="M586.33,219.66l3.86,1.04l-0.56,2.11l-4-1.07c-0.59-0.16-1.01-0.23-1.27-0.19c-0.25,0.03-0.48,0.13-0.67,0.31
		c-0.19,0.18-0.32,0.39-0.39,0.62c-0.13,0.48,0.02,1.04,0.42,1.44c0.2,0.2,0.64,0.39,1.31,0.56l3.86,1.03l-0.56,2.11l-7.53-2.02
		l0.56-2.11l0.87,0.23c-0.56-0.85-0.72-1.75-0.47-2.7s0.91-1.58,1.97-1.87c-0.76-0.84-1-1.76-0.73-2.77s0.83-1.63,1.67-1.88
		c0.5-0.15,1.14-0.12,1.93,0.09l4.87,1.3l-0.56,2.1l-4.12-1.1c-0.54-0.14-0.96-0.19-1.25-0.15c-0.49,0.08-0.81,0.37-0.95,0.88
		C584.34,218.61,584.91,219.28,586.33,219.66z"/>
	<path d="M585.3,207.87c0.34-1.27,0.99-2.19,1.94-2.78c0.95-0.59,2.03-0.73,3.21-0.41s2.05,0.98,2.57,1.97
		c0.52,1,0.62,2.14,0.27,3.42s-1,2.21-1.97,2.79c-0.97,0.59-2.03,0.72-3.21,0.4c-1.18-0.32-2.03-0.98-2.55-1.99
		S584.96,209.14,585.3,207.87z M587.19,208.41c-0.16,0.59-0.09,1.14,0.21,1.67s0.74,0.87,1.33,1.03c0.58,0.16,1.14,0.09,1.66-0.22
		c0.53-0.3,0.87-0.75,1.02-1.34c0.16-0.59,0.09-1.15-0.21-1.68c-0.3-0.52-0.73-0.86-1.32-1.02s-1.13-0.08-1.66,0.22
		S587.35,207.82,587.19,208.41z"/>
	<path d="M587.12,202.04l0.56-2.11l0.94,0.25c-0.68-0.88-0.82-1.66-0.55-2.68c0.25-0.93,0.74-1.58,1.49-1.95
		c0.56-0.28,1.31-0.29,2.25-0.04l4.78,1.28l-0.56,2.11l-4.18-1.12c-0.58-0.16-1-0.2-1.27-0.11c-0.46,0.11-0.76,0.47-0.92,1.07
		c-0.29,1.06,0.27,1.78,1.66,2.16l3.9,1.04l-0.56,2.11L587.12,202.04z"/>
	<path d="M592,191.15l5.71,1.53l-0.56,2.11l-5.71-1.53l-0.22,0.83l-1.83-0.49l0.22-0.83l-2.57-0.69l0.56-2.11l2.57,0.69l0.4-1.49
		l1.83,0.49L592,191.15z"/>
</g>
<circle fill="#FFFFFF" stroke="#000000" stroke-width="3" stroke-miterlimit="10" cx="690" cy="286" r="10"/>
<g>
	<path d="M696.24,262.97l-1.27,4.75l2.17,1.7l-0.64,2.4l-10.5-8.2l0.46-1.71l13.15-1.69l-0.65,2.42L696.24,262.97z M694.22,263.19
		l-4.6,0.5l3.72,2.8L694.22,263.19z"/>
	<path d="M696.16,252.17c-0.58,0.44-0.95,0.96-1.11,1.56c-0.16,0.6-0.1,1.16,0.19,1.68c0.29,0.52,0.73,0.86,1.34,1.03
		c0.61,0.16,1.17,0.09,1.68-0.21c0.51-0.31,0.85-0.76,1.01-1.38c0.16-0.61,0.11-1.23-0.16-1.88l2.05,0.55
		c0.15,0.7,0.13,1.38-0.04,2.05c-0.31,1.17-0.96,2.05-1.93,2.63c-0.97,0.59-2.02,0.72-3.15,0.42s-1.98-0.96-2.55-1.96
		c-0.56-1-0.69-2.09-0.37-3.26c0.18-0.69,0.51-1.28,0.96-1.79L696.16,252.17z"/>
	<path d="M695.83,244.17l0.56-2.11l7.53,2.02l-0.56,2.11l-0.98-0.26c0.63,0.87,0.82,1.81,0.54,2.84s-0.89,1.79-1.84,2.29
		s-2,0.6-3.13,0.3c-1.13-0.3-1.99-0.92-2.58-1.83c-0.58-0.91-0.74-1.87-0.47-2.87s0.9-1.74,1.9-2.22L695.83,244.17z M696.99,246.49
		c-0.16,0.59-0.09,1.15,0.21,1.67c0.3,0.53,0.74,0.86,1.33,1.02c0.58,0.16,1.14,0.09,1.66-0.22c0.53-0.3,0.86-0.74,1.02-1.32
		c0.15-0.58,0.08-1.13-0.22-1.66c-0.3-0.53-0.73-0.86-1.32-1.02c-0.59-0.16-1.13-0.09-1.66,0.2
		C697.48,245.46,697.14,245.91,696.99,246.49z"/>
	<path d="M692.99,232.81l0.56-2.11l13.02,3.49l-0.56,2.11l-0.98-0.26c0.63,0.87,0.82,1.81,0.54,2.84s-0.89,1.79-1.84,2.29
		s-2,0.6-3.13,0.3s-1.99-0.92-2.58-1.83c-0.58-0.91-0.74-1.87-0.47-2.87s0.9-1.74,1.9-2.22L692.99,232.81z M699.64,236.6
		c-0.16,0.59-0.09,1.15,0.21,1.67c0.3,0.53,0.74,0.86,1.33,1.02s1.14,0.09,1.66-0.22c0.53-0.3,0.86-0.74,1.02-1.32
		c0.15-0.58,0.08-1.13-0.22-1.66c-0.3-0.53-0.73-0.86-1.32-1.02s-1.13-0.09-1.66,0.2C700.13,235.57,699.79,236.01,699.64,236.6z"/>
	<path d="M695.42,227.94c0.09-0.35,0.29-0.61,0.6-0.79c0.31-0.18,0.64-0.22,0.99-0.13c0.35,0.09,0.62,0.3,0.8,0.62
		c0.19,0.31,0.23,0.65,0.14,1c-0.09,0.35-0.3,0.61-0.61,0.79c-0.31,0.18-0.65,0.23-1,0.13c-0.35-0.09-0.62-0.3-0.8-0.62
		C695.36,228.62,695.32,228.28,695.42,227.94z M700.14,228.1l7.53,2.02l-0.56,2.1l-7.53-2.02L700.14,228.1z"/>
	<path d="M706.76,219.81l-1.51,5.64c1.37,0.3,2.2-0.13,2.51-1.3c0.2-0.73,0.01-1.42-0.53-2.06l0.83-1.86
		c1.39,1.07,1.84,2.5,1.36,4.31c-0.33,1.23-0.96,2.11-1.88,2.65c-0.93,0.54-1.99,0.65-3.21,0.32c-1.21-0.33-2.09-0.94-2.62-1.86
		c-0.54-0.92-0.65-1.96-0.33-3.16s0.94-2.04,1.84-2.54c0.91-0.49,1.99-0.57,3.25-0.23L706.76,219.81z M703.93,225.03l0.96-3.57
		c-1.05-0.04-1.72,0.43-1.97,1.39C702.66,223.78,703.03,224.6,703.93,225.03z"/>
</g>
<circle fill="#FFFFFF" stroke="#000000" stroke-width="3" stroke-miterlimit="10" cx="810" cy="286" r="10"/>
<g>
	<path d="M813.16,267.08l4.3,1.15l-0.61,2.26l-11.6-3.11l0.91-3.39c0.2-0.76,0.43-1.34,0.68-1.76c0.26-0.42,0.6-0.78,1.02-1.06
		c0.92-0.6,1.94-0.75,3.03-0.45c1.1,0.29,1.9,0.85,2.42,1.68c0.52,0.82,0.59,1.9,0.24,3.23L813.16,267.08z M811.2,266.56l0.25-0.92
		c0.38-1.42,0.01-2.27-1.1-2.57c-1.18-0.32-1.88,0.22-2.31,1.8l-0.21,0.78L811.2,266.56z"/>
	<path d="M813.18,254.07l0.56-2.11l7.53,2.02l-0.56,2.11l-0.98-0.26c0.63,0.87,0.82,1.81,0.54,2.84s-0.89,1.79-1.84,2.29
		s-2,0.6-3.13,0.3c-1.13-0.3-1.99-0.92-2.58-1.83c-0.58-0.91-0.74-1.87-0.47-2.87s0.9-1.74,1.9-2.22L813.18,254.07z M814.33,256.39
		c-0.16,0.59-0.09,1.15,0.21,1.67c0.3,0.53,0.74,0.86,1.33,1.02c0.58,0.16,1.14,0.09,1.66-0.22c0.53-0.3,0.86-0.74,1.02-1.32
		c0.15-0.58,0.08-1.13-0.22-1.66c-0.3-0.53-0.73-0.86-1.32-1.02s-1.13-0.09-1.66,0.2C814.83,255.36,814.49,255.8,814.33,256.39z"/>
	<path d="M822.38,249.87l-0.56,2.1l-7.53-2.02l0.56-2.1l1.15,0.31c-0.79-0.77-1.06-1.62-0.8-2.56c0.08-0.3,0.22-0.59,0.43-0.87
		l1.88,0.82c-0.26,0.27-0.44,0.57-0.52,0.93c-0.32,1.21,0.27,2.01,1.77,2.41L822.38,249.87z"/>
	<path d="M819.74,238.79c-0.58,0.44-0.95,0.96-1.11,1.56c-0.16,0.6-0.1,1.16,0.19,1.68s0.73,0.86,1.34,1.02s1.17,0.09,1.68-0.21
		c0.51-0.31,0.85-0.76,1.02-1.38c0.16-0.61,0.11-1.23-0.16-1.88l2.05,0.55c0.15,0.7,0.13,1.38-0.04,2.05
		c-0.31,1.17-0.96,2.04-1.93,2.63c-0.97,0.59-2.02,0.72-3.15,0.42s-1.98-0.96-2.55-1.96c-0.56-1-0.69-2.09-0.37-3.26
		c0.18-0.69,0.51-1.28,0.96-1.79L819.74,238.79z"/>
</g>
<circle fill="#FFFFFF" stroke="#000000" stroke-width="3" stroke-miterlimit="10" cx="930" cy="286" r="10"/>
<g>
	<path d="M936.85,270.49l-11.6-3.11l0.89-3.32c0.45-1.69,1.27-2.95,2.45-3.79c0.71-0.51,1.5-0.84,2.38-1
		c0.88-0.16,1.75-0.11,2.62,0.12c0.87,0.23,1.64,0.64,2.33,1.22c0.69,0.58,1.21,1.28,1.58,2.09c0.61,1.29,0.69,2.79,0.23,4.49
		L936.85,270.49z M935.5,267.71l0.16-0.61c0.37-1.38,0.34-2.49-0.1-3.34c-0.48-0.97-1.47-1.74-2.58-2.04
		c-1.18-0.32-2.26-0.16-3.22,0.48c-0.81,0.53-1.4,1.47-1.77,2.84l-0.16,0.61L935.5,267.71z"/>
	<path d="M938.45,250.86l-1.51,5.65c1.37,0.3,2.2-0.13,2.51-1.3c0.2-0.73,0.02-1.42-0.53-2.06l0.83-1.86
		c1.39,1.07,1.84,2.5,1.36,4.31c-0.33,1.23-0.96,2.11-1.88,2.65c-0.93,0.54-1.99,0.65-3.21,0.32s-2.09-0.94-2.62-1.86
		c-0.54-0.92-0.65-1.97-0.33-3.16c0.32-1.2,0.94-2.04,1.84-2.54s1.99-0.57,3.26-0.23L938.45,250.86z M935.61,256.08l0.96-3.57
		c-1.05-0.04-1.72,0.43-1.97,1.39C934.34,254.83,934.71,255.64,935.61,256.08z"/>
	<path d="M937.31,234.87c-1.11,0.65-1.8,1.49-2.08,2.53c-0.28,1.04-0.12,2.02,0.45,2.96c0.58,0.95,1.44,1.57,2.57,1.87
		c1.13,0.3,2.17,0.19,3.12-0.35c0.95-0.53,1.57-1.34,1.86-2.44c0.15-0.54,0.18-1.05,0.1-1.53c-0.08-0.48-0.29-1-0.62-1.59l2.66,0.71
		c0.19,1.1,0.17,2.1-0.08,3.02c-0.46,1.71-1.43,3.01-2.91,3.88c-1.48,0.87-3.06,1.08-4.75,0.63c-1.69-0.45-2.96-1.43-3.84-2.95
		s-1.08-3.12-0.63-4.81c0.25-0.94,0.74-1.82,1.47-2.64L937.31,234.87z"/>
	<path d="M940.27,227.6l0.56-2.11l7.53,2.02l-0.56,2.11l-0.98-0.26c0.63,0.87,0.82,1.81,0.54,2.84s-0.89,1.79-1.84,2.29
		s-2,0.6-3.13,0.3c-1.13-0.3-1.99-0.92-2.58-1.83c-0.58-0.91-0.74-1.87-0.47-2.87c0.27-1,0.9-1.74,1.9-2.22L940.27,227.6z
		 M941.43,229.92c-0.16,0.59-0.09,1.15,0.21,1.67c0.3,0.53,0.74,0.86,1.33,1.02c0.59,0.16,1.14,0.09,1.66-0.22
		c0.53-0.3,0.86-0.74,1.02-1.32c0.15-0.58,0.08-1.13-0.22-1.66c-0.3-0.52-0.73-0.86-1.32-1.02s-1.13-0.08-1.66,0.2
		C941.92,228.89,941.58,229.33,941.43,229.92z"/>
	<path d="M944.23,219.87c-0.45,0.35-0.72,0.68-0.8,1c-0.08,0.31-0.09,0.56-0.01,0.75c0.08,0.2,0.22,0.31,0.39,0.36
		c0.18,0.05,0.34,0.01,0.5-0.12s0.41-0.46,0.77-1c0.36-0.53,0.68-0.92,0.97-1.14c0.53-0.45,1.17-0.58,1.93-0.38
		c0.76,0.2,1.31,0.67,1.66,1.39c0.35,0.73,0.4,1.56,0.15,2.49c-0.3,1.14-0.98,1.98-2.02,2.52l-0.99-1.45
		c0.74-0.43,1.2-0.94,1.36-1.55c0.14-0.54-0.12-1.06-0.57-1.18c-0.23-0.06-0.42-0.04-0.57,0.07c-0.15,0.11-0.42,0.44-0.8,1
		c-0.38,0.55-0.69,0.92-0.93,1.11c-0.48,0.41-1.07,0.51-1.77,0.33s-1.21-0.6-1.52-1.23c-0.32-0.62-0.35-1.36-0.13-2.21
		s0.71-1.56,1.44-2.14L944.23,219.87z"/>
	<path d="M945.69,214.67l5.71,1.53l-0.56,2.11l-5.71-1.53l-0.22,0.83l-1.83-0.49l0.22-0.83l-2.57-0.69l0.56-2.11l2.57,0.69l0.4-1.49
		l1.83,0.49L945.69,214.67z"/>
	<path d="M950.66,205.27l-1.51,5.64c1.37,0.3,2.2-0.13,2.51-1.3c0.2-0.73,0.02-1.42-0.53-2.06l0.83-1.86
		c1.39,1.07,1.84,2.5,1.36,4.31c-0.33,1.23-0.96,2.11-1.88,2.65c-0.93,0.54-1.99,0.65-3.21,0.32c-1.21-0.33-2.09-0.94-2.62-1.86
		c-0.54-0.92-0.65-1.96-0.33-3.16c0.32-1.2,0.94-2.04,1.84-2.54s1.99-0.57,3.25-0.23L950.66,205.27z M947.83,210.49l0.96-3.57
		c-1.05-0.04-1.72,0.43-1.97,1.39C946.56,209.24,946.92,210.05,947.83,210.49z"/>
	<path d="M942.06,198.94l13.02,3.49l-0.56,2.11l-13.02-3.49L942.06,198.94z"/>
	<path d="M948.1,198.4l0.56-2.11l0.94,0.25c-0.68-0.88-0.82-1.66-0.55-2.68c0.25-0.93,0.74-1.58,1.49-1.95
		c0.56-0.28,1.31-0.29,2.25-0.03l4.78,1.28l-0.56,2.11l-4.18-1.12c-0.58-0.15-1-0.2-1.27-0.11c-0.46,0.11-0.76,0.47-0.92,1.07
		c-0.28,1.06,0.27,1.78,1.66,2.16l3.9,1.04l-0.56,2.11L948.1,198.4z"/>
	<path d="M952.12,183.37l0.56-2.11l7.53,2.02l-0.56,2.11l-0.98-0.26c0.63,0.87,0.82,1.81,0.54,2.84s-0.89,1.79-1.84,2.29
		s-2,0.6-3.13,0.3c-1.13-0.3-1.99-0.92-2.58-1.83c-0.58-0.91-0.74-1.87-0.47-2.87s0.9-1.74,1.9-2.22L952.12,183.37z M953.28,185.69
		c-0.16,0.59-0.09,1.15,0.21,1.67c0.3,0.53,0.74,0.86,1.33,1.02c0.58,0.16,1.14,0.09,1.66-0.22c0.53-0.3,0.86-0.74,1.02-1.32
		c0.15-0.58,0.08-1.13-0.22-1.66c-0.3-0.53-0.73-0.86-1.32-1.02s-1.13-0.09-1.66,0.2C953.77,184.66,953.44,185.1,953.28,185.69z"/>
	<path d="M953.79,177.15l4.26,1.14c1.15,0.31,1.86-0.05,2.13-1.07s-0.17-1.69-1.31-2l-4.26-1.14l0.56-2.1l4.61,1.24
		c2.04,0.54,2.82,2.14,2.19,4.48c-0.63,2.34-2.11,3.35-4.15,2.8l-4.61-1.24L953.79,177.15z"/>
</g>
<circle fill="#FFFFFF" stroke="#000000" stroke-width="3" stroke-miterlimit="10" cx="1050" cy="286" r="10"/>
<g>
	<path d="M1046.48,262.82l7.83,2.1c1.52,0.41,2.51,1.04,2.98,1.9c0.38,0.73,0.43,1.57,0.18,2.51c-0.25,0.94-0.85,1.71-1.79,2.29
		l-1.29-1.79c0.52-0.18,0.85-0.51,0.98-0.99c0.13-0.48-0.01-0.87-0.44-1.15c-0.25-0.18-0.78-0.37-1.59-0.6l-7.46-2L1046.48,262.82z"
		/>
	<path d="M1057.26,255.26l-1.51,5.65c1.37,0.3,2.2-0.13,2.51-1.3c0.2-0.73,0.02-1.42-0.53-2.06l0.83-1.86
		c1.39,1.07,1.84,2.5,1.36,4.31c-0.33,1.23-0.96,2.11-1.88,2.65c-0.93,0.54-1.99,0.65-3.21,0.32s-2.09-0.94-2.62-1.86
		s-0.65-1.97-0.33-3.16c0.32-1.2,0.94-2.04,1.84-2.54c0.91-0.49,1.99-0.57,3.25-0.23L1057.26,255.26z M1054.43,260.48l0.96-3.57
		c-1.05-0.04-1.72,0.43-1.97,1.39C1053.16,259.23,1053.53,260.05,1054.43,260.48z"/>
	<path d="M1055.13,246.79l0.56-2.11l7.53,2.02l-0.56,2.11l-0.98-0.26c0.63,0.87,0.82,1.81,0.54,2.84c-0.28,1.03-0.89,1.79-1.84,2.29
		s-2,0.6-3.13,0.3c-1.13-0.3-1.99-0.92-2.58-1.83c-0.58-0.91-0.74-1.87-0.47-2.87s0.9-1.74,1.9-2.22L1055.13,246.79z
		 M1056.28,249.11c-0.16,0.59-0.09,1.15,0.21,1.67c0.3,0.53,0.74,0.86,1.33,1.02c0.58,0.16,1.14,0.09,1.66-0.22
		c0.53-0.3,0.86-0.74,1.02-1.32s0.08-1.13-0.22-1.66c-0.3-0.53-0.73-0.86-1.32-1.02s-1.13-0.08-1.66,0.2
		C1056.78,248.08,1056.44,248.53,1056.28,249.11z"/>
	<path d="M1056.23,242.68l0.56-2.11l0.94,0.25c-0.68-0.88-0.82-1.66-0.55-2.68c0.25-0.92,0.74-1.58,1.49-1.95
		c0.56-0.28,1.31-0.29,2.25-0.03l4.78,1.28l-0.56,2.11l-4.18-1.12c-0.58-0.15-1-0.2-1.27-0.11c-0.46,0.11-0.76,0.47-0.92,1.07
		c-0.28,1.06,0.27,1.78,1.66,2.16l3.9,1.04l-0.56,2.11L1056.23,242.68z"/>
	<path d="M1061.11,235.14l1.05-3.91l1.75,0.47l-1.05,3.91L1061.11,235.14z"/>
	<path d="M1068.38,227.48l-0.61,2.27l-9.64-2.58l-0.69,2.59l-1.96-0.53l2-7.46l1.96,0.53l-0.7,2.61L1068.38,227.48z"/>
	<path d="M1063.21,216.63l0.56-2.11l7.53,2.02l-0.56,2.11l-0.98-0.26c0.63,0.87,0.82,1.81,0.54,2.84c-0.28,1.03-0.89,1.79-1.84,2.29
		s-2,0.6-3.13,0.3s-1.99-0.92-2.58-1.83c-0.58-0.91-0.74-1.87-0.47-2.87s0.9-1.74,1.9-2.22L1063.21,216.63z M1064.37,218.95
		c-0.16,0.59-0.09,1.15,0.21,1.67c0.3,0.53,0.74,0.86,1.33,1.02c0.59,0.16,1.14,0.09,1.66-0.22c0.53-0.3,0.86-0.74,1.02-1.32
		c0.15-0.58,0.09-1.13-0.22-1.66c-0.3-0.53-0.73-0.86-1.32-1.02c-0.59-0.16-1.13-0.09-1.66,0.2
		C1064.86,217.92,1064.52,218.36,1064.37,218.95z"/>
	<path d="M1059.39,208.94l13.02,3.49l-0.56,2.11l-13.02-3.49L1059.39,208.94z"/>
	<path d="M1066.23,204.4c0.34-1.26,0.99-2.19,1.94-2.78s2.02-0.73,3.21-0.41s2.05,0.98,2.57,1.97c0.52,1,0.62,2.14,0.28,3.42
		c-0.34,1.28-1,2.21-1.97,2.79c-0.97,0.59-2.03,0.72-3.21,0.4c-1.18-0.32-2.03-0.98-2.55-1.98
		C1065.98,206.81,1065.9,205.67,1066.23,204.4z M1068.12,204.93c-0.16,0.59-0.09,1.14,0.21,1.67c0.3,0.53,0.74,0.87,1.33,1.03
		c0.58,0.16,1.14,0.09,1.66-0.22c0.53-0.3,0.87-0.75,1.02-1.34c0.16-0.59,0.09-1.15-0.21-1.68c-0.3-0.53-0.73-0.86-1.32-1.02
		c-0.59-0.16-1.13-0.08-1.66,0.22C1068.62,203.9,1068.28,204.35,1068.12,204.93z"/>
	<path d="M1068.05,198.57l0.56-2.11l0.94,0.25c-0.68-0.88-0.82-1.66-0.55-2.68c0.25-0.92,0.74-1.58,1.49-1.95
		c0.56-0.28,1.31-0.29,2.25-0.03l4.78,1.28l-0.56,2.11l-4.18-1.12c-0.58-0.15-1-0.2-1.27-0.11c-0.46,0.11-0.76,0.47-0.92,1.07
		c-0.28,1.06,0.27,1.78,1.66,2.16l3.9,1.04l-0.56,2.11L1068.05,198.57z"/>
</g>
<circle fill="#FFFFFF" stroke="#000000" stroke-width="3" stroke-miterlimit="10" cx="1170" cy="286" r="10"/>
<g>
	<path d="M1168.86,261.78l-1.04,3.88l2.58,0.69l0.97-3.63l1.96,0.53l-0.97,3.63l5.09,1.37l-0.61,2.26l-11.6-3.11l1.64-6.14
		L1168.86,261.78z"/>
	<path d="M1172.9,255.11l0.56-2.11l7.53,2.02l-0.56,2.11l-0.98-0.26c0.63,0.87,0.82,1.81,0.54,2.84s-0.89,1.79-1.84,2.29
		c-0.95,0.5-2,0.6-3.13,0.3s-1.99-0.92-2.58-1.83c-0.58-0.91-0.73-1.87-0.47-2.87s0.9-1.74,1.9-2.22L1172.9,255.11z M1174.05,257.43
		c-0.16,0.59-0.09,1.15,0.21,1.67c0.3,0.53,0.74,0.86,1.33,1.02c0.59,0.16,1.14,0.09,1.66-0.22c0.53-0.3,0.86-0.74,1.02-1.32
		c0.16-0.58,0.09-1.13-0.22-1.66c-0.3-0.53-0.73-0.86-1.32-1.02c-0.59-0.16-1.13-0.09-1.65,0.2
		C1174.55,256.4,1174.21,256.85,1174.05,257.43z"/>
	<path d="M1169.08,247.42l6.47,1.73c-0.62-0.92-0.8-1.89-0.53-2.89c0.27-1,0.88-1.75,1.83-2.25s2-0.59,3.14-0.29
		c1.14,0.31,2,0.91,2.58,1.82c0.57,0.91,0.72,1.88,0.45,2.9c-0.28,1.03-0.91,1.76-1.9,2.19l0.97,0.26l-0.56,2.11l-13.02-3.49
		L1169.08,247.42z M1176.73,247.45c-0.16,0.59-0.09,1.13,0.21,1.66c0.3,0.53,0.74,0.86,1.33,1.02c0.59,0.16,1.14,0.09,1.66-0.22
		c0.53-0.3,0.86-0.74,1.02-1.32c0.15-0.58,0.09-1.13-0.22-1.66c-0.3-0.53-0.73-0.87-1.32-1.03c-0.59-0.16-1.13-0.08-1.66,0.22
		S1176.89,246.87,1176.73,247.45z"/>
	<path d="M1184.75,241.02l-0.56,2.11l-7.53-2.02l0.56-2.11l1.14,0.31c-0.79-0.77-1.06-1.62-0.8-2.56c0.08-0.3,0.22-0.59,0.43-0.87
		l1.88,0.82c-0.26,0.27-0.44,0.57-0.52,0.93c-0.32,1.21,0.27,2.01,1.77,2.41L1184.75,241.02z"/>
	<path d="M1184.41,228.6l-1.51,5.65c1.37,0.3,2.2-0.13,2.51-1.3c0.2-0.73,0.02-1.42-0.53-2.06l0.83-1.86
		c1.39,1.07,1.84,2.5,1.37,4.31c-0.33,1.23-0.96,2.11-1.88,2.65s-1.99,0.65-3.21,0.32c-1.21-0.33-2.09-0.94-2.62-1.86
		c-0.54-0.92-0.65-1.97-0.33-3.16c0.32-1.2,0.94-2.04,1.85-2.54s1.99-0.57,3.25-0.23L1184.41,228.6z M1181.57,233.82l0.96-3.57
		c-1.05-0.04-1.72,0.43-1.97,1.39C1180.31,232.57,1180.67,233.38,1181.57,233.82z"/>
</g>
<circle fill="#FFFFFF" stroke="#000000" stroke-width="3" stroke-miterlimit="10" cx="1290" cy="286" r="10"/>
<g>
	<path d="M1296.85,270.49l-11.6-3.11l0.89-3.32c0.45-1.69,1.27-2.95,2.45-3.79c0.71-0.51,1.5-0.85,2.38-1s1.75-0.11,2.62,0.12
		c0.87,0.23,1.64,0.64,2.33,1.22c0.69,0.58,1.21,1.28,1.58,2.09c0.61,1.29,0.69,2.79,0.23,4.49L1296.85,270.49z M1295.5,267.71
		l0.16-0.61c0.37-1.38,0.34-2.49-0.1-3.34c-0.48-0.97-1.47-1.74-2.58-2.04c-1.18-0.32-2.26-0.16-3.22,0.48
		c-0.81,0.53-1.4,1.47-1.77,2.84l-0.16,0.61L1295.5,267.71z"/>
	<path d="M1288.39,254.78l0.75-1.87l3.97,3.69l-0.54,1.29L1288.39,254.78z"/>
	<path d="M1290.33,248.45l11.6,3.11l-0.61,2.26l-11.6-3.11L1290.33,248.45z"/>
	<path d="M1290.09,243.63l6.47,1.73c-0.62-0.92-0.8-1.89-0.53-2.89s0.88-1.75,1.83-2.25s2-0.59,3.14-0.29
		c1.15,0.31,2,0.91,2.58,1.82c0.58,0.91,0.73,1.88,0.45,2.9s-0.91,1.76-1.9,2.19l0.98,0.26l-0.56,2.11l-13.02-3.49L1290.09,243.63z
		 M1297.74,243.66c-0.16,0.59-0.09,1.13,0.21,1.66c0.3,0.53,0.74,0.86,1.33,1.02c0.58,0.16,1.14,0.09,1.66-0.22
		c0.53-0.3,0.86-0.74,1.02-1.32c0.15-0.58,0.08-1.13-0.22-1.66c-0.3-0.53-0.73-0.87-1.32-1.03c-0.59-0.16-1.13-0.08-1.66,0.22
		S1297.9,243.08,1297.74,243.66z"/>
	<path d="M1303.76,231.02l-1.51,5.64c1.37,0.3,2.2-0.13,2.51-1.3c0.2-0.73,0.02-1.42-0.53-2.06l0.83-1.86
		c1.39,1.07,1.84,2.5,1.36,4.31c-0.33,1.23-0.96,2.11-1.88,2.65s-1.99,0.65-3.21,0.32c-1.21-0.33-2.09-0.94-2.62-1.86
		c-0.54-0.92-0.65-1.96-0.33-3.16c0.32-1.2,0.94-2.04,1.84-2.54c0.91-0.5,1.99-0.57,3.25-0.23L1303.76,231.02z M1300.93,236.24
		l0.96-3.57c-1.05-0.04-1.72,0.43-1.97,1.39C1299.66,234.99,1300.02,235.8,1300.93,236.24z"/>
	<path d="M1308.17,228.23l-0.56,2.11l-7.53-2.02l0.56-2.11l1.15,0.31c-0.79-0.77-1.06-1.62-0.8-2.56c0.08-0.3,0.22-0.59,0.43-0.87
		l1.88,0.82c-0.26,0.27-0.44,0.58-0.52,0.93c-0.32,1.21,0.27,2.01,1.77,2.41L1308.17,228.23z"/>
	<path d="M1302.27,220.15l4.79-0.84l-3.74-3.1l0.63-2.37l6.64,5.94l-0.25,0.95l-8.71,1.79L1302.27,220.15z"/>
	<path d="M1300.09,210.49c0.09-0.35,0.29-0.61,0.6-0.79c0.31-0.18,0.64-0.22,0.99-0.13c0.35,0.09,0.62,0.3,0.8,0.62
		c0.19,0.31,0.23,0.65,0.14,1c-0.09,0.35-0.3,0.61-0.61,0.79c-0.31,0.18-0.65,0.23-1,0.13c-0.35-0.09-0.62-0.3-0.8-0.62
		C1300.03,211.17,1300,210.84,1300.09,210.49z M1304.81,210.65l7.53,2.02l-0.56,2.1l-7.53-2.02L1304.81,210.65z"/>
	<path d="M1300.42,205.09l13.02,3.49l-0.56,2.11l-13.02-3.49L1300.42,205.09z"/>
	<path d="M1301.52,200.97l13.02,3.49l-0.56,2.11l-13.02-3.49L1301.52,200.97z"/>
	<path d="M1313.65,194.13l-1.51,5.65c1.37,0.3,2.2-0.13,2.51-1.3c0.2-0.73,0.02-1.42-0.53-2.06l0.83-1.86
		c1.39,1.07,1.84,2.5,1.36,4.31c-0.33,1.23-0.96,2.11-1.88,2.65c-0.93,0.54-1.99,0.65-3.21,0.32s-2.09-0.94-2.62-1.86
		c-0.54-0.92-0.65-1.97-0.33-3.16c0.32-1.2,0.94-2.04,1.84-2.54s1.99-0.57,3.25-0.23L1313.65,194.13z M1310.81,199.35l0.96-3.56
		c-1.05-0.04-1.72,0.43-1.97,1.39C1309.54,198.1,1309.91,198.92,1310.81,199.35z"/>
</g>
<circle fill="#FFFFFF" stroke="#000000" stroke-width="3" stroke-miterlimit="10" cx="1410" cy="286" r="10"/>
<g>
	<path d="M1408.79,266.02c0.33,0.09,0.63,0.04,0.9-0.15c0.27-0.19,0.69-0.69,1.28-1.5s1.11-1.38,1.57-1.7
		c0.76-0.53,1.68-0.65,2.78-0.36c1.1,0.29,1.9,0.91,2.4,1.84c0.51,0.93,0.6,2,0.28,3.21c-0.44,1.64-1.53,2.76-3.27,3.39l-1.02-1.84
		c1.17-0.27,1.91-0.94,2.2-2.01c0.14-0.52,0.1-0.99-0.11-1.41c-0.22-0.41-0.56-0.69-1.05-0.82c-0.48-0.13-0.92-0.03-1.33,0.31
		c-0.2,0.16-0.6,0.68-1.21,1.54c-0.6,0.87-1.21,1.45-1.79,1.76c-0.58,0.31-1.26,0.35-2.02,0.15c-0.98-0.26-1.69-0.82-2.14-1.67
		c-0.45-0.86-0.55-1.8-0.27-2.85c0.35-1.29,1.08-2.31,2.21-3.07l1.23,1.6c-0.78,0.38-1.26,0.93-1.44,1.63
		c-0.13,0.47-0.1,0.88,0.06,1.26S1408.46,265.93,1408.79,266.02z"/>
	<path d="M1413.31,253.59l0.56-2.11l7.53,2.02l-0.56,2.11l-0.98-0.26c0.63,0.87,0.82,1.81,0.54,2.84c-0.28,1.03-0.89,1.79-1.84,2.29
		s-2,0.6-3.13,0.3c-1.13-0.3-1.99-0.92-2.58-1.83c-0.58-0.91-0.74-1.87-0.47-2.87s0.9-1.74,1.9-2.22L1413.31,253.59z
		 M1414.46,255.91c-0.16,0.59-0.09,1.15,0.21,1.67c0.3,0.53,0.74,0.86,1.33,1.02s1.14,0.09,1.66-0.22c0.53-0.3,0.86-0.74,1.02-1.32
		c0.16-0.58,0.09-1.13-0.22-1.66c-0.3-0.53-0.73-0.86-1.32-1.02s-1.13-0.08-1.66,0.2C1414.96,254.88,1414.62,255.33,1414.46,255.91z
		"/>
	<path d="M1410.24,247.25c0.09-0.35,0.29-0.61,0.6-0.79c0.31-0.18,0.64-0.22,0.99-0.13c0.35,0.09,0.62,0.3,0.8,0.62
		c0.19,0.31,0.23,0.65,0.14,1c-0.09,0.35-0.3,0.61-0.61,0.79c-0.31,0.18-0.65,0.23-1,0.13c-0.35-0.09-0.62-0.3-0.8-0.62
		C1410.18,247.93,1410.15,247.6,1410.24,247.25z M1414.96,247.41l7.53,2.02l-0.56,2.1l-7.53-2.02L1414.96,247.41z"/>
	<path d="M1415.5,245.43l0.56-2.11l0.94,0.25c-0.68-0.88-0.82-1.66-0.55-2.68c0.25-0.93,0.74-1.58,1.49-1.95
		c0.56-0.28,1.31-0.29,2.25-0.04l4.78,1.28l-0.56,2.11l-4.18-1.12c-0.58-0.16-1-0.2-1.27-0.11c-0.46,0.11-0.76,0.47-0.92,1.07
		c-0.29,1.06,0.27,1.78,1.66,2.16l3.9,1.04l-0.56,2.11L1415.5,245.43z"/>
	<path d="M1420.37,234.53l5.71,1.53l-0.56,2.11l-5.71-1.53l-0.22,0.83l-1.83-0.49l0.22-0.83l-2.57-0.69l0.56-2.11l2.57,0.69
		l0.4-1.49l1.83,0.49L1420.37,234.53z"/>
	<path d="M1421.78,232.64l1.05-3.91l1.75,0.47l-1.05,3.91L1421.78,232.64z"/>
	<path d="M1427.88,229.33l-11.23-5.32l0.41-1.54l8.43-1.14l-6.7-5.32l0.42-1.56l12.33,1.23l-0.61,2.28l-7.43-0.87l6.45,5.13
		l-0.17,0.63l-8.13,1.12l6.84,3.08L1427.88,229.33z"/>
	<path d="M1420.3,209.7c0.09-0.35,0.29-0.61,0.6-0.79c0.31-0.18,0.64-0.22,0.99-0.13c0.35,0.09,0.62,0.3,0.8,0.61
		c0.19,0.31,0.23,0.65,0.14,1c-0.09,0.35-0.3,0.61-0.61,0.79c-0.31,0.18-0.65,0.23-1,0.13c-0.35-0.09-0.62-0.3-0.8-0.62
		C1420.25,210.39,1420.21,210.05,1420.3,209.7z M1425.03,209.87l7.53,2.02l-0.56,2.1l-7.53-2.02L1425.03,209.87z"/>
	<path d="M1429.37,202.85c-0.58,0.44-0.95,0.96-1.11,1.56c-0.16,0.6-0.1,1.16,0.19,1.68s0.73,0.86,1.35,1.02
		c0.61,0.16,1.17,0.09,1.68-0.21c0.51-0.31,0.85-0.76,1.01-1.38s0.11-1.23-0.16-1.88l2.05,0.55c0.15,0.7,0.13,1.38-0.04,2.05
		c-0.31,1.17-0.96,2.05-1.93,2.63c-0.97,0.59-2.02,0.72-3.15,0.42s-1.98-0.96-2.55-1.96c-0.56-1-0.69-2.09-0.37-3.26
		c0.18-0.69,0.51-1.28,0.96-1.79L1429.37,202.85z"/>
	<path d="M1422.05,198.99l0.56-2.11l6.47,1.73c-0.64-0.84-0.84-1.73-0.58-2.68s0.76-1.6,1.51-1.95c0.58-0.27,1.34-0.28,2.28-0.03
		l4.73,1.27l-0.56,2.11l-4.12-1.1c-0.6-0.16-1.04-0.21-1.31-0.12c-0.47,0.12-0.78,0.48-0.94,1.07c-0.28,1.06,0.28,1.78,1.69,2.17
		l3.86,1.03l-0.56,2.11L1422.05,198.99z"/>
	<path d="M1436.12,184.89l-1.51,5.64c1.37,0.3,2.2-0.13,2.51-1.3c0.2-0.73,0.02-1.42-0.53-2.06l0.83-1.86
		c1.39,1.07,1.84,2.5,1.36,4.31c-0.33,1.23-0.96,2.11-1.88,2.65c-0.93,0.54-1.99,0.65-3.21,0.32s-2.09-0.94-2.62-1.86
		c-0.54-0.92-0.65-1.96-0.33-3.16c0.32-1.2,0.94-2.04,1.84-2.54c0.91-0.49,1.99-0.57,3.26-0.23L1436.12,184.89z M1433.28,190.11
		l0.96-3.57c-1.05-0.04-1.72,0.43-1.97,1.39C1432.02,188.86,1432.38,189.68,1433.28,190.11z"/>
	<path d="M1427.52,178.57l13.02,3.49l-0.56,2.11l-13.02-3.49L1427.52,178.57z"/>
</g>
<g>
	<path fill="#9B9B9B" d="M691.86,314.58v-7.16h3.17c0.64,0,1.12,0.06,1.46,0.19c0.33,0.13,0.6,0.36,0.8,0.68s0.3,0.69,0.3,1.08
		c0,0.51-0.16,0.94-0.49,1.28s-0.84,0.57-1.52,0.66c0.25,0.12,0.44,0.24,0.57,0.36c0.28,0.25,0.54,0.57,0.79,0.95l1.25,1.95h-1.19
		l-0.95-1.49c-0.28-0.43-0.5-0.76-0.68-0.99s-0.34-0.39-0.48-0.48s-0.29-0.15-0.43-0.19c-0.11-0.02-0.28-0.03-0.53-0.03h-1.1v3.18
		H691.86z M692.81,310.58h2.04c0.43,0,0.77-0.04,1.02-0.13c0.24-0.09,0.43-0.23,0.56-0.43c0.13-0.2,0.19-0.41,0.19-0.64
		c0-0.34-0.12-0.62-0.37-0.83s-0.63-0.33-1.16-0.33h-2.27V310.58z"/>
	<path fill="#9B9B9B" d="M702.34,313.94c-0.33,0.28-0.64,0.47-0.94,0.59s-0.62,0.17-0.97,0.17c-0.57,0-1.01-0.14-1.31-0.42
		c-0.31-0.28-0.46-0.63-0.46-1.07c0-0.25,0.06-0.49,0.17-0.7c0.12-0.21,0.27-0.38,0.45-0.51s0.4-0.22,0.63-0.29
		c0.17-0.05,0.43-0.09,0.78-0.13c0.71-0.08,1.23-0.19,1.57-0.3c0-0.12,0-0.2,0-0.23c0-0.36-0.08-0.61-0.25-0.76
		c-0.22-0.2-0.56-0.3-1-0.3c-0.41,0-0.72,0.07-0.92,0.22c-0.2,0.14-0.34,0.4-0.44,0.77l-0.86-0.12c0.08-0.37,0.21-0.67,0.39-0.89
		c0.18-0.23,0.44-0.4,0.78-0.52c0.34-0.12,0.73-0.18,1.18-0.18c0.44,0,0.8,0.05,1.08,0.16s0.48,0.24,0.61,0.39
		c0.13,0.16,0.22,0.36,0.27,0.6c0.03,0.15,0.04,0.42,0.04,0.81v1.17c0,0.82,0.02,1.33,0.06,1.55c0.04,0.22,0.11,0.42,0.22,0.62
		h-0.92C702.43,314.4,702.37,314.19,702.34,313.94z M702.27,311.98c-0.32,0.13-0.8,0.24-1.44,0.33c-0.36,0.05-0.62,0.11-0.77,0.18
		s-0.27,0.16-0.35,0.29c-0.08,0.12-0.12,0.26-0.12,0.42c0,0.23,0.09,0.43,0.27,0.59s0.44,0.23,0.78,0.23c0.34,0,0.64-0.07,0.9-0.22
		c0.26-0.15,0.46-0.35,0.58-0.61c0.09-0.2,0.14-0.49,0.14-0.88V311.98z"/>
	<path fill="#9B9B9B" d="M704.52,308.43v-1.01h0.88v1.01H704.52z M704.52,314.58v-5.19h0.88v5.19H704.52z"/>
	<path fill="#9B9B9B" d="M706.72,314.58v-7.16h0.88v7.16H706.72z"/>
	<path fill="#9B9B9B" d="M711.9,314.58v-7.16h4.83v0.84h-3.88v2.22h3.36v0.84h-3.36v3.25H711.9z"/>
	<path fill="#9B9B9B" d="M721.23,313.94c-0.33,0.28-0.64,0.47-0.94,0.59s-0.62,0.17-0.97,0.17c-0.57,0-1.01-0.14-1.31-0.42
		c-0.31-0.28-0.46-0.63-0.46-1.07c0-0.25,0.06-0.49,0.17-0.7c0.12-0.21,0.27-0.38,0.45-0.51s0.4-0.22,0.63-0.29
		c0.17-0.05,0.43-0.09,0.78-0.13c0.71-0.08,1.23-0.19,1.57-0.3c0-0.12,0-0.2,0-0.23c0-0.36-0.08-0.61-0.25-0.76
		c-0.22-0.2-0.56-0.3-1-0.3c-0.41,0-0.72,0.07-0.92,0.22c-0.2,0.14-0.34,0.4-0.44,0.77l-0.86-0.12c0.08-0.37,0.21-0.67,0.39-0.89
		c0.18-0.23,0.44-0.4,0.78-0.52c0.34-0.12,0.73-0.18,1.18-0.18c0.44,0,0.8,0.05,1.08,0.16s0.48,0.24,0.61,0.39
		c0.13,0.16,0.22,0.36,0.27,0.6c0.03,0.15,0.04,0.42,0.04,0.81v1.17c0,0.82,0.02,1.33,0.06,1.55c0.04,0.22,0.11,0.42,0.22,0.62
		h-0.92C721.32,314.4,721.26,314.19,721.23,313.94z M721.16,311.98c-0.32,0.13-0.8,0.24-1.44,0.33c-0.36,0.05-0.62,0.11-0.77,0.18
		s-0.27,0.16-0.35,0.29c-0.08,0.12-0.12,0.26-0.12,0.42c0,0.23,0.09,0.43,0.27,0.59s0.44,0.23,0.78,0.23c0.34,0,0.64-0.07,0.9-0.22
		c0.26-0.15,0.46-0.35,0.58-0.61c0.09-0.2,0.14-0.49,0.14-0.88V311.98z"/>
	<path fill="#9B9B9B" d="M723.41,314.58v-5.19h0.79v0.74c0.38-0.57,0.93-0.85,1.65-0.85c0.31,0,0.6,0.06,0.86,0.17
		c0.26,0.11,0.46,0.26,0.59,0.44s0.22,0.4,0.27,0.65c0.03,0.16,0.05,0.45,0.05,0.85v3.19h-0.88v-3.15c0-0.36-0.03-0.63-0.1-0.8
		c-0.07-0.18-0.19-0.32-0.36-0.43c-0.17-0.11-0.38-0.16-0.61-0.16c-0.37,0-0.7,0.12-0.97,0.36s-0.41,0.69-0.41,1.35v2.83H723.41z"/>
	<path fill="#9B9B9B" d="M728.62,313.03l0.87-0.14c0.05,0.35,0.18,0.62,0.41,0.8s0.53,0.28,0.94,0.28c0.4,0,0.7-0.08,0.9-0.25
		c0.2-0.17,0.29-0.36,0.29-0.58c0-0.2-0.09-0.35-0.26-0.47c-0.12-0.08-0.42-0.18-0.9-0.3c-0.64-0.16-1.09-0.3-1.34-0.42
		c-0.25-0.12-0.44-0.28-0.57-0.49c-0.13-0.21-0.19-0.44-0.19-0.7c0-0.23,0.05-0.45,0.16-0.64c0.11-0.2,0.25-0.36,0.43-0.49
		c0.14-0.1,0.32-0.19,0.56-0.26c0.24-0.07,0.49-0.11,0.76-0.11c0.41,0,0.76,0.06,1.07,0.18s0.53,0.28,0.68,0.48
		c0.15,0.2,0.25,0.47,0.3,0.8l-0.86,0.12c-0.04-0.27-0.15-0.48-0.34-0.62s-0.45-0.22-0.79-0.22c-0.4,0-0.69,0.07-0.86,0.2
		s-0.26,0.29-0.26,0.47c0,0.11,0.04,0.22,0.11,0.31c0.07,0.09,0.18,0.17,0.34,0.23c0.09,0.03,0.35,0.11,0.78,0.22
		c0.62,0.17,1.06,0.3,1.3,0.41c0.25,0.11,0.44,0.26,0.58,0.46s0.21,0.45,0.21,0.75c0,0.29-0.09,0.57-0.26,0.83
		c-0.17,0.26-0.42,0.46-0.74,0.6c-0.32,0.14-0.69,0.21-1.09,0.21c-0.67,0-1.19-0.14-1.54-0.42S728.72,313.58,728.62,313.03z"/>
	<path fill="#9B9B9B" d="M741.97,312.07l0.95,0.24c-0.2,0.78-0.56,1.37-1.07,1.78c-0.52,0.41-1.15,0.61-1.89,0.61
		c-0.77,0-1.4-0.16-1.88-0.47c-0.48-0.31-0.85-0.77-1.1-1.36s-0.38-1.24-0.38-1.92c0-0.75,0.14-1.4,0.43-1.95
		c0.28-0.55,0.69-0.98,1.22-1.26c0.53-0.29,1.1-0.43,1.74-0.43c0.72,0,1.32,0.18,1.81,0.55s0.83,0.88,1.02,1.54l-0.93,0.22
		c-0.17-0.52-0.41-0.9-0.72-1.14s-0.71-0.36-1.19-0.36c-0.55,0-1.01,0.13-1.38,0.4s-0.63,0.62-0.78,1.06
		c-0.15,0.44-0.22,0.9-0.22,1.37c0,0.61,0.09,1.14,0.27,1.59c0.18,0.45,0.45,0.79,0.83,1.02s0.78,0.34,1.22,0.34
		c0.53,0,0.98-0.15,1.35-0.46S741.84,312.67,741.97,312.07z"/>
	<path fill="#9B9B9B" d="M747.36,313.94c-0.33,0.28-0.64,0.47-0.94,0.59s-0.62,0.17-0.97,0.17c-0.57,0-1.01-0.14-1.31-0.42
		c-0.31-0.28-0.46-0.63-0.46-1.07c0-0.25,0.06-0.49,0.17-0.7c0.12-0.21,0.27-0.38,0.45-0.51s0.4-0.22,0.63-0.29
		c0.17-0.05,0.43-0.09,0.78-0.13c0.71-0.08,1.23-0.19,1.57-0.3c0-0.12,0-0.2,0-0.23c0-0.36-0.08-0.61-0.25-0.76
		c-0.22-0.2-0.56-0.3-1-0.3c-0.41,0-0.72,0.07-0.92,0.22c-0.2,0.14-0.34,0.4-0.44,0.77l-0.86-0.12c0.08-0.37,0.21-0.67,0.39-0.89
		c0.18-0.23,0.44-0.4,0.78-0.52c0.34-0.12,0.73-0.18,1.18-0.18c0.44,0,0.8,0.05,1.08,0.16s0.48,0.24,0.61,0.39
		c0.13,0.16,0.22,0.36,0.27,0.6c0.03,0.15,0.04,0.42,0.04,0.81v1.17c0,0.82,0.02,1.33,0.06,1.55c0.04,0.22,0.11,0.42,0.22,0.62
		h-0.92C747.44,314.4,747.38,314.19,747.36,313.94z M747.28,311.98c-0.32,0.13-0.8,0.24-1.44,0.33c-0.36,0.05-0.62,0.11-0.77,0.18
		s-0.27,0.16-0.35,0.29c-0.08,0.12-0.12,0.26-0.12,0.42c0,0.23,0.09,0.43,0.27,0.59s0.44,0.23,0.78,0.23c0.34,0,0.64-0.07,0.9-0.22
		c0.26-0.15,0.46-0.35,0.58-0.61c0.09-0.2,0.14-0.49,0.14-0.88V311.98z"/>
	<path fill="#9B9B9B" d="M749.53,314.58v-5.19h0.79v0.74c0.38-0.57,0.93-0.85,1.65-0.85c0.31,0,0.6,0.06,0.86,0.17
		c0.26,0.11,0.46,0.26,0.59,0.44c0.13,0.18,0.22,0.4,0.27,0.65c0.03,0.16,0.05,0.45,0.05,0.85v3.19h-0.88v-3.15
		c0-0.36-0.04-0.63-0.1-0.8c-0.07-0.18-0.19-0.32-0.36-0.43c-0.17-0.11-0.38-0.16-0.61-0.16c-0.37,0-0.7,0.12-0.97,0.36
		c-0.27,0.24-0.41,0.69-0.41,1.35v2.83H749.53z"/>
	<path fill="#9B9B9B" d="M758.48,313.94c-0.33,0.28-0.64,0.47-0.94,0.59s-0.62,0.17-0.97,0.17c-0.57,0-1.01-0.14-1.31-0.42
		c-0.31-0.28-0.46-0.63-0.46-1.07c0-0.25,0.06-0.49,0.17-0.7c0.12-0.21,0.27-0.38,0.45-0.51s0.4-0.22,0.63-0.29
		c0.17-0.05,0.43-0.09,0.78-0.13c0.71-0.08,1.23-0.19,1.57-0.3c0-0.12,0-0.2,0-0.23c0-0.36-0.08-0.61-0.25-0.76
		c-0.22-0.2-0.56-0.3-1-0.3c-0.41,0-0.72,0.07-0.92,0.22c-0.2,0.14-0.34,0.4-0.44,0.77l-0.86-0.12c0.08-0.37,0.21-0.67,0.38-0.89
		c0.18-0.23,0.44-0.4,0.78-0.52c0.34-0.12,0.73-0.18,1.18-0.18c0.44,0,0.8,0.05,1.08,0.16c0.28,0.1,0.48,0.24,0.61,0.39
		c0.13,0.16,0.22,0.36,0.27,0.6c0.03,0.15,0.04,0.42,0.04,0.81v1.17c0,0.82,0.02,1.33,0.06,1.55c0.04,0.22,0.11,0.42,0.22,0.62
		h-0.92C758.56,314.4,758.5,314.19,758.48,313.94z M758.41,311.98c-0.32,0.13-0.8,0.24-1.44,0.33c-0.36,0.05-0.62,0.11-0.77,0.18
		c-0.15,0.07-0.26,0.16-0.35,0.29c-0.08,0.12-0.12,0.26-0.12,0.42c0,0.23,0.09,0.43,0.27,0.59s0.44,0.23,0.78,0.23
		c0.34,0,0.64-0.07,0.9-0.22c0.26-0.15,0.46-0.35,0.58-0.61c0.09-0.2,0.14-0.49,0.14-0.88V311.98z"/>
	<path fill="#9B9B9B" d="M764.02,314.58v-0.65c-0.33,0.51-0.81,0.77-1.45,0.77c-0.41,0-0.79-0.11-1.14-0.34s-0.62-0.55-0.81-0.96
		c-0.19-0.41-0.29-0.88-0.29-1.41c0-0.52,0.09-0.99,0.26-1.41c0.17-0.42,0.43-0.75,0.78-0.97c0.34-0.22,0.73-0.34,1.16-0.34
		c0.31,0,0.59,0.07,0.84,0.2c0.24,0.13,0.44,0.3,0.6,0.52v-2.57h0.87v7.16H764.02z M761.24,311.99c0,0.66,0.14,1.16,0.42,1.49
		c0.28,0.33,0.61,0.49,0.99,0.49c0.38,0,0.71-0.16,0.98-0.47c0.27-0.31,0.4-0.79,0.4-1.44c0-0.71-0.14-1.23-0.41-1.56
		s-0.61-0.5-1.01-0.5c-0.39,0-0.72,0.16-0.98,0.48S761.24,311.31,761.24,311.99z"/>
	<path fill="#9B9B9B" d="M769.6,313.94c-0.33,0.28-0.64,0.47-0.94,0.59s-0.62,0.17-0.97,0.17c-0.57,0-1.01-0.14-1.31-0.42
		c-0.31-0.28-0.46-0.63-0.46-1.07c0-0.25,0.06-0.49,0.17-0.7c0.12-0.21,0.27-0.38,0.45-0.51s0.4-0.22,0.63-0.29
		c0.17-0.05,0.43-0.09,0.78-0.13c0.71-0.08,1.23-0.19,1.57-0.3c0-0.12,0-0.2,0-0.23c0-0.36-0.08-0.61-0.25-0.76
		c-0.22-0.2-0.56-0.3-1-0.3c-0.41,0-0.72,0.07-0.92,0.22c-0.2,0.14-0.34,0.4-0.44,0.77l-0.86-0.12c0.08-0.37,0.21-0.67,0.38-0.89
		c0.18-0.23,0.44-0.4,0.78-0.52c0.34-0.12,0.73-0.18,1.18-0.18c0.44,0,0.8,0.05,1.08,0.16c0.28,0.1,0.48,0.24,0.61,0.39
		c0.13,0.16,0.22,0.36,0.27,0.6c0.03,0.15,0.04,0.42,0.04,0.81v1.17c0,0.82,0.02,1.33,0.06,1.55c0.04,0.22,0.11,0.42,0.22,0.62
		h-0.92C769.69,314.4,769.63,314.19,769.6,313.94z M769.53,311.98c-0.32,0.13-0.8,0.24-1.44,0.33c-0.36,0.05-0.62,0.11-0.77,0.18
		c-0.15,0.07-0.26,0.16-0.35,0.29c-0.08,0.12-0.12,0.26-0.12,0.42c0,0.23,0.09,0.43,0.27,0.59s0.44,0.23,0.78,0.23
		c0.34,0,0.64-0.07,0.9-0.22c0.26-0.15,0.46-0.35,0.58-0.61c0.09-0.2,0.14-0.49,0.14-0.88V311.98z"/>
	<path fill="#9B9B9B" d="M773.9,312.35v-0.71h10v0.71H773.9z"/>
	<path fill="#9B9B9B" d="M791.71,313.74v0.84h-4.73c-0.01-0.21,0.03-0.42,0.1-0.61c0.12-0.32,0.31-0.64,0.58-0.95
		s0.65-0.67,1.15-1.08c0.78-0.64,1.3-1.14,1.58-1.52c0.27-0.37,0.41-0.73,0.41-1.06c0-0.35-0.12-0.64-0.37-0.88
		c-0.25-0.24-0.57-0.36-0.97-0.36c-0.42,0-0.76,0.13-1.02,0.38s-0.38,0.61-0.39,1.05l-0.9-0.09c0.06-0.67,0.29-1.19,0.7-1.54
		c0.4-0.35,0.95-0.53,1.63-0.53c0.69,0,1.23,0.19,1.63,0.57s0.6,0.85,0.6,1.42c0,0.29-0.06,0.57-0.18,0.84s-0.31,0.57-0.58,0.87
		s-0.72,0.73-1.35,1.26c-0.53,0.44-0.87,0.74-1.02,0.9c-0.15,0.16-0.27,0.32-0.37,0.48H791.71z"/>
	<path fill="#9B9B9B" d="M792.65,311.05c0-0.85,0.09-1.53,0.26-2.04c0.17-0.52,0.43-0.91,0.78-1.19s0.78-0.42,1.3-0.42
		c0.38,0,0.72,0.08,1.01,0.23c0.29,0.15,0.53,0.38,0.72,0.67c0.19,0.29,0.34,0.65,0.44,1.06c0.11,0.42,0.16,0.98,0.16,1.69
		c0,0.84-0.09,1.52-0.26,2.03c-0.17,0.52-0.43,0.91-0.77,1.2c-0.34,0.28-0.78,0.42-1.3,0.42c-0.69,0-1.23-0.25-1.63-0.74
		C792.89,313.37,792.65,312.4,792.65,311.05z M793.56,311.05c0,1.17,0.14,1.96,0.41,2.35c0.27,0.39,0.61,0.58,1.02,0.58
		c0.4,0,0.74-0.2,1.02-0.59s0.41-1.17,0.41-2.34c0-1.18-0.14-1.96-0.41-2.35s-0.62-0.58-1.03-0.58c-0.4,0-0.73,0.17-0.97,0.51
		C793.71,309.07,793.56,309.88,793.56,311.05z"/>
	<path fill="#9B9B9B" d="M802.83,313.74v0.84h-4.73c-0.01-0.21,0.03-0.42,0.1-0.61c0.12-0.32,0.31-0.64,0.58-0.95
		s0.65-0.67,1.15-1.08c0.78-0.64,1.3-1.14,1.58-1.52c0.27-0.37,0.41-0.73,0.41-1.06c0-0.35-0.12-0.64-0.37-0.88
		c-0.25-0.24-0.57-0.36-0.97-0.36c-0.42,0-0.76,0.13-1.02,0.38s-0.38,0.61-0.39,1.05l-0.9-0.09c0.06-0.67,0.29-1.19,0.7-1.54
		c0.4-0.35,0.95-0.53,1.63-0.53c0.69,0,1.23,0.19,1.63,0.57s0.6,0.85,0.6,1.42c0,0.29-0.06,0.57-0.18,0.84s-0.31,0.57-0.58,0.87
		s-0.72,0.73-1.35,1.26c-0.53,0.44-0.87,0.74-1.02,0.9c-0.15,0.16-0.27,0.32-0.37,0.48H802.83z"/>
	<path fill="#9B9B9B" d="M808.34,309.18l-0.88,0.07c-0.08-0.34-0.19-0.6-0.33-0.75c-0.24-0.25-0.53-0.38-0.88-0.38
		c-0.28,0-0.53,0.08-0.74,0.23c-0.28,0.2-0.5,0.5-0.65,0.88c-0.16,0.39-0.24,0.94-0.25,1.66c0.21-0.32,0.47-0.56,0.78-0.72
		c0.31-0.16,0.63-0.23,0.96-0.23c0.59,0,1.09,0.22,1.5,0.65c0.41,0.43,0.62,0.99,0.62,1.67c0,0.45-0.1,0.87-0.29,1.25
		c-0.19,0.39-0.46,0.68-0.8,0.89c-0.34,0.21-0.72,0.31-1.15,0.31c-0.73,0-1.33-0.27-1.79-0.81c-0.46-0.54-0.69-1.43-0.69-2.66
		c0-1.38,0.25-2.39,0.77-3.02c0.45-0.55,1.05-0.82,1.8-0.82c0.56,0,1.02,0.16,1.38,0.47S808.27,308.62,808.34,309.18z
		 M804.75,312.26c0,0.3,0.06,0.59,0.19,0.87s0.31,0.49,0.54,0.63c0.23,0.15,0.47,0.22,0.73,0.22c0.37,0,0.69-0.15,0.96-0.45
		c0.27-0.3,0.4-0.71,0.4-1.22c0-0.5-0.13-0.88-0.4-1.17c-0.26-0.29-0.6-0.43-1-0.43c-0.4,0-0.73,0.14-1.01,0.43
		C804.89,311.43,804.75,311.8,804.75,312.26z"/>
</g>
<g>
	<path d="M14,54.67V25.33h7.26c3.31,0,5.69,0.58,7.15,1.76c1.76,1.38,2.64,3.37,2.64,5.97c0,1.61-0.37,3.01-1.1,4.19
		c-0.41,0.56-1.12,1.14-2.11,1.76c1.76,0.39,3.03,1.01,3.82,1.85c1.4,1.4,2.11,3.29,2.11,5.67s-0.86,4.34-2.56,5.87
		s-4.15,2.28-7.35,2.28H14z M19.71,37.55h1.63c2.96,0,4.45-1.27,4.45-3.8s-1.46-3.8-4.36-3.8h-1.72V37.55z M19.71,50.05h2.47
		c3.8,0,5.71-1.35,5.71-4.04c0-1.48-0.58-2.58-1.72-3.27c-0.84-0.56-2.28-0.84-4.32-0.84h-2.15V50.05z"/>
	<path d="M43.56,21.72v32.96h-5.33V21.72H43.56z"/>
	<path d="M53.98,35.62V46.4c0,2.9,1.29,4.36,3.89,4.36s3.89-1.46,3.89-4.36V35.62h5.33v11.67c0,5.16-3.27,8.01-9.2,8.01
		s-9.24-2.86-9.24-8.01V35.62H53.98z"/>
	<path d="M90.91,46.02H76.63c0.15,3.42,1.7,5.11,4.66,5.09c1.85,0,3.35-0.86,4.53-2.56l4.92,0.79c-1.65,3.95-4.75,5.93-9.32,5.95
		c-3.12,0-5.59-0.92-7.46-2.77s-2.79-4.3-2.79-7.37s0.9-5.52,2.73-7.37s4.23-2.77,7.26-2.77s5.41,0.92,7.15,2.75s2.6,4.34,2.6,7.54
		V46.02z M76.8,42.62h9.02c-0.58-2.51-2.11-3.78-4.53-3.78C78.95,38.84,77.25,40.21,76.8,42.62z"/>
	<path d="M112.51,25.33v24.38h9.02v4.96h-14.74V25.33H112.51z"/>
	<path d="M127.44,24.36c0.88,0,1.63,0.3,2.26,0.92s0.92,1.38,0.92,2.26s-0.32,1.65-0.95,2.28c-0.62,0.64-1.4,0.97-2.28,0.97
		s-1.63-0.32-2.26-0.95s-0.95-1.4-0.95-2.28s0.32-1.65,0.97-2.28C125.78,24.66,126.56,24.36,127.44,24.36z M130.04,35.62v19.06
		h-5.31V35.62H130.04z"/>
	<path d="M135.06,35.62h5.33V38c1.63-2.17,3.39-2.99,5.97-2.99c2.34,0,4.19,0.75,5.54,2.28c1.01,1.14,1.5,2.9,1.5,5.29v12.1h-5.33
		V44.1c0-1.46-0.17-2.49-0.54-3.07c-0.56-1.01-1.59-1.5-3.12-1.5c-2.69,0-4.04,1.76-4.04,5.29v9.86h-5.33V35.62z"/>
	<path d="M177.24,46.02h-14.29c0.15,3.42,1.7,5.11,4.66,5.09c1.85,0,3.35-0.86,4.53-2.56l4.92,0.79c-1.65,3.95-4.75,5.93-9.32,5.95
		c-3.12,0-5.59-0.92-7.46-2.77s-2.79-4.3-2.79-7.37s0.9-5.52,2.73-7.37s4.23-2.77,7.26-2.77s5.41,0.92,7.15,2.75s2.6,4.34,2.6,7.54
		V46.02z M163.12,42.62h9.02c-0.58-2.51-2.11-3.78-4.53-3.78C165.27,38.84,163.57,40.21,163.12,42.62z"/>
</g>
<g>
	<path fill="#5A5A5A" d="M16.69,70.38c0,0.3,0.11,0.55,0.34,0.73c0.23,0.19,0.75,0.44,1.59,0.75s1.44,0.63,1.82,0.96
		c0.63,0.53,0.95,1.3,0.95,2.3s-0.34,1.84-1.02,2.48s-1.58,0.98-2.69,0.98c-1.51,0-2.73-0.68-3.66-2.03l1.34-1.3
		c0.5,0.95,1.24,1.42,2.23,1.42c0.48,0,0.88-0.14,1.19-0.42c0.3-0.28,0.46-0.64,0.46-1.09s-0.19-0.8-0.57-1.07
		c-0.18-0.13-0.72-0.36-1.6-0.68s-1.52-0.7-1.92-1.13s-0.59-1-0.59-1.7c0-0.9,0.31-1.64,0.95-2.23s1.42-0.88,2.38-0.88
		c1.19,0,2.23,0.4,3.14,1.19l-1.09,1.42c-0.51-0.58-1.09-0.87-1.73-0.86c-0.43,0-0.78,0.12-1.07,0.34S16.69,70.08,16.69,70.38z"/>
	<path fill="#5A5A5A" d="M26.66,71.19c1.16,0,2.11,0.34,2.84,1.02s1.09,1.57,1.09,2.66s-0.37,1.98-1.1,2.66
		c-0.74,0.68-1.7,1.02-2.88,1.02s-2.12-0.35-2.85-1.05s-1.09-1.58-1.09-2.66s0.38-1.97,1.12-2.65S25.5,71.19,26.66,71.19z
		 M26.64,72.93c-0.54,0-1,0.19-1.38,0.56s-0.58,0.84-0.58,1.38s0.19,1,0.57,1.38c0.38,0.38,0.84,0.57,1.38,0.57s1.01-0.19,1.39-0.57
		c0.38-0.38,0.57-0.83,0.57-1.37s-0.19-0.99-0.57-1.38S27.18,72.93,26.64,72.93z"/>
	<path fill="#5A5A5A" d="M37.28,73.52c-0.51-0.4-1.04-0.59-1.59-0.59s-1.02,0.18-1.4,0.55s-0.57,0.83-0.57,1.39s0.19,1.02,0.57,1.39
		s0.85,0.55,1.41,0.55s1.09-0.19,1.58-0.57v1.88c-0.57,0.29-1.16,0.43-1.77,0.44c-1.08,0-1.98-0.35-2.7-1.05
		c-0.73-0.7-1.09-1.57-1.09-2.61s0.37-1.92,1.09-2.64c0.73-0.71,1.63-1.07,2.71-1.07c0.63,0,1.22,0.14,1.76,0.41V73.52z"/>
	<path fill="#5A5A5A" d="M39.71,67.31c0.32,0,0.59,0.11,0.82,0.34s0.34,0.5,0.34,0.82s-0.12,0.6-0.34,0.83
		c-0.23,0.23-0.51,0.35-0.83,0.35s-0.59-0.12-0.82-0.34s-0.34-0.51-0.34-0.83s0.12-0.6,0.35-0.83
		C39.11,67.42,39.39,67.31,39.71,67.31z M40.66,71.41v6.93h-1.93v-6.93H40.66z"/>
	<path fill="#5A5A5A" d="M49.3,75.19h-5.2c0.05,1.24,0.62,1.86,1.7,1.85c0.67,0,1.22-0.31,1.65-0.93l1.79,0.29
		c-0.6,1.44-1.73,2.16-3.39,2.16c-1.13,0-2.03-0.34-2.71-1.01s-1.02-1.56-1.02-2.68s0.33-2.01,0.99-2.68s1.54-1.01,2.64-1.01
		s1.97,0.34,2.6,1s0.95,1.58,0.95,2.74V75.19z M44.16,73.95h3.28c-0.21-0.91-0.77-1.38-1.65-1.38
		C44.95,72.58,44.33,73.08,44.16,73.95z M47.95,68.03l-2.4,2.16l-0.93-0.64l1.91-2.42L47.95,68.03z"/>
	<path fill="#5A5A5A" d="M52.83,73.09v5.25h-1.94v-5.25h-0.77v-1.68h0.77v-2.37h1.94v2.37h1.38v1.68H52.83z"/>
	<path fill="#5A5A5A" d="M62.05,75.19h-5.2c0.05,1.24,0.62,1.86,1.7,1.85c0.67,0,1.22-0.31,1.65-0.93l1.79,0.29
		c-0.6,1.44-1.73,2.16-3.39,2.16c-1.13,0-2.03-0.34-2.71-1.01s-1.02-1.56-1.02-2.68s0.33-2.01,0.99-2.68s1.54-1.01,2.64-1.01
		s1.97,0.34,2.6,1s0.95,1.58,0.95,2.74V75.19z M56.91,73.95h3.28c-0.21-0.91-0.77-1.38-1.65-1.38
		C57.7,72.58,57.08,73.08,56.91,73.95z M60.7,68.03l-2.4,2.16l-0.93-0.64l1.91-2.42L60.7,68.03z"/>
	<path fill="#5A5A5A" d="M72.83,66.35h1.94v11.98h-1.94v-0.9c-0.6,0.74-1.37,1.12-2.31,1.12s-1.74-0.35-2.39-1.05
		s-0.98-1.58-0.98-2.62s0.33-1.92,0.98-2.63s1.44-1.06,2.36-1.06s1.7,0.38,2.34,1.12V66.35z M71.1,72.93
		c-0.55,0-1.01,0.19-1.38,0.56c-0.38,0.38-0.57,0.84-0.57,1.38s0.19,1,0.57,1.38c0.38,0.38,0.84,0.57,1.37,0.57s0.99-0.19,1.38-0.57
		c0.38-0.38,0.57-0.83,0.57-1.37s-0.19-0.99-0.55-1.38C72.1,73.12,71.64,72.93,71.1,72.93z"/>
	<path fill="#5A5A5A" d="M83.43,75.19h-5.2c0.05,1.24,0.62,1.86,1.7,1.85c0.67,0,1.22-0.31,1.65-0.93l1.79,0.29
		c-0.6,1.44-1.73,2.16-3.39,2.16c-1.13,0-2.03-0.34-2.71-1.01s-1.02-1.56-1.02-2.68s0.33-2.01,0.99-2.68s1.54-1.01,2.64-1.01
		s1.97,0.34,2.6,1s0.95,1.58,0.95,2.74V75.19z M78.3,73.95h3.28c-0.21-0.91-0.77-1.38-1.65-1.38C79.08,72.58,78.46,73.08,78.3,73.95
		z"/>
	<path fill="#5A5A5A" d="M90.85,73.09v5.25h-1.94v-5.25h-0.77v-1.68h0.77v-2.37h1.94v2.37h1.38v1.68H90.85z"/>
	<path fill="#5A5A5A" d="M95.27,78.34h-1.94v-6.93h1.94v1.05c0.48-0.85,1.15-1.28,2.02-1.27c0.27,0,0.55,0.05,0.84,0.17l-0.27,1.8
		c-0.29-0.16-0.59-0.24-0.92-0.23c-1.11,0-1.66,0.7-1.66,2.08V78.34z"/>
	<path fill="#5A5A5A" d="M104.34,71.41h1.94v6.93h-1.94v-0.9c-0.6,0.74-1.37,1.12-2.31,1.12s-1.74-0.35-2.39-1.05
		s-0.98-1.58-0.98-2.62s0.33-1.92,0.98-2.63s1.44-1.06,2.36-1.06s1.7,0.38,2.34,1.12V71.41z M102.62,72.93
		c-0.55,0-1.01,0.19-1.38,0.56c-0.38,0.38-0.57,0.84-0.57,1.38s0.19,1,0.57,1.38c0.38,0.38,0.84,0.57,1.37,0.57s0.99-0.19,1.38-0.57
		c0.38-0.38,0.57-0.83,0.57-1.37s-0.19-0.99-0.55-1.38C103.62,73.12,103.16,72.93,102.62,72.93z"/>
	<path fill="#5A5A5A" d="M108.13,71.41h1.94v0.87c0.59-0.79,1.23-1.09,2.17-1.09c0.85,0,1.52,0.27,2.02,0.83
		c0.37,0.41,0.55,1.05,0.55,1.92v4.4h-1.94v-3.84c0-0.53-0.06-0.91-0.2-1.12c-0.2-0.37-0.58-0.55-1.13-0.55
		c-0.98,0-1.47,0.64-1.47,1.92v3.59h-1.94V71.41z"/>
	<path fill="#5A5A5A" d="M120.45,73.02c-0.41-0.3-0.75-0.46-1.04-0.46s-0.5,0.05-0.65,0.16c-0.15,0.12-0.22,0.26-0.22,0.42
		s0.07,0.3,0.22,0.4s0.49,0.24,1.03,0.43s0.95,0.38,1.2,0.57c0.51,0.35,0.77,0.88,0.77,1.57s-0.27,1.28-0.81,1.74
		c-0.55,0.47-1.25,0.7-2.1,0.7c-1.05,0-1.92-0.38-2.62-1.16l1.02-1.18c0.54,0.54,1.09,0.81,1.64,0.81c0.49,0,0.88-0.34,0.88-0.76
		c0-0.21-0.06-0.37-0.2-0.48c-0.13-0.1-0.48-0.26-1.04-0.46s-0.95-0.38-1.16-0.55c-0.46-0.32-0.69-0.8-0.69-1.45s0.23-1.17,0.7-1.59
		c0.46-0.41,1.09-0.62,1.87-0.62s1.5,0.25,2.16,0.74L120.45,73.02z"/>
	<path fill="#5A5A5A" d="M125.13,82.03h-1.94V71.41h1.94v0.9c0.6-0.74,1.37-1.12,2.3-1.12s1.73,0.35,2.39,1.05s0.98,1.58,0.98,2.62
		s-0.33,1.92-0.98,2.63s-1.44,1.06-2.35,1.06s-1.7-0.38-2.35-1.12V82.03z M126.87,72.93c-0.54,0-0.99,0.19-1.38,0.56
		s-0.57,0.84-0.57,1.38s0.19,1,0.57,1.38c0.38,0.38,0.84,0.57,1.37,0.57s0.99-0.19,1.38-0.57c0.38-0.38,0.58-0.83,0.58-1.37
		s-0.19-0.99-0.57-1.38S127.41,72.93,126.87,72.93z"/>
	<path fill="#5A5A5A" d="M135.91,71.19c1.16,0,2.11,0.34,2.84,1.02s1.09,1.57,1.09,2.66s-0.37,1.98-1.1,2.66
		c-0.74,0.68-1.7,1.02-2.88,1.02s-2.12-0.35-2.85-1.05s-1.09-1.58-1.09-2.66s0.38-1.97,1.12-2.65S134.75,71.19,135.91,71.19z
		 M135.89,72.93c-0.54,0-1,0.19-1.38,0.56s-0.58,0.84-0.58,1.38s0.19,1,0.57,1.38c0.38,0.38,0.84,0.57,1.38,0.57
		s1.01-0.19,1.39-0.57c0.38-0.38,0.57-0.83,0.57-1.37s-0.19-0.99-0.57-1.38S136.43,72.93,135.89,72.93z"/>
	<path fill="#5A5A5A" d="M143.27,78.34h-1.94v-6.93h1.94v1.05c0.48-0.85,1.15-1.28,2.02-1.27c0.27,0,0.55,0.05,0.84,0.17l-0.27,1.8
		c-0.29-0.16-0.59-0.24-0.92-0.23c-1.11,0-1.66,0.7-1.66,2.08V78.34z"/>
	<path fill="#5A5A5A" d="M149.49,73.09v5.25h-1.94v-5.25h-0.77v-1.68h0.77v-2.37h1.94v2.37h1.38v1.68H149.49z"/>
	<path fill="#5A5A5A" d="M161.16,66.35h1.94v11.98h-1.94v-0.9c-0.6,0.74-1.37,1.12-2.31,1.12s-1.74-0.35-2.39-1.05
		s-0.98-1.58-0.98-2.62s0.33-1.92,0.98-2.63s1.44-1.06,2.36-1.06s1.7,0.38,2.34,1.12V66.35z M159.44,72.93
		c-0.55,0-1.01,0.19-1.38,0.56c-0.38,0.38-0.57,0.84-0.57,1.38s0.19,1,0.57,1.38c0.38,0.38,0.84,0.57,1.37,0.57s0.99-0.19,1.38-0.57
		c0.38-0.38,0.57-0.83,0.57-1.37s-0.19-0.99-0.55-1.38C160.44,73.12,159.98,72.93,159.44,72.93z"/>
	<path fill="#5A5A5A" d="M171.77,75.19h-5.2c0.05,1.24,0.62,1.86,1.7,1.85c0.67,0,1.22-0.31,1.65-0.93l1.79,0.29
		c-0.6,1.44-1.73,2.16-3.39,2.16c-1.13,0-2.03-0.34-2.71-1.01s-1.02-1.56-1.02-2.68s0.33-2.01,0.99-2.68s1.54-1.01,2.64-1.01
		s1.97,0.34,2.6,1s0.95,1.58,0.95,2.74V75.19z M166.63,73.95h3.28c-0.21-0.91-0.77-1.38-1.65-1.38
		C167.41,72.58,166.8,73.08,166.63,73.95z"/>
	<path fill="#5A5A5A" d="M176.96,78.34l1.98-10.87h1.42l2.91,6.98l3.02-6.98h1.44l1.78,10.87h-2.1l-0.96-6.58l-2.92,6.72h-0.58
		l-2.84-6.72l-1.07,6.58H176.96z"/>
	<path fill="#5A5A5A" d="M194.73,71.19c1.16,0,2.11,0.34,2.84,1.02s1.09,1.57,1.09,2.66s-0.37,1.98-1.1,2.66
		c-0.74,0.68-1.7,1.02-2.88,1.02s-2.12-0.35-2.85-1.05s-1.09-1.58-1.09-2.66s0.38-1.97,1.12-2.65S193.57,71.19,194.73,71.19z
		 M194.71,72.93c-0.54,0-1,0.19-1.38,0.56s-0.58,0.84-0.58,1.38s0.19,1,0.57,1.38c0.38,0.38,0.84,0.57,1.38,0.57
		s1.01-0.19,1.39-0.57c0.38-0.38,0.57-0.83,0.57-1.37s-0.19-0.99-0.57-1.38S195.25,72.93,194.71,72.93z"/>
	<path fill="#5A5A5A" d="M200.16,71.41h1.94v0.87c0.59-0.79,1.23-1.09,2.17-1.09c0.85,0,1.52,0.27,2.02,0.83
		c0.37,0.41,0.55,1.05,0.55,1.92v4.4h-1.94v-3.84c0-0.53-0.06-0.91-0.2-1.12c-0.2-0.37-0.58-0.55-1.13-0.55
		c-0.98,0-1.47,0.64-1.47,1.92v3.59h-1.94V71.41z"/>
	<path fill="#5A5A5A" d="M210.63,73.09v5.25h-1.94v-5.25h-0.77v-1.68h0.77v-2.37h1.94v2.37h1.38v1.68H210.63z"/>
	<path fill="#5A5A5A" d="M215.05,78.34h-1.94v-6.93h1.94v1.05c0.48-0.85,1.15-1.28,2.02-1.27c0.27,0,0.55,0.05,0.84,0.17l-0.27,1.8
		c-0.29-0.16-0.59-0.24-0.92-0.23c-1.11,0-1.66,0.7-1.66,2.08V78.34z"/>
	<path fill="#5A5A5A" d="M225.64,75.19h-5.2c0.05,1.24,0.62,1.86,1.7,1.85c0.67,0,1.22-0.31,1.65-0.93l1.79,0.29
		c-0.6,1.44-1.73,2.16-3.39,2.16c-1.13,0-2.03-0.34-2.71-1.01s-1.02-1.56-1.02-2.68s0.33-2.01,0.99-2.68s1.54-1.01,2.64-1.01
		s1.97,0.34,2.6,1s0.95,1.58,0.95,2.74V75.19z M220.51,73.95h3.28c-0.21-0.91-0.77-1.38-1.65-1.38
		C221.29,72.58,220.67,73.08,220.51,73.95z M224.3,68.03l-2.4,2.16l-0.93-0.64l1.91-2.42L224.3,68.03z"/>
	<path fill="#5A5A5A" d="M232.42,71.41h1.94v6.93h-1.94v-0.9c-0.6,0.74-1.37,1.12-2.31,1.12s-1.74-0.35-2.39-1.05
		s-0.98-1.58-0.98-2.62s0.33-1.92,0.98-2.63s1.44-1.06,2.36-1.06s1.7,0.38,2.34,1.12V71.41z M230.7,72.93
		c-0.55,0-1.01,0.19-1.38,0.56c-0.38,0.38-0.57,0.84-0.57,1.38s0.19,1,0.57,1.38c0.38,0.38,0.84,0.57,1.37,0.57s0.99-0.19,1.38-0.57
		c0.38-0.38,0.57-0.83,0.57-1.37s-0.19-0.99-0.55-1.38C231.7,73.12,231.23,72.93,230.7,72.93z"/>
	<path fill="#5A5A5A" d="M238.15,66.35v11.98h-1.94V66.35H238.15z"/>
	<path fill="#5A5A5A" d="M248.43,70.7c0.61,0,1.13,0.22,1.56,0.66s0.65,0.96,0.65,1.57s-0.22,1.12-0.65,1.55s-0.95,0.65-1.56,0.65
		s-1.13-0.22-1.57-0.65s-0.66-0.95-0.66-1.56s0.22-1.14,0.66-1.57S247.82,70.7,248.43,70.7z"/>
	<path fill="#5A5A5A" d="M258.4,78.34l1.98-10.87h1.42l2.91,6.98l3.02-6.98h1.44l1.78,10.87h-2.1l-0.96-6.58l-2.92,6.72h-0.58
		l-2.84-6.72l-1.07,6.58H258.4z"/>
	<path fill="#5A5A5A" d="M276.17,71.19c1.16,0,2.11,0.34,2.84,1.02s1.09,1.57,1.09,2.66s-0.37,1.98-1.1,2.66
		c-0.74,0.68-1.7,1.02-2.88,1.02s-2.12-0.35-2.85-1.05s-1.09-1.58-1.09-2.66s0.38-1.97,1.12-2.65S275.01,71.19,276.17,71.19z
		 M276.15,72.93c-0.54,0-1,0.19-1.38,0.56s-0.58,0.84-0.58,1.38s0.19,1,0.57,1.38c0.38,0.38,0.84,0.57,1.38,0.57
		s1.01-0.19,1.39-0.57c0.38-0.38,0.57-0.83,0.57-1.37s-0.19-0.99-0.57-1.38S276.69,72.93,276.15,72.93z"/>
	<path fill="#5A5A5A" d="M281.59,71.41h1.94v0.87c0.59-0.79,1.23-1.09,2.17-1.09c0.85,0,1.52,0.27,2.02,0.83
		c0.37,0.41,0.55,1.05,0.55,1.92v4.4h-1.94v-3.84c0-0.53-0.06-0.91-0.2-1.12c-0.2-0.37-0.58-0.55-1.13-0.55
		c-0.98,0-1.47,0.64-1.47,1.92v3.59h-1.94V71.41z"/>
	<path fill="#5A5A5A" d="M292.07,73.09v5.25h-1.94v-5.25h-0.77v-1.68h0.77v-2.37h1.94v2.37h1.38v1.68H292.07z"/>
	<path fill="#5A5A5A" d="M296.49,78.34h-1.94v-6.93h1.94v1.05c0.48-0.85,1.15-1.28,2.02-1.27c0.27,0,0.55,0.05,0.84,0.17l-0.27,1.8
		c-0.29-0.16-0.59-0.24-0.92-0.23c-1.11,0-1.66,0.7-1.66,2.08V78.34z"/>
	<path fill="#5A5A5A" d="M307.08,75.19h-5.2c0.05,1.24,0.62,1.86,1.7,1.85c0.67,0,1.22-0.31,1.65-0.93l1.79,0.29
		c-0.6,1.44-1.73,2.16-3.39,2.16c-1.13,0-2.03-0.34-2.71-1.01s-1.02-1.56-1.02-2.68s0.33-2.01,0.99-2.68s1.54-1.01,2.64-1.01
		s1.97,0.34,2.6,1s0.95,1.58,0.95,2.74V75.19z M301.95,73.95h3.28c-0.21-0.91-0.77-1.38-1.65-1.38
		C302.73,72.58,302.11,73.08,301.95,73.95z"/>
	<path fill="#5A5A5A" d="M313.86,71.41h1.94v6.93h-1.94v-0.9c-0.6,0.74-1.37,1.12-2.31,1.12s-1.74-0.35-2.39-1.05
		s-0.98-1.58-0.98-2.62s0.33-1.92,0.98-2.63s1.44-1.06,2.36-1.06s1.7,0.38,2.34,1.12V71.41z M312.13,72.93
		c-0.55,0-1.01,0.19-1.38,0.56c-0.38,0.38-0.57,0.84-0.57,1.38s0.19,1,0.57,1.38c0.38,0.38,0.84,0.57,1.37,0.57s0.99-0.19,1.38-0.57
		c0.38-0.38,0.57-0.83,0.57-1.37s-0.19-0.99-0.55-1.38C313.13,73.12,312.67,72.93,312.13,72.93z"/>
	<path fill="#5A5A5A" d="M319.59,66.35v11.98h-1.94V66.35H319.59z"/>
	<path fill="#5A5A5A" d="M329.87,70.7c0.61,0,1.13,0.22,1.56,0.66s0.65,0.96,0.65,1.57s-0.22,1.12-0.65,1.55s-0.95,0.65-1.56,0.65
		s-1.13-0.22-1.57-0.65s-0.66-0.95-0.66-1.56s0.22-1.14,0.66-1.57S329.26,70.7,329.87,70.7z"/>
</g>
</svg>
