<?xml version="1.0" encoding="iso-8859-1"?>
<!-- Generator: Adobe Illustrator 29.8.4, SVG Export Plug-In . SVG Version: 9.03 Build 0)  -->
<svg version="1.1" id="Layer_1" xmlns="http://www.w3.org/2000/svg" xmlns:xlink="http://www.w3.org/1999/xlink" x="0px" y="0px"
	 viewBox="0 0 1500 423" enable-background="new 0 0 1500 423" xml:space="preserve">
<rect id="bg-white" fill="#FFFFFF" width="1500" height="423"/>
<line fill="none" stroke="#FFCD00" stroke-width="10" stroke-linecap="round" stroke-miterlimit="10" x1="90" y1="388" x2="1408.37" y2="388"/>
<circle fill="#FFFFFF" stroke="#000000" stroke-width="3" stroke-miterlimit="10" cx="90" cy="388" r="10"/>
<g>
	<path d="M96.85,372.49l-11.6-3.11l0.77-2.87c0.35-1.31,0.83-2.19,1.45-2.64c0.73-0.55,1.61-0.69,2.64-0.41
		c0.64,0.17,1.15,0.46,1.54,0.88c0.18,0.22,0.33,0.56,0.47,1.02c0.34-0.66,0.72-1.09,1.14-1.32c0.7-0.4,1.52-0.48,2.46-0.23
		s1.62,0.8,2.05,1.63c0.42,0.83,0.46,1.88,0.12,3.14L96.85,372.49z M90.69,368.42l0.17-0.64c0.31-1.17-0.03-1.89-1.03-2.16
		s-1.66,0.17-1.96,1.32l-0.18,0.68L90.69,368.42z M95.63,369.75l0.26-0.98c0.4-1.5,0.07-2.4-0.99-2.69
		c-0.59-0.16-1.08-0.04-1.47,0.33c-0.31,0.27-0.57,0.81-0.79,1.62l-0.23,0.85L95.63,369.75z"/>
	<path d="M97.98,354.6l-1.51,5.65c1.37,0.3,2.2-0.13,2.51-1.3c0.2-0.73,0.01-1.42-0.53-2.06l0.83-1.86c1.39,1.07,1.84,2.5,1.36,4.31
		c-0.33,1.23-0.96,2.11-1.88,2.65c-0.93,0.54-1.99,0.65-3.21,0.32s-2.09-0.94-2.62-1.86c-0.54-0.92-0.65-1.97-0.33-3.16
		s0.94-2.04,1.84-2.54c0.91-0.5,1.99-0.57,3.25-0.23L97.98,354.6z M95.14,359.82l0.96-3.57c-1.05-0.04-1.72,0.43-1.97,1.39
		C93.88,358.57,94.24,359.38,95.14,359.82z"/>
	<path d="M102.39,351.81l-0.56,2.11l-7.53-2.02l0.56-2.11l1.15,0.31c-0.79-0.77-1.06-1.62-0.8-2.56c0.08-0.3,0.22-0.59,0.43-0.87
		l1.88,0.82c-0.26,0.27-0.44,0.58-0.52,0.93c-0.32,1.21,0.27,2.01,1.77,2.41L102.39,351.81z"/>
	<path d="M104.09,345.49l-0.56,2.11l-7.53-2.02l0.56-2.11l1.15,0.31c-0.79-0.77-1.06-1.62-0.8-2.56c0.08-0.3,0.22-0.59,0.43-0.87
		l1.88,0.82c-0.26,0.27-0.44,0.58-0.52,0.93c-0.32,1.21,0.27,2.01,1.77,2.41L104.09,345.49z"/>
	<path d="M93.52,337.01c0.09-0.35,0.29-0.61,0.6-0.79c0.31-0.18,0.64-0.22,0.99-0.13c0.35,0.09,0.62,0.3,0.8,0.61
		c0.19,0.31,0.23,0.65,0.14,1c-0.09,0.35-0.3,0.61-0.61,0.79c-0.31,0.18-0.65,0.23-1,0.13c-0.35-0.09-0.62-0.3-0.8-0.62
		C93.46,337.69,93.43,337.35,93.52,337.01z M98.24,337.17l7.53,2.02l-0.56,2.1l-7.53-2.02L98.24,337.17z"/>
	<path d="M101.17,336.91l1.05-3.91l1.75,0.47l-1.05,3.91L101.17,336.91z"/>
	<path d="M96.45,327.6l6.64,1.78c0.59,0.16,1.03,0.25,1.3,0.28c0.28,0.03,0.59,0,0.94-0.1c0.68-0.19,1.33-0.87,1.56-1.73
		c0.23-0.85,0.01-1.76-0.48-2.27c-0.25-0.26-0.5-0.44-0.75-0.56c-0.25-0.11-0.68-0.25-1.27-0.41l-6.64-1.78l0.6-2.26l7.1,1.9
		c1.31,0.35,2.26,0.91,2.86,1.68c0.41,0.55,0.67,1.19,0.79,1.94c0.13,0.75,0.07,1.52-0.14,2.31s-0.55,1.48-1.04,2.07
		c-0.48,0.59-1.03,1.03-1.66,1.29c-0.91,0.37-2.01,0.37-3.32,0.02l-7.1-1.9L96.45,327.6z"/>
	<path d="M104.71,320.03c-1.71-0.46-2.99-1.45-3.84-2.97c-0.85-1.52-1.04-3.15-0.57-4.91c0.47-1.76,1.45-3.07,2.94-3.95
		s3.09-1.09,4.81-0.63c1.5,0.4,2.74,1.32,3.7,2.74l2.37-1.38l-0.39,2.33l-1.32,0.67c0.32,1.11,0.32,2.26,0.02,3.44
		c-0.47,1.77-1.45,3.1-2.94,4C108.01,320.27,106.42,320.49,104.71,320.03z M109.61,311.45c-0.51-0.78-1.29-1.31-2.33-1.59
		s-2.04-0.15-3.02,0.4c-0.97,0.55-1.6,1.38-1.89,2.47c-0.3,1.1-0.16,2.13,0.41,3.08c0.57,0.96,1.42,1.59,2.56,1.9
		c1.14,0.31,2.18,0.18,3.13-0.35s1.57-1.34,1.86-2.43c0.18-0.65,0.17-1.25-0.02-1.8l-2.79,1.65l0.43-2.39L109.61,311.45z"/>
	<path d="M113.75,299.62l-1.27,4.75l2.17,1.7l-0.64,2.4l-10.5-8.2l0.46-1.71l13.15-1.69l-0.65,2.42L113.75,299.62z M111.73,299.85
		l-4.6,0.5l3.72,2.8L111.73,299.85z"/>
	<path d="M117.31,296.13l-11.23-5.32l0.41-1.54l8.43-1.14l-6.7-5.32l0.42-1.56l12.33,1.23l-0.61,2.28l-7.43-0.87l6.45,5.13
		l-0.17,0.63l-8.13,1.13l6.84,3.08L117.31,296.13z"/>
</g>
<circle fill="#FFFFFF" stroke="#000000" stroke-width="3" stroke-miterlimit="10" cx="749.18" cy="388" r="10"/>
<g>
	<path d="M745.66,364.82l7.83,2.1c1.52,0.41,2.51,1.04,2.98,1.9c0.38,0.73,0.43,1.57,0.18,2.51c-0.25,0.94-0.85,1.71-1.79,2.29
		l-1.29-1.79c0.52-0.18,0.85-0.51,0.98-0.99c0.13-0.48-0.01-0.87-0.44-1.15c-0.25-0.18-0.78-0.37-1.59-0.6l-7.46-2L745.66,364.82z"
		/>
	<path d="M756.45,357.26l-1.51,5.65c1.37,0.3,2.2-0.13,2.51-1.3c0.2-0.73,0.02-1.42-0.53-2.06l0.83-1.86
		c1.39,1.07,1.84,2.5,1.36,4.31c-0.33,1.23-0.96,2.11-1.88,2.65c-0.93,0.54-1.99,0.65-3.21,0.32s-2.09-0.94-2.62-1.86
		c-0.54-0.92-0.65-1.97-0.33-3.16c0.32-1.2,0.94-2.04,1.84-2.54c0.91-0.49,1.99-0.57,3.25-0.23L756.45,357.26z M753.61,362.48
		l0.96-3.57c-1.05-0.04-1.72,0.43-1.97,1.39C752.35,361.23,752.71,362.05,753.61,362.48z"/>
	<path d="M754.31,348.79l0.56-2.11l7.53,2.02l-0.56,2.11l-0.98-0.26c0.63,0.87,0.82,1.81,0.54,2.84c-0.28,1.03-0.89,1.79-1.84,2.29
		s-2,0.6-3.13,0.3c-1.13-0.3-1.99-0.92-2.58-1.83c-0.58-0.91-0.74-1.87-0.47-2.87s0.9-1.74,1.9-2.22L754.31,348.79z M755.47,351.11
		c-0.16,0.59-0.09,1.15,0.21,1.67c0.3,0.53,0.74,0.86,1.33,1.02c0.58,0.16,1.14,0.09,1.66-0.22c0.53-0.3,0.86-0.74,1.02-1.32
		s0.08-1.13-0.22-1.66c-0.3-0.53-0.73-0.86-1.32-1.02s-1.13-0.08-1.66,0.2C755.96,350.08,755.62,350.53,755.47,351.11z"/>
	<path d="M755.42,344.68l0.56-2.11l0.94,0.25c-0.68-0.88-0.82-1.66-0.55-2.68c0.25-0.92,0.74-1.58,1.49-1.95
		c0.56-0.28,1.31-0.29,2.25-0.03l4.78,1.28l-0.56,2.11l-4.18-1.12c-0.58-0.15-1-0.2-1.27-0.11c-0.46,0.11-0.76,0.47-0.92,1.07
		c-0.28,1.06,0.27,1.78,1.66,2.16l3.9,1.04l-0.56,2.11L755.42,344.68z"/>
	<path d="M760.29,337.14l1.05-3.91l1.75,0.47l-1.05,3.91L760.29,337.14z"/>
	<path d="M766.57,333.2l-11.6-3.11l0.89-3.32c0.45-1.69,1.27-2.95,2.45-3.79c0.71-0.51,1.5-0.84,2.38-1
		c0.88-0.16,1.75-0.11,2.62,0.12c0.87,0.23,1.64,0.64,2.33,1.22c0.69,0.59,1.21,1.28,1.58,2.09c0.61,1.29,0.69,2.79,0.23,4.49
		L766.57,333.2z M765.21,330.41l0.16-0.61c0.37-1.38,0.34-2.49-0.1-3.34c-0.48-0.97-1.47-1.74-2.58-2.04
		c-1.18-0.32-2.26-0.16-3.22,0.48c-0.81,0.53-1.4,1.47-1.77,2.84l-0.16,0.61L765.21,330.41z"/>
	<path d="M770.16,319.79l-0.56,2.11l-7.53-2.02l0.56-2.11l1.15,0.31c-0.79-0.77-1.06-1.62-0.8-2.56c0.08-0.3,0.22-0.59,0.43-0.87
		l1.88,0.82c-0.26,0.27-0.44,0.57-0.52,0.93c-0.32,1.21,0.27,2.01,1.77,2.41L770.16,319.79z"/>
	<path d="M765.27,307.92l0.56-2.11l7.53,2.02l-0.56,2.11l-0.98-0.26c0.63,0.87,0.82,1.81,0.54,2.84c-0.28,1.03-0.89,1.79-1.84,2.29
		c-0.95,0.5-2,0.6-3.13,0.3c-1.13-0.3-1.99-0.92-2.58-1.83c-0.58-0.91-0.74-1.87-0.47-2.87s0.9-1.74,1.9-2.22L765.27,307.92z
		 M766.42,310.24c-0.16,0.59-0.09,1.15,0.21,1.67c0.3,0.53,0.74,0.86,1.33,1.02c0.58,0.16,1.14,0.09,1.66-0.22
		c0.53-0.3,0.86-0.74,1.02-1.32c0.15-0.58,0.08-1.13-0.22-1.66c-0.3-0.52-0.73-0.86-1.32-1.02c-0.59-0.16-1.13-0.08-1.66,0.2
		C766.92,309.2,766.58,309.65,766.42,310.24z"/>
	<path d="M778.48,304.79l-0.56,2.11l-11.55-3.09l0.56-2.11l0.98,0.26c-0.63-0.87-0.82-1.81-0.54-2.83c0.27-1.02,0.89-1.78,1.84-2.29
		c0.96-0.51,2-0.61,3.14-0.3c1.14,0.3,1.99,0.92,2.58,1.83c0.58,0.91,0.74,1.87,0.47,2.86c-0.27,0.99-0.9,1.74-1.91,2.23
		L778.48,304.79z M769.1,300.25c-0.16,0.59-0.08,1.13,0.21,1.66s0.74,0.86,1.33,1.02c0.59,0.16,1.14,0.09,1.66-0.22
		c0.53-0.3,0.86-0.74,1.02-1.32c0.15-0.58,0.08-1.13-0.22-1.66c-0.3-0.52-0.73-0.87-1.32-1.03s-1.13-0.09-1.66,0.22
		S769.25,299.67,769.1,300.25z"/>
	<path d="M775.11,287.61l-1.51,5.65c1.37,0.3,2.2-0.13,2.51-1.3c0.2-0.73,0.02-1.42-0.53-2.06l0.83-1.86
		c1.39,1.07,1.84,2.5,1.36,4.31c-0.33,1.23-0.96,2.11-1.88,2.65c-0.93,0.54-1.99,0.65-3.21,0.32s-2.09-0.94-2.62-1.86
		c-0.54-0.92-0.65-1.97-0.33-3.16c0.32-1.2,0.94-2.04,1.84-2.54c0.91-0.49,1.99-0.57,3.25-0.23L775.11,287.61z M772.28,292.82
		l0.96-3.56c-1.05-0.04-1.72,0.43-1.97,1.39C771.01,291.58,771.38,292.39,772.28,292.82z"/>
	<path d="M772.98,279.14l0.56-2.11l7.53,2.02l-0.56,2.11l-0.98-0.26c0.63,0.87,0.82,1.81,0.54,2.84s-0.89,1.79-1.84,2.29
		c-0.95,0.5-2,0.6-3.13,0.3s-1.99-0.92-2.58-1.83c-0.58-0.91-0.74-1.87-0.47-2.87c0.27-1,0.9-1.74,1.9-2.22L772.98,279.14z
		 M774.13,281.46c-0.16,0.59-0.09,1.15,0.21,1.67c0.3,0.53,0.74,0.86,1.33,1.02s1.14,0.09,1.66-0.22c0.53-0.3,0.86-0.74,1.02-1.32
		c0.16-0.58,0.09-1.13-0.22-1.66c-0.3-0.52-0.73-0.86-1.32-1.02s-1.13-0.08-1.66,0.2C774.63,280.42,774.29,280.87,774.13,281.46z"/>
	<path d="M774.65,272.91l4.26,1.14c1.15,0.31,1.86-0.05,2.14-1.08s-0.17-1.69-1.31-2l-4.26-1.14l0.56-2.11l4.61,1.23
		c2.04,0.55,2.82,2.14,2.19,4.48s-2.11,3.35-4.14,2.8l-4.61-1.23L774.65,272.91z"/>
</g>
<circle fill="#FFFFFF" stroke="#000000" stroke-width="3" stroke-miterlimit="10" cx="1408.37" cy="388" r="10"/>
<g>
	<path d="M1404.23,367.13l9.64,2.58l0.96-3.57l1.96,0.53l-1.56,5.82l-11.6-3.11L1404.23,367.13z"/>
	<path d="M1410.42,359.34c0.34-1.27,0.99-2.19,1.94-2.78s2.02-0.73,3.21-0.41s2.05,0.98,2.58,1.97c0.52,1,0.62,2.14,0.27,3.42
		c-0.34,1.28-1,2.21-1.97,2.79c-0.97,0.59-2.03,0.72-3.21,0.4c-1.18-0.32-2.03-0.98-2.55-1.99S1410.08,360.61,1410.42,359.34z
		 M1412.3,359.88c-0.16,0.59-0.09,1.14,0.21,1.67s0.74,0.87,1.33,1.03c0.58,0.16,1.14,0.09,1.66-0.22c0.53-0.3,0.87-0.75,1.02-1.34
		c0.16-0.59,0.09-1.15-0.21-1.68c-0.3-0.52-0.73-0.86-1.32-1.02s-1.13-0.08-1.66,0.22S1412.46,359.29,1412.3,359.88z"/>
	<path d="M1412.23,353.51l0.56-2.11l0.94,0.25c-0.68-0.88-0.82-1.66-0.55-2.68c0.25-0.93,0.74-1.58,1.49-1.95
		c0.56-0.28,1.31-0.29,2.25-0.04l4.78,1.28l-0.56,2.11l-4.18-1.12c-0.58-0.16-1-0.2-1.27-0.11c-0.46,0.11-0.76,0.47-0.92,1.07
		c-0.28,1.06,0.27,1.78,1.66,2.16l3.9,1.04l-0.56,2.11L1412.23,353.51z"/>
	<path d="M1416.82,336.4l7.25,1.94c0.77,0.21,1.36,0.43,1.75,0.66c0.39,0.24,0.73,0.57,1.01,0.99c0.68,0.97,0.83,2.19,0.44,3.64
		c-0.39,1.45-1.24,2.42-2.54,2.9c-0.55,0.2-1.11,0.26-1.66,0.17l0.62-2.3c0.97,0.03,1.57-0.43,1.83-1.4
		c0.15-0.57,0.09-1.09-0.17-1.56c-0.25-0.4-0.73-0.7-1.44-0.9l-1.13-0.3c0.34,0.52,0.56,1,0.65,1.43c0.09,0.44,0.06,0.93-0.08,1.46
		c-0.28,1.03-0.87,1.79-1.79,2.27c-0.92,0.48-1.95,0.57-3.12,0.26s-2.04-0.92-2.62-1.82c-0.59-0.9-0.75-1.87-0.47-2.88
		c0.27-1.02,0.91-1.75,1.89-2.2l-0.98-0.26L1416.82,336.4z M1417.42,340.79c-0.16,0.59-0.09,1.13,0.21,1.66
		c0.3,0.53,0.74,0.86,1.33,1.02c0.58,0.16,1.14,0.09,1.66-0.22c0.53-0.3,0.86-0.74,1.02-1.32c0.15-0.58,0.08-1.13-0.22-1.66
		c-0.3-0.53-0.73-0.86-1.32-1.02s-1.13-0.08-1.66,0.21C1417.91,339.77,1417.58,340.2,1417.42,340.79z"/>
	<path d="M1417.93,332.27l4.26,1.14c1.15,0.31,1.86-0.05,2.14-1.07s-0.17-1.69-1.31-2l-4.26-1.14l0.56-2.11l4.61,1.24
		c2.04,0.55,2.82,2.14,2.19,4.48c-0.63,2.34-2.11,3.35-4.14,2.8l-4.61-1.24L1417.93,332.27z"/>
	<path d="M1425.95,318.78l-1.51,5.65c1.37,0.3,2.2-0.13,2.51-1.3c0.2-0.73,0.02-1.42-0.53-2.06l0.83-1.86
		c1.39,1.07,1.84,2.5,1.36,4.31c-0.33,1.23-0.96,2.11-1.88,2.65c-0.93,0.54-1.99,0.65-3.21,0.32s-2.09-0.94-2.62-1.86
		c-0.54-0.92-0.65-1.97-0.33-3.16c0.32-1.2,0.94-2.04,1.84-2.54c0.91-0.49,1.99-0.57,3.26-0.23L1425.95,318.78z M1423.11,324
		l0.96-3.57c-1.05-0.04-1.72,0.43-1.97,1.39C1421.84,322.75,1422.21,323.57,1423.11,324z"/>
	<path d="M1422.83,313.98l4.26,1.14c1.15,0.31,1.86-0.05,2.14-1.07s-0.17-1.69-1.31-2l-4.26-1.14l0.56-2.11l4.61,1.24
		c2.04,0.55,2.82,2.14,2.19,4.48c-0.63,2.34-2.11,3.35-4.14,2.8l-4.61-1.24L1422.83,313.98z"/>
	<path d="M1420.58,304.56c0.09-0.35,0.29-0.61,0.6-0.79c0.31-0.18,0.64-0.22,0.99-0.13c0.35,0.09,0.62,0.3,0.8,0.61
		c0.19,0.31,0.23,0.65,0.14,1c-0.09,0.35-0.3,0.61-0.61,0.79c-0.31,0.18-0.65,0.23-1,0.13c-0.35-0.09-0.62-0.3-0.8-0.62
		C1420.53,305.25,1420.49,304.91,1420.58,304.56z M1425.31,304.72l7.53,2.02l-0.56,2.1l-7.53-2.02L1425.31,304.72z"/>
	<path d="M1420.91,299.16l13.02,3.49l-0.56,2.11l-13.02-3.49L1420.91,299.16z"/>
	<path d="M1429.69,299.04l1.94-7.23l1.75,0.47l-1.94,7.23L1429.69,299.04z"/>
	<path d="M1426.21,285.08l6.64,1.78c0.59,0.16,1.03,0.25,1.3,0.28c0.28,0.03,0.59,0,0.94-0.1c0.68-0.19,1.33-0.87,1.56-1.73
		c0.23-0.85,0.01-1.76-0.48-2.27c-0.25-0.26-0.5-0.44-0.75-0.56s-0.68-0.25-1.27-0.41l-6.64-1.78l0.61-2.26l7.1,1.9
		c1.31,0.35,2.26,0.91,2.86,1.68c0.41,0.55,0.67,1.19,0.79,1.94c0.13,0.75,0.07,1.52-0.14,2.31c-0.21,0.79-0.55,1.48-1.04,2.07
		c-0.48,0.59-1.03,1.03-1.66,1.29c-0.91,0.37-2.01,0.37-3.32,0.02l-7.1-1.9L1426.21,285.08z"/>
	<path d="M1432.8,276.75l0.56-2.11l0.94,0.25c-0.68-0.88-0.82-1.66-0.55-2.68c0.25-0.93,0.74-1.58,1.49-1.95
		c0.56-0.28,1.31-0.29,2.25-0.03l4.78,1.28l-0.56,2.11l-4.18-1.12c-0.58-0.16-1-0.2-1.27-0.11c-0.46,0.11-0.76,0.47-0.92,1.07
		c-0.28,1.06,0.27,1.78,1.66,2.16l3.9,1.04l-0.56,2.11L1432.8,276.75z"/>
	<path d="M1431.11,265.26c0.09-0.35,0.29-0.61,0.6-0.79c0.31-0.18,0.64-0.22,0.99-0.13c0.35,0.09,0.62,0.3,0.8,0.62
		c0.19,0.31,0.23,0.65,0.14,1c-0.09,0.35-0.3,0.61-0.61,0.79c-0.31,0.18-0.65,0.23-1,0.13c-0.35-0.09-0.62-0.3-0.8-0.62
		C1431.06,265.95,1431.02,265.61,1431.11,265.26z M1435.84,265.43l7.53,2.02l-0.56,2.1l-7.53-2.02L1435.84,265.43z"/>
	<path d="M1436.76,262l4.79-0.84l-3.74-3.1l0.63-2.37l6.64,5.94l-0.25,0.95l-8.71,1.79L1436.76,262z"/>
	<path d="M1444.72,248.72l-1.51,5.65c1.37,0.3,2.2-0.13,2.51-1.3c0.2-0.73,0.02-1.42-0.53-2.06l0.83-1.86
		c1.39,1.07,1.84,2.5,1.36,4.31c-0.33,1.23-0.96,2.11-1.88,2.65c-0.93,0.54-1.99,0.65-3.21,0.32c-1.21-0.33-2.09-0.94-2.62-1.86
		s-0.65-1.97-0.33-3.16c0.32-1.2,0.94-2.04,1.84-2.54c0.91-0.49,1.99-0.57,3.26-0.23L1444.72,248.72z M1441.88,253.94l0.96-3.57
		c-1.05-0.04-1.72,0.43-1.97,1.39C1440.61,252.69,1440.98,253.51,1441.88,253.94z"/>
	<path d="M1449.13,245.94l-0.56,2.11l-7.53-2.02l0.56-2.11l1.15,0.31c-0.79-0.77-1.06-1.62-0.8-2.56c0.08-0.3,0.22-0.59,0.43-0.87
		l1.88,0.82c-0.26,0.27-0.44,0.58-0.52,0.93c-0.32,1.21,0.27,2.01,1.77,2.41L1449.13,245.94z"/>
	<path d="M1445.55,236.19c-0.45,0.35-0.72,0.68-0.8,1s-0.09,0.56-0.01,0.75c0.08,0.2,0.22,0.31,0.39,0.36
		c0.18,0.05,0.34,0.01,0.5-0.12s0.41-0.46,0.77-1c0.36-0.53,0.68-0.92,0.97-1.14c0.53-0.45,1.17-0.58,1.93-0.38
		c0.76,0.2,1.31,0.67,1.66,1.39c0.35,0.73,0.4,1.56,0.15,2.49c-0.3,1.14-0.98,1.98-2.02,2.52l-0.99-1.45
		c0.74-0.43,1.2-0.94,1.36-1.55c0.14-0.54-0.12-1.06-0.57-1.18c-0.23-0.06-0.42-0.04-0.57,0.07c-0.15,0.11-0.42,0.44-0.8,1
		c-0.38,0.55-0.69,0.92-0.93,1.1c-0.48,0.41-1.07,0.52-1.77,0.33c-0.71-0.19-1.21-0.6-1.52-1.23c-0.32-0.62-0.35-1.36-0.13-2.21
		s0.71-1.56,1.44-2.14L1445.55,236.19z"/>
	<path d="M1440.41,230.57c0.09-0.35,0.29-0.61,0.6-0.79c0.31-0.18,0.64-0.22,0.99-0.13c0.35,0.09,0.62,0.3,0.8,0.62
		c0.19,0.31,0.23,0.65,0.14,1c-0.09,0.35-0.3,0.61-0.61,0.79s-0.65,0.23-1,0.13c-0.35-0.09-0.62-0.3-0.8-0.62
		C1440.35,231.26,1440.32,230.92,1440.41,230.57z M1445.13,230.74l7.53,2.02l-0.56,2.1l-7.53-2.02L1445.13,230.74z"/>
	<path d="M1448.06,227.12l5.71,1.53l-0.56,2.1l-5.71-1.53l-0.22,0.83l-1.83-0.49l0.22-0.83l-2.57-0.69l0.56-2.1l2.57,0.69l0.4-1.5
		l1.83,0.49L1448.06,227.12z"/>
	<path d="M1444.86,217.09l1.65,3.24l-0.97,0.82l-2.08-2.78L1444.86,217.09z M1453.03,217.71l-1.51,5.65c1.37,0.3,2.2-0.13,2.51-1.3
		c0.2-0.73,0.02-1.42-0.53-2.06l0.83-1.86c1.39,1.07,1.84,2.5,1.36,4.31c-0.33,1.23-0.96,2.11-1.88,2.65
		c-0.93,0.54-1.99,0.65-3.21,0.32s-2.09-0.94-2.62-1.86c-0.54-0.92-0.65-1.97-0.33-3.16c0.32-1.2,0.94-2.04,1.84-2.54
		c0.91-0.49,1.99-0.57,3.26-0.23L1453.03,217.71z M1450.19,222.93l0.96-3.57c-1.05-0.04-1.72,0.43-1.97,1.39
		C1448.92,221.68,1449.29,222.5,1450.19,222.93z"/>
	<path d="M1451.94,215.99l1.05-3.91l1.75,0.47l-1.05,3.91L1451.94,215.99z"/>
	<path d="M1446.65,203.12l0.56-2.11l13.02,3.49l-0.56,2.11l-0.98-0.26c0.63,0.87,0.82,1.81,0.54,2.84s-0.89,1.79-1.84,2.29
		s-2,0.6-3.13,0.3c-1.13-0.3-1.99-0.92-2.58-1.83c-0.58-0.91-0.74-1.87-0.47-2.87c0.27-1,0.9-1.74,1.9-2.22L1446.65,203.12z
		 M1453.29,206.91c-0.16,0.59-0.09,1.15,0.21,1.67c0.3,0.53,0.74,0.86,1.33,1.02s1.14,0.09,1.66-0.22c0.53-0.3,0.86-0.74,1.02-1.32
		c0.15-0.58,0.08-1.13-0.22-1.66c-0.3-0.53-0.73-0.86-1.32-1.02s-1.13-0.09-1.66,0.2C1453.79,205.88,1453.45,206.32,1453.29,206.91z
		"/>
	<path d="M1459.33,194.17l-1.51,5.65c1.37,0.3,2.2-0.13,2.51-1.3c0.2-0.73,0.02-1.42-0.53-2.06l0.83-1.86
		c1.39,1.07,1.84,2.5,1.36,4.31c-0.33,1.23-0.96,2.11-1.88,2.65s-1.99,0.65-3.21,0.32s-2.09-0.94-2.62-1.86
		c-0.54-0.92-0.65-1.97-0.33-3.16c0.32-1.2,0.94-2.04,1.84-2.54c0.91-0.49,1.99-0.57,3.25-0.23L1459.33,194.17z M1456.5,199.39
		l0.96-3.57c-1.05-0.04-1.72,0.43-1.97,1.39C1455.23,198.14,1455.6,198.96,1456.5,199.39z"/>
	<path d="M1458.25,192.45l1.05-3.91l1.75,0.47l-1.05,3.91L1458.25,192.45z"/>
	<path d="M1456.55,183.69c0.33,0.09,0.63,0.04,0.9-0.15c0.27-0.19,0.69-0.69,1.28-1.51c0.58-0.82,1.11-1.38,1.57-1.7
		c0.76-0.53,1.68-0.65,2.78-0.36c1.1,0.29,1.9,0.91,2.4,1.84c0.51,0.93,0.6,2,0.28,3.2c-0.44,1.64-1.53,2.77-3.27,3.39l-1.02-1.84
		c1.17-0.27,1.91-0.94,2.2-2.01c0.14-0.52,0.1-0.99-0.11-1.41c-0.22-0.41-0.56-0.69-1.05-0.82c-0.48-0.13-0.92-0.03-1.33,0.31
		c-0.2,0.16-0.6,0.68-1.21,1.54c-0.6,0.87-1.21,1.45-1.79,1.76c-0.58,0.31-1.26,0.35-2.02,0.15c-0.98-0.26-1.69-0.82-2.14-1.68
		c-0.45-0.86-0.54-1.8-0.27-2.85c0.35-1.29,1.08-2.31,2.21-3.07l1.23,1.6c-0.78,0.38-1.26,0.93-1.44,1.63
		c-0.12,0.47-0.1,0.88,0.06,1.26C1455.96,183.37,1456.22,183.6,1456.55,183.69z"/>
	<path d="M1454.03,175.56l0.56-2.11l6.47,1.73c-0.64-0.84-0.84-1.73-0.58-2.68c0.25-0.95,0.76-1.6,1.51-1.95
		c0.58-0.27,1.34-0.28,2.28-0.03l4.73,1.27l-0.56,2.11l-4.12-1.1c-0.6-0.16-1.04-0.21-1.31-0.12c-0.47,0.12-0.78,0.48-0.94,1.07
		c-0.28,1.06,0.28,1.79,1.69,2.17l3.86,1.03l-0.56,2.11L1454.03,175.56z"/>
	<path d="M1468.1,161.47l-1.51,5.65c1.37,0.3,2.2-0.13,2.51-1.3c0.2-0.73,0.02-1.42-0.53-2.06l0.83-1.86
		c1.39,1.07,1.84,2.5,1.36,4.31c-0.33,1.23-0.96,2.11-1.88,2.65c-0.93,0.54-1.99,0.65-3.21,0.32c-1.21-0.33-2.09-0.94-2.62-1.86
		c-0.54-0.92-0.65-1.97-0.33-3.16c0.32-1.2,0.94-2.04,1.84-2.54c0.91-0.49,1.99-0.57,3.25-0.23L1468.1,161.47z M1465.26,166.69
		l0.96-3.57c-1.05-0.04-1.72,0.43-1.97,1.39C1463.99,165.44,1464.36,166.25,1465.26,166.69z"/>
	<path d="M1472.51,158.68l-0.56,2.11l-7.53-2.02l0.56-2.11l1.15,0.31c-0.79-0.77-1.06-1.62-0.8-2.56c0.08-0.3,0.22-0.59,0.43-0.87
		l1.88,0.82c-0.26,0.27-0.44,0.57-0.52,0.93c-0.32,1.21,0.27,2.01,1.77,2.41L1472.51,158.68z"/>
	<path d="M1461.18,148.87l6.47,1.73c-0.62-0.92-0.8-1.89-0.53-2.89c0.27-1,0.88-1.75,1.83-2.25c0.95-0.5,2-0.59,3.14-0.29
		c1.15,0.31,2,0.91,2.58,1.82c0.58,0.91,0.73,1.88,0.45,2.9s-0.91,1.76-1.9,2.19l0.98,0.26l-0.56,2.11l-13.02-3.49L1461.18,148.87z
		 M1468.84,148.9c-0.16,0.59-0.09,1.13,0.21,1.66s0.74,0.86,1.33,1.02c0.58,0.16,1.14,0.09,1.66-0.22c0.53-0.3,0.86-0.74,1.02-1.32
		c0.15-0.58,0.08-1.13-0.22-1.66c-0.3-0.52-0.73-0.87-1.32-1.03s-1.13-0.09-1.66,0.22C1469.33,147.88,1468.99,148.31,1468.84,148.9z
		"/>
	<path d="M1476.86,142.47l-0.56,2.11l-7.53-2.02l0.56-2.11l1.15,0.31c-0.79-0.77-1.06-1.62-0.8-2.56c0.08-0.3,0.22-0.59,0.43-0.87
		l1.88,0.82c-0.26,0.27-0.44,0.57-0.52,0.93c-0.32,1.21,0.27,2.01,1.77,2.41L1476.86,142.47z"/>
	<path d="M1471.23,132.39c0.34-1.26,0.99-2.19,1.94-2.78c0.95-0.59,2.03-0.73,3.21-0.41c1.19,0.32,2.05,0.98,2.58,1.97
		c0.52,1,0.62,2.14,0.27,3.42s-1,2.21-1.97,2.79c-0.97,0.59-2.03,0.72-3.21,0.4c-1.18-0.32-2.03-0.98-2.55-1.99
		C1470.98,134.8,1470.89,133.65,1471.23,132.39z M1473.12,132.92c-0.16,0.59-0.09,1.14,0.21,1.67c0.3,0.53,0.74,0.87,1.33,1.03
		c0.58,0.16,1.14,0.09,1.66-0.22c0.53-0.3,0.87-0.75,1.02-1.34c0.16-0.59,0.09-1.15-0.21-1.68c-0.3-0.52-0.73-0.86-1.32-1.02
		s-1.13-0.09-1.66,0.22S1473.27,132.34,1473.12,132.92z"/>
	<path d="M1473.86,122.57c0.34-1.27,0.99-2.19,1.94-2.78s2.03-0.73,3.21-0.41c1.19,0.32,2.05,0.98,2.57,1.97
		c0.52,1,0.62,2.14,0.27,3.42s-1,2.21-1.97,2.79c-0.97,0.59-2.03,0.72-3.21,0.4s-2.03-0.98-2.55-1.99
		C1473.61,124.97,1473.52,123.83,1473.86,122.57z M1475.75,123.1c-0.16,0.59-0.09,1.14,0.21,1.67c0.3,0.53,0.74,0.87,1.33,1.03
		c0.58,0.16,1.14,0.09,1.66-0.22c0.53-0.3,0.87-0.75,1.02-1.34c0.16-0.59,0.09-1.15-0.21-1.68c-0.3-0.52-0.73-0.86-1.32-1.02
		s-1.13-0.08-1.66,0.22S1475.91,122.51,1475.75,123.1z"/>
	<path d="M1470.75,113.16l8.24,2.21l-2-3.55l0.76-2.85l2.36,4.42l5.25-2.68l-0.78,2.9l-3.99,1.95l0.17,0.28l3,0.8l-0.56,2.11
		l-13.02-3.49L1470.75,113.16z"/>
	<path d="M1484.08,101.84l-1.51,5.65c1.37,0.3,2.2-0.13,2.51-1.3c0.2-0.73,0.02-1.42-0.53-2.06l0.83-1.86
		c1.39,1.07,1.84,2.5,1.36,4.31c-0.33,1.23-0.96,2.11-1.88,2.65c-0.93,0.54-1.99,0.65-3.21,0.32c-1.21-0.33-2.09-0.94-2.62-1.86
		c-0.54-0.92-0.65-1.97-0.33-3.16c0.32-1.2,0.94-2.04,1.84-2.54c0.91-0.49,1.99-0.57,3.25-0.23L1484.08,101.84z M1481.24,107.06
		l0.96-3.57c-1.05-0.04-1.72,0.43-1.97,1.39C1479.97,105.81,1480.34,106.62,1481.24,107.06z"/>
</g>
<g>
	<path fill="#9B9B9B" d="M691.86,416.58v-7.16h3.17c0.64,0,1.12,0.06,1.46,0.19c0.33,0.13,0.6,0.36,0.8,0.68s0.3,0.69,0.3,1.08
		c0,0.51-0.16,0.94-0.49,1.28s-0.84,0.57-1.52,0.66c0.25,0.12,0.44,0.24,0.57,0.36c0.28,0.25,0.54,0.57,0.79,0.95l1.25,1.95h-1.19
		l-0.95-1.49c-0.28-0.43-0.5-0.76-0.68-0.99s-0.34-0.39-0.48-0.48s-0.29-0.15-0.43-0.19c-0.11-0.02-0.28-0.03-0.53-0.03h-1.1v3.18
		H691.86z M692.81,412.58h2.04c0.43,0,0.77-0.04,1.02-0.13c0.24-0.09,0.43-0.23,0.56-0.43c0.13-0.2,0.19-0.41,0.19-0.64
		c0-0.34-0.12-0.62-0.37-0.83s-0.63-0.33-1.16-0.33h-2.27V412.58z"/>
	<path fill="#9B9B9B" d="M702.34,415.94c-0.33,0.28-0.64,0.47-0.94,0.59s-0.62,0.17-0.97,0.17c-0.57,0-1.01-0.14-1.31-0.42
		c-0.31-0.28-0.46-0.63-0.46-1.07c0-0.25,0.06-0.49,0.17-0.7c0.12-0.21,0.27-0.38,0.45-0.51s0.4-0.22,0.63-0.29
		c0.17-0.05,0.43-0.09,0.78-0.13c0.71-0.08,1.23-0.19,1.57-0.3c0-0.12,0-0.2,0-0.23c0-0.36-0.08-0.61-0.25-0.76
		c-0.22-0.2-0.56-0.3-1-0.3c-0.41,0-0.72,0.07-0.92,0.22c-0.2,0.14-0.34,0.4-0.44,0.77l-0.86-0.12c0.08-0.37,0.21-0.67,0.39-0.89
		c0.18-0.23,0.44-0.4,0.78-0.52c0.34-0.12,0.73-0.18,1.18-0.18c0.44,0,0.8,0.05,1.08,0.16s0.48,0.24,0.61,0.39
		c0.13,0.16,0.22,0.36,0.27,0.6c0.03,0.15,0.04,0.42,0.04,0.81v1.17c0,0.82,0.02,1.33,0.06,1.55c0.04,0.22,0.11,0.42,0.22,0.62
		h-0.92C702.43,416.4,702.37,416.19,702.34,415.94z M702.27,413.98c-0.32,0.13-0.8,0.24-1.44,0.33c-0.36,0.05-0.62,0.11-0.77,0.18
		s-0.27,0.16-0.35,0.29c-0.08,0.12-0.12,0.26-0.12,0.42c0,0.23,0.09,0.43,0.27,0.59s0.44,0.23,0.78,0.23c0.34,0,0.64-0.07,0.9-0.22
		c0.26-0.15,0.46-0.35,0.58-0.61c0.09-0.2,0.14-0.49,0.14-0.88V413.98z"/>
	<path fill="#9B9B9B" d="M704.52,410.43v-1.01h0.88v1.01H704.52z M704.52,416.58v-5.19h0.88v5.19H704.52z"/>
	<path fill="#9B9B9B" d="M706.72,416.58v-7.16h0.88v7.16H706.72z"/>
	<path fill="#9B9B9B" d="M711.9,416.58v-7.16h4.83v0.84h-3.88v2.22h3.36v0.84h-3.36v3.25H711.9z"/>
	<path fill="#9B9B9B" d="M721.23,415.94c-0.33,0.28-0.64,0.47-0.94,0.59s-0.62,0.17-0.97,0.17c-0.57,0-1.01-0.14-1.31-0.42
		c-0.31-0.28-0.46-0.63-0.46-1.07c0-0.25,0.06-0.49,0.17-0.7c0.12-0.21,0.27-0.38,0.45-0.51s0.4-0.22,0.63-0.29
		c0.17-0.05,0.43-0.09,0.78-0.13c0.71-0.08,1.23-0.19,1.57-0.3c0-0.12,0-0.2,0-0.23c0-0.36-0.08-0.61-0.25-0.76
		c-0.22-0.2-0.56-0.3-1-0.3c-0.41,0-0.72,0.07-0.92,0.22c-0.2,0.14-0.34,0.4-0.44,0.77l-0.86-0.12c0.08-0.37,0.21-0.67,0.39-0.89
		c0.18-0.23,0.44-0.4,0.78-0.52c0.34-0.12,0.73-0.18,1.18-0.18c0.44,0,0.8,0.05,1.08,0.16s0.48,0.24,0.61,0.39
		c0.13,0.16,0.22,0.36,0.27,0.6c0.03,0.15,0.04,0.42,0.04,0.81v1.17c0,0.82,0.02,1.33,0.06,1.55c0.04,0.22,0.11,0.42,0.22,0.62
		h-0.92C721.32,416.4,721.26,416.19,721.23,415.94z M721.16,413.98c-0.32,0.13-0.8,0.24-1.44,0.33c-0.36,0.05-0.62,0.11-0.77,0.18
		s-0.27,0.16-0.35,0.29c-0.08,0.12-0.12,0.26-0.12,0.42c0,0.23,0.09,0.43,0.27,0.59s0.44,0.23,0.78,0.23c0.34,0,0.64-0.07,0.9-0.22
		c0.26-0.15,0.46-0.35,0.58-0.61c0.09-0.2,0.14-0.49,0.14-0.88V413.98z"/>
	<path fill="#9B9B9B" d="M723.41,416.58v-5.19h0.79v0.74c0.38-0.57,0.93-0.85,1.65-0.85c0.31,0,0.6,0.06,0.86,0.17
		c0.26,0.11,0.46,0.26,0.59,0.44s0.22,0.4,0.27,0.65c0.03,0.16,0.05,0.45,0.05,0.85v3.19h-0.88v-3.15c0-0.36-0.03-0.63-0.1-0.8
		c-0.07-0.18-0.19-0.32-0.36-0.43c-0.17-0.11-0.38-0.16-0.61-0.16c-0.37,0-0.7,0.12-0.97,0.36s-0.41,0.69-0.41,1.35v2.83H723.41z"/>
	<path fill="#9B9B9B" d="M728.62,415.03l0.87-0.14c0.05,0.35,0.18,0.62,0.41,0.8s0.53,0.28,0.94,0.28c0.4,0,0.7-0.08,0.9-0.25
		c0.2-0.17,0.29-0.36,0.29-0.58c0-0.2-0.09-0.35-0.26-0.47c-0.12-0.08-0.42-0.18-0.9-0.3c-0.64-0.16-1.09-0.3-1.34-0.42
		c-0.25-0.12-0.44-0.28-0.57-0.49c-0.13-0.21-0.19-0.44-0.19-0.7c0-0.23,0.05-0.45,0.16-0.64c0.11-0.2,0.25-0.36,0.43-0.49
		c0.14-0.1,0.32-0.19,0.56-0.26c0.24-0.07,0.49-0.11,0.76-0.11c0.41,0,0.76,0.06,1.07,0.18s0.53,0.28,0.68,0.48
		c0.15,0.2,0.25,0.47,0.3,0.8l-0.86,0.12c-0.04-0.27-0.15-0.48-0.34-0.62s-0.45-0.22-0.79-0.22c-0.4,0-0.69,0.07-0.86,0.2
		s-0.26,0.29-0.26,0.47c0,0.11,0.04,0.22,0.11,0.31c0.07,0.09,0.18,0.17,0.34,0.23c0.09,0.03,0.35,0.11,0.78,0.22
		c0.62,0.17,1.06,0.3,1.3,0.41c0.25,0.11,0.44,0.26,0.58,0.46s0.21,0.45,0.21,0.75c0,0.29-0.09,0.57-0.26,0.83
		c-0.17,0.26-0.42,0.46-0.74,0.6c-0.32,0.14-0.69,0.21-1.09,0.21c-0.67,0-1.19-0.14-1.54-0.42S728.72,415.58,728.62,415.03z"/>
	<path fill="#9B9B9B" d="M741.97,414.07l0.95,0.24c-0.2,0.78-0.56,1.37-1.07,1.78c-0.52,0.41-1.15,0.61-1.89,0.61
		c-0.77,0-1.4-0.16-1.88-0.47c-0.48-0.31-0.85-0.77-1.1-1.36s-0.38-1.24-0.38-1.92c0-0.75,0.14-1.4,0.43-1.95
		c0.28-0.55,0.69-0.98,1.22-1.26c0.53-0.29,1.1-0.43,1.74-0.43c0.72,0,1.32,0.18,1.81,0.55s0.83,0.88,1.02,1.54l-0.93,0.22
		c-0.17-0.52-0.41-0.9-0.72-1.14s-0.71-0.36-1.19-0.36c-0.55,0-1.01,0.13-1.38,0.4s-0.63,0.62-0.78,1.06
		c-0.15,0.44-0.22,0.9-0.22,1.37c0,0.61,0.09,1.14,0.27,1.59c0.18,0.45,0.45,0.79,0.83,1.02s0.78,0.34,1.22,0.34
		c0.53,0,0.98-0.15,1.35-0.46S741.84,414.67,741.97,414.07z"/>
	<path fill="#9B9B9B" d="M747.36,415.94c-0.33,0.28-0.64,0.47-0.94,0.59s-0.62,0.17-0.97,0.17c-0.57,0-1.01-0.14-1.31-0.42
		c-0.31-0.28-0.46-0.63-0.46-1.07c0-0.25,0.06-0.49,0.17-0.7c0.12-0.21,0.27-0.38,0.45-0.51s0.4-0.22,0.63-0.29
		c0.17-0.05,0.43-0.09,0.78-0.13c0.71-0.08,1.23-0.19,1.57-0.3c0-0.12,0-0.2,0-0.23c0-0.36-0.08-0.61-0.25-0.76
		c-0.22-0.2-0.56-0.3-1-0.3c-0.41,0-0.72,0.07-0.92,0.22c-0.2,0.14-0.34,0.4-0.44,0.77l-0.86-0.12c0.08-0.37,0.21-0.67,0.39-0.89
		c0.18-0.23,0.44-0.4,0.78-0.52c0.34-0.12,0.73-0.18,1.18-0.18c0.44,0,0.8,0.05,1.08,0.16s0.48,0.24,0.61,0.39
		c0.13,0.16,0.22,0.36,0.27,0.6c0.03,0.15,0.04,0.42,0.04,0.81v1.17c0,0.82,0.02,1.33,0.06,1.55c0.04,0.22,0.11,0.42,0.22,0.62
		h-0.92C747.44,416.4,747.38,416.19,747.36,415.94z M747.28,413.98c-0.32,0.13-0.8,0.24-1.44,0.33c-0.36,0.05-0.62,0.11-0.77,0.18
		s-0.27,0.16-0.35,0.29c-0.08,0.12-0.12,0.26-0.12,0.42c0,0.23,0.09,0.43,0.27,0.59s0.44,0.23,0.78,0.23c0.34,0,0.64-0.07,0.9-0.22
		c0.26-0.15,0.46-0.35,0.58-0.61c0.09-0.2,0.14-0.49,0.14-0.88V413.98z"/>
	<path fill="#9B9B9B" d="M749.53,416.58v-5.19h0.79v0.74c0.38-0.57,0.93-0.85,1.65-0.85c0.31,0,0.6,0.06,0.86,0.17
		c0.26,0.11,0.46,0.26,0.59,0.44c0.13,0.18,0.22,0.4,0.27,0.65c0.03,0.16,0.05,0.45,0.05,0.85v3.19h-0.88v-3.15
		c0-0.36-0.04-0.63-0.1-0.8c-0.07-0.18-0.19-0.32-0.36-0.43c-0.17-0.11-0.38-0.16-0.61-0.16c-0.37,0-0.7,0.12-0.97,0.36
		c-0.27,0.24-0.41,0.69-0.41,1.35v2.83H749.53z"/>
	<path fill="#9B9B9B" d="M758.48,415.94c-0.33,0.28-0.64,0.47-0.94,0.59s-0.62,0.17-0.97,0.17c-0.57,0-1.01-0.14-1.31-0.42
		c-0.31-0.28-0.46-0.63-0.46-1.07c0-0.25,0.06-0.49,0.17-0.7c0.12-0.21,0.27-0.38,0.45-0.51s0.4-0.22,0.63-0.29
		c0.17-0.05,0.43-0.09,0.78-0.13c0.71-0.08,1.23-0.19,1.57-0.3c0-0.12,0-0.2,0-0.23c0-0.36-0.08-0.61-0.25-0.76
		c-0.22-0.2-0.56-0.3-1-0.3c-0.41,0-0.72,0.07-0.92,0.22c-0.2,0.14-0.34,0.4-0.44,0.77l-0.86-0.12c0.08-0.37,0.21-0.67,0.38-0.89
		c0.18-0.23,0.44-0.4,0.78-0.52c0.34-0.12,0.73-0.18,1.18-0.18c0.44,0,0.8,0.05,1.08,0.16c0.28,0.1,0.48,0.24,0.61,0.39
		c0.13,0.16,0.22,0.36,0.27,0.6c0.03,0.15,0.04,0.42,0.04,0.81v1.17c0,0.82,0.02,1.33,0.06,1.55c0.04,0.22,0.11,0.42,0.22,0.62
		h-0.92C758.56,416.4,758.5,416.19,758.48,415.94z M758.41,413.98c-0.32,0.13-0.8,0.24-1.44,0.33c-0.36,0.05-0.62,0.11-0.77,0.18
		c-0.15,0.07-0.26,0.16-0.35,0.29c-0.08,0.12-0.12,0.26-0.12,0.42c0,0.23,0.09,0.43,0.27,0.59s0.44,0.23,0.78,0.23
		c0.34,0,0.64-0.07,0.9-0.22c0.26-0.15,0.46-0.35,0.58-0.61c0.09-0.2,0.14-0.49,0.14-0.88V413.98z"/>
	<path fill="#9B9B9B" d="M764.02,416.58v-0.65c-0.33,0.51-0.81,0.77-1.45,0.77c-0.41,0-0.79-0.11-1.14-0.34s-0.62-0.55-0.81-0.96
		c-0.19-0.41-0.29-0.88-0.29-1.41c0-0.52,0.09-0.99,0.26-1.41c0.17-0.42,0.43-0.75,0.78-0.97c0.34-0.22,0.73-0.34,1.16-0.34
		c0.31,0,0.59,0.07,0.84,0.2c0.24,0.13,0.44,0.3,0.6,0.52v-2.57h0.87v7.16H764.02z M761.24,413.99c0,0.66,0.14,1.16,0.42,1.49
		c0.28,0.33,0.61,0.49,0.99,0.49c0.38,0,0.71-0.16,0.98-0.47c0.27-0.31,0.4-0.79,0.4-1.44c0-0.71-0.14-1.23-0.41-1.56
		s-0.61-0.5-1.01-0.5c-0.39,0-0.72,0.16-0.98,0.48S761.24,413.31,761.24,413.99z"/>
	<path fill="#9B9B9B" d="M769.6,415.94c-0.33,0.28-0.64,0.47-0.94,0.59s-0.62,0.17-0.97,0.17c-0.57,0-1.01-0.14-1.31-0.42
		c-0.31-0.28-0.46-0.63-0.46-1.07c0-0.25,0.06-0.49,0.17-0.7c0.12-0.21,0.27-0.38,0.45-0.51s0.4-0.22,0.63-0.29
		c0.17-0.05,0.43-0.09,0.78-0.13c0.71-0.08,1.23-0.19,1.57-0.3c0-0.12,0-0.2,0-0.23c0-0.36-0.08-0.61-0.25-0.76
		c-0.22-0.2-0.56-0.3-1-0.3c-0.41,0-0.72,0.07-0.92,0.22c-0.2,0.14-0.34,0.4-0.44,0.77l-0.86-0.12c0.08-0.37,0.21-0.67,0.38-0.89
		c0.18-0.23,0.44-0.4,0.78-0.52c0.34-0.12,0.73-0.18,1.18-0.18c0.44,0,0.8,0.05,1.08,0.16c0.28,0.1,0.48,0.24,0.61,0.39
		c0.13,0.16,0.22,0.36,0.27,0.6c0.03,0.15,0.04,0.42,0.04,0.81v1.17c0,0.82,0.02,1.33,0.06,1.55c0.04,0.22,0.11,0.42,0.22,0.62
		h-0.92C769.69,416.4,769.63,416.19,769.6,415.94z M769.53,413.98c-0.32,0.13-0.8,0.24-1.44,0.33c-0.36,0.05-0.62,0.11-0.77,0.18
		c-0.15,0.07-0.26,0.16-0.35,0.29c-0.08,0.12-0.12,0.26-0.12,0.42c0,0.23,0.09,0.43,0.27,0.59s0.44,0.23,0.78,0.23
		c0.34,0,0.64-0.07,0.9-0.22c0.26-0.15,0.46-0.35,0.58-0.61c0.09-0.2,0.14-0.49,0.14-0.88V413.98z"/>
	<path fill="#9B9B9B" d="M773.9,414.35v-0.71h10v0.71H773.9z"/>
	<path fill="#9B9B9B" d="M791.71,415.74v0.84h-4.73c-0.01-0.21,0.03-0.42,0.1-0.61c0.12-0.32,0.31-0.64,0.58-0.95
		s0.65-0.67,1.15-1.08c0.78-0.64,1.3-1.14,1.58-1.52c0.27-0.37,0.41-0.73,0.41-1.06c0-0.35-0.12-0.64-0.37-0.88
		c-0.25-0.24-0.57-0.36-0.97-0.36c-0.42,0-0.76,0.13-1.02,0.38s-0.38,0.61-0.39,1.05l-0.9-0.09c0.06-0.67,0.29-1.19,0.7-1.54
		c0.4-0.35,0.95-0.53,1.63-0.53c0.69,0,1.23,0.19,1.63,0.57s0.6,0.85,0.6,1.42c0,0.29-0.06,0.57-0.18,0.84s-0.31,0.57-0.58,0.87
		s-0.72,0.73-1.35,1.26c-0.53,0.44-0.87,0.74-1.02,0.9c-0.15,0.16-0.27,0.32-0.37,0.48H791.71z"/>
	<path fill="#9B9B9B" d="M792.65,413.05c0-0.85,0.09-1.53,0.26-2.04c0.17-0.52,0.43-0.91,0.78-1.19s0.78-0.42,1.3-0.42
		c0.38,0,0.72,0.08,1.01,0.23c0.29,0.15,0.53,0.38,0.72,0.67c0.19,0.29,0.34,0.65,0.44,1.06c0.11,0.42,0.16,0.98,0.16,1.69
		c0,0.84-0.09,1.52-0.26,2.03c-0.17,0.52-0.43,0.91-0.77,1.2c-0.34,0.28-0.78,0.42-1.3,0.42c-0.69,0-1.23-0.25-1.63-0.74
		C792.89,415.37,792.65,414.4,792.65,413.05z M793.56,413.05c0,1.17,0.14,1.96,0.41,2.35c0.27,0.39,0.61,0.58,1.02,0.58
		c0.4,0,0.74-0.2,1.02-0.59s0.41-1.17,0.41-2.34c0-1.18-0.14-1.96-0.41-2.35s-0.62-0.58-1.03-0.58c-0.4,0-0.73,0.17-0.97,0.51
		C793.71,411.07,793.56,411.88,793.56,413.05z"/>
	<path fill="#9B9B9B" d="M802.83,415.74v0.84h-4.73c-0.01-0.21,0.03-0.42,0.1-0.61c0.12-0.32,0.31-0.64,0.58-0.95
		s0.65-0.67,1.15-1.08c0.78-0.64,1.3-1.14,1.58-1.52c0.27-0.37,0.41-0.73,0.41-1.06c0-0.35-0.12-0.64-0.37-0.88
		c-0.25-0.24-0.57-0.36-0.97-0.36c-0.42,0-0.76,0.13-1.02,0.38s-0.38,0.61-0.39,1.05l-0.9-0.09c0.06-0.67,0.29-1.19,0.7-1.54
		c0.4-0.35,0.95-0.53,1.63-0.53c0.69,0,1.23,0.19,1.63,0.57s0.6,0.85,0.6,1.42c0,0.29-0.06,0.57-0.18,0.84s-0.31,0.57-0.58,0.87
		s-0.72,0.73-1.35,1.26c-0.53,0.44-0.87,0.74-1.02,0.9c-0.15,0.16-0.27,0.32-0.37,0.48H802.83z"/>
	<path fill="#9B9B9B" d="M808.34,411.18l-0.88,0.07c-0.08-0.34-0.19-0.6-0.33-0.75c-0.24-0.25-0.53-0.38-0.88-0.38
		c-0.28,0-0.53,0.08-0.74,0.23c-0.28,0.2-0.5,0.5-0.65,0.88c-0.16,0.39-0.24,0.94-0.25,1.66c0.21-0.32,0.47-0.56,0.78-0.72
		c0.31-0.16,0.63-0.23,0.96-0.23c0.59,0,1.09,0.22,1.5,0.65c0.41,0.43,0.62,0.99,0.62,1.67c0,0.45-0.1,0.87-0.29,1.25
		c-0.19,0.39-0.46,0.68-0.8,0.89c-0.34,0.21-0.72,0.31-1.15,0.31c-0.73,0-1.33-0.27-1.79-0.81c-0.46-0.54-0.69-1.43-0.69-2.66
		c0-1.38,0.25-2.39,0.77-3.02c0.45-0.55,1.05-0.82,1.8-0.82c0.56,0,1.02,0.16,1.38,0.47S808.27,410.62,808.34,411.18z
		 M804.75,414.26c0,0.3,0.06,0.59,0.19,0.87s0.31,0.49,0.54,0.63c0.23,0.15,0.47,0.22,0.73,0.22c0.37,0,0.69-0.15,0.96-0.45
		c0.27-0.3,0.4-0.71,0.4-1.22c0-0.5-0.13-0.88-0.4-1.17c-0.26-0.29-0.6-0.43-1-0.43c-0.4,0-0.73,0.14-1.01,0.43
		C804.89,413.43,804.75,413.8,804.75,414.26z"/>
</g>
<g>
	<path d="M29.83,54.67h-5.71V41.2L14,25.33h6.77l6.34,10.21l6.21-10.21h6.81L29.83,41.2V54.67z"/>
	<path d="M58.28,46.02H43.99c0.15,3.42,1.7,5.11,4.66,5.09c1.85,0,3.35-0.86,4.53-2.56l4.92,0.79c-1.65,3.95-4.75,5.93-9.32,5.95
		c-3.12,0-5.59-0.92-7.46-2.77s-2.79-4.3-2.79-7.37s0.9-5.52,2.73-7.37s4.23-2.77,7.26-2.77s5.41,0.92,7.15,2.75s2.6,4.34,2.6,7.54
		V46.02z M44.16,42.62h9.02c-0.58-2.51-2.11-3.78-4.53-3.78C46.31,38.84,44.62,40.21,44.16,42.62z"/>
	<path d="M67.78,21.72v32.96h-5.33V21.72H67.78z"/>
	<path d="M78.2,21.72v32.96h-5.33V21.72H78.2z"/>
	<path d="M93.23,35.02c3.2,0,5.8,0.95,7.8,2.81s3.01,4.32,3.01,7.33s-1.01,5.46-3.03,7.33c-2.04,1.87-4.66,2.81-7.91,2.81
		s-5.84-0.97-7.84-2.88s-2.99-4.34-2.99-7.33s1.03-5.41,3.07-7.28S90.03,35.02,93.23,35.02z M93.17,39.81
		c-1.48,0-2.75,0.52-3.8,1.55s-1.59,2.3-1.59,3.78s0.52,2.75,1.57,3.78c1.05,1.05,2.32,1.57,3.8,1.57s2.77-0.52,3.82-1.57
		c1.05-1.03,1.57-2.28,1.57-3.76s-0.52-2.73-1.57-3.78S94.65,39.81,93.17,39.81z"/>
	<path d="M110.66,35.62l5.01,11l5.2-11.52h2.28l5.2,11.69l5.09-11.17h5.95l-9.86,19.44h-2.41l-5.16-11.56l-5.07,11.56h-2.45
		l-9.78-19.44H110.66z"/>
	<path d="M159.58,25.33v24.38h9.02v4.96h-14.74V25.33H159.58z"/>
	<path d="M174.51,24.36c0.88,0,1.63,0.3,2.26,0.92s0.92,1.38,0.92,2.26s-0.32,1.65-0.95,2.28c-0.62,0.64-1.4,0.97-2.28,0.97
		s-1.63-0.32-2.26-0.95s-0.95-1.4-0.95-2.28s0.32-1.65,0.97-2.28C172.86,24.66,173.63,24.36,174.51,24.36z M177.11,35.62v19.06
		h-5.31V35.62H177.11z"/>
	<path d="M182.14,35.62h5.33V38c1.63-2.17,3.39-2.99,5.97-2.99c2.34,0,4.19,0.75,5.54,2.28c1.01,1.14,1.5,2.9,1.5,5.29v12.1h-5.33
		V44.1c0-1.46-0.17-2.49-0.54-3.07c-0.56-1.01-1.59-1.5-3.12-1.5c-2.69,0-4.04,1.76-4.04,5.29v9.86h-5.33V35.62z"/>
	<path d="M224.31,46.02h-14.29c0.15,3.42,1.7,5.11,4.66,5.09c1.85,0,3.35-0.86,4.53-2.56l4.92,0.79c-1.65,3.95-4.75,5.93-9.32,5.95
		c-3.12,0-5.59-0.92-7.46-2.77s-2.79-4.3-2.79-7.37s0.9-5.52,2.73-7.37s4.23-2.77,7.26-2.77s5.41,0.92,7.15,2.75s2.6,4.34,2.6,7.54
		V46.02z M210.2,42.62h9.02c-0.58-2.51-2.11-3.78-4.53-3.78C212.34,38.84,210.65,40.21,210.2,42.62z"/>
</g>
<g>
	<path fill="#5A5A5A" d="M16.69,70.38c0,0.3,0.11,0.55,0.34,0.73c0.23,0.19,0.75,0.44,1.59,0.75s1.44,0.63,1.82,0.96
		c0.63,0.53,0.95,1.3,0.95,2.3s-0.34,1.84-1.02,2.48s-1.58,0.98-2.69,0.98c-1.51,0-2.73-0.68-3.66-2.03l1.34-1.3
		c0.5,0.95,1.24,1.42,2.23,1.42c0.48,0,0.88-0.14,1.19-0.42c0.3-0.28,0.46-0.64,0.46-1.09s-0.19-0.8-0.57-1.07
		c-0.18-0.13-0.72-0.36-1.6-0.68s-1.52-0.7-1.92-1.13s-0.59-1-0.59-1.7c0-0.9,0.31-1.64,0.95-2.23s1.42-0.88,2.38-0.88
		c1.19,0,2.23,0.4,3.14,1.19l-1.09,1.42c-0.51-0.58-1.09-0.87-1.73-0.86c-0.43,0-0.78,0.12-1.07,0.34S16.69,70.08,16.69,70.38z"/>
	<path fill="#5A5A5A" d="M26.66,71.19c1.16,0,2.11,0.34,2.84,1.02s1.09,1.57,1.09,2.66s-0.37,1.98-1.1,2.66
		c-0.74,0.68-1.7,1.02-2.88,1.02s-2.12-0.35-2.85-1.05s-1.09-1.58-1.09-2.66s0.38-1.97,1.12-2.65S25.5,71.19,26.66,71.19z
		 M26.64,72.93c-0.54,0-1,0.19-1.38,0.56s-0.58,0.84-0.58,1.38s0.19,1,0.57,1.38c0.38,0.38,0.84,0.57,1.38,0.57s1.01-0.19,1.39-0.57
		c0.38-0.38,0.57-0.83,0.57-1.37s-0.19-0.99-0.57-1.38S27.18,72.93,26.64,72.93z"/>
	<path fill="#5A5A5A" d="M37.28,73.52c-0.51-0.4-1.04-0.59-1.59-0.59s-1.02,0.18-1.4,0.55s-0.57,0.83-0.57,1.39s0.19,1.02,0.57,1.39
		s0.85,0.55,1.41,0.55s1.09-0.19,1.58-0.57v1.88c-0.57,0.29-1.16,0.43-1.77,0.44c-1.08,0-1.98-0.35-2.7-1.05
		c-0.73-0.7-1.09-1.57-1.09-2.61s0.37-1.92,1.09-2.64c0.73-0.71,1.63-1.07,2.71-1.07c0.63,0,1.22,0.14,1.76,0.41V73.52z"/>
	<path fill="#5A5A5A" d="M39.71,67.31c0.32,0,0.59,0.11,0.82,0.34s0.34,0.5,0.34,0.82s-0.12,0.6-0.34,0.83
		c-0.23,0.23-0.51,0.35-0.83,0.35s-0.59-0.12-0.82-0.34s-0.34-0.51-0.34-0.83s0.12-0.6,0.35-0.83
		C39.11,67.42,39.39,67.31,39.71,67.31z M40.66,71.41v6.93h-1.93v-6.93H40.66z"/>
	<path fill="#5A5A5A" d="M49.3,75.19h-5.2c0.05,1.24,0.62,1.86,1.7,1.85c0.67,0,1.22-0.31,1.65-0.93l1.79,0.29
		c-0.6,1.44-1.73,2.16-3.39,2.16c-1.13,0-2.03-0.34-2.71-1.01s-1.02-1.56-1.02-2.68s0.33-2.01,0.99-2.68s1.54-1.01,2.64-1.01
		s1.97,0.34,2.6,1s0.95,1.58,0.95,2.74V75.19z M44.16,73.95h3.28c-0.21-0.91-0.77-1.38-1.65-1.38
		C44.95,72.58,44.33,73.08,44.16,73.95z M47.95,68.03l-2.4,2.16l-0.93-0.64l1.91-2.42L47.95,68.03z"/>
	<path fill="#5A5A5A" d="M52.83,73.09v5.25h-1.94v-5.25h-0.77v-1.68h0.77v-2.37h1.94v2.37h1.38v1.68H52.83z"/>
	<path fill="#5A5A5A" d="M62.05,75.19h-5.2c0.05,1.24,0.62,1.86,1.7,1.85c0.67,0,1.22-0.31,1.65-0.93l1.79,0.29
		c-0.6,1.44-1.73,2.16-3.39,2.16c-1.13,0-2.03-0.34-2.71-1.01s-1.02-1.56-1.02-2.68s0.33-2.01,0.99-2.68s1.54-1.01,2.64-1.01
		s1.97,0.34,2.6,1s0.95,1.58,0.95,2.74V75.19z M56.91,73.95h3.28c-0.21-0.91-0.77-1.38-1.65-1.38
		C57.7,72.58,57.08,73.08,56.91,73.95z M60.7,68.03l-2.4,2.16l-0.93-0.64l1.91-2.42L60.7,68.03z"/>
	<path fill="#5A5A5A" d="M72.83,66.35h1.94v11.98h-1.94v-0.9c-0.6,0.74-1.37,1.12-2.31,1.12s-1.74-0.35-2.39-1.05
		s-0.98-1.58-0.98-2.62s0.33-1.92,0.98-2.63s1.44-1.06,2.36-1.06s1.7,0.38,2.34,1.12V66.35z M71.1,72.93
		c-0.55,0-1.01,0.19-1.38,0.56c-0.38,0.38-0.57,0.84-0.57,1.38s0.19,1,0.57,1.38c0.38,0.38,0.84,0.57,1.37,0.57s0.99-0.19,1.38-0.57
		c0.38-0.38,0.57-0.83,0.57-1.37s-0.19-0.99-0.55-1.38C72.1,73.12,71.64,72.93,71.1,72.93z"/>
	<path fill="#5A5A5A" d="M83.43,75.19h-5.2c0.05,1.24,0.62,1.86,1.7,1.85c0.67,0,1.22-0.31,1.65-0.93l1.79,0.29
		c-0.6,1.44-1.73,2.16-3.39,2.16c-1.13,0-2.03-0.34-2.71-1.01s-1.02-1.56-1.02-2.68s0.33-2.01,0.99-2.68s1.54-1.01,2.64-1.01
		s1.97,0.34,2.6,1s0.95,1.58,0.95,2.74V75.19z M78.3,73.95h3.28c-0.21-0.91-0.77-1.38-1.65-1.38C79.08,72.58,78.46,73.08,78.3,73.95
		z"/>
	<path fill="#5A5A5A" d="M90.85,73.09v5.25h-1.94v-5.25h-0.77v-1.68h0.77v-2.37h1.94v2.37h1.38v1.68H90.85z"/>
	<path fill="#5A5A5A" d="M95.27,78.34h-1.94v-6.93h1.94v1.05c0.48-0.85,1.15-1.28,2.02-1.27c0.27,0,0.55,0.05,0.84,0.17l-0.27,1.8
		c-0.29-0.16-0.59-0.24-0.92-0.23c-1.11,0-1.66,0.7-1.66,2.08V78.34z"/>
	<path fill="#5A5A5A" d="M104.34,71.41h1.94v6.93h-1.94v-0.9c-0.6,0.74-1.37,1.12-2.31,1.12s-1.74-0.35-2.39-1.05
		s-0.98-1.58-0.98-2.62s0.33-1.92,0.98-2.63s1.44-1.06,2.36-1.06s1.7,0.38,2.34,1.12V71.41z M102.62,72.93
		c-0.55,0-1.01,0.19-1.38,0.56c-0.38,0.38-0.57,0.84-0.57,1.38s0.19,1,0.57,1.38c0.38,0.38,0.84,0.57,1.37,0.57s0.99-0.19,1.38-0.57
		c0.38-0.38,0.57-0.83,0.57-1.37s-0.19-0.99-0.55-1.38C103.62,73.12,103.16,72.93,102.62,72.93z"/>
	<path fill="#5A5A5A" d="M108.13,71.41h1.94v0.87c0.59-0.79,1.23-1.09,2.17-1.09c0.85,0,1.52,0.27,2.02,0.83
		c0.37,0.41,0.55,1.05,0.55,1.92v4.4h-1.94v-3.84c0-0.53-0.06-0.91-0.2-1.12c-0.2-0.37-0.58-0.55-1.13-0.55
		c-0.98,0-1.47,0.64-1.47,1.92v3.59h-1.94V71.41z"/>
	<path fill="#5A5A5A" d="M120.45,73.02c-0.41-0.3-0.75-0.46-1.04-0.46s-0.5,0.05-0.65,0.16c-0.15,0.12-0.22,0.26-0.22,0.42
		s0.07,0.3,0.22,0.4s0.49,0.24,1.03,0.43s0.95,0.38,1.2,0.57c0.51,0.35,0.77,0.88,0.77,1.57s-0.27,1.28-0.81,1.74
		c-0.55,0.47-1.25,0.7-2.1,0.7c-1.05,0-1.92-0.38-2.62-1.16l1.02-1.18c0.54,0.54,1.09,0.81,1.64,0.81c0.49,0,0.88-0.34,0.88-0.76
		c0-0.21-0.06-0.37-0.2-0.48c-0.13-0.1-0.48-0.26-1.04-0.46s-0.95-0.38-1.16-0.55c-0.46-0.32-0.69-0.8-0.69-1.45s0.23-1.17,0.7-1.59
		c0.46-0.41,1.09-0.62,1.87-0.62s1.5,0.25,2.16,0.74L120.45,73.02z"/>
	<path fill="#5A5A5A" d="M125.13,82.03h-1.94V71.41h1.94v0.9c0.6-0.74,1.37-1.12,2.3-1.12s1.73,0.35,2.39,1.05s0.98,1.58,0.98,2.62
		s-0.33,1.92-0.98,2.63s-1.44,1.06-2.35,1.06s-1.7-0.38-2.35-1.12V82.03z M126.87,72.93c-0.54,0-0.99,0.19-1.38,0.56
		s-0.57,0.84-0.57,1.38s0.19,1,0.57,1.38c0.38,0.38,0.84,0.57,1.37,0.57s0.99-0.19,1.38-0.57c0.38-0.38,0.58-0.83,0.58-1.37
		s-0.19-0.99-0.57-1.38S127.41,72.93,126.87,72.93z"/>
	<path fill="#5A5A5A" d="M135.91,71.19c1.16,0,2.11,0.34,2.84,1.02s1.09,1.57,1.09,2.66s-0.37,1.98-1.1,2.66
		c-0.74,0.68-1.7,1.02-2.88,1.02s-2.12-0.35-2.85-1.05s-1.09-1.58-1.09-2.66s0.38-1.97,1.12-2.65S134.75,71.19,135.91,71.19z
		 M135.89,72.93c-0.54,0-1,0.19-1.38,0.56s-0.58,0.84-0.58,1.38s0.19,1,0.57,1.38c0.38,0.38,0.84,0.57,1.38,0.57
		s1.01-0.19,1.39-0.57c0.38-0.38,0.57-0.83,0.57-1.37s-0.19-0.99-0.57-1.38S136.43,72.93,135.89,72.93z"/>
	<path fill="#5A5A5A" d="M143.27,78.34h-1.94v-6.93h1.94v1.05c0.48-0.85,1.15-1.28,2.02-1.27c0.27,0,0.55,0.05,0.84,0.17l-0.27,1.8
		c-0.29-0.16-0.59-0.24-0.92-0.23c-1.11,0-1.66,0.7-1.66,2.08V78.34z"/>
	<path fill="#5A5A5A" d="M149.49,73.09v5.25h-1.94v-5.25h-0.77v-1.68h0.77v-2.37h1.94v2.37h1.38v1.68H149.49z"/>
	<path fill="#5A5A5A" d="M161.16,66.35h1.94v11.98h-1.94v-0.9c-0.6,0.74-1.37,1.12-2.31,1.12s-1.74-0.35-2.39-1.05
		s-0.98-1.58-0.98-2.62s0.33-1.92,0.98-2.63s1.44-1.06,2.36-1.06s1.7,0.38,2.34,1.12V66.35z M159.44,72.93
		c-0.55,0-1.01,0.19-1.38,0.56c-0.38,0.38-0.57,0.84-0.57,1.38s0.19,1,0.57,1.38c0.38,0.38,0.84,0.57,1.37,0.57s0.99-0.19,1.38-0.57
		c0.38-0.38,0.57-0.83,0.57-1.37s-0.19-0.99-0.55-1.38C160.44,73.12,159.98,72.93,159.44,72.93z"/>
	<path fill="#5A5A5A" d="M171.77,75.19h-5.2c0.05,1.24,0.62,1.86,1.7,1.85c0.67,0,1.22-0.31,1.65-0.93l1.79,0.29
		c-0.6,1.44-1.73,2.16-3.39,2.16c-1.13,0-2.03-0.34-2.71-1.01s-1.02-1.56-1.02-2.68s0.33-2.01,0.99-2.68s1.54-1.01,2.64-1.01
		s1.97,0.34,2.6,1s0.95,1.58,0.95,2.74V75.19z M166.63,73.95h3.28c-0.21-0.91-0.77-1.38-1.65-1.38
		C167.41,72.58,166.8,73.08,166.63,73.95z"/>
	<path fill="#5A5A5A" d="M176.96,78.34l1.98-10.87h1.42l2.91,6.98l3.02-6.98h1.44l1.78,10.87h-2.1l-0.96-6.58l-2.92,6.72h-0.58
		l-2.84-6.72l-1.07,6.58H176.96z"/>
	<path fill="#5A5A5A" d="M194.73,71.19c1.16,0,2.11,0.34,2.84,1.02s1.09,1.57,1.09,2.66s-0.37,1.98-1.1,2.66
		c-0.74,0.68-1.7,1.02-2.88,1.02s-2.12-0.35-2.85-1.05s-1.09-1.58-1.09-2.66s0.38-1.97,1.12-2.65S193.57,71.19,194.73,71.19z
		 M194.71,72.93c-0.54,0-1,0.19-1.38,0.56s-0.58,0.84-0.58,1.38s0.19,1,0.57,1.38c0.38,0.38,0.84,0.57,1.38,0.57
		s1.01-0.19,1.39-0.57c0.38-0.38,0.57-0.83,0.57-1.37s-0.19-0.99-0.57-1.38S195.25,72.93,194.71,72.93z"/>
	<path fill="#5A5A5A" d="M200.16,71.41h1.94v0.87c0.59-0.79,1.23-1.09,2.17-1.09c0.85,0,1.52,0.27,2.02,0.83
		c0.37,0.41,0.55,1.05,0.55,1.92v4.4h-1.94v-3.84c0-0.53-0.06-0.91-0.2-1.12c-0.2-0.37-0.58-0.55-1.13-0.55
		c-0.98,0-1.47,0.64-1.47,1.92v3.59h-1.94V71.41z"/>
	<path fill="#5A5A5A" d="M210.63,73.09v5.25h-1.94v-5.25h-0.77v-1.68h0.77v-2.37h1.94v2.37h1.38v1.68H210.63z"/>
	<path fill="#5A5A5A" d="M215.05,78.34h-1.94v-6.93h1.94v1.05c0.48-0.85,1.15-1.28,2.02-1.27c0.27,0,0.55,0.05,0.84,0.17l-0.27,1.8
		c-0.29-0.16-0.59-0.24-0.92-0.23c-1.11,0-1.66,0.7-1.66,2.08V78.34z"/>
	<path fill="#5A5A5A" d="M225.64,75.19h-5.2c0.05,1.24,0.62,1.86,1.7,1.85c0.67,0,1.22-0.31,1.65-0.93l1.79,0.29
		c-0.6,1.44-1.73,2.16-3.39,2.16c-1.13,0-2.03-0.34-2.71-1.01s-1.02-1.56-1.02-2.68s0.33-2.01,0.99-2.68s1.54-1.01,2.64-1.01
		s1.97,0.34,2.6,1s0.95,1.58,0.95,2.74V75.19z M220.51,73.95h3.28c-0.21-0.91-0.77-1.38-1.65-1.38
		C221.29,72.58,220.67,73.08,220.51,73.95z M224.3,68.03l-2.4,2.16l-0.93-0.64l1.91-2.42L224.3,68.03z"/>
	<path fill="#5A5A5A" d="M232.42,71.41h1.94v6.93h-1.94v-0.9c-0.6,0.74-1.37,1.12-2.31,1.12s-1.74-0.35-2.39-1.05
		s-0.98-1.58-0.98-2.62s0.33-1.92,0.98-2.63s1.44-1.06,2.36-1.06s1.7,0.38,2.34,1.12V71.41z M230.7,72.93
		c-0.55,0-1.01,0.19-1.38,0.56c-0.38,0.38-0.57,0.84-0.57,1.38s0.19,1,0.57,1.38c0.38,0.38,0.84,0.57,1.37,0.57s0.99-0.19,1.38-0.57
		c0.38-0.38,0.57-0.83,0.57-1.37s-0.19-0.99-0.55-1.38C231.7,73.12,231.23,72.93,230.7,72.93z"/>
	<path fill="#5A5A5A" d="M238.15,66.35v11.98h-1.94V66.35H238.15z"/>
	<path fill="#5A5A5A" d="M248.43,70.7c0.61,0,1.13,0.22,1.56,0.66s0.65,0.96,0.65,1.57s-0.22,1.12-0.65,1.55s-0.95,0.65-1.56,0.65
		s-1.13-0.22-1.57-0.65s-0.66-0.95-0.66-1.56s0.22-1.14,0.66-1.57S247.82,70.7,248.43,70.7z"/>
	<path fill="#5A5A5A" d="M258.4,78.34l1.98-10.87h1.42l2.91,6.98l3.02-6.98h1.44l1.78,10.87h-2.1l-0.96-6.58l-2.92,6.72h-0.58
		l-2.84-6.72l-1.07,6.58H258.4z"/>
	<path fill="#5A5A5A" d="M276.17,71.19c1.16,0,2.11,0.34,2.84,1.02s1.09,1.57,1.09,2.66s-0.37,1.98-1.1,2.66
		c-0.74,0.68-1.7,1.02-2.88,1.02s-2.12-0.35-2.85-1.05s-1.09-1.58-1.09-2.66s0.38-1.97,1.12-2.65S275.01,71.19,276.17,71.19z
		 M276.15,72.93c-0.54,0-1,0.19-1.38,0.56s-0.58,0.84-0.58,1.38s0.19,1,0.57,1.38c0.38,0.38,0.84,0.57,1.38,0.57
		s1.01-0.19,1.39-0.57c0.38-0.38,0.57-0.83,0.57-1.37s-0.19-0.99-0.57-1.38S276.69,72.93,276.15,72.93z"/>
	<path fill="#5A5A5A" d="M281.59,71.41h1.94v0.87c0.59-0.79,1.23-1.09,2.17-1.09c0.85,0,1.52,0.27,2.02,0.83
		c0.37,0.41,0.55,1.05,0.55,1.92v4.4h-1.94v-3.84c0-0.53-0.06-0.91-0.2-1.12c-0.2-0.37-0.58-0.55-1.13-0.55
		c-0.98,0-1.47,0.64-1.47,1.92v3.59h-1.94V71.41z"/>
	<path fill="#5A5A5A" d="M292.07,73.09v5.25h-1.94v-5.25h-0.77v-1.68h0.77v-2.37h1.94v2.37h1.38v1.68H292.07z"/>
	<path fill="#5A5A5A" d="M296.49,78.34h-1.94v-6.93h1.94v1.05c0.48-0.85,1.15-1.28,2.02-1.27c0.27,0,0.55,0.05,0.84,0.17l-0.27,1.8
		c-0.29-0.16-0.59-0.24-0.92-0.23c-1.11,0-1.66,0.7-1.66,2.08V78.34z"/>
	<path fill="#5A5A5A" d="M307.08,75.19h-5.2c0.05,1.24,0.62,1.86,1.7,1.85c0.67,0,1.22-0.31,1.65-0.93l1.79,0.29
		c-0.6,1.44-1.73,2.16-3.39,2.16c-1.13,0-2.03-0.34-2.71-1.01s-1.02-1.56-1.02-2.68s0.33-2.01,0.99-2.68s1.54-1.01,2.64-1.01
		s1.97,0.34,2.6,1s0.95,1.58,0.95,2.74V75.19z M301.95,73.95h3.28c-0.21-0.91-0.77-1.38-1.65-1.38
		C302.73,72.58,302.11,73.08,301.95,73.95z"/>
	<path fill="#5A5A5A" d="M313.86,71.41h1.94v6.93h-1.94v-0.9c-0.6,0.74-1.37,1.12-2.31,1.12s-1.74-0.35-2.39-1.05
		s-0.98-1.58-0.98-2.62s0.33-1.92,0.98-2.63s1.44-1.06,2.36-1.06s1.7,0.38,2.34,1.12V71.41z M312.13,72.93
		c-0.55,0-1.01,0.19-1.38,0.56c-0.38,0.38-0.57,0.84-0.57,1.38s0.19,1,0.57,1.38c0.38,0.38,0.84,0.57,1.37,0.57s0.99-0.19,1.38-0.57
		c0.38-0.38,0.57-0.83,0.57-1.37s-0.19-0.99-0.55-1.38C313.13,73.12,312.67,72.93,312.13,72.93z"/>
	<path fill="#5A5A5A" d="M319.59,66.35v11.98h-1.94V66.35H319.59z"/>
	<path fill="#5A5A5A" d="M329.87,70.7c0.61,0,1.13,0.22,1.56,0.66s0.65,0.96,0.65,1.57s-0.22,1.12-0.65,1.55s-0.95,0.65-1.56,0.65
		s-1.13-0.22-1.57-0.65s-0.66-0.95-0.66-1.56s0.22-1.14,0.66-1.57S329.26,70.7,329.87,70.7z"/>
</g>
</svg>
