<?xml version="1.0" encoding="iso-8859-1"?>
<!-- Generator: Adobe Illustrator 29.8.4, SVG Export Plug-In . SVG Version: 9.03 Build 0)  -->
<svg version="1.1" id="Layer_1" xmlns="http://www.w3.org/2000/svg" xmlns:xlink="http://www.w3.org/1999/xlink" x="0px" y="0px"
	 viewBox="0 0 1600 242" enable-background="new 0 0 1600 242" xml:space="preserve">
<rect id="bg-white" fill="#FFFFFF" width="1600" height="242"/>
<line fill="none" stroke="#84BD00" stroke-width="8" stroke-linecap="round" stroke-miterlimit="10" x1="100" y1="207" x2="1500" y2="207"/>
<circle fill="#FFFFFF" stroke="#000000" stroke-width="3" stroke-miterlimit="10" cx="100" cy="207" r="10"/>
<g>
	<path d="M100.64,185.55l1.34-5c1.44,0.39,2.47,0.88,3.09,1.44c1.6,1.39,2.17,3.36,1.59,5.53c-0.45,1.66-1.35,2.89-2.71,3.69
		c-1.36,0.8-2.87,0.98-4.53,0.53c-1.66-0.44-2.88-1.36-3.68-2.75c-0.8-1.39-0.97-2.92-0.52-4.61c0.56-2.08,1.83-3.42,3.84-4.01
		l0.5,2.14c-1.26,0.37-2.06,1.17-2.39,2.4c-0.28,1.04-0.15,1.99,0.39,2.86s1.35,1.46,2.44,1.75c1.09,0.29,2.08,0.2,2.97-0.3
		s1.47-1.25,1.75-2.28c0.21-0.78,0.18-1.48-0.11-2.13c-0.28-0.64-0.76-1.1-1.44-1.36l-0.69,2.57L100.64,185.55z"/>
	<path d="M102.66,173.03l0.53-1.99l7.11,1.91l-0.53,1.99l-0.92-0.25c0.6,0.82,0.77,1.71,0.51,2.68c-0.26,0.97-0.84,1.69-1.74,2.16
		c-0.9,0.47-1.89,0.57-2.95,0.28c-1.07-0.29-1.88-0.87-2.43-1.73c-0.55-0.86-0.7-1.77-0.44-2.71c0.25-0.95,0.85-1.64,1.79-2.1
		L102.66,173.03z M103.75,175.22c-0.15,0.56-0.08,1.09,0.2,1.57c0.28,0.5,0.7,0.82,1.25,0.96s1.08,0.08,1.57-0.21
		c0.5-0.29,0.82-0.7,0.96-1.25c0.15-0.55,0.08-1.07-0.21-1.57c-0.28-0.5-0.69-0.81-1.25-0.96c-0.55-0.15-1.07-0.08-1.56,0.19
		C104.21,174.25,103.89,174.67,103.75,175.22z"/>
	<path d="M111.34,169.06l-0.53,1.99l-7.11-1.91l0.53-1.99l1.08,0.29c-0.74-0.72-1-1.53-0.75-2.42c0.08-0.28,0.21-0.55,0.41-0.82
		l1.78,0.78c-0.25,0.25-0.41,0.54-0.49,0.88c-0.3,1.14,0.26,1.9,1.68,2.28L111.34,169.06z"/>
	<path d="M111.02,157.33l-1.43,5.33c1.29,0.29,2.08-0.12,2.37-1.23c0.18-0.69,0.01-1.34-0.5-1.95l0.79-1.76
		c1.31,1.01,1.74,2.36,1.29,4.07c-0.31,1.16-0.9,1.99-1.78,2.5c-0.88,0.51-1.88,0.61-3.03,0.31c-1.15-0.31-1.97-0.89-2.48-1.75
		c-0.51-0.87-0.61-1.86-0.31-2.99s0.89-1.93,1.74-2.4c0.86-0.47,1.88-0.54,3.08-0.21L111.02,157.33z M108.34,162.26l0.9-3.37
		c-1-0.03-1.62,0.41-1.86,1.31C107.15,161.08,107.49,161.85,108.34,162.26z"/>
	<path d="M112.25,145.93c-0.55,0.41-0.9,0.9-1.05,1.47s-0.09,1.09,0.18,1.59c0.27,0.49,0.69,0.81,1.27,0.97
		c0.58,0.16,1.1,0.09,1.58-0.2c0.48-0.29,0.8-0.72,0.96-1.3c0.16-0.58,0.11-1.17-0.15-1.78l1.93,0.52c0.14,0.67,0.12,1.3-0.04,1.94
		c-0.3,1.11-0.9,1.93-1.83,2.48c-0.91,0.55-1.91,0.68-2.98,0.4c-1.07-0.29-1.87-0.91-2.41-1.85c-0.53-0.94-0.65-1.97-0.35-3.08
		c0.17-0.65,0.48-1.21,0.91-1.69L112.25,145.93z"/>
	<path d="M116.23,137.88l-1.43,5.33c1.29,0.29,2.08-0.12,2.37-1.23c0.18-0.69,0.01-1.34-0.5-1.95l0.79-1.76
		c1.31,1.01,1.74,2.37,1.29,4.08c-0.31,1.16-0.9,1.99-1.78,2.5c-0.88,0.51-1.88,0.61-3.03,0.3c-1.15-0.31-1.97-0.89-2.48-1.75
		c-0.51-0.87-0.61-1.86-0.31-2.99c0.3-1.13,0.89-1.93,1.74-2.4c0.86-0.47,1.88-0.54,3.08-0.22L116.23,137.88z M113.56,142.81
		l0.9-3.37c-1-0.04-1.62,0.41-1.86,1.31C112.36,141.63,112.7,142.4,113.56,142.81z"/>
	<path d="M112.76,135.33l0.53-1.99l0.89,0.24c-0.65-0.83-0.78-1.57-0.52-2.53c0.23-0.87,0.7-1.49,1.41-1.84
		c0.53-0.26,1.23-0.27,2.12-0.03l4.51,1.21l-0.53,1.99l-3.95-1.06c-0.54-0.15-0.95-0.19-1.2-0.11c-0.43,0.11-0.72,0.44-0.87,1.01
		c-0.27,1,0.25,1.68,1.57,2.04l3.68,0.99l-0.53,1.99L112.76,135.33z"/>
	<path d="M117.36,125.04l5.39,1.44l-0.53,1.99l-5.39-1.44l-0.21,0.79l-1.72-0.46l0.21-0.79l-2.43-0.65l0.53-1.99l2.43,0.65
		l0.38-1.41l1.72,0.46L117.36,125.04z"/>
	<path d="M123.97,121.95l-0.53,1.99l-7.11-1.91l0.53-1.99l1.08,0.29c-0.74-0.72-1-1.53-0.75-2.42c0.08-0.28,0.21-0.55,0.41-0.82
		l1.78,0.78c-0.25,0.25-0.41,0.54-0.49,0.88c-0.3,1.14,0.26,1.9,1.68,2.28L123.97,121.95z"/>
	<path d="M119.35,110.73l0.53-1.99l7.11,1.91l-0.53,1.99l-0.92-0.25c0.6,0.82,0.77,1.71,0.51,2.68s-0.84,1.69-1.74,2.16
		c-0.9,0.47-1.89,0.57-2.95,0.28c-1.07-0.29-1.88-0.87-2.43-1.73c-0.55-0.86-0.69-1.77-0.44-2.71c0.25-0.95,0.85-1.64,1.79-2.1
		L119.35,110.73z M120.44,112.92c-0.15,0.56-0.08,1.08,0.2,1.57c0.28,0.5,0.7,0.82,1.25,0.96c0.55,0.15,1.08,0.08,1.57-0.21
		c0.5-0.29,0.82-0.7,0.96-1.25c0.15-0.54,0.08-1.07-0.21-1.57c-0.28-0.5-0.69-0.81-1.25-0.96c-0.55-0.15-1.07-0.08-1.56,0.19
		C120.91,111.95,120.59,112.37,120.44,112.92z"/>
	<path d="M115.74,103.46l12.3,3.3l-0.53,1.99l-12.3-3.3L115.74,103.46z"/>
	<path d="M127.19,97l-1.43,5.33c1.29,0.29,2.08-0.12,2.37-1.23c0.18-0.69,0.01-1.34-0.5-1.95l0.79-1.76
		c1.31,1.01,1.74,2.37,1.29,4.07c-0.31,1.16-0.9,1.99-1.78,2.51c-0.88,0.51-1.88,0.61-3.03,0.3c-1.15-0.31-1.97-0.89-2.48-1.75
		s-0.61-1.86-0.31-2.99c0.3-1.13,0.89-1.93,1.74-2.39c0.86-0.47,1.88-0.54,3.08-0.22L127.19,97z M124.51,101.93l0.9-3.37
		c-1-0.04-1.62,0.41-1.87,1.31C123.31,100.75,123.66,101.52,124.51,101.93z"/>
</g>
<circle fill="#FFFFFF" stroke="#000000" stroke-width="3" stroke-miterlimit="10" cx="450" cy="207" r="10"/>
<g>
	<path d="M443.26,190.43l-1.57-3.17l2.96-1.98l0.71,1.28l-1.9,1.18l1.05,1.98L443.26,190.43z M446.23,187.32l10.95,2.93l-0.57,2.13
		l-10.95-2.93L446.23,187.32z"/>
	<path d="M446,182.77l12.3,3.29l-0.53,1.99l-12.3-3.29L446,182.77z"/>
	<path d="M457.45,176.31l-1.43,5.33c1.29,0.29,2.08-0.12,2.37-1.23c0.18-0.69,0.01-1.34-0.5-1.95l0.79-1.76
		c1.31,1.01,1.74,2.37,1.29,4.08c-0.31,1.16-0.9,1.99-1.78,2.5c-0.88,0.51-1.88,0.61-3.03,0.31c-1.15-0.31-1.97-0.89-2.48-1.75
		c-0.51-0.87-0.61-1.86-0.31-2.99c0.3-1.13,0.89-1.93,1.74-2.39c0.86-0.47,1.88-0.54,3.08-0.22L457.45,176.31z M454.78,181.24
		l0.9-3.37c-1-0.04-1.62,0.41-1.87,1.31C453.58,180.06,453.92,180.83,454.78,181.24z"/>
	<path d="M456.43,174.68l0.99-3.7l1.65,0.44l-0.99,3.7L456.43,174.68z"/>
	<path d="M451.43,162.53l0.53-1.99l12.3,3.3l-0.53,1.99l-0.92-0.25c0.6,0.82,0.77,1.71,0.51,2.68c-0.26,0.97-0.84,1.69-1.74,2.16
		c-0.9,0.47-1.89,0.57-2.95,0.28c-1.07-0.29-1.88-0.87-2.43-1.73c-0.55-0.86-0.7-1.77-0.44-2.71c0.25-0.95,0.85-1.64,1.79-2.1
		L451.43,162.53z M457.7,166.11c-0.15,0.56-0.08,1.08,0.2,1.57c0.28,0.5,0.7,0.82,1.25,0.96c0.55,0.15,1.08,0.08,1.57-0.21
		c0.5-0.29,0.81-0.7,0.96-1.25c0.15-0.54,0.08-1.07-0.21-1.57c-0.28-0.5-0.69-0.81-1.25-0.96c-0.55-0.15-1.07-0.08-1.56,0.19
		C458.17,165.13,457.85,165.55,457.7,166.11z"/>
	<path d="M463.41,154.08l-1.43,5.33c1.29,0.29,2.08-0.12,2.37-1.23c0.19-0.69,0.02-1.34-0.5-1.95l0.79-1.76
		c1.31,1.01,1.74,2.37,1.29,4.07c-0.31,1.16-0.9,1.99-1.78,2.51c-0.88,0.51-1.88,0.61-3.03,0.3c-1.15-0.31-1.97-0.89-2.48-1.75
		c-0.51-0.87-0.61-1.86-0.31-2.99c0.3-1.13,0.89-1.93,1.74-2.39c0.86-0.47,1.88-0.54,3.08-0.22L463.41,154.08z M460.73,159l0.9-3.37
		c-1-0.03-1.62,0.41-1.86,1.31C459.54,157.82,459.88,158.59,460.73,159z"/>
	<path d="M462.61,148.2c-0.42,0.33-0.68,0.64-0.76,0.94c-0.08,0.3-0.08,0.53-0.01,0.71c0.08,0.18,0.21,0.3,0.37,0.34
		s0.32,0.01,0.47-0.12c0.15-0.12,0.38-0.44,0.72-0.94c0.34-0.5,0.64-0.87,0.92-1.08c0.5-0.42,1.11-0.55,1.82-0.35
		c0.71,0.19,1.24,0.63,1.56,1.31c0.33,0.69,0.38,1.48,0.14,2.35c-0.29,1.07-0.92,1.87-1.91,2.38l-0.93-1.37
		c0.7-0.4,1.13-0.89,1.29-1.46c0.13-0.5-0.11-1-0.54-1.12c-0.22-0.06-0.39-0.04-0.54,0.07c-0.14,0.11-0.39,0.42-0.76,0.94
		c-0.36,0.52-0.66,0.87-0.88,1.04c-0.46,0.38-1.01,0.49-1.67,0.31c-0.67-0.18-1.14-0.56-1.43-1.16c-0.3-0.59-0.33-1.29-0.12-2.09
		s0.67-1.47,1.36-2.02L462.61,148.2z"/>
	<path d="M464.09,146.08l0.99-3.7l1.65,0.44l-0.99,3.7L464.09,146.08z"/>
	<path d="M462.49,137.8c0.31,0.08,0.6,0.04,0.85-0.14c0.25-0.18,0.66-0.65,1.21-1.42c0.55-0.77,1.04-1.3,1.49-1.6
		c0.72-0.5,1.59-0.61,2.62-0.34c1.04,0.28,1.79,0.86,2.27,1.73c0.48,0.88,0.57,1.89,0.26,3.03c-0.42,1.55-1.45,2.61-3.09,3.2
		l-0.96-1.74c1.11-0.25,1.8-0.88,2.07-1.9c0.13-0.49,0.1-0.94-0.11-1.33c-0.21-0.39-0.53-0.65-0.99-0.77s-0.87-0.03-1.25,0.29
		c-0.19,0.15-0.57,0.64-1.14,1.46c-0.57,0.82-1.14,1.37-1.69,1.66c-0.55,0.29-1.19,0.33-1.91,0.14c-0.92-0.25-1.6-0.77-2.02-1.58
		c-0.43-0.81-0.51-1.7-0.25-2.69c0.33-1.22,1.02-2.18,2.08-2.9l1.16,1.51c-0.73,0.36-1.19,0.88-1.36,1.54
		c-0.12,0.44-0.1,0.83,0.06,1.19C461.93,137.5,462.17,137.72,462.49,137.8z"/>
	<path d="M471.2,125.01c1.23,0.24,2.12-0.24,2.4-1.29c0.19-0.72,0.01-1.36-0.54-1.92l0.81-1.75c1.32,0.99,1.74,2.37,1.28,4.12
		c-0.32,1.21-1.03,2.03-2.13,2.44c0.38,0.58,0.62,1.13,0.71,1.63c0.09,0.5,0.04,1.09-0.13,1.74c-0.31,1.14-0.91,1.98-1.82,2.53
		c-0.9,0.55-1.9,0.68-3,0.38c-1.09-0.29-1.9-0.91-2.42-1.85c-0.52-0.94-0.62-2-0.31-3.18c0.32-1.18,1.01-2.03,2.07-2.57
		c-0.69-0.88-0.88-1.92-0.55-3.12c0.23-0.87,0.64-1.56,1.22-2.06c0.58-0.49,1.26-0.74,2.07-0.75c0.54-0.01,1.15,0.08,1.81,0.25
		L471.2,125.01z M467.83,128.36c-0.14,0.54-0.08,1.04,0.2,1.51c0.28,0.48,0.69,0.79,1.25,0.94c0.55,0.15,1.08,0.09,1.57-0.17
		c0.49-0.26,0.81-0.66,0.96-1.21c0.15-0.54,0.08-1.05-0.22-1.54c-0.29-0.47-0.71-0.78-1.26-0.93c-0.55-0.15-1.08-0.09-1.55,0.19
		C468.29,127.42,467.98,127.83,467.83,128.36z M470.86,121.19c-1-0.01-1.63,0.42-1.86,1.31s0.08,1.59,0.95,2.1L470.86,121.19z"/>
	<path d="M469.71,115.05l4.03,1.08c1.08,0.29,1.76-0.04,2.02-1.01c0.26-0.97-0.16-1.6-1.24-1.89l-4.03-1.08l0.53-1.99l4.35,1.17
		c1.92,0.52,2.66,2.02,2.07,4.23s-1.99,3.16-3.91,2.65l-4.35-1.17L469.71,115.05z"/>
	<path d="M479.17,108.18l-0.53,1.99l-7.11-1.91l0.53-1.99l1.08,0.29c-0.74-0.72-1-1.53-0.75-2.42c0.08-0.28,0.21-0.55,0.41-0.82
		l1.78,0.78c-0.25,0.25-0.41,0.54-0.49,0.88c-0.3,1.14,0.26,1.9,1.68,2.28L479.17,108.18z"/>
	<path d="M475.79,98.97c-0.42,0.33-0.68,0.64-0.76,0.94c-0.08,0.3-0.08,0.53-0.01,0.71c0.08,0.18,0.21,0.3,0.37,0.34
		s0.32,0.01,0.47-0.12c0.14-0.12,0.38-0.44,0.72-0.94c0.34-0.5,0.65-0.87,0.92-1.08c0.5-0.42,1.11-0.54,1.82-0.35
		c0.71,0.19,1.24,0.63,1.57,1.31c0.33,0.69,0.38,1.48,0.14,2.35c-0.29,1.07-0.92,1.87-1.91,2.38l-0.93-1.37
		c0.7-0.41,1.13-0.89,1.28-1.46c0.14-0.5-0.11-1-0.54-1.11c-0.22-0.06-0.39-0.04-0.54,0.07c-0.14,0.11-0.4,0.42-0.76,0.94
		c-0.36,0.52-0.65,0.87-0.88,1.04c-0.46,0.38-1.01,0.49-1.67,0.31c-0.67-0.18-1.14-0.56-1.43-1.16c-0.3-0.59-0.33-1.28-0.12-2.09
		s0.67-1.47,1.36-2.02L475.79,98.97z"/>
</g>
<circle fill="#FFFFFF" stroke="#000000" stroke-width="3" stroke-miterlimit="10" cx="800" cy="207" r="10"/>
<g>
	<path d="M801.54,189.41l4.06,1.09l-0.57,2.13l-10.95-2.93l0.86-3.2c0.19-0.71,0.41-1.27,0.64-1.67c0.24-0.4,0.57-0.73,0.97-1
		c0.87-0.57,1.83-0.71,2.86-0.43s1.79,0.81,2.28,1.58s0.56,1.79,0.22,3.05L801.54,189.41z M799.69,188.92l0.23-0.87
		c0.36-1.34,0.01-2.15-1.04-2.43c-1.11-0.3-1.77,0.2-2.18,1.7l-0.2,0.74L799.69,188.92z"/>
	<path d="M801.56,177.12l0.53-1.99l7.11,1.91l-0.53,1.99l-0.92-0.25c0.6,0.82,0.77,1.71,0.51,2.68c-0.26,0.97-0.84,1.69-1.74,2.16
		c-0.9,0.47-1.89,0.57-2.95,0.28c-1.07-0.29-1.88-0.87-2.43-1.73c-0.55-0.86-0.7-1.77-0.44-2.71c0.25-0.95,0.85-1.64,1.79-2.1
		L801.56,177.12z M802.65,179.31c-0.15,0.56-0.08,1.08,0.2,1.57c0.28,0.5,0.7,0.82,1.25,0.96c0.55,0.15,1.08,0.08,1.57-0.21
		c0.5-0.29,0.82-0.7,0.96-1.25c0.15-0.54,0.08-1.07-0.21-1.57c-0.28-0.5-0.69-0.81-1.25-0.96c-0.55-0.15-1.07-0.08-1.56,0.19
		C803.12,178.34,802.8,178.76,802.65,179.31z"/>
	<path d="M802.6,173.23l0.53-1.99l0.89,0.24c-0.65-0.83-0.78-1.57-0.52-2.53c0.23-0.87,0.7-1.49,1.41-1.84
		c0.53-0.26,1.23-0.27,2.12-0.03l4.51,1.21l-0.53,1.99l-3.95-1.06c-0.54-0.15-0.95-0.19-1.2-0.11c-0.43,0.11-0.72,0.44-0.87,1.01
		c-0.27,1,0.25,1.68,1.57,2.04l3.68,0.99l-0.53,1.99L802.6,173.23z"/>
	<path d="M806.41,159.03l0.53-1.99l7.11,1.91l-0.53,1.99l-0.92-0.25c0.6,0.82,0.77,1.71,0.51,2.68c-0.26,0.97-0.84,1.69-1.74,2.16
		c-0.9,0.47-1.89,0.57-2.95,0.28c-1.07-0.29-1.88-0.87-2.43-1.73c-0.55-0.86-0.7-1.77-0.44-2.71c0.25-0.95,0.85-1.65,1.79-2.1
		L806.41,159.03z M807.5,161.22c-0.15,0.56-0.08,1.09,0.2,1.57c0.28,0.5,0.7,0.82,1.25,0.96s1.08,0.08,1.57-0.21
		c0.5-0.29,0.81-0.7,0.96-1.25c0.15-0.54,0.08-1.07-0.21-1.57c-0.28-0.5-0.69-0.81-1.25-0.96c-0.55-0.15-1.07-0.08-1.56,0.19
		C807.96,160.25,807.64,160.67,807.5,161.22z"/>
	<path d="M812.66,149.54l3.65,0.98l-0.53,1.99l-3.78-1.01c-0.55-0.15-0.96-0.21-1.2-0.18c-0.24,0.03-0.45,0.13-0.64,0.29
		c-0.18,0.17-0.3,0.37-0.36,0.59c-0.12,0.45,0.02,0.98,0.4,1.36c0.19,0.19,0.61,0.37,1.24,0.53l3.65,0.98l-0.53,1.99l-7.11-1.91
		l0.53-1.99l0.83,0.22c-0.53-0.8-0.68-1.65-0.44-2.55c0.24-0.9,0.86-1.49,1.86-1.76c-0.72-0.79-0.95-1.66-0.69-2.62
		c0.25-0.95,0.78-1.54,1.58-1.78c0.48-0.14,1.08-0.12,1.83,0.08l4.59,1.23l-0.53,1.99l-3.89-1.04c-0.51-0.14-0.91-0.18-1.18-0.15
		c-0.47,0.07-0.76,0.35-0.89,0.83C810.78,148.54,811.33,149.18,812.66,149.54z"/>
	<path d="M812.38,136.73l0.53-1.99l7.11,1.91l-0.53,1.99l-0.92-0.25c0.6,0.82,0.77,1.71,0.51,2.68s-0.84,1.69-1.74,2.16
		c-0.9,0.47-1.89,0.57-2.95,0.28c-1.07-0.29-1.88-0.87-2.43-1.73c-0.55-0.86-0.7-1.77-0.44-2.71s0.85-1.64,1.79-2.1L812.38,136.73z
		 M813.47,138.92c-0.15,0.56-0.08,1.08,0.2,1.57c0.28,0.5,0.7,0.82,1.25,0.96c0.55,0.15,1.08,0.08,1.57-0.21
		c0.5-0.29,0.81-0.7,0.96-1.25s0.08-1.07-0.21-1.57c-0.28-0.5-0.69-0.81-1.25-0.96c-0.55-0.15-1.07-0.08-1.56,0.19
		C813.94,137.94,813.62,138.36,813.47,138.92z"/>
</g>
<circle fill="#FFFFFF" stroke="#000000" stroke-width="3" stroke-miterlimit="10" cx="1150" cy="207" r="10"/>
<g>
	<path d="M1155.03,192.63l-10.95-2.93l0.84-3.13c0.43-1.6,1.2-2.79,2.32-3.58c0.67-0.48,1.42-0.8,2.25-0.94
		c0.83-0.15,1.65-0.11,2.47,0.11c0.82,0.22,1.55,0.6,2.2,1.15c0.65,0.55,1.15,1.21,1.49,1.97c0.58,1.22,0.65,2.63,0.22,4.24
		L1155.03,192.63z M1153.75,190l0.15-0.58c0.35-1.31,0.32-2.35-0.09-3.15c-0.45-0.92-1.39-1.64-2.44-1.93
		c-1.11-0.3-2.13-0.15-3.04,0.46c-0.77,0.5-1.33,1.39-1.67,2.68l-0.15,0.58L1153.75,190z"/>
	<path d="M1151.31,178.07l4.03,1.08c1.08,0.29,1.76-0.04,2.02-1.01c0.26-0.97-0.16-1.6-1.24-1.89l-4.03-1.08l0.53-1.99l4.35,1.17
		c1.92,0.52,2.66,2.02,2.07,4.23s-1.99,3.16-3.91,2.65l-4.35-1.17L1151.31,178.07z"/>
	<path d="M1155.81,167.86c-1.61-0.43-2.82-1.37-3.62-2.8s-0.98-2.98-0.54-4.64c0.45-1.66,1.37-2.9,2.78-3.73
		c1.41-0.83,2.92-1.03,4.54-0.6c1.42,0.38,2.59,1.24,3.49,2.59l2.24-1.3l-0.37,2.2l-1.24,0.64c0.3,1.05,0.3,2.13,0.02,3.24
		c-0.45,1.68-1.37,2.93-2.77,3.78C1158.93,168.09,1157.42,168.29,1155.81,167.86z M1160.44,159.75c-0.48-0.74-1.22-1.24-2.2-1.5
		c-0.99-0.26-1.93-0.14-2.85,0.38c-0.91,0.52-1.51,1.3-1.79,2.33c-0.28,1.04-0.15,2.01,0.39,2.91c0.54,0.91,1.34,1.5,2.42,1.79
		s2.06,0.17,2.96-0.33c0.9-0.51,1.48-1.27,1.76-2.3c0.17-0.62,0.16-1.18-0.02-1.7l-2.64,1.56l0.41-2.26L1160.44,159.75z"/>
	<path d="M1158.31,151.91l4.03,1.08c1.08,0.29,1.76-0.04,2.02-1.01c0.26-0.97-0.16-1.6-1.24-1.89l-4.03-1.08l0.53-1.99l4.35,1.17
		c1.92,0.52,2.66,2.02,2.07,4.23s-1.99,3.16-3.91,2.65l-4.35-1.17L1158.31,151.91z"/>
	<path d="M1161.6,139.67l0.53-1.99l7.11,1.91l-0.53,1.99l-0.92-0.25c0.6,0.82,0.77,1.71,0.51,2.68c-0.26,0.97-0.84,1.69-1.74,2.16
		c-0.9,0.47-1.89,0.57-2.95,0.28c-1.07-0.29-1.88-0.87-2.43-1.73c-0.55-0.86-0.7-1.77-0.44-2.71c0.25-0.95,0.85-1.65,1.79-2.1
		L1161.6,139.67z M1162.68,141.86c-0.15,0.56-0.08,1.09,0.2,1.57c0.28,0.5,0.7,0.82,1.25,0.96c0.55,0.15,1.08,0.08,1.57-0.21
		c0.5-0.29,0.82-0.7,0.96-1.25c0.15-0.54,0.08-1.07-0.21-1.57c-0.28-0.5-0.69-0.81-1.25-0.96c-0.55-0.15-1.07-0.08-1.56,0.19
		C1163.15,140.88,1162.83,141.31,1162.68,141.86z"/>
	<path d="M1170.28,135.7l-0.53,1.99l-7.11-1.91l0.53-1.99l1.08,0.29c-0.74-0.72-1-1.53-0.75-2.42c0.08-0.28,0.21-0.55,0.41-0.82
		l1.78,0.78c-0.25,0.25-0.41,0.54-0.49,0.88c-0.3,1.14,0.26,1.9,1.68,2.28L1170.28,135.7z"/>
	<path d="M1166.6,127.87l5.39,1.44l-0.53,1.99l-5.39-1.44l-0.21,0.79l-1.72-0.46l0.21-0.79l-2.43-0.65l0.53-1.99l2.43,0.65
		l0.38-1.41l1.72,0.46L1166.6,127.87z"/>
	<path d="M1161.62,122.76c0.09-0.33,0.28-0.58,0.57-0.75c0.29-0.17,0.61-0.21,0.93-0.12c0.33,0.09,0.59,0.29,0.76,0.58
		c0.18,0.3,0.22,0.62,0.13,0.95c-0.09,0.33-0.28,0.58-0.58,0.75c-0.29,0.17-0.62,0.21-0.94,0.12c-0.33-0.09-0.59-0.29-0.75-0.59
		C1161.57,123.4,1161.54,123.08,1161.62,122.76z M1166.09,122.91l7.11,1.91l-0.53,1.98l-7.11-1.91L1166.09,122.91z"/>
	<path d="M1172.34,115.08l-1.43,5.33c1.29,0.29,2.08-0.12,2.37-1.23c0.18-0.69,0.01-1.34-0.5-1.95l0.79-1.76
		c1.31,1.01,1.74,2.37,1.29,4.08c-0.31,1.16-0.9,1.99-1.78,2.5s-1.88,0.61-3.03,0.3c-1.15-0.31-1.97-0.89-2.48-1.75
		c-0.51-0.87-0.61-1.86-0.31-2.99c0.3-1.13,0.89-1.93,1.74-2.4s1.88-0.54,3.07-0.22L1172.34,115.08z M1169.67,120.01l0.9-3.37
		c-1-0.04-1.62,0.41-1.86,1.31C1168.47,118.83,1168.81,119.6,1169.67,120.01z"/>
	<path d="M1176.51,112.45l-0.53,1.99l-7.11-1.91l0.53-1.99l1.08,0.29c-0.74-0.72-1-1.53-0.75-2.42c0.07-0.28,0.21-0.55,0.41-0.82
		l1.78,0.78c-0.25,0.25-0.41,0.54-0.49,0.88c-0.3,1.14,0.26,1.9,1.67,2.28L1176.51,112.45z"/>
</g>
<circle fill="#FFFFFF" stroke="#000000" stroke-width="3" stroke-miterlimit="10" cx="1500" cy="207" r="10"/>
<g>
	<path d="M1505.03,192.63l-10.95-2.93l0.73-2.71c0.33-1.23,0.79-2.07,1.37-2.49c0.69-0.52,1.52-0.65,2.49-0.39
		c0.6,0.16,1.09,0.44,1.45,0.83c0.17,0.21,0.31,0.53,0.45,0.96c0.32-0.62,0.68-1.03,1.07-1.24c0.66-0.38,1.44-0.46,2.33-0.22
		c0.89,0.24,1.53,0.76,1.93,1.54c0.4,0.79,0.43,1.78,0.11,2.97L1505.03,192.63z M1499.21,188.79l0.16-0.61
		c0.3-1.11-0.03-1.79-0.98-2.04c-0.95-0.25-1.57,0.16-1.86,1.25l-0.17,0.64L1499.21,188.79z M1503.87,190.04l0.25-0.92
		c0.38-1.42,0.07-2.27-0.94-2.54c-0.55-0.15-1.02-0.04-1.39,0.32c-0.29,0.26-0.54,0.77-0.74,1.53l-0.21,0.8L1503.87,190.04z"/>
	<path d="M1507.98,181.6l-0.53,1.99l-7.11-1.91l0.53-1.99l1.08,0.29c-0.74-0.72-1-1.53-0.75-2.42c0.08-0.28,0.21-0.55,0.41-0.82
		l1.78,0.78c-0.25,0.25-0.41,0.54-0.49,0.88c-0.31,1.14,0.25,1.9,1.67,2.28L1507.98,181.6z"/>
	<path d="M1502.67,172.08c0.32-1.19,0.93-2.07,1.83-2.63c0.9-0.56,1.91-0.69,3.04-0.39c1.12,0.3,1.94,0.92,2.43,1.86
		c0.49,0.95,0.58,2.02,0.26,3.23c-0.32,1.21-0.94,2.08-1.86,2.64s-1.92,0.68-3.03,0.38c-1.11-0.3-1.92-0.93-2.41-1.88
		C1502.43,174.36,1502.35,173.28,1502.67,172.08z M1504.45,172.58c-0.15,0.55-0.08,1.08,0.2,1.57c0.28,0.5,0.7,0.82,1.25,0.97
		s1.08,0.08,1.57-0.21c0.5-0.29,0.82-0.71,0.96-1.26c0.15-0.55,0.08-1.09-0.2-1.58c-0.28-0.5-0.69-0.81-1.25-0.96
		c-0.55-0.15-1.07-0.08-1.57,0.21S1504.6,172.03,1504.45,172.58z"/>
	<path d="M1507.09,163.13c-0.42,0.33-0.68,0.64-0.76,0.94c-0.08,0.3-0.08,0.53-0.01,0.71c0.08,0.18,0.21,0.3,0.37,0.34
		s0.32,0.01,0.47-0.12c0.14-0.12,0.38-0.44,0.72-0.94c0.34-0.5,0.65-0.87,0.92-1.08c0.5-0.42,1.11-0.54,1.82-0.35
		c0.71,0.19,1.24,0.63,1.56,1.31c0.33,0.69,0.38,1.48,0.14,2.35c-0.29,1.07-0.92,1.87-1.91,2.38l-0.93-1.37
		c0.7-0.41,1.13-0.89,1.28-1.46c0.14-0.51-0.11-1-0.53-1.12c-0.22-0.06-0.39-0.04-0.54,0.07c-0.14,0.11-0.4,0.42-0.76,0.94
		c-0.36,0.52-0.65,0.87-0.88,1.04c-0.46,0.38-1.01,0.49-1.67,0.31c-0.67-0.18-1.14-0.56-1.43-1.16c-0.3-0.59-0.34-1.28-0.12-2.09
		s0.67-1.47,1.36-2.02L1507.09,163.13z"/>
	<path d="M1508.86,156.53c-0.42,0.33-0.68,0.64-0.76,0.94c-0.08,0.3-0.08,0.53-0.01,0.71c0.08,0.18,0.21,0.3,0.37,0.34
		s0.32,0.01,0.47-0.12c0.15-0.12,0.38-0.44,0.72-0.94c0.34-0.5,0.65-0.87,0.92-1.08c0.5-0.42,1.11-0.55,1.82-0.35
		s1.24,0.63,1.56,1.31c0.33,0.69,0.38,1.48,0.14,2.35c-0.29,1.07-0.92,1.87-1.91,2.38l-0.93-1.37c0.7-0.41,1.13-0.89,1.29-1.46
		c0.13-0.51-0.11-1-0.54-1.12c-0.22-0.06-0.39-0.04-0.54,0.07c-0.14,0.11-0.39,0.42-0.76,0.94c-0.36,0.52-0.66,0.87-0.88,1.04
		c-0.46,0.38-1.01,0.49-1.67,0.31c-0.66-0.18-1.14-0.56-1.43-1.16c-0.3-0.59-0.33-1.28-0.12-2.09s0.67-1.47,1.36-2.02
		L1508.86,156.53z"/>
	<path d="M1509.4,147.86l0.53-1.99l7.11,1.91l-0.53,1.99l-0.92-0.25c0.6,0.82,0.77,1.71,0.51,2.68c-0.26,0.97-0.84,1.69-1.74,2.16
		c-0.9,0.47-1.89,0.57-2.95,0.28c-1.07-0.29-1.88-0.87-2.43-1.73c-0.55-0.86-0.69-1.77-0.44-2.71c0.25-0.95,0.85-1.65,1.79-2.1
		L1509.4,147.86z M1510.49,150.05c-0.15,0.56-0.08,1.09,0.2,1.57c0.28,0.5,0.7,0.82,1.25,0.96c0.55,0.15,1.08,0.08,1.57-0.21
		c0.5-0.29,0.82-0.7,0.96-1.25c0.15-0.54,0.08-1.07-0.21-1.57c-0.28-0.5-0.69-0.81-1.25-0.96c-0.55-0.15-1.07-0.08-1.56,0.19
		C1510.96,149.08,1510.64,149.5,1510.49,150.05z"/>
	<path d="M1518.09,143.89l-0.53,1.99l-7.11-1.91l0.53-1.99l1.08,0.29c-0.74-0.72-1-1.53-0.75-2.42c0.08-0.28,0.21-0.55,0.41-0.82
		l1.78,0.78c-0.25,0.25-0.41,0.54-0.49,0.88c-0.3,1.14,0.26,1.9,1.67,2.28L1518.09,143.89z"/>
	<path d="M1508.28,131.29l0.53-1.99l12.3,3.3l-0.53,1.99l-0.92-0.25c0.6,0.82,0.77,1.71,0.51,2.68s-0.84,1.69-1.74,2.16
		c-0.9,0.47-1.89,0.57-2.95,0.28c-1.07-0.29-1.88-0.87-2.43-1.73c-0.55-0.86-0.7-1.77-0.44-2.71s0.85-1.64,1.79-2.1L1508.28,131.29z
		 M1514.56,134.87c-0.15,0.56-0.08,1.09,0.2,1.57c0.28,0.5,0.7,0.82,1.25,0.96c0.55,0.15,1.08,0.08,1.57-0.21
		c0.5-0.29,0.81-0.7,0.96-1.25c0.15-0.54,0.08-1.07-0.21-1.57c-0.28-0.5-0.69-0.81-1.25-0.96c-0.55-0.15-1.07-0.08-1.56,0.19
		C1515.03,133.89,1514.71,134.31,1514.56,134.87z"/>
</g>
<g>
	<path fill="#9B9B9B" d="M741.86,235.58v-7.16h3.17c0.64,0,1.12,0.06,1.46,0.19c0.33,0.13,0.6,0.36,0.8,0.68s0.3,0.69,0.3,1.08
		c0,0.51-0.16,0.94-0.49,1.28s-0.84,0.57-1.52,0.66c0.25,0.12,0.44,0.24,0.57,0.36c0.28,0.25,0.54,0.57,0.79,0.95l1.25,1.95h-1.19
		l-0.95-1.49c-0.28-0.43-0.5-0.76-0.68-0.99s-0.34-0.39-0.48-0.48s-0.29-0.15-0.43-0.19c-0.11-0.02-0.28-0.03-0.53-0.03h-1.1v3.18
		H741.86z M742.81,231.58h2.04c0.43,0,0.77-0.04,1.02-0.13c0.24-0.09,0.43-0.23,0.56-0.43c0.13-0.2,0.19-0.41,0.19-0.64
		c0-0.34-0.12-0.62-0.37-0.83s-0.63-0.33-1.16-0.33h-2.27V231.58z"/>
	<path fill="#9B9B9B" d="M752.34,234.94c-0.33,0.28-0.64,0.47-0.94,0.59s-0.62,0.17-0.97,0.17c-0.57,0-1.01-0.14-1.31-0.42
		c-0.31-0.28-0.46-0.63-0.46-1.07c0-0.25,0.06-0.49,0.17-0.7c0.12-0.21,0.27-0.38,0.45-0.51s0.4-0.22,0.63-0.29
		c0.17-0.05,0.43-0.09,0.78-0.13c0.71-0.08,1.23-0.19,1.57-0.3c0-0.12,0-0.2,0-0.23c0-0.36-0.08-0.61-0.25-0.76
		c-0.22-0.2-0.56-0.3-1-0.3c-0.41,0-0.72,0.07-0.92,0.22c-0.2,0.14-0.34,0.4-0.44,0.77l-0.86-0.12c0.08-0.37,0.21-0.67,0.39-0.89
		c0.18-0.23,0.44-0.4,0.78-0.52c0.34-0.12,0.73-0.18,1.18-0.18c0.44,0,0.8,0.05,1.08,0.16s0.48,0.24,0.61,0.39
		c0.13,0.16,0.22,0.36,0.27,0.6c0.03,0.15,0.04,0.42,0.04,0.81v1.17c0,0.82,0.02,1.33,0.06,1.55c0.04,0.22,0.11,0.42,0.22,0.62
		h-0.92C752.43,235.4,752.37,235.19,752.34,234.94z M752.27,232.98c-0.32,0.13-0.8,0.24-1.44,0.33c-0.36,0.05-0.62,0.11-0.77,0.18
		s-0.27,0.16-0.35,0.29c-0.08,0.12-0.12,0.26-0.12,0.42c0,0.23,0.09,0.43,0.27,0.59s0.44,0.23,0.78,0.23c0.34,0,0.64-0.07,0.9-0.22
		c0.26-0.15,0.46-0.35,0.58-0.61c0.09-0.2,0.14-0.49,0.14-0.88V232.98z"/>
	<path fill="#9B9B9B" d="M754.52,229.43v-1.01h0.88v1.01H754.52z M754.52,235.58v-5.19h0.88v5.19H754.52z"/>
	<path fill="#9B9B9B" d="M756.72,235.58v-7.16h0.88v7.16H756.72z"/>
	<path fill="#9B9B9B" d="M761.9,235.58v-7.16h4.83v0.84h-3.88v2.22h3.36v0.84h-3.36v3.25H761.9z"/>
	<path fill="#9B9B9B" d="M771.23,234.94c-0.33,0.28-0.64,0.47-0.94,0.59s-0.62,0.17-0.97,0.17c-0.57,0-1.01-0.14-1.31-0.42
		c-0.31-0.28-0.46-0.63-0.46-1.07c0-0.25,0.06-0.49,0.17-0.7c0.12-0.21,0.27-0.38,0.45-0.51s0.4-0.22,0.63-0.29
		c0.17-0.05,0.43-0.09,0.78-0.13c0.71-0.08,1.23-0.19,1.57-0.3c0-0.12,0-0.2,0-0.23c0-0.36-0.08-0.61-0.25-0.76
		c-0.22-0.2-0.56-0.3-1-0.3c-0.41,0-0.72,0.07-0.92,0.22c-0.2,0.14-0.34,0.4-0.44,0.77l-0.86-0.12c0.08-0.37,0.21-0.67,0.39-0.89
		c0.18-0.23,0.44-0.4,0.78-0.52c0.34-0.12,0.73-0.18,1.18-0.18c0.44,0,0.8,0.05,1.08,0.16s0.48,0.24,0.61,0.39
		c0.13,0.16,0.22,0.36,0.27,0.6c0.03,0.15,0.04,0.42,0.04,0.81v1.17c0,0.82,0.02,1.33,0.06,1.55c0.04,0.22,0.11,0.42,0.22,0.62
		h-0.92C771.32,235.4,771.26,235.19,771.23,234.94z M771.16,232.98c-0.32,0.13-0.8,0.24-1.44,0.33c-0.36,0.05-0.62,0.11-0.77,0.18
		s-0.27,0.16-0.35,0.29c-0.08,0.12-0.12,0.26-0.12,0.42c0,0.23,0.09,0.43,0.27,0.59s0.44,0.23,0.78,0.23c0.34,0,0.64-0.07,0.9-0.22
		c0.26-0.15,0.46-0.35,0.58-0.61c0.09-0.2,0.14-0.49,0.14-0.88V232.98z"/>
	<path fill="#9B9B9B" d="M773.41,235.58v-5.19h0.79v0.74c0.38-0.57,0.93-0.85,1.65-0.85c0.31,0,0.6,0.06,0.86,0.17
		c0.26,0.11,0.46,0.26,0.59,0.44s0.22,0.4,0.27,0.65c0.03,0.16,0.05,0.45,0.05,0.85v3.19h-0.88v-3.15c0-0.36-0.03-0.63-0.1-0.8
		c-0.07-0.18-0.19-0.32-0.36-0.43c-0.17-0.11-0.38-0.16-0.61-0.16c-0.37,0-0.7,0.12-0.97,0.36s-0.41,0.69-0.41,1.35v2.83H773.41z"/>
	<path fill="#9B9B9B" d="M778.62,234.03l0.87-0.14c0.05,0.35,0.18,0.62,0.41,0.8s0.53,0.28,0.94,0.28c0.4,0,0.7-0.08,0.9-0.25
		c0.2-0.17,0.29-0.36,0.29-0.58c0-0.2-0.09-0.35-0.26-0.47c-0.12-0.08-0.42-0.18-0.9-0.3c-0.64-0.16-1.09-0.3-1.34-0.42
		c-0.25-0.12-0.44-0.28-0.57-0.49c-0.13-0.21-0.19-0.44-0.19-0.7c0-0.23,0.05-0.45,0.16-0.64c0.11-0.2,0.25-0.36,0.43-0.49
		c0.14-0.1,0.32-0.19,0.56-0.26c0.24-0.07,0.49-0.11,0.76-0.11c0.41,0,0.76,0.06,1.07,0.18s0.53,0.28,0.68,0.48
		c0.15,0.2,0.25,0.47,0.3,0.8l-0.86,0.12c-0.04-0.27-0.15-0.48-0.34-0.62s-0.45-0.22-0.79-0.22c-0.4,0-0.69,0.07-0.86,0.2
		s-0.26,0.29-0.26,0.47c0,0.11,0.04,0.22,0.11,0.31c0.07,0.09,0.18,0.17,0.34,0.23c0.09,0.03,0.35,0.11,0.78,0.22
		c0.62,0.17,1.06,0.3,1.3,0.41c0.25,0.11,0.44,0.26,0.58,0.46s0.21,0.45,0.21,0.75c0,0.29-0.09,0.57-0.26,0.83
		c-0.17,0.26-0.42,0.46-0.74,0.6c-0.32,0.14-0.69,0.21-1.09,0.21c-0.67,0-1.19-0.14-1.54-0.42S778.72,234.58,778.62,234.03z"/>
	<path fill="#9B9B9B" d="M791.97,233.07l0.95,0.24c-0.2,0.78-0.56,1.37-1.07,1.78c-0.52,0.41-1.15,0.61-1.89,0.61
		c-0.77,0-1.4-0.16-1.88-0.47c-0.48-0.31-0.85-0.77-1.1-1.36s-0.38-1.24-0.38-1.92c0-0.75,0.14-1.4,0.43-1.95
		c0.28-0.55,0.69-0.98,1.22-1.26c0.53-0.29,1.1-0.43,1.74-0.43c0.72,0,1.32,0.18,1.81,0.55s0.83,0.88,1.02,1.54l-0.93,0.22
		c-0.17-0.52-0.41-0.9-0.72-1.14s-0.71-0.36-1.19-0.36c-0.55,0-1.01,0.13-1.38,0.4s-0.63,0.62-0.78,1.06
		c-0.15,0.44-0.22,0.9-0.22,1.37c0,0.61,0.09,1.14,0.27,1.59c0.18,0.45,0.45,0.79,0.83,1.02s0.78,0.34,1.22,0.34
		c0.53,0,0.98-0.15,1.35-0.46S791.84,233.67,791.97,233.07z"/>
	<path fill="#9B9B9B" d="M797.36,234.94c-0.33,0.28-0.64,0.47-0.94,0.59s-0.62,0.17-0.97,0.17c-0.57,0-1.01-0.14-1.31-0.42
		c-0.31-0.28-0.46-0.63-0.46-1.07c0-0.25,0.06-0.49,0.17-0.7c0.12-0.21,0.27-0.38,0.45-0.51s0.4-0.22,0.63-0.29
		c0.17-0.05,0.43-0.09,0.78-0.13c0.71-0.08,1.23-0.19,1.57-0.3c0-0.12,0-0.2,0-0.23c0-0.36-0.08-0.61-0.25-0.76
		c-0.22-0.2-0.56-0.3-1-0.3c-0.41,0-0.72,0.07-0.92,0.22c-0.2,0.14-0.34,0.4-0.44,0.77l-0.86-0.12c0.08-0.37,0.21-0.67,0.39-0.89
		c0.18-0.23,0.44-0.4,0.78-0.52c0.34-0.12,0.73-0.18,1.18-0.18c0.44,0,0.8,0.05,1.08,0.16s0.48,0.24,0.61,0.39
		c0.13,0.16,0.22,0.36,0.27,0.6c0.03,0.15,0.04,0.42,0.04,0.81v1.17c0,0.82,0.02,1.33,0.06,1.55c0.04,0.22,0.11,0.42,0.22,0.62
		h-0.92C797.44,235.4,797.38,235.19,797.36,234.94z M797.28,232.98c-0.32,0.13-0.8,0.24-1.44,0.33c-0.36,0.05-0.62,0.11-0.77,0.18
		s-0.27,0.16-0.35,0.29c-0.08,0.12-0.12,0.26-0.12,0.42c0,0.23,0.09,0.43,0.27,0.59s0.44,0.23,0.78,0.23c0.34,0,0.64-0.07,0.9-0.22
		c0.26-0.15,0.46-0.35,0.58-0.61c0.09-0.2,0.14-0.49,0.14-0.88V232.98z"/>
	<path fill="#9B9B9B" d="M799.53,235.58v-5.19h0.79v0.74c0.38-0.57,0.93-0.85,1.65-0.85c0.31,0,0.6,0.06,0.86,0.17
		c0.26,0.11,0.46,0.26,0.59,0.44c0.13,0.18,0.22,0.4,0.27,0.65c0.03,0.16,0.05,0.45,0.05,0.85v3.19h-0.88v-3.15
		c0-0.36-0.04-0.63-0.1-0.8c-0.07-0.18-0.19-0.32-0.36-0.43c-0.17-0.11-0.38-0.16-0.61-0.16c-0.37,0-0.7,0.12-0.97,0.36
		c-0.27,0.24-0.41,0.69-0.41,1.35v2.83H799.53z"/>
	<path fill="#9B9B9B" d="M808.48,234.94c-0.33,0.28-0.64,0.47-0.94,0.59s-0.62,0.17-0.97,0.17c-0.57,0-1.01-0.14-1.31-0.42
		c-0.31-0.28-0.46-0.63-0.46-1.07c0-0.25,0.06-0.49,0.17-0.7c0.12-0.21,0.27-0.38,0.45-0.51s0.4-0.22,0.63-0.29
		c0.17-0.05,0.43-0.09,0.78-0.13c0.71-0.08,1.23-0.19,1.57-0.3c0-0.12,0-0.2,0-0.23c0-0.36-0.08-0.61-0.25-0.76
		c-0.22-0.2-0.56-0.3-1-0.3c-0.41,0-0.72,0.07-0.92,0.22c-0.2,0.14-0.34,0.4-0.44,0.77l-0.86-0.12c0.08-0.37,0.21-0.67,0.38-0.89
		c0.18-0.23,0.44-0.4,0.78-0.52c0.34-0.12,0.73-0.18,1.18-0.18c0.44,0,0.8,0.05,1.08,0.16c0.28,0.1,0.48,0.24,0.61,0.39
		c0.13,0.16,0.22,0.36,0.27,0.6c0.03,0.15,0.04,0.42,0.04,0.81v1.17c0,0.82,0.02,1.33,0.06,1.55c0.04,0.22,0.11,0.42,0.22,0.62
		h-0.92C808.56,235.4,808.5,235.19,808.48,234.94z M808.41,232.98c-0.32,0.13-0.8,0.24-1.44,0.33c-0.36,0.05-0.62,0.11-0.77,0.18
		c-0.15,0.07-0.26,0.16-0.35,0.29c-0.08,0.12-0.12,0.26-0.12,0.42c0,0.23,0.09,0.43,0.27,0.59s0.44,0.23,0.78,0.23
		c0.34,0,0.64-0.07,0.9-0.22c0.26-0.15,0.46-0.35,0.58-0.61c0.09-0.2,0.14-0.49,0.14-0.88V232.98z"/>
	<path fill="#9B9B9B" d="M814.02,235.58v-0.65c-0.33,0.51-0.81,0.77-1.45,0.77c-0.41,0-0.79-0.11-1.14-0.34s-0.62-0.55-0.81-0.96
		c-0.19-0.41-0.29-0.88-0.29-1.41c0-0.52,0.09-0.99,0.26-1.41c0.17-0.42,0.43-0.75,0.78-0.97c0.34-0.22,0.73-0.34,1.16-0.34
		c0.31,0,0.59,0.07,0.84,0.2c0.24,0.13,0.44,0.3,0.6,0.52v-2.57h0.87v7.16H814.02z M811.24,232.99c0,0.66,0.14,1.16,0.42,1.49
		c0.28,0.33,0.61,0.49,0.99,0.49c0.38,0,0.71-0.16,0.98-0.47c0.27-0.31,0.4-0.79,0.4-1.44c0-0.71-0.14-1.23-0.41-1.56
		s-0.61-0.5-1.01-0.5c-0.39,0-0.72,0.16-0.98,0.48S811.24,232.31,811.24,232.99z"/>
	<path fill="#9B9B9B" d="M819.6,234.94c-0.33,0.28-0.64,0.47-0.94,0.59s-0.62,0.17-0.97,0.17c-0.57,0-1.01-0.14-1.31-0.42
		c-0.31-0.28-0.46-0.63-0.46-1.07c0-0.25,0.06-0.49,0.17-0.7c0.12-0.21,0.27-0.38,0.45-0.51s0.4-0.22,0.63-0.29
		c0.17-0.05,0.43-0.09,0.78-0.13c0.71-0.08,1.23-0.19,1.57-0.3c0-0.12,0-0.2,0-0.23c0-0.36-0.08-0.61-0.25-0.76
		c-0.22-0.2-0.56-0.3-1-0.3c-0.41,0-0.72,0.07-0.92,0.22c-0.2,0.14-0.34,0.4-0.44,0.77l-0.86-0.12c0.08-0.37,0.21-0.67,0.38-0.89
		c0.18-0.23,0.44-0.4,0.78-0.52c0.34-0.12,0.73-0.18,1.18-0.18c0.44,0,0.8,0.05,1.08,0.16c0.28,0.1,0.48,0.24,0.61,0.39
		c0.13,0.16,0.22,0.36,0.27,0.6c0.03,0.15,0.04,0.42,0.04,0.81v1.17c0,0.82,0.02,1.33,0.06,1.55c0.04,0.22,0.11,0.42,0.22,0.62
		h-0.92C819.69,235.4,819.63,235.19,819.6,234.94z M819.53,232.98c-0.32,0.13-0.8,0.24-1.44,0.33c-0.36,0.05-0.62,0.11-0.77,0.18
		c-0.15,0.07-0.26,0.16-0.35,0.29c-0.08,0.12-0.12,0.26-0.12,0.42c0,0.23,0.09,0.43,0.27,0.59s0.44,0.23,0.78,0.23
		c0.34,0,0.64-0.07,0.9-0.22c0.26-0.15,0.46-0.35,0.58-0.61c0.09-0.2,0.14-0.49,0.14-0.88V232.98z"/>
	<path fill="#9B9B9B" d="M823.9,233.35v-0.71h10v0.71H823.9z"/>
	<path fill="#9B9B9B" d="M841.71,234.74v0.84h-4.73c-0.01-0.21,0.03-0.42,0.1-0.61c0.12-0.32,0.31-0.64,0.58-0.95
		s0.65-0.67,1.15-1.08c0.78-0.64,1.3-1.14,1.58-1.52c0.27-0.37,0.41-0.73,0.41-1.06c0-0.35-0.12-0.64-0.37-0.88
		c-0.25-0.24-0.57-0.36-0.97-0.36c-0.42,0-0.76,0.13-1.02,0.38s-0.38,0.61-0.39,1.05l-0.9-0.09c0.06-0.67,0.29-1.19,0.7-1.54
		c0.4-0.35,0.95-0.53,1.63-0.53c0.69,0,1.23,0.19,1.63,0.57s0.6,0.85,0.6,1.42c0,0.29-0.06,0.57-0.18,0.84s-0.31,0.57-0.58,0.87
		s-0.72,0.73-1.35,1.26c-0.53,0.44-0.87,0.74-1.02,0.9c-0.15,0.16-0.27,0.32-0.37,0.48H841.71z"/>
	<path fill="#9B9B9B" d="M842.65,232.05c0-0.85,0.09-1.53,0.26-2.04c0.17-0.52,0.43-0.91,0.78-1.19s0.78-0.42,1.3-0.42
		c0.38,0,0.72,0.08,1.01,0.23c0.29,0.15,0.53,0.38,0.72,0.67c0.19,0.29,0.34,0.65,0.44,1.06c0.11,0.42,0.16,0.98,0.16,1.69
		c0,0.84-0.09,1.52-0.26,2.03c-0.17,0.52-0.43,0.91-0.77,1.2c-0.34,0.28-0.78,0.42-1.3,0.42c-0.69,0-1.23-0.25-1.63-0.74
		C842.89,234.37,842.65,233.4,842.65,232.05z M843.56,232.05c0,1.17,0.14,1.96,0.41,2.35c0.27,0.39,0.61,0.58,1.02,0.58
		c0.4,0,0.74-0.2,1.02-0.59s0.41-1.17,0.41-2.34c0-1.18-0.14-1.96-0.41-2.35s-0.62-0.58-1.03-0.58c-0.4,0-0.73,0.17-0.97,0.51
		C843.71,230.07,843.56,230.88,843.56,232.05z"/>
	<path fill="#9B9B9B" d="M852.83,234.74v0.84h-4.73c-0.01-0.21,0.03-0.42,0.1-0.61c0.12-0.32,0.31-0.64,0.58-0.95
		s0.65-0.67,1.15-1.08c0.78-0.64,1.3-1.14,1.58-1.52c0.27-0.37,0.41-0.73,0.41-1.06c0-0.35-0.12-0.64-0.37-0.88
		c-0.25-0.24-0.57-0.36-0.97-0.36c-0.42,0-0.76,0.13-1.02,0.38s-0.38,0.61-0.39,1.05l-0.9-0.09c0.06-0.67,0.29-1.19,0.7-1.54
		c0.4-0.35,0.95-0.53,1.63-0.53c0.69,0,1.23,0.19,1.63,0.57s0.6,0.85,0.6,1.42c0,0.29-0.06,0.57-0.18,0.84s-0.31,0.57-0.58,0.87
		s-0.72,0.73-1.35,1.26c-0.53,0.44-0.87,0.74-1.02,0.9c-0.15,0.16-0.27,0.32-0.37,0.48H852.83z"/>
	<path fill="#9B9B9B" d="M858.34,230.18l-0.88,0.07c-0.08-0.34-0.19-0.6-0.33-0.75c-0.24-0.25-0.53-0.38-0.88-0.38
		c-0.28,0-0.53,0.08-0.74,0.23c-0.28,0.2-0.5,0.5-0.65,0.88c-0.16,0.39-0.24,0.94-0.25,1.66c0.21-0.32,0.47-0.56,0.78-0.72
		c0.31-0.16,0.63-0.23,0.96-0.23c0.59,0,1.09,0.22,1.5,0.65c0.41,0.43,0.62,0.99,0.62,1.67c0,0.45-0.1,0.87-0.29,1.25
		c-0.19,0.39-0.46,0.68-0.8,0.89c-0.34,0.21-0.72,0.31-1.15,0.31c-0.73,0-1.33-0.27-1.79-0.81c-0.46-0.54-0.69-1.43-0.69-2.66
		c0-1.38,0.25-2.39,0.77-3.02c0.45-0.55,1.05-0.82,1.8-0.82c0.56,0,1.02,0.16,1.38,0.47S858.27,229.62,858.34,230.18z
		 M854.75,233.26c0,0.3,0.06,0.59,0.19,0.87s0.31,0.49,0.54,0.63c0.23,0.15,0.47,0.22,0.73,0.22c0.37,0,0.69-0.15,0.96-0.45
		c0.27-0.3,0.4-0.71,0.4-1.22c0-0.5-0.13-0.88-0.4-1.17c-0.26-0.29-0.6-0.43-1-0.43c-0.4,0-0.73,0.14-1.01,0.43
		C854.89,232.43,854.75,232.8,854.75,233.26z"/>
</g>
<g>
	<path d="M30.29,34.97h13.41c-0.02,3.87-0.54,6.77-1.53,8.7c-2.41,4.92-6.94,7.67-12.76,7.67c-4.45,0-8.14-1.44-11.04-4.3
		S14,40.53,14,36.09s1.46-8.12,4.4-11.04s6.66-4.38,11.17-4.38c5.56,0,9.78,2.3,12.59,6.92l-5.03,2.69c-1.76-2.9-4.3-4.36-7.61-4.36
		c-2.77,0-5.07,0.97-6.9,2.9s-2.75,4.36-2.75,7.28s0.9,5.33,2.73,7.22s4.1,2.84,6.88,2.84c2.08,0,3.82-0.56,5.26-1.7
		c1.42-1.14,2.23-2.64,2.43-4.51h-6.9V34.97z"/>
	<path d="M62.92,31.62h5.33v19.06h-5.33V48.2c-1.65,2.04-3.76,3.07-6.36,3.07s-4.79-0.97-6.57-2.9s-2.69-4.34-2.69-7.2
		s0.9-5.29,2.69-7.24s3.95-2.92,6.49-2.92s4.68,1.03,6.45,3.07V31.62z M58.17,35.81c-1.5,0-2.77,0.52-3.8,1.55
		c-1.05,1.03-1.57,2.3-1.57,3.78s0.52,2.75,1.57,3.78c1.05,1.05,2.3,1.57,3.76,1.57s2.73-0.52,3.78-1.57
		c1.05-1.03,1.57-2.28,1.57-3.76s-0.52-2.73-1.53-3.78C60.92,36.32,59.65,35.81,58.17,35.81z"/>
	<path d="M78.67,50.67h-5.33V31.62h5.33v2.9c1.31-2.34,3.16-3.52,5.54-3.5c0.75,0,1.53,0.15,2.32,0.47l-0.75,4.96
		c-0.79-0.45-1.63-0.67-2.54-0.64c-3.05,0-4.58,1.91-4.58,5.71V50.67z"/>
	<path d="M107.78,42.02H93.49c0.15,3.42,1.7,5.11,4.66,5.09c1.85,0,3.35-0.86,4.53-2.56l4.92,0.79c-1.65,3.95-4.75,5.93-9.32,5.95
		c-3.12,0-5.59-0.92-7.46-2.77s-2.79-4.3-2.79-7.37s0.9-5.52,2.73-7.37s4.23-2.77,7.26-2.77s5.41,0.92,7.15,2.75s2.6,4.34,2.6,7.54
		V42.02z M93.66,38.62h9.02c-0.58-2.51-2.11-3.78-4.53-3.78C95.81,34.84,94.12,36.21,93.66,38.62z"/>
	<path d="M137.11,37.44c-1.4-1.1-2.86-1.63-4.38-1.63s-2.79,0.49-3.85,1.5s-1.57,2.28-1.57,3.82s0.52,2.81,1.57,3.82
		s2.34,1.53,3.89,1.53s2.99-0.52,4.34-1.57v5.18c-1.57,0.79-3.18,1.18-4.88,1.2c-2.96,0-5.44-0.97-7.43-2.9
		c-2-1.91-2.99-4.32-2.99-7.18s1.01-5.29,3.01-7.26c2-1.96,4.49-2.94,7.46-2.94c1.74,0,3.35,0.39,4.83,1.14V37.44z"/>
	<path d="M159.9,42.02h-14.29c0.15,3.42,1.7,5.11,4.66,5.09c1.85,0,3.35-0.86,4.53-2.56l4.92,0.79c-1.65,3.95-4.75,5.93-9.32,5.95
		c-3.12,0-5.59-0.92-7.46-2.77s-2.79-4.3-2.79-7.37s0.9-5.52,2.73-7.37s4.23-2.77,7.26-2.77s5.41,0.92,7.15,2.75s2.6,4.34,2.6,7.54
		V42.02z M145.79,38.62h9.02c-0.58-2.51-2.11-3.78-4.53-3.78C147.93,34.84,146.24,36.21,145.79,38.62z"/>
	<path d="M163.94,31.62h5.33V34c1.63-2.17,3.39-2.99,5.97-2.99c2.34,0,4.19,0.75,5.54,2.28c1.01,1.14,1.5,2.9,1.5,5.29v12.1h-5.33
		V40.1c0-1.46-0.17-2.49-0.54-3.07c-0.56-1.01-1.59-1.5-3.12-1.5c-2.69,0-4.04,1.76-4.04,5.29v9.86h-5.33V31.62z"/>
	<path d="M192.75,36.24v14.44h-5.33V36.24h-2.11v-4.62h2.11v-6.51h5.33v6.51h3.78v4.62H192.75z"/>
	<path d="M204.91,50.67h-5.33V31.62h5.33v2.9c1.31-2.34,3.16-3.52,5.54-3.5c0.75,0,1.53,0.15,2.32,0.47l-0.75,4.96
		c-0.79-0.45-1.63-0.67-2.54-0.64c-3.05,0-4.58,1.91-4.58,5.71V50.67z"/>
	<path d="M229.85,31.62h5.33v19.06h-5.33V48.2c-1.65,2.04-3.76,3.07-6.36,3.07s-4.79-0.97-6.57-2.9s-2.69-4.34-2.69-7.2
		s0.9-5.29,2.69-7.24s3.95-2.92,6.49-2.92s4.68,1.03,6.45,3.07V31.62z M225.11,35.81c-1.5,0-2.77,0.52-3.8,1.55
		c-1.05,1.03-1.57,2.3-1.57,3.78s0.52,2.75,1.57,3.78c1.05,1.05,2.3,1.57,3.76,1.57s2.73-0.52,3.78-1.57
		c1.05-1.03,1.57-2.28,1.57-3.76s-0.52-2.73-1.53-3.78C227.86,36.32,226.59,35.81,225.11,35.81z"/>
	<path d="M245.6,17.72v32.96h-5.33V17.72H245.6z"/>
	<path d="M269.43,42.02h-14.29c0.15,3.42,1.7,5.11,4.66,5.09c1.85,0,3.35-0.86,4.53-2.56l4.92,0.79c-1.65,3.95-4.75,5.93-9.32,5.95
		c-3.12,0-5.59-0.92-7.46-2.77s-2.79-4.3-2.79-7.37s0.9-5.52,2.73-7.37s4.23-2.77,7.26-2.77s5.41,0.92,7.15,2.75s2.6,4.34,2.6,7.54
		V42.02z M255.31,38.62h9.02c-0.58-2.51-2.11-3.78-4.53-3.78C257.46,34.84,255.76,36.21,255.31,38.62z"/>
	<path d="M281.91,38.36h9.9v4.43h-9.9V38.36z"/>
	<path d="M306.19,50.67V21.33h7.26c3.31,0,5.69,0.58,7.15,1.76c1.76,1.38,2.64,3.37,2.64,5.97c0,1.61-0.37,3.01-1.1,4.19
		c-0.41,0.56-1.12,1.14-2.11,1.76c1.76,0.39,3.03,1.01,3.82,1.85c1.4,1.4,2.11,3.29,2.11,5.67s-0.86,4.34-2.56,5.87
		s-4.15,2.28-7.35,2.28H306.19z M311.9,33.55h1.63c2.96,0,4.45-1.27,4.45-3.8s-1.46-3.8-4.36-3.8h-1.72V33.55z M311.9,46.05h2.47
		c3.8,0,5.71-1.35,5.71-4.04c0-1.48-0.58-2.58-1.72-3.27c-0.84-0.56-2.28-0.84-4.32-0.84h-2.15V46.05z"/>
	<path d="M335.75,50.67h-5.33V31.62h5.33v2.9c1.31-2.34,3.16-3.52,5.54-3.5c0.75,0,1.53,0.15,2.32,0.47l-0.75,4.96
		c-0.79-0.45-1.63-0.67-2.54-0.64c-3.05,0-4.58,1.91-4.58,5.71V50.67z"/>
	<path d="M355.99,31.02c3.2,0,5.8,0.95,7.8,2.81s3.01,4.32,3.01,7.33s-1.01,5.46-3.03,7.33c-2.04,1.87-4.66,2.81-7.91,2.81
		s-5.84-0.97-7.84-2.88s-2.99-4.34-2.99-7.33s1.03-5.41,3.07-7.28S352.79,31.02,355.99,31.02z M355.92,35.81
		c-1.48,0-2.75,0.52-3.8,1.55s-1.59,2.3-1.59,3.78s0.52,2.75,1.57,3.78c1.05,1.05,2.32,1.57,3.8,1.57s2.77-0.52,3.82-1.57
		c1.05-1.03,1.57-2.28,1.57-3.76s-0.52-2.73-1.57-3.78S357.41,35.81,355.92,35.81z"/>
	<path d="M381.32,36.06c-1.12-0.84-2.06-1.27-2.86-1.27s-1.38,0.15-1.78,0.45c-0.41,0.32-0.6,0.71-0.6,1.16s0.19,0.82,0.6,1.1
		s1.35,0.67,2.84,1.18s2.6,1.03,3.31,1.57c1.4,0.97,2.11,2.41,2.11,4.32s-0.75,3.52-2.23,4.79c-1.5,1.29-3.44,1.93-5.78,1.93
		c-2.88,0-5.29-1.05-7.22-3.18l2.79-3.24c1.48,1.48,2.99,2.23,4.51,2.23c1.35,0,2.43-0.95,2.43-2.08c0-0.58-0.17-1.01-0.54-1.31
		c-0.37-0.28-1.31-0.71-2.86-1.27s-2.62-1.05-3.2-1.5c-1.27-0.88-1.89-2.19-1.89-3.97s0.64-3.22,1.93-4.36
		c1.27-1.14,2.99-1.7,5.13-1.7s4.12,0.69,5.95,2.04L381.32,36.06z"/>
	<path d="M399,36.06c-1.12-0.84-2.06-1.27-2.86-1.27s-1.38,0.15-1.78,0.45c-0.41,0.32-0.6,0.71-0.6,1.16s0.19,0.82,0.6,1.1
		s1.35,0.67,2.84,1.18s2.6,1.03,3.31,1.57c1.4,0.97,2.11,2.41,2.11,4.32s-0.75,3.52-2.23,4.79c-1.5,1.29-3.44,1.93-5.78,1.93
		c-2.88,0-5.29-1.05-7.22-3.18l2.79-3.24c1.48,1.48,2.99,2.23,4.51,2.23c1.35,0,2.43-0.95,2.43-2.08c0-0.58-0.17-1.01-0.54-1.31
		c-0.37-0.28-1.31-0.71-2.86-1.27s-2.62-1.05-3.2-1.5c-1.27-0.88-1.89-2.19-1.89-3.97s0.64-3.22,1.93-4.36
		c1.27-1.14,2.99-1.7,5.13-1.7s4.12,0.69,5.95,2.04L399,36.06z"/>
	<path d="M421.04,31.62h5.33v19.06h-5.33V48.2c-1.65,2.04-3.76,3.07-6.36,3.07s-4.79-0.97-6.57-2.9s-2.69-4.34-2.69-7.2
		s0.9-5.29,2.69-7.24s3.95-2.92,6.49-2.92s4.68,1.03,6.45,3.07V31.62z M416.29,35.81c-1.5,0-2.77,0.52-3.8,1.55
		c-1.05,1.03-1.57,2.3-1.57,3.78s0.52,2.75,1.57,3.78c1.05,1.05,2.3,1.57,3.76,1.57s2.73-0.52,3.78-1.57
		c1.05-1.03,1.57-2.28,1.57-3.76s-0.52-2.73-1.53-3.78C419.04,36.32,417.78,35.81,416.29,35.81z"/>
	<path d="M436.79,50.67h-5.33V31.62h5.33v2.9c1.31-2.34,3.16-3.52,5.54-3.5c0.75,0,1.53,0.15,2.32,0.47l-0.75,4.96
		c-0.79-0.45-1.63-0.67-2.54-0.64c-3.05,0-4.58,1.91-4.58,5.71V50.67z"/>
	<path d="M461.73,17.72h5.33v32.96h-5.33V48.2c-1.65,2.04-3.76,3.07-6.36,3.07s-4.79-0.97-6.57-2.9s-2.69-4.34-2.69-7.2
		s0.9-5.29,2.69-7.24s3.95-2.92,6.49-2.92s4.68,1.03,6.45,3.07V17.72z M456.99,35.81c-1.5,0-2.77,0.52-3.8,1.55
		c-1.05,1.03-1.57,2.3-1.57,3.78s0.52,2.75,1.57,3.78c1.05,1.05,2.3,1.57,3.76,1.57s2.73-0.52,3.78-1.57
		c1.05-1.03,1.57-2.28,1.57-3.76s-0.52-2.73-1.53-3.78C459.74,36.32,458.47,35.81,456.99,35.81z"/>
</g>
<g>
	<path fill="#5A5A5A" d="M14,77.45V64.56h5.71c1.15,0,2.02,0.12,2.62,0.35s1.08,0.64,1.43,1.23s0.54,1.23,0.54,1.94
		c0,0.91-0.3,1.68-0.89,2.31s-1.51,1.03-2.74,1.2c0.45,0.22,0.79,0.43,1.03,0.64c0.5,0.46,0.97,1.03,1.42,1.71l2.24,3.51h-2.14
		l-1.71-2.68c-0.5-0.77-0.91-1.37-1.23-1.78s-0.61-0.7-0.87-0.86s-0.51-0.28-0.78-0.34c-0.19-0.04-0.51-0.06-0.95-0.06h-1.98v5.72
		H14z M15.71,70.25h3.67c0.78,0,1.39-0.08,1.83-0.24s0.77-0.42,1-0.77s0.34-0.74,0.34-1.16c0-0.61-0.22-1.11-0.66-1.5
		s-1.14-0.59-2.1-0.59h-4.08V70.25z"/>
	<path fill="#5A5A5A" d="M33.16,74.44l1.63,0.2c-0.26,0.96-0.74,1.7-1.43,2.22s-1.59,0.79-2.67,0.79c-1.37,0-2.45-0.42-3.25-1.26
		c-0.8-0.84-1.2-2.02-1.2-3.54c0-1.57,0.4-2.79,1.21-3.66s1.86-1.3,3.15-1.3c1.25,0,2.27,0.42,3.06,1.27s1.19,2.04,1.19,3.59
		c0,0.09,0,0.23-0.01,0.42h-6.96c0.06,1.03,0.35,1.81,0.87,2.36s1.17,0.82,1.95,0.82c0.58,0,1.08-0.15,1.49-0.46
		S32.92,75.11,33.16,74.44z M27.97,71.88h5.21c-0.07-0.79-0.27-1.37-0.6-1.77c-0.5-0.61-1.16-0.91-1.96-0.91
		c-0.73,0-1.34,0.24-1.83,0.73S28.02,71.07,27.97,71.88z M29.67,66.95l1.17-2.46h2.07l-1.93,2.46H29.67z"/>
	<path fill="#5A5A5A" d="M36.15,74.66l1.56-0.25c0.09,0.63,0.33,1.11,0.73,1.44s0.96,0.5,1.68,0.5c0.73,0,1.27-0.15,1.62-0.44
		s0.53-0.64,0.53-1.04c0-0.36-0.16-0.64-0.47-0.84c-0.22-0.14-0.76-0.32-1.62-0.54c-1.16-0.29-1.96-0.55-2.41-0.76
		s-0.79-0.51-1.02-0.89c-0.23-0.38-0.35-0.79-0.35-1.25c0-0.42,0.1-0.8,0.29-1.16c0.19-0.35,0.45-0.65,0.78-0.88
		c0.25-0.18,0.58-0.33,1.01-0.46s0.88-0.19,1.37-0.19c0.73,0,1.38,0.11,1.93,0.32s0.96,0.5,1.23,0.86c0.26,0.36,0.45,0.84,0.54,1.45
		L42,70.73c-0.07-0.48-0.27-0.86-0.61-1.12s-0.81-0.4-1.43-0.4c-0.73,0-1.25,0.12-1.56,0.36s-0.47,0.52-0.47,0.84
		c0,0.21,0.06,0.39,0.19,0.55c0.13,0.17,0.33,0.31,0.61,0.42c0.16,0.06,0.62,0.19,1.4,0.4c1.12,0.3,1.9,0.54,2.34,0.73
		s0.79,0.47,1.04,0.83s0.38,0.81,0.38,1.35c0,0.53-0.15,1.02-0.46,1.49c-0.31,0.46-0.75,0.83-1.33,1.08
		c-0.58,0.26-1.24,0.38-1.97,0.38c-1.21,0-2.14-0.25-2.77-0.76S36.32,75.65,36.15,74.66z"/>
	<path fill="#5A5A5A" d="M52.17,74.44l1.63,0.2c-0.26,0.96-0.74,1.7-1.43,2.22s-1.59,0.79-2.67,0.79c-1.37,0-2.45-0.42-3.25-1.26
		c-0.8-0.84-1.2-2.02-1.2-3.54c0-1.57,0.4-2.79,1.21-3.66s1.86-1.3,3.15-1.3c1.25,0,2.27,0.42,3.06,1.27s1.19,2.04,1.19,3.59
		c0,0.09,0,0.23-0.01,0.42h-6.96c0.06,1.03,0.35,1.81,0.87,2.36s1.17,0.82,1.95,0.82c0.58,0,1.08-0.15,1.49-0.46
		S51.93,75.11,52.17,74.44z M46.98,71.88h5.21c-0.07-0.79-0.27-1.37-0.6-1.77c-0.5-0.61-1.16-0.91-1.96-0.91
		c-0.73,0-1.34,0.24-1.83,0.73S47.03,71.07,46.98,71.88z"/>
	<path fill="#5A5A5A" d="M61.88,76.3c-0.59,0.5-1.15,0.85-1.69,1.05s-1.12,0.31-1.74,0.31c-1.03,0-1.81-0.25-2.36-0.75
		c-0.55-0.5-0.83-1.14-0.83-1.92c0-0.46,0.1-0.88,0.31-1.25c0.21-0.38,0.48-0.68,0.82-0.91s0.72-0.4,1.14-0.52
		c0.31-0.08,0.78-0.16,1.41-0.24c1.28-0.15,2.22-0.33,2.82-0.54c0.01-0.22,0.01-0.35,0.01-0.41c0-0.64-0.15-1.1-0.45-1.36
		c-0.4-0.36-1-0.54-1.8-0.54c-0.74,0-1.29,0.13-1.65,0.39s-0.62,0.72-0.79,1.38l-1.55-0.21c0.14-0.66,0.37-1.2,0.69-1.6
		c0.32-0.41,0.79-0.72,1.4-0.94c0.61-0.22,1.32-0.33,2.12-0.33c0.8,0,1.44,0.09,1.94,0.28s0.86,0.42,1.1,0.71
		c0.23,0.29,0.4,0.64,0.49,1.08c0.05,0.27,0.08,0.76,0.08,1.46v2.11c0,1.47,0.03,2.4,0.1,2.79c0.07,0.39,0.2,0.76,0.4,1.12H62.2
		C62.04,77.12,61.93,76.74,61.88,76.3z M61.75,72.76c-0.57,0.23-1.44,0.43-2.58,0.6c-0.65,0.09-1.11,0.2-1.38,0.32
		s-0.48,0.29-0.62,0.51s-0.22,0.48-0.22,0.75c0,0.42,0.16,0.77,0.48,1.05s0.79,0.42,1.4,0.42c0.61,0,1.15-0.13,1.63-0.4
		s0.82-0.63,1.05-1.09c0.17-0.36,0.25-0.88,0.25-1.58V72.76z"/>
	<path fill="#5A5A5A" d="M71.92,77.45v-1.37c-0.73,1.05-1.71,1.58-2.96,1.58c-0.55,0-1.06-0.11-1.54-0.32s-0.83-0.48-1.06-0.79
		s-0.39-0.71-0.49-1.17c-0.06-0.31-0.1-0.8-0.1-1.48v-5.78h1.58v5.18c0,0.83,0.03,1.38,0.1,1.67c0.1,0.42,0.31,0.74,0.63,0.98
		c0.32,0.24,0.72,0.36,1.2,0.36s0.92-0.12,1.34-0.36s0.71-0.57,0.88-0.99c0.17-0.42,0.26-1.03,0.26-1.82v-5h1.58v9.33H71.92z"/>
	<path fill="#5A5A5A" d="M81.05,77.45V64.56h9.32v1.52h-7.61v3.95h7.13v1.51h-7.13v4.39h7.91v1.52H81.05z"/>
	<path fill="#5A5A5A" d="M91.77,77.45l3.41-4.85l-3.16-4.48H94l1.43,2.19c0.27,0.42,0.49,0.76,0.65,1.05
		c0.26-0.39,0.5-0.73,0.71-1.03l1.57-2.21h1.89l-3.23,4.39l3.47,4.94h-1.94l-1.92-2.9l-0.51-0.78l-2.45,3.68H91.77z"/>
	<path fill="#5A5A5A" d="M101.82,81.02V68.11h1.44v1.21c0.34-0.47,0.72-0.83,1.15-1.07c0.43-0.24,0.95-0.36,1.56-0.36
		c0.8,0,1.5,0.21,2.11,0.62s1.07,0.99,1.38,1.74c0.31,0.75,0.47,1.57,0.47,2.46c0,0.96-0.17,1.82-0.51,2.58
		c-0.34,0.77-0.84,1.35-1.49,1.76c-0.65,0.41-1.34,0.61-2.06,0.61c-0.53,0-1-0.11-1.42-0.33s-0.76-0.5-1.03-0.84v4.54H101.82z
		 M103.25,72.83c0,1.2,0.24,2.09,0.73,2.66s1.08,0.86,1.77,0.86c0.7,0,1.31-0.3,1.81-0.89c0.5-0.59,0.75-1.52,0.75-2.76
		c0-1.19-0.24-2.08-0.73-2.67s-1.07-0.89-1.75-0.89c-0.67,0-1.27,0.32-1.79,0.94C103.51,70.72,103.25,71.63,103.25,72.83z"/>
	<path fill="#5A5A5A" d="M111.81,77.45v-9.33h1.42v1.42c0.36-0.66,0.7-1.1,1.01-1.31s0.65-0.32,1.02-0.32
		c0.53,0,1.08,0.17,1.63,0.51l-0.54,1.47c-0.39-0.23-0.77-0.34-1.16-0.34c-0.35,0-0.66,0.1-0.93,0.31s-0.47,0.5-0.59,0.87
		c-0.18,0.56-0.26,1.18-0.26,1.85v4.89H111.81z"/>
	<path fill="#5A5A5A" d="M124.21,74.44l1.63,0.2c-0.26,0.96-0.74,1.7-1.43,2.22s-1.59,0.79-2.67,0.79c-1.37,0-2.45-0.42-3.25-1.26
		c-0.8-0.84-1.2-2.02-1.2-3.54c0-1.57,0.4-2.79,1.21-3.66s1.86-1.3,3.15-1.3c1.25,0,2.27,0.42,3.06,1.27s1.19,2.04,1.19,3.59
		c0,0.09,0,0.23-0.01,0.42h-6.96c0.06,1.03,0.35,1.81,0.87,2.36s1.17,0.82,1.95,0.82c0.58,0,1.08-0.15,1.49-0.46
		S123.97,75.11,124.21,74.44z M119.02,71.88h5.21c-0.07-0.79-0.27-1.37-0.6-1.77c-0.5-0.61-1.16-0.91-1.96-0.91
		c-0.73,0-1.34,0.24-1.83,0.73S119.07,71.07,119.02,71.88z"/>
	<path fill="#5A5A5A" d="M127.2,74.66l1.56-0.25c0.09,0.63,0.33,1.11,0.73,1.44s0.96,0.5,1.68,0.5c0.73,0,1.27-0.15,1.62-0.44
		s0.53-0.64,0.53-1.04c0-0.36-0.16-0.64-0.47-0.84c-0.22-0.14-0.76-0.32-1.62-0.54c-1.16-0.29-1.96-0.55-2.41-0.76
		s-0.79-0.51-1.02-0.89c-0.23-0.38-0.35-0.79-0.35-1.25c0-0.42,0.1-0.8,0.29-1.16c0.19-0.35,0.45-0.65,0.78-0.88
		c0.25-0.18,0.58-0.33,1.01-0.46s0.88-0.19,1.37-0.19c0.73,0,1.38,0.11,1.93,0.32s0.96,0.5,1.23,0.86c0.26,0.36,0.45,0.84,0.54,1.45
		l-1.55,0.21c-0.07-0.48-0.27-0.86-0.61-1.12s-0.81-0.4-1.43-0.4c-0.73,0-1.25,0.12-1.56,0.36S129,70.08,129,70.41
		c0,0.21,0.06,0.39,0.19,0.55c0.13,0.17,0.33,0.31,0.61,0.42c0.16,0.06,0.62,0.19,1.4,0.4c1.12,0.3,1.9,0.54,2.34,0.73
		s0.79,0.47,1.04,0.83s0.38,0.81,0.38,1.35c0,0.53-0.15,1.02-0.46,1.49c-0.31,0.46-0.75,0.83-1.33,1.08
		c-0.58,0.26-1.24,0.38-1.97,0.38c-1.21,0-2.14-0.25-2.77-0.76S127.38,75.65,127.2,74.66z"/>
	<path fill="#5A5A5A" d="M136.2,74.66l1.56-0.25c0.09,0.63,0.33,1.11,0.73,1.44s0.96,0.5,1.68,0.5c0.73,0,1.27-0.15,1.62-0.44
		s0.53-0.64,0.53-1.04c0-0.36-0.16-0.64-0.47-0.84c-0.22-0.14-0.76-0.32-1.62-0.54c-1.16-0.29-1.96-0.55-2.41-0.76
		s-0.79-0.51-1.02-0.89c-0.23-0.38-0.35-0.79-0.35-1.25c0-0.42,0.1-0.8,0.29-1.16c0.19-0.35,0.45-0.65,0.78-0.88
		c0.25-0.18,0.58-0.33,1.01-0.46s0.88-0.19,1.37-0.19c0.73,0,1.38,0.11,1.93,0.32s0.96,0.5,1.23,0.86c0.26,0.36,0.45,0.84,0.54,1.45
		l-1.55,0.21c-0.07-0.48-0.27-0.86-0.61-1.12s-0.81-0.4-1.43-0.4c-0.73,0-1.25,0.12-1.56,0.36S138,70.08,138,70.41
		c0,0.21,0.06,0.39,0.19,0.55c0.13,0.17,0.33,0.31,0.61,0.42c0.16,0.06,0.62,0.19,1.4,0.4c1.12,0.3,1.9,0.54,2.34,0.73
		s0.79,0.47,1.04,0.83s0.38,0.81,0.38,1.35c0,0.53-0.15,1.02-0.46,1.49c-0.31,0.46-0.75,0.83-1.33,1.08
		c-0.58,0.26-1.24,0.38-1.97,0.38c-1.21,0-2.14-0.25-2.77-0.76S136.38,75.65,136.2,74.66z"/>
	<path fill="#5A5A5A" d="M150.99,77.45V64.56h2.57l3.05,9.12c0.28,0.85,0.49,1.49,0.62,1.91c0.15-0.47,0.38-1.16,0.69-2.07
		l3.08-8.96h2.29v12.88h-1.64V66.66l-3.74,10.78h-1.54l-3.73-10.97v10.97H150.99z"/>
	<path fill="#5A5A5A" d="M172.22,74.44l1.63,0.2c-0.26,0.96-0.74,1.7-1.43,2.22s-1.59,0.79-2.67,0.79c-1.37,0-2.45-0.42-3.25-1.26
		c-0.8-0.84-1.2-2.02-1.2-3.54c0-1.57,0.4-2.79,1.21-3.66s1.86-1.3,3.15-1.3c1.25,0,2.27,0.42,3.06,1.27s1.19,2.04,1.19,3.59
		c0,0.09,0,0.23-0.01,0.42h-6.96c0.06,1.03,0.35,1.81,0.87,2.36s1.17,0.82,1.95,0.82c0.58,0,1.08-0.15,1.49-0.46
		S171.98,75.11,172.22,74.44z M167.03,71.88h5.21c-0.07-0.79-0.27-1.37-0.6-1.77c-0.5-0.61-1.16-0.91-1.96-0.91
		c-0.73,0-1.34,0.24-1.83,0.73S167.08,71.07,167.03,71.88z M168.73,66.95l1.17-2.46h2.07l-1.93,2.46H168.73z"/>
	<path fill="#5A5A5A" d="M179.3,76.03l0.23,1.4c-0.45,0.09-0.84,0.14-1.2,0.14c-0.57,0-1.02-0.09-1.34-0.27s-0.54-0.42-0.67-0.72
		s-0.19-0.92-0.19-1.87v-5.37h-1.16v-1.23h1.16V65.8l1.57-0.95v3.26h1.59v1.23h-1.59v5.46c0,0.45,0.03,0.74,0.08,0.87
		s0.15,0.23,0.27,0.31s0.31,0.11,0.54,0.11C178.78,76.09,179.01,76.07,179.3,76.03z"/>
	<path fill="#5A5A5A" d="M180.83,77.45v-9.33h1.42v1.42c0.36-0.66,0.7-1.1,1.01-1.31s0.65-0.32,1.02-0.32
		c0.53,0,1.08,0.17,1.63,0.51l-0.54,1.47c-0.39-0.23-0.77-0.34-1.16-0.34c-0.35,0-0.66,0.1-0.93,0.31s-0.47,0.5-0.59,0.87
		c-0.18,0.56-0.26,1.18-0.26,1.85v4.89H180.83z"/>
	<path fill="#5A5A5A" d="M186.25,72.78c0-1.73,0.48-3.01,1.44-3.84c0.8-0.69,1.78-1.04,2.94-1.04c1.28,0,2.33,0.42,3.15,1.26
		s1.22,2,1.22,3.48c0,1.2-0.18,2.15-0.54,2.83c-0.36,0.69-0.88,1.22-1.57,1.6s-1.44,0.57-2.25,0.57c-1.31,0-2.36-0.42-3.17-1.26
		S186.25,74.36,186.25,72.78z M187.87,72.78c0,1.2,0.26,2.09,0.78,2.68c0.52,0.6,1.18,0.89,1.97,0.89c0.79,0,1.44-0.3,1.96-0.9
		s0.78-1.51,0.78-2.73c0-1.15-0.26-2.03-0.79-2.62c-0.52-0.59-1.18-0.89-1.96-0.89c-0.79,0-1.45,0.3-1.97,0.89
		S187.87,71.58,187.87,72.78z"/>
	<path fill="#5A5A5A" d="M196.85,81.02V68.11h1.44v1.21c0.34-0.47,0.72-0.83,1.15-1.07c0.43-0.24,0.95-0.36,1.56-0.36
		c0.8,0,1.5,0.21,2.11,0.62s1.07,0.99,1.38,1.74c0.31,0.75,0.47,1.57,0.47,2.46c0,0.96-0.17,1.82-0.51,2.58
		c-0.34,0.77-0.84,1.35-1.49,1.76c-0.65,0.41-1.34,0.61-2.06,0.61c-0.53,0-1-0.11-1.42-0.33s-0.76-0.5-1.03-0.84v4.54H196.85z
		 M198.28,72.83c0,1.2,0.24,2.09,0.73,2.66s1.08,0.86,1.77,0.86c0.7,0,1.31-0.3,1.81-0.89c0.5-0.59,0.75-1.52,0.75-2.76
		c0-1.19-0.24-2.08-0.73-2.67s-1.07-0.89-1.75-0.89c-0.67,0-1.27,0.32-1.79,0.94C198.54,70.72,198.28,71.63,198.28,72.83z"/>
	<path fill="#5A5A5A" d="M206.27,72.78c0-1.73,0.48-3.01,1.44-3.84c0.8-0.69,1.78-1.04,2.94-1.04c1.28,0,2.33,0.42,3.15,1.26
		s1.22,2,1.22,3.48c0,1.2-0.18,2.15-0.54,2.83c-0.36,0.69-0.88,1.22-1.57,1.6s-1.44,0.57-2.25,0.57c-1.31,0-2.36-0.42-3.17-1.26
		S206.27,74.36,206.27,72.78z M207.9,72.78c0,1.2,0.26,2.09,0.78,2.68c0.52,0.6,1.18,0.89,1.97,0.89c0.79,0,1.44-0.3,1.96-0.9
		s0.78-1.51,0.78-2.73c0-1.15-0.26-2.03-0.79-2.62c-0.52-0.59-1.18-0.89-1.96-0.89c-0.79,0-1.45,0.3-1.97,0.89
		S207.9,71.58,207.9,72.78z"/>
	<path fill="#5A5A5A" d="M216.83,77.45V64.56h1.58v12.88H216.83z"/>
	<path fill="#5A5A5A" d="M220.88,66.38v-1.82h1.58v1.82H220.88z M220.88,77.45v-9.33h1.58v9.33H220.88z"/>
	<path fill="#5A5A5A" d="M228.32,76.03l0.23,1.4c-0.45,0.09-0.84,0.14-1.2,0.14c-0.57,0-1.02-0.09-1.34-0.27s-0.54-0.42-0.67-0.72
		s-0.19-0.92-0.19-1.87v-5.37H224v-1.23h1.16V65.8l1.57-0.95v3.26h1.59v1.23h-1.59v5.46c0,0.45,0.03,0.74,0.08,0.87
		s0.15,0.23,0.27,0.31s0.31,0.11,0.54,0.11C227.8,76.09,228.03,76.07,228.32,76.03z"/>
	<path fill="#5A5A5A" d="M235.96,76.3c-0.59,0.5-1.15,0.85-1.69,1.05s-1.12,0.31-1.74,0.31c-1.03,0-1.81-0.25-2.36-0.75
		c-0.55-0.5-0.83-1.14-0.83-1.92c0-0.46,0.1-0.88,0.31-1.25c0.21-0.38,0.48-0.68,0.82-0.91s0.72-0.4,1.14-0.52
		c0.31-0.08,0.78-0.16,1.41-0.24c1.28-0.15,2.22-0.33,2.82-0.54c0.01-0.22,0.01-0.35,0.01-0.41c0-0.64-0.15-1.1-0.45-1.36
		c-0.4-0.36-1-0.54-1.8-0.54c-0.74,0-1.29,0.13-1.65,0.39s-0.62,0.72-0.79,1.38l-1.55-0.21c0.14-0.66,0.37-1.2,0.69-1.6
		c0.32-0.41,0.79-0.72,1.4-0.94c0.61-0.22,1.32-0.33,2.12-0.33c0.8,0,1.44,0.09,1.94,0.28s0.86,0.42,1.1,0.71
		c0.23,0.29,0.4,0.64,0.49,1.08c0.05,0.27,0.08,0.76,0.08,1.46v2.11c0,1.47,0.03,2.4,0.1,2.79c0.07,0.39,0.2,0.76,0.4,1.12h-1.65
		C236.11,77.12,236.01,76.74,235.96,76.3z M235.83,72.76c-0.57,0.23-1.44,0.43-2.58,0.6c-0.65,0.09-1.11,0.2-1.38,0.32
		s-0.48,0.29-0.62,0.51s-0.22,0.48-0.22,0.75c0,0.42,0.16,0.77,0.48,1.05s0.79,0.42,1.4,0.42c0.61,0,1.15-0.13,1.63-0.4
		s0.82-0.63,1.05-1.09c0.17-0.36,0.25-0.88,0.25-1.58V72.76z"/>
	<path fill="#5A5A5A" d="M239.89,66.38v-1.82h1.58v1.82H239.89z M239.89,77.45v-9.33h1.58v9.33H239.89z"/>
	<path fill="#5A5A5A" d="M243.88,77.45v-9.33h1.42v1.33c0.69-1.03,1.68-1.54,2.97-1.54c0.56,0,1.08,0.1,1.55,0.3
		c0.47,0.2,0.82,0.47,1.06,0.8s0.4,0.72,0.49,1.17c0.06,0.29,0.09,0.81,0.09,1.54v5.74h-1.58v-5.68c0-0.64-0.06-1.13-0.18-1.45
		s-0.34-0.57-0.65-0.77c-0.31-0.19-0.68-0.29-1.1-0.29c-0.67,0-1.26,0.21-1.74,0.64s-0.73,1.24-0.73,2.43v5.1H243.88z"/>
	<path fill="#5A5A5A" d="M261.91,81.24c-0.87-1.1-1.61-2.39-2.21-3.87s-0.91-3.01-0.91-4.59c0-1.39,0.23-2.73,0.68-4.01
		c0.53-1.48,1.34-2.96,2.44-4.43h1.13c-0.71,1.22-1.18,2.09-1.41,2.61c-0.36,0.81-0.64,1.65-0.84,2.53c-0.25,1.1-0.38,2.2-0.38,3.3
		c0,2.82,0.88,5.63,2.63,8.45H261.91z"/>
	<path fill="#5A5A5A" d="M265.11,77.45V64.56h5.71c1.15,0,2.02,0.12,2.62,0.35s1.08,0.64,1.43,1.23s0.54,1.23,0.54,1.94
		c0,0.91-0.3,1.68-0.89,2.31s-1.51,1.03-2.74,1.2c0.45,0.22,0.79,0.43,1.03,0.64c0.5,0.46,0.97,1.03,1.42,1.71l2.24,3.51h-2.14
		l-1.71-2.68c-0.5-0.77-0.91-1.37-1.23-1.78s-0.61-0.7-0.87-0.86s-0.51-0.28-0.78-0.34c-0.19-0.04-0.51-0.06-0.95-0.06h-1.98v5.72
		H265.11z M266.82,70.25h3.67c0.78,0,1.39-0.08,1.83-0.24s0.77-0.42,1-0.77s0.34-0.74,0.34-1.16c0-0.61-0.22-1.11-0.66-1.5
		s-1.14-0.59-2.1-0.59h-4.08V70.25z"/>
	<path fill="#5A5A5A" d="M278.12,77.45V64.56h9.32v1.52h-7.61v3.95h7.13v1.51h-7.13v4.39h7.91v1.52H278.12z"/>
	<path fill="#5A5A5A" d="M290.04,77.45V64.56h2.57l3.05,9.12c0.28,0.85,0.49,1.49,0.62,1.91c0.15-0.47,0.38-1.16,0.69-2.07
		l3.08-8.96h2.29v12.88h-1.64V66.66l-3.74,10.78h-1.54l-3.73-10.97v10.97H290.04z"/>
	<path fill="#5A5A5A" d="M305.92,81.24h-1.13c1.75-2.81,2.63-5.63,2.63-8.45c0-1.1-0.13-2.19-0.38-3.28
		c-0.2-0.88-0.48-1.72-0.83-2.53c-0.23-0.53-0.7-1.41-1.42-2.64h1.13c1.1,1.47,1.92,2.95,2.44,4.43c0.45,1.28,0.68,2.61,0.68,4.01
		c0,1.58-0.3,3.11-0.91,4.59S306.79,80.13,305.92,81.24z"/>
	<path fill="#5A5A5A" d="M315.65,71.14c0-0.62,0.22-1.14,0.65-1.57s0.96-0.65,1.57-0.65c0.62,0,1.14,0.22,1.58,0.65
		s0.65,0.96,0.65,1.57s-0.22,1.14-0.65,1.58s-0.96,0.65-1.58,0.65c-0.61,0-1.13-0.22-1.57-0.65S315.65,71.75,315.65,71.14z"/>
	<path fill="#5A5A5A" d="M327.33,77.45V64.56h2.57l3.05,9.12c0.28,0.85,0.49,1.49,0.62,1.91c0.15-0.47,0.38-1.16,0.69-2.07
		l3.08-8.96h2.29v12.88h-1.64V66.66l-3.74,10.78h-1.54l-3.73-10.97v10.97H327.33z"/>
	<path fill="#5A5A5A" d="M341.59,72.78c0-1.73,0.48-3.01,1.44-3.84c0.8-0.69,1.78-1.04,2.94-1.04c1.28,0,2.33,0.42,3.15,1.26
		s1.22,2,1.22,3.48c0,1.2-0.18,2.15-0.54,2.83c-0.36,0.69-0.88,1.22-1.57,1.6s-1.44,0.57-2.25,0.57c-1.31,0-2.36-0.42-3.17-1.26
		S341.59,74.36,341.59,72.78z M343.21,72.78c0,1.2,0.26,2.09,0.78,2.68c0.52,0.6,1.18,0.89,1.97,0.89c0.79,0,1.44-0.3,1.96-0.9
		s0.78-1.51,0.78-2.73c0-1.15-0.26-2.03-0.79-2.62c-0.52-0.59-1.18-0.89-1.96-0.89c-0.79,0-1.45,0.3-1.97,0.89
		S343.21,71.58,343.21,72.78z"/>
	<path fill="#5A5A5A" d="M352.19,77.45v-9.33h1.42v1.33c0.69-1.03,1.68-1.54,2.97-1.54c0.56,0,1.08,0.1,1.55,0.3
		c0.47,0.2,0.82,0.47,1.06,0.8s0.4,0.72,0.49,1.17c0.06,0.29,0.09,0.81,0.09,1.54v5.74h-1.58v-5.68c0-0.64-0.06-1.13-0.18-1.45
		s-0.34-0.57-0.65-0.77c-0.31-0.19-0.68-0.29-1.1-0.29c-0.67,0-1.26,0.21-1.74,0.64s-0.73,1.24-0.73,2.43v5.1H352.19z"/>
	<path fill="#5A5A5A" d="M365.65,76.03l0.23,1.4c-0.45,0.09-0.84,0.14-1.2,0.14c-0.57,0-1.02-0.09-1.34-0.27s-0.54-0.42-0.67-0.72
		s-0.19-0.92-0.19-1.87v-5.37h-1.16v-1.23h1.16V65.8l1.57-0.95v3.26h1.59v1.23h-1.59v5.46c0,0.45,0.03,0.74,0.08,0.87
		s0.15,0.23,0.27,0.31s0.31,0.11,0.54,0.11C365.13,76.09,365.36,76.07,365.65,76.03z"/>
	<path fill="#5A5A5A" d="M367.18,77.45v-9.33h1.42v1.42c0.36-0.66,0.7-1.1,1.01-1.31s0.65-0.32,1.02-0.32
		c0.53,0,1.08,0.17,1.63,0.51l-0.54,1.47c-0.39-0.23-0.77-0.34-1.16-0.34c-0.35,0-0.66,0.1-0.93,0.31s-0.47,0.5-0.59,0.87
		c-0.18,0.56-0.26,1.18-0.26,1.85v4.89H367.18z"/>
	<path fill="#5A5A5A" d="M379.58,74.44l1.63,0.2c-0.26,0.96-0.74,1.7-1.43,2.22s-1.59,0.79-2.67,0.79c-1.37,0-2.45-0.42-3.25-1.26
		c-0.8-0.84-1.2-2.02-1.2-3.54c0-1.57,0.4-2.79,1.21-3.66s1.86-1.3,3.15-1.3c1.25,0,2.27,0.42,3.06,1.27s1.19,2.04,1.19,3.59
		c0,0.09,0,0.23-0.01,0.42h-6.96c0.06,1.03,0.35,1.81,0.87,2.36s1.17,0.82,1.95,0.82c0.58,0,1.08-0.15,1.49-0.46
		S379.34,75.11,379.58,74.44z M374.39,71.88h5.21c-0.07-0.79-0.27-1.37-0.6-1.77c-0.5-0.61-1.16-0.91-1.96-0.91
		c-0.73,0-1.34,0.24-1.83,0.73S374.44,71.07,374.39,71.88z M376.09,66.95l1.17-2.46h2.07l-1.93,2.46H376.09z"/>
	<path fill="#5A5A5A" d="M389.29,76.3c-0.59,0.5-1.15,0.85-1.69,1.05s-1.12,0.31-1.74,0.31c-1.03,0-1.81-0.25-2.36-0.75
		c-0.55-0.5-0.83-1.14-0.83-1.92c0-0.46,0.1-0.88,0.31-1.25c0.21-0.38,0.48-0.68,0.82-0.91s0.72-0.4,1.14-0.52
		c0.31-0.08,0.78-0.16,1.41-0.24c1.28-0.15,2.22-0.33,2.82-0.54c0.01-0.22,0.01-0.35,0.01-0.41c0-0.64-0.15-1.1-0.45-1.36
		c-0.4-0.36-1-0.54-1.8-0.54c-0.74,0-1.29,0.13-1.65,0.39s-0.62,0.72-0.79,1.38l-1.55-0.21c0.14-0.66,0.37-1.2,0.69-1.6
		c0.32-0.41,0.79-0.72,1.4-0.94c0.61-0.22,1.32-0.33,2.12-0.33c0.8,0,1.44,0.09,1.94,0.28s0.86,0.42,1.1,0.71
		c0.23,0.29,0.4,0.64,0.49,1.08c0.05,0.27,0.08,0.76,0.08,1.46v2.11c0,1.47,0.03,2.4,0.1,2.79c0.07,0.39,0.2,0.76,0.4,1.12h-1.65
		C389.45,77.12,389.34,76.74,389.29,76.3z M389.16,72.76c-0.57,0.23-1.44,0.43-2.58,0.6c-0.65,0.09-1.11,0.2-1.38,0.32
		s-0.48,0.29-0.62,0.51s-0.22,0.48-0.22,0.75c0,0.42,0.16,0.77,0.48,1.05s0.79,0.42,1.4,0.42c0.61,0,1.15-0.13,1.63-0.4
		s0.82-0.63,1.05-1.09c0.17-0.36,0.25-0.88,0.25-1.58V72.76z"/>
	<path fill="#5A5A5A" d="M393.18,77.45V64.56h1.58v12.88H393.18z"/>
	<path fill="#5A5A5A" d="M401.98,71.14c0-0.62,0.22-1.14,0.65-1.57s0.96-0.65,1.57-0.65c0.62,0,1.14,0.22,1.58,0.65
		s0.65,0.96,0.65,1.57s-0.22,1.14-0.65,1.58s-0.96,0.65-1.58,0.65c-0.61,0-1.13-0.22-1.57-0.65S401.98,71.75,401.98,71.14z"/>
	<path fill="#5A5A5A" d="M421.39,75.93v1.52h-8.52c-0.01-0.38,0.05-0.75,0.18-1.1c0.22-0.58,0.56-1.15,1.04-1.71
		s1.17-1.21,2.07-1.95c1.4-1.15,2.35-2.06,2.84-2.73s0.74-1.31,0.74-1.9c0-0.63-0.22-1.16-0.67-1.59c-0.45-0.43-1.03-0.65-1.75-0.65
		c-0.76,0-1.37,0.23-1.83,0.69s-0.69,1.09-0.69,1.9l-1.63-0.17c0.11-1.21,0.53-2.14,1.26-2.77c0.73-0.63,1.7-0.95,2.93-0.95
		c1.24,0,2.21,0.34,2.94,1.03s1.08,1.54,1.08,2.55c0,0.52-0.11,1.02-0.32,1.52s-0.56,1.02-1.05,1.57s-1.3,1.31-2.44,2.27
		c-0.95,0.8-1.56,1.34-1.83,1.62s-0.49,0.57-0.67,0.86H421.39z"/>
	<path fill="#5A5A5A" d="M423.09,71.09c0-1.52,0.16-2.75,0.47-3.68c0.31-0.93,0.78-1.64,1.4-2.15s1.4-0.76,2.33-0.76
		c0.69,0,1.3,0.14,1.82,0.42s0.95,0.68,1.29,1.2c0.34,0.53,0.61,1.16,0.8,1.92c0.19,0.75,0.29,1.77,0.29,3.05
		c0,1.51-0.16,2.73-0.47,3.66s-0.77,1.65-1.39,2.15c-0.62,0.51-1.4,0.76-2.34,0.76c-1.24,0-2.22-0.45-2.93-1.34
		C423.51,75.26,423.09,73.51,423.09,71.09z M424.71,71.09c0,2.12,0.25,3.52,0.74,4.22s1.11,1.05,1.83,1.05s1.34-0.35,1.83-1.05
		s0.74-2.11,0.74-4.22c0-2.12-0.25-3.53-0.74-4.23s-1.11-1.05-1.85-1.05c-0.73,0-1.31,0.31-1.74,0.92
		C424.99,67.53,424.71,68.98,424.71,71.09z"/>
	<path fill="#5A5A5A" d="M441.41,75.93v1.52h-8.52c-0.01-0.38,0.05-0.75,0.18-1.1c0.22-0.58,0.56-1.15,1.04-1.71
		s1.17-1.21,2.07-1.95c1.4-1.15,2.35-2.06,2.84-2.73s0.74-1.31,0.74-1.9c0-0.63-0.22-1.16-0.67-1.59c-0.45-0.43-1.03-0.65-1.75-0.65
		c-0.76,0-1.37,0.23-1.83,0.69s-0.69,1.09-0.69,1.9l-1.63-0.17c0.11-1.21,0.53-2.14,1.26-2.77c0.73-0.63,1.7-0.95,2.93-0.95
		c1.24,0,2.21,0.34,2.94,1.03s1.08,1.54,1.08,2.55c0,0.52-0.11,1.02-0.32,1.52s-0.56,1.02-1.05,1.57s-1.3,1.31-2.44,2.27
		c-0.95,0.8-1.56,1.34-1.83,1.62s-0.49,0.57-0.67,0.86H441.41z"/>
	<path fill="#5A5A5A" d="M443.12,74.05l1.58-0.21c0.18,0.9,0.49,1.54,0.93,1.94c0.44,0.39,0.97,0.59,1.6,0.59
		c0.74,0,1.37-0.26,1.89-0.77s0.77-1.15,0.77-1.92c0-0.73-0.24-1.33-0.71-1.8c-0.47-0.47-1.08-0.71-1.81-0.71
		c-0.3,0-0.67,0.06-1.12,0.18l0.18-1.39c0.11,0.01,0.19,0.02,0.25,0.02c0.67,0,1.28-0.18,1.82-0.53s0.81-0.89,0.81-1.63
		c0-0.58-0.2-1.06-0.59-1.44s-0.9-0.57-1.52-0.57c-0.62,0-1.13,0.19-1.54,0.58s-0.67,0.97-0.79,1.74l-1.58-0.28
		c0.19-1.06,0.63-1.88,1.32-2.46s1.54-0.88,2.56-0.88c0.7,0,1.35,0.15,1.94,0.45s1.04,0.71,1.36,1.23s0.47,1.08,0.47,1.66
		c0,0.56-0.15,1.06-0.45,1.52s-0.74,0.82-1.33,1.09c0.76,0.18,1.35,0.54,1.78,1.09c0.42,0.55,0.63,1.25,0.63,2.08
		c0,1.12-0.41,2.08-1.23,2.86c-0.82,0.78-1.86,1.17-3.11,1.17c-1.13,0-2.07-0.34-2.82-1.01S443.22,75.12,443.12,74.05z"/>
</g>
</svg>
