<?xml version="1.0" encoding="iso-8859-1"?>
<!-- Generator: Adobe Illustrator 29.8.4, SVG Export Plug-In . SVG Version: 9.03 Build 0)  -->
<svg version="1.1" id="Layer_1" xmlns="http://www.w3.org/2000/svg" xmlns:xlink="http://www.w3.org/1999/xlink" x="0px" y="0px"
	 viewBox="0 0 1600 372" enable-background="new 0 0 1600 372" xml:space="preserve">
<rect id="bg-white" fill="#FFFFFF" width="1600" height="372"/>
<line fill="none" stroke="#6F8F82" stroke-width="8" stroke-linecap="round" stroke-miterlimit="10" x1="100" y1="337" x2="1500" y2="337"/>
<circle fill="#FFFFFF" stroke="#000000" stroke-width="3" stroke-miterlimit="10" cx="100" cy="337" r="10"/>
<g>
	<path d="M106.27,317.99l-0.57,2.13l-5.03-1.35l-6.94,2.19l0.68-2.53l4.44-1.34l-3.19-3.34l0.68-2.54l4.9,5.43L106.27,317.99z"/>
	<path d="M97.23,307.92l6.27,1.68c0.55,0.15,0.97,0.23,1.23,0.26c0.27,0.03,0.56,0,0.89-0.1c0.64-0.18,1.25-0.83,1.47-1.63
		c0.21-0.8,0.01-1.67-0.46-2.14c-0.24-0.24-0.47-0.42-0.71-0.53c-0.24-0.11-0.64-0.24-1.2-0.39l-6.27-1.68l0.57-2.13l6.7,1.8
		c1.23,0.33,2.13,0.86,2.7,1.58c0.39,0.52,0.64,1.12,0.75,1.83c0.12,0.71,0.07,1.44-0.13,2.18c-0.2,0.75-0.52,1.4-0.98,1.96
		c-0.45,0.56-0.97,0.97-1.57,1.22c-0.86,0.35-1.9,0.35-3.13,0.02l-6.7-1.8L97.23,307.92z"/>
	<path d="M100.26,296.61l9.1,2.44l0.9-3.37l1.85,0.5l-1.47,5.5l-10.95-2.93L100.26,296.61z"/>
	<path d="M107.6,294.64l0.99-3.7l1.65,0.44l-0.99,3.7L107.6,294.64z"/>
	<path d="M113.11,283.21l-1.2,4.48l2.05,1.61l-0.61,2.27l-9.91-7.74l0.43-1.61l12.42-1.6l-0.61,2.29L113.11,283.21z M111.2,283.42
		l-4.35,0.48l3.51,2.64L111.2,283.42z"/>
	<path d="M107.48,271.19l1.56,3.06l-0.91,0.78l-1.96-2.62L107.48,271.19z M115.19,271.78l-1.43,5.33c1.29,0.29,2.08-0.12,2.37-1.23
		c0.18-0.69,0.01-1.34-0.5-1.95l0.79-1.76c1.31,1.01,1.74,2.36,1.29,4.07c-0.31,1.16-0.9,1.99-1.78,2.5
		c-0.88,0.51-1.88,0.61-3.03,0.31c-1.15-0.31-1.97-0.89-2.48-1.75c-0.51-0.87-0.61-1.86-0.31-2.99s0.89-1.93,1.74-2.4
		s1.88-0.54,3.07-0.22L115.19,271.78z M112.51,276.7l0.9-3.37c-1-0.03-1.62,0.41-1.86,1.31
		C111.32,275.52,111.66,276.29,112.51,276.7z"/>
	<path d="M119.36,269.15l-0.53,1.99l-7.11-1.91l0.53-1.99l1.08,0.29c-0.74-0.72-1-1.53-0.75-2.42c0.08-0.28,0.21-0.55,0.41-0.82
		l1.78,0.78c-0.25,0.25-0.41,0.54-0.49,0.88c-0.3,1.14,0.26,1.9,1.68,2.28L119.36,269.15z"/>
	<path d="M114.05,259.63c0.32-1.2,0.93-2.07,1.83-2.63c0.9-0.56,1.91-0.69,3.04-0.39c1.12,0.3,1.94,0.92,2.43,1.86
		c0.49,0.95,0.58,2.02,0.26,3.23s-0.95,2.08-1.86,2.64c-0.91,0.55-1.92,0.68-3.03,0.38c-1.11-0.3-1.92-0.93-2.41-1.88
		C113.81,261.9,113.73,260.82,114.05,259.63z M115.83,260.13c-0.15,0.55-0.08,1.08,0.2,1.57c0.28,0.5,0.7,0.82,1.25,0.97
		c0.55,0.15,1.08,0.08,1.57-0.21c0.5-0.29,0.82-0.71,0.96-1.26c0.15-0.55,0.08-1.09-0.2-1.58c-0.28-0.5-0.69-0.81-1.25-0.96
		s-1.07-0.08-1.57,0.21C116.29,259.16,115.98,259.58,115.83,260.13z"/>
	<path d="M127.2,255.06l-0.53,1.99l-10.9-2.92l0.53-1.99l0.92,0.25c-0.6-0.82-0.77-1.71-0.51-2.67c0.26-0.96,0.84-1.68,1.74-2.16
		s1.89-0.58,2.96-0.29s1.88,0.87,2.43,1.73c0.55,0.86,0.7,1.77,0.44,2.71c-0.25,0.94-0.85,1.64-1.8,2.1L127.2,255.06z
		 M118.33,250.77c-0.15,0.55-0.08,1.07,0.2,1.57c0.28,0.5,0.7,0.82,1.25,0.96c0.55,0.15,1.08,0.08,1.57-0.21
		c0.5-0.29,0.81-0.7,0.96-1.25c0.15-0.54,0.08-1.07-0.21-1.57c-0.28-0.5-0.69-0.82-1.24-0.97c-0.55-0.15-1.07-0.08-1.57,0.21
		S118.48,250.22,118.33,250.77z"/>
	<path d="M119.03,241.01c0.32-1.19,0.93-2.07,1.83-2.63c0.9-0.56,1.91-0.69,3.03-0.39s1.94,0.92,2.43,1.86
		c0.49,0.95,0.58,2.02,0.26,3.23c-0.32,1.21-0.94,2.08-1.86,2.64c-0.91,0.55-1.92,0.68-3.03,0.38s-1.92-0.93-2.41-1.88
		C118.79,243.28,118.71,242.2,119.03,241.01z M120.82,241.51c-0.15,0.55-0.08,1.08,0.2,1.57c0.28,0.5,0.7,0.82,1.25,0.97
		s1.08,0.08,1.57-0.21c0.5-0.29,0.82-0.71,0.97-1.26c0.15-0.55,0.08-1.09-0.2-1.58c-0.28-0.5-0.69-0.81-1.25-0.96
		c-0.55-0.15-1.07-0.08-1.57,0.21C121.28,240.54,120.96,240.96,120.82,241.51z"/>
	<path d="M128.39,235.42l-0.53,1.99l-7.11-1.91l0.53-1.99l1.08,0.29c-0.74-0.72-1-1.53-0.75-2.42c0.08-0.28,0.21-0.55,0.41-0.82
		l1.78,0.78c-0.25,0.25-0.41,0.54-0.5,0.88c-0.3,1.14,0.26,1.9,1.68,2.28L128.39,235.42z"/>
	<path d="M124.72,227.6l5.39,1.44l-0.53,1.99l-5.39-1.44l-0.21,0.79l-1.72-0.46l0.21-0.79l-2.43-0.65l0.53-1.99l2.43,0.65l0.38-1.41
		l1.72,0.46L124.72,227.6z"/>
	<path d="M126.05,225.81l0.99-3.7l1.65,0.44l-0.99,3.7L126.05,225.81z"/>
	<path d="M131.81,222.68l-10.61-5.03l0.39-1.46l7.96-1.07l-6.33-5.02l0.4-1.48l11.64,1.16l-0.58,2.16l-7.02-0.82l6.09,4.85
		l-0.16,0.59l-7.68,1.06l6.46,2.91L131.81,222.68z"/>
	<path d="M129.36,202.47c0.32-1.19,0.93-2.07,1.83-2.63c0.9-0.56,1.91-0.69,3.04-0.39s1.94,0.92,2.43,1.86
		c0.49,0.95,0.58,2.02,0.26,3.23c-0.32,1.21-0.94,2.08-1.86,2.64c-0.91,0.55-1.92,0.68-3.03,0.38c-1.11-0.3-1.92-0.93-2.41-1.87
		C129.12,204.75,129.04,203.67,129.36,202.47z M131.14,202.98c-0.15,0.55-0.08,1.08,0.2,1.57c0.28,0.5,0.7,0.82,1.25,0.97
		s1.08,0.08,1.57-0.21c0.5-0.29,0.82-0.71,0.97-1.26c0.15-0.55,0.08-1.09-0.2-1.58c-0.28-0.5-0.69-0.81-1.25-0.96
		c-0.55-0.15-1.07-0.08-1.57,0.21C131.61,202,131.29,202.42,131.14,202.98z"/>
	<path d="M131.08,196.97l0.53-1.99l0.89,0.24c-0.65-0.83-0.78-1.57-0.52-2.53c0.23-0.87,0.7-1.49,1.41-1.84
		c0.53-0.26,1.23-0.27,2.12-0.03l4.51,1.21l-0.53,1.99l-3.95-1.06c-0.54-0.15-0.95-0.19-1.2-0.11c-0.43,0.11-0.72,0.44-0.87,1.01
		c-0.27,1,0.25,1.68,1.57,2.04l3.68,0.99l-0.53,1.99L131.08,196.97z"/>
	<path d="M135.68,186.68l5.39,1.44l-0.53,1.99l-5.39-1.44l-0.21,0.79l-1.72-0.46l0.21-0.79l-2.43-0.65l0.53-1.99l2.43,0.65
		l0.38-1.41l1.72,0.46L135.68,186.68z"/>
	<path d="M142.28,183.59l-0.53,1.99l-7.11-1.91l0.53-1.99l1.08,0.29c-0.74-0.72-1-1.53-0.75-2.42c0.08-0.28,0.21-0.55,0.41-0.82
		l1.78,0.78c-0.25,0.25-0.41,0.54-0.49,0.88c-0.3,1.14,0.26,1.9,1.68,2.28L142.28,183.59z"/>
	<path d="M134.25,171.27l1.56,3.06l-0.91,0.78l-1.96-2.62L134.25,171.27z M141.96,171.86l-1.43,5.33c1.29,0.29,2.08-0.12,2.37-1.23
		c0.19-0.69,0.02-1.34-0.5-1.95l0.79-1.76c1.31,1.01,1.74,2.37,1.29,4.07c-0.31,1.16-0.9,1.99-1.78,2.51
		c-0.88,0.51-1.88,0.61-3.03,0.31s-1.97-0.89-2.48-1.76c-0.51-0.87-0.61-1.86-0.31-2.99c0.3-1.13,0.89-1.93,1.74-2.39
		s1.88-0.54,3.07-0.22L141.96,171.86z M139.29,176.78l0.9-3.37c-1-0.04-1.62,0.41-1.86,1.31
		C138.09,175.6,138.43,176.38,139.29,176.78z"/>
	<path d="M139.95,163.86l0.53-1.99l7.11,1.91l-0.53,1.99l-0.92-0.25c0.6,0.82,0.77,1.71,0.51,2.68c-0.26,0.97-0.84,1.69-1.74,2.16
		c-0.9,0.47-1.89,0.57-2.95,0.28c-1.07-0.29-1.88-0.87-2.43-1.73c-0.55-0.86-0.7-1.77-0.44-2.71c0.25-0.95,0.85-1.64,1.79-2.1
		L139.95,163.86z M141.04,166.05c-0.15,0.56-0.08,1.09,0.2,1.57c0.28,0.5,0.7,0.82,1.25,0.96s1.08,0.08,1.57-0.21
		c0.5-0.29,0.81-0.7,0.96-1.25c0.15-0.54,0.08-1.07-0.21-1.57c-0.28-0.5-0.69-0.81-1.25-0.96c-0.55-0.15-1.07-0.08-1.56,0.19
		C141.5,165.07,141.19,165.49,141.04,166.05z"/>
	<path d="M136.34,156.59l12.3,3.3l-0.53,1.99l-12.3-3.3L136.34,156.59z"/>
	<path d="M144.29,157.71l0.99-3.7l1.65,0.44l-0.99,3.7L144.29,157.71z"/>
	<path d="M151.16,150.47l-0.57,2.14l-9.1-2.44l-0.65,2.45l-1.85-0.5l1.89-7.05l1.85,0.5l-0.66,2.46L151.16,150.47z"/>
	<path d="M152.5,145.44l-0.53,1.99l-7.11-1.91l0.53-1.99l1.08,0.29c-0.74-0.72-1-1.53-0.75-2.42c0.08-0.28,0.21-0.55,0.41-0.82
		l1.78,0.78c-0.25,0.25-0.41,0.54-0.49,0.88c-0.3,1.14,0.26,1.9,1.68,2.28L152.5,145.44z"/>
	<path d="M146.99,137.58l4.03,1.08c1.08,0.29,1.76-0.04,2.02-1.02s-0.16-1.6-1.24-1.89l-4.03-1.08l0.53-1.99l4.35,1.17
		c1.92,0.52,2.66,2.02,2.07,4.23s-1.99,3.16-3.91,2.65l-4.35-1.17L146.99,137.58z"/>
	<path d="M145.08,123.95l0.53-1.99l12.3,3.3l-0.53,1.99l-0.92-0.25c0.6,0.82,0.77,1.71,0.51,2.68s-0.84,1.69-1.74,2.16
		c-0.9,0.47-1.89,0.57-2.95,0.28c-1.07-0.29-1.88-0.87-2.43-1.73c-0.55-0.86-0.69-1.77-0.44-2.71c0.25-0.95,0.85-1.65,1.79-2.1
		L145.08,123.95z M151.36,127.53c-0.15,0.56-0.08,1.09,0.2,1.57c0.28,0.5,0.7,0.82,1.25,0.96s1.08,0.08,1.57-0.21
		c0.5-0.29,0.81-0.7,0.96-1.25c0.15-0.55,0.08-1.07-0.21-1.57c-0.28-0.5-0.69-0.81-1.25-0.96c-0.55-0.15-1.07-0.08-1.56,0.19
		C151.83,126.55,151.51,126.98,151.36,127.53z"/>
	<path d="M157.06,115.5l-1.43,5.33c1.29,0.29,2.08-0.12,2.37-1.23c0.18-0.69,0.01-1.34-0.5-1.95l0.79-1.76
		c1.31,1.01,1.74,2.37,1.29,4.08c-0.31,1.16-0.9,1.99-1.78,2.5c-0.88,0.51-1.88,0.61-3.03,0.31c-1.15-0.31-1.97-0.89-2.48-1.75
		c-0.51-0.87-0.61-1.86-0.31-2.99c0.3-1.13,0.89-1.93,1.74-2.4c0.86-0.47,1.88-0.54,3.08-0.22L157.06,115.5z M154.39,120.43
		l0.9-3.37c-1-0.04-1.62,0.41-1.87,1.31C153.19,119.25,153.53,120.02,154.39,120.43z"/>
	<path d="M155.05,107.5l0.53-1.99l7.11,1.91l-0.53,1.99l-0.92-0.25c0.6,0.82,0.77,1.71,0.51,2.68s-0.84,1.69-1.74,2.16
		c-0.9,0.47-1.89,0.57-2.95,0.28c-1.07-0.29-1.88-0.87-2.43-1.73c-0.55-0.86-0.7-1.77-0.44-2.71s0.85-1.65,1.79-2.1L155.05,107.5z
		 M156.14,109.69c-0.15,0.56-0.08,1.09,0.2,1.57c0.28,0.5,0.7,0.82,1.25,0.96s1.08,0.08,1.57-0.21c0.5-0.29,0.81-0.7,0.96-1.25
		c0.15-0.54,0.08-1.07-0.21-1.57c-0.28-0.5-0.69-0.81-1.25-0.96c-0.55-0.15-1.07-0.08-1.56,0.19
		C156.61,108.71,156.29,109.14,156.14,109.69z"/>
	<path d="M156.62,101.62l4.03,1.08c1.08,0.29,1.76-0.04,2.02-1.02s-0.16-1.6-1.24-1.89l-4.03-1.08l0.53-1.99l4.35,1.17
		c1.92,0.52,2.66,2.02,2.07,4.23c-0.59,2.21-1.99,3.16-3.91,2.65l-4.35-1.17L156.62,101.62z"/>
</g>
<circle fill="#FFFFFF" stroke="#000000" stroke-width="3" stroke-miterlimit="10" cx="216.67" cy="337" r="10"/>
<g>
	<path d="M221.53,323.23l-10.61-5.03l0.39-1.46l7.96-1.07l-6.33-5.02l0.39-1.48l11.64,1.16l-0.58,2.16l-7.01-0.82l6.09,4.85
		l-0.16,0.59l-7.68,1.06l6.46,2.91L221.53,323.23z"/>
	<path d="M219.78,301.34l0.53-1.99l7.11,1.91l-0.53,1.99l-0.92-0.25c0.6,0.82,0.77,1.71,0.51,2.68c-0.26,0.97-0.84,1.69-1.74,2.16
		c-0.9,0.47-1.89,0.57-2.95,0.28c-1.07-0.29-1.88-0.87-2.43-1.73c-0.55-0.86-0.7-1.77-0.44-2.71c0.25-0.95,0.85-1.64,1.79-2.1
		L219.78,301.34z M220.86,303.53c-0.15,0.56-0.08,1.09,0.2,1.57c0.28,0.5,0.7,0.82,1.25,0.96c0.55,0.15,1.08,0.08,1.57-0.21
		c0.5-0.29,0.81-0.7,0.96-1.25c0.15-0.54,0.08-1.07-0.21-1.57c-0.28-0.5-0.69-0.81-1.25-0.96c-0.55-0.15-1.07-0.08-1.56,0.19
		C221.33,302.56,221.01,302.98,220.86,303.53z"/>
	<path d="M228.46,297.37l-0.53,1.99l-7.11-1.91l0.53-1.99l1.08,0.29c-0.74-0.72-1-1.53-0.75-2.42c0.08-0.28,0.21-0.55,0.41-0.82
		l1.78,0.78c-0.25,0.25-0.41,0.54-0.49,0.88c-0.3,1.14,0.26,1.9,1.68,2.28L228.46,297.37z"/>
	<path d="M218.48,289.36c0.09-0.33,0.28-0.58,0.57-0.75c0.29-0.17,0.61-0.21,0.93-0.12c0.33,0.09,0.59,0.29,0.76,0.58
		c0.18,0.3,0.22,0.62,0.13,0.95c-0.09,0.33-0.28,0.58-0.58,0.75c-0.29,0.17-0.62,0.21-0.94,0.12s-0.59-0.29-0.75-0.59
		C218.43,290.01,218.4,289.69,218.48,289.36z M222.94,289.51l7.11,1.91l-0.53,1.98l-7.11-1.91L222.94,289.51z"/>
	<path d="M229.2,281.69l-1.43,5.33c1.29,0.29,2.08-0.12,2.37-1.23c0.19-0.69,0.02-1.34-0.5-1.95l0.79-1.76
		c1.31,1.01,1.74,2.36,1.29,4.07c-0.31,1.16-0.9,1.99-1.78,2.5c-0.88,0.51-1.88,0.61-3.03,0.31c-1.15-0.31-1.97-0.89-2.48-1.75
		s-0.61-1.86-0.31-2.99s0.89-1.93,1.74-2.4s1.88-0.54,3.07-0.22L229.2,281.69z M226.52,286.61l0.9-3.37c-1-0.04-1.62,0.41-1.86,1.31
		C225.33,285.43,225.67,286.21,226.52,286.61z"/>
	<path d="M228.18,280.06l0.99-3.7l1.65,0.44l-0.99,3.7L228.18,280.06z"/>
	<path d="M228.44,265.42c-1.05,0.61-1.7,1.41-1.96,2.39c-0.26,0.98-0.12,1.91,0.43,2.8c0.54,0.89,1.36,1.48,2.42,1.77
		c1.07,0.29,2.05,0.18,2.95-0.33c0.9-0.5,1.48-1.27,1.76-2.3c0.14-0.51,0.17-0.99,0.09-1.44c-0.08-0.45-0.27-0.95-0.58-1.51
		l2.51,0.67c0.18,1.04,0.16,1.98-0.08,2.85c-0.43,1.62-1.35,2.84-2.74,3.66s-2.89,1.02-4.48,0.6c-1.6-0.43-2.8-1.35-3.63-2.79
		s-1.02-2.95-0.6-4.54c0.24-0.89,0.7-1.72,1.39-2.5L228.44,265.42z"/>
	<path d="M230.32,262l4.03,1.08c1.08,0.29,1.76-0.04,2.02-1.01s-0.16-1.6-1.24-1.89l-4.03-1.08l0.53-1.99l4.35,1.17
		c1.92,0.52,2.66,2.02,2.07,4.23c-0.59,2.21-1.99,3.16-3.91,2.65l-4.35-1.17L230.32,262z"/>
	<path d="M239.78,255.13l-0.53,1.99l-7.11-1.91l0.53-1.99l1.08,0.29c-0.74-0.72-1-1.53-0.75-2.42c0.08-0.28,0.21-0.55,0.41-0.82
		l1.78,0.78c-0.25,0.25-0.41,0.54-0.49,0.88c-0.3,1.14,0.26,1.9,1.67,2.28L239.78,255.13z"/>
	<path d="M229.8,247.12c0.09-0.33,0.28-0.58,0.57-0.75c0.29-0.17,0.61-0.21,0.93-0.12c0.33,0.09,0.59,0.29,0.76,0.58
		c0.18,0.3,0.22,0.62,0.13,0.95c-0.09,0.33-0.28,0.58-0.58,0.75c-0.29,0.17-0.62,0.21-0.94,0.12s-0.58-0.29-0.75-0.59
		C229.75,247.77,229.71,247.45,229.8,247.12z M234.26,247.27l7.11,1.91l-0.53,1.98l-7.11-1.91L234.26,247.27z"/>
	<path d="M240.52,239.45l-1.43,5.33c1.29,0.29,2.08-0.12,2.37-1.23c0.18-0.69,0.01-1.34-0.5-1.95l0.79-1.76
		c1.31,1.01,1.74,2.37,1.29,4.08c-0.31,1.16-0.9,1.99-1.78,2.5c-0.88,0.51-1.88,0.61-3.03,0.31c-1.15-0.31-1.97-0.89-2.48-1.75
		c-0.51-0.87-0.61-1.86-0.31-2.99c0.3-1.13,0.89-1.93,1.74-2.4c0.86-0.47,1.88-0.54,3.08-0.22L240.52,239.45z M237.84,244.38
		l0.9-3.37c-1-0.04-1.62,0.41-1.86,1.31C236.65,243.2,236.99,243.97,237.84,244.38z"/>
</g>
<circle fill="#FFFFFF" stroke="#000000" stroke-width="3" stroke-miterlimit="10" cx="333.33" cy="337" r="10"/>
<g>
	<path d="M332.47,312.59c-1.05,0.61-1.7,1.41-1.96,2.39c-0.26,0.98-0.12,1.91,0.43,2.8c0.54,0.89,1.36,1.48,2.42,1.77
		c1.07,0.29,2.05,0.18,2.95-0.33c0.9-0.5,1.48-1.27,1.76-2.3c0.14-0.51,0.17-0.99,0.09-1.44c-0.08-0.45-0.27-0.95-0.58-1.51
		l2.51,0.67c0.18,1.04,0.16,1.98-0.08,2.85c-0.43,1.62-1.35,2.84-2.74,3.66c-1.4,0.82-2.89,1.02-4.48,0.6
		c-1.6-0.43-2.8-1.35-3.63-2.79c-0.83-1.43-1.02-2.95-0.6-4.54c0.24-0.89,0.7-1.72,1.39-2.5L332.47,312.59z"/>
	<path d="M331.82,309.68l-1.53-3.38l3.03-2.22l0.71,1.28l-2,1.38l1.04,2.2L331.82,309.68z M334.58,307.39
		c0.32-1.2,0.93-2.07,1.83-2.63c0.9-0.56,1.91-0.69,3.04-0.39c1.12,0.3,1.94,0.92,2.43,1.86c0.49,0.95,0.58,2.02,0.26,3.23
		c-0.33,1.21-0.95,2.08-1.86,2.64c-0.91,0.55-1.92,0.68-3.03,0.38c-1.11-0.3-1.92-0.93-2.41-1.88
		C334.34,309.66,334.26,308.58,334.58,307.39z M336.36,307.89c-0.15,0.55-0.08,1.08,0.2,1.57c0.28,0.5,0.7,0.82,1.25,0.97
		c0.55,0.15,1.08,0.08,1.57-0.21c0.5-0.29,0.82-0.71,0.96-1.26c0.15-0.55,0.08-1.09-0.2-1.58c-0.28-0.5-0.69-0.81-1.25-0.96
		c-0.55-0.15-1.07-0.08-1.57,0.21C336.83,306.92,336.51,307.34,336.36,307.89z"/>
	<path d="M338.57,300.28l5.39,1.44l-0.53,1.99l-5.39-1.44l-0.21,0.79l-1.72-0.46l0.21-0.79l-2.43-0.65l0.53-1.99l2.43,0.65
		l0.38-1.41l1.72,0.46L338.57,300.28z"/>
	<path d="M343.27,291.39l-1.43,5.33c1.29,0.29,2.08-0.12,2.37-1.23c0.18-0.69,0.01-1.34-0.5-1.95l0.79-1.76
		c1.31,1.01,1.74,2.37,1.29,4.08c-0.31,1.16-0.9,1.99-1.78,2.5s-1.88,0.61-3.03,0.31c-1.15-0.31-1.97-0.89-2.48-1.75
		s-0.61-1.86-0.31-2.99c0.3-1.13,0.89-1.93,1.74-2.4c0.86-0.47,1.88-0.54,3.08-0.22L343.27,291.39z M340.59,296.32l0.9-3.37
		c-1-0.04-1.62,0.41-1.86,1.31C339.39,295.14,339.74,295.91,340.59,296.32z"/>
	<path d="M342.24,289.77l0.99-3.7l1.65,0.44l-0.99,3.7L342.24,289.77z"/>
	<path d="M337.24,277.61l0.53-1.99l12.3,3.3l-0.53,1.99l-0.92-0.25c0.6,0.82,0.77,1.71,0.51,2.68c-0.26,0.97-0.84,1.69-1.74,2.16
		c-0.9,0.47-1.89,0.57-2.95,0.28c-1.07-0.29-1.88-0.87-2.43-1.73c-0.55-0.86-0.7-1.77-0.44-2.71c0.25-0.95,0.85-1.64,1.79-2.1
		L337.24,277.61z M343.52,281.19c-0.15,0.56-0.08,1.08,0.2,1.57c0.28,0.5,0.7,0.82,1.25,0.96c0.55,0.15,1.08,0.08,1.57-0.21
		c0.5-0.29,0.81-0.7,0.96-1.25c0.15-0.54,0.08-1.07-0.21-1.57c-0.28-0.5-0.69-0.81-1.25-0.96c-0.55-0.15-1.07-0.08-1.56,0.19
		C343.98,280.22,343.67,280.64,343.52,281.19z"/>
	<path d="M349.22,269.16l-1.43,5.33c1.29,0.29,2.08-0.12,2.37-1.23c0.18-0.69,0.01-1.34-0.5-1.95l0.79-1.76
		c1.31,1.01,1.74,2.37,1.29,4.07c-0.31,1.16-0.9,1.99-1.78,2.51c-0.88,0.51-1.88,0.61-3.03,0.3c-1.15-0.31-1.97-0.89-2.48-1.75
		c-0.51-0.87-0.61-1.86-0.31-2.99c0.3-1.13,0.89-1.93,1.74-2.39c0.86-0.47,1.88-0.54,3.08-0.22L349.22,269.16z M346.55,274.09
		l0.9-3.37c-1-0.04-1.62,0.41-1.86,1.31C345.35,272.91,345.69,273.68,346.55,274.09z"/>
	<path d="M348.2,267.54l0.99-3.7l1.65,0.44l-0.99,3.7L348.2,267.54z"/>
	<path d="M343.74,258.75l9.1,2.44l0.9-3.37l1.85,0.5l-1.47,5.5l-10.95-2.93L343.74,258.75z"/>
	<path d="M344.87,253.08c0.09-0.33,0.28-0.58,0.57-0.75c0.29-0.17,0.61-0.21,0.93-0.12c0.33,0.09,0.59,0.29,0.76,0.58
		c0.18,0.3,0.22,0.62,0.13,0.95s-0.28,0.58-0.58,0.75s-0.62,0.21-0.94,0.12s-0.59-0.29-0.75-0.59
		C344.82,253.72,344.78,253.41,344.87,253.08z M349.33,253.23l7.11,1.91l-0.53,1.98l-7.11-1.91L349.33,253.23z"/>
	<path d="M355.59,245.4l-1.43,5.33c1.29,0.29,2.08-0.12,2.37-1.23c0.18-0.69,0.01-1.34-0.5-1.95l0.79-1.76
		c1.31,1.01,1.74,2.36,1.29,4.07c-0.31,1.16-0.9,1.99-1.78,2.5c-0.88,0.51-1.88,0.61-3.03,0.31c-1.15-0.31-1.97-0.89-2.48-1.75
		s-0.61-1.86-0.31-2.99s0.89-1.93,1.74-2.4s1.88-0.54,3.07-0.22L355.59,245.4z M352.91,250.33l0.9-3.37c-1-0.03-1.62,0.41-1.86,1.31
		C351.72,249.15,352.06,249.92,352.91,250.33z"/>
	<path d="M354.78,239.53c-0.42,0.33-0.68,0.64-0.76,0.94s-0.08,0.53-0.01,0.71c0.08,0.18,0.21,0.29,0.37,0.34s0.32,0.01,0.47-0.11
		c0.14-0.12,0.38-0.44,0.72-0.94s0.65-0.87,0.92-1.08c0.5-0.42,1.11-0.54,1.82-0.35c0.71,0.19,1.24,0.63,1.56,1.31
		c0.33,0.69,0.38,1.48,0.14,2.35c-0.29,1.08-0.92,1.87-1.91,2.38l-0.93-1.37c0.7-0.4,1.13-0.89,1.28-1.46c0.14-0.5-0.11-1-0.54-1.11
		c-0.22-0.06-0.39-0.04-0.54,0.07c-0.14,0.11-0.4,0.42-0.76,0.94c-0.36,0.52-0.65,0.87-0.88,1.04c-0.46,0.38-1.01,0.49-1.67,0.31
		c-0.67-0.18-1.14-0.56-1.43-1.16c-0.3-0.59-0.33-1.29-0.12-2.09s0.67-1.47,1.36-2.02L354.78,239.53z"/>
	<path d="M356.55,232.93c-0.42,0.33-0.68,0.64-0.76,0.94c-0.08,0.3-0.08,0.53-0.01,0.71c0.08,0.18,0.21,0.3,0.37,0.34
		s0.32,0.01,0.47-0.12c0.15-0.12,0.38-0.44,0.72-0.94c0.34-0.5,0.64-0.87,0.92-1.08c0.5-0.42,1.11-0.54,1.82-0.35
		c0.71,0.19,1.24,0.63,1.56,1.31c0.33,0.69,0.38,1.48,0.14,2.35c-0.29,1.07-0.92,1.87-1.91,2.38l-0.93-1.37
		c0.7-0.4,1.13-0.89,1.29-1.46c0.14-0.5-0.11-1-0.54-1.12c-0.22-0.06-0.39-0.04-0.54,0.07c-0.14,0.11-0.4,0.42-0.76,0.94
		c-0.36,0.52-0.65,0.87-0.88,1.04c-0.46,0.39-1.01,0.49-1.67,0.31c-0.67-0.18-1.14-0.56-1.43-1.16c-0.3-0.59-0.33-1.28-0.12-2.09
		s0.67-1.47,1.36-2.02L356.55,232.93z"/>
	<path d="M361.39,223.77l-1.43,5.33c1.29,0.29,2.08-0.12,2.37-1.23c0.18-0.69,0.01-1.34-0.5-1.95l0.79-1.76
		c1.31,1.01,1.74,2.37,1.29,4.08c-0.31,1.16-0.9,1.99-1.78,2.5c-0.88,0.51-1.88,0.61-3.03,0.31c-1.15-0.31-1.97-0.89-2.48-1.75
		c-0.51-0.87-0.61-1.86-0.31-2.99c0.3-1.13,0.89-1.93,1.74-2.39c0.86-0.47,1.88-0.54,3.08-0.22L361.39,223.77z M358.71,228.7
		l0.9-3.37c-1-0.04-1.62,0.41-1.86,1.31C357.51,227.52,357.86,228.29,358.71,228.7z"/>
</g>
<circle fill="#FFFFFF" stroke="#000000" stroke-width="3" stroke-miterlimit="10" cx="450" cy="337" r="10"/>
<g>
	<path d="M444.36,318.62l8.13-0.95l-6.56-4.93l0.62-2.32l9.97,7.74l-0.31,1.15l-12.48,1.64L444.36,318.62z"/>
	<path d="M446.77,308.21c0.09-0.33,0.28-0.58,0.57-0.75c0.29-0.17,0.61-0.21,0.93-0.12c0.33,0.09,0.58,0.29,0.76,0.58
		c0.18,0.3,0.22,0.62,0.13,0.95c-0.09,0.33-0.28,0.58-0.58,0.75c-0.29,0.17-0.62,0.21-0.94,0.12c-0.33-0.09-0.59-0.29-0.75-0.59
		C446.71,308.86,446.68,308.54,446.77,308.21z M451.23,308.36l7.11,1.91l-0.53,1.98l-7.11-1.91L451.23,308.36z"/>
	<path d="M447.08,303.11l12.3,3.29l-0.53,1.99l-12.3-3.29L447.08,303.11z"/>
	<path d="M448.12,299.22l12.3,3.29l-0.53,1.99l-12.3-3.29L448.12,299.22z"/>
	<path d="M459.57,292.76l-1.43,5.33c1.29,0.29,2.08-0.12,2.37-1.23c0.18-0.69,0.01-1.34-0.5-1.95l0.79-1.76
		c1.31,1.01,1.74,2.37,1.29,4.08c-0.31,1.16-0.9,1.99-1.78,2.5s-1.88,0.61-3.03,0.31c-1.15-0.31-1.97-0.89-2.48-1.75
		c-0.51-0.87-0.61-1.86-0.31-2.99c0.3-1.13,0.89-1.93,1.74-2.39c0.86-0.47,1.88-0.54,3.08-0.22L459.57,292.76z M456.89,297.69
		l0.9-3.37c-1-0.04-1.62,0.41-1.86,1.31C455.69,296.51,456.04,297.28,456.89,297.69z"/>
	<path d="M458.54,291.13l0.99-3.7l1.65,0.44l-0.99,3.7L458.54,291.13z"/>
	<path d="M453.54,278.97l0.53-1.99l12.3,3.3l-0.53,1.99l-0.92-0.25c0.6,0.82,0.77,1.71,0.51,2.68c-0.26,0.97-0.84,1.69-1.74,2.16
		c-0.9,0.47-1.89,0.57-2.95,0.28c-1.07-0.29-1.88-0.87-2.43-1.73c-0.55-0.86-0.7-1.77-0.44-2.71c0.25-0.95,0.85-1.64,1.79-2.1
		L453.54,278.97z M459.82,282.56c-0.15,0.56-0.08,1.08,0.2,1.57c0.28,0.5,0.7,0.82,1.25,0.96c0.55,0.15,1.08,0.08,1.57-0.21
		c0.5-0.29,0.81-0.7,0.96-1.25c0.15-0.54,0.08-1.07-0.21-1.57c-0.28-0.5-0.69-0.81-1.25-0.96c-0.55-0.15-1.07-0.08-1.56,0.19
		C460.29,281.58,459.97,282,459.82,282.56z"/>
	<path d="M465.53,270.52l-1.43,5.33c1.29,0.29,2.08-0.12,2.37-1.23c0.18-0.69,0.01-1.34-0.5-1.95l0.79-1.76
		c1.31,1.01,1.74,2.37,1.29,4.07c-0.31,1.16-0.9,1.99-1.78,2.51c-0.88,0.51-1.88,0.61-3.03,0.3c-1.15-0.31-1.97-0.89-2.48-1.75
		c-0.51-0.87-0.61-1.86-0.31-2.99c0.3-1.13,0.89-1.93,1.74-2.39c0.86-0.47,1.88-0.54,3.08-0.22L465.53,270.52z M462.85,275.45
		l0.9-3.37c-1-0.03-1.62,0.41-1.86,1.31C461.65,274.27,462,275.04,462.85,275.45z"/>
	<path d="M464.5,268.9l0.99-3.7l1.65,0.44l-0.99,3.7L464.5,268.9z"/>
	<path d="M470.26,265.77l-10.61-5.03l0.39-1.46l7.96-1.07l-6.33-5.02l0.39-1.47l11.64,1.16l-0.58,2.16l-7.01-0.82l6.09,4.85
		l-0.16,0.59l-7.68,1.06l6.46,2.91L470.26,265.77z"/>
	<path d="M467.81,245.56c0.32-1.2,0.93-2.07,1.83-2.63c0.9-0.56,1.91-0.69,3.03-0.39c1.12,0.3,1.94,0.92,2.43,1.86
		c0.49,0.95,0.58,2.02,0.26,3.23c-0.33,1.21-0.95,2.08-1.86,2.64c-0.91,0.55-1.92,0.68-3.03,0.38c-1.11-0.3-1.92-0.93-2.41-1.88
		C467.57,247.84,467.49,246.76,467.81,245.56z M469.6,246.07c-0.15,0.55-0.08,1.08,0.2,1.57c0.28,0.5,0.7,0.82,1.25,0.97
		s1.08,0.08,1.57-0.21c0.5-0.29,0.82-0.71,0.96-1.26c0.15-0.55,0.08-1.08-0.2-1.58c-0.28-0.5-0.69-0.81-1.25-0.96
		c-0.55-0.15-1.07-0.08-1.57,0.21C470.06,245.09,469.74,245.51,469.6,246.07z"/>
	<path d="M469.53,240.06l0.53-1.99l0.89,0.24c-0.65-0.83-0.78-1.57-0.52-2.53c0.23-0.87,0.7-1.49,1.41-1.84
		c0.53-0.26,1.23-0.27,2.12-0.03l4.51,1.21l-0.53,1.99l-3.94-1.06c-0.54-0.15-0.95-0.19-1.2-0.11c-0.43,0.11-0.72,0.44-0.87,1.01
		c-0.27,1,0.25,1.68,1.57,2.04l3.68,0.99l-0.53,1.99L469.53,240.06z"/>
	<path d="M474.13,229.77l5.39,1.44l-0.53,1.99l-5.39-1.44l-0.21,0.79l-1.72-0.46l0.21-0.79l-2.43-0.65l0.53-1.99l2.43,0.65
		l0.38-1.41l1.72,0.46L474.13,229.77z"/>
	<path d="M475.46,227.99l0.99-3.7l1.65,0.44l-0.99,3.7L475.46,227.99z"/>
	<path d="M477.56,220.95l4.4,1.18l-0.57,2.13l-10.95-2.93l0.85-3.17c0.33-1.24,0.84-2.1,1.52-2.58c0.79-0.56,1.72-0.7,2.75-0.42
		c1.04,0.28,1.76,0.82,2.15,1.63c0.25,0.5,0.35,1.06,0.29,1.69l5.54-2.21l-0.71,2.63l-5.19,1.77L477.56,220.95z M476.05,220.54
		l0.17-0.63c0.36-1.35-0.05-2.25-1.12-2.53c-1.1-0.29-1.83,0.24-2.19,1.61l-0.18,0.66L476.05,220.54z"/>
	<path d="M477.42,209.71c0.32-1.2,0.93-2.07,1.83-2.63c0.9-0.56,1.91-0.69,3.04-0.39c1.12,0.3,1.94,0.92,2.43,1.86
		c0.49,0.95,0.58,2.02,0.26,3.23c-0.32,1.21-0.94,2.08-1.86,2.64c-0.91,0.55-1.92,0.68-3.03,0.38c-1.11-0.3-1.92-0.93-2.41-1.88
		C477.18,211.98,477.1,210.9,477.42,209.71z M479.2,210.21c-0.15,0.55-0.08,1.08,0.2,1.57c0.28,0.5,0.7,0.82,1.25,0.97
		s1.08,0.08,1.57-0.21c0.5-0.29,0.82-0.71,0.96-1.26c0.15-0.55,0.08-1.09-0.2-1.58c-0.28-0.5-0.69-0.81-1.25-0.96
		c-0.55-0.15-1.07-0.08-1.57,0.21S479.35,209.66,479.2,210.21z"/>
	<path d="M485.7,203.81l-6.93,1.75l0.62-2.32l4.61-1.05l-3.5-3.1l0.61-2.29l9.36,8.67l-0.6,2.25L485.7,203.81z"/>
	<path d="M482.74,190.76l0.53-1.99l7.11,1.91l-0.53,1.99l-0.92-0.25c0.6,0.82,0.77,1.71,0.51,2.68c-0.26,0.97-0.84,1.69-1.74,2.16
		c-0.9,0.47-1.89,0.57-2.95,0.28c-1.07-0.29-1.88-0.86-2.43-1.73c-0.55-0.86-0.7-1.77-0.44-2.71c0.25-0.95,0.85-1.64,1.79-2.1
		L482.74,190.76z M483.83,192.95c-0.15,0.56-0.08,1.09,0.2,1.57c0.28,0.5,0.7,0.82,1.25,0.96s1.08,0.08,1.57-0.21
		c0.5-0.29,0.81-0.7,0.96-1.25c0.15-0.54,0.08-1.07-0.21-1.57c-0.28-0.5-0.69-0.81-1.25-0.96c-0.55-0.15-1.07-0.08-1.56,0.19
		C484.3,191.97,483.98,192.39,483.83,192.95z"/>
	<path d="M479.13,183.49l12.3,3.3l-0.53,1.99l-12.3-3.3L479.13,183.49z"/>
</g>
<circle fill="#FFFFFF" stroke="#000000" stroke-width="3" stroke-miterlimit="10" cx="566.67" cy="337" r="10"/>
<g>
	<path d="M565.8,312.59c-1.05,0.61-1.7,1.41-1.96,2.39c-0.26,0.98-0.12,1.91,0.43,2.8c0.54,0.89,1.36,1.48,2.42,1.77
		c1.07,0.29,2.05,0.18,2.95-0.33c0.9-0.5,1.48-1.27,1.76-2.3c0.14-0.51,0.17-0.99,0.09-1.44c-0.08-0.45-0.27-0.95-0.58-1.51
		l2.51,0.67c0.18,1.04,0.16,1.98-0.08,2.85c-0.43,1.62-1.35,2.84-2.74,3.66c-1.4,0.82-2.89,1.02-4.48,0.6
		c-1.6-0.43-2.8-1.35-3.63-2.79c-0.83-1.43-1.02-2.95-0.6-4.54c0.24-0.89,0.7-1.72,1.39-2.5L565.8,312.59z"/>
	<path d="M568.6,305.73l0.53-1.99l7.11,1.91l-0.53,1.99l-0.92-0.25c0.6,0.82,0.77,1.71,0.51,2.68c-0.26,0.97-0.84,1.69-1.74,2.16
		c-0.9,0.47-1.89,0.57-2.95,0.28s-1.88-0.87-2.43-1.73c-0.55-0.86-0.69-1.77-0.44-2.71c0.25-0.95,0.85-1.65,1.79-2.1L568.6,305.73z
		 M569.69,307.92c-0.15,0.56-0.08,1.09,0.2,1.57c0.28,0.5,0.7,0.82,1.25,0.96s1.08,0.08,1.57-0.21c0.5-0.29,0.82-0.7,0.96-1.25
		c0.15-0.54,0.08-1.07-0.21-1.57c-0.28-0.5-0.69-0.81-1.25-0.96c-0.55-0.15-1.07-0.08-1.56,0.19
		C570.16,306.94,569.84,307.36,569.69,307.92z"/>
	<path d="M569.64,301.84l0.53-1.99l0.89,0.24c-0.65-0.83-0.78-1.57-0.52-2.53c0.23-0.87,0.7-1.49,1.41-1.84
		c0.53-0.26,1.23-0.27,2.12-0.03l4.51,1.21l-0.53,1.99l-3.95-1.06c-0.54-0.15-0.95-0.18-1.2-0.11c-0.43,0.11-0.72,0.44-0.87,1.01
		c-0.27,1,0.25,1.68,1.57,2.04l3.68,0.99l-0.53,1.99L569.64,301.84z"/>
	<path d="M572.76,289.32c0.32-1.2,0.93-2.07,1.83-2.63s1.91-0.69,3.03-0.39c1.12,0.3,1.94,0.92,2.43,1.86
		c0.49,0.95,0.58,2.02,0.26,3.23c-0.32,1.21-0.94,2.08-1.86,2.64c-0.91,0.55-1.92,0.68-3.03,0.38c-1.11-0.3-1.92-0.93-2.41-1.88
		C572.52,291.59,572.44,290.51,572.76,289.32z M574.54,289.82c-0.15,0.55-0.08,1.08,0.2,1.57c0.28,0.5,0.7,0.82,1.25,0.97
		s1.08,0.08,1.57-0.21c0.5-0.29,0.82-0.71,0.97-1.26c0.15-0.55,0.08-1.08-0.2-1.58c-0.28-0.5-0.69-0.81-1.25-0.96
		c-0.55-0.15-1.07-0.08-1.57,0.21C575.01,288.85,574.69,289.27,574.54,289.82z"/>
	<path d="M582.12,283.73l-0.53,1.99l-7.11-1.91l0.53-1.99l1.08,0.29c-0.74-0.72-1-1.53-0.75-2.42c0.08-0.28,0.21-0.55,0.41-0.82
		l1.78,0.78c-0.25,0.25-0.41,0.54-0.49,0.88c-0.31,1.14,0.25,1.9,1.67,2.28L582.12,283.73z"/>
	<path d="M577.5,272.52l0.53-1.99l7.11,1.91l-0.53,1.99l-0.92-0.25c0.6,0.82,0.77,1.71,0.51,2.68c-0.26,0.97-0.84,1.69-1.74,2.16
		c-0.9,0.47-1.89,0.57-2.95,0.28c-1.07-0.29-1.88-0.87-2.43-1.73c-0.55-0.86-0.7-1.77-0.44-2.71c0.25-0.95,0.85-1.64,1.79-2.1
		L577.5,272.52z M578.59,274.71c-0.15,0.56-0.08,1.08,0.2,1.57c0.28,0.5,0.7,0.82,1.25,0.96c0.55,0.15,1.08,0.08,1.57-0.21
		c0.5-0.29,0.81-0.7,0.96-1.25c0.15-0.54,0.08-1.07-0.21-1.57c-0.28-0.5-0.69-0.81-1.25-0.96c-0.55-0.15-1.07-0.08-1.56,0.19
		C579.06,273.73,578.74,274.15,578.59,274.71z"/>
</g>
<circle fill="#FFFFFF" stroke="#000000" stroke-width="3" stroke-miterlimit="10" cx="683.33" cy="337" r="10"/>
<g>
	<path d="M677.29,313.33l1.13,3.24l-1.03,0.65l-1.59-2.83L677.29,313.33z M682.14,314.14l-1.05,3.92l2.44,0.65l1.01-3.78l1.85,0.5
		l-1.01,3.78l2.96,0.79l1.05-3.92l1.85,0.5l-1.62,6.05l-10.95-2.93l1.62-6.05L682.14,314.14z"/>
	<path d="M680.87,306.08l0.53-1.99l12.3,3.3l-0.53,1.99l-0.92-0.25c0.6,0.82,0.77,1.71,0.51,2.68s-0.84,1.69-1.74,2.16
		c-0.9,0.47-1.89,0.57-2.95,0.28c-1.07-0.29-1.88-0.87-2.43-1.73c-0.55-0.86-0.7-1.77-0.44-2.71s0.85-1.64,1.79-2.1L680.87,306.08z
		 M687.15,309.66c-0.15,0.56-0.08,1.09,0.2,1.57c0.28,0.5,0.7,0.82,1.25,0.96c0.55,0.15,1.08,0.08,1.57-0.21
		c0.5-0.29,0.81-0.7,0.96-1.25s0.08-1.07-0.21-1.57c-0.28-0.5-0.69-0.81-1.25-0.96c-0.55-0.15-1.07-0.08-1.56,0.19
		C687.62,308.68,687.3,309.1,687.15,309.66z"/>
	<path d="M687.87,299.8c0.32-1.2,0.93-2.07,1.83-2.63c0.9-0.56,1.91-0.69,3.04-0.39c1.12,0.3,1.94,0.92,2.43,1.86
		c0.49,0.95,0.58,2.02,0.26,3.23s-0.95,2.08-1.86,2.64c-0.91,0.55-1.92,0.68-3.03,0.38c-1.11-0.3-1.92-0.93-2.41-1.88
		C687.63,302.08,687.55,301,687.87,299.8z M689.65,300.31c-0.15,0.55-0.08,1.08,0.2,1.57c0.28,0.5,0.7,0.82,1.25,0.97
		c0.55,0.15,1.08,0.08,1.57-0.21c0.5-0.29,0.82-0.71,0.96-1.26c0.15-0.55,0.08-1.09-0.2-1.58c-0.28-0.5-0.69-0.81-1.25-0.96
		s-1.07-0.08-1.57,0.21C690.12,299.33,689.8,299.75,689.65,300.31z"/>
	<path d="M690.12,292.31l4.03,1.08c1.08,0.29,1.76-0.04,2.02-1.02s-0.16-1.6-1.24-1.89l-4.03-1.08l0.53-1.99l4.35,1.17
		c1.92,0.52,2.66,2.02,2.07,4.23s-1.99,3.16-3.91,2.65l-4.35-1.17L690.12,292.31z"/>
	<path d="M693.4,280.07l0.53-1.99l7.11,1.91l-0.53,1.99l-0.92-0.25c0.6,0.82,0.77,1.71,0.51,2.68c-0.26,0.97-0.84,1.69-1.74,2.16
		c-0.9,0.47-1.89,0.57-2.95,0.28c-1.07-0.29-1.88-0.87-2.43-1.73c-0.55-0.86-0.69-1.77-0.44-2.71c0.25-0.95,0.85-1.64,1.79-2.1
		L693.4,280.07z M694.49,282.26c-0.15,0.56-0.08,1.08,0.2,1.57c0.28,0.5,0.7,0.82,1.25,0.96c0.55,0.15,1.08,0.08,1.57-0.21
		c0.5-0.29,0.82-0.7,0.96-1.25c0.15-0.54,0.08-1.07-0.21-1.57c-0.28-0.5-0.69-0.81-1.25-0.96c-0.55-0.15-1.07-0.08-1.56,0.19
		C694.96,281.28,694.64,281.71,694.49,282.26z"/>
	<path d="M702.09,276.1l-0.53,1.99l-7.11-1.91l0.53-1.99l1.08,0.29c-0.74-0.72-1-1.53-0.75-2.42c0.08-0.28,0.21-0.55,0.41-0.82
		l1.78,0.78c-0.25,0.25-0.41,0.54-0.49,0.88c-0.31,1.14,0.26,1.9,1.67,2.28L702.09,276.1z"/>
	<path d="M692.28,263.49l0.53-1.99l12.3,3.3l-0.53,1.99l-0.92-0.25c0.6,0.82,0.77,1.71,0.51,2.68s-0.84,1.69-1.74,2.16
		c-0.9,0.47-1.89,0.57-2.95,0.28c-1.07-0.29-1.88-0.87-2.43-1.73c-0.55-0.86-0.7-1.77-0.44-2.71s0.85-1.64,1.79-2.1L692.28,263.49z
		 M698.56,267.07c-0.15,0.56-0.08,1.09,0.2,1.57c0.28,0.5,0.7,0.81,1.25,0.96s1.08,0.08,1.57-0.21c0.5-0.29,0.81-0.7,0.96-1.25
		c0.15-0.55,0.08-1.07-0.21-1.57c-0.28-0.5-0.69-0.81-1.25-0.96c-0.55-0.15-1.07-0.08-1.56,0.19
		C699.03,266.1,698.71,266.52,698.56,267.07z"/>
	<path d="M700.77,262.62l0.99-3.7l1.65,0.44l-0.99,3.7L700.77,262.62z"/>
	<path d="M706.54,259.49l-10.61-5.02l0.39-1.46l7.96-1.07l-6.33-5.02l0.4-1.48l11.64,1.16l-0.58,2.16l-7.02-0.82l6.09,4.85
		l-0.16,0.59l-7.68,1.06l6.46,2.91L706.54,259.49z"/>
	<path d="M704.09,239.29c0.32-1.2,0.93-2.07,1.83-2.63c0.9-0.56,1.91-0.69,3.04-0.39s1.94,0.92,2.43,1.86
		c0.49,0.95,0.58,2.02,0.26,3.23s-0.94,2.08-1.86,2.64s-1.92,0.68-3.03,0.38c-1.11-0.3-1.92-0.93-2.41-1.87
		C703.85,241.56,703.77,240.48,704.09,239.29z M705.87,239.79c-0.15,0.55-0.08,1.08,0.2,1.57c0.28,0.5,0.7,0.82,1.25,0.97
		c0.55,0.15,1.08,0.08,1.57-0.21c0.5-0.29,0.82-0.71,0.97-1.26c0.15-0.55,0.08-1.09-0.2-1.58c-0.28-0.5-0.69-0.81-1.25-0.96
		c-0.55-0.15-1.07-0.08-1.57,0.21C706.34,238.81,706.02,239.23,705.87,239.79z"/>
	<path d="M705.8,233.78l0.53-1.99l0.89,0.24c-0.65-0.83-0.78-1.57-0.52-2.53c0.23-0.87,0.7-1.49,1.41-1.84
		c0.53-0.26,1.23-0.27,2.12-0.03l4.51,1.21l-0.53,1.99l-3.95-1.06c-0.54-0.15-0.95-0.19-1.2-0.11c-0.43,0.11-0.72,0.44-0.87,1.01
		c-0.27,1,0.25,1.68,1.57,2.04l3.68,0.99l-0.53,1.99L705.8,233.78z"/>
	<path d="M710.41,223.49l5.39,1.44l-0.53,1.99l-5.39-1.44l-0.21,0.79l-1.72-0.46l0.21-0.79l-2.43-0.65l0.53-1.99l2.43,0.65
		l0.38-1.41l1.72,0.46L710.41,223.49z"/>
	<path d="M720.8,221.41l-0.53,1.99l-10.9-2.92l0.53-1.99l0.92,0.25c-0.6-0.82-0.77-1.71-0.51-2.67c0.26-0.96,0.84-1.68,1.74-2.16
		c0.9-0.48,1.89-0.58,2.96-0.29s1.88,0.87,2.43,1.73c0.55,0.86,0.7,1.77,0.44,2.71c-0.25,0.94-0.85,1.65-1.8,2.1L720.8,221.41z
		 M711.94,217.13c-0.15,0.55-0.08,1.07,0.2,1.57s0.7,0.82,1.25,0.96s1.08,0.08,1.57-0.21c0.5-0.29,0.81-0.7,0.96-1.25
		c0.15-0.54,0.08-1.07-0.21-1.57c-0.28-0.5-0.69-0.82-1.24-0.97c-0.55-0.15-1.07-0.08-1.57,0.21
		C712.41,216.16,712.09,216.58,711.94,217.13z"/>
	<path d="M717.62,205.19l-1.43,5.33c1.29,0.29,2.08-0.12,2.37-1.23c0.18-0.69,0.01-1.34-0.5-1.95l0.79-1.76
		c1.31,1.01,1.74,2.37,1.29,4.08c-0.31,1.16-0.9,1.99-1.78,2.5c-0.88,0.51-1.88,0.61-3.03,0.31c-1.15-0.31-1.97-0.89-2.48-1.75
		s-0.61-1.86-0.31-2.99c0.3-1.13,0.89-1.93,1.74-2.4c0.86-0.47,1.88-0.54,3.08-0.22L717.62,205.19z M714.95,210.11l0.9-3.37
		c-1-0.04-1.62,0.41-1.86,1.31C713.75,208.93,714.09,209.71,714.95,210.11z"/>
	<path d="M716.44,200.98l5.39,1.44l-0.53,1.99l-5.39-1.44l-0.21,0.79l-1.72-0.46l0.21-0.79l-2.43-0.65l0.53-1.99l2.43,0.65
		l0.38-1.41l1.72,0.46L716.44,200.98z"/>
	<path d="M711.46,195.87c0.09-0.33,0.28-0.58,0.57-0.75c0.29-0.17,0.61-0.21,0.93-0.12c0.33,0.09,0.58,0.29,0.76,0.58
		c0.18,0.3,0.22,0.62,0.13,0.95c-0.09,0.33-0.28,0.58-0.58,0.75c-0.29,0.17-0.62,0.21-0.95,0.12s-0.58-0.29-0.75-0.59
		C711.41,196.52,711.37,196.2,711.46,195.87z M715.92,196.02l7.11,1.91l-0.53,1.98l-7.11-1.91L715.92,196.02z"/>
	<path d="M718.68,192.61l5.39,1.44l-0.53,1.99l-5.39-1.44l-0.21,0.79l-1.72-0.46l0.21-0.79l-2.43-0.65l0.53-1.99l2.43,0.65
		l0.38-1.41l1.72,0.46L718.68,192.61z"/>
</g>
<circle fill="#FFFFFF" stroke="#000000" stroke-width="3" stroke-miterlimit="10" cx="800" cy="337" r="10"/>
<g>
	<path d="M804.87,323.23l-10.61-5.03l0.39-1.46l7.96-1.07l-6.33-5.02l0.39-1.48l11.64,1.16l-0.58,2.16l-7.01-0.82l6.09,4.85
		l-0.16,0.59l-7.68,1.06l6.46,2.91L804.87,323.23z"/>
	<path d="M805.25,302.04c-0.55,0.41-0.89,0.9-1.05,1.47c-0.15,0.57-0.09,1.09,0.18,1.59c0.27,0.49,0.69,0.81,1.27,0.97
		c0.58,0.15,1.1,0.09,1.58-0.2s0.8-0.72,0.96-1.3s0.11-1.17-0.15-1.78l1.93,0.52c0.14,0.67,0.12,1.31-0.04,1.94
		c-0.3,1.11-0.9,1.93-1.83,2.48c-0.91,0.55-1.91,0.68-2.98,0.4c-1.07-0.29-1.87-0.91-2.41-1.85c-0.53-0.94-0.65-1.97-0.35-3.08
		c0.17-0.65,0.48-1.21,0.91-1.69L805.25,302.04z"/>
	<path d="M806.3,294.45l1.34-5c1.44,0.39,2.47,0.88,3.09,1.44c1.6,1.39,2.17,3.36,1.59,5.53c-0.45,1.66-1.35,2.89-2.71,3.69
		c-1.36,0.8-2.87,0.98-4.53,0.53c-1.66-0.45-2.88-1.36-3.68-2.75s-0.97-2.92-0.52-4.61c0.56-2.08,1.83-3.42,3.84-4.01l0.5,2.15
		c-1.26,0.37-2.06,1.17-2.39,2.4c-0.28,1.03-0.15,1.99,0.39,2.86s1.35,1.46,2.44,1.75s2.08,0.2,2.97-0.3s1.47-1.25,1.75-2.28
		c0.21-0.78,0.18-1.48-0.11-2.13c-0.28-0.64-0.76-1.1-1.44-1.36l-0.69,2.57L806.3,294.45z"/>
	<path d="M802.9,285.33c0.09-0.33,0.28-0.58,0.57-0.75c0.29-0.17,0.61-0.21,0.93-0.12c0.33,0.09,0.58,0.29,0.76,0.58
		c0.18,0.3,0.22,0.62,0.13,0.95c-0.09,0.33-0.28,0.58-0.58,0.75c-0.29,0.17-0.62,0.21-0.95,0.12c-0.33-0.09-0.58-0.29-0.75-0.59
		C802.84,285.98,802.81,285.66,802.9,285.33z M807.36,285.49l7.11,1.91l-0.53,1.98l-7.11-1.91L807.36,285.49z"/>
	<path d="M803.21,280.23l12.3,3.29l-0.53,1.99l-12.3-3.29L803.21,280.23z"/>
	<path d="M804.25,276.35l12.3,3.29l-0.53,1.99l-12.3-3.29L804.25,276.35z"/>
</g>
<circle fill="#FFFFFF" stroke="#000000" stroke-width="3" stroke-miterlimit="10" cx="916.67" cy="337" r="10"/>
<g>
	<path d="M917.31,315.55l1.34-5c1.44,0.39,2.47,0.88,3.09,1.44c1.6,1.39,2.17,3.36,1.59,5.53c-0.45,1.66-1.35,2.89-2.71,3.69
		c-1.36,0.8-2.87,0.98-4.53,0.53c-1.66-0.44-2.88-1.36-3.68-2.75c-0.8-1.39-0.97-2.92-0.52-4.61c0.56-2.08,1.83-3.42,3.84-4.01
		l0.5,2.14c-1.26,0.37-2.06,1.17-2.39,2.4c-0.28,1.04-0.15,1.99,0.39,2.86s1.35,1.46,2.44,1.75c1.09,0.29,2.08,0.2,2.97-0.3
		s1.47-1.25,1.75-2.28c0.21-0.78,0.18-1.48-0.11-2.13c-0.28-0.64-0.76-1.1-1.44-1.36l-0.69,2.57L917.31,315.55z"/>
	<path d="M919.32,303.03l0.53-1.99l7.11,1.91l-0.53,1.99l-0.92-0.25c0.6,0.82,0.77,1.71,0.51,2.68c-0.26,0.97-0.84,1.69-1.74,2.16
		c-0.9,0.47-1.89,0.57-2.95,0.28c-1.07-0.29-1.88-0.87-2.43-1.73c-0.55-0.86-0.7-1.77-0.44-2.71c0.25-0.95,0.85-1.64,1.79-2.1
		L919.32,303.03z M920.41,305.22c-0.15,0.56-0.08,1.09,0.2,1.57c0.28,0.5,0.7,0.82,1.25,0.96s1.08,0.08,1.57-0.21
		c0.5-0.29,0.82-0.7,0.96-1.25c0.15-0.55,0.08-1.07-0.21-1.57c-0.28-0.5-0.69-0.81-1.25-0.96c-0.55-0.15-1.07-0.08-1.56,0.19
		C920.88,304.25,920.56,304.67,920.41,305.22z"/>
	<path d="M928.01,299.06l-0.53,1.99l-7.11-1.91l0.53-1.99l1.08,0.29c-0.74-0.72-1-1.53-0.75-2.42c0.08-0.28,0.21-0.55,0.41-0.82
		l1.78,0.78c-0.25,0.25-0.41,0.54-0.49,0.88c-0.3,1.14,0.26,1.9,1.68,2.28L928.01,299.06z"/>
	<path d="M927.69,287.33l-1.43,5.33c1.29,0.29,2.08-0.12,2.37-1.23c0.18-0.69,0.01-1.34-0.5-1.95l0.79-1.76
		c1.31,1.01,1.74,2.36,1.29,4.07c-0.31,1.16-0.9,1.99-1.78,2.5c-0.88,0.51-1.88,0.61-3.03,0.31c-1.15-0.31-1.97-0.89-2.48-1.75
		c-0.51-0.87-0.61-1.86-0.31-2.99s0.89-1.93,1.74-2.4c0.86-0.47,1.88-0.54,3.08-0.21L927.69,287.33z M925.01,292.26l0.9-3.37
		c-1-0.03-1.62,0.41-1.86,1.31C923.82,291.08,924.16,291.85,925.01,292.26z"/>
	<path d="M928.92,275.93c-0.55,0.41-0.9,0.9-1.05,1.47s-0.09,1.09,0.18,1.59c0.27,0.49,0.69,0.81,1.27,0.97
		c0.58,0.16,1.1,0.09,1.58-0.2c0.48-0.29,0.8-0.72,0.96-1.3c0.16-0.58,0.11-1.17-0.15-1.78l1.93,0.52c0.14,0.67,0.12,1.3-0.04,1.94
		c-0.3,1.11-0.9,1.93-1.83,2.48c-0.91,0.55-1.91,0.68-2.98,0.4c-1.07-0.29-1.87-0.91-2.41-1.85c-0.53-0.94-0.65-1.97-0.35-3.08
		c0.17-0.65,0.48-1.21,0.91-1.69L928.92,275.93z"/>
	<path d="M932.9,267.88l-1.43,5.33c1.29,0.29,2.08-0.12,2.37-1.23c0.18-0.69,0.01-1.34-0.5-1.95l0.79-1.76
		c1.31,1.01,1.74,2.37,1.29,4.08c-0.31,1.16-0.9,1.99-1.78,2.5c-0.88,0.51-1.88,0.61-3.03,0.3c-1.15-0.31-1.97-0.89-2.48-1.75
		c-0.51-0.87-0.61-1.86-0.31-2.99c0.3-1.13,0.89-1.93,1.74-2.4c0.86-0.47,1.88-0.54,3.08-0.22L932.9,267.88z M930.22,272.81
		l0.9-3.37c-1-0.04-1.62,0.41-1.86,1.31C929.03,271.63,929.37,272.4,930.22,272.81z"/>
	<path d="M929.42,265.33l0.53-1.99l0.89,0.24c-0.65-0.83-0.78-1.57-0.52-2.53c0.23-0.87,0.7-1.49,1.41-1.84
		c0.53-0.26,1.23-0.27,2.12-0.03l4.51,1.21l-0.53,1.99l-3.95-1.06c-0.54-0.15-0.95-0.19-1.2-0.11c-0.43,0.11-0.72,0.44-0.87,1.01
		c-0.27,1,0.25,1.68,1.57,2.04l3.68,0.99l-0.53,1.99L929.42,265.33z"/>
	<path d="M934.03,255.04l5.39,1.44l-0.53,1.99l-5.39-1.44l-0.21,0.79l-1.72-0.46l0.21-0.79l-2.43-0.65l0.53-1.99l2.43,0.65
		l0.38-1.41l1.72,0.46L934.03,255.04z"/>
	<path d="M940.63,251.95l-0.53,1.99l-7.11-1.91l0.53-1.99l1.08,0.29c-0.74-0.72-1-1.53-0.75-2.42c0.08-0.28,0.21-0.55,0.41-0.82
		l1.78,0.78c-0.25,0.25-0.41,0.54-0.49,0.88c-0.3,1.14,0.26,1.9,1.68,2.28L940.63,251.95z"/>
	<path d="M936.02,240.73l0.53-1.99l7.11,1.91l-0.53,1.99l-0.92-0.25c0.6,0.82,0.77,1.71,0.51,2.68s-0.84,1.69-1.74,2.16
		c-0.9,0.47-1.89,0.57-2.95,0.28c-1.07-0.29-1.88-0.87-2.43-1.73c-0.55-0.86-0.69-1.77-0.44-2.71c0.25-0.95,0.85-1.64,1.79-2.1
		L936.02,240.73z M937.11,242.92c-0.15,0.56-0.08,1.08,0.2,1.57c0.28,0.5,0.7,0.82,1.25,0.96c0.55,0.15,1.08,0.08,1.57-0.21
		c0.5-0.29,0.82-0.7,0.96-1.25c0.15-0.54,0.08-1.07-0.21-1.57c-0.28-0.5-0.69-0.81-1.25-0.96c-0.55-0.15-1.07-0.08-1.56,0.19
		C937.57,241.95,937.25,242.37,937.11,242.92z"/>
	<path d="M932.4,233.46l12.3,3.3l-0.53,1.99l-12.3-3.3L932.4,233.46z"/>
	<path d="M943.85,227l-1.43,5.33c1.29,0.29,2.08-0.12,2.37-1.23c0.18-0.69,0.01-1.34-0.5-1.95l0.79-1.76
		c1.31,1.01,1.74,2.37,1.29,4.07c-0.31,1.16-0.9,1.99-1.78,2.51c-0.88,0.51-1.88,0.61-3.03,0.3c-1.15-0.31-1.97-0.89-2.48-1.75
		s-0.61-1.86-0.31-2.99c0.3-1.13,0.89-1.93,1.74-2.39c0.86-0.47,1.88-0.54,3.08-0.22L943.85,227z M941.18,231.93l0.9-3.37
		c-1-0.04-1.62,0.41-1.87,1.31C939.98,230.75,940.32,231.52,941.18,231.93z"/>
</g>
<circle fill="#FFFFFF" stroke="#000000" stroke-width="3" stroke-miterlimit="10" cx="1033.33" cy="337" r="10"/>
<g>
	<path d="M1033.98,315.55l1.34-5c1.44,0.39,2.47,0.88,3.09,1.44c1.6,1.39,2.17,3.36,1.59,5.53c-0.45,1.66-1.35,2.89-2.71,3.69
		c-1.36,0.8-2.87,0.98-4.53,0.53s-2.88-1.36-3.68-2.75c-0.8-1.39-0.97-2.92-0.52-4.61c0.56-2.08,1.84-3.42,3.84-4.01l0.5,2.14
		c-1.26,0.37-2.06,1.17-2.39,2.4c-0.28,1.04-0.15,1.99,0.39,2.86s1.35,1.46,2.44,1.75c1.09,0.29,2.08,0.2,2.97-0.3
		c0.89-0.49,1.47-1.25,1.75-2.28c0.21-0.78,0.18-1.48-0.11-2.13c-0.29-0.64-0.76-1.1-1.44-1.36l-0.69,2.57L1033.98,315.55z"/>
	<path d="M1042.16,308.45l-0.53,1.99l-7.11-1.91l0.53-1.99l1.08,0.29c-0.74-0.72-1-1.53-0.75-2.42c0.07-0.28,0.21-0.55,0.41-0.82
		l1.78,0.78c-0.25,0.25-0.41,0.54-0.49,0.88c-0.3,1.14,0.26,1.9,1.68,2.28L1042.16,308.45z"/>
	<path d="M1032.18,300.44c0.09-0.33,0.28-0.58,0.57-0.75s0.61-0.21,0.93-0.12c0.33,0.09,0.59,0.29,0.76,0.58
		c0.18,0.3,0.22,0.62,0.13,0.95c-0.09,0.33-0.28,0.58-0.58,0.75c-0.29,0.17-0.62,0.21-0.94,0.12c-0.33-0.09-0.59-0.29-0.75-0.59
		C1032.13,301.09,1032.09,300.77,1032.18,300.44z M1036.64,300.59l7.11,1.91l-0.53,1.98l-7.11-1.91L1036.64,300.59z"/>
	<path d="M1039.42,297.13l5.39,1.44l-0.53,1.99l-5.39-1.44l-0.21,0.77l-1.72-0.46l0.21-0.77l-2.28-0.61c-0.94-0.25-1.61-0.66-2-1.24
		c-0.47-0.74-0.6-1.52-0.38-2.35c0.09-0.35,0.27-0.68,0.53-0.98l1.8,0.48c-0.28,0.34-0.45,0.62-0.5,0.84c-0.11,0.39,0,0.69,0.3,0.9
		c0.18,0.15,0.54,0.3,1.06,0.44l1.99,0.53l0.49-1.82l1.72,0.46L1039.42,297.13z"/>
	<path d="M1040.83,291.88l5.39,1.44l-0.53,1.99l-5.39-1.44l-0.21,0.77l-1.72-0.46l0.21-0.77l-2.28-0.61c-0.94-0.25-1.61-0.66-2-1.24
		c-0.47-0.74-0.6-1.52-0.38-2.35c0.1-0.35,0.27-0.68,0.53-0.98l1.8,0.48c-0.28,0.34-0.45,0.62-0.5,0.84
		c-0.11,0.39-0.01,0.69,0.3,0.91c0.18,0.15,0.54,0.3,1.06,0.44l1.99,0.53l0.49-1.82l1.72,0.46L1040.83,291.88z"/>
	<path d="M1035.95,286.37c0.09-0.33,0.28-0.58,0.57-0.75c0.29-0.17,0.61-0.21,0.93-0.12s0.58,0.29,0.76,0.58
		c0.18,0.3,0.22,0.62,0.13,0.95c-0.09,0.33-0.29,0.58-0.58,0.75c-0.29,0.17-0.62,0.21-0.95,0.12c-0.33-0.09-0.59-0.29-0.75-0.59
		C1035.9,287.01,1035.86,286.7,1035.95,286.37z M1040.41,286.52l7.11,1.91l-0.53,1.98l-7.11-1.91L1040.41,286.52z"/>
	<path d="M1040.92,284.65l0.53-1.99l0.89,0.24c-0.65-0.83-0.78-1.57-0.52-2.53c0.23-0.87,0.7-1.49,1.41-1.84
		c0.53-0.26,1.23-0.27,2.12-0.03l4.52,1.21l-0.53,1.99l-3.95-1.06c-0.54-0.15-0.95-0.19-1.2-0.11c-0.43,0.11-0.72,0.44-0.87,1.01
		c-0.27,1,0.25,1.68,1.57,2.04l3.68,0.99l-0.53,1.99L1040.92,284.65z"/>
	<path d="M1045.52,274.36l5.39,1.44l-0.53,1.99l-5.39-1.44l-0.21,0.79l-1.72-0.46l0.21-0.79l-2.43-0.65l0.53-1.99l2.43,0.65
		l0.38-1.41l1.72,0.46L1045.52,274.36z"/>
	<path d="M1045.22,267.68c0.32-1.19,0.93-2.07,1.83-2.63c0.9-0.56,1.91-0.69,3.04-0.39c1.12,0.3,1.94,0.92,2.43,1.86
		c0.49,0.95,0.58,2.02,0.26,3.23c-0.32,1.21-0.94,2.08-1.86,2.64s-1.92,0.68-3.03,0.38c-1.11-0.3-1.92-0.93-2.41-1.88
		C1044.98,269.96,1044.9,268.88,1045.22,267.68z M1047,268.19c-0.15,0.55-0.08,1.08,0.2,1.57s0.7,0.82,1.25,0.97
		c0.55,0.15,1.08,0.08,1.57-0.21c0.5-0.29,0.82-0.71,0.96-1.26c0.15-0.55,0.08-1.09-0.2-1.58c-0.28-0.5-0.69-0.81-1.25-0.96
		c-0.55-0.15-1.07-0.08-1.57,0.21C1047.47,267.21,1047.15,267.63,1047,268.19z"/>
	<path d="M1047.19,261.24l4.61-0.77l-3.78-3.09l0.23-0.85l4.88-0.77l-3.66-3.02l0.59-2.22l6.27,5.62l-0.24,0.9l-4.83,0.77l3.81,3.05
		l-0.24,0.91l-8.23,1.7L1047.19,261.24z"/>
	<path d="M1050.32,249.54l0.53-1.99l0.89,0.24c-0.64-0.83-0.78-1.57-0.52-2.53c0.23-0.87,0.7-1.49,1.41-1.84
		c0.53-0.26,1.23-0.27,2.12-0.03l4.52,1.21l-0.53,1.99l-3.95-1.06c-0.54-0.15-0.95-0.18-1.2-0.11c-0.43,0.11-0.72,0.44-0.87,1.01
		c-0.27,1,0.25,1.68,1.57,2.04l3.68,0.99l-0.53,1.99L1050.32,249.54z"/>
	<path d="M1054.93,242.42l0.99-3.7l1.65,0.44l-0.99,3.7L1054.93,242.42z"/>
	<path d="M1060.85,238.69l-10.95-2.93l0.73-2.71c0.33-1.24,0.79-2.07,1.37-2.49c0.69-0.52,1.52-0.65,2.49-0.39
		c0.6,0.16,1.09,0.44,1.45,0.83c0.17,0.21,0.31,0.53,0.45,0.96c0.32-0.62,0.68-1.03,1.07-1.24c0.66-0.38,1.44-0.46,2.33-0.22
		c0.89,0.24,1.54,0.75,1.93,1.54c0.4,0.79,0.44,1.78,0.12,2.97L1060.85,238.69z M1055.03,234.85l0.16-0.61
		c0.3-1.11-0.03-1.79-0.97-2.04c-0.95-0.25-1.57,0.16-1.86,1.25l-0.17,0.64L1055.03,234.85z M1059.7,236.1l0.25-0.92
		c0.38-1.42,0.07-2.27-0.94-2.54c-0.55-0.15-1.02-0.04-1.39,0.31c-0.29,0.26-0.54,0.77-0.74,1.53l-0.21,0.8L1059.7,236.1z"/>
	<path d="M1061.92,221.79l-1.43,5.33c1.29,0.29,2.08-0.12,2.37-1.23c0.18-0.69,0.01-1.34-0.5-1.95l0.79-1.76
		c1.31,1.01,1.74,2.37,1.29,4.08c-0.31,1.16-0.9,1.99-1.78,2.5c-0.88,0.51-1.88,0.61-3.03,0.31c-1.14-0.31-1.97-0.89-2.48-1.75
		c-0.51-0.87-0.61-1.86-0.31-2.99c0.3-1.13,0.89-1.93,1.74-2.39s1.88-0.54,3.07-0.22L1061.92,221.79z M1059.24,226.72l0.9-3.37
		c-1-0.04-1.62,0.41-1.87,1.31C1058.04,225.54,1058.39,226.31,1059.24,226.72z"/>
	<path d="M1066.09,219.16l-0.53,1.99l-7.11-1.91l0.53-1.99l1.08,0.29c-0.74-0.72-1-1.53-0.75-2.42c0.07-0.28,0.21-0.55,0.41-0.82
		l1.78,0.78c-0.25,0.25-0.41,0.54-0.49,0.88c-0.3,1.14,0.26,1.9,1.68,2.28L1066.09,219.16z"/>
	<path d="M1060.04,213.27l0.53-1.99l0.89,0.24c-0.65-0.83-0.78-1.57-0.52-2.53c0.23-0.87,0.7-1.49,1.41-1.84
		c0.53-0.26,1.23-0.27,2.12-0.03l4.52,1.21l-0.53,1.99l-3.95-1.06c-0.54-0.15-0.95-0.19-1.2-0.11c-0.43,0.11-0.72,0.44-0.87,1.01
		c-0.27,1,0.25,1.68,1.57,2.04l3.68,0.99l-0.53,1.99L1060.04,213.27z"/>
	<path d="M1063.85,199.07l0.53-1.99l7.11,1.91l-0.53,1.99l-0.92-0.25c0.6,0.82,0.77,1.71,0.51,2.68s-0.84,1.69-1.74,2.16
		c-0.9,0.47-1.89,0.57-2.96,0.28s-1.88-0.87-2.43-1.73c-0.55-0.86-0.7-1.77-0.44-2.71s0.85-1.64,1.79-2.1L1063.85,199.07z
		 M1064.94,201.26c-0.15,0.56-0.09,1.09,0.2,1.57c0.28,0.5,0.7,0.82,1.26,0.96s1.08,0.08,1.57-0.21c0.5-0.29,0.82-0.7,0.96-1.25
		c0.15-0.54,0.08-1.07-0.21-1.57c-0.28-0.5-0.69-0.81-1.25-0.96c-0.55-0.15-1.07-0.08-1.56,0.19
		C1065.4,200.29,1065.08,200.71,1064.94,201.26z"/>
	<path d="M1072.53,195.1l-0.53,1.99l-7.11-1.91l0.53-1.99l1.08,0.29c-0.74-0.72-1-1.53-0.75-2.42c0.08-0.28,0.21-0.55,0.41-0.82
		l1.78,0.78c-0.25,0.25-0.41,0.54-0.49,0.88c-0.3,1.14,0.26,1.9,1.68,2.28L1072.53,195.1z"/>
	<path d="M1062.73,182.5l0.53-1.99l12.3,3.3l-0.53,1.99l-0.92-0.25c0.6,0.82,0.77,1.71,0.51,2.68s-0.84,1.69-1.74,2.16
		c-0.9,0.47-1.89,0.57-2.95,0.28c-1.07-0.29-1.88-0.87-2.44-1.73c-0.55-0.86-0.69-1.77-0.44-2.71c0.25-0.95,0.85-1.65,1.79-2.1
		L1062.73,182.5z M1069,186.08c-0.15,0.56-0.08,1.09,0.2,1.57c0.28,0.5,0.7,0.82,1.25,0.96s1.08,0.08,1.57-0.21
		c0.5-0.29,0.81-0.7,0.96-1.25c0.15-0.55,0.08-1.07-0.21-1.57c-0.28-0.5-0.69-0.81-1.25-0.96c-0.55-0.15-1.07-0.08-1.56,0.19
		C1069.47,185.1,1069.15,185.52,1069,186.08z"/>
	<path d="M1071.22,181.62l0.99-3.7l1.65,0.44l-0.99,3.7L1071.22,181.62z"/>
	<path d="M1066.76,172.83l9.1,2.44l0.9-3.37l1.85,0.5l-1.47,5.5l-10.95-2.93L1066.76,172.83z"/>
	<path d="M1073.3,163.78l0.53-1.99l7.11,1.91l-0.53,1.99l-0.92-0.25c0.6,0.82,0.77,1.71,0.51,2.68c-0.26,0.97-0.84,1.69-1.74,2.16
		c-0.9,0.47-1.89,0.57-2.96,0.28c-1.07-0.29-1.88-0.87-2.43-1.73c-0.55-0.86-0.7-1.77-0.44-2.71c0.25-0.95,0.85-1.64,1.79-2.1
		L1073.3,163.78z M1074.39,165.98c-0.15,0.56-0.09,1.09,0.2,1.57c0.28,0.5,0.7,0.82,1.26,0.96s1.08,0.08,1.57-0.21
		c0.5-0.29,0.82-0.7,0.96-1.25c0.15-0.54,0.08-1.07-0.21-1.57c-0.28-0.5-0.69-0.81-1.25-0.96c-0.55-0.15-1.07-0.08-1.56,0.19
		C1074.86,165,1074.54,165.42,1074.39,165.98z"/>
	<path d="M1074.34,159.9l0.53-1.99l0.89,0.24c-0.65-0.83-0.78-1.57-0.52-2.53c0.23-0.87,0.7-1.49,1.41-1.84
		c0.53-0.26,1.23-0.27,2.12-0.03l4.51,1.21l-0.53,1.99l-3.95-1.06c-0.54-0.15-0.95-0.19-1.2-0.11c-0.43,0.11-0.72,0.44-0.87,1.01
		c-0.27,1,0.25,1.68,1.57,2.04l3.68,0.99l-0.53,1.99L1074.34,159.9z"/>
	<path d="M1072.96,144.31l0.53-1.99l12.3,3.3l-0.53,1.99l-0.92-0.25c0.6,0.82,0.77,1.71,0.51,2.68c-0.26,0.97-0.84,1.69-1.74,2.16
		c-0.9,0.47-1.89,0.57-2.95,0.28s-1.88-0.87-2.43-1.73s-0.7-1.77-0.44-2.71c0.25-0.95,0.85-1.65,1.79-2.1L1072.96,144.31z
		 M1079.24,147.89c-0.15,0.56-0.08,1.09,0.2,1.57c0.28,0.5,0.7,0.82,1.25,0.96s1.08,0.08,1.57-0.21c0.5-0.29,0.81-0.7,0.96-1.25
		c0.15-0.55,0.08-1.07-0.21-1.57c-0.28-0.5-0.69-0.81-1.25-0.96c-0.55-0.15-1.07-0.08-1.56,0.19
		C1079.7,146.91,1079.38,147.33,1079.24,147.89z"/>
	<path d="M1086.83,141.72l-0.53,1.99l-7.11-1.91l0.53-1.99l1.08,0.29c-0.74-0.72-1-1.53-0.75-2.42c0.07-0.28,0.21-0.55,0.41-0.82
		l1.78,0.78c-0.25,0.25-0.41,0.54-0.49,0.88c-0.3,1.14,0.26,1.9,1.68,2.28L1086.83,141.72z"/>
	<path d="M1087.59,134.58l-6.93,1.75l0.62-2.32l4.61-1.05l-3.5-3.1l0.61-2.29l9.37,8.67l-0.6,2.25L1087.59,134.58z"/>
</g>
<circle fill="#FFFFFF" stroke="#000000" stroke-width="3" stroke-miterlimit="10" cx="1150" cy="337" r="10"/>
<g>
	<path d="M1143.26,320.43l-1.57-3.17l2.96-1.98l0.71,1.28l-1.9,1.18l1.05,1.98L1143.26,320.43z M1146.23,317.32l10.95,2.93
		l-0.57,2.13l-10.95-2.93L1146.23,317.32z"/>
	<path d="M1146,312.77l12.3,3.29l-0.53,1.99l-12.3-3.29L1146,312.77z"/>
	<path d="M1157.45,306.31l-1.43,5.33c1.29,0.29,2.08-0.12,2.37-1.23c0.18-0.69,0.01-1.34-0.5-1.95l0.79-1.76
		c1.31,1.01,1.74,2.37,1.29,4.08c-0.31,1.16-0.9,1.99-1.78,2.5c-0.88,0.51-1.88,0.61-3.03,0.31c-1.15-0.31-1.97-0.89-2.48-1.75
		c-0.51-0.87-0.61-1.86-0.31-2.99c0.3-1.13,0.89-1.93,1.74-2.39c0.86-0.47,1.88-0.54,3.08-0.22L1157.45,306.31z M1154.78,311.24
		l0.9-3.37c-1-0.04-1.62,0.41-1.87,1.31C1153.58,310.06,1153.92,310.83,1154.78,311.24z"/>
	<path d="M1156.43,304.68l0.99-3.7l1.65,0.44l-0.99,3.7L1156.43,304.68z"/>
	<path d="M1151.43,292.53l0.53-1.99l12.3,3.3l-0.53,1.99l-0.92-0.25c0.6,0.82,0.77,1.71,0.51,2.68c-0.26,0.97-0.84,1.69-1.74,2.16
		c-0.9,0.47-1.89,0.57-2.95,0.28c-1.07-0.29-1.88-0.87-2.43-1.73c-0.55-0.86-0.7-1.77-0.44-2.71c0.25-0.95,0.85-1.64,1.79-2.1
		L1151.43,292.53z M1157.7,296.11c-0.15,0.56-0.08,1.08,0.2,1.57c0.28,0.5,0.7,0.82,1.25,0.96c0.55,0.15,1.08,0.08,1.57-0.21
		c0.5-0.29,0.81-0.7,0.96-1.25c0.15-0.54,0.08-1.07-0.21-1.57c-0.28-0.5-0.69-0.81-1.25-0.96c-0.55-0.15-1.07-0.08-1.56,0.19
		C1158.17,295.13,1157.85,295.55,1157.7,296.11z"/>
	<path d="M1163.41,284.08l-1.43,5.33c1.29,0.29,2.08-0.12,2.37-1.23c0.19-0.69,0.02-1.34-0.5-1.95l0.79-1.76
		c1.31,1.01,1.74,2.37,1.29,4.07c-0.31,1.16-0.9,1.99-1.78,2.51c-0.88,0.51-1.88,0.61-3.03,0.3c-1.15-0.31-1.97-0.89-2.48-1.75
		c-0.51-0.87-0.61-1.86-0.31-2.99c0.3-1.13,0.89-1.93,1.74-2.39c0.86-0.47,1.88-0.54,3.08-0.22L1163.41,284.08z M1160.73,289
		l0.9-3.37c-1-0.03-1.62,0.41-1.86,1.31C1159.54,287.82,1159.88,288.59,1160.73,289z"/>
	<path d="M1162.61,278.2c-0.42,0.33-0.68,0.64-0.76,0.94c-0.08,0.3-0.08,0.53-0.01,0.71c0.08,0.18,0.21,0.3,0.37,0.34
		s0.32,0.01,0.47-0.12c0.15-0.12,0.38-0.44,0.72-0.94c0.34-0.5,0.64-0.87,0.92-1.08c0.5-0.42,1.11-0.55,1.82-0.35
		c0.71,0.19,1.24,0.63,1.56,1.31c0.33,0.69,0.38,1.48,0.14,2.35c-0.29,1.07-0.92,1.87-1.91,2.38l-0.93-1.37
		c0.7-0.4,1.13-0.89,1.29-1.46c0.13-0.5-0.11-1-0.54-1.12c-0.22-0.06-0.39-0.04-0.54,0.07c-0.14,0.11-0.39,0.42-0.76,0.94
		c-0.36,0.52-0.66,0.87-0.88,1.04c-0.46,0.38-1.01,0.49-1.67,0.31c-0.67-0.18-1.14-0.56-1.43-1.16c-0.3-0.59-0.33-1.29-0.12-2.09
		s0.67-1.47,1.36-2.02L1162.61,278.2z"/>
	<path d="M1164.09,276.08l0.99-3.7l1.65,0.44l-0.99,3.7L1164.09,276.08z"/>
	<path d="M1162.49,267.8c0.31,0.08,0.6,0.04,0.85-0.14c0.25-0.18,0.66-0.65,1.21-1.42c0.55-0.77,1.04-1.3,1.49-1.6
		c0.72-0.5,1.59-0.61,2.62-0.34c1.04,0.28,1.79,0.86,2.27,1.73c0.48,0.88,0.57,1.89,0.26,3.03c-0.42,1.55-1.45,2.61-3.09,3.2
		l-0.96-1.74c1.11-0.25,1.8-0.88,2.07-1.9c0.13-0.49,0.1-0.94-0.11-1.33c-0.21-0.39-0.53-0.65-0.99-0.77s-0.87-0.03-1.25,0.29
		c-0.19,0.15-0.57,0.64-1.14,1.46c-0.57,0.82-1.14,1.37-1.69,1.66c-0.55,0.29-1.19,0.33-1.91,0.14c-0.92-0.25-1.6-0.77-2.02-1.58
		c-0.43-0.81-0.51-1.7-0.25-2.69c0.33-1.22,1.02-2.18,2.08-2.9l1.16,1.51c-0.73,0.36-1.19,0.88-1.36,1.54
		c-0.12,0.44-0.1,0.83,0.06,1.19C1161.93,267.5,1162.17,267.72,1162.49,267.8z"/>
	<path d="M1171.2,255.01c1.23,0.24,2.12-0.24,2.4-1.29c0.19-0.72,0.01-1.36-0.54-1.92l0.81-1.75c1.32,0.99,1.74,2.37,1.28,4.12
		c-0.32,1.21-1.03,2.03-2.13,2.44c0.38,0.58,0.62,1.13,0.71,1.63c0.09,0.5,0.04,1.09-0.13,1.74c-0.31,1.14-0.91,1.98-1.82,2.53
		c-0.9,0.55-1.9,0.68-3,0.38c-1.09-0.29-1.9-0.91-2.42-1.85c-0.52-0.94-0.62-2-0.31-3.18c0.32-1.18,1.01-2.03,2.07-2.57
		c-0.69-0.88-0.88-1.92-0.55-3.12c0.23-0.87,0.64-1.56,1.22-2.06c0.58-0.49,1.26-0.74,2.07-0.75c0.54-0.01,1.15,0.08,1.81,0.25
		L1171.2,255.01z M1167.83,258.36c-0.14,0.54-0.08,1.04,0.2,1.51c0.28,0.48,0.69,0.79,1.25,0.94c0.55,0.15,1.08,0.09,1.57-0.17
		c0.49-0.26,0.81-0.66,0.96-1.21c0.15-0.54,0.08-1.05-0.22-1.54c-0.29-0.47-0.71-0.78-1.26-0.93c-0.55-0.15-1.08-0.09-1.55,0.19
		C1168.29,257.42,1167.98,257.83,1167.83,258.36z M1170.86,251.19c-1-0.01-1.63,0.42-1.86,1.31s0.08,1.59,0.95,2.1L1170.86,251.19z"
		/>
	<path d="M1169.71,245.05l4.03,1.08c1.08,0.29,1.76-0.04,2.02-1.01c0.26-0.97-0.16-1.6-1.24-1.89l-4.03-1.08l0.53-1.99l4.35,1.17
		c1.92,0.52,2.66,2.02,2.07,4.23s-1.99,3.16-3.91,2.65l-4.35-1.17L1169.71,245.05z"/>
	<path d="M1179.17,238.18l-0.53,1.99l-7.11-1.91l0.53-1.99l1.08,0.29c-0.74-0.72-1-1.53-0.75-2.42c0.08-0.28,0.21-0.55,0.41-0.82
		l1.78,0.78c-0.25,0.25-0.41,0.54-0.49,0.88c-0.3,1.14,0.26,1.9,1.68,2.28L1179.17,238.18z"/>
	<path d="M1175.79,228.97c-0.42,0.33-0.68,0.64-0.76,0.94c-0.08,0.3-0.08,0.53-0.01,0.71c0.08,0.18,0.21,0.3,0.37,0.34
		s0.32,0.01,0.47-0.12c0.14-0.12,0.38-0.44,0.72-0.94c0.34-0.5,0.65-0.87,0.92-1.08c0.5-0.42,1.11-0.54,1.82-0.35
		c0.71,0.19,1.24,0.63,1.57,1.31c0.33,0.69,0.38,1.48,0.14,2.35c-0.29,1.07-0.92,1.87-1.91,2.38l-0.93-1.37
		c0.7-0.41,1.13-0.89,1.28-1.46c0.14-0.5-0.11-1-0.54-1.11c-0.22-0.06-0.39-0.04-0.54,0.07c-0.14,0.11-0.4,0.42-0.76,0.94
		c-0.36,0.52-0.65,0.87-0.88,1.04c-0.46,0.38-1.01,0.49-1.67,0.31c-0.67-0.18-1.14-0.56-1.43-1.16c-0.3-0.59-0.33-1.28-0.12-2.09
		s0.67-1.47,1.36-2.02L1175.79,228.97z"/>
</g>
<circle fill="#FFFFFF" stroke="#000000" stroke-width="3" stroke-miterlimit="10" cx="1266.67" cy="337" r="10"/>
<g>
	<path d="M1268.21,319.41l4.06,1.09l-0.57,2.13l-10.95-2.93l0.86-3.2c0.19-0.71,0.41-1.27,0.64-1.67c0.24-0.4,0.57-0.73,0.97-1
		c0.87-0.57,1.83-0.71,2.86-0.43s1.79,0.81,2.28,1.58s0.56,1.79,0.22,3.05L1268.21,319.41z M1266.36,318.92l0.23-0.87
		c0.36-1.34,0.01-2.15-1.04-2.43c-1.11-0.3-1.77,0.2-2.18,1.7l-0.2,0.74L1266.36,318.92z"/>
	<path d="M1268.23,307.12l0.53-1.99l7.11,1.91l-0.53,1.99l-0.92-0.25c0.6,0.82,0.77,1.71,0.51,2.68c-0.26,0.97-0.84,1.69-1.74,2.16
		c-0.9,0.47-1.89,0.57-2.95,0.28c-1.07-0.29-1.88-0.87-2.43-1.73c-0.55-0.86-0.7-1.77-0.44-2.71c0.25-0.95,0.85-1.64,1.79-2.1
		L1268.23,307.12z M1269.32,309.31c-0.15,0.56-0.08,1.08,0.2,1.57c0.28,0.5,0.7,0.82,1.25,0.96c0.55,0.15,1.08,0.08,1.57-0.21
		c0.5-0.29,0.82-0.7,0.96-1.25c0.15-0.54,0.08-1.07-0.21-1.57c-0.28-0.5-0.69-0.81-1.25-0.96c-0.55-0.15-1.07-0.08-1.56,0.19
		C1269.78,308.34,1269.46,308.76,1269.32,309.31z"/>
	<path d="M1269.27,303.23l0.53-1.99l0.89,0.24c-0.65-0.83-0.78-1.57-0.52-2.53c0.23-0.87,0.7-1.49,1.41-1.84
		c0.53-0.26,1.23-0.27,2.12-0.03l4.51,1.21l-0.53,1.99l-3.95-1.06c-0.54-0.15-0.95-0.19-1.2-0.11c-0.43,0.11-0.72,0.44-0.87,1.01
		c-0.27,1,0.25,1.68,1.57,2.04l3.68,0.99l-0.53,1.99L1269.27,303.23z"/>
	<path d="M1273.07,289.03l0.53-1.99l7.11,1.91l-0.53,1.99l-0.92-0.25c0.6,0.82,0.77,1.71,0.51,2.68c-0.26,0.97-0.84,1.69-1.74,2.16
		c-0.9,0.47-1.89,0.57-2.95,0.28c-1.07-0.29-1.88-0.87-2.43-1.73c-0.55-0.86-0.7-1.77-0.44-2.71c0.25-0.95,0.85-1.65,1.79-2.1
		L1273.07,289.03z M1274.16,291.22c-0.15,0.56-0.08,1.09,0.2,1.57c0.28,0.5,0.7,0.82,1.25,0.96s1.08,0.08,1.57-0.21
		c0.5-0.29,0.81-0.7,0.96-1.25c0.15-0.54,0.08-1.07-0.21-1.57c-0.28-0.5-0.69-0.81-1.25-0.96c-0.55-0.15-1.07-0.08-1.56,0.19
		C1274.63,290.25,1274.31,290.67,1274.16,291.22z"/>
	<path d="M1279.33,279.54l3.65,0.98l-0.53,1.99l-3.78-1.01c-0.55-0.15-0.96-0.21-1.2-0.18c-0.24,0.03-0.45,0.13-0.64,0.29
		c-0.18,0.17-0.3,0.37-0.36,0.59c-0.12,0.45,0.02,0.98,0.4,1.36c0.19,0.19,0.61,0.37,1.24,0.53l3.65,0.98l-0.53,1.99l-7.11-1.91
		l0.53-1.99l0.83,0.22c-0.53-0.8-0.68-1.65-0.44-2.55c0.24-0.9,0.86-1.49,1.86-1.76c-0.72-0.79-0.95-1.66-0.69-2.62
		c0.25-0.95,0.78-1.54,1.58-1.78c0.48-0.14,1.08-0.12,1.83,0.08l4.59,1.23l-0.53,1.99l-3.89-1.04c-0.51-0.14-0.91-0.18-1.18-0.15
		c-0.47,0.07-0.76,0.35-0.89,0.83C1277.45,278.54,1277.99,279.18,1279.33,279.54z"/>
	<path d="M1279.05,266.73l0.53-1.99l7.11,1.91l-0.53,1.99l-0.92-0.25c0.6,0.82,0.77,1.71,0.51,2.68s-0.84,1.69-1.74,2.16
		c-0.9,0.47-1.89,0.57-2.95,0.28c-1.07-0.29-1.88-0.87-2.43-1.73c-0.55-0.86-0.7-1.77-0.44-2.71s0.85-1.64,1.79-2.1L1279.05,266.73z
		 M1280.14,268.92c-0.15,0.56-0.08,1.08,0.2,1.57c0.28,0.5,0.7,0.82,1.25,0.96c0.55,0.15,1.08,0.08,1.57-0.21
		c0.5-0.29,0.81-0.7,0.96-1.25s0.08-1.07-0.21-1.57c-0.28-0.5-0.69-0.81-1.25-0.96c-0.55-0.15-1.07-0.08-1.56,0.19
		C1280.61,267.94,1280.29,268.36,1280.14,268.92z"/>
</g>
<circle fill="#FFFFFF" stroke="#000000" stroke-width="3" stroke-miterlimit="10" cx="1383.33" cy="337" r="10"/>
<g>
	<path d="M1388.36,322.63l-10.95-2.93l0.84-3.13c0.43-1.6,1.2-2.79,2.32-3.58c0.67-0.48,1.42-0.8,2.25-0.94
		c0.83-0.15,1.65-0.11,2.47,0.11c0.82,0.22,1.55,0.6,2.2,1.15c0.65,0.55,1.15,1.21,1.49,1.97c0.58,1.22,0.65,2.63,0.22,4.24
		L1388.36,322.63z M1387.08,320l0.15-0.58c0.35-1.31,0.32-2.35-0.09-3.15c-0.45-0.92-1.39-1.64-2.44-1.93
		c-1.11-0.3-2.13-0.15-3.04,0.46c-0.77,0.5-1.33,1.39-1.67,2.68l-0.15,0.58L1387.08,320z"/>
	<path d="M1384.64,308.07l4.03,1.08c1.08,0.29,1.76-0.04,2.02-1.01c0.26-0.97-0.16-1.6-1.24-1.89l-4.03-1.08l0.53-1.99l4.35,1.17
		c1.92,0.52,2.66,2.02,2.07,4.23s-1.99,3.16-3.91,2.65l-4.35-1.17L1384.64,308.07z"/>
	<path d="M1389.15,297.86c-1.61-0.43-2.82-1.37-3.62-2.8s-0.98-2.98-0.54-4.64c0.45-1.66,1.37-2.9,2.78-3.73
		c1.41-0.83,2.92-1.03,4.54-0.6c1.42,0.38,2.59,1.24,3.49,2.59l2.24-1.3l-0.37,2.2l-1.24,0.64c0.3,1.05,0.3,2.13,0.02,3.24
		c-0.45,1.68-1.37,2.93-2.77,3.78C1392.26,298.09,1390.76,298.29,1389.15,297.86z M1393.78,289.75c-0.48-0.74-1.22-1.24-2.2-1.5
		c-0.99-0.26-1.93-0.14-2.85,0.38c-0.91,0.52-1.51,1.3-1.79,2.33c-0.28,1.04-0.15,2.01,0.39,2.91c0.54,0.91,1.34,1.5,2.42,1.79
		s2.06,0.17,2.96-0.33c0.9-0.51,1.48-1.27,1.76-2.3c0.17-0.62,0.16-1.18-0.02-1.7l-2.64,1.56l0.41-2.26L1393.78,289.75z"/>
	<path d="M1391.65,281.91l4.03,1.08c1.08,0.29,1.76-0.04,2.02-1.01c0.26-0.97-0.16-1.6-1.24-1.89l-4.03-1.08l0.53-1.99l4.35,1.17
		c1.92,0.52,2.66,2.02,2.07,4.23s-1.99,3.16-3.91,2.65l-4.35-1.17L1391.65,281.91z"/>
	<path d="M1394.93,269.67l0.53-1.99l7.11,1.91l-0.53,1.99l-0.92-0.25c0.6,0.82,0.77,1.71,0.51,2.68c-0.26,0.97-0.84,1.69-1.74,2.16
		c-0.9,0.47-1.89,0.57-2.95,0.28c-1.07-0.29-1.88-0.87-2.43-1.73c-0.55-0.86-0.7-1.77-0.44-2.71c0.25-0.95,0.85-1.65,1.79-2.1
		L1394.93,269.67z M1396.02,271.86c-0.15,0.56-0.08,1.09,0.2,1.57c0.28,0.5,0.7,0.82,1.25,0.96c0.55,0.15,1.08,0.08,1.57-0.21
		c0.5-0.29,0.82-0.7,0.96-1.25c0.15-0.54,0.08-1.07-0.21-1.57c-0.28-0.5-0.69-0.81-1.25-0.96c-0.55-0.15-1.07-0.08-1.56,0.19
		C1396.49,270.88,1396.17,271.31,1396.02,271.86z"/>
	<path d="M1403.62,265.7l-0.53,1.99l-7.11-1.91l0.53-1.99l1.08,0.29c-0.74-0.72-1-1.53-0.75-2.42c0.08-0.28,0.21-0.55,0.41-0.82
		l1.78,0.78c-0.25,0.25-0.41,0.54-0.49,0.88c-0.3,1.14,0.26,1.9,1.68,2.28L1403.62,265.7z"/>
	<path d="M1399.94,257.87l5.39,1.44l-0.53,1.99l-5.39-1.44l-0.21,0.79l-1.72-0.46l0.21-0.79l-2.43-0.65l0.53-1.99l2.43,0.65
		l0.38-1.41l1.72,0.46L1399.94,257.87z"/>
	<path d="M1394.96,252.76c0.09-0.33,0.28-0.58,0.57-0.75c0.29-0.17,0.61-0.21,0.93-0.12c0.33,0.09,0.59,0.29,0.76,0.58
		c0.18,0.3,0.22,0.62,0.13,0.95c-0.09,0.33-0.28,0.58-0.58,0.75c-0.29,0.17-0.62,0.21-0.94,0.12c-0.33-0.09-0.59-0.29-0.75-0.59
		C1394.91,253.4,1394.87,253.08,1394.96,252.76z M1399.42,252.91l7.11,1.91l-0.53,1.98l-7.11-1.91L1399.42,252.91z"/>
	<path d="M1405.68,245.08l-1.43,5.33c1.29,0.29,2.08-0.12,2.37-1.23c0.18-0.69,0.01-1.34-0.5-1.95l0.79-1.76
		c1.31,1.01,1.74,2.37,1.29,4.08c-0.31,1.16-0.9,1.99-1.78,2.5s-1.88,0.61-3.03,0.3c-1.15-0.31-1.97-0.89-2.48-1.75
		c-0.51-0.87-0.61-1.86-0.31-2.99c0.3-1.13,0.89-1.93,1.74-2.4s1.88-0.54,3.07-0.22L1405.68,245.08z M1403,250.01l0.9-3.37
		c-1-0.04-1.62,0.41-1.86,1.31C1401.8,248.83,1402.15,249.6,1403,250.01z"/>
	<path d="M1409.84,242.45l-0.53,1.99l-7.11-1.91l0.53-1.99l1.08,0.29c-0.74-0.72-1-1.53-0.75-2.42c0.07-0.28,0.21-0.55,0.41-0.82
		l1.78,0.78c-0.25,0.25-0.41,0.54-0.49,0.88c-0.3,1.14,0.26,1.9,1.67,2.28L1409.84,242.45z"/>
</g>
<circle fill="#FFFFFF" stroke="#000000" stroke-width="3" stroke-miterlimit="10" cx="1500" cy="337" r="10"/>
<g>
	<path d="M1505.03,322.63l-10.95-2.93l0.73-2.71c0.33-1.23,0.79-2.07,1.37-2.49c0.69-0.52,1.52-0.65,2.49-0.39
		c0.6,0.16,1.09,0.44,1.45,0.83c0.17,0.21,0.31,0.53,0.45,0.96c0.32-0.62,0.68-1.03,1.07-1.24c0.66-0.38,1.44-0.46,2.33-0.22
		c0.89,0.24,1.53,0.76,1.93,1.54c0.4,0.79,0.43,1.78,0.11,2.97L1505.03,322.63z M1499.21,318.79l0.16-0.61
		c0.3-1.11-0.03-1.79-0.98-2.04c-0.95-0.25-1.57,0.16-1.86,1.25l-0.17,0.64L1499.21,318.79z M1503.87,320.04l0.25-0.92
		c0.38-1.42,0.07-2.27-0.94-2.54c-0.55-0.15-1.02-0.04-1.39,0.32c-0.29,0.26-0.54,0.77-0.74,1.53l-0.21,0.8L1503.87,320.04z"/>
	<path d="M1507.98,311.6l-0.53,1.99l-7.11-1.91l0.53-1.99l1.08,0.29c-0.74-0.72-1-1.53-0.75-2.42c0.08-0.28,0.21-0.55,0.41-0.82
		l1.78,0.78c-0.25,0.25-0.41,0.54-0.49,0.88c-0.31,1.14,0.25,1.9,1.67,2.28L1507.98,311.6z"/>
	<path d="M1502.67,302.08c0.32-1.19,0.93-2.07,1.83-2.63c0.9-0.56,1.91-0.69,3.04-0.39c1.12,0.3,1.94,0.92,2.43,1.86
		c0.49,0.95,0.58,2.02,0.26,3.23c-0.32,1.21-0.94,2.08-1.86,2.64s-1.92,0.68-3.03,0.38c-1.11-0.3-1.92-0.93-2.41-1.88
		C1502.43,304.36,1502.35,303.28,1502.67,302.08z M1504.45,302.58c-0.15,0.55-0.08,1.08,0.2,1.57c0.28,0.5,0.7,0.82,1.25,0.97
		s1.08,0.08,1.57-0.21c0.5-0.29,0.82-0.71,0.96-1.26c0.15-0.55,0.08-1.09-0.2-1.58c-0.28-0.5-0.69-0.81-1.25-0.96
		c-0.55-0.15-1.07-0.08-1.57,0.21S1504.6,302.03,1504.45,302.58z"/>
	<path d="M1507.09,293.13c-0.42,0.33-0.68,0.64-0.76,0.94c-0.08,0.3-0.08,0.53-0.01,0.71c0.08,0.18,0.21,0.3,0.37,0.34
		s0.32,0.01,0.47-0.12c0.14-0.12,0.38-0.44,0.72-0.94c0.34-0.5,0.65-0.87,0.92-1.08c0.5-0.42,1.11-0.54,1.82-0.35
		c0.71,0.19,1.24,0.63,1.56,1.31c0.33,0.69,0.38,1.48,0.14,2.35c-0.29,1.07-0.92,1.87-1.91,2.38l-0.93-1.37
		c0.7-0.41,1.13-0.89,1.28-1.46c0.14-0.51-0.11-1-0.53-1.12c-0.22-0.06-0.39-0.04-0.54,0.07c-0.14,0.11-0.4,0.42-0.76,0.94
		c-0.36,0.52-0.65,0.87-0.88,1.04c-0.46,0.38-1.01,0.49-1.67,0.31c-0.67-0.18-1.14-0.56-1.43-1.16c-0.3-0.59-0.34-1.28-0.12-2.09
		s0.67-1.47,1.36-2.02L1507.09,293.13z"/>
	<path d="M1508.86,286.53c-0.42,0.33-0.68,0.64-0.76,0.94c-0.08,0.3-0.08,0.53-0.01,0.71c0.08,0.18,0.21,0.3,0.37,0.34
		s0.32,0.01,0.47-0.12c0.15-0.12,0.38-0.44,0.72-0.94c0.34-0.5,0.65-0.87,0.92-1.08c0.5-0.42,1.11-0.55,1.82-0.35
		s1.24,0.63,1.56,1.31c0.33,0.69,0.38,1.48,0.14,2.35c-0.29,1.07-0.92,1.87-1.91,2.38l-0.93-1.37c0.7-0.41,1.13-0.89,1.29-1.46
		c0.13-0.51-0.11-1-0.54-1.12c-0.22-0.06-0.39-0.04-0.54,0.07c-0.14,0.11-0.39,0.42-0.76,0.94c-0.36,0.52-0.66,0.87-0.88,1.04
		c-0.46,0.38-1.01,0.49-1.67,0.31c-0.66-0.18-1.14-0.56-1.43-1.16c-0.3-0.59-0.33-1.28-0.12-2.09s0.67-1.47,1.36-2.02
		L1508.86,286.53z"/>
	<path d="M1509.4,277.86l0.53-1.99l7.11,1.91l-0.53,1.99l-0.92-0.25c0.6,0.82,0.77,1.71,0.51,2.68c-0.26,0.97-0.84,1.69-1.74,2.16
		c-0.9,0.47-1.89,0.57-2.95,0.28c-1.07-0.29-1.88-0.87-2.43-1.73c-0.55-0.86-0.69-1.77-0.44-2.71c0.25-0.95,0.85-1.65,1.79-2.1
		L1509.4,277.86z M1510.49,280.05c-0.15,0.56-0.08,1.09,0.2,1.57c0.28,0.5,0.7,0.82,1.25,0.96c0.55,0.15,1.08,0.08,1.57-0.21
		c0.5-0.29,0.82-0.7,0.96-1.25c0.15-0.54,0.08-1.07-0.21-1.57c-0.28-0.5-0.69-0.81-1.25-0.96c-0.55-0.15-1.07-0.08-1.56,0.19
		C1510.96,279.08,1510.64,279.5,1510.49,280.05z"/>
	<path d="M1518.09,273.89l-0.53,1.99l-7.11-1.91l0.53-1.99l1.08,0.29c-0.74-0.72-1-1.53-0.75-2.42c0.08-0.28,0.21-0.55,0.41-0.82
		l1.78,0.78c-0.25,0.25-0.41,0.54-0.49,0.88c-0.3,1.14,0.26,1.9,1.67,2.28L1518.09,273.89z"/>
	<path d="M1508.28,261.29l0.53-1.99l12.3,3.3l-0.53,1.99l-0.92-0.25c0.6,0.82,0.77,1.71,0.51,2.68s-0.84,1.69-1.74,2.16
		c-0.9,0.47-1.89,0.57-2.95,0.28c-1.07-0.29-1.88-0.87-2.43-1.73c-0.55-0.86-0.7-1.77-0.44-2.71s0.85-1.64,1.79-2.1L1508.28,261.29z
		 M1514.56,264.87c-0.15,0.56-0.08,1.09,0.2,1.57c0.28,0.5,0.7,0.82,1.25,0.96c0.55,0.15,1.08,0.08,1.57-0.21
		c0.5-0.29,0.81-0.7,0.96-1.25c0.15-0.54,0.08-1.07-0.21-1.57c-0.28-0.5-0.69-0.81-1.25-0.96c-0.55-0.15-1.07-0.08-1.56,0.19
		C1515.03,263.89,1514.71,264.31,1514.56,264.87z"/>
</g>
<g>
	<path fill="#9B9B9B" d="M741.86,365.58v-7.16h3.17c0.64,0,1.12,0.06,1.46,0.19c0.33,0.13,0.6,0.36,0.8,0.68s0.3,0.69,0.3,1.08
		c0,0.51-0.16,0.94-0.49,1.28s-0.84,0.57-1.52,0.66c0.25,0.12,0.44,0.24,0.57,0.36c0.28,0.25,0.54,0.57,0.79,0.95l1.25,1.95h-1.19
		l-0.95-1.49c-0.28-0.43-0.5-0.76-0.68-0.99s-0.34-0.39-0.48-0.48s-0.29-0.15-0.43-0.19c-0.11-0.02-0.28-0.03-0.53-0.03h-1.1v3.18
		H741.86z M742.81,361.58h2.04c0.43,0,0.77-0.04,1.02-0.13c0.24-0.09,0.43-0.23,0.56-0.43c0.13-0.2,0.19-0.41,0.19-0.64
		c0-0.34-0.12-0.62-0.37-0.83s-0.63-0.33-1.16-0.33h-2.27V361.58z"/>
	<path fill="#9B9B9B" d="M752.34,364.94c-0.33,0.28-0.64,0.47-0.94,0.59s-0.62,0.17-0.97,0.17c-0.57,0-1.01-0.14-1.31-0.42
		c-0.31-0.28-0.46-0.63-0.46-1.07c0-0.25,0.06-0.49,0.17-0.7c0.12-0.21,0.27-0.38,0.45-0.51s0.4-0.22,0.63-0.29
		c0.17-0.05,0.43-0.09,0.78-0.13c0.71-0.08,1.23-0.19,1.57-0.3c0-0.12,0-0.2,0-0.23c0-0.36-0.08-0.61-0.25-0.76
		c-0.22-0.2-0.56-0.3-1-0.3c-0.41,0-0.72,0.07-0.92,0.22c-0.2,0.14-0.34,0.4-0.44,0.77l-0.86-0.12c0.08-0.37,0.21-0.67,0.39-0.89
		c0.18-0.23,0.44-0.4,0.78-0.52c0.34-0.12,0.73-0.18,1.18-0.18c0.44,0,0.8,0.05,1.08,0.16s0.48,0.24,0.61,0.39
		c0.13,0.16,0.22,0.36,0.27,0.6c0.03,0.15,0.04,0.42,0.04,0.81v1.17c0,0.82,0.02,1.33,0.06,1.55c0.04,0.22,0.11,0.42,0.22,0.62
		h-0.92C752.43,365.4,752.37,365.19,752.34,364.94z M752.27,362.98c-0.32,0.13-0.8,0.24-1.44,0.33c-0.36,0.05-0.62,0.11-0.77,0.18
		s-0.27,0.16-0.35,0.29c-0.08,0.12-0.12,0.26-0.12,0.42c0,0.23,0.09,0.43,0.27,0.59s0.44,0.23,0.78,0.23c0.34,0,0.64-0.07,0.9-0.22
		c0.26-0.15,0.46-0.35,0.58-0.61c0.09-0.2,0.14-0.49,0.14-0.88V362.98z"/>
	<path fill="#9B9B9B" d="M754.52,359.43v-1.01h0.88v1.01H754.52z M754.52,365.58v-5.19h0.88v5.19H754.52z"/>
	<path fill="#9B9B9B" d="M756.72,365.58v-7.16h0.88v7.16H756.72z"/>
	<path fill="#9B9B9B" d="M761.9,365.58v-7.16h4.83v0.84h-3.88v2.22h3.36v0.84h-3.36v3.25H761.9z"/>
	<path fill="#9B9B9B" d="M771.23,364.94c-0.33,0.28-0.64,0.47-0.94,0.59s-0.62,0.17-0.97,0.17c-0.57,0-1.01-0.14-1.31-0.42
		c-0.31-0.28-0.46-0.63-0.46-1.07c0-0.25,0.06-0.49,0.17-0.7c0.12-0.21,0.27-0.38,0.45-0.51s0.4-0.22,0.63-0.29
		c0.17-0.05,0.43-0.09,0.78-0.13c0.71-0.08,1.23-0.19,1.57-0.3c0-0.12,0-0.2,0-0.23c0-0.36-0.08-0.61-0.25-0.76
		c-0.22-0.2-0.56-0.3-1-0.3c-0.41,0-0.72,0.07-0.92,0.22c-0.2,0.14-0.34,0.4-0.44,0.77l-0.86-0.12c0.08-0.37,0.21-0.67,0.39-0.89
		c0.18-0.23,0.44-0.4,0.78-0.52c0.34-0.12,0.73-0.18,1.18-0.18c0.44,0,0.8,0.05,1.08,0.16s0.48,0.24,0.61,0.39
		c0.13,0.16,0.22,0.36,0.27,0.6c0.03,0.15,0.04,0.42,0.04,0.81v1.17c0,0.82,0.02,1.33,0.06,1.55c0.04,0.22,0.11,0.42,0.22,0.62
		h-0.92C771.32,365.4,771.26,365.19,771.23,364.94z M771.16,362.98c-0.32,0.13-0.8,0.24-1.44,0.33c-0.36,0.05-0.62,0.11-0.77,0.18
		s-0.27,0.16-0.35,0.29c-0.08,0.12-0.12,0.26-0.12,0.42c0,0.23,0.09,0.43,0.27,0.59s0.44,0.23,0.78,0.23c0.34,0,0.64-0.07,0.9-0.22
		c0.26-0.15,0.46-0.35,0.58-0.61c0.09-0.2,0.14-0.49,0.14-0.88V362.98z"/>
	<path fill="#9B9B9B" d="M773.41,365.58v-5.19h0.79v0.74c0.38-0.57,0.93-0.85,1.65-0.85c0.31,0,0.6,0.06,0.86,0.17
		c0.26,0.11,0.46,0.26,0.59,0.44s0.22,0.4,0.27,0.65c0.03,0.16,0.05,0.45,0.05,0.85v3.19h-0.88v-3.15c0-0.36-0.03-0.63-0.1-0.8
		c-0.07-0.18-0.19-0.32-0.36-0.43c-0.17-0.11-0.38-0.16-0.61-0.16c-0.37,0-0.7,0.12-0.97,0.36s-0.41,0.69-0.41,1.35v2.83H773.41z"/>
	<path fill="#9B9B9B" d="M778.62,364.03l0.87-0.14c0.05,0.35,0.18,0.62,0.41,0.8s0.53,0.28,0.94,0.28c0.4,0,0.7-0.08,0.9-0.25
		c0.2-0.17,0.29-0.36,0.29-0.58c0-0.2-0.09-0.35-0.26-0.47c-0.12-0.08-0.42-0.18-0.9-0.3c-0.64-0.16-1.09-0.3-1.34-0.42
		c-0.25-0.12-0.44-0.28-0.57-0.49c-0.13-0.21-0.19-0.44-0.19-0.7c0-0.23,0.05-0.45,0.16-0.64c0.11-0.2,0.25-0.36,0.43-0.49
		c0.14-0.1,0.32-0.19,0.56-0.26c0.24-0.07,0.49-0.11,0.76-0.11c0.41,0,0.76,0.06,1.07,0.18s0.53,0.28,0.68,0.48
		c0.15,0.2,0.25,0.47,0.3,0.8l-0.86,0.12c-0.04-0.27-0.15-0.48-0.34-0.62s-0.45-0.22-0.79-0.22c-0.4,0-0.69,0.07-0.86,0.2
		s-0.26,0.29-0.26,0.47c0,0.11,0.04,0.22,0.11,0.31c0.07,0.09,0.18,0.17,0.34,0.23c0.09,0.03,0.35,0.11,0.78,0.22
		c0.62,0.17,1.06,0.3,1.3,0.41c0.25,0.11,0.44,0.26,0.58,0.46s0.21,0.45,0.21,0.75c0,0.29-0.09,0.57-0.26,0.83
		c-0.17,0.26-0.42,0.46-0.74,0.6c-0.32,0.14-0.69,0.21-1.09,0.21c-0.67,0-1.19-0.14-1.54-0.42S778.72,364.58,778.62,364.03z"/>
	<path fill="#9B9B9B" d="M791.97,363.07l0.95,0.24c-0.2,0.78-0.56,1.37-1.07,1.78c-0.52,0.41-1.15,0.61-1.89,0.61
		c-0.77,0-1.4-0.16-1.88-0.47c-0.48-0.31-0.85-0.77-1.1-1.36s-0.38-1.24-0.38-1.92c0-0.75,0.14-1.4,0.43-1.95
		c0.28-0.55,0.69-0.98,1.22-1.26c0.53-0.29,1.1-0.43,1.74-0.43c0.72,0,1.32,0.18,1.81,0.55s0.83,0.88,1.02,1.54l-0.93,0.22
		c-0.17-0.52-0.41-0.9-0.72-1.14s-0.71-0.36-1.19-0.36c-0.55,0-1.01,0.13-1.38,0.4s-0.63,0.62-0.78,1.06
		c-0.15,0.44-0.22,0.9-0.22,1.37c0,0.61,0.09,1.14,0.27,1.59c0.18,0.45,0.45,0.79,0.83,1.02s0.78,0.34,1.22,0.34
		c0.53,0,0.98-0.15,1.35-0.46S791.84,363.67,791.97,363.07z"/>
	<path fill="#9B9B9B" d="M797.36,364.94c-0.33,0.28-0.64,0.47-0.94,0.59s-0.62,0.17-0.97,0.17c-0.57,0-1.01-0.14-1.31-0.42
		c-0.31-0.28-0.46-0.63-0.46-1.07c0-0.25,0.06-0.49,0.17-0.7c0.12-0.21,0.27-0.38,0.45-0.51s0.4-0.22,0.63-0.29
		c0.17-0.05,0.43-0.09,0.78-0.13c0.71-0.08,1.23-0.19,1.57-0.3c0-0.12,0-0.2,0-0.23c0-0.36-0.08-0.61-0.25-0.76
		c-0.22-0.2-0.56-0.3-1-0.3c-0.41,0-0.72,0.07-0.92,0.22c-0.2,0.14-0.34,0.4-0.44,0.77l-0.86-0.12c0.08-0.37,0.21-0.67,0.39-0.89
		c0.18-0.23,0.44-0.4,0.78-0.52c0.34-0.12,0.73-0.18,1.18-0.18c0.44,0,0.8,0.05,1.08,0.16s0.48,0.24,0.61,0.39
		c0.13,0.16,0.22,0.36,0.27,0.6c0.03,0.15,0.04,0.42,0.04,0.81v1.17c0,0.82,0.02,1.33,0.06,1.55c0.04,0.22,0.11,0.42,0.22,0.62
		h-0.92C797.44,365.4,797.38,365.19,797.36,364.94z M797.28,362.98c-0.32,0.13-0.8,0.24-1.44,0.33c-0.36,0.05-0.62,0.11-0.77,0.18
		s-0.27,0.16-0.35,0.29c-0.08,0.12-0.12,0.26-0.12,0.42c0,0.23,0.09,0.43,0.27,0.59s0.44,0.23,0.78,0.23c0.34,0,0.64-0.07,0.9-0.22
		c0.26-0.15,0.46-0.35,0.58-0.61c0.09-0.2,0.14-0.49,0.14-0.88V362.98z"/>
	<path fill="#9B9B9B" d="M799.53,365.58v-5.19h0.79v0.74c0.38-0.57,0.93-0.85,1.65-0.85c0.31,0,0.6,0.06,0.86,0.17
		c0.26,0.11,0.46,0.26,0.59,0.44c0.13,0.18,0.22,0.4,0.27,0.65c0.03,0.16,0.05,0.45,0.05,0.85v3.19h-0.88v-3.15
		c0-0.36-0.04-0.63-0.1-0.8c-0.07-0.18-0.19-0.32-0.36-0.43c-0.17-0.11-0.38-0.16-0.61-0.16c-0.37,0-0.7,0.12-0.97,0.36
		c-0.27,0.24-0.41,0.69-0.41,1.35v2.83H799.53z"/>
	<path fill="#9B9B9B" d="M808.48,364.94c-0.33,0.28-0.64,0.47-0.94,0.59s-0.62,0.17-0.97,0.17c-0.57,0-1.01-0.14-1.31-0.42
		c-0.31-0.28-0.46-0.63-0.46-1.07c0-0.25,0.06-0.49,0.17-0.7c0.12-0.21,0.27-0.38,0.45-0.51s0.4-0.22,0.63-0.29
		c0.17-0.05,0.43-0.09,0.78-0.13c0.71-0.08,1.23-0.19,1.57-0.3c0-0.12,0-0.2,0-0.23c0-0.36-0.08-0.61-0.25-0.76
		c-0.22-0.2-0.56-0.3-1-0.3c-0.41,0-0.72,0.07-0.92,0.22c-0.2,0.14-0.34,0.4-0.44,0.77l-0.86-0.12c0.08-0.37,0.21-0.67,0.38-0.89
		c0.18-0.23,0.44-0.4,0.78-0.52c0.34-0.12,0.73-0.18,1.18-0.18c0.44,0,0.8,0.05,1.08,0.16c0.28,0.1,0.48,0.24,0.61,0.39
		c0.13,0.16,0.22,0.36,0.27,0.6c0.03,0.15,0.04,0.42,0.04,0.81v1.17c0,0.82,0.02,1.33,0.06,1.55c0.04,0.22,0.11,0.42,0.22,0.62
		h-0.92C808.56,365.4,808.5,365.19,808.48,364.94z M808.41,362.98c-0.32,0.13-0.8,0.24-1.44,0.33c-0.36,0.05-0.62,0.11-0.77,0.18
		c-0.15,0.07-0.26,0.16-0.35,0.29c-0.08,0.12-0.12,0.26-0.12,0.42c0,0.23,0.09,0.43,0.27,0.59s0.44,0.23,0.78,0.23
		c0.34,0,0.64-0.07,0.9-0.22c0.26-0.15,0.46-0.35,0.58-0.61c0.09-0.2,0.14-0.49,0.14-0.88V362.98z"/>
	<path fill="#9B9B9B" d="M814.02,365.58v-0.65c-0.33,0.51-0.81,0.77-1.45,0.77c-0.41,0-0.79-0.11-1.14-0.34s-0.62-0.55-0.81-0.96
		c-0.19-0.41-0.29-0.88-0.29-1.41c0-0.52,0.09-0.99,0.26-1.41c0.17-0.42,0.43-0.75,0.78-0.97c0.34-0.22,0.73-0.34,1.16-0.34
		c0.31,0,0.59,0.07,0.84,0.2c0.24,0.13,0.44,0.3,0.6,0.52v-2.57h0.87v7.16H814.02z M811.24,362.99c0,0.66,0.14,1.16,0.42,1.49
		c0.28,0.33,0.61,0.49,0.99,0.49c0.38,0,0.71-0.16,0.98-0.47c0.27-0.31,0.4-0.79,0.4-1.44c0-0.71-0.14-1.23-0.41-1.56
		s-0.61-0.5-1.01-0.5c-0.39,0-0.72,0.16-0.98,0.48S811.24,362.31,811.24,362.99z"/>
	<path fill="#9B9B9B" d="M819.6,364.94c-0.33,0.28-0.64,0.47-0.94,0.59s-0.62,0.17-0.97,0.17c-0.57,0-1.01-0.14-1.31-0.42
		c-0.31-0.28-0.46-0.63-0.46-1.07c0-0.25,0.06-0.49,0.17-0.7c0.12-0.21,0.27-0.38,0.45-0.51s0.4-0.22,0.63-0.29
		c0.17-0.05,0.43-0.09,0.78-0.13c0.71-0.08,1.23-0.19,1.57-0.3c0-0.12,0-0.2,0-0.23c0-0.36-0.08-0.61-0.25-0.76
		c-0.22-0.2-0.56-0.3-1-0.3c-0.41,0-0.72,0.07-0.92,0.22c-0.2,0.14-0.34,0.4-0.44,0.77l-0.86-0.12c0.08-0.37,0.21-0.67,0.38-0.89
		c0.18-0.23,0.44-0.4,0.78-0.52c0.34-0.12,0.73-0.18,1.18-0.18c0.44,0,0.8,0.05,1.08,0.16c0.28,0.1,0.48,0.24,0.61,0.39
		c0.13,0.16,0.22,0.36,0.27,0.6c0.03,0.15,0.04,0.42,0.04,0.81v1.17c0,0.82,0.02,1.33,0.06,1.55c0.04,0.22,0.11,0.42,0.22,0.62
		h-0.92C819.69,365.4,819.63,365.19,819.6,364.94z M819.53,362.98c-0.32,0.13-0.8,0.24-1.44,0.33c-0.36,0.05-0.62,0.11-0.77,0.18
		c-0.15,0.07-0.26,0.16-0.35,0.29c-0.08,0.12-0.12,0.26-0.12,0.42c0,0.23,0.09,0.43,0.27,0.59s0.44,0.23,0.78,0.23
		c0.34,0,0.64-0.07,0.9-0.22c0.26-0.15,0.46-0.35,0.58-0.61c0.09-0.2,0.14-0.49,0.14-0.88V362.98z"/>
	<path fill="#9B9B9B" d="M823.9,363.35v-0.71h10v0.71H823.9z"/>
	<path fill="#9B9B9B" d="M841.71,364.74v0.84h-4.73c-0.01-0.21,0.03-0.42,0.1-0.61c0.12-0.32,0.31-0.64,0.58-0.95
		s0.65-0.67,1.15-1.08c0.78-0.64,1.3-1.14,1.58-1.52c0.27-0.37,0.41-0.73,0.41-1.06c0-0.35-0.12-0.64-0.37-0.88
		c-0.25-0.24-0.57-0.36-0.97-0.36c-0.42,0-0.76,0.13-1.02,0.38s-0.38,0.61-0.39,1.05l-0.9-0.09c0.06-0.67,0.29-1.19,0.7-1.54
		c0.4-0.35,0.95-0.53,1.63-0.53c0.69,0,1.23,0.19,1.63,0.57s0.6,0.85,0.6,1.42c0,0.29-0.06,0.57-0.18,0.84s-0.31,0.57-0.58,0.87
		s-0.72,0.73-1.35,1.26c-0.53,0.44-0.87,0.74-1.02,0.9c-0.15,0.16-0.27,0.32-0.37,0.48H841.71z"/>
	<path fill="#9B9B9B" d="M842.65,362.05c0-0.85,0.09-1.53,0.26-2.04c0.17-0.52,0.43-0.91,0.78-1.19s0.78-0.42,1.3-0.42
		c0.38,0,0.72,0.08,1.01,0.23c0.29,0.15,0.53,0.38,0.72,0.67c0.19,0.29,0.34,0.65,0.44,1.06c0.11,0.42,0.16,0.98,0.16,1.69
		c0,0.84-0.09,1.52-0.26,2.03c-0.17,0.52-0.43,0.91-0.77,1.2c-0.34,0.28-0.78,0.42-1.3,0.42c-0.69,0-1.23-0.25-1.63-0.74
		C842.89,364.37,842.65,363.4,842.65,362.05z M843.56,362.05c0,1.17,0.14,1.96,0.41,2.35c0.27,0.39,0.61,0.58,1.02,0.58
		c0.4,0,0.74-0.2,1.02-0.59s0.41-1.17,0.41-2.34c0-1.18-0.14-1.96-0.41-2.35s-0.62-0.58-1.03-0.58c-0.4,0-0.73,0.17-0.97,0.51
		C843.71,360.07,843.56,360.88,843.56,362.05z"/>
	<path fill="#9B9B9B" d="M852.83,364.74v0.84h-4.73c-0.01-0.21,0.03-0.42,0.1-0.61c0.12-0.32,0.31-0.64,0.58-0.95
		s0.65-0.67,1.15-1.08c0.78-0.64,1.3-1.14,1.58-1.52c0.27-0.37,0.41-0.73,0.41-1.06c0-0.35-0.12-0.64-0.37-0.88
		c-0.25-0.24-0.57-0.36-0.97-0.36c-0.42,0-0.76,0.13-1.02,0.38s-0.38,0.61-0.39,1.05l-0.9-0.09c0.06-0.67,0.29-1.19,0.7-1.54
		c0.4-0.35,0.95-0.53,1.63-0.53c0.69,0,1.23,0.19,1.63,0.57s0.6,0.85,0.6,1.42c0,0.29-0.06,0.57-0.18,0.84s-0.31,0.57-0.58,0.87
		s-0.72,0.73-1.35,1.26c-0.53,0.44-0.87,0.74-1.02,0.9c-0.15,0.16-0.27,0.32-0.37,0.48H852.83z"/>
	<path fill="#9B9B9B" d="M858.34,360.18l-0.88,0.07c-0.08-0.34-0.19-0.6-0.33-0.75c-0.24-0.25-0.53-0.38-0.88-0.38
		c-0.28,0-0.53,0.08-0.74,0.23c-0.28,0.2-0.5,0.5-0.65,0.88c-0.16,0.39-0.24,0.94-0.25,1.66c0.21-0.32,0.47-0.56,0.78-0.72
		c0.31-0.16,0.63-0.23,0.96-0.23c0.59,0,1.09,0.22,1.5,0.65c0.41,0.43,0.62,0.99,0.62,1.67c0,0.45-0.1,0.87-0.29,1.25
		c-0.19,0.39-0.46,0.68-0.8,0.89c-0.34,0.21-0.72,0.31-1.15,0.31c-0.73,0-1.33-0.27-1.79-0.81c-0.46-0.54-0.69-1.43-0.69-2.66
		c0-1.38,0.25-2.39,0.77-3.02c0.45-0.55,1.05-0.82,1.8-0.82c0.56,0,1.02,0.16,1.38,0.47S858.27,359.62,858.34,360.18z
		 M854.75,363.26c0,0.3,0.06,0.59,0.19,0.87s0.31,0.49,0.54,0.63c0.23,0.15,0.47,0.22,0.73,0.22c0.37,0,0.69-0.15,0.96-0.45
		c0.27-0.3,0.4-0.71,0.4-1.22c0-0.5-0.13-0.88-0.4-1.17c-0.26-0.29-0.6-0.43-1-0.43c-0.4,0-0.73,0.14-1.01,0.43
		C854.89,362.43,854.75,362.8,854.75,363.26z"/>
</g>
<g>
	<path d="M29.83,50.67h-5.71V37.2L14,21.33h6.77l6.34,10.21l6.21-10.21h6.81L29.83,37.2V50.67z"/>
	<path d="M48.96,21.33v16.8c0,1.48,0.06,2.58,0.17,3.24c0.11,0.69,0.39,1.4,0.84,2.15c0.88,1.48,2.9,2.58,5.07,2.58
		c2.15,0,4.17-1.1,5.05-2.58c0.45-0.75,0.73-1.46,0.84-2.13s0.17-1.76,0.17-3.27v-16.8h5.71v17.96c0,3.31-0.71,5.91-2.15,7.82
		c-1.03,1.31-2.38,2.34-4.08,3.09c-1.7,0.77-3.54,1.14-5.54,1.14s-3.85-0.37-5.54-1.14c-1.7-0.75-3.07-1.78-4.1-3.09
		c-1.44-1.91-2.15-4.51-2.15-7.82V21.33H48.96z"/>
	<path d="M79.27,21.33v24.38h9.02v4.96H73.55V21.33H79.27z"/>
	<path d="M99.85,38.36h9.9v4.43h-9.9V38.36z"/>
	<path d="M124.13,50.67V21.33h7.26c3.31,0,5.69,0.58,7.15,1.76c1.76,1.38,2.64,3.37,2.64,5.97c0,1.61-0.37,3.01-1.1,4.19
		c-0.41,0.56-1.12,1.14-2.11,1.76c1.76,0.39,3.03,1.01,3.82,1.85c1.4,1.4,2.11,3.29,2.11,5.67s-0.86,4.34-2.56,5.87
		s-4.15,2.28-7.35,2.28H124.13z M129.84,33.55h1.63c2.96,0,4.45-1.27,4.45-3.8s-1.46-3.8-4.36-3.8h-1.72V33.55z M129.84,46.05h2.47
		c3.8,0,5.71-1.35,5.71-4.04c0-1.48-0.58-2.58-1.72-3.27c-0.84-0.56-2.28-0.84-4.32-0.84h-2.15V46.05z"/>
	<path d="M153.69,50.67h-5.33V31.62h5.33v2.9c1.31-2.34,3.16-3.52,5.54-3.5c0.75,0,1.53,0.15,2.32,0.47l-0.75,4.96
		c-0.79-0.45-1.63-0.67-2.54-0.64c-3.05,0-4.58,1.91-4.58,5.71V50.67z"/>
	<path d="M173.93,31.02c3.2,0,5.8,0.95,7.8,2.81s3.01,4.32,3.01,7.33s-1.01,5.46-3.03,7.33c-2.04,1.87-4.66,2.81-7.91,2.81
		s-5.84-0.97-7.84-2.88s-2.99-4.34-2.99-7.33s1.03-5.41,3.07-7.28S170.73,31.02,173.93,31.02z M173.87,35.81
		c-1.48,0-2.75,0.52-3.8,1.55s-1.59,2.3-1.59,3.78s0.52,2.75,1.57,3.78c1.05,1.05,2.32,1.57,3.8,1.57s2.77-0.52,3.82-1.57
		c1.05-1.03,1.57-2.28,1.57-3.76s-0.52-2.73-1.57-3.78S175.35,35.81,173.87,35.81z"/>
	<path d="M199.26,36.06c-1.12-0.84-2.06-1.27-2.86-1.27s-1.38,0.15-1.78,0.45c-0.41,0.32-0.6,0.71-0.6,1.16s0.19,0.82,0.6,1.1
		s1.35,0.67,2.84,1.18s2.6,1.03,3.31,1.57c1.4,0.97,2.11,2.41,2.11,4.32s-0.75,3.52-2.23,4.79c-1.5,1.29-3.44,1.93-5.78,1.93
		c-2.88,0-5.29-1.05-7.22-3.18l2.79-3.24c1.48,1.48,2.99,2.23,4.51,2.23c1.35,0,2.43-0.95,2.43-2.08c0-0.58-0.17-1.01-0.54-1.31
		c-0.37-0.28-1.31-0.71-2.86-1.27s-2.62-1.05-3.2-1.5c-1.27-0.88-1.89-2.19-1.89-3.97s0.64-3.22,1.93-4.36
		c1.27-1.14,2.99-1.7,5.13-1.7s4.12,0.69,5.95,2.04L199.26,36.06z"/>
	<path d="M216.94,36.06c-1.12-0.84-2.06-1.27-2.86-1.27s-1.38,0.15-1.78,0.45c-0.41,0.32-0.6,0.71-0.6,1.16s0.19,0.82,0.6,1.1
		s1.35,0.67,2.84,1.18s2.6,1.03,3.31,1.57c1.4,0.97,2.11,2.41,2.11,4.32s-0.75,3.52-2.23,4.79c-1.5,1.29-3.44,1.93-5.78,1.93
		c-2.88,0-5.29-1.05-7.22-3.18l2.79-3.24c1.48,1.48,2.99,2.23,4.51,2.23c1.35,0,2.43-0.95,2.43-2.08c0-0.58-0.17-1.01-0.54-1.31
		c-0.37-0.28-1.31-0.71-2.86-1.27s-2.62-1.05-3.2-1.5c-1.27-0.88-1.89-2.19-1.89-3.97s0.64-3.22,1.93-4.36
		c1.27-1.14,2.99-1.7,5.13-1.7s4.12,0.69,5.95,2.04L216.94,36.06z"/>
	<path d="M238.98,31.62h5.33v19.06h-5.33V48.2c-1.65,2.04-3.76,3.07-6.36,3.07s-4.79-0.97-6.57-2.9s-2.69-4.34-2.69-7.2
		s0.9-5.29,2.69-7.24s3.95-2.92,6.49-2.92s4.68,1.03,6.45,3.07V31.62z M234.24,35.81c-1.5,0-2.77,0.52-3.8,1.55
		c-1.05,1.03-1.57,2.3-1.57,3.78s0.52,2.75,1.57,3.78c1.05,1.05,2.3,1.57,3.76,1.57s2.73-0.52,3.78-1.57
		c1.05-1.03,1.57-2.28,1.57-3.76s-0.52-2.73-1.53-3.78C236.99,36.32,235.72,35.81,234.24,35.81z"/>
	<path d="M254.73,50.67h-5.33V31.62h5.33v2.9c1.31-2.34,3.16-3.52,5.54-3.5c0.75,0,1.53,0.15,2.32,0.47l-0.75,4.96
		c-0.79-0.45-1.63-0.67-2.54-0.64c-3.05,0-4.58,1.91-4.58,5.71V50.67z"/>
	<path d="M279.68,17.72H285v32.96h-5.33V48.2c-1.65,2.04-3.76,3.07-6.36,3.07s-4.79-0.97-6.57-2.9s-2.69-4.34-2.69-7.2
		s0.9-5.29,2.69-7.24s3.95-2.92,6.49-2.92s4.68,1.03,6.45,3.07V17.72z M274.93,35.81c-1.5,0-2.77,0.52-3.8,1.55
		c-1.05,1.03-1.57,2.3-1.57,3.78s0.52,2.75,1.57,3.78c1.05,1.05,2.3,1.57,3.76,1.57s2.73-0.52,3.78-1.57
		c1.05-1.03,1.57-2.28,1.57-3.76s-0.52-2.73-1.53-3.78C277.68,36.32,276.41,35.81,274.93,35.81z"/>
</g>
<g>
	<path fill="#5A5A5A" d="M14,77.45V64.56h5.71c1.15,0,2.02,0.12,2.62,0.35s1.08,0.64,1.43,1.23s0.54,1.23,0.54,1.94
		c0,0.91-0.3,1.68-0.89,2.31s-1.51,1.03-2.74,1.2c0.45,0.22,0.79,0.43,1.03,0.64c0.5,0.46,0.97,1.03,1.42,1.71l2.24,3.51h-2.14
		l-1.71-2.68c-0.5-0.77-0.91-1.37-1.23-1.78s-0.61-0.7-0.87-0.86s-0.51-0.28-0.78-0.34c-0.19-0.04-0.51-0.06-0.95-0.06h-1.98v5.72
		H14z M15.71,70.25h3.67c0.78,0,1.39-0.08,1.83-0.24s0.77-0.42,1-0.77s0.34-0.74,0.34-1.16c0-0.61-0.22-1.11-0.66-1.5
		s-1.14-0.59-2.1-0.59h-4.08V70.25z"/>
	<path fill="#5A5A5A" d="M33.16,74.44l1.63,0.2c-0.26,0.96-0.74,1.7-1.43,2.22s-1.59,0.79-2.67,0.79c-1.37,0-2.45-0.42-3.25-1.26
		c-0.8-0.84-1.2-2.02-1.2-3.54c0-1.57,0.4-2.79,1.21-3.66s1.86-1.3,3.15-1.3c1.25,0,2.27,0.42,3.06,1.27s1.19,2.04,1.19,3.59
		c0,0.09,0,0.23-0.01,0.42h-6.96c0.06,1.03,0.35,1.81,0.87,2.36s1.17,0.82,1.95,0.82c0.58,0,1.08-0.15,1.49-0.46
		S32.92,75.11,33.16,74.44z M27.97,71.88h5.21c-0.07-0.79-0.27-1.37-0.6-1.77c-0.5-0.61-1.16-0.91-1.96-0.91
		c-0.73,0-1.34,0.24-1.83,0.73S28.02,71.07,27.97,71.88z M29.67,66.95l1.17-2.46h2.07l-1.93,2.46H29.67z"/>
	<path fill="#5A5A5A" d="M36.15,74.66l1.56-0.25c0.09,0.63,0.33,1.11,0.73,1.44s0.96,0.5,1.68,0.5c0.73,0,1.27-0.15,1.62-0.44
		s0.53-0.64,0.53-1.04c0-0.36-0.16-0.64-0.47-0.84c-0.22-0.14-0.76-0.32-1.62-0.54c-1.16-0.29-1.96-0.55-2.41-0.76
		s-0.79-0.51-1.02-0.89c-0.23-0.38-0.35-0.79-0.35-1.25c0-0.42,0.1-0.8,0.29-1.16c0.19-0.35,0.45-0.65,0.78-0.88
		c0.25-0.18,0.58-0.33,1.01-0.46s0.88-0.19,1.37-0.19c0.73,0,1.38,0.11,1.93,0.32s0.96,0.5,1.23,0.86c0.26,0.36,0.45,0.84,0.54,1.45
		L42,70.73c-0.07-0.48-0.27-0.86-0.61-1.12s-0.81-0.4-1.43-0.4c-0.73,0-1.25,0.12-1.56,0.36s-0.47,0.52-0.47,0.84
		c0,0.21,0.06,0.39,0.19,0.55c0.13,0.17,0.33,0.31,0.61,0.42c0.16,0.06,0.62,0.19,1.4,0.4c1.12,0.3,1.9,0.54,2.34,0.73
		s0.79,0.47,1.04,0.83s0.38,0.81,0.38,1.35c0,0.53-0.15,1.02-0.46,1.49c-0.31,0.46-0.75,0.83-1.33,1.08
		c-0.58,0.26-1.24,0.38-1.97,0.38c-1.21,0-2.14-0.25-2.77-0.76S36.32,75.65,36.15,74.66z"/>
	<path fill="#5A5A5A" d="M52.17,74.44l1.63,0.2c-0.26,0.96-0.74,1.7-1.43,2.22s-1.59,0.79-2.67,0.79c-1.37,0-2.45-0.42-3.25-1.26
		c-0.8-0.84-1.2-2.02-1.2-3.54c0-1.57,0.4-2.79,1.21-3.66s1.86-1.3,3.15-1.3c1.25,0,2.27,0.42,3.06,1.27s1.19,2.04,1.19,3.59
		c0,0.09,0,0.23-0.01,0.42h-6.96c0.06,1.03,0.35,1.81,0.87,2.36s1.17,0.82,1.95,0.82c0.58,0,1.08-0.15,1.49-0.46
		S51.93,75.11,52.17,74.44z M46.98,71.88h5.21c-0.07-0.79-0.27-1.37-0.6-1.77c-0.5-0.61-1.16-0.91-1.96-0.91
		c-0.73,0-1.34,0.24-1.83,0.73S47.03,71.07,46.98,71.88z"/>
	<path fill="#5A5A5A" d="M61.88,76.3c-0.59,0.5-1.15,0.85-1.69,1.05s-1.12,0.31-1.74,0.31c-1.03,0-1.81-0.25-2.36-0.75
		c-0.55-0.5-0.83-1.14-0.83-1.92c0-0.46,0.1-0.88,0.31-1.25c0.21-0.38,0.48-0.68,0.82-0.91s0.72-0.4,1.14-0.52
		c0.31-0.08,0.78-0.16,1.41-0.24c1.28-0.15,2.22-0.33,2.82-0.54c0.01-0.22,0.01-0.35,0.01-0.41c0-0.64-0.15-1.1-0.45-1.36
		c-0.4-0.36-1-0.54-1.8-0.54c-0.74,0-1.29,0.13-1.65,0.39s-0.62,0.72-0.79,1.38l-1.55-0.21c0.14-0.66,0.37-1.2,0.69-1.6
		c0.32-0.41,0.79-0.72,1.4-0.94c0.61-0.22,1.32-0.33,2.12-0.33c0.8,0,1.44,0.09,1.94,0.28s0.86,0.42,1.1,0.71
		c0.23,0.29,0.4,0.64,0.49,1.08c0.05,0.27,0.08,0.76,0.08,1.46v2.11c0,1.47,0.03,2.4,0.1,2.79c0.07,0.39,0.2,0.76,0.4,1.12H62.2
		C62.04,77.12,61.93,76.74,61.88,76.3z M61.75,72.76c-0.57,0.23-1.44,0.43-2.58,0.6c-0.65,0.09-1.11,0.2-1.38,0.32
		s-0.48,0.29-0.62,0.51s-0.22,0.48-0.22,0.75c0,0.42,0.16,0.77,0.48,1.05s0.79,0.42,1.4,0.42c0.61,0,1.15-0.13,1.63-0.4
		s0.82-0.63,1.05-1.09c0.17-0.36,0.25-0.88,0.25-1.58V72.76z"/>
	<path fill="#5A5A5A" d="M71.92,77.45v-1.37c-0.73,1.05-1.71,1.58-2.96,1.58c-0.55,0-1.06-0.11-1.54-0.32s-0.83-0.48-1.06-0.79
		s-0.39-0.71-0.49-1.17c-0.06-0.31-0.1-0.8-0.1-1.48v-5.78h1.58v5.18c0,0.83,0.03,1.38,0.1,1.67c0.1,0.42,0.31,0.74,0.63,0.98
		c0.32,0.24,0.72,0.36,1.2,0.36s0.92-0.12,1.34-0.36s0.71-0.57,0.88-0.99c0.17-0.42,0.26-1.03,0.26-1.82v-5h1.58v9.33H71.92z"/>
	<path fill="#5A5A5A" d="M81.05,77.45V64.56h9.32v1.52h-7.61v3.95h7.13v1.51h-7.13v4.39h7.91v1.52H81.05z"/>
	<path fill="#5A5A5A" d="M91.77,77.45l3.41-4.85l-3.16-4.48H94l1.43,2.19c0.27,0.42,0.49,0.76,0.65,1.05
		c0.26-0.39,0.5-0.73,0.71-1.03l1.57-2.21h1.89l-3.23,4.39l3.47,4.94h-1.94l-1.92-2.9l-0.51-0.78l-2.45,3.68H91.77z"/>
	<path fill="#5A5A5A" d="M101.82,81.02V68.11h1.44v1.21c0.34-0.47,0.72-0.83,1.15-1.07c0.43-0.24,0.95-0.36,1.56-0.36
		c0.8,0,1.5,0.21,2.11,0.62s1.07,0.99,1.38,1.74c0.31,0.75,0.47,1.57,0.47,2.46c0,0.96-0.17,1.82-0.51,2.58
		c-0.34,0.77-0.84,1.35-1.49,1.76c-0.65,0.41-1.34,0.61-2.06,0.61c-0.53,0-1-0.11-1.42-0.33s-0.76-0.5-1.03-0.84v4.54H101.82z
		 M103.25,72.83c0,1.2,0.24,2.09,0.73,2.66s1.08,0.86,1.77,0.86c0.7,0,1.31-0.3,1.81-0.89c0.5-0.59,0.75-1.52,0.75-2.76
		c0-1.19-0.24-2.08-0.73-2.67s-1.07-0.89-1.75-0.89c-0.67,0-1.27,0.32-1.79,0.94C103.51,70.72,103.25,71.63,103.25,72.83z"/>
	<path fill="#5A5A5A" d="M111.81,77.45v-9.33h1.42v1.42c0.36-0.66,0.7-1.1,1.01-1.31s0.65-0.32,1.02-0.32
		c0.53,0,1.08,0.17,1.63,0.51l-0.54,1.47c-0.39-0.23-0.77-0.34-1.16-0.34c-0.35,0-0.66,0.1-0.93,0.31s-0.47,0.5-0.59,0.87
		c-0.18,0.56-0.26,1.18-0.26,1.85v4.89H111.81z"/>
	<path fill="#5A5A5A" d="M124.21,74.44l1.63,0.2c-0.26,0.96-0.74,1.7-1.43,2.22s-1.59,0.79-2.67,0.79c-1.37,0-2.45-0.42-3.25-1.26
		c-0.8-0.84-1.2-2.02-1.2-3.54c0-1.57,0.4-2.79,1.21-3.66s1.86-1.3,3.15-1.3c1.25,0,2.27,0.42,3.06,1.27s1.19,2.04,1.19,3.59
		c0,0.09,0,0.23-0.01,0.42h-6.96c0.06,1.03,0.35,1.81,0.87,2.36s1.17,0.82,1.95,0.82c0.58,0,1.08-0.15,1.49-0.46
		S123.97,75.11,124.21,74.44z M119.02,71.88h5.21c-0.07-0.79-0.27-1.37-0.6-1.77c-0.5-0.61-1.16-0.91-1.96-0.91
		c-0.73,0-1.34,0.24-1.83,0.73S119.07,71.07,119.02,71.88z"/>
	<path fill="#5A5A5A" d="M127.2,74.66l1.56-0.25c0.09,0.63,0.33,1.11,0.73,1.44s0.96,0.5,1.68,0.5c0.73,0,1.27-0.15,1.62-0.44
		s0.53-0.64,0.53-1.04c0-0.36-0.16-0.64-0.47-0.84c-0.22-0.14-0.76-0.32-1.62-0.54c-1.16-0.29-1.96-0.55-2.41-0.76
		s-0.79-0.51-1.02-0.89c-0.23-0.38-0.35-0.79-0.35-1.25c0-0.42,0.1-0.8,0.29-1.16c0.19-0.35,0.45-0.65,0.78-0.88
		c0.25-0.18,0.58-0.33,1.01-0.46s0.88-0.19,1.37-0.19c0.73,0,1.38,0.11,1.93,0.32s0.96,0.5,1.23,0.86c0.26,0.36,0.45,0.84,0.54,1.45
		l-1.55,0.21c-0.07-0.48-0.27-0.86-0.61-1.12s-0.81-0.4-1.43-0.4c-0.73,0-1.25,0.12-1.56,0.36S129,70.08,129,70.41
		c0,0.21,0.06,0.39,0.19,0.55c0.13,0.17,0.33,0.31,0.61,0.42c0.16,0.06,0.62,0.19,1.4,0.4c1.12,0.3,1.9,0.54,2.34,0.73
		s0.79,0.47,1.04,0.83s0.38,0.81,0.38,1.35c0,0.53-0.15,1.02-0.46,1.49c-0.31,0.46-0.75,0.83-1.33,1.08
		c-0.58,0.26-1.24,0.38-1.97,0.38c-1.21,0-2.14-0.25-2.77-0.76S127.38,75.65,127.2,74.66z"/>
	<path fill="#5A5A5A" d="M136.2,74.66l1.56-0.25c0.09,0.63,0.33,1.11,0.73,1.44s0.96,0.5,1.68,0.5c0.73,0,1.27-0.15,1.62-0.44
		s0.53-0.64,0.53-1.04c0-0.36-0.16-0.64-0.47-0.84c-0.22-0.14-0.76-0.32-1.62-0.54c-1.16-0.29-1.96-0.55-2.41-0.76
		s-0.79-0.51-1.02-0.89c-0.23-0.38-0.35-0.79-0.35-1.25c0-0.42,0.1-0.8,0.29-1.16c0.19-0.35,0.45-0.65,0.78-0.88
		c0.25-0.18,0.58-0.33,1.01-0.46s0.88-0.19,1.37-0.19c0.73,0,1.38,0.11,1.93,0.32s0.96,0.5,1.23,0.86c0.26,0.36,0.45,0.84,0.54,1.45
		l-1.55,0.21c-0.07-0.48-0.27-0.86-0.61-1.12s-0.81-0.4-1.43-0.4c-0.73,0-1.25,0.12-1.56,0.36S138,70.08,138,70.41
		c0,0.21,0.06,0.39,0.19,0.55c0.13,0.17,0.33,0.31,0.61,0.42c0.16,0.06,0.62,0.19,1.4,0.4c1.12,0.3,1.9,0.54,2.34,0.73
		s0.79,0.47,1.04,0.83s0.38,0.81,0.38,1.35c0,0.53-0.15,1.02-0.46,1.49c-0.31,0.46-0.75,0.83-1.33,1.08
		c-0.58,0.26-1.24,0.38-1.97,0.38c-1.21,0-2.14-0.25-2.77-0.76S136.38,75.65,136.2,74.66z"/>
	<path fill="#5A5A5A" d="M150.99,77.45V64.56h2.57l3.05,9.12c0.28,0.85,0.49,1.49,0.62,1.91c0.15-0.47,0.38-1.16,0.69-2.07
		l3.08-8.96h2.29v12.88h-1.64V66.66l-3.74,10.78h-1.54l-3.73-10.97v10.97H150.99z"/>
	<path fill="#5A5A5A" d="M172.22,74.44l1.63,0.2c-0.26,0.96-0.74,1.7-1.43,2.22s-1.59,0.79-2.67,0.79c-1.37,0-2.45-0.42-3.25-1.26
		c-0.8-0.84-1.2-2.02-1.2-3.54c0-1.57,0.4-2.79,1.21-3.66s1.86-1.3,3.15-1.3c1.25,0,2.27,0.42,3.06,1.27s1.19,2.04,1.19,3.59
		c0,0.09,0,0.23-0.01,0.42h-6.96c0.06,1.03,0.35,1.81,0.87,2.36s1.17,0.82,1.95,0.82c0.58,0,1.08-0.15,1.49-0.46
		S171.98,75.11,172.22,74.44z M167.03,71.88h5.21c-0.07-0.79-0.27-1.37-0.6-1.77c-0.5-0.61-1.16-0.91-1.96-0.91
		c-0.73,0-1.34,0.24-1.83,0.73S167.08,71.07,167.03,71.88z M168.73,66.95l1.17-2.46h2.07l-1.93,2.46H168.73z"/>
	<path fill="#5A5A5A" d="M179.3,76.03l0.23,1.4c-0.45,0.09-0.84,0.14-1.2,0.14c-0.57,0-1.02-0.09-1.34-0.27s-0.54-0.42-0.67-0.72
		s-0.19-0.92-0.19-1.87v-5.37h-1.16v-1.23h1.16V65.8l1.57-0.95v3.26h1.59v1.23h-1.59v5.46c0,0.45,0.03,0.74,0.08,0.87
		s0.15,0.23,0.27,0.31s0.31,0.11,0.54,0.11C178.78,76.09,179.01,76.07,179.3,76.03z"/>
	<path fill="#5A5A5A" d="M180.83,77.45v-9.33h1.42v1.42c0.36-0.66,0.7-1.1,1.01-1.31s0.65-0.32,1.02-0.32
		c0.53,0,1.08,0.17,1.63,0.51l-0.54,1.47c-0.39-0.23-0.77-0.34-1.16-0.34c-0.35,0-0.66,0.1-0.93,0.31s-0.47,0.5-0.59,0.87
		c-0.18,0.56-0.26,1.18-0.26,1.85v4.89H180.83z"/>
	<path fill="#5A5A5A" d="M186.25,72.78c0-1.73,0.48-3.01,1.44-3.84c0.8-0.69,1.78-1.04,2.94-1.04c1.28,0,2.33,0.42,3.15,1.26
		s1.22,2,1.22,3.48c0,1.2-0.18,2.15-0.54,2.83c-0.36,0.69-0.88,1.22-1.57,1.6s-1.44,0.57-2.25,0.57c-1.31,0-2.36-0.42-3.17-1.26
		S186.25,74.36,186.25,72.78z M187.87,72.78c0,1.2,0.26,2.09,0.78,2.68c0.52,0.6,1.18,0.89,1.97,0.89c0.79,0,1.44-0.3,1.96-0.9
		s0.78-1.51,0.78-2.73c0-1.15-0.26-2.03-0.79-2.62c-0.52-0.59-1.18-0.89-1.96-0.89c-0.79,0-1.45,0.3-1.97,0.89
		S187.87,71.58,187.87,72.78z"/>
	<path fill="#5A5A5A" d="M196.85,81.02V68.11h1.44v1.21c0.34-0.47,0.72-0.83,1.15-1.07c0.43-0.24,0.95-0.36,1.56-0.36
		c0.8,0,1.5,0.21,2.11,0.62s1.07,0.99,1.38,1.74c0.31,0.75,0.47,1.57,0.47,2.46c0,0.96-0.17,1.82-0.51,2.58
		c-0.34,0.77-0.84,1.35-1.49,1.76c-0.65,0.41-1.34,0.61-2.06,0.61c-0.53,0-1-0.11-1.42-0.33s-0.76-0.5-1.03-0.84v4.54H196.85z
		 M198.28,72.83c0,1.2,0.24,2.09,0.73,2.66s1.08,0.86,1.77,0.86c0.7,0,1.31-0.3,1.81-0.89c0.5-0.59,0.75-1.52,0.75-2.76
		c0-1.19-0.24-2.08-0.73-2.67s-1.07-0.89-1.75-0.89c-0.67,0-1.27,0.32-1.79,0.94C198.54,70.72,198.28,71.63,198.28,72.83z"/>
	<path fill="#5A5A5A" d="M206.27,72.78c0-1.73,0.48-3.01,1.44-3.84c0.8-0.69,1.78-1.04,2.94-1.04c1.28,0,2.33,0.42,3.15,1.26
		s1.22,2,1.22,3.48c0,1.2-0.18,2.15-0.54,2.83c-0.36,0.69-0.88,1.22-1.57,1.6s-1.44,0.57-2.25,0.57c-1.31,0-2.36-0.42-3.17-1.26
		S206.27,74.36,206.27,72.78z M207.9,72.78c0,1.2,0.26,2.09,0.78,2.68c0.52,0.6,1.18,0.89,1.97,0.89c0.79,0,1.44-0.3,1.96-0.9
		s0.78-1.51,0.78-2.73c0-1.15-0.26-2.03-0.79-2.62c-0.52-0.59-1.18-0.89-1.96-0.89c-0.79,0-1.45,0.3-1.97,0.89
		S207.9,71.58,207.9,72.78z"/>
	<path fill="#5A5A5A" d="M216.83,77.45V64.56h1.58v12.88H216.83z"/>
	<path fill="#5A5A5A" d="M220.88,66.38v-1.82h1.58v1.82H220.88z M220.88,77.45v-9.33h1.58v9.33H220.88z"/>
	<path fill="#5A5A5A" d="M228.32,76.03l0.23,1.4c-0.45,0.09-0.84,0.14-1.2,0.14c-0.57,0-1.02-0.09-1.34-0.27s-0.54-0.42-0.67-0.72
		s-0.19-0.92-0.19-1.87v-5.37H224v-1.23h1.16V65.8l1.57-0.95v3.26h1.59v1.23h-1.59v5.46c0,0.45,0.03,0.74,0.08,0.87
		s0.15,0.23,0.27,0.31s0.31,0.11,0.54,0.11C227.8,76.09,228.03,76.07,228.32,76.03z"/>
	<path fill="#5A5A5A" d="M235.96,76.3c-0.59,0.5-1.15,0.85-1.69,1.05s-1.12,0.31-1.74,0.31c-1.03,0-1.81-0.25-2.36-0.75
		c-0.55-0.5-0.83-1.14-0.83-1.92c0-0.46,0.1-0.88,0.31-1.25c0.21-0.38,0.48-0.68,0.82-0.91s0.72-0.4,1.14-0.52
		c0.31-0.08,0.78-0.16,1.41-0.24c1.28-0.15,2.22-0.33,2.82-0.54c0.01-0.22,0.01-0.35,0.01-0.41c0-0.64-0.15-1.1-0.45-1.36
		c-0.4-0.36-1-0.54-1.8-0.54c-0.74,0-1.29,0.13-1.65,0.39s-0.62,0.72-0.79,1.38l-1.55-0.21c0.14-0.66,0.37-1.2,0.69-1.6
		c0.32-0.41,0.79-0.72,1.4-0.94c0.61-0.22,1.32-0.33,2.12-0.33c0.8,0,1.44,0.09,1.94,0.28s0.86,0.42,1.1,0.71
		c0.23,0.29,0.4,0.64,0.49,1.08c0.05,0.27,0.08,0.76,0.08,1.46v2.11c0,1.47,0.03,2.4,0.1,2.79c0.07,0.39,0.2,0.76,0.4,1.12h-1.65
		C236.11,77.12,236.01,76.74,235.96,76.3z M235.83,72.76c-0.57,0.23-1.44,0.43-2.58,0.6c-0.65,0.09-1.11,0.2-1.38,0.32
		s-0.48,0.29-0.62,0.51s-0.22,0.48-0.22,0.75c0,0.42,0.16,0.77,0.48,1.05s0.79,0.42,1.4,0.42c0.61,0,1.15-0.13,1.63-0.4
		s0.82-0.63,1.05-1.09c0.17-0.36,0.25-0.88,0.25-1.58V72.76z"/>
	<path fill="#5A5A5A" d="M239.89,66.38v-1.82h1.58v1.82H239.89z M239.89,77.45v-9.33h1.58v9.33H239.89z"/>
	<path fill="#5A5A5A" d="M243.88,77.45v-9.33h1.42v1.33c0.69-1.03,1.68-1.54,2.97-1.54c0.56,0,1.08,0.1,1.55,0.3
		c0.47,0.2,0.82,0.47,1.06,0.8s0.4,0.72,0.49,1.17c0.06,0.29,0.09,0.81,0.09,1.54v5.74h-1.58v-5.68c0-0.64-0.06-1.13-0.18-1.45
		s-0.34-0.57-0.65-0.77c-0.31-0.19-0.68-0.29-1.1-0.29c-0.67,0-1.26,0.21-1.74,0.64s-0.73,1.24-0.73,2.43v5.1H243.88z"/>
	<path fill="#5A5A5A" d="M261.91,81.24c-0.87-1.1-1.61-2.39-2.21-3.87s-0.91-3.01-0.91-4.59c0-1.39,0.23-2.73,0.68-4.01
		c0.53-1.48,1.34-2.96,2.44-4.43h1.13c-0.71,1.22-1.18,2.09-1.41,2.61c-0.36,0.81-0.64,1.65-0.84,2.53c-0.25,1.1-0.38,2.2-0.38,3.3
		c0,2.82,0.88,5.63,2.63,8.45H261.91z"/>
	<path fill="#5A5A5A" d="M265.11,77.45V64.56h5.71c1.15,0,2.02,0.12,2.62,0.35s1.08,0.64,1.43,1.23s0.54,1.23,0.54,1.94
		c0,0.91-0.3,1.68-0.89,2.31s-1.51,1.03-2.74,1.2c0.45,0.22,0.79,0.43,1.03,0.64c0.5,0.46,0.97,1.03,1.42,1.71l2.24,3.51h-2.14
		l-1.71-2.68c-0.5-0.77-0.91-1.37-1.23-1.78s-0.61-0.7-0.87-0.86s-0.51-0.28-0.78-0.34c-0.19-0.04-0.51-0.06-0.95-0.06h-1.98v5.72
		H265.11z M266.82,70.25h3.67c0.78,0,1.39-0.08,1.83-0.24s0.77-0.42,1-0.77s0.34-0.74,0.34-1.16c0-0.61-0.22-1.11-0.66-1.5
		s-1.14-0.59-2.1-0.59h-4.08V70.25z"/>
	<path fill="#5A5A5A" d="M278.12,77.45V64.56h9.32v1.52h-7.61v3.95h7.13v1.51h-7.13v4.39h7.91v1.52H278.12z"/>
	<path fill="#5A5A5A" d="M290.04,77.45V64.56h2.57l3.05,9.12c0.28,0.85,0.49,1.49,0.62,1.91c0.15-0.47,0.38-1.16,0.69-2.07
		l3.08-8.96h2.29v12.88h-1.64V66.66l-3.74,10.78h-1.54l-3.73-10.97v10.97H290.04z"/>
	<path fill="#5A5A5A" d="M305.92,81.24h-1.13c1.75-2.81,2.63-5.63,2.63-8.45c0-1.1-0.13-2.19-0.38-3.28
		c-0.2-0.88-0.48-1.72-0.83-2.53c-0.23-0.53-0.7-1.41-1.42-2.64h1.13c1.1,1.47,1.92,2.95,2.44,4.43c0.45,1.28,0.68,2.61,0.68,4.01
		c0,1.58-0.3,3.11-0.91,4.59S306.79,80.13,305.92,81.24z"/>
	<path fill="#5A5A5A" d="M315.65,71.14c0-0.62,0.22-1.14,0.65-1.57s0.96-0.65,1.57-0.65c0.62,0,1.14,0.22,1.58,0.65
		s0.65,0.96,0.65,1.57s-0.22,1.14-0.65,1.58s-0.96,0.65-1.58,0.65c-0.61,0-1.13-0.22-1.57-0.65S315.65,71.75,315.65,71.14z"/>
	<path fill="#5A5A5A" d="M327.33,77.45V64.56h2.57l3.05,9.12c0.28,0.85,0.49,1.49,0.62,1.91c0.15-0.47,0.38-1.16,0.69-2.07
		l3.08-8.96h2.29v12.88h-1.64V66.66l-3.74,10.78h-1.54l-3.73-10.97v10.97H327.33z"/>
	<path fill="#5A5A5A" d="M341.59,72.78c0-1.73,0.48-3.01,1.44-3.84c0.8-0.69,1.78-1.04,2.94-1.04c1.28,0,2.33,0.42,3.15,1.26
		s1.22,2,1.22,3.48c0,1.2-0.18,2.15-0.54,2.83c-0.36,0.69-0.88,1.22-1.57,1.6s-1.44,0.57-2.25,0.57c-1.31,0-2.36-0.42-3.17-1.26
		S341.59,74.36,341.59,72.78z M343.21,72.78c0,1.2,0.26,2.09,0.78,2.68c0.52,0.6,1.18,0.89,1.97,0.89c0.79,0,1.44-0.3,1.96-0.9
		s0.78-1.51,0.78-2.73c0-1.15-0.26-2.03-0.79-2.62c-0.52-0.59-1.18-0.89-1.96-0.89c-0.79,0-1.45,0.3-1.97,0.89
		S343.21,71.58,343.21,72.78z"/>
	<path fill="#5A5A5A" d="M352.19,77.45v-9.33h1.42v1.33c0.69-1.03,1.68-1.54,2.97-1.54c0.56,0,1.08,0.1,1.55,0.3
		c0.47,0.2,0.82,0.47,1.06,0.8s0.4,0.72,0.49,1.17c0.06,0.29,0.09,0.81,0.09,1.54v5.74h-1.58v-5.68c0-0.64-0.06-1.13-0.18-1.45
		s-0.34-0.57-0.65-0.77c-0.31-0.19-0.68-0.29-1.1-0.29c-0.67,0-1.26,0.21-1.74,0.64s-0.73,1.24-0.73,2.43v5.1H352.19z"/>
	<path fill="#5A5A5A" d="M365.65,76.03l0.23,1.4c-0.45,0.09-0.84,0.14-1.2,0.14c-0.57,0-1.02-0.09-1.34-0.27s-0.54-0.42-0.67-0.72
		s-0.19-0.92-0.19-1.87v-5.37h-1.16v-1.23h1.16V65.8l1.57-0.95v3.26h1.59v1.23h-1.59v5.46c0,0.45,0.03,0.74,0.08,0.87
		s0.15,0.23,0.27,0.31s0.31,0.11,0.54,0.11C365.13,76.09,365.36,76.07,365.65,76.03z"/>
	<path fill="#5A5A5A" d="M367.18,77.45v-9.33h1.42v1.42c0.36-0.66,0.7-1.1,1.01-1.31s0.65-0.32,1.02-0.32
		c0.53,0,1.08,0.17,1.63,0.51l-0.54,1.47c-0.39-0.23-0.77-0.34-1.16-0.34c-0.35,0-0.66,0.1-0.93,0.31s-0.47,0.5-0.59,0.87
		c-0.18,0.56-0.26,1.18-0.26,1.85v4.89H367.18z"/>
	<path fill="#5A5A5A" d="M379.58,74.44l1.63,0.2c-0.26,0.96-0.74,1.7-1.43,2.22s-1.59,0.79-2.67,0.79c-1.37,0-2.45-0.42-3.25-1.26
		c-0.8-0.84-1.2-2.02-1.2-3.54c0-1.57,0.4-2.79,1.21-3.66s1.86-1.3,3.15-1.3c1.25,0,2.27,0.42,3.06,1.27s1.19,2.04,1.19,3.59
		c0,0.09,0,0.23-0.01,0.42h-6.96c0.06,1.03,0.35,1.81,0.87,2.36s1.17,0.82,1.95,0.82c0.58,0,1.08-0.15,1.49-0.46
		S379.34,75.11,379.58,74.44z M374.39,71.88h5.21c-0.07-0.79-0.27-1.37-0.6-1.77c-0.5-0.61-1.16-0.91-1.96-0.91
		c-0.73,0-1.34,0.24-1.83,0.73S374.44,71.07,374.39,71.88z M376.09,66.95l1.17-2.46h2.07l-1.93,2.46H376.09z"/>
	<path fill="#5A5A5A" d="M389.29,76.3c-0.59,0.5-1.15,0.85-1.69,1.05s-1.12,0.31-1.74,0.31c-1.03,0-1.81-0.25-2.36-0.75
		c-0.55-0.5-0.83-1.14-0.83-1.92c0-0.46,0.1-0.88,0.31-1.25c0.21-0.38,0.48-0.68,0.82-0.91s0.72-0.4,1.14-0.52
		c0.31-0.08,0.78-0.16,1.41-0.24c1.28-0.15,2.22-0.33,2.82-0.54c0.01-0.22,0.01-0.35,0.01-0.41c0-0.64-0.15-1.1-0.45-1.36
		c-0.4-0.36-1-0.54-1.8-0.54c-0.74,0-1.29,0.13-1.65,0.39s-0.62,0.72-0.79,1.38l-1.55-0.21c0.14-0.66,0.37-1.2,0.69-1.6
		c0.32-0.41,0.79-0.72,1.4-0.94c0.61-0.22,1.32-0.33,2.12-0.33c0.8,0,1.44,0.09,1.94,0.28s0.86,0.42,1.1,0.71
		c0.23,0.29,0.4,0.64,0.49,1.08c0.05,0.27,0.08,0.76,0.08,1.46v2.11c0,1.47,0.03,2.4,0.1,2.79c0.07,0.39,0.2,0.76,0.4,1.12h-1.65
		C389.45,77.12,389.34,76.74,389.29,76.3z M389.16,72.76c-0.57,0.23-1.44,0.43-2.58,0.6c-0.65,0.09-1.11,0.2-1.38,0.32
		s-0.48,0.29-0.62,0.51s-0.22,0.48-0.22,0.75c0,0.42,0.16,0.77,0.48,1.05s0.79,0.42,1.4,0.42c0.61,0,1.15-0.13,1.63-0.4
		s0.82-0.63,1.05-1.09c0.17-0.36,0.25-0.88,0.25-1.58V72.76z"/>
	<path fill="#5A5A5A" d="M393.18,77.45V64.56h1.58v12.88H393.18z"/>
	<path fill="#5A5A5A" d="M401.98,71.14c0-0.62,0.22-1.14,0.65-1.57s0.96-0.65,1.57-0.65c0.62,0,1.14,0.22,1.58,0.65
		s0.65,0.96,0.65,1.57s-0.22,1.14-0.65,1.58s-0.96,0.65-1.58,0.65c-0.61,0-1.13-0.22-1.57-0.65S401.98,71.75,401.98,71.14z"/>
	<path fill="#5A5A5A" d="M416.67,77.45V66.08h-4.25v-1.52h10.21v1.52h-4.26v11.36H416.67z"/>
	<path fill="#5A5A5A" d="M424.32,77.45V64.56h4.83c0.98,0,1.77,0.13,2.37,0.39c0.59,0.26,1.06,0.66,1.4,1.21s0.51,1.11,0.51,1.7
		c0,0.55-0.15,1.07-0.45,1.56s-0.75,0.88-1.35,1.18c0.78,0.23,1.38,0.62,1.8,1.17s0.63,1.2,0.63,1.95c0,0.6-0.13,1.17-0.38,1.68
		c-0.25,0.52-0.57,0.92-0.94,1.2s-0.85,0.49-1.41,0.64s-1.26,0.21-2.08,0.21H424.32z M426.02,69.98h2.79c0.76,0,1.3-0.05,1.63-0.15
		c0.43-0.13,0.76-0.34,0.98-0.64s0.33-0.67,0.33-1.12c0-0.43-0.1-0.8-0.31-1.13c-0.21-0.33-0.5-0.55-0.88-0.67s-1.03-0.18-1.96-0.18
		h-2.58V69.98z M426.02,75.93h3.21c0.55,0,0.94-0.02,1.16-0.06c0.39-0.07,0.72-0.19,0.98-0.35s0.48-0.4,0.65-0.72
		c0.17-0.31,0.25-0.67,0.25-1.08c0-0.48-0.12-0.9-0.37-1.25c-0.25-0.35-0.59-0.6-1.02-0.75s-1.06-0.22-1.89-0.22h-2.98V75.93z"/>
	<path fill="#5A5A5A" d="M436.39,77.45V64.56h4.44c1,0,1.77,0.06,2.29,0.18c0.74,0.17,1.37,0.48,1.89,0.92
		c0.68,0.57,1.19,1.31,1.52,2.2c0.34,0.89,0.51,1.92,0.51,3.06c0,0.98-0.11,1.85-0.34,2.6s-0.52,1.38-0.88,1.88
		c-0.36,0.5-0.75,0.89-1.17,1.17s-0.94,0.5-1.54,0.65s-1.29,0.22-2.07,0.22H436.39z M438.1,75.93h2.75c0.85,0,1.52-0.08,2-0.24
		s0.87-0.38,1.16-0.67c0.4-0.4,0.72-0.95,0.94-1.63c0.23-0.68,0.34-1.51,0.34-2.48c0-1.35-0.22-2.38-0.66-3.11
		c-0.44-0.72-0.98-1.21-1.61-1.45c-0.46-0.18-1.19-0.26-2.21-0.26h-2.71V75.93z"/>
</g>
</svg>
