<?xml version="1.0" encoding="iso-8859-1"?>
<!-- Generator: Adobe Illustrator 29.8.4, SVG Export Plug-In . SVG Version: 9.03 Build 0)  -->
<svg version="1.1" id="Layer_1" xmlns="http://www.w3.org/2000/svg" xmlns:xlink="http://www.w3.org/1999/xlink" x="0px" y="0px"
	 viewBox="0 0 1500 276" enable-background="new 0 0 1500 276" xml:space="preserve">
<rect id="bg-white" fill="#FFFFFF" width="1500" height="276"/>
<line fill="none" stroke="#D30F1D" stroke-width="10" stroke-linecap="round" stroke-miterlimit="10" x1="90" y1="241" x2="1410" y2="241"/>
<circle fill="#FFFFFF" stroke="#000000" stroke-width="3" stroke-miterlimit="10" cx="90" cy="241" r="10"/>
<g>
	<path d="M97.82,221.86l-0.61,2.27l-9.64-2.58l-0.69,2.59l-1.96-0.53l2-7.46l1.96,0.53l-0.7,2.61L97.82,221.86z"/>
	<path d="M91.7,214.6l4.26,1.14c1.15,0.31,1.86-0.05,2.13-1.08c0.28-1.03-0.17-1.69-1.31-2l-4.26-1.14l0.56-2.11l4.61,1.24
		c2.04,0.55,2.82,2.14,2.19,4.48c-0.63,2.34-2.11,3.35-4.14,2.8l-4.61-1.24L91.7,214.6z"/>
	<path d="M93.63,207.41l0.56-2.11l0.94,0.25c-0.68-0.87-0.82-1.66-0.55-2.68c0.25-0.92,0.74-1.58,1.49-1.95
		c0.56-0.28,1.31-0.29,2.25-0.03l4.78,1.28l-0.56,2.11l-4.18-1.12c-0.58-0.16-1-0.2-1.27-0.11c-0.46,0.11-0.76,0.47-0.92,1.07
		c-0.28,1.06,0.27,1.78,1.66,2.16l3.9,1.04l-0.56,2.11L93.63,207.41z"/>
	<path d="M96.11,198.14l0.56-2.11l0.94,0.25c-0.68-0.88-0.82-1.66-0.55-2.68c0.25-0.92,0.74-1.58,1.49-1.95
		c0.56-0.28,1.31-0.29,2.25-0.03l4.78,1.28l-0.56,2.11l-4.18-1.12c-0.58-0.15-1-0.2-1.27-0.11c-0.46,0.11-0.76,0.47-0.92,1.07
		c-0.28,1.06,0.27,1.78,1.66,2.16l3.9,1.04l-0.56,2.11L96.11,198.14z"/>
	<path d="M104.68,182.58l-1.51,5.65c1.37,0.3,2.2-0.13,2.51-1.3c0.2-0.73,0.02-1.42-0.53-2.06l0.83-1.86
		c1.39,1.07,1.84,2.5,1.36,4.31c-0.33,1.23-0.96,2.11-1.88,2.65c-0.93,0.54-1.99,0.65-3.21,0.32s-2.09-0.94-2.62-1.86
		c-0.54-0.92-0.65-1.97-0.33-3.16c0.32-1.2,0.94-2.04,1.84-2.54c0.91-0.49,1.99-0.57,3.26-0.23L104.68,182.58z M101.85,187.8
		l0.96-3.57c-1.05-0.04-1.72,0.43-1.97,1.39C100.58,186.55,100.94,187.36,101.85,187.8z"/>
	<path d="M107.97,179.42l-7.34,1.86l0.66-2.45l4.88-1.11l-3.71-3.29l0.65-2.42l9.92,9.18l-0.64,2.39L107.97,179.42z"/>
	<path d="M99.57,168.05l0.75-1.87l3.97,3.69l-0.54,1.29L99.57,168.05z"/>
	<path d="M107.61,162.24c-0.45,0.35-0.72,0.68-0.8,0.99c-0.08,0.31-0.09,0.56-0.01,0.75c0.08,0.2,0.22,0.31,0.39,0.36
		s0.34,0.01,0.5-0.12c0.15-0.13,0.41-0.46,0.77-1s0.68-0.92,0.97-1.14c0.53-0.45,1.17-0.58,1.93-0.37c0.76,0.2,1.31,0.67,1.66,1.39
		c0.35,0.73,0.4,1.56,0.15,2.49c-0.3,1.14-0.98,1.98-2.02,2.52l-0.99-1.45c0.74-0.43,1.2-0.94,1.36-1.55
		c0.14-0.53-0.12-1.06-0.57-1.18c-0.23-0.06-0.42-0.04-0.57,0.07c-0.15,0.12-0.42,0.44-0.8,1s-0.69,0.92-0.93,1.11
		c-0.48,0.41-1.07,0.52-1.77,0.33c-0.71-0.19-1.21-0.6-1.52-1.23c-0.32-0.62-0.35-1.36-0.13-2.21c0.23-0.85,0.71-1.56,1.44-2.14
		L107.61,162.24z"/>
	<path d="M111.73,152.78l4.3,1.15l-0.61,2.26l-11.6-3.11l0.91-3.39c0.2-0.75,0.43-1.34,0.68-1.76c0.26-0.42,0.6-0.78,1.02-1.06
		c0.92-0.6,1.94-0.75,3.03-0.45c1.1,0.29,1.9,0.85,2.42,1.68c0.52,0.82,0.59,1.9,0.24,3.23L111.73,152.78z M109.77,152.25l0.25-0.92
		c0.38-1.42,0.01-2.27-1.1-2.57c-1.18-0.32-1.88,0.22-2.31,1.8l-0.21,0.78L109.77,152.25z"/>
	<path d="M111.75,139.76l0.56-2.11l7.53,2.02l-0.56,2.11l-0.98-0.26c0.63,0.87,0.82,1.81,0.54,2.84s-0.89,1.79-1.84,2.29
		c-0.95,0.5-2,0.6-3.13,0.3c-1.13-0.3-1.99-0.92-2.58-1.83c-0.58-0.91-0.74-1.87-0.47-2.87c0.27-1,0.9-1.74,1.9-2.22L111.75,139.76z
		 M112.91,142.08c-0.16,0.59-0.09,1.15,0.21,1.67c0.3,0.53,0.74,0.86,1.33,1.02c0.59,0.16,1.14,0.09,1.66-0.22
		c0.53-0.3,0.86-0.74,1.02-1.32c0.15-0.58,0.08-1.13-0.22-1.66c-0.3-0.52-0.73-0.86-1.32-1.02c-0.59-0.16-1.13-0.08-1.66,0.2
		C113.4,141.05,113.06,141.49,112.91,142.08z"/>
	<path d="M115.71,132.03c-0.45,0.35-0.72,0.68-0.8,1c-0.08,0.31-0.09,0.56-0.01,0.75c0.08,0.2,0.22,0.31,0.39,0.36
		c0.18,0.05,0.34,0.01,0.5-0.12c0.15-0.13,0.41-0.46,0.77-1c0.36-0.53,0.68-0.92,0.97-1.14c0.53-0.45,1.17-0.58,1.93-0.37
		s1.31,0.67,1.66,1.39c0.35,0.73,0.4,1.56,0.15,2.49c-0.3,1.14-0.98,1.98-2.02,2.52l-0.99-1.45c0.74-0.43,1.2-0.94,1.36-1.55
		c0.14-0.53-0.12-1.06-0.57-1.18c-0.23-0.06-0.42-0.04-0.57,0.07c-0.15,0.12-0.42,0.44-0.8,1c-0.38,0.55-0.69,0.92-0.93,1.11
		c-0.48,0.41-1.07,0.52-1.77,0.33c-0.71-0.19-1.21-0.6-1.52-1.23c-0.32-0.62-0.35-1.36-0.13-2.21c0.23-0.85,0.71-1.56,1.44-2.13
		L115.71,132.03z"/>
	<path d="M117.17,126.84l5.71,1.53l-0.56,2.11l-5.71-1.53l-0.22,0.83l-1.83-0.49l0.22-0.83l-2.57-0.69l0.56-2.11l2.57,0.69l0.4-1.49
		l1.83,0.49L117.17,126.84z"/>
	<path d="M116.62,121.61l4.26,1.14c1.15,0.31,1.86-0.05,2.14-1.07c0.28-1.03-0.17-1.69-1.31-2l-4.26-1.14l0.56-2.11l4.61,1.24
		c2.04,0.55,2.82,2.14,2.19,4.48c-0.63,2.34-2.11,3.35-4.14,2.8l-4.61-1.23L116.62,121.61z"/>
	<path d="M126.64,114.33l-0.56,2.11l-7.53-2.02l0.56-2.11l1.15,0.31c-0.79-0.77-1.06-1.62-0.8-2.56c0.08-0.3,0.22-0.59,0.43-0.87
		l1.88,0.82c-0.26,0.27-0.44,0.58-0.52,0.93c-0.32,1.21,0.27,2.01,1.77,2.41L126.64,114.33z"/>
	<path d="M126.3,101.91l-1.51,5.65c1.37,0.3,2.2-0.13,2.51-1.3c0.2-0.73,0.02-1.42-0.53-2.06l0.83-1.86
		c1.39,1.07,1.84,2.5,1.36,4.31c-0.33,1.23-0.96,2.11-1.88,2.65c-0.93,0.54-1.99,0.65-3.21,0.32s-2.09-0.94-2.62-1.86
		c-0.54-0.92-0.65-1.97-0.33-3.16c0.32-1.2,0.94-2.04,1.84-2.54s1.99-0.57,3.25-0.23L126.3,101.91z M123.46,107.13l0.96-3.57
		c-1.05-0.04-1.72,0.43-1.97,1.39C122.2,105.88,122.56,106.7,123.46,107.13z"/>
</g>
<circle fill="#FFFFFF" stroke="#000000" stroke-width="3" stroke-miterlimit="10" cx="200" cy="241" r="10"/>
<g>
	<path d="M206.85,225.49l-11.6-3.11l0.77-2.87c0.35-1.31,0.83-2.19,1.45-2.64c0.73-0.55,1.61-0.69,2.64-0.41
		c0.64,0.17,1.15,0.46,1.54,0.88c0.18,0.22,0.33,0.56,0.47,1.02c0.34-0.66,0.72-1.09,1.14-1.32c0.7-0.4,1.52-0.48,2.46-0.23
		s1.62,0.8,2.05,1.63c0.42,0.83,0.46,1.88,0.12,3.14L206.85,225.49z M200.69,221.42l0.17-0.64c0.31-1.17-0.03-1.89-1.03-2.16
		s-1.66,0.17-1.96,1.32l-0.18,0.68L200.69,221.42z M205.63,222.75l0.26-0.98c0.4-1.5,0.07-2.4-0.99-2.69
		c-0.59-0.16-1.08-0.04-1.47,0.33c-0.31,0.27-0.57,0.81-0.79,1.62l-0.23,0.85L205.63,222.75z"/>
	<path d="M203.43,208.13l0.56-2.11l7.53,2.02l-0.56,2.11l-0.98-0.26c0.63,0.87,0.82,1.81,0.54,2.84s-0.89,1.79-1.84,2.29
		c-0.95,0.5-2,0.6-3.13,0.3s-1.99-0.92-2.58-1.83c-0.58-0.91-0.74-1.87-0.47-2.87c0.27-1,0.9-1.74,1.9-2.22L203.43,208.13z
		 M204.59,210.45c-0.16,0.59-0.09,1.15,0.21,1.67c0.3,0.53,0.74,0.86,1.33,1.02s1.14,0.09,1.66-0.22c0.53-0.3,0.86-0.74,1.02-1.32
		c0.16-0.58,0.09-1.13-0.22-1.66c-0.3-0.53-0.73-0.86-1.32-1.02s-1.13-0.09-1.66,0.2C205.08,209.41,204.74,209.86,204.59,210.45z"/>
	<path d="M211.62,203.13l-7.34,1.85l0.66-2.45l4.88-1.11l-3.71-3.29l0.65-2.42l9.92,9.18l-0.64,2.39L211.62,203.13z"/>
	<path d="M207.4,193.32l4.79-0.84l-3.74-3.1l0.63-2.37l6.64,5.94l-0.25,0.95l-8.71,1.79L207.4,193.32z"/>
	<path d="M205.22,183.66c0.09-0.35,0.29-0.61,0.6-0.79c0.31-0.18,0.64-0.22,0.99-0.13c0.35,0.09,0.62,0.3,0.8,0.62
		c0.19,0.31,0.23,0.65,0.14,1c-0.09,0.35-0.3,0.61-0.61,0.79c-0.31,0.18-0.65,0.23-1,0.13c-0.35-0.09-0.62-0.3-0.8-0.62
		C205.17,184.34,205.13,184,205.22,183.66z M209.95,183.82l7.53,2.02l-0.56,2.1l-7.53-2.02L209.95,183.82z"/>
	<path d="M216.57,175.53l-1.51,5.65c1.37,0.3,2.2-0.13,2.51-1.3c0.2-0.73,0.01-1.42-0.53-2.06l0.83-1.86
		c1.39,1.07,1.84,2.5,1.36,4.31c-0.33,1.23-0.96,2.11-1.88,2.65c-0.93,0.54-1.99,0.65-3.21,0.32c-1.21-0.33-2.09-0.94-2.62-1.86
		c-0.54-0.92-0.65-1.97-0.33-3.16c0.32-1.2,0.94-2.04,1.84-2.54c0.91-0.49,1.99-0.57,3.25-0.23L216.57,175.53z M213.74,180.75
		l0.96-3.56c-1.05-0.04-1.72,0.43-1.97,1.39C212.47,179.5,212.83,180.32,213.74,180.75z"/>
	<path d="M213.17,171.81l4.88-0.81l-4-3.27l0.24-0.9l5.17-0.82l-3.88-3.19l0.63-2.35l6.64,5.96l-0.25,0.95l-5.11,0.81l4.03,3.23
		l-0.26,0.97l-8.72,1.8L213.17,171.81z"/>
</g>
<circle fill="#FFFFFF" stroke="#000000" stroke-width="3" stroke-miterlimit="10" cx="310" cy="241" r="10"/>
<g>
	<path d="M313.16,222.08l4.3,1.15l-0.61,2.26l-11.6-3.11l0.91-3.39c0.2-0.76,0.43-1.34,0.68-1.76c0.26-0.42,0.6-0.78,1.02-1.06
		c0.92-0.6,1.94-0.75,3.03-0.45c1.1,0.29,1.9,0.85,2.42,1.68c0.52,0.82,0.59,1.9,0.24,3.23L313.16,222.08z M311.2,221.56l0.25-0.92
		c0.38-1.42,0.01-2.27-1.1-2.57c-1.18-0.32-1.88,0.22-2.31,1.8l-0.21,0.78L311.2,221.56z"/>
	<path d="M307.55,212.28c0.09-0.35,0.29-0.61,0.6-0.79c0.31-0.18,0.64-0.22,0.99-0.13c0.35,0.09,0.62,0.3,0.8,0.61
		c0.19,0.32,0.23,0.66,0.14,1c-0.09,0.35-0.3,0.61-0.61,0.79c-0.31,0.18-0.65,0.23-1,0.13c-0.35-0.09-0.62-0.3-0.8-0.62
		C307.5,212.97,307.46,212.63,307.55,212.28z M312.28,212.45l7.53,2.02l-0.56,2.1l-7.53-2.02L312.28,212.45z"/>
	<path d="M318.33,204.53l3.86,1.03l-0.56,2.11l-4-1.07c-0.59-0.16-1.01-0.23-1.27-0.19c-0.25,0.03-0.48,0.13-0.67,0.31
		s-0.32,0.39-0.39,0.62c-0.13,0.48,0.02,1.04,0.42,1.44c0.2,0.2,0.64,0.39,1.31,0.56l3.86,1.04l-0.56,2.1l-7.53-2.02l0.56-2.1
		l0.87,0.23c-0.56-0.85-0.72-1.75-0.47-2.7s0.91-1.58,1.96-1.87c-0.76-0.84-1-1.76-0.73-2.77s0.83-1.63,1.67-1.88
		c0.5-0.15,1.14-0.12,1.93,0.09l4.86,1.3l-0.56,2.11l-4.12-1.1c-0.54-0.15-0.96-0.19-1.25-0.15c-0.49,0.08-0.81,0.37-0.95,0.88
		C316.34,203.47,316.91,204.14,318.33,204.53z"/>
	<path d="M312.32,194.51c0.09-0.35,0.29-0.61,0.6-0.79c0.31-0.18,0.64-0.22,0.99-0.13c0.35,0.09,0.62,0.3,0.8,0.62
		c0.19,0.31,0.23,0.65,0.14,1c-0.09,0.35-0.3,0.61-0.61,0.79c-0.31,0.18-0.65,0.23-1,0.13c-0.35-0.09-0.62-0.3-0.8-0.62
		C312.26,195.19,312.22,194.85,312.32,194.51z M317.04,194.67l7.53,2.02l-0.56,2.1l-7.53-2.02L317.04,194.67z"/>
	<path d="M320.43,189.04c-0.45,0.35-0.72,0.68-0.8,1c-0.08,0.31-0.09,0.56-0.01,0.75c0.08,0.2,0.22,0.31,0.39,0.36
		s0.34,0.01,0.5-0.12c0.15-0.13,0.41-0.46,0.77-1c0.36-0.53,0.68-0.92,0.97-1.14c0.53-0.45,1.17-0.58,1.93-0.38
		c0.76,0.2,1.31,0.67,1.66,1.39c0.35,0.73,0.4,1.56,0.15,2.49c-0.3,1.14-0.98,1.98-2.02,2.52l-0.99-1.45
		c0.74-0.43,1.2-0.94,1.36-1.55c0.14-0.53-0.12-1.06-0.57-1.18c-0.23-0.06-0.42-0.04-0.58,0.07c-0.15,0.11-0.42,0.44-0.8,1
		c-0.38,0.55-0.69,0.92-0.93,1.11c-0.48,0.41-1.07,0.51-1.77,0.33s-1.21-0.6-1.52-1.23c-0.32-0.62-0.35-1.36-0.13-2.21
		s0.71-1.56,1.44-2.13L320.43,189.04z"/>
	<path d="M315.29,183.42c0.09-0.35,0.29-0.61,0.6-0.79c0.31-0.18,0.64-0.22,0.99-0.13c0.35,0.09,0.62,0.3,0.8,0.61
		c0.19,0.31,0.23,0.65,0.14,1c-0.09,0.35-0.3,0.61-0.61,0.79c-0.31,0.18-0.65,0.23-1,0.13c-0.35-0.09-0.62-0.3-0.8-0.62
		C315.23,184.1,315.19,183.77,315.29,183.42z M320.01,183.58l7.53,2.02l-0.56,2.1l-7.53-2.02L320.01,183.58z"/>
</g>
<circle fill="#FFFFFF" stroke="#000000" stroke-width="3" stroke-miterlimit="10" cx="420" cy="241" r="10"/>
<g>
	<path d="M415.86,220.13l9.64,2.58l0.96-3.57l1.96,0.53l-1.56,5.82l-11.6-3.11L415.86,220.13z"/>
	<path d="M428.07,216.38l-7.34,1.86l0.66-2.45l4.88-1.11l-3.71-3.29l0.65-2.42l9.91,9.18l-0.64,2.38L428.07,216.38z"/>
	<path d="M424.19,204.36c0.34-1.26,0.99-2.19,1.94-2.78c0.95-0.59,2.03-0.73,3.21-0.41s2.05,0.98,2.57,1.97
		c0.52,1,0.62,2.14,0.27,3.42c-0.34,1.28-1,2.21-1.97,2.79c-0.97,0.59-2.03,0.72-3.21,0.41c-1.18-0.32-2.03-0.98-2.55-1.99
		C423.93,206.77,423.85,205.63,424.19,204.36z M426.07,204.9c-0.16,0.58-0.09,1.14,0.21,1.67s0.74,0.87,1.33,1.03
		c0.59,0.16,1.14,0.09,1.66-0.22c0.53-0.3,0.87-0.75,1.02-1.34s0.09-1.15-0.21-1.68c-0.3-0.53-0.73-0.86-1.32-1.02
		c-0.59-0.16-1.13-0.09-1.66,0.22C426.57,203.86,426.23,204.31,426.07,204.9z"/>
	<path d="M426,198.53l0.56-2.11l0.94,0.25c-0.68-0.88-0.82-1.66-0.55-2.68c0.25-0.93,0.74-1.58,1.49-1.95
		c0.56-0.28,1.31-0.29,2.25-0.03l4.78,1.28l-0.56,2.11l-4.18-1.12c-0.58-0.15-1-0.2-1.27-0.11c-0.46,0.11-0.76,0.47-0.92,1.07
		c-0.28,1.06,0.27,1.78,1.66,2.16l3.9,1.04l-0.56,2.11L426,198.53z"/>
</g>
<circle fill="#FFFFFF" stroke="#000000" stroke-width="3" stroke-miterlimit="10" cx="530" cy="241" r="10"/>
<g>
	<path d="M533.16,222.08l4.3,1.15l-0.61,2.26l-11.6-3.11l0.91-3.39c0.2-0.76,0.43-1.34,0.68-1.76c0.26-0.42,0.6-0.78,1.02-1.06
		c0.92-0.6,1.94-0.75,3.03-0.45c1.1,0.29,1.9,0.85,2.42,1.68c0.52,0.82,0.59,1.9,0.24,3.23L533.16,222.08z M531.2,221.56l0.25-0.92
		c0.38-1.42,0.01-2.27-1.1-2.57c-1.18-0.32-1.88,0.22-2.31,1.8l-0.21,0.78L531.2,221.56z"/>
	<path d="M533.18,209.07l0.56-2.11l7.53,2.02l-0.56,2.11l-0.98-0.26c0.63,0.87,0.82,1.81,0.54,2.84c-0.28,1.03-0.89,1.79-1.84,2.29
		s-2,0.6-3.13,0.3c-1.13-0.3-1.99-0.92-2.58-1.83c-0.58-0.91-0.74-1.87-0.47-2.87s0.9-1.74,1.9-2.22L533.18,209.07z M534.33,211.39
		c-0.16,0.59-0.09,1.15,0.21,1.67c0.3,0.53,0.74,0.86,1.33,1.02c0.58,0.16,1.14,0.09,1.66-0.22c0.53-0.3,0.86-0.74,1.02-1.32
		c0.15-0.58,0.08-1.13-0.22-1.66c-0.3-0.53-0.73-0.86-1.32-1.02s-1.13-0.08-1.66,0.2C534.83,210.36,534.49,210.8,534.33,211.39z"/>
	<path d="M542.38,204.86l-0.56,2.1l-7.53-2.02l0.56-2.1l1.15,0.31c-0.79-0.77-1.06-1.62-0.8-2.56c0.08-0.3,0.22-0.59,0.43-0.87
		l1.88,0.82c-0.26,0.27-0.44,0.58-0.52,0.93c-0.32,1.21,0.27,2.01,1.77,2.41L542.38,204.86z"/>
	<path d="M531.05,195.05l13.02,3.49l-0.56,2.11l-13.02-3.49L531.05,195.05z"/>
	<path d="M532.91,192.28c0.09-0.35,0.29-0.61,0.6-0.79c0.31-0.18,0.64-0.22,0.99-0.13c0.35,0.09,0.62,0.3,0.8,0.62
		c0.19,0.31,0.23,0.65,0.14,1c-0.09,0.35-0.3,0.61-0.61,0.79c-0.31,0.18-0.65,0.23-1,0.13c-0.35-0.09-0.62-0.3-0.8-0.62
		C532.85,192.97,532.82,192.63,532.91,192.28z M537.63,192.45l7.53,2.02l-0.56,2.1l-7.53-2.02L537.63,192.45z"/>
	<path d="M539.71,184.69l0.56-2.11l7.53,2.02l-0.56,2.11l-0.98-0.26c0.63,0.87,0.82,1.81,0.54,2.84s-0.89,1.79-1.84,2.29
		s-2,0.6-3.13,0.3c-1.13-0.3-1.99-0.92-2.58-1.83c-0.58-0.91-0.74-1.87-0.47-2.87s0.9-1.74,1.9-2.22L539.71,184.69z M540.87,187.01
		c-0.16,0.59-0.09,1.15,0.21,1.67c0.3,0.53,0.74,0.86,1.33,1.02c0.58,0.16,1.14,0.09,1.66-0.22c0.53-0.3,0.86-0.74,1.02-1.32
		c0.15-0.58,0.08-1.13-0.22-1.66c-0.3-0.53-0.73-0.86-1.32-1.02c-0.59-0.16-1.13-0.09-1.66,0.2
		C541.36,185.97,541.02,186.42,540.87,187.01z"/>
	<path d="M546.34,174.63l3.86,1.04l-0.56,2.11l-4-1.07c-0.59-0.16-1.01-0.23-1.27-0.19c-0.25,0.03-0.48,0.13-0.67,0.31
		c-0.19,0.18-0.32,0.39-0.39,0.62c-0.13,0.47,0.02,1.04,0.42,1.44c0.2,0.2,0.64,0.39,1.31,0.56l3.86,1.03l-0.56,2.11l-7.53-2.02
		l0.56-2.11l0.87,0.23c-0.56-0.85-0.72-1.75-0.47-2.7s0.91-1.58,1.97-1.87c-0.76-0.84-1-1.76-0.73-2.77
		c0.27-1.01,0.83-1.63,1.67-1.88c0.5-0.15,1.14-0.12,1.93,0.09l4.86,1.3l-0.56,2.11l-4.12-1.1c-0.54-0.14-0.96-0.19-1.25-0.15
		c-0.49,0.08-0.81,0.37-0.95,0.88C544.35,173.58,544.92,174.25,546.34,174.63z"/>
	<path d="M550.59,160.54l-1.51,5.65c1.37,0.3,2.2-0.13,2.51-1.3c0.2-0.73,0.02-1.42-0.53-2.06l0.83-1.86
		c1.39,1.07,1.84,2.5,1.36,4.31c-0.33,1.23-0.96,2.11-1.88,2.65c-0.93,0.54-1.99,0.65-3.21,0.32s-2.09-0.94-2.62-1.86
		c-0.54-0.92-0.65-1.97-0.33-3.16c0.32-1.2,0.94-2.04,1.84-2.54c0.91-0.49,1.99-0.57,3.26-0.23L550.59,160.54z M547.75,165.76
		l0.96-3.57c-1.05-0.04-1.72,0.43-1.97,1.39C546.49,164.51,546.85,165.33,547.75,165.76z"/>
	<path d="M546.91,157.84l0.56-2.11l0.94,0.25c-0.68-0.88-0.82-1.66-0.55-2.68c0.25-0.92,0.74-1.58,1.49-1.95
		c0.56-0.28,1.31-0.29,2.25-0.03l4.78,1.28l-0.56,2.11l-4.18-1.12c-0.58-0.15-1-0.2-1.27-0.11c-0.46,0.11-0.76,0.47-0.92,1.07
		c-0.28,1.06,0.27,1.78,1.66,2.16l3.9,1.04l-0.56,2.11L546.91,157.84z"/>
	<path d="M551.78,146.95l5.71,1.53l-0.56,2.11l-5.71-1.53l-0.22,0.83l-1.83-0.49l0.22-0.83l-2.57-0.69l0.56-2.11l2.57,0.69l0.4-1.49
		l1.83,0.49L551.78,146.95z"/>
</g>
<circle fill="#FFFFFF" stroke="#000000" stroke-width="3" stroke-miterlimit="10" cx="640" cy="241" r="10"/>
<g>
	<path d="M642.79,221.99l4.66,1.25l-0.61,2.26l-11.6-3.11l0.9-3.35c0.35-1.31,0.89-2.23,1.61-2.74c0.84-0.59,1.82-0.74,2.91-0.45
		c1.1,0.3,1.86,0.87,2.28,1.73c0.27,0.53,0.37,1.13,0.31,1.79l5.86-2.34l-0.75,2.78l-5.5,1.88L642.79,221.99z M641.2,221.56
		l0.18-0.66c0.38-1.43-0.05-2.38-1.18-2.68c-1.16-0.31-1.93,0.25-2.32,1.71l-0.19,0.7L641.2,221.56z"/>
	<path d="M637.74,211.59c0.09-0.35,0.29-0.61,0.6-0.79c0.31-0.18,0.64-0.22,0.99-0.13c0.35,0.09,0.62,0.3,0.8,0.62
		c0.19,0.31,0.23,0.65,0.14,1c-0.09,0.35-0.3,0.61-0.61,0.79c-0.31,0.18-0.65,0.23-1,0.13c-0.35-0.09-0.62-0.3-0.8-0.62
		C637.68,212.27,637.65,211.94,637.74,211.59z M642.46,211.75l7.53,2.02l-0.56,2.1l-7.53-2.02L642.46,211.75z"/>
	<path d="M639.05,202.52l0.56-2.11l13.02,3.49l-0.56,2.11l-0.98-0.26c0.63,0.87,0.82,1.81,0.54,2.84s-0.89,1.79-1.84,2.29
		c-0.95,0.5-2,0.6-3.13,0.3c-1.13-0.3-1.99-0.92-2.58-1.83c-0.58-0.91-0.74-1.87-0.47-2.87s0.9-1.74,1.9-2.22L639.05,202.52z
		 M645.69,206.31c-0.16,0.59-0.09,1.15,0.21,1.67c0.3,0.53,0.74,0.86,1.33,1.02c0.59,0.16,1.14,0.09,1.66-0.22
		c0.53-0.3,0.86-0.74,1.02-1.32c0.15-0.58,0.08-1.13-0.22-1.66c-0.3-0.53-0.73-0.86-1.32-1.02c-0.59-0.16-1.13-0.09-1.66,0.2
		C646.19,205.28,645.85,205.73,645.69,206.31z"/>
	<path d="M651.74,193.57l-1.51,5.64c1.37,0.3,2.2-0.13,2.51-1.3c0.2-0.73,0.02-1.42-0.53-2.06l0.84-1.86
		c1.39,1.07,1.84,2.5,1.36,4.31c-0.33,1.23-0.96,2.11-1.88,2.65c-0.93,0.54-1.99,0.65-3.21,0.32c-1.21-0.33-2.09-0.94-2.62-1.86
		c-0.54-0.92-0.65-1.96-0.33-3.16s0.94-2.04,1.84-2.54c0.91-0.49,1.99-0.57,3.25-0.23L651.74,193.57z M648.9,198.79l0.96-3.57
		c-1.05-0.04-1.72,0.43-1.97,1.39C647.63,197.54,648,198.36,648.9,198.79z"/>
	<path d="M649.6,185.1l0.56-2.1l7.53,2.02l-0.56,2.1l-0.98-0.26c0.63,0.87,0.82,1.81,0.54,2.84s-0.89,1.79-1.84,2.29
		c-0.95,0.5-2,0.6-3.13,0.3c-1.13-0.3-1.99-0.92-2.58-1.83c-0.58-0.91-0.74-1.87-0.47-2.87c0.27-1,0.9-1.74,1.9-2.22L649.6,185.1z
		 M650.76,187.42c-0.16,0.59-0.09,1.15,0.21,1.67c0.3,0.53,0.74,0.86,1.33,1.02s1.14,0.09,1.66-0.22c0.53-0.3,0.86-0.74,1.02-1.32
		c0.15-0.58,0.08-1.13-0.22-1.66c-0.3-0.53-0.73-0.86-1.32-1.02c-0.59-0.16-1.13-0.08-1.66,0.2
		C651.25,186.39,650.91,186.84,650.76,187.42z"/>
	<path d="M651.27,178.88l4.26,1.14c1.15,0.31,1.86-0.05,2.14-1.08s-0.17-1.69-1.31-2l-4.26-1.14l0.56-2.11l4.61,1.24
		c2.04,0.55,2.82,2.14,2.19,4.48c-0.63,2.34-2.11,3.35-4.14,2.8l-4.61-1.24L651.27,178.88z"/>
</g>
<circle fill="#FFFFFF" stroke="#000000" stroke-width="3" stroke-miterlimit="10" cx="750" cy="241" r="10"/>
<g>
	<path d="M749.8,221.7l4.26,1.14c1.15,0.31,1.86-0.05,2.14-1.07s-0.17-1.69-1.31-2l-4.26-1.14l0.56-2.11l4.61,1.24
		c2.04,0.55,2.82,2.14,2.19,4.48c-0.63,2.34-2.11,3.35-4.14,2.8l-4.61-1.24L749.8,221.7z"/>
	<path d="M748.99,207.38c0.46-1.72,1.44-3.02,2.93-3.9c1.49-0.88,3.09-1.09,4.8-0.63c1.71,0.46,2.98,1.44,3.82,2.96
		s1.02,3.15,0.55,4.9c-0.47,1.75-1.45,3.05-2.94,3.92c-1.5,0.86-3.09,1.07-4.79,0.61s-2.97-1.45-3.81-2.98
		C748.72,210.73,748.53,209.11,748.99,207.38z M751.06,207.96c-0.28,1.06-0.14,2.08,0.43,3.05c0.57,0.97,1.41,1.61,2.51,1.9
		c1.1,0.3,2.15,0.17,3.13-0.38s1.62-1.35,1.9-2.42c0.29-1.07,0.14-2.09-0.44-3.06c-0.58-0.96-1.42-1.59-2.52-1.89
		c-1.1-0.3-2.15-0.17-3.12,0.37C751.98,206.09,751.34,206.9,751.06,207.96z"/>
	<path d="M757.84,198.99l5.71,1.53l-0.56,2.1l-5.71-1.53l-0.22,0.83l-1.83-0.49l0.22-0.83l-2.57-0.69l0.56-2.1l2.57,0.69l0.4-1.49
		l1.83,0.49L757.84,198.99z"/>
	<path d="M759.22,193.84l5.71,1.53l-0.56,2.11l-5.71-1.53l-0.22,0.83l-1.83-0.49l0.22-0.83l-2.57-0.69l0.56-2.11l2.57,0.69l0.4-1.49
		l1.83,0.49L759.22,193.84z"/>
	<path d="M759.64,184.98l0.56-2.11l7.53,2.02l-0.56,2.11l-0.98-0.26c0.63,0.87,0.82,1.81,0.54,2.84s-0.89,1.79-1.84,2.29
		c-0.95,0.5-2,0.6-3.13,0.3c-1.13-0.3-1.99-0.92-2.58-1.83c-0.58-0.91-0.74-1.87-0.47-2.87c0.27-1,0.9-1.74,1.9-2.22L759.64,184.98z
		 M760.79,187.3c-0.16,0.59-0.09,1.15,0.21,1.67c0.3,0.53,0.74,0.86,1.33,1.02c0.59,0.16,1.14,0.09,1.66-0.22
		c0.53-0.3,0.86-0.74,1.02-1.32c0.16-0.58,0.09-1.13-0.22-1.66c-0.3-0.52-0.73-0.86-1.32-1.02c-0.59-0.16-1.13-0.08-1.66,0.2
		C761.28,186.26,760.95,186.71,760.79,187.3z"/>
	<path d="M761.11,179.47l4.88-0.81l-4-3.27l0.24-0.9l5.17-0.82l-3.88-3.19l0.63-2.35l6.64,5.96l-0.25,0.95l-5.11,0.81l4.03,3.23
		l-0.26,0.97l-8.72,1.8L761.11,179.47z"/>
	<path d="M765.87,161.7l0.56-2.11l7.53,2.02l-0.56,2.11l-0.98-0.26c0.63,0.87,0.82,1.81,0.54,2.84s-0.89,1.79-1.84,2.29
		s-2,0.6-3.13,0.3c-1.13-0.3-1.99-0.92-2.58-1.83c-0.58-0.91-0.74-1.87-0.47-2.87s0.9-1.74,1.9-2.22L765.87,161.7z M767.03,164.02
		c-0.16,0.59-0.09,1.15,0.21,1.67c0.3,0.53,0.74,0.86,1.33,1.02c0.58,0.16,1.14,0.09,1.66-0.22c0.53-0.3,0.86-0.74,1.02-1.32
		c0.15-0.58,0.08-1.13-0.22-1.66c-0.3-0.53-0.73-0.86-1.32-1.02s-1.13-0.08-1.66,0.2C767.52,162.99,767.18,163.43,767.03,164.02z"/>
</g>
<circle fill="#FFFFFF" stroke="#000000" stroke-width="3" stroke-miterlimit="10" cx="860" cy="241" r="10"/>
<g>
	<path d="M855.86,220.13l9.64,2.58l0.96-3.57l1.96,0.53l-1.56,5.82l-11.6-3.11L855.86,220.13z"/>
	<path d="M867.33,210.02l-1.51,5.64c1.37,0.3,2.2-0.13,2.51-1.3c0.2-0.73,0.02-1.42-0.53-2.06l0.83-1.86
		c1.39,1.07,1.84,2.5,1.36,4.31c-0.33,1.23-0.96,2.11-1.88,2.65s-1.99,0.65-3.21,0.32c-1.21-0.33-2.09-0.94-2.62-1.86
		c-0.54-0.92-0.65-1.96-0.33-3.16s0.94-2.04,1.84-2.54c0.91-0.49,1.99-0.57,3.25-0.23L867.33,210.02z M864.5,215.24l0.96-3.57
		c-1.05-0.04-1.72,0.43-1.97,1.39C863.23,213.99,863.59,214.8,864.5,215.24z"/>
	<path d="M869.74,201.02l-1.51,5.65c1.37,0.3,2.2-0.13,2.51-1.3c0.2-0.73,0.02-1.42-0.53-2.06l0.83-1.86
		c1.39,1.07,1.84,2.5,1.36,4.31c-0.33,1.23-0.96,2.11-1.88,2.65s-1.99,0.65-3.21,0.32s-2.09-0.94-2.62-1.86
		c-0.54-0.92-0.65-1.97-0.33-3.16c0.32-1.2,0.94-2.04,1.84-2.54s1.99-0.57,3.25-0.23L869.74,201.02z M866.91,206.24l0.96-3.57
		c-1.05-0.04-1.72,0.43-1.97,1.39C865.64,204.99,866,205.8,866.91,206.24z"/>
	<path d="M868.89,194.79c-0.45,0.35-0.72,0.68-0.8,1c-0.08,0.31-0.09,0.56-0.01,0.75c0.08,0.2,0.22,0.31,0.39,0.36
		c0.18,0.05,0.34,0.01,0.5-0.12c0.15-0.13,0.41-0.46,0.77-1c0.36-0.53,0.68-0.92,0.97-1.14c0.53-0.45,1.17-0.58,1.93-0.38
		c0.76,0.2,1.31,0.67,1.66,1.39c0.35,0.73,0.4,1.56,0.15,2.49c-0.3,1.14-0.98,1.98-2.02,2.52l-0.99-1.45
		c0.74-0.43,1.2-0.94,1.36-1.55c0.14-0.53-0.12-1.06-0.57-1.18c-0.23-0.06-0.42-0.04-0.57,0.07c-0.15,0.12-0.42,0.44-0.8,1
		s-0.69,0.92-0.93,1.11c-0.48,0.41-1.07,0.51-1.77,0.33s-1.21-0.6-1.52-1.23c-0.32-0.62-0.35-1.36-0.13-2.21
		c0.23-0.85,0.71-1.56,1.44-2.13L868.89,194.79z"/>
</g>
<circle fill="#FFFFFF" stroke="#000000" stroke-width="3" stroke-miterlimit="10" cx="970" cy="241" r="10"/>
<g>
	<path d="M970.34,221.33l1.31-4.9l-4.48-1.2l0.61-2.27l11.6,3.11l-0.61,2.27l-5.14-1.38l-1.31,4.9l5.14,1.38l-0.61,2.26l-11.6-3.11
		l0.61-2.26L970.34,221.33z"/>
	<path d="M973.03,209.62l4.26,1.14c1.15,0.31,1.86-0.05,2.13-1.08s-0.17-1.69-1.31-2l-4.26-1.14l0.56-2.11l4.61,1.23
		c2.04,0.55,2.82,2.14,2.19,4.48s-2.11,3.35-4.14,2.8l-4.61-1.24L973.03,209.62z"/>
	<path d="M983.05,202.34l-0.56,2.11l-7.53-2.02l0.56-2.11l1.15,0.31c-0.79-0.77-1.06-1.62-0.8-2.56c0.08-0.3,0.22-0.59,0.43-0.87
		l1.88,0.82c-0.26,0.27-0.44,0.57-0.52,0.93c-0.32,1.21,0.27,2.01,1.77,2.41L983.05,202.34z"/>
	<path d="M972.67,189l0.56-2.11l13.02,3.49l-0.56,2.11l-0.98-0.26c0.63,0.87,0.82,1.81,0.54,2.84s-0.89,1.79-1.84,2.29
		c-0.95,0.5-2,0.6-3.13,0.3c-1.13-0.3-1.99-0.92-2.58-1.83c-0.58-0.91-0.74-1.87-0.47-2.87c0.27-1,0.9-1.74,1.9-2.22L972.67,189z
		 M979.32,192.79c-0.16,0.59-0.09,1.15,0.21,1.67c0.3,0.53,0.74,0.86,1.33,1.02s1.14,0.09,1.66-0.22c0.53-0.3,0.86-0.74,1.02-1.32
		c0.16-0.58,0.09-1.13-0.22-1.66c-0.3-0.53-0.73-0.86-1.32-1.02s-1.13-0.08-1.66,0.2C979.81,191.76,979.47,192.2,979.32,192.79z"/>
	<path d="M984.79,180.42l3.86,1.03l-0.56,2.11l-4-1.07c-0.59-0.16-1.01-0.23-1.27-0.19c-0.25,0.03-0.48,0.13-0.67,0.31
		c-0.19,0.18-0.32,0.39-0.39,0.62c-0.13,0.48,0.02,1.04,0.42,1.44c0.2,0.2,0.64,0.39,1.31,0.56l3.86,1.04l-0.56,2.11l-7.53-2.02
		l0.56-2.11l0.88,0.23c-0.56-0.85-0.72-1.75-0.47-2.7s0.91-1.58,1.97-1.87c-0.76-0.84-1-1.76-0.73-2.77s0.83-1.63,1.67-1.88
		c0.5-0.15,1.14-0.12,1.93,0.09l4.86,1.3l-0.56,2.11l-4.12-1.1c-0.54-0.15-0.96-0.19-1.25-0.15c-0.49,0.08-0.81,0.37-0.95,0.88
		C982.8,179.36,983.37,180.04,984.79,180.42z"/>
	<path d="M984.49,166.85l0.56-2.11l7.53,2.02l-0.56,2.11l-0.98-0.26c0.63,0.87,0.82,1.81,0.54,2.84s-0.89,1.79-1.84,2.29
		s-2,0.6-3.13,0.3c-1.13-0.3-1.99-0.92-2.58-1.83c-0.58-0.91-0.74-1.87-0.47-2.87s0.9-1.74,1.9-2.22L984.49,166.85z M985.65,169.17
		c-0.16,0.59-0.09,1.15,0.21,1.67c0.3,0.53,0.74,0.86,1.33,1.02c0.58,0.16,1.14,0.09,1.66-0.22c0.53-0.3,0.86-0.74,1.02-1.32
		c0.15-0.58,0.08-1.13-0.22-1.66c-0.3-0.53-0.73-0.86-1.32-1.02s-1.13-0.09-1.66,0.2C986.14,168.14,985.8,168.59,985.65,169.17z"/>
	<path d="M985.6,162.73l0.56-2.11l0.94,0.25c-0.68-0.88-0.82-1.66-0.55-2.68c0.25-0.93,0.74-1.58,1.49-1.95
		c0.56-0.28,1.31-0.29,2.25-0.03l4.78,1.28l-0.56,2.11l-4.18-1.12c-0.58-0.15-1-0.2-1.27-0.11c-0.46,0.11-0.76,0.47-0.92,1.07
		c-0.28,1.06,0.27,1.78,1.66,2.16l3.9,1.04l-0.56,2.11L985.6,162.73z"/>
</g>
<circle fill="#FFFFFF" stroke="#000000" stroke-width="3" stroke-miterlimit="10" cx="1080" cy="241" r="10"/>
<g>
	<path d="M1087.82,221.86l-0.61,2.27l-9.64-2.58l-0.69,2.59l-1.96-0.53l2-7.46l1.96,0.53l-0.7,2.61L1087.82,221.86z"/>
	<path d="M1089.25,216.54l-0.56,2.11l-7.53-2.02l0.56-2.11l1.15,0.31c-0.79-0.77-1.06-1.62-0.8-2.56c0.08-0.3,0.22-0.59,0.43-0.87
		l1.88,0.82c-0.26,0.27-0.44,0.58-0.52,0.93c-0.32,1.21,0.27,2.01,1.77,2.41L1089.25,216.54z"/>
	<path d="M1088.91,204.12l-1.51,5.65c1.37,0.3,2.2-0.13,2.51-1.3c0.2-0.73,0.02-1.42-0.53-2.06l0.83-1.86
		c1.39,1.07,1.84,2.5,1.37,4.31c-0.33,1.23-0.96,2.11-1.88,2.65s-1.99,0.65-3.21,0.32s-2.09-0.94-2.62-1.86
		c-0.54-0.92-0.65-1.97-0.33-3.16c0.32-1.2,0.94-2.04,1.84-2.54c0.91-0.49,1.99-0.57,3.25-0.23L1088.91,204.12z M1086.08,209.34
		l0.96-3.57c-1.05-0.04-1.72,0.43-1.97,1.39C1084.81,208.09,1085.17,208.9,1086.08,209.34z"/>
	<path d="M1090.75,195.48l3.86,1.04l-0.56,2.11l-4-1.07c-0.59-0.16-1.01-0.23-1.27-0.19c-0.25,0.03-0.48,0.13-0.67,0.31
		c-0.19,0.18-0.32,0.39-0.39,0.62c-0.13,0.47,0.02,1.04,0.42,1.44c0.2,0.2,0.64,0.39,1.31,0.56l3.86,1.03l-0.56,2.11l-7.53-2.02
		l0.56-2.11l0.87,0.23c-0.56-0.85-0.72-1.75-0.47-2.7s0.91-1.58,1.97-1.87c-0.76-0.84-1-1.76-0.73-2.77
		c0.27-1.01,0.83-1.63,1.67-1.88c0.5-0.15,1.14-0.12,1.93,0.09l4.87,1.3l-0.56,2.11l-4.12-1.1c-0.54-0.14-0.96-0.19-1.25-0.15
		c-0.49,0.08-0.81,0.37-0.95,0.88C1088.76,194.43,1089.33,195.1,1090.75,195.48z"/>
	<path d="M1083.98,184.12l6.47,1.73c-0.62-0.92-0.8-1.89-0.53-2.89c0.27-1,0.88-1.75,1.83-2.25c0.95-0.5,2-0.59,3.14-0.29
		c1.15,0.31,2,0.91,2.58,1.82c0.58,0.91,0.73,1.88,0.45,2.91c-0.28,1.03-0.91,1.76-1.9,2.19l0.98,0.26l-0.56,2.11l-13.02-3.49
		L1083.98,184.12z M1091.63,184.15c-0.16,0.59-0.08,1.13,0.21,1.66c0.3,0.53,0.74,0.86,1.33,1.02c0.58,0.16,1.14,0.09,1.66-0.22
		c0.53-0.3,0.86-0.74,1.02-1.32c0.15-0.58,0.08-1.13-0.22-1.66c-0.3-0.52-0.73-0.87-1.32-1.03c-0.59-0.16-1.13-0.09-1.66,0.22
		C1092.13,183.12,1091.79,183.56,1091.63,184.15z"/>
	<path d="M1086.63,174.23l13.02,3.49l-0.56,2.11l-13.02-3.49L1086.63,174.23z"/>
	<path d="M1094.21,167.91l0.56-2.1l7.53,2.02l-0.56,2.1l-0.98-0.26c0.63,0.87,0.82,1.81,0.54,2.84s-0.89,1.79-1.84,2.29
		c-0.95,0.5-2,0.6-3.13,0.3c-1.13-0.3-1.99-0.92-2.58-1.83c-0.58-0.91-0.74-1.87-0.47-2.87c0.27-1,0.9-1.74,1.9-2.22L1094.21,167.91
		z M1095.36,170.23c-0.16,0.59-0.09,1.15,0.21,1.67c0.3,0.53,0.74,0.86,1.33,1.02s1.14,0.09,1.66-0.22c0.53-0.3,0.86-0.74,1.02-1.32
		c0.16-0.58,0.09-1.13-0.22-1.66c-0.3-0.53-0.73-0.86-1.32-1.02c-0.59-0.16-1.13-0.08-1.66,0.2
		C1095.86,169.2,1095.52,169.65,1095.36,170.23z"/>
	<path d="M1102.39,162.92l-7.34,1.86l0.66-2.45l4.88-1.11l-3.71-3.29l0.65-2.42l9.91,9.18l-0.64,2.38L1102.39,162.92z"/>
</g>
<circle fill="#FFFFFF" stroke="#000000" stroke-width="3" stroke-miterlimit="10" cx="1190" cy="241" r="10"/>
<g>
	<path d="M1188.79,221.02c0.33,0.09,0.63,0.04,0.9-0.15c0.27-0.19,0.69-0.69,1.28-1.5c0.58-0.82,1.11-1.38,1.57-1.7
		c0.76-0.53,1.68-0.65,2.78-0.36c1.1,0.29,1.89,0.91,2.4,1.84c0.51,0.93,0.6,2,0.28,3.21c-0.44,1.64-1.53,2.76-3.27,3.39l-1.02-1.84
		c1.17-0.27,1.91-0.94,2.2-2.01c0.14-0.52,0.1-0.99-0.11-1.41c-0.22-0.41-0.56-0.69-1.04-0.82c-0.48-0.13-0.92-0.03-1.33,0.31
		c-0.2,0.16-0.6,0.68-1.21,1.54c-0.6,0.87-1.21,1.45-1.79,1.76c-0.58,0.31-1.26,0.35-2.02,0.15c-0.97-0.26-1.69-0.82-2.14-1.67
		c-0.45-0.86-0.55-1.8-0.27-2.85c0.35-1.29,1.08-2.31,2.21-3.07l1.23,1.6c-0.78,0.38-1.26,0.93-1.44,1.63
		c-0.12,0.47-0.1,0.88,0.06,1.26S1188.46,220.93,1188.79,221.02z"/>
	<path d="M1194.16,212.7l5.71,1.53l-0.56,2.11l-5.71-1.53l-0.22,0.83l-1.83-0.49l0.22-0.83l-2.57-0.69l0.56-2.11l2.57,0.69l0.4-1.49
		l1.83,0.49L1194.16,212.7z"/>
	<path d="M1195.57,210.81l1.05-3.91l1.75,0.47l-1.05,3.91L1195.57,210.81z"/>
	<path d="M1190.85,201.5l9.64,2.58l0.96-3.57l1.96,0.53l-1.56,5.82l-11.6-3.11L1190.85,201.5z"/>
	<path d="M1197.78,191.92l0.56-2.11l7.53,2.02l-0.56,2.11l-0.98-0.26c0.63,0.87,0.81,1.81,0.54,2.84c-0.28,1.03-0.89,1.79-1.84,2.29
		s-2,0.6-3.13,0.3s-1.99-0.92-2.58-1.83c-0.58-0.91-0.74-1.87-0.47-2.87c0.27-1,0.9-1.74,1.9-2.22L1197.78,191.92z M1198.93,194.24
		c-0.16,0.59-0.09,1.15,0.21,1.67c0.3,0.53,0.74,0.86,1.33,1.02c0.59,0.16,1.14,0.09,1.66-0.22c0.53-0.3,0.86-0.74,1.02-1.32
		c0.16-0.58,0.09-1.13-0.22-1.66c-0.3-0.53-0.73-0.86-1.32-1.02c-0.59-0.16-1.13-0.09-1.65,0.2
		C1199.42,193.21,1199.09,193.66,1198.93,194.24z"/>
	<path d="M1199.44,185.7l4.26,1.14c1.15,0.31,1.86-0.05,2.13-1.07c0.28-1.03-0.17-1.69-1.31-2l-4.26-1.14l0.56-2.11l4.61,1.24
		c2.04,0.55,2.82,2.14,2.19,4.48c-0.63,2.34-2.11,3.35-4.14,2.8l-4.61-1.24L1199.44,185.7z"/>
	<path d="M1209.46,178.42l-0.56,2.11l-7.53-2.02l0.56-2.11l1.15,0.31c-0.79-0.77-1.06-1.62-0.8-2.56c0.08-0.3,0.22-0.59,0.43-0.87
		l1.88,0.82c-0.26,0.27-0.44,0.58-0.52,0.93c-0.32,1.21,0.27,2.01,1.77,2.41L1209.46,178.42z"/>
	<path d="M1209.12,166l-1.51,5.64c1.37,0.3,2.2-0.13,2.51-1.3c0.2-0.73,0.02-1.42-0.53-2.06l0.83-1.86c1.39,1.07,1.84,2.5,1.37,4.31
		c-0.33,1.23-0.96,2.11-1.88,2.65c-0.93,0.54-1.99,0.65-3.21,0.32c-1.21-0.33-2.09-0.94-2.62-1.86c-0.54-0.92-0.65-1.96-0.33-3.16
		s0.94-2.04,1.84-2.54s1.99-0.57,3.26-0.23L1209.12,166z M1206.29,171.22l0.96-3.57c-1.05-0.04-1.72,0.43-1.97,1.39
		C1205.02,169.97,1205.39,170.79,1206.29,171.22z"/>
	<path d="M1205.44,163.3l0.56-2.11l0.94,0.25c-0.69-0.88-0.82-1.66-0.55-2.68c0.25-0.93,0.74-1.58,1.49-1.95
		c0.56-0.28,1.31-0.29,2.25-0.04l4.78,1.28l-0.56,2.11l-4.18-1.12c-0.58-0.16-1-0.2-1.27-0.11c-0.46,0.11-0.76,0.47-0.92,1.07
		c-0.28,1.06,0.27,1.78,1.66,2.16l3.9,1.04l-0.56,2.11L1205.44,163.3z"/>
	<path d="M1210.32,152.41l5.71,1.53l-0.56,2.11l-5.71-1.53l-0.22,0.83l-1.83-0.49l0.22-0.83l-2.57-0.69l0.56-2.11l2.57,0.69
		l0.4-1.49l1.83,0.49L1210.32,152.41z"/>
</g>
<circle fill="#FFFFFF" stroke="#000000" stroke-width="3" stroke-miterlimit="10" cx="1300" cy="241" r="10"/>
<g>
	<path d="M1300.61,214.86c-1.11,0.65-1.8,1.49-2.08,2.53c-0.28,1.04-0.12,2.02,0.45,2.96c0.58,0.95,1.44,1.57,2.57,1.87
		s2.17,0.19,3.12-0.35c0.95-0.53,1.57-1.34,1.86-2.44c0.15-0.54,0.18-1.05,0.1-1.53s-0.29-1-0.62-1.59l2.66,0.71
		c0.19,1.1,0.17,2.1-0.08,3.02c-0.46,1.72-1.43,3.01-2.91,3.88c-1.48,0.87-3.06,1.08-4.75,0.63s-2.96-1.43-3.84-2.95
		c-0.88-1.52-1.08-3.12-0.63-4.81c0.25-0.94,0.74-1.82,1.47-2.64L1300.61,214.86z"/>
	<path d="M1309.03,212.78l-7.34,1.86l0.66-2.45l4.88-1.11l-3.71-3.29l0.65-2.42l9.92,9.18l-0.64,2.39L1309.03,212.78z"/>
	<path d="M1312.54,204.26l-0.56,2.11l-7.53-2.02l0.56-2.11l1.15,0.31c-0.79-0.77-1.06-1.62-0.8-2.56c0.08-0.3,0.22-0.59,0.43-0.87
		l1.88,0.82c-0.26,0.27-0.44,0.58-0.52,0.93c-0.32,1.21,0.27,2.01,1.77,2.41L1312.54,204.26z"/>
	<path d="M1306.63,196.18l4.79-0.84l-3.74-3.1l0.63-2.37l6.64,5.94l-0.25,0.95l-8.71,1.79L1306.63,196.18z"/>
	<path d="M1304.46,186.52c0.09-0.35,0.29-0.61,0.6-0.79c0.31-0.18,0.64-0.22,0.99-0.13c0.35,0.09,0.62,0.3,0.8,0.61
		c0.19,0.31,0.23,0.65,0.14,1c-0.09,0.35-0.3,0.61-0.61,0.79c-0.31,0.18-0.65,0.23-1,0.13c-0.35-0.09-0.62-0.3-0.8-0.62
		C1304.4,187.2,1304.36,186.87,1304.46,186.52z M1309.18,186.68l7.53,2.02l-0.56,2.1l-7.53-2.02L1309.18,186.68z"/>
	<path d="M1304.78,181.12l13.02,3.49l-0.56,2.11l-13.02-3.49L1304.78,181.12z"/>
	<path d="M1305.89,177l13.02,3.49l-0.56,2.11l-13.02-3.49L1305.89,177z"/>
	<path d="M1318.01,170.16l-1.51,5.64c1.37,0.3,2.2-0.13,2.51-1.3c0.2-0.73,0.02-1.42-0.53-2.06l0.83-1.86
		c1.39,1.07,1.84,2.5,1.36,4.31c-0.33,1.23-0.96,2.11-1.88,2.65c-0.93,0.54-1.99,0.65-3.21,0.32c-1.21-0.33-2.09-0.94-2.62-1.86
		c-0.54-0.92-0.65-1.96-0.33-3.16c0.32-1.2,0.94-2.04,1.84-2.54c0.91-0.49,1.99-0.57,3.25-0.23L1318.01,170.16z M1315.17,175.38
		l0.96-3.57c-1.05-0.04-1.72,0.43-1.97,1.39C1313.91,174.13,1314.27,174.95,1315.17,175.38z"/>
</g>
<circle fill="#FFFFFF" stroke="#000000" stroke-width="3" stroke-miterlimit="10" cx="1410" cy="241" r="10"/>
<g>
	<path d="M1416.85,225.49l-11.6-3.11l0.77-2.87c0.35-1.31,0.83-2.19,1.45-2.64c0.73-0.55,1.61-0.69,2.64-0.41
		c0.64,0.17,1.15,0.46,1.54,0.88c0.18,0.22,0.33,0.56,0.47,1.02c0.34-0.66,0.72-1.09,1.13-1.32c0.7-0.4,1.52-0.48,2.46-0.23
		c0.94,0.25,1.62,0.8,2.05,1.63c0.42,0.83,0.46,1.88,0.12,3.14L1416.85,225.49z M1410.69,221.42l0.17-0.64
		c0.31-1.17-0.03-1.89-1.03-2.16s-1.66,0.17-1.96,1.32l-0.18,0.68L1410.69,221.42z M1415.63,222.75l0.26-0.98
		c0.4-1.5,0.07-2.4-0.99-2.69c-0.59-0.16-1.08-0.04-1.47,0.33c-0.31,0.27-0.57,0.81-0.79,1.62l-0.23,0.85L1415.63,222.75z"/>
	<path d="M1406.96,210.32l13.02,3.49l-0.56,2.11l-13.02-3.49L1406.96,210.32z"/>
	<path d="M1414.54,204.01l0.56-2.11l7.53,2.02l-0.56,2.11l-0.98-0.26c0.63,0.87,0.82,1.81,0.54,2.84s-0.89,1.79-1.84,2.29
		s-2,0.6-3.13,0.3s-1.99-0.92-2.58-1.83c-0.58-0.91-0.74-1.87-0.47-2.87c0.27-1,0.9-1.74,1.9-2.22L1414.54,204.01z M1415.69,206.33
		c-0.16,0.59-0.09,1.15,0.21,1.67c0.3,0.53,0.74,0.86,1.33,1.02c0.58,0.16,1.14,0.09,1.66-0.22c0.53-0.3,0.86-0.74,1.02-1.32
		c0.15-0.58,0.08-1.13-0.22-1.66c-0.3-0.53-0.73-0.86-1.32-1.02c-0.59-0.16-1.13-0.09-1.66,0.2
		C1416.18,205.3,1415.85,205.74,1415.69,206.33z"/>
	<path d="M1411.47,197.66c0.09-0.35,0.29-0.61,0.6-0.79c0.31-0.18,0.64-0.22,0.99-0.13c0.35,0.09,0.62,0.3,0.8,0.62
		c0.19,0.31,0.23,0.65,0.14,1s-0.3,0.61-0.61,0.79c-0.31,0.18-0.65,0.23-1,0.13c-0.35-0.09-0.62-0.3-0.8-0.62
		C1411.41,198.35,1411.38,198.01,1411.47,197.66z M1416.19,197.83l7.53,2.02l-0.56,2.1l-7.53-2.02L1416.19,197.83z"/>
	<path d="M1424.82,195.75l-0.56,2.11l-7.53-2.02l0.56-2.11l1.15,0.31c-0.79-0.77-1.06-1.62-0.8-2.56c0.08-0.3,0.22-0.59,0.43-0.87
		l1.88,0.82c-0.26,0.27-0.44,0.58-0.52,0.93c-0.32,1.21,0.27,2.01,1.77,2.41L1424.82,195.75z"/>
</g>
<g>
	<path fill="#9B9B9B" d="M691.86,269.58v-7.16h3.17c0.64,0,1.12,0.06,1.46,0.19c0.33,0.13,0.6,0.36,0.8,0.68s0.3,0.69,0.3,1.08
		c0,0.51-0.16,0.94-0.49,1.28s-0.84,0.57-1.52,0.66c0.25,0.12,0.44,0.24,0.57,0.36c0.28,0.25,0.54,0.57,0.79,0.95l1.25,1.95h-1.19
		l-0.95-1.49c-0.28-0.43-0.5-0.76-0.68-0.99s-0.34-0.39-0.48-0.48s-0.29-0.15-0.43-0.19c-0.11-0.02-0.28-0.03-0.53-0.03h-1.1v3.18
		H691.86z M692.81,265.58h2.04c0.43,0,0.77-0.04,1.02-0.13c0.24-0.09,0.43-0.23,0.56-0.43c0.13-0.2,0.19-0.41,0.19-0.64
		c0-0.34-0.12-0.62-0.37-0.83s-0.63-0.33-1.16-0.33h-2.27V265.58z"/>
	<path fill="#9B9B9B" d="M702.34,268.94c-0.33,0.28-0.64,0.47-0.94,0.59s-0.62,0.17-0.97,0.17c-0.57,0-1.01-0.14-1.31-0.42
		c-0.31-0.28-0.46-0.63-0.46-1.07c0-0.25,0.06-0.49,0.17-0.7c0.12-0.21,0.27-0.38,0.45-0.51s0.4-0.22,0.63-0.29
		c0.17-0.05,0.43-0.09,0.78-0.13c0.71-0.08,1.23-0.19,1.57-0.3c0-0.12,0-0.2,0-0.23c0-0.36-0.08-0.61-0.25-0.76
		c-0.22-0.2-0.56-0.3-1-0.3c-0.41,0-0.72,0.07-0.92,0.22c-0.2,0.14-0.34,0.4-0.44,0.77l-0.86-0.12c0.08-0.37,0.21-0.67,0.39-0.89
		c0.18-0.23,0.44-0.4,0.78-0.52c0.34-0.12,0.73-0.18,1.18-0.18c0.44,0,0.8,0.05,1.08,0.16s0.48,0.24,0.61,0.39
		c0.13,0.16,0.22,0.36,0.27,0.6c0.03,0.15,0.04,0.42,0.04,0.81v1.17c0,0.82,0.02,1.33,0.06,1.55c0.04,0.22,0.11,0.42,0.22,0.62
		h-0.92C702.43,269.4,702.37,269.19,702.34,268.94z M702.27,266.98c-0.32,0.13-0.8,0.24-1.44,0.33c-0.36,0.05-0.62,0.11-0.77,0.18
		s-0.27,0.16-0.35,0.29c-0.08,0.12-0.12,0.26-0.12,0.42c0,0.23,0.09,0.43,0.27,0.59s0.44,0.23,0.78,0.23c0.34,0,0.64-0.07,0.9-0.22
		c0.26-0.15,0.46-0.35,0.58-0.61c0.09-0.2,0.14-0.49,0.14-0.88V266.98z"/>
	<path fill="#9B9B9B" d="M704.52,263.43v-1.01h0.88v1.01H704.52z M704.52,269.58v-5.19h0.88v5.19H704.52z"/>
	<path fill="#9B9B9B" d="M706.72,269.58v-7.16h0.88v7.16H706.72z"/>
	<path fill="#9B9B9B" d="M711.9,269.58v-7.16h4.83v0.84h-3.88v2.22h3.36v0.84h-3.36v3.25H711.9z"/>
	<path fill="#9B9B9B" d="M721.23,268.94c-0.33,0.28-0.64,0.47-0.94,0.59s-0.62,0.17-0.97,0.17c-0.57,0-1.01-0.14-1.31-0.42
		c-0.31-0.28-0.46-0.63-0.46-1.07c0-0.25,0.06-0.49,0.17-0.7c0.12-0.21,0.27-0.38,0.45-0.51s0.4-0.22,0.63-0.29
		c0.17-0.05,0.43-0.09,0.78-0.13c0.71-0.08,1.23-0.19,1.57-0.3c0-0.12,0-0.2,0-0.23c0-0.36-0.08-0.61-0.25-0.76
		c-0.22-0.2-0.56-0.3-1-0.3c-0.41,0-0.72,0.07-0.92,0.22c-0.2,0.14-0.34,0.4-0.44,0.77l-0.86-0.12c0.08-0.37,0.21-0.67,0.39-0.89
		c0.18-0.23,0.44-0.4,0.78-0.52c0.34-0.12,0.73-0.18,1.18-0.18c0.44,0,0.8,0.05,1.08,0.16s0.48,0.24,0.61,0.39
		c0.13,0.16,0.22,0.36,0.27,0.6c0.03,0.15,0.04,0.42,0.04,0.81v1.17c0,0.82,0.02,1.33,0.06,1.55c0.04,0.22,0.11,0.42,0.22,0.62
		h-0.92C721.32,269.4,721.26,269.19,721.23,268.94z M721.16,266.98c-0.32,0.13-0.8,0.24-1.44,0.33c-0.36,0.05-0.62,0.11-0.77,0.18
		s-0.27,0.16-0.35,0.29c-0.08,0.12-0.12,0.26-0.12,0.42c0,0.23,0.09,0.43,0.27,0.59s0.44,0.23,0.78,0.23c0.34,0,0.64-0.07,0.9-0.22
		c0.26-0.15,0.46-0.35,0.58-0.61c0.09-0.2,0.14-0.49,0.14-0.88V266.98z"/>
	<path fill="#9B9B9B" d="M723.41,269.58v-5.19h0.79v0.74c0.38-0.57,0.93-0.85,1.65-0.85c0.31,0,0.6,0.06,0.86,0.17
		c0.26,0.11,0.46,0.26,0.59,0.44s0.22,0.4,0.27,0.65c0.03,0.16,0.05,0.45,0.05,0.85v3.19h-0.88v-3.15c0-0.36-0.03-0.63-0.1-0.8
		c-0.07-0.18-0.19-0.32-0.36-0.43c-0.17-0.11-0.38-0.16-0.61-0.16c-0.37,0-0.7,0.12-0.97,0.36s-0.41,0.69-0.41,1.35v2.83H723.41z"/>
	<path fill="#9B9B9B" d="M728.62,268.03l0.87-0.14c0.05,0.35,0.18,0.62,0.41,0.8s0.53,0.28,0.94,0.28c0.4,0,0.7-0.08,0.9-0.25
		c0.2-0.17,0.29-0.36,0.29-0.58c0-0.2-0.09-0.35-0.26-0.47c-0.12-0.08-0.42-0.18-0.9-0.3c-0.64-0.16-1.09-0.3-1.34-0.42
		c-0.25-0.12-0.44-0.28-0.57-0.49c-0.13-0.21-0.19-0.44-0.19-0.7c0-0.23,0.05-0.45,0.16-0.64c0.11-0.2,0.25-0.36,0.43-0.49
		c0.14-0.1,0.32-0.19,0.56-0.26c0.24-0.07,0.49-0.11,0.76-0.11c0.41,0,0.76,0.06,1.07,0.18s0.53,0.28,0.68,0.48
		c0.15,0.2,0.25,0.47,0.3,0.8l-0.86,0.12c-0.04-0.27-0.15-0.48-0.34-0.62s-0.45-0.22-0.79-0.22c-0.4,0-0.69,0.07-0.86,0.2
		s-0.26,0.29-0.26,0.47c0,0.11,0.04,0.22,0.11,0.31c0.07,0.09,0.18,0.17,0.34,0.23c0.09,0.03,0.35,0.11,0.78,0.22
		c0.62,0.17,1.06,0.3,1.3,0.41c0.25,0.11,0.44,0.26,0.58,0.46s0.21,0.45,0.21,0.75c0,0.29-0.09,0.57-0.26,0.83
		c-0.17,0.26-0.42,0.46-0.74,0.6c-0.32,0.14-0.69,0.21-1.09,0.21c-0.67,0-1.19-0.14-1.54-0.42S728.72,268.58,728.62,268.03z"/>
	<path fill="#9B9B9B" d="M741.97,267.07l0.95,0.24c-0.2,0.78-0.56,1.37-1.07,1.78c-0.52,0.41-1.15,0.61-1.89,0.61
		c-0.77,0-1.4-0.16-1.88-0.47c-0.48-0.31-0.85-0.77-1.1-1.36s-0.38-1.24-0.38-1.92c0-0.75,0.14-1.4,0.43-1.95
		c0.28-0.55,0.69-0.98,1.22-1.26c0.53-0.29,1.1-0.43,1.74-0.43c0.72,0,1.32,0.18,1.81,0.55s0.83,0.88,1.02,1.54l-0.93,0.22
		c-0.17-0.52-0.41-0.9-0.72-1.14s-0.71-0.36-1.19-0.36c-0.55,0-1.01,0.13-1.38,0.4s-0.63,0.62-0.78,1.06
		c-0.15,0.44-0.22,0.9-0.22,1.37c0,0.61,0.09,1.14,0.27,1.59c0.18,0.45,0.45,0.79,0.83,1.02s0.78,0.34,1.22,0.34
		c0.53,0,0.98-0.15,1.35-0.46S741.84,267.67,741.97,267.07z"/>
	<path fill="#9B9B9B" d="M747.36,268.94c-0.33,0.28-0.64,0.47-0.94,0.59s-0.62,0.17-0.97,0.17c-0.57,0-1.01-0.14-1.31-0.42
		c-0.31-0.28-0.46-0.63-0.46-1.07c0-0.25,0.06-0.49,0.17-0.7c0.12-0.21,0.27-0.38,0.45-0.51s0.4-0.22,0.63-0.29
		c0.17-0.05,0.43-0.09,0.78-0.13c0.71-0.08,1.23-0.19,1.57-0.3c0-0.12,0-0.2,0-0.23c0-0.36-0.08-0.61-0.25-0.76
		c-0.22-0.2-0.56-0.3-1-0.3c-0.41,0-0.72,0.07-0.92,0.22c-0.2,0.14-0.34,0.4-0.44,0.77l-0.86-0.12c0.08-0.37,0.21-0.67,0.39-0.89
		c0.18-0.23,0.44-0.4,0.78-0.52c0.34-0.12,0.73-0.18,1.18-0.18c0.44,0,0.8,0.05,1.08,0.16s0.48,0.24,0.61,0.39
		c0.13,0.16,0.22,0.36,0.27,0.6c0.03,0.15,0.04,0.42,0.04,0.81v1.17c0,0.82,0.02,1.33,0.06,1.55c0.04,0.22,0.11,0.42,0.22,0.62
		h-0.92C747.44,269.4,747.38,269.19,747.36,268.94z M747.28,266.98c-0.32,0.13-0.8,0.24-1.44,0.33c-0.36,0.05-0.62,0.11-0.77,0.18
		s-0.27,0.16-0.35,0.29c-0.08,0.12-0.12,0.26-0.12,0.42c0,0.23,0.09,0.43,0.27,0.59s0.44,0.23,0.78,0.23c0.34,0,0.64-0.07,0.9-0.22
		c0.26-0.15,0.46-0.35,0.58-0.61c0.09-0.2,0.14-0.49,0.14-0.88V266.98z"/>
	<path fill="#9B9B9B" d="M749.53,269.58v-5.19h0.79v0.74c0.38-0.57,0.93-0.85,1.65-0.85c0.31,0,0.6,0.06,0.86,0.17
		c0.26,0.11,0.46,0.26,0.59,0.44c0.13,0.18,0.22,0.4,0.27,0.65c0.03,0.16,0.05,0.45,0.05,0.85v3.19h-0.88v-3.15
		c0-0.36-0.04-0.63-0.1-0.8c-0.07-0.18-0.19-0.32-0.36-0.43c-0.17-0.11-0.38-0.16-0.61-0.16c-0.37,0-0.7,0.12-0.97,0.36
		c-0.27,0.24-0.41,0.69-0.41,1.35v2.83H749.53z"/>
	<path fill="#9B9B9B" d="M758.48,268.94c-0.33,0.28-0.64,0.47-0.94,0.59s-0.62,0.17-0.97,0.17c-0.57,0-1.01-0.14-1.31-0.42
		c-0.31-0.28-0.46-0.63-0.46-1.07c0-0.25,0.06-0.49,0.17-0.7c0.12-0.21,0.27-0.38,0.45-0.51s0.4-0.22,0.63-0.29
		c0.17-0.05,0.43-0.09,0.78-0.13c0.71-0.08,1.23-0.19,1.57-0.3c0-0.12,0-0.2,0-0.23c0-0.36-0.08-0.61-0.25-0.76
		c-0.22-0.2-0.56-0.3-1-0.3c-0.41,0-0.72,0.07-0.92,0.22c-0.2,0.14-0.34,0.4-0.44,0.77l-0.86-0.12c0.08-0.37,0.21-0.67,0.38-0.89
		c0.18-0.23,0.44-0.4,0.78-0.52c0.34-0.12,0.73-0.18,1.18-0.18c0.44,0,0.8,0.05,1.08,0.16c0.28,0.1,0.48,0.24,0.61,0.39
		c0.13,0.16,0.22,0.36,0.27,0.6c0.03,0.15,0.04,0.42,0.04,0.81v1.17c0,0.82,0.02,1.33,0.06,1.55c0.04,0.22,0.11,0.42,0.22,0.62
		h-0.92C758.56,269.4,758.5,269.19,758.48,268.94z M758.41,266.98c-0.32,0.13-0.8,0.24-1.44,0.33c-0.36,0.05-0.62,0.11-0.77,0.18
		c-0.15,0.07-0.26,0.16-0.35,0.29c-0.08,0.12-0.12,0.26-0.12,0.42c0,0.23,0.09,0.43,0.27,0.59s0.44,0.23,0.78,0.23
		c0.34,0,0.64-0.07,0.9-0.22c0.26-0.15,0.46-0.35,0.58-0.61c0.09-0.2,0.14-0.49,0.14-0.88V266.98z"/>
	<path fill="#9B9B9B" d="M764.02,269.58v-0.65c-0.33,0.51-0.81,0.77-1.45,0.77c-0.41,0-0.79-0.11-1.14-0.34s-0.62-0.55-0.81-0.96
		c-0.19-0.41-0.29-0.88-0.29-1.41c0-0.52,0.09-0.99,0.26-1.41c0.17-0.42,0.43-0.75,0.78-0.97c0.34-0.22,0.73-0.34,1.16-0.34
		c0.31,0,0.59,0.07,0.84,0.2c0.24,0.13,0.44,0.3,0.6,0.52v-2.57h0.87v7.16H764.02z M761.24,266.99c0,0.66,0.14,1.16,0.42,1.49
		c0.28,0.33,0.61,0.49,0.99,0.49c0.38,0,0.71-0.16,0.98-0.47c0.27-0.31,0.4-0.79,0.4-1.44c0-0.71-0.14-1.23-0.41-1.56
		s-0.61-0.5-1.01-0.5c-0.39,0-0.72,0.16-0.98,0.48S761.24,266.31,761.24,266.99z"/>
	<path fill="#9B9B9B" d="M769.6,268.94c-0.33,0.28-0.64,0.47-0.94,0.59s-0.62,0.17-0.97,0.17c-0.57,0-1.01-0.14-1.31-0.42
		c-0.31-0.28-0.46-0.63-0.46-1.07c0-0.25,0.06-0.49,0.17-0.7c0.12-0.21,0.27-0.38,0.45-0.51s0.4-0.22,0.63-0.29
		c0.17-0.05,0.43-0.09,0.78-0.13c0.71-0.08,1.23-0.19,1.57-0.3c0-0.12,0-0.2,0-0.23c0-0.36-0.08-0.61-0.25-0.76
		c-0.22-0.2-0.56-0.3-1-0.3c-0.41,0-0.72,0.07-0.92,0.22c-0.2,0.14-0.34,0.4-0.44,0.77l-0.86-0.12c0.08-0.37,0.21-0.67,0.38-0.89
		c0.18-0.23,0.44-0.4,0.78-0.52c0.34-0.12,0.73-0.18,1.18-0.18c0.44,0,0.8,0.05,1.08,0.16c0.28,0.1,0.48,0.24,0.61,0.39
		c0.13,0.16,0.22,0.36,0.27,0.6c0.03,0.15,0.04,0.42,0.04,0.81v1.17c0,0.82,0.02,1.33,0.06,1.55c0.04,0.22,0.11,0.42,0.22,0.62
		h-0.92C769.69,269.4,769.63,269.19,769.6,268.94z M769.53,266.98c-0.32,0.13-0.8,0.24-1.44,0.33c-0.36,0.05-0.62,0.11-0.77,0.18
		c-0.15,0.07-0.26,0.16-0.35,0.29c-0.08,0.12-0.12,0.26-0.12,0.42c0,0.23,0.09,0.43,0.27,0.59s0.44,0.23,0.78,0.23
		c0.34,0,0.64-0.07,0.9-0.22c0.26-0.15,0.46-0.35,0.58-0.61c0.09-0.2,0.14-0.49,0.14-0.88V266.98z"/>
	<path fill="#9B9B9B" d="M773.9,267.35v-0.71h10v0.71H773.9z"/>
	<path fill="#9B9B9B" d="M791.71,268.74v0.84h-4.73c-0.01-0.21,0.03-0.42,0.1-0.61c0.12-0.32,0.31-0.64,0.58-0.95
		s0.65-0.67,1.15-1.08c0.78-0.64,1.3-1.14,1.58-1.52c0.27-0.37,0.41-0.73,0.41-1.06c0-0.35-0.12-0.64-0.37-0.88
		c-0.25-0.24-0.57-0.36-0.97-0.36c-0.42,0-0.76,0.13-1.02,0.38s-0.38,0.61-0.39,1.05l-0.9-0.09c0.06-0.67,0.29-1.19,0.7-1.54
		c0.4-0.35,0.95-0.53,1.63-0.53c0.69,0,1.23,0.19,1.63,0.57s0.6,0.85,0.6,1.42c0,0.29-0.06,0.57-0.18,0.84s-0.31,0.57-0.58,0.87
		s-0.72,0.73-1.35,1.26c-0.53,0.44-0.87,0.74-1.02,0.9c-0.15,0.16-0.27,0.32-0.37,0.48H791.71z"/>
	<path fill="#9B9B9B" d="M792.65,266.05c0-0.85,0.09-1.53,0.26-2.04c0.17-0.52,0.43-0.91,0.78-1.19s0.78-0.42,1.3-0.42
		c0.38,0,0.72,0.08,1.01,0.23c0.29,0.15,0.53,0.38,0.72,0.67c0.19,0.29,0.34,0.65,0.44,1.06c0.11,0.42,0.16,0.98,0.16,1.69
		c0,0.84-0.09,1.52-0.26,2.03c-0.17,0.52-0.43,0.91-0.77,1.2c-0.34,0.28-0.78,0.42-1.3,0.42c-0.69,0-1.23-0.25-1.63-0.74
		C792.89,268.37,792.65,267.4,792.65,266.05z M793.56,266.05c0,1.17,0.14,1.96,0.41,2.35c0.27,0.39,0.61,0.58,1.02,0.58
		c0.4,0,0.74-0.2,1.02-0.59s0.41-1.17,0.41-2.34c0-1.18-0.14-1.96-0.41-2.35s-0.62-0.58-1.03-0.58c-0.4,0-0.73,0.17-0.97,0.51
		C793.71,264.07,793.56,264.88,793.56,266.05z"/>
	<path fill="#9B9B9B" d="M802.83,268.74v0.84h-4.73c-0.01-0.21,0.03-0.42,0.1-0.61c0.12-0.32,0.31-0.64,0.58-0.95
		s0.65-0.67,1.15-1.08c0.78-0.64,1.3-1.14,1.58-1.52c0.27-0.37,0.41-0.73,0.41-1.06c0-0.35-0.12-0.64-0.37-0.88
		c-0.25-0.24-0.57-0.36-0.97-0.36c-0.42,0-0.76,0.13-1.02,0.38s-0.38,0.61-0.39,1.05l-0.9-0.09c0.06-0.67,0.29-1.19,0.7-1.54
		c0.4-0.35,0.95-0.53,1.63-0.53c0.69,0,1.23,0.19,1.63,0.57s0.6,0.85,0.6,1.42c0,0.29-0.06,0.57-0.18,0.84s-0.31,0.57-0.58,0.87
		s-0.72,0.73-1.35,1.26c-0.53,0.44-0.87,0.74-1.02,0.9c-0.15,0.16-0.27,0.32-0.37,0.48H802.83z"/>
	<path fill="#9B9B9B" d="M808.34,264.18l-0.88,0.07c-0.08-0.34-0.19-0.6-0.33-0.75c-0.24-0.25-0.53-0.38-0.88-0.38
		c-0.28,0-0.53,0.08-0.74,0.23c-0.28,0.2-0.5,0.5-0.65,0.88c-0.16,0.39-0.24,0.94-0.25,1.66c0.21-0.32,0.47-0.56,0.78-0.72
		c0.31-0.16,0.63-0.23,0.96-0.23c0.59,0,1.09,0.22,1.5,0.65c0.41,0.43,0.62,0.99,0.62,1.67c0,0.45-0.1,0.87-0.29,1.25
		c-0.19,0.39-0.46,0.68-0.8,0.89c-0.34,0.21-0.72,0.31-1.15,0.31c-0.73,0-1.33-0.27-1.79-0.81c-0.46-0.54-0.69-1.43-0.69-2.66
		c0-1.38,0.25-2.39,0.77-3.02c0.45-0.55,1.05-0.82,1.8-0.82c0.56,0,1.02,0.16,1.38,0.47S808.27,263.62,808.34,264.18z
		 M804.75,267.26c0,0.3,0.06,0.59,0.19,0.87s0.31,0.49,0.54,0.63c0.23,0.15,0.47,0.22,0.73,0.22c0.37,0,0.69-0.15,0.96-0.45
		c0.27-0.3,0.4-0.71,0.4-1.22c0-0.5-0.13-0.88-0.4-1.17c-0.26-0.29-0.6-0.43-1-0.43c-0.4,0-0.73,0.14-1.01,0.43
		C804.89,266.43,804.75,266.8,804.75,267.26z"/>
</g>
<g>
	<path d="M36.67,33.21C34.43,31,32,29.9,29.38,29.9s-4.86,0.99-6.7,2.94c-1.87,1.96-2.79,4.38-2.79,7.24s0.92,5.24,2.79,7.15
		c1.85,1.91,4.17,2.86,6.94,2.86c1.38,0,2.6-0.24,3.67-0.73s2.19-1.31,3.37-2.47v6.72c-2.47,1.14-4.86,1.72-7.18,1.72
		c-4.34,0-8.01-1.46-11-4.4S14,44.4,14,40.13s1.5-7.91,4.53-10.94s6.68-4.53,10.96-4.53c2.38,0,4.77,0.6,7.18,1.8V33.21z"/>
	<path d="M51,35.02c3.2,0,5.8,0.95,7.8,2.81s3.01,4.32,3.01,7.33s-1.01,5.46-3.03,7.33c-2.04,1.87-4.66,2.81-7.91,2.81
		s-5.84-0.97-7.84-2.88s-2.99-4.34-2.99-7.33s1.03-5.41,3.07-7.28S47.79,35.02,51,35.02z M50.93,39.81c-1.48,0-2.75,0.52-3.8,1.55
		s-1.59,2.3-1.59,3.78s0.52,2.75,1.57,3.78c1.05,1.05,2.32,1.57,3.8,1.57s2.77-0.52,3.82-1.57c1.05-1.03,1.57-2.28,1.57-3.76
		s-0.52-2.73-1.57-3.78S52.41,39.81,50.93,39.81z"/>
	<path d="M65.91,35.62h5.33V38c1.63-2.17,3.39-2.99,5.97-2.99c2.34,0,4.19,0.75,5.54,2.28c1.01,1.14,1.5,2.9,1.5,5.29v12.1h-5.33
		V44.1c0-1.46-0.17-2.49-0.54-3.07c-0.56-1.01-1.59-1.5-3.12-1.5c-2.69,0-4.04,1.76-4.04,5.29v9.86h-5.33V35.62z"/>
	<path d="M94.85,40.24v14.44h-5.33V40.24h-2.06v-4.62h2.06v-6.1c0-2.51,0.58-4.47,1.76-5.82c1.53-1.68,3.39-2.51,5.63-2.51
		c0.95,0,1.89,0.21,2.81,0.67v4.83c-1.03-0.47-1.85-0.71-2.43-0.69c-1.05,0-1.74,0.45-2.06,1.35c-0.26,0.56-0.39,1.55-0.39,2.94
		v5.33h4.88v4.62H94.85z"/>
	<path d="M121.23,46.02h-14.29c0.15,3.42,1.7,5.11,4.66,5.09c1.85,0,3.35-0.86,4.53-2.56l4.92,0.79c-1.65,3.95-4.75,5.93-9.32,5.95
		c-3.12,0-5.59-0.92-7.46-2.77s-2.79-4.3-2.79-7.37s0.9-5.52,2.73-7.37s4.23-2.77,7.26-2.77s5.41,0.92,7.15,2.75s2.6,4.34,2.6,7.54
		V46.02z M107.11,42.62h9.02c-0.58-2.51-2.11-3.78-4.53-3.78C109.26,38.84,107.56,40.21,107.11,42.62z"/>
	<path d="M139.88,21.72h5.33v32.96h-5.33V52.2c-1.65,2.04-3.76,3.07-6.36,3.07s-4.79-0.97-6.57-2.9s-2.69-4.34-2.69-7.2
		s0.9-5.29,2.69-7.24s3.95-2.92,6.49-2.92s4.68,1.03,6.45,3.07V21.72z M135.13,39.81c-1.5,0-2.77,0.52-3.8,1.55
		c-1.05,1.03-1.57,2.3-1.57,3.78s0.52,2.75,1.57,3.78c1.05,1.05,2.3,1.57,3.76,1.57s2.73-0.52,3.78-1.57
		c1.05-1.03,1.57-2.28,1.57-3.76s-0.52-2.73-1.53-3.78C137.88,40.32,136.61,39.81,135.13,39.81z"/>
	<path d="M169.03,46.02h-14.29c0.15,3.42,1.7,5.11,4.66,5.09c1.85,0,3.35-0.86,4.53-2.56l4.92,0.79c-1.65,3.95-4.75,5.93-9.32,5.95
		c-3.12,0-5.59-0.92-7.46-2.77s-2.79-4.3-2.79-7.37s0.9-5.52,2.73-7.37s4.23-2.77,7.26-2.77s5.41,0.92,7.15,2.75s2.6,4.34,2.6,7.54
		V46.02z M154.92,42.62h9.02c-0.58-2.51-2.11-3.78-4.53-3.78C157.06,38.84,155.37,40.21,154.92,42.62z"/>
	<path d="M178.4,54.67h-5.33V35.62h5.33v2.9c1.31-2.34,3.16-3.52,5.54-3.5c0.75,0,1.53,0.15,2.32,0.47l-0.75,4.96
		c-0.79-0.45-1.63-0.67-2.54-0.64c-3.05,0-4.58,1.91-4.58,5.71V54.67z"/>
	<path d="M203.34,35.62h5.33v19.06h-5.33V52.2c-1.65,2.04-3.76,3.07-6.36,3.07s-4.79-0.97-6.57-2.9s-2.69-4.34-2.69-7.2
		s0.9-5.29,2.69-7.24s3.95-2.92,6.49-2.92s4.68,1.03,6.45,3.07V35.62z M198.59,39.81c-1.5,0-2.77,0.52-3.8,1.55
		c-1.05,1.03-1.57,2.3-1.57,3.78s0.52,2.75,1.57,3.78c1.05,1.05,2.3,1.57,3.76,1.57s2.73-0.52,3.78-1.57
		c1.05-1.03,1.57-2.28,1.57-3.76s-0.52-2.73-1.53-3.78C201.34,40.32,200.08,39.81,198.59,39.81z"/>
	<path d="M219.76,40.24v14.44h-5.33V40.24h-2.11v-4.62h2.11v-6.51h5.33v6.51h3.78v4.62H219.76z"/>
	<path d="M229.21,24.36c0.88,0,1.63,0.3,2.26,0.92s0.92,1.38,0.92,2.26s-0.32,1.65-0.95,2.28c-0.62,0.64-1.4,0.97-2.28,0.97
		s-1.63-0.32-2.26-0.95s-0.95-1.4-0.95-2.28s0.32-1.65,0.97-2.28C227.55,24.66,228.33,24.36,229.21,24.36z M231.81,35.62v19.06
		h-5.31V35.62H231.81z"/>
	<path d="M246.78,35.02c3.2,0,5.8,0.95,7.8,2.81s3.01,4.32,3.01,7.33s-1.01,5.46-3.03,7.33c-2.04,1.87-4.66,2.81-7.91,2.81
		s-5.84-0.97-7.84-2.88s-2.99-4.34-2.99-7.33s1.03-5.41,3.07-7.28S243.58,35.02,246.78,35.02z M246.72,39.81
		c-1.48,0-2.75,0.52-3.8,1.55s-1.59,2.3-1.59,3.78s0.52,2.75,1.57,3.78c1.05,1.05,2.32,1.57,3.8,1.57s2.77-0.52,3.82-1.57
		c1.05-1.03,1.57-2.28,1.57-3.76s-0.52-2.73-1.57-3.78S248.2,39.81,246.72,39.81z"/>
	<path d="M261.69,35.62h5.33V38c1.63-2.17,3.39-2.99,5.97-2.99c2.34,0,4.19,0.75,5.54,2.28c1.01,1.14,1.5,2.9,1.5,5.29v12.1h-5.33
		V44.1c0-1.46-0.17-2.49-0.54-3.07c-0.56-1.01-1.59-1.5-3.12-1.5c-2.69,0-4.04,1.76-4.04,5.29v9.86h-5.33V35.62z"/>
	<path d="M302.69,25.33v24.38h9.02v4.96h-14.74V25.33H302.69z"/>
	<path d="M317.62,24.36c0.88,0,1.63,0.3,2.26,0.92s0.92,1.38,0.92,2.26s-0.32,1.65-0.95,2.28c-0.62,0.64-1.4,0.97-2.28,0.97
		s-1.63-0.32-2.26-0.95s-0.95-1.4-0.95-2.28s0.32-1.65,0.97-2.28C315.96,24.66,316.74,24.36,317.62,24.36z M320.22,35.62v19.06
		h-5.31V35.62H320.22z"/>
	<path d="M325.24,35.62h5.33V38c1.63-2.17,3.39-2.99,5.97-2.99c2.34,0,4.19,0.75,5.54,2.28c1.01,1.14,1.5,2.9,1.5,5.29v12.1h-5.33
		V44.1c0-1.46-0.17-2.49-0.54-3.07c-0.56-1.01-1.59-1.5-3.12-1.5c-2.69,0-4.04,1.76-4.04,5.29v9.86h-5.33V35.62z"/>
	<path d="M367.42,46.02h-14.29c0.15,3.42,1.7,5.11,4.66,5.09c1.85,0,3.35-0.86,4.53-2.56l4.92,0.79c-1.65,3.95-4.75,5.93-9.32,5.95
		c-3.12,0-5.59-0.92-7.46-2.77s-2.79-4.3-2.79-7.37s0.9-5.52,2.73-7.37s4.23-2.77,7.26-2.77s5.41,0.92,7.15,2.75s2.6,4.34,2.6,7.54
		V46.02z M353.3,42.62h9.02c-0.58-2.51-2.11-3.78-4.53-3.78C355.45,38.84,353.75,40.21,353.3,42.62z"/>
</g>
<g>
	<path fill="#5A5A5A" d="M19.73,67.42c1.59,0,2.92,0.54,4.02,1.62s1.65,2.41,1.65,3.98s-0.55,2.89-1.66,3.96s-2.47,1.6-4.08,1.6
		s-2.95-0.54-4.04-1.62S14,74.55,14,72.98s0.56-2.88,1.68-3.95S18.15,67.42,19.73,67.42z M19.71,69.33c-0.98,0-1.82,0.36-2.52,1.07
		c-0.7,0.71-1.05,1.58-1.05,2.59s0.35,1.88,1.05,2.6s1.53,1.08,2.52,1.08s1.83-0.36,2.52-1.08s1.04-1.59,1.04-2.6
		s-0.34-1.88-1.04-2.59S20.69,69.33,19.71,69.33z"/>
	<path fill="#5A5A5A" d="M35.02,70.53c-0.81-0.8-1.7-1.2-2.65-1.2s-1.77,0.36-2.44,1.07c-0.68,0.71-1.02,1.59-1.02,2.63
		s0.34,1.91,1.02,2.6c0.67,0.7,1.52,1.04,2.52,1.04c0.5,0,0.95-0.09,1.34-0.27s0.8-0.48,1.23-0.9v2.45
		c-0.9,0.41-1.77,0.62-2.61,0.62c-1.58,0-2.91-0.53-4-1.6s-1.63-2.38-1.63-3.93s0.55-2.88,1.65-3.98s2.43-1.65,3.98-1.65
		c0.87,0,1.73,0.22,2.61,0.66V70.53z"/>
	<path fill="#5A5A5A" d="M44.3,78.34h-2.09v-8.87h-2.38v-1.8h6.87v1.8h-2.4V78.34z"/>
	<path fill="#5A5A5A" d="M49.2,78.34h-1.94v-6.93h1.94v1.05c0.48-0.85,1.15-1.28,2.02-1.27c0.27,0,0.55,0.05,0.84,0.17l-0.27,1.8
		c-0.29-0.16-0.59-0.24-0.92-0.23c-1.11,0-1.66,0.7-1.66,2.08V78.34z"/>
	<path fill="#5A5A5A" d="M58.27,71.41h1.94v6.93h-1.94v-0.9c-0.6,0.74-1.37,1.12-2.31,1.12s-1.74-0.35-2.39-1.05
		s-0.98-1.58-0.98-2.62s0.33-1.92,0.98-2.63s1.44-1.06,2.36-1.06s1.7,0.38,2.34,1.12V71.41z M56.54,72.93
		c-0.55,0-1.01,0.19-1.38,0.56c-0.38,0.38-0.57,0.84-0.57,1.38s0.19,1,0.57,1.38c0.38,0.38,0.84,0.57,1.37,0.57s0.99-0.19,1.38-0.57
		c0.38-0.38,0.57-0.83,0.57-1.37s-0.19-0.99-0.55-1.38C57.54,73.12,57.08,72.93,56.54,72.93z"/>
	<path fill="#5A5A5A" d="M62.05,71.41h1.94v0.87c0.59-0.79,1.23-1.09,2.17-1.09c0.85,0,1.52,0.27,2.02,0.83
		c0.37,0.41,0.55,1.05,0.55,1.92v4.4h-1.94v-3.84c0-0.53-0.06-0.91-0.2-1.12c-0.2-0.37-0.58-0.55-1.13-0.55
		c-0.98,0-1.47,0.64-1.47,1.92v3.59h-1.94V71.41z"/>
	<path fill="#5A5A5A" d="M74.37,73.02c-0.41-0.3-0.75-0.46-1.04-0.46s-0.5,0.05-0.65,0.16c-0.15,0.12-0.22,0.26-0.22,0.42
		s0.07,0.3,0.22,0.4s0.49,0.24,1.03,0.43s0.95,0.38,1.2,0.57c0.51,0.35,0.77,0.88,0.77,1.57s-0.27,1.28-0.81,1.74
		c-0.55,0.47-1.25,0.7-2.1,0.7c-1.05,0-1.92-0.38-2.62-1.16l1.02-1.18c0.54,0.54,1.09,0.81,1.64,0.81c0.49,0,0.88-0.34,0.88-0.76
		c0-0.21-0.06-0.37-0.2-0.48c-0.13-0.1-0.48-0.26-1.04-0.46s-0.95-0.38-1.16-0.55c-0.46-0.32-0.69-0.8-0.69-1.45s0.23-1.17,0.7-1.59
		c0.46-0.41,1.09-0.62,1.87-0.62s1.5,0.25,2.16,0.74L74.37,73.02z"/>
	<path fill="#5A5A5A" d="M79.05,82.03h-1.94V71.41h1.94v0.9c0.6-0.74,1.37-1.12,2.3-1.12s1.73,0.35,2.39,1.05s0.98,1.58,0.98,2.62
		s-0.33,1.92-0.98,2.63s-1.44,1.06-2.35,1.06s-1.7-0.38-2.35-1.12V82.03z M80.79,72.93c-0.54,0-0.99,0.19-1.38,0.56
		s-0.57,0.84-0.57,1.38s0.19,1,0.57,1.38c0.38,0.38,0.84,0.57,1.37,0.57s0.99-0.19,1.38-0.57c0.38-0.38,0.58-0.83,0.58-1.37
		s-0.19-0.99-0.57-1.38S81.33,72.93,80.79,72.93z"/>
	<path fill="#5A5A5A" d="M89.84,71.19c1.16,0,2.11,0.34,2.84,1.02s1.09,1.57,1.09,2.66s-0.37,1.98-1.1,2.66
		c-0.74,0.68-1.7,1.02-2.88,1.02s-2.12-0.35-2.85-1.05s-1.09-1.58-1.09-2.66s0.38-1.97,1.12-2.65S88.67,71.19,89.84,71.19z
		 M89.81,72.93c-0.54,0-1,0.19-1.38,0.56s-0.58,0.84-0.58,1.38s0.19,1,0.57,1.38c0.38,0.38,0.84,0.57,1.38,0.57s1.01-0.19,1.39-0.57
		c0.38-0.38,0.57-0.83,0.57-1.37s-0.19-0.99-0.57-1.38S90.35,72.93,89.81,72.93z"/>
	<path fill="#5A5A5A" d="M103.69,70.7c0.61,0,1.13,0.22,1.56,0.66s0.65,0.96,0.65,1.57s-0.22,1.12-0.65,1.55s-0.95,0.65-1.56,0.65
		s-1.13-0.22-1.57-0.65s-0.66-0.95-0.66-1.56s0.22-1.14,0.66-1.57S103.08,70.7,103.69,70.7z"/>
	<path fill="#5A5A5A" d="M119.42,67.42c1.59,0,2.92,0.54,4.02,1.62s1.65,2.41,1.65,3.98s-0.55,2.89-1.66,3.96s-2.47,1.6-4.08,1.6
		s-2.95-0.54-4.04-1.62s-1.62-2.41-1.62-3.97s0.56-2.88,1.68-3.95S117.84,67.42,119.42,67.42z M119.4,69.33
		c-0.98,0-1.82,0.36-2.52,1.07c-0.7,0.71-1.05,1.58-1.05,2.59s0.35,1.88,1.05,2.6s1.53,1.08,2.52,1.08s1.83-0.36,2.52-1.08
		s1.04-1.59,1.04-2.6s-0.34-1.88-1.04-2.59S120.38,69.33,119.4,69.33z"/>
	<path fill="#5A5A5A" d="M128.66,73.09v5.25h-1.94v-5.25h-0.77v-1.68h0.77v-2.37h1.94v2.37h1.38v1.68H128.66z"/>
	<path fill="#5A5A5A" d="M133.41,73.09v5.25h-1.94v-5.25h-0.77v-1.68h0.77v-2.37h1.94v2.37h1.38v1.68H133.41z"/>
	<path fill="#5A5A5A" d="M141.11,71.41h1.94v6.93h-1.94v-0.9c-0.6,0.74-1.37,1.12-2.31,1.12s-1.74-0.35-2.39-1.05
		s-0.98-1.58-0.98-2.62s0.33-1.92,0.98-2.63s1.44-1.06,2.36-1.06s1.7,0.38,2.34,1.12V71.41z M139.38,72.93
		c-0.55,0-1.01,0.19-1.38,0.56c-0.38,0.38-0.57,0.84-0.57,1.38s0.19,1,0.57,1.38c0.38,0.38,0.84,0.57,1.37,0.57s0.99-0.19,1.38-0.57
		c0.38-0.38,0.57-0.83,0.57-1.37s-0.19-0.99-0.55-1.38C140.38,73.12,139.92,72.93,139.38,72.93z"/>
	<path fill="#5A5A5A" d="M146.18,71.41l1.82,4l1.89-4.19h0.83l1.89,4.25l1.85-4.06h2.16l-3.59,7.07h-0.88l-1.88-4.2l-1.84,4.2h-0.89
		L144,71.41H146.18z"/>
	<path fill="#5A5A5A" d="M162.53,71.41h1.94v6.93h-1.94v-0.9c-0.6,0.74-1.37,1.12-2.31,1.12s-1.74-0.35-2.39-1.05
		s-0.98-1.58-0.98-2.62s0.33-1.92,0.98-2.63s1.44-1.06,2.36-1.06s1.7,0.38,2.34,1.12V71.41z M160.8,72.93
		c-0.55,0-1.01,0.19-1.38,0.56c-0.38,0.38-0.57,0.84-0.57,1.38s0.19,1,0.57,1.38c0.38,0.38,0.84,0.57,1.37,0.57s0.99-0.19,1.38-0.57
		c0.38-0.38,0.57-0.83,0.57-1.37s-0.19-0.99-0.55-1.38C161.8,73.12,161.34,72.93,160.8,72.93z"/>
	<path fill="#5A5A5A" d="M174.75,70.7c0.61,0,1.13,0.22,1.56,0.66s0.65,0.96,0.65,1.57s-0.22,1.12-0.65,1.55s-0.95,0.65-1.56,0.65
		s-1.13-0.22-1.57-0.65s-0.66-0.95-0.66-1.56s0.22-1.14,0.66-1.57S174.14,70.7,174.75,70.7z"/>
	<path fill="#5A5A5A" d="M192.09,76.53v1.8h-7.76l3.15-3.57c0.97-1.11,1.62-1.93,1.95-2.45s0.5-1.02,0.5-1.47s-0.16-0.84-0.47-1.15
		c-0.32-0.3-0.71-0.46-1.17-0.46s-0.84,0.16-1.11,0.46c-0.28,0.3-0.43,0.74-0.45,1.3h-2.23c0.07-1.11,0.45-1.98,1.12-2.63
		c0.67-0.65,1.55-0.97,2.62-0.97c1.07,0,1.97,0.33,2.69,0.98c0.71,0.66,1.07,1.51,1.07,2.56s-0.65,2.27-1.94,3.63l-1.86,1.97H192.09
		z"/>
	<path fill="#5A5A5A" d="M197.69,67.39c1.21,0,2.21,0.55,3.02,1.63c0.73,1.02,1.1,2.35,1.1,3.97s-0.37,2.95-1.1,3.98
		c-0.75,1.02-1.88,1.63-3.02,1.63c-1.24,0-2.24-0.53-3-1.59s-1.14-2.41-1.14-4.04s0.37-2.95,1.1-3.95
		C195.46,67.94,196.48,67.39,197.69,67.39z M197.68,69.23c-0.6,0-1.09,0.35-1.48,1.05s-0.59,1.6-0.59,2.7s0.2,2.01,0.58,2.72
		s0.88,1.06,1.48,1.06s1.1-0.35,1.48-1.05s0.57-1.61,0.57-2.71s-0.2-2.01-0.58-2.71S198.27,69.23,197.68,69.23z"/>
	<path fill="#5A5A5A" d="M205.84,69.47h-1.54v-1.8h3.62v10.67h-2.08V69.47z"/>
	<path fill="#5A5A5A" d="M212.71,73.66c-0.64-0.68-0.96-1.55-0.96-2.59s0.38-1.92,1.15-2.62c0.76-0.7,1.73-1.05,2.92-1.05
		s2.16,0.34,2.91,1.02s1.12,1.56,1.12,2.64s-0.45,2.2-1.34,3.38l-3.23,4.35l-1.47-1.12l2.51-3.23c-0.46,0.17-0.88,0.26-1.25,0.26
		C214.13,74.69,213.35,74.34,212.71,73.66z M215.82,69.04c-0.54,0-1.01,0.2-1.4,0.59s-0.59,0.86-0.59,1.41s0.19,1.02,0.57,1.41
		s0.84,0.58,1.4,0.58s1.02-0.2,1.4-0.59c0.38-0.38,0.56-0.86,0.56-1.41s-0.19-1.02-0.56-1.41
		C216.82,69.23,216.36,69.04,215.82,69.04z"/>
</g>
</svg>
