<?xml version="1.0" encoding="iso-8859-1"?>
<!-- Generator: Adobe Illustrator 29.8.4, SVG Export Plug-In . SVG Version: 9.03 Build 0)  -->
<svg version="1.1" id="Layer_1" xmlns="http://www.w3.org/2000/svg" xmlns:xlink="http://www.w3.org/1999/xlink" x="0px" y="0px"
	 viewBox="0 0 1500 276" enable-background="new 0 0 1500 276" xml:space="preserve">
<rect id="bg-white" fill="#FFFFFF" width="1500" height="276"/>
<line fill="none" stroke="#D30F1D" stroke-width="10" stroke-linecap="round" stroke-miterlimit="10" x1="90" y1="241" x2="1410" y2="241"/>
<circle fill="#FFFFFF" stroke="#000000" stroke-width="3" stroke-miterlimit="10" cx="90" cy="241" r="10"/>
<g>
	<path d="M96.24,217.97l-1.27,4.75l2.17,1.7l-0.64,2.4l-10.5-8.2l0.46-1.71l13.15-1.69l-0.65,2.42L96.24,217.97z M94.22,218.19
		l-4.6,0.5l3.72,2.8L94.22,218.19z"/>
	<path d="M87.42,208.58l13.02,3.49l-0.56,2.11l-13.02-3.49L87.42,208.58z"/>
	<path d="M95.56,200.17l7.25,1.94c0.77,0.21,1.36,0.43,1.75,0.66c0.39,0.24,0.73,0.57,1.01,0.99c0.68,0.98,0.83,2.19,0.44,3.64
		c-0.39,1.45-1.24,2.42-2.54,2.9c-0.55,0.2-1.11,0.26-1.66,0.17l0.62-2.3c0.97,0.03,1.57-0.43,1.83-1.4
		c0.15-0.57,0.09-1.09-0.17-1.56c-0.25-0.4-0.73-0.7-1.44-0.9l-1.13-0.3c0.34,0.52,0.56,1,0.65,1.43c0.09,0.44,0.06,0.93-0.08,1.46
		c-0.28,1.03-0.87,1.79-1.79,2.27c-0.92,0.48-1.95,0.57-3.12,0.26s-2.04-0.92-2.62-1.82s-0.75-1.86-0.47-2.88
		c0.27-1.02,0.91-1.75,1.89-2.2L95,202.27L95.56,200.17z M96.16,204.56c-0.16,0.58-0.09,1.13,0.21,1.66
		c0.3,0.53,0.74,0.86,1.33,1.02c0.58,0.16,1.14,0.09,1.66-0.22c0.53-0.3,0.86-0.74,1.02-1.32c0.15-0.58,0.08-1.13-0.22-1.66
		c-0.3-0.53-0.73-0.86-1.32-1.02s-1.13-0.08-1.66,0.21C96.66,203.54,96.32,203.98,96.16,204.56z"/>
	<path d="M96.93,194.12c0.34-1.26,0.99-2.19,1.94-2.78c0.95-0.59,2.02-0.73,3.21-0.41s2.05,0.98,2.57,1.97
		c0.52,1,0.62,2.14,0.28,3.42c-0.34,1.28-1,2.21-1.97,2.79c-0.97,0.59-2.03,0.72-3.21,0.4c-1.18-0.32-2.03-0.98-2.55-1.99
		C96.68,196.53,96.59,195.39,96.93,194.12z M98.82,194.66c-0.16,0.59-0.09,1.14,0.21,1.67c0.3,0.53,0.74,0.87,1.33,1.03
		s1.14,0.09,1.66-0.22c0.53-0.3,0.87-0.75,1.02-1.34s0.09-1.15-0.21-1.68c-0.3-0.52-0.73-0.86-1.32-1.02
		c-0.59-0.16-1.13-0.08-1.66,0.22S98.97,194.07,98.82,194.66z"/>
	<path d="M98.75,188.29l0.56-2.11l0.94,0.25c-0.68-0.88-0.82-1.66-0.55-2.68c0.25-0.93,0.74-1.58,1.49-1.95
		c0.56-0.28,1.31-0.29,2.25-0.03l4.78,1.28l-0.56,2.11l-4.18-1.12c-0.58-0.15-1-0.2-1.27-0.11c-0.46,0.11-0.76,0.47-0.92,1.07
		c-0.28,1.06,0.27,1.78,1.66,2.16l3.9,1.04l-0.56,2.11L98.75,188.29z"/>
	<path d="M114.32,176.35l-4.99-1.34c0.62,0.91,0.8,1.87,0.53,2.87s-0.88,1.76-1.84,2.25c-0.96,0.5-2.01,0.6-3.14,0.3
		s-1.98-0.91-2.57-1.83c-0.58-0.91-0.73-1.88-0.45-2.91c0.27-1.03,0.91-1.75,1.89-2.19l-0.98-0.26l0.56-2.11l11.55,3.09
		L114.32,176.35z M103.93,175.58c-0.16,0.59-0.09,1.15,0.21,1.67c0.3,0.53,0.74,0.86,1.33,1.02c0.58,0.16,1.14,0.09,1.66-0.22
		c0.53-0.3,0.86-0.74,1.02-1.32c0.15-0.58,0.08-1.13-0.22-1.66c-0.3-0.52-0.73-0.86-1.32-1.02c-0.59-0.16-1.13-0.08-1.66,0.2
		C104.42,174.55,104.09,174.99,103.93,175.58z"/>
	<path d="M104.46,166.99l4.26,1.14c1.15,0.31,1.86-0.05,2.13-1.08c0.28-1.03-0.17-1.69-1.31-2l-4.26-1.14l0.56-2.11l4.61,1.24
		c2.04,0.54,2.82,2.14,2.19,4.48c-0.63,2.34-2.11,3.35-4.14,2.8l-4.61-1.23L104.46,166.99z"/>
	<path d="M102.21,157.57c0.09-0.35,0.29-0.61,0.6-0.79c0.31-0.18,0.64-0.22,0.99-0.13c0.35,0.09,0.62,0.3,0.8,0.62
		c0.19,0.31,0.23,0.65,0.14,1c-0.09,0.35-0.3,0.61-0.61,0.79c-0.31,0.18-0.65,0.23-1,0.13c-0.35-0.09-0.62-0.3-0.8-0.62
		C102.16,158.25,102.12,157.92,102.21,157.57z M106.94,157.73l7.53,2.02l-0.56,2.1l-7.53-2.02L106.94,157.73z"/>
	<path d="M107.47,155.75l0.56-2.11l0.94,0.25c-0.68-0.88-0.82-1.66-0.55-2.68c0.25-0.93,0.74-1.58,1.49-1.95
		c0.56-0.28,1.31-0.29,2.25-0.04l4.78,1.28l-0.56,2.11l-4.18-1.12c-0.58-0.16-1-0.2-1.27-0.11c-0.46,0.11-0.76,0.47-0.92,1.07
		c-0.28,1.06,0.27,1.78,1.66,2.16l3.9,1.04l-0.56,2.11L107.47,155.75z"/>
</g>
<circle fill="#FFFFFF" stroke="#000000" stroke-width="3" stroke-miterlimit="10" cx="145" cy="241" r="10"/>
<g>
	<path d="M140.86,220.13l11.6,3.11l-0.61,2.26l-11.6-3.11L140.86,220.13z"/>
	<path d="M153.64,218.8l-0.56,2.11l-7.53-2.02l0.56-2.11l1.15,0.31c-0.79-0.77-1.06-1.62-0.8-2.56c0.08-0.3,0.22-0.59,0.43-0.87
		l1.88,0.82c-0.26,0.27-0.44,0.58-0.52,0.93c-0.32,1.21,0.27,2.01,1.77,2.41L153.64,218.8z"/>
	<path d="M143.08,210.32c0.09-0.35,0.29-0.61,0.6-0.79c0.31-0.18,0.64-0.22,0.99-0.13c0.35,0.09,0.62,0.3,0.8,0.61
		c0.19,0.31,0.23,0.65,0.14,1c-0.09,0.35-0.3,0.61-0.61,0.79c-0.31,0.18-0.65,0.23-1,0.13c-0.35-0.09-0.62-0.3-0.8-0.62
		C143.02,211.01,142.98,210.67,143.08,210.32z M147.8,210.49l7.53,2.02l-0.56,2.1l-7.53-2.02L147.8,210.49z"/>
	<path d="M151.19,204.85c-0.45,0.35-0.72,0.68-0.8,1s-0.09,0.56-0.01,0.75c0.08,0.2,0.22,0.31,0.39,0.36
		c0.18,0.05,0.34,0.01,0.5-0.12s0.41-0.46,0.77-1c0.36-0.53,0.68-0.92,0.97-1.14c0.53-0.45,1.17-0.58,1.93-0.37
		c0.76,0.2,1.31,0.67,1.66,1.39c0.35,0.73,0.4,1.56,0.15,2.49c-0.3,1.14-0.97,1.98-2.02,2.52l-0.99-1.45
		c0.74-0.43,1.2-0.94,1.36-1.55c0.14-0.54-0.12-1.06-0.57-1.18c-0.23-0.06-0.42-0.04-0.58,0.07c-0.15,0.12-0.42,0.44-0.8,1
		c-0.38,0.55-0.69,0.92-0.93,1.11c-0.48,0.41-1.07,0.51-1.77,0.33c-0.71-0.19-1.21-0.6-1.52-1.23c-0.32-0.62-0.36-1.36-0.13-2.21
		c0.23-0.85,0.71-1.56,1.44-2.14L151.19,204.85z"/>
</g>
<circle fill="#FFFFFF" stroke="#000000" stroke-width="3" stroke-miterlimit="10" cx="200" cy="241" r="10"/>
<g>
	<path d="M195.86,220.13l9.64,2.58l0.96-3.57l1.96,0.53l-1.56,5.82l-11.6-3.11L195.86,220.13z"/>
	<path d="M197.06,214.13c0.09-0.35,0.29-0.61,0.6-0.79c0.31-0.18,0.64-0.22,0.99-0.13c0.35,0.09,0.62,0.3,0.8,0.62
		c0.19,0.31,0.23,0.65,0.14,1c-0.09,0.35-0.3,0.61-0.61,0.79c-0.31,0.18-0.65,0.23-1,0.13c-0.35-0.09-0.62-0.3-0.8-0.62
		C197,214.81,196.96,214.47,197.06,214.13z M201.78,214.29l7.53,2.02l-0.56,2.1l-7.53-2.02L201.78,214.29z"/>
	<path d="M202.31,212.3l0.56-2.11l0.94,0.25c-0.68-0.88-0.82-1.66-0.55-2.68c0.25-0.93,0.74-1.58,1.49-1.95
		c0.56-0.28,1.31-0.29,2.25-0.04l4.78,1.28l-0.56,2.11l-4.18-1.12c-0.58-0.16-1-0.2-1.27-0.11c-0.46,0.11-0.76,0.47-0.92,1.07
		c-0.28,1.06,0.27,1.78,1.66,2.16l3.9,1.04l-0.56,2.11L202.31,212.3z"/>
	<path d="M208.61,198.01c-0.58,0.44-0.95,0.96-1.11,1.56c-0.16,0.6-0.1,1.16,0.19,1.68s0.73,0.86,1.34,1.02
		c0.61,0.16,1.17,0.09,1.68-0.21c0.51-0.31,0.85-0.76,1.02-1.38c0.16-0.61,0.11-1.23-0.16-1.88l2.05,0.55
		c0.15,0.7,0.13,1.38-0.04,2.05c-0.31,1.17-0.96,2.05-1.93,2.63c-0.97,0.59-2.02,0.72-3.15,0.42c-1.13-0.3-1.98-0.96-2.55-1.96
		c-0.56-1-0.69-2.09-0.37-3.26c0.18-0.69,0.51-1.28,0.96-1.79L208.61,198.01z"/>
	<path d="M207.55,191.81c0.34-1.26,0.99-2.19,1.94-2.78s2.03-0.73,3.21-0.41c1.19,0.32,2.05,0.98,2.57,1.97
		c0.52,1,0.62,2.14,0.27,3.42c-0.34,1.28-1,2.21-1.97,2.79c-0.97,0.59-2.03,0.72-3.21,0.4c-1.18-0.32-2.03-0.98-2.55-1.98
		C207.3,194.22,207.21,193.08,207.55,191.81z M209.44,192.35c-0.16,0.59-0.09,1.14,0.21,1.67c0.3,0.53,0.74,0.87,1.33,1.03
		c0.59,0.16,1.14,0.09,1.66-0.22c0.53-0.3,0.87-0.75,1.02-1.34s0.09-1.15-0.21-1.68c-0.3-0.53-0.73-0.86-1.32-1.02
		c-0.59-0.16-1.13-0.08-1.66,0.22C209.93,191.32,209.59,191.76,209.44,192.35z"/>
	<path d="M204.44,182.41l13.02,3.49L216.9,188l-13.02-3.49L204.44,182.41z"/>
	<path d="M210.47,181.87l0.56-2.11l0.94,0.25c-0.68-0.88-0.82-1.66-0.55-2.68c0.25-0.92,0.74-1.58,1.49-1.95
		c0.56-0.28,1.31-0.29,2.25-0.03l4.78,1.28l-0.56,2.11l-4.18-1.12c-0.58-0.15-1-0.2-1.27-0.11c-0.46,0.11-0.76,0.47-0.92,1.07
		c-0.28,1.06,0.27,1.78,1.66,2.16l3.9,1.04l-0.56,2.11L210.47,181.87z"/>
	<path d="M213.74,161.23l-1.04,3.88l2.58,0.69l0.97-3.63l1.96,0.53l-0.97,3.63l5.09,1.36l-0.61,2.26l-11.6-3.11l1.65-6.14
		L213.74,161.23z"/>
	<path d="M212.11,157.95c0.09-0.35,0.29-0.61,0.6-0.79c0.31-0.18,0.64-0.22,0.99-0.13c0.35,0.09,0.62,0.3,0.8,0.61
		c0.19,0.31,0.23,0.65,0.14,1c-0.09,0.35-0.3,0.61-0.61,0.79c-0.31,0.18-0.65,0.23-1,0.13c-0.35-0.09-0.62-0.3-0.8-0.62
		C212.05,158.64,212.02,158.3,212.11,157.95z M216.83,158.12l7.53,2.02l-0.56,2.1l-7.53-2.02L216.83,158.12z"/>
	<path d="M223.46,149.83l-1.51,5.65c1.37,0.3,2.2-0.13,2.51-1.3c0.2-0.73,0.02-1.42-0.53-2.06l0.83-1.86
		c1.39,1.07,1.84,2.5,1.36,4.31c-0.33,1.23-0.96,2.11-1.88,2.65c-0.93,0.54-1.99,0.65-3.21,0.32s-2.09-0.94-2.62-1.86
		c-0.54-0.92-0.65-1.97-0.33-3.16c0.32-1.2,0.94-2.04,1.84-2.54s1.99-0.57,3.25-0.23L223.46,149.83z M220.62,155.04l0.96-3.57
		c-1.05-0.04-1.72,0.43-1.97,1.39C219.36,153.8,219.72,154.61,220.62,155.04z"/>
	<path d="M214.86,143.5l13.02,3.49l-0.56,2.11l-13.02-3.49L214.86,143.5z"/>
	<path d="M216.95,135.72l0.56-2.11l13.02,3.49l-0.56,2.11l-0.98-0.26c0.63,0.87,0.82,1.81,0.54,2.84s-0.89,1.79-1.84,2.29
		c-0.95,0.5-2,0.6-3.13,0.3c-1.13-0.3-1.99-0.92-2.58-1.83c-0.58-0.91-0.74-1.87-0.47-2.87c0.27-1,0.9-1.74,1.9-2.22L216.95,135.72z
		 M223.59,139.51c-0.16,0.59-0.09,1.15,0.21,1.67c0.3,0.53,0.74,0.86,1.33,1.02c0.59,0.16,1.14,0.09,1.66-0.22
		c0.53-0.3,0.86-0.74,1.02-1.32c0.16-0.58,0.09-1.13-0.22-1.66c-0.3-0.53-0.73-0.86-1.32-1.02c-0.59-0.16-1.13-0.09-1.66,0.2
		C224.09,138.48,223.75,138.92,223.59,139.51z"/>
	<path d="M226.41,129.42c-0.45,0.35-0.72,0.68-0.8,1s-0.09,0.56-0.01,0.75c0.08,0.2,0.22,0.31,0.39,0.36s0.34,0.01,0.5-0.12
		c0.15-0.13,0.41-0.46,0.77-1c0.36-0.53,0.68-0.92,0.97-1.14c0.53-0.45,1.17-0.58,1.93-0.37s1.31,0.67,1.66,1.39
		c0.35,0.73,0.4,1.56,0.15,2.49c-0.3,1.14-0.98,1.98-2.02,2.52l-0.99-1.45c0.74-0.43,1.2-0.94,1.36-1.55
		c0.14-0.54-0.12-1.06-0.57-1.18c-0.23-0.06-0.42-0.04-0.58,0.07c-0.15,0.12-0.42,0.44-0.8,1s-0.69,0.92-0.93,1.11
		c-0.48,0.41-1.07,0.51-1.77,0.33c-0.71-0.19-1.21-0.6-1.52-1.23c-0.32-0.62-0.35-1.36-0.13-2.21c0.23-0.85,0.71-1.56,1.44-2.14
		L226.41,129.42z"/>
</g>
<circle fill="#FFFFFF" stroke="#000000" stroke-width="3" stroke-miterlimit="10" cx="255" cy="241" r="10"/>
<g>
	<path d="M261.85,225.49l-11.86-3.18l0.42-1.56l9.97-4.9l-7.81-2.09l0.6-2.26l11.83,3.17l-0.42,1.57l-9.96,4.89l7.84,2.1
		L261.85,225.49z"/>
	<path d="M263.98,203.86l-1.51,5.65c1.37,0.3,2.2-0.13,2.51-1.3c0.2-0.73,0.02-1.42-0.53-2.06l0.83-1.86
		c1.39,1.07,1.84,2.5,1.36,4.31c-0.33,1.23-0.96,2.11-1.88,2.65c-0.93,0.54-1.99,0.65-3.21,0.32s-2.09-0.94-2.62-1.86
		c-0.54-0.92-0.65-1.97-0.33-3.16c0.32-1.2,0.94-2.04,1.84-2.54c0.91-0.49,1.99-0.57,3.25-0.23L263.98,203.86z M261.14,209.08
		l0.96-3.57c-1.05-0.04-1.72,0.43-1.97,1.39C259.88,207.83,260.24,208.65,261.14,209.08z"/>
	<path d="M260.57,200.14l4.88-0.81l-4-3.27l0.24-0.9l5.17-0.82l-3.88-3.2l0.63-2.35l6.64,5.96l-0.25,0.95l-5.11,0.81l4.03,3.23
		l-0.26,0.97l-8.72,1.8L260.57,200.14z"/>
	<path d="M262.33,176.27c0.46-1.72,1.44-3.02,2.93-3.9c1.49-0.88,3.09-1.09,4.8-0.63c1.71,0.46,2.98,1.44,3.82,2.96
		c0.84,1.52,1.02,3.15,0.55,4.9s-1.45,3.05-2.94,3.92c-1.5,0.86-3.09,1.07-4.79,0.61s-2.97-1.45-3.81-2.98
		C262.06,179.62,261.87,177.99,262.33,176.27z M264.39,176.85c-0.28,1.06-0.14,2.08,0.43,3.05c0.57,0.97,1.41,1.61,2.51,1.9
		c1.1,0.3,2.15,0.17,3.13-0.38s1.62-1.35,1.9-2.42c0.29-1.07,0.14-2.09-0.44-3.06c-0.58-0.96-1.42-1.59-2.52-1.89
		c-1.1-0.3-2.15-0.17-3.12,0.37C265.31,174.98,264.68,175.79,264.39,176.85z"/>
	<path d="M276.88,169.42l-0.56,2.11l-7.53-2.02l0.56-2.11l1.15,0.31c-0.79-0.77-1.06-1.62-0.8-2.56c0.08-0.3,0.22-0.59,0.43-0.87
		l1.88,0.82c-0.26,0.27-0.44,0.58-0.52,0.93c-0.32,1.21,0.27,2.01,1.77,2.41L276.88,169.42z"/>
	<path d="M274.24,158.34c-0.58,0.44-0.95,0.96-1.11,1.56c-0.16,0.6-0.1,1.16,0.19,1.68c0.29,0.52,0.73,0.86,1.34,1.03
		c0.61,0.16,1.17,0.09,1.68-0.21c0.51-0.31,0.85-0.76,1.01-1.38c0.16-0.61,0.11-1.24-0.16-1.88l2.05,0.55
		c0.15,0.71,0.13,1.38-0.04,2.05c-0.31,1.17-0.96,2.05-1.93,2.63c-0.97,0.59-2.02,0.72-3.15,0.42s-1.98-0.96-2.55-1.96
		c-0.56-1-0.69-2.09-0.37-3.26c0.18-0.69,0.51-1.28,0.96-1.79L274.24,158.34z"/>
	<path d="M266.92,154.48l0.56-2.11l6.47,1.73c-0.64-0.83-0.84-1.73-0.58-2.68c0.25-0.95,0.76-1.6,1.51-1.95
		c0.58-0.27,1.34-0.28,2.28-0.03l4.73,1.27l-0.56,2.11l-4.12-1.1c-0.6-0.16-1.04-0.21-1.31-0.12c-0.47,0.12-0.78,0.48-0.94,1.07
		c-0.28,1.06,0.28,1.79,1.69,2.17l3.86,1.04l-0.56,2.11L266.92,154.48z"/>
	<path d="M276.44,140.92l0.56-2.11l7.53,2.02l-0.56,2.11l-0.98-0.26c0.63,0.87,0.82,1.81,0.54,2.84c-0.28,1.03-0.89,1.79-1.84,2.29
		s-2,0.6-3.13,0.3c-1.13-0.3-1.99-0.92-2.58-1.83c-0.58-0.91-0.74-1.87-0.47-2.87c0.27-1,0.9-1.74,1.9-2.22L276.44,140.92z
		 M277.6,143.23c-0.16,0.59-0.09,1.15,0.21,1.67c0.3,0.53,0.74,0.86,1.33,1.02c0.58,0.16,1.14,0.09,1.66-0.22
		c0.53-0.3,0.86-0.74,1.02-1.32s0.08-1.13-0.22-1.66c-0.3-0.53-0.73-0.86-1.32-1.02s-1.13-0.08-1.66,0.2
		C278.09,142.2,277.75,142.65,277.6,143.23z"/>
	<path d="M285.64,136.71l-0.56,2.11l-7.53-2.02l0.56-2.11l1.15,0.31c-0.79-0.77-1.06-1.62-0.8-2.56c0.08-0.3,0.22-0.59,0.43-0.87
		l1.88,0.82c-0.26,0.27-0.44,0.58-0.52,0.93c-0.32,1.21,0.27,2.01,1.77,2.41L285.64,136.71z"/>
	<path d="M275.26,123.36l0.56-2.11l13.02,3.49l-0.56,2.11l-0.98-0.26c0.63,0.87,0.82,1.81,0.54,2.84s-0.89,1.79-1.84,2.29
		s-2,0.6-3.13,0.3c-1.13-0.3-1.99-0.92-2.58-1.83c-0.58-0.91-0.74-1.87-0.47-2.87c0.27-1,0.9-1.74,1.9-2.22L275.26,123.36z
		 M281.9,127.16c-0.16,0.59-0.09,1.15,0.21,1.67c0.3,0.53,0.74,0.86,1.33,1.02c0.58,0.16,1.14,0.09,1.66-0.22
		c0.53-0.3,0.86-0.74,1.02-1.32c0.15-0.58,0.08-1.13-0.22-1.66c-0.3-0.53-0.73-0.86-1.32-1.02s-1.13-0.08-1.66,0.2
		C282.4,126.12,282.06,126.57,281.9,127.16z"/>
</g>
<circle fill="#FFFFFF" stroke="#000000" stroke-width="3" stroke-miterlimit="10" cx="310" cy="241" r="10"/>
<g>
	<path d="M308.79,221.02c0.33,0.09,0.63,0.04,0.9-0.15c0.27-0.19,0.69-0.69,1.28-1.5s1.11-1.38,1.57-1.7
		c0.76-0.53,1.68-0.65,2.78-0.36c1.1,0.29,1.9,0.91,2.4,1.84c0.51,0.93,0.6,2,0.28,3.21c-0.44,1.64-1.53,2.76-3.27,3.39l-1.02-1.84
		c1.17-0.27,1.91-0.94,2.2-2.01c0.14-0.52,0.1-0.99-0.11-1.41c-0.22-0.41-0.56-0.69-1.05-0.82s-0.92-0.03-1.33,0.31
		c-0.2,0.16-0.6,0.68-1.21,1.54c-0.6,0.87-1.21,1.45-1.79,1.76c-0.58,0.31-1.26,0.35-2.02,0.15c-0.98-0.26-1.69-0.82-2.14-1.68
		c-0.45-0.86-0.55-1.8-0.27-2.85c0.35-1.29,1.08-2.31,2.21-3.07l1.23,1.6c-0.78,0.38-1.26,0.93-1.44,1.63
		c-0.13,0.47-0.1,0.88,0.06,1.26C308.2,220.7,308.46,220.93,308.79,221.02z"/>
	<path d="M306.27,212.89l0.56-2.11l6.47,1.73c-0.64-0.84-0.84-1.73-0.58-2.68s0.76-1.6,1.51-1.95c0.58-0.27,1.34-0.28,2.28-0.03
		l4.73,1.27l-0.56,2.11l-4.12-1.1c-0.6-0.16-1.04-0.21-1.31-0.12c-0.47,0.12-0.78,0.48-0.94,1.07c-0.28,1.06,0.28,1.78,1.69,2.17
		l3.86,1.03l-0.56,2.11L306.27,212.89z"/>
	<path d="M320.34,198.8l-1.51,5.64c1.37,0.3,2.2-0.13,2.51-1.3c0.2-0.73,0.01-1.42-0.53-2.06l0.83-1.86
		c1.39,1.07,1.84,2.5,1.36,4.31c-0.33,1.23-0.96,2.11-1.88,2.65c-0.93,0.54-1.99,0.65-3.21,0.32c-1.21-0.33-2.09-0.94-2.62-1.86
		c-0.54-0.92-0.65-1.96-0.33-3.16c0.32-1.2,0.94-2.04,1.84-2.54s1.99-0.57,3.25-0.23L320.34,198.8z M317.5,204.02l0.96-3.57
		c-1.05-0.04-1.72,0.43-1.97,1.39C316.23,202.77,316.6,203.59,317.5,204.02z"/>
	<path d="M324.75,196.02l-0.56,2.11l-7.53-2.02l0.56-2.11l1.15,0.31c-0.79-0.77-1.06-1.62-0.8-2.56c0.08-0.3,0.22-0.59,0.43-0.87
		l1.88,0.82c-0.26,0.27-0.44,0.57-0.52,0.93c-0.32,1.21,0.27,2.01,1.77,2.41L324.75,196.02z"/>
	<path d="M313.42,186.2l6.47,1.73c-0.62-0.92-0.8-1.89-0.53-2.89c0.27-1,0.88-1.75,1.83-2.25c0.95-0.5,2-0.59,3.14-0.29
		c1.15,0.31,2,0.91,2.58,1.82c0.58,0.91,0.73,1.88,0.45,2.91s-0.91,1.76-1.9,2.19l0.98,0.26l-0.56,2.1l-13.02-3.49L313.42,186.2z
		 M321.07,186.23c-0.16,0.59-0.09,1.13,0.21,1.66c0.3,0.53,0.74,0.86,1.33,1.02c0.58,0.16,1.14,0.09,1.66-0.22
		c0.53-0.3,0.86-0.74,1.02-1.32s0.08-1.13-0.22-1.66c-0.3-0.53-0.73-0.87-1.32-1.03s-1.13-0.08-1.66,0.22
		S321.23,185.65,321.07,186.23z"/>
	<path d="M321.81,175.9c0.34-1.27,0.99-2.19,1.94-2.78s2.02-0.73,3.21-0.41s2.05,0.98,2.58,1.97c0.52,1,0.62,2.14,0.27,3.42
		c-0.34,1.28-1,2.21-1.97,2.79c-0.97,0.59-2.03,0.72-3.21,0.41c-1.18-0.32-2.03-0.98-2.55-1.99S321.48,177.16,321.81,175.9z
		 M323.7,176.43c-0.16,0.59-0.09,1.14,0.21,1.67s0.74,0.87,1.33,1.03c0.58,0.16,1.14,0.09,1.66-0.22c0.53-0.3,0.87-0.75,1.02-1.34
		c0.16-0.59,0.09-1.15-0.21-1.68c-0.3-0.53-0.73-0.86-1.32-1.02s-1.13-0.09-1.66,0.22S323.86,175.84,323.7,176.43z"/>
	<path d="M324.2,167.96l4.26,1.14c1.15,0.31,1.86-0.05,2.14-1.08c0.27-1.03-0.17-1.69-1.31-2l-4.26-1.14l0.56-2.11l4.61,1.24
		c2.04,0.54,2.82,2.14,2.19,4.48s-2.11,3.35-4.14,2.8l-4.61-1.23L324.2,167.96z"/>
	<path d="M334.22,160.68l-0.56,2.11l-7.53-2.02l0.56-2.11l1.15,0.31c-0.79-0.77-1.06-1.62-0.8-2.56c0.08-0.3,0.22-0.59,0.43-0.87
		l1.88,0.82c-0.26,0.27-0.44,0.58-0.52,0.93c-0.32,1.21,0.27,2.01,1.77,2.41L334.22,160.68z"/>
	<path d="M327.82,154.45l0.56-2.11l0.94,0.25c-0.68-0.88-0.82-1.66-0.55-2.68c0.25-0.93,0.74-1.58,1.49-1.95
		c0.56-0.28,1.31-0.29,2.25-0.04l4.78,1.28l-0.56,2.11l-4.18-1.12c-0.58-0.16-1-0.2-1.27-0.11c-0.46,0.11-0.76,0.47-0.92,1.07
		c-0.28,1.06,0.27,1.78,1.66,2.16l3.9,1.04l-0.56,2.11L327.82,154.45z"/>
	<path d="M336.39,138.88l-1.51,5.65c1.37,0.3,2.2-0.13,2.51-1.3c0.2-0.73,0.02-1.42-0.53-2.06l0.83-1.86
		c1.39,1.07,1.84,2.5,1.36,4.31c-0.33,1.23-0.96,2.11-1.88,2.65c-0.93,0.54-1.99,0.65-3.21,0.32c-1.21-0.33-2.09-0.94-2.62-1.86
		c-0.54-0.92-0.65-1.97-0.33-3.16s0.94-2.04,1.84-2.54c0.91-0.49,1.99-0.57,3.25-0.23L336.39,138.88z M333.55,144.1l0.96-3.57
		c-1.05-0.04-1.72,0.43-1.97,1.39C332.29,142.85,332.65,143.67,333.55,144.1z"/>
</g>
<circle fill="#FFFFFF" stroke="#000000" stroke-width="3" stroke-miterlimit="10" cx="365" cy="241" r="10"/>
<g>
	<path d="M372.46,223.24l-0.61,2.26l-11.6-3.11l0.61-2.26l4.91,1.31l-3.77-5.58l0.76-2.85l4.04,6.34l7.62-3.49l-0.8,2.97l-6.32,2.72
		l0.2,0.35L372.46,223.24z"/>
	<path d="M363.05,210.42c0.09-0.35,0.29-0.61,0.6-0.79c0.31-0.18,0.64-0.22,0.99-0.13c0.35,0.09,0.62,0.3,0.8,0.62
		c0.19,0.31,0.23,0.65,0.14,1c-0.09,0.35-0.3,0.61-0.61,0.79c-0.31,0.18-0.65,0.23-1,0.13c-0.35-0.09-0.62-0.3-0.8-0.62
		C362.99,211.11,362.96,210.77,363.05,210.42z M367.77,210.59l7.53,2.02l-0.56,2.1l-7.53-2.02L367.77,210.59z"/>
	<path d="M372.12,203.57c-0.58,0.44-0.95,0.96-1.11,1.56c-0.16,0.6-0.1,1.16,0.19,1.68c0.29,0.52,0.73,0.86,1.35,1.03
		c0.61,0.16,1.17,0.09,1.68-0.21c0.51-0.31,0.85-0.76,1.01-1.38s0.11-1.24-0.16-1.88l2.05,0.55c0.15,0.7,0.13,1.38-0.04,2.05
		c-0.31,1.17-0.96,2.05-1.93,2.63c-0.97,0.59-2.02,0.72-3.15,0.42s-1.98-0.96-2.55-1.96c-0.56-1-0.69-2.09-0.37-3.26
		c0.18-0.69,0.51-1.28,0.96-1.79L372.12,203.57z"/>
	<path d="M364.8,199.71l0.56-2.11l6.47,1.73c-0.64-0.83-0.84-1.73-0.58-2.68c0.25-0.95,0.76-1.6,1.51-1.95
		c0.58-0.27,1.34-0.28,2.28-0.03l4.73,1.27l-0.56,2.1l-4.12-1.1c-0.6-0.16-1.04-0.2-1.31-0.12c-0.47,0.12-0.78,0.48-0.94,1.07
		c-0.28,1.06,0.28,1.79,1.69,2.17l3.86,1.04l-0.56,2.11L364.8,199.71z"/>
	<path d="M368.61,189.69c0.09-0.35,0.29-0.61,0.6-0.79c0.31-0.18,0.64-0.22,0.99-0.13c0.35,0.09,0.62,0.3,0.8,0.62
		c0.19,0.31,0.23,0.65,0.14,1c-0.09,0.35-0.3,0.61-0.61,0.79c-0.31,0.18-0.65,0.23-1,0.13c-0.35-0.09-0.62-0.3-0.8-0.62
		C368.55,190.38,368.51,190.04,368.61,189.69z M373.33,189.86l7.53,2.02l-0.56,2.1l-7.53-2.02L373.33,189.86z"/>
	<path d="M382.86,176.57l1.96,0.53l-2.44,9.09l-8.12-8.25l-1.28,4.79l-1.96-0.53l2.28-8.52l8.12,8.24L382.86,176.57z"/>
	<path d="M373.71,173.75l-0.57-1.79l3.19-1.38l0.42,1.2L373.71,173.75z M378.31,171.28l7.53,2.02l-0.56,2.11l-7.53-2.02
		L378.31,171.28z"/>
	<path d="M373.91,165.73l6.47,1.73c-0.62-0.92-0.8-1.89-0.53-2.89c0.27-1,0.88-1.75,1.83-2.25c0.95-0.5,2-0.59,3.14-0.29
		c1.15,0.31,2,0.91,2.58,1.82c0.58,0.91,0.72,1.88,0.45,2.91c-0.27,1.03-0.91,1.76-1.9,2.19l0.98,0.26l-0.56,2.11l-13.02-3.49
		L373.91,165.73z M381.56,165.76c-0.16,0.59-0.08,1.13,0.21,1.66s0.74,0.86,1.33,1.02c0.59,0.16,1.14,0.09,1.66-0.22
		c0.53-0.3,0.86-0.74,1.02-1.32c0.16-0.58,0.09-1.13-0.22-1.66c-0.3-0.53-0.73-0.87-1.32-1.03s-1.13-0.08-1.66,0.22
		C382.05,164.73,381.72,165.17,381.56,165.76z"/>
	<path d="M377.46,159.79l-0.57-1.79l3.19-1.38l0.43,1.2L377.46,159.79z M382.05,157.33l7.53,2.02l-0.56,2.11l-7.53-2.02
		L382.05,157.33z"/>
</g>
<circle fill="#FFFFFF" stroke="#000000" stroke-width="3" stroke-miterlimit="10" cx="420" cy="241" r="10"/>
<g>
	<path d="M415.54,221.33l8.59-0.49l-7.24-4.98l0.33-1.23l8.72-0.55l-7.15-4.9l0.64-2.39l10.66,7.53l-0.43,1.59l-8.27,0.54l6.86,4.74
		l-0.43,1.59l-12.92,0.93L415.54,221.33z"/>
	<path d="M429.68,201.24l-1.51,5.64c1.37,0.3,2.2-0.13,2.51-1.3c0.2-0.73,0.02-1.42-0.53-2.06l0.83-1.86
		c1.39,1.07,1.84,2.5,1.36,4.31c-0.33,1.23-0.96,2.11-1.88,2.65c-0.93,0.54-1.99,0.65-3.21,0.32s-2.09-0.94-2.62-1.86
		c-0.54-0.92-0.65-1.96-0.33-3.16c0.32-1.2,0.94-2.04,1.84-2.54c0.91-0.49,1.99-0.57,3.26-0.23L429.68,201.24z M426.85,206.46
		l0.96-3.57c-1.05-0.04-1.72,0.43-1.97,1.39C425.58,205.21,425.94,206.03,426.85,206.46z"/>
	<path d="M428.83,195.01c-0.45,0.35-0.72,0.68-0.8,1c-0.08,0.31-0.09,0.56-0.01,0.75c0.08,0.2,0.22,0.31,0.39,0.36
		s0.34,0.01,0.5-0.12c0.15-0.13,0.41-0.46,0.77-1c0.36-0.53,0.68-0.92,0.97-1.14c0.53-0.45,1.17-0.58,1.93-0.38
		c0.76,0.2,1.31,0.67,1.66,1.39c0.35,0.73,0.4,1.56,0.15,2.49c-0.3,1.14-0.98,1.98-2.02,2.52l-0.99-1.45
		c0.74-0.43,1.2-0.94,1.36-1.55c0.14-0.53-0.12-1.06-0.57-1.18c-0.23-0.06-0.42-0.04-0.58,0.07c-0.15,0.12-0.42,0.44-0.8,1
		c-0.38,0.55-0.69,0.92-0.93,1.11c-0.48,0.41-1.07,0.52-1.77,0.33c-0.71-0.19-1.21-0.6-1.52-1.23c-0.32-0.62-0.35-1.36-0.13-2.21
		c0.23-0.85,0.71-1.56,1.44-2.14L428.83,195.01z"/>
	<path d="M430.29,189.82l5.71,1.53l-0.56,2.11l-5.71-1.53l-0.22,0.83l-1.83-0.49l0.22-0.83l-2.57-0.69l0.56-2.11l2.57,0.69l0.4-1.49
		l1.83,0.49L430.29,189.82z"/>
	<path d="M424.23,183.19l6.47,1.73c-0.62-0.92-0.8-1.89-0.53-2.89s0.88-1.75,1.83-2.25c0.95-0.5,2-0.59,3.14-0.29
		c1.15,0.31,2,0.91,2.58,1.82c0.58,0.91,0.73,1.88,0.45,2.9s-0.91,1.76-1.9,2.19l0.98,0.26l-0.56,2.11l-13.02-3.49L424.23,183.19z
		 M431.88,183.22c-0.16,0.58-0.09,1.13,0.21,1.66c0.3,0.53,0.74,0.86,1.33,1.02c0.58,0.16,1.14,0.09,1.66-0.22
		c0.53-0.3,0.86-0.74,1.02-1.32c0.15-0.58,0.08-1.13-0.22-1.66c-0.3-0.53-0.73-0.87-1.32-1.03s-1.13-0.08-1.66,0.22
		C432.37,182.2,432.04,182.64,431.88,183.22z"/>
	<path d="M432.62,172.88c0.34-1.26,0.99-2.19,1.94-2.78s2.02-0.73,3.21-0.41s2.05,0.98,2.57,1.97c0.52,1,0.62,2.14,0.28,3.42
		c-0.34,1.28-1,2.21-1.97,2.79c-0.97,0.59-2.03,0.72-3.21,0.4c-1.18-0.32-2.03-0.98-2.55-1.98
		C432.37,175.29,432.28,174.15,432.62,172.88z M434.51,173.42c-0.16,0.59-0.09,1.14,0.21,1.67c0.3,0.53,0.74,0.87,1.33,1.03
		c0.59,0.16,1.14,0.09,1.66-0.22c0.53-0.3,0.87-0.75,1.02-1.34c0.16-0.59,0.09-1.15-0.21-1.68c-0.3-0.52-0.73-0.86-1.32-1.02
		c-0.59-0.16-1.13-0.08-1.66,0.22C435,172.38,434.67,172.83,434.51,173.42z"/>
	<path d="M442.53,166.97l-0.56,2.1l-7.53-2.02l0.56-2.1l1.15,0.31c-0.79-0.77-1.06-1.62-0.8-2.56c0.08-0.3,0.22-0.59,0.43-0.87
		l1.88,0.82c-0.26,0.27-0.44,0.58-0.52,0.93c-0.32,1.21,0.27,2.01,1.77,2.41L442.53,166.97z"/>
	<path d="M436.91,156.89c0.34-1.26,0.99-2.19,1.94-2.78s2.03-0.73,3.21-0.41s2.05,0.98,2.57,1.97c0.52,1,0.62,2.14,0.27,3.42
		s-1,2.21-1.97,2.79c-0.97,0.59-2.03,0.72-3.21,0.4s-2.03-0.98-2.55-1.99S436.57,158.15,436.91,156.89z M438.79,157.42
		c-0.16,0.59-0.09,1.14,0.21,1.67s0.74,0.87,1.33,1.03c0.58,0.16,1.14,0.09,1.66-0.22c0.53-0.3,0.87-0.75,1.02-1.34
		s0.09-1.15-0.21-1.68c-0.3-0.52-0.73-0.86-1.32-1.02c-0.59-0.16-1.13-0.08-1.66,0.22C439.29,156.39,438.95,156.84,438.79,157.42z"
		/>
</g>
<circle fill="#FFFFFF" stroke="#000000" stroke-width="3" stroke-miterlimit="10" cx="475" cy="241" r="10"/>
<g>
	<path d="M482.82,221.86l-0.61,2.27l-9.64-2.58l-0.69,2.59l-1.96-0.53l2-7.46l1.96,0.53l-0.7,2.61L482.82,221.86z"/>
	<path d="M476.7,214.6l4.26,1.14c1.15,0.31,1.86-0.05,2.13-1.08c0.28-1.03-0.17-1.69-1.31-2l-4.26-1.14l0.56-2.11l4.61,1.24
		c2.04,0.55,2.82,2.14,2.19,4.48c-0.63,2.34-2.11,3.35-4.14,2.8l-4.61-1.24L476.7,214.6z"/>
	<path d="M478.63,207.41l0.56-2.11l0.94,0.25c-0.68-0.87-0.82-1.66-0.55-2.68c0.25-0.92,0.74-1.58,1.49-1.95
		c0.56-0.28,1.31-0.29,2.25-0.03l4.78,1.28l-0.56,2.11l-4.18-1.12c-0.58-0.16-1-0.2-1.27-0.11c-0.46,0.11-0.76,0.47-0.92,1.07
		c-0.28,1.06,0.27,1.78,1.66,2.16l3.9,1.04l-0.56,2.11L478.63,207.41z"/>
	<path d="M481.11,198.14l0.56-2.11l0.94,0.25c-0.68-0.88-0.82-1.66-0.55-2.68c0.25-0.92,0.74-1.58,1.49-1.95
		c0.56-0.28,1.31-0.29,2.25-0.03l4.78,1.28l-0.56,2.11l-4.18-1.12c-0.58-0.15-1-0.2-1.27-0.11c-0.46,0.11-0.76,0.47-0.92,1.07
		c-0.28,1.06,0.27,1.78,1.66,2.16l3.9,1.04l-0.56,2.11L481.11,198.14z"/>
	<path d="M489.68,182.58l-1.51,5.65c1.37,0.3,2.2-0.13,2.51-1.3c0.2-0.73,0.02-1.42-0.53-2.06l0.83-1.86
		c1.39,1.07,1.84,2.5,1.36,4.31c-0.33,1.23-0.96,2.11-1.88,2.65c-0.93,0.54-1.99,0.65-3.21,0.32s-2.09-0.94-2.62-1.86
		c-0.54-0.92-0.65-1.97-0.33-3.16c0.32-1.2,0.94-2.04,1.84-2.54c0.91-0.49,1.99-0.57,3.26-0.23L489.68,182.58z M486.85,187.8
		l0.96-3.57c-1.05-0.04-1.72,0.43-1.97,1.39C485.58,186.55,485.94,187.36,486.85,187.8z"/>
	<path d="M492.97,179.42l-7.34,1.86l0.66-2.45l4.88-1.11l-3.71-3.29l0.65-2.42l9.92,9.18l-0.64,2.39L492.97,179.42z"/>
	<path d="M484.57,168.05l0.75-1.87l3.97,3.69l-0.54,1.29L484.57,168.05z"/>
	<path d="M492.61,162.24c-0.45,0.35-0.72,0.68-0.8,0.99c-0.08,0.31-0.09,0.56-0.01,0.75c0.08,0.2,0.22,0.31,0.39,0.36
		s0.34,0.01,0.5-0.12c0.15-0.13,0.41-0.46,0.77-1s0.68-0.92,0.97-1.14c0.53-0.45,1.17-0.58,1.93-0.37c0.76,0.2,1.31,0.67,1.66,1.39
		c0.35,0.73,0.4,1.56,0.15,2.49c-0.3,1.14-0.98,1.98-2.02,2.52l-0.99-1.45c0.74-0.43,1.2-0.94,1.36-1.55
		c0.14-0.53-0.12-1.06-0.57-1.18c-0.23-0.06-0.42-0.04-0.57,0.07c-0.15,0.12-0.42,0.44-0.8,1s-0.69,0.92-0.93,1.11
		c-0.48,0.41-1.07,0.52-1.77,0.33c-0.71-0.19-1.21-0.6-1.52-1.23c-0.32-0.62-0.35-1.36-0.13-2.21c0.23-0.85,0.71-1.56,1.44-2.14
		L492.61,162.24z"/>
	<path d="M496.73,152.78l4.3,1.15l-0.61,2.26l-11.6-3.11l0.91-3.39c0.2-0.75,0.43-1.34,0.68-1.76c0.26-0.42,0.6-0.78,1.02-1.06
		c0.92-0.6,1.94-0.75,3.03-0.45c1.1,0.29,1.9,0.85,2.42,1.68c0.52,0.82,0.59,1.9,0.24,3.23L496.73,152.78z M494.77,152.25l0.25-0.92
		c0.38-1.42,0.01-2.27-1.1-2.57c-1.18-0.32-1.88,0.22-2.31,1.8l-0.21,0.78L494.77,152.25z"/>
	<path d="M496.75,139.76l0.56-2.11l7.53,2.02l-0.56,2.11l-0.98-0.26c0.63,0.87,0.82,1.81,0.54,2.84s-0.89,1.79-1.84,2.29
		c-0.95,0.5-2,0.6-3.13,0.3c-1.13-0.3-1.99-0.92-2.58-1.83c-0.58-0.91-0.74-1.87-0.47-2.87c0.27-1,0.9-1.74,1.9-2.22L496.75,139.76z
		 M497.91,142.08c-0.16,0.59-0.09,1.15,0.21,1.67c0.3,0.53,0.74,0.86,1.33,1.02c0.59,0.16,1.14,0.09,1.66-0.22
		c0.53-0.3,0.86-0.74,1.02-1.32c0.15-0.58,0.08-1.13-0.22-1.66c-0.3-0.52-0.73-0.86-1.32-1.02c-0.59-0.16-1.13-0.08-1.66,0.2
		C498.4,141.05,498.06,141.49,497.91,142.08z"/>
	<path d="M500.71,132.03c-0.45,0.35-0.72,0.68-0.8,1c-0.08,0.31-0.09,0.56-0.01,0.75c0.08,0.2,0.22,0.31,0.39,0.36
		c0.18,0.05,0.34,0.01,0.5-0.12c0.15-0.13,0.41-0.46,0.77-1c0.36-0.53,0.68-0.92,0.97-1.14c0.53-0.45,1.17-0.58,1.93-0.37
		s1.31,0.67,1.66,1.39c0.35,0.73,0.4,1.56,0.15,2.49c-0.3,1.14-0.98,1.98-2.02,2.52l-0.99-1.45c0.74-0.43,1.2-0.94,1.36-1.55
		c0.14-0.53-0.12-1.06-0.57-1.18c-0.23-0.06-0.42-0.04-0.57,0.07c-0.15,0.12-0.42,0.44-0.8,1c-0.38,0.55-0.69,0.92-0.93,1.11
		c-0.48,0.41-1.07,0.52-1.77,0.33c-0.71-0.19-1.21-0.6-1.52-1.23c-0.32-0.62-0.35-1.36-0.13-2.21c0.23-0.85,0.71-1.56,1.44-2.13
		L500.71,132.03z"/>
	<path d="M502.17,126.84l5.71,1.53l-0.56,2.11l-5.71-1.53l-0.22,0.83l-1.83-0.49l0.22-0.83l-2.57-0.69l0.56-2.11l2.57,0.69l0.4-1.49
		l1.83,0.49L502.17,126.84z"/>
	<path d="M501.62,121.61l4.26,1.14c1.15,0.31,1.86-0.05,2.14-1.07c0.28-1.03-0.17-1.69-1.31-2l-4.26-1.14l0.56-2.11l4.61,1.24
		c2.04,0.55,2.82,2.14,2.19,4.48c-0.63,2.34-2.11,3.35-4.14,2.8l-4.61-1.23L501.62,121.61z"/>
	<path d="M511.64,114.33l-0.56,2.11l-7.53-2.02l0.56-2.11l1.15,0.31c-0.79-0.77-1.06-1.62-0.8-2.56c0.08-0.3,0.22-0.59,0.43-0.87
		l1.88,0.82c-0.26,0.27-0.44,0.58-0.52,0.93c-0.32,1.21,0.27,2.01,1.77,2.41L511.64,114.33z"/>
	<path d="M511.3,101.91l-1.51,5.65c1.37,0.3,2.2-0.13,2.51-1.3c0.2-0.73,0.02-1.42-0.53-2.06l0.83-1.86
		c1.39,1.07,1.84,2.5,1.36,4.31c-0.33,1.23-0.96,2.11-1.88,2.65c-0.93,0.54-1.99,0.65-3.21,0.32s-2.09-0.94-2.62-1.86
		c-0.54-0.92-0.65-1.97-0.33-3.16c0.32-1.2,0.94-2.04,1.84-2.54s1.99-0.57,3.25-0.23L511.3,101.91z M508.46,107.13l0.96-3.57
		c-1.05-0.04-1.72,0.43-1.97,1.39C507.2,105.88,507.56,106.7,508.46,107.13z"/>
</g>
<circle fill="#FFFFFF" stroke="#000000" stroke-width="3" stroke-miterlimit="10" cx="530" cy="241" r="10"/>
<g>
	<path d="M536.85,225.49l-11.6-3.11l0.77-2.87c0.35-1.31,0.83-2.19,1.45-2.64c0.73-0.55,1.61-0.69,2.64-0.41
		c0.64,0.17,1.15,0.46,1.54,0.88c0.18,0.22,0.33,0.56,0.47,1.02c0.34-0.66,0.72-1.09,1.14-1.32c0.7-0.4,1.52-0.48,2.46-0.23
		s1.62,0.8,2.05,1.63c0.42,0.83,0.46,1.88,0.12,3.14L536.85,225.49z M530.69,221.42l0.17-0.64c0.31-1.17-0.03-1.89-1.03-2.16
		s-1.66,0.17-1.96,1.32l-0.18,0.68L530.69,221.42z M535.63,222.75l0.26-0.98c0.4-1.5,0.07-2.4-0.99-2.69
		c-0.59-0.16-1.08-0.04-1.47,0.33c-0.31,0.27-0.57,0.81-0.79,1.62l-0.23,0.85L535.63,222.75z"/>
	<path d="M533.43,208.13l0.56-2.11l7.53,2.02l-0.56,2.11l-0.98-0.26c0.63,0.87,0.82,1.81,0.54,2.84s-0.89,1.79-1.84,2.29
		c-0.95,0.5-2,0.6-3.13,0.3s-1.99-0.92-2.58-1.83c-0.58-0.91-0.74-1.87-0.47-2.87c0.27-1,0.9-1.74,1.9-2.22L533.43,208.13z
		 M534.59,210.45c-0.16,0.59-0.09,1.15,0.21,1.67c0.3,0.53,0.74,0.86,1.33,1.02s1.14,0.09,1.66-0.22c0.53-0.3,0.86-0.74,1.02-1.32
		c0.16-0.58,0.09-1.13-0.22-1.66c-0.3-0.53-0.73-0.86-1.32-1.02s-1.13-0.09-1.66,0.2C535.08,209.41,534.74,209.86,534.59,210.45z"/>
	<path d="M541.62,203.13l-7.34,1.85l0.66-2.45l4.88-1.11l-3.71-3.29l0.65-2.42l9.92,9.18l-0.64,2.39L541.62,203.13z"/>
	<path d="M537.4,193.32l4.79-0.84l-3.74-3.1l0.63-2.37l6.64,5.94l-0.25,0.95l-8.71,1.79L537.4,193.32z"/>
	<path d="M535.22,183.66c0.09-0.35,0.29-0.61,0.6-0.79c0.31-0.18,0.64-0.22,0.99-0.13c0.35,0.09,0.62,0.3,0.8,0.62
		c0.19,0.31,0.23,0.65,0.14,1c-0.09,0.35-0.3,0.61-0.61,0.79c-0.31,0.18-0.65,0.23-1,0.13c-0.35-0.09-0.62-0.3-0.8-0.62
		C535.17,184.34,535.13,184,535.22,183.66z M539.95,183.82l7.53,2.02l-0.56,2.1l-7.53-2.02L539.95,183.82z"/>
	<path d="M546.57,175.53l-1.51,5.65c1.37,0.3,2.2-0.13,2.51-1.3c0.2-0.73,0.01-1.42-0.53-2.06l0.83-1.86
		c1.39,1.07,1.84,2.5,1.36,4.31c-0.33,1.23-0.96,2.11-1.88,2.65c-0.93,0.54-1.99,0.65-3.21,0.32c-1.21-0.33-2.09-0.94-2.62-1.86
		c-0.54-0.92-0.65-1.97-0.33-3.16c0.32-1.2,0.94-2.04,1.84-2.54c0.91-0.49,1.99-0.57,3.25-0.23L546.57,175.53z M543.74,180.75
		l0.96-3.56c-1.05-0.04-1.72,0.43-1.97,1.39C542.47,179.5,542.83,180.32,543.74,180.75z"/>
	<path d="M543.17,171.81l4.88-0.81l-4-3.27l0.24-0.9l5.17-0.82l-3.88-3.19l0.63-2.35l6.64,5.96l-0.25,0.95l-5.11,0.81l4.03,3.23
		l-0.26,0.97l-8.72,1.8L543.17,171.81z"/>
</g>
<circle fill="#FFFFFF" stroke="#000000" stroke-width="3" stroke-miterlimit="10" cx="585" cy="241" r="10"/>
<g>
	<path d="M588.16,222.08l4.3,1.15l-0.61,2.26l-11.6-3.11l0.91-3.39c0.2-0.76,0.43-1.34,0.68-1.76c0.26-0.42,0.6-0.78,1.02-1.06
		c0.92-0.6,1.94-0.75,3.03-0.45c1.1,0.29,1.9,0.85,2.42,1.68c0.52,0.82,0.59,1.9,0.24,3.23L588.16,222.08z M586.2,221.56l0.25-0.92
		c0.38-1.42,0.01-2.27-1.1-2.57c-1.18-0.32-1.88,0.22-2.31,1.8l-0.21,0.78L586.2,221.56z"/>
	<path d="M582.55,212.28c0.09-0.35,0.29-0.61,0.6-0.79c0.31-0.18,0.64-0.22,0.99-0.13c0.35,0.09,0.62,0.3,0.8,0.61
		c0.19,0.32,0.23,0.66,0.14,1c-0.09,0.35-0.3,0.61-0.61,0.79c-0.31,0.18-0.65,0.23-1,0.13c-0.35-0.09-0.62-0.3-0.8-0.62
		C582.5,212.97,582.46,212.63,582.55,212.28z M587.28,212.45l7.53,2.02l-0.56,2.1l-7.53-2.02L587.28,212.45z"/>
	<path d="M593.33,204.53l3.86,1.03l-0.56,2.11l-4-1.07c-0.59-0.16-1.01-0.23-1.27-0.19c-0.25,0.03-0.48,0.13-0.67,0.31
		s-0.32,0.39-0.39,0.62c-0.13,0.48,0.02,1.04,0.42,1.44c0.2,0.2,0.64,0.39,1.31,0.56l3.86,1.04l-0.56,2.1l-7.53-2.02l0.56-2.1
		l0.87,0.23c-0.56-0.85-0.72-1.75-0.47-2.7s0.91-1.58,1.96-1.87c-0.76-0.84-1-1.76-0.73-2.77s0.83-1.63,1.67-1.88
		c0.5-0.15,1.14-0.12,1.93,0.09l4.86,1.3l-0.56,2.11l-4.12-1.1c-0.54-0.15-0.96-0.19-1.25-0.15c-0.49,0.08-0.81,0.37-0.95,0.88
		C591.34,203.47,591.91,204.14,593.33,204.53z"/>
	<path d="M587.32,194.51c0.09-0.35,0.29-0.61,0.6-0.79c0.31-0.18,0.64-0.22,0.99-0.13c0.35,0.09,0.62,0.3,0.8,0.62
		c0.19,0.31,0.23,0.65,0.14,1c-0.09,0.35-0.3,0.61-0.61,0.79c-0.31,0.18-0.65,0.23-1,0.13c-0.35-0.09-0.62-0.3-0.8-0.62
		C587.26,195.19,587.22,194.85,587.32,194.51z M592.04,194.67l7.53,2.02l-0.56,2.1l-7.53-2.02L592.04,194.67z"/>
	<path d="M595.43,189.04c-0.45,0.35-0.72,0.68-0.8,1c-0.08,0.31-0.09,0.56-0.01,0.75c0.08,0.2,0.22,0.31,0.39,0.36
		s0.34,0.01,0.5-0.12c0.15-0.13,0.41-0.46,0.77-1c0.36-0.53,0.68-0.92,0.97-1.14c0.53-0.45,1.17-0.58,1.93-0.38
		c0.76,0.2,1.31,0.67,1.66,1.39c0.35,0.73,0.4,1.56,0.15,2.49c-0.3,1.14-0.98,1.98-2.02,2.52l-0.99-1.45
		c0.74-0.43,1.2-0.94,1.36-1.55c0.14-0.53-0.12-1.06-0.57-1.18c-0.23-0.06-0.42-0.04-0.58,0.07c-0.15,0.11-0.42,0.44-0.8,1
		c-0.38,0.55-0.69,0.92-0.93,1.11c-0.48,0.41-1.07,0.51-1.77,0.33s-1.21-0.6-1.52-1.23c-0.32-0.62-0.35-1.36-0.13-2.21
		s0.71-1.56,1.44-2.13L595.43,189.04z"/>
	<path d="M590.29,183.42c0.09-0.35,0.29-0.61,0.6-0.79c0.31-0.18,0.64-0.22,0.99-0.13c0.35,0.09,0.62,0.3,0.8,0.61
		c0.19,0.31,0.23,0.65,0.14,1c-0.09,0.35-0.3,0.61-0.61,0.79c-0.31,0.18-0.65,0.23-1,0.13c-0.35-0.09-0.62-0.3-0.8-0.62
		C590.23,184.1,590.19,183.77,590.29,183.42z M595.01,183.58l7.53,2.02l-0.56,2.1l-7.53-2.02L595.01,183.58z"/>
</g>
<circle fill="#FFFFFF" stroke="#000000" stroke-width="3" stroke-miterlimit="10" cx="640" cy="241" r="10"/>
<g>
	<path d="M635.86,220.13l9.64,2.58l0.96-3.57l1.96,0.53l-1.56,5.82l-11.6-3.11L635.86,220.13z"/>
	<path d="M648.07,216.38l-7.34,1.86l0.66-2.45l4.88-1.11l-3.71-3.29l0.65-2.42l9.91,9.18l-0.64,2.38L648.07,216.38z"/>
	<path d="M644.19,204.36c0.34-1.26,0.99-2.19,1.94-2.78c0.95-0.59,2.03-0.73,3.21-0.41s2.05,0.98,2.57,1.97
		c0.52,1,0.62,2.14,0.27,3.42c-0.34,1.28-1,2.21-1.97,2.79c-0.97,0.59-2.03,0.72-3.21,0.41c-1.18-0.32-2.03-0.98-2.55-1.99
		C643.93,206.77,643.85,205.63,644.19,204.36z M646.07,204.9c-0.16,0.58-0.09,1.14,0.21,1.67s0.74,0.87,1.33,1.03
		c0.59,0.16,1.14,0.09,1.66-0.22c0.53-0.3,0.87-0.75,1.02-1.34s0.09-1.15-0.21-1.68c-0.3-0.53-0.73-0.86-1.32-1.02
		c-0.59-0.16-1.13-0.09-1.66,0.22C646.57,203.86,646.23,204.31,646.07,204.9z"/>
	<path d="M646,198.53l0.56-2.11l0.94,0.25c-0.68-0.88-0.82-1.66-0.55-2.68c0.25-0.93,0.74-1.58,1.49-1.95
		c0.56-0.28,1.31-0.29,2.25-0.03l4.78,1.28l-0.56,2.11l-4.18-1.12c-0.58-0.15-1-0.2-1.27-0.11c-0.46,0.11-0.76,0.47-0.92,1.07
		c-0.28,1.06,0.27,1.78,1.66,2.16l3.9,1.04l-0.56,2.11L646,198.53z"/>
</g>
<circle fill="#FFFFFF" stroke="#000000" stroke-width="3" stroke-miterlimit="10" cx="695" cy="241" r="10"/>
<g>
	<path d="M698.16,222.08l4.3,1.15l-0.61,2.26l-11.6-3.11l0.91-3.39c0.2-0.76,0.43-1.34,0.68-1.76c0.26-0.42,0.6-0.78,1.02-1.06
		c0.92-0.6,1.94-0.75,3.03-0.45c1.1,0.29,1.9,0.85,2.42,1.68c0.52,0.82,0.59,1.9,0.24,3.23L698.16,222.08z M696.2,221.56l0.25-0.92
		c0.38-1.42,0.01-2.27-1.1-2.57c-1.18-0.32-1.88,0.22-2.31,1.8l-0.21,0.78L696.2,221.56z"/>
	<path d="M698.18,209.07l0.56-2.11l7.53,2.02l-0.56,2.11l-0.98-0.26c0.63,0.87,0.82,1.81,0.54,2.84c-0.28,1.03-0.89,1.79-1.84,2.29
		s-2,0.6-3.13,0.3c-1.13-0.3-1.99-0.92-2.58-1.83c-0.58-0.91-0.74-1.87-0.47-2.87s0.9-1.74,1.9-2.22L698.18,209.07z M699.33,211.39
		c-0.16,0.59-0.09,1.15,0.21,1.67c0.3,0.53,0.74,0.86,1.33,1.02c0.58,0.16,1.14,0.09,1.66-0.22c0.53-0.3,0.86-0.74,1.02-1.32
		c0.15-0.58,0.08-1.13-0.22-1.66c-0.3-0.53-0.73-0.86-1.32-1.02s-1.13-0.08-1.66,0.2C699.83,210.36,699.49,210.8,699.33,211.39z"/>
	<path d="M707.38,204.86l-0.56,2.1l-7.53-2.02l0.56-2.1l1.15,0.31c-0.79-0.77-1.06-1.62-0.8-2.56c0.08-0.3,0.22-0.59,0.43-0.87
		l1.88,0.82c-0.26,0.27-0.44,0.58-0.52,0.93c-0.32,1.21,0.27,2.01,1.77,2.41L707.38,204.86z"/>
	<path d="M696.05,195.05l13.02,3.49l-0.56,2.11l-13.02-3.49L696.05,195.05z"/>
	<path d="M697.91,192.28c0.09-0.35,0.29-0.61,0.6-0.79c0.31-0.18,0.64-0.22,0.99-0.13c0.35,0.09,0.62,0.3,0.8,0.62
		c0.19,0.31,0.23,0.65,0.14,1c-0.09,0.35-0.3,0.61-0.61,0.79c-0.31,0.18-0.65,0.23-1,0.13c-0.35-0.09-0.62-0.3-0.8-0.62
		C697.85,192.97,697.82,192.63,697.91,192.28z M702.63,192.45l7.53,2.02l-0.56,2.1l-7.53-2.02L702.63,192.45z"/>
	<path d="M704.71,184.69l0.56-2.11l7.53,2.02l-0.56,2.11l-0.98-0.26c0.63,0.87,0.82,1.81,0.54,2.84s-0.89,1.79-1.84,2.29
		s-2,0.6-3.13,0.3c-1.13-0.3-1.99-0.92-2.58-1.83c-0.58-0.91-0.74-1.87-0.47-2.87s0.9-1.74,1.9-2.22L704.71,184.69z M705.87,187.01
		c-0.16,0.59-0.09,1.15,0.21,1.67c0.3,0.53,0.74,0.86,1.33,1.02c0.58,0.16,1.14,0.09,1.66-0.22c0.53-0.3,0.86-0.74,1.02-1.32
		c0.15-0.58,0.08-1.13-0.22-1.66c-0.3-0.53-0.73-0.86-1.32-1.02c-0.59-0.16-1.13-0.09-1.66,0.2
		C706.36,185.97,706.02,186.42,705.87,187.01z"/>
	<path d="M711.34,174.63l3.86,1.04l-0.56,2.11l-4-1.07c-0.59-0.16-1.01-0.23-1.27-0.19c-0.25,0.03-0.48,0.13-0.67,0.31
		c-0.19,0.18-0.32,0.39-0.39,0.62c-0.13,0.47,0.02,1.04,0.42,1.44c0.2,0.2,0.64,0.39,1.31,0.56l3.86,1.03l-0.56,2.11l-7.53-2.02
		l0.56-2.11l0.87,0.23c-0.56-0.85-0.72-1.75-0.47-2.7s0.91-1.58,1.97-1.87c-0.76-0.84-1-1.76-0.73-2.77
		c0.27-1.01,0.83-1.63,1.67-1.88c0.5-0.15,1.14-0.12,1.93,0.09l4.86,1.3l-0.56,2.11l-4.12-1.1c-0.54-0.14-0.96-0.19-1.25-0.15
		c-0.49,0.08-0.81,0.37-0.95,0.88C709.35,173.58,709.92,174.25,711.34,174.63z"/>
	<path d="M715.59,160.54l-1.51,5.65c1.37,0.3,2.2-0.13,2.51-1.3c0.2-0.73,0.02-1.42-0.53-2.06l0.83-1.86
		c1.39,1.07,1.84,2.5,1.36,4.31c-0.33,1.23-0.96,2.11-1.88,2.65c-0.93,0.54-1.99,0.65-3.21,0.32s-2.09-0.94-2.62-1.86
		c-0.54-0.92-0.65-1.97-0.33-3.16c0.32-1.2,0.94-2.04,1.84-2.54c0.91-0.49,1.99-0.57,3.26-0.23L715.59,160.54z M712.75,165.76
		l0.96-3.57c-1.05-0.04-1.72,0.43-1.97,1.39C711.49,164.51,711.85,165.33,712.75,165.76z"/>
	<path d="M711.91,157.84l0.56-2.11l0.94,0.25c-0.68-0.88-0.82-1.66-0.55-2.68c0.25-0.92,0.74-1.58,1.49-1.95
		c0.56-0.28,1.31-0.29,2.25-0.03l4.78,1.28l-0.56,2.11l-4.18-1.12c-0.58-0.15-1-0.2-1.27-0.11c-0.46,0.11-0.76,0.47-0.92,1.07
		c-0.28,1.06,0.27,1.78,1.66,2.16l3.9,1.04l-0.56,2.11L711.91,157.84z"/>
	<path d="M716.78,146.95l5.71,1.53l-0.56,2.11l-5.71-1.53l-0.22,0.83l-1.83-0.49l0.22-0.83l-2.57-0.69l0.56-2.11l2.57,0.69l0.4-1.49
		l1.83,0.49L716.78,146.95z"/>
</g>
<circle fill="#FFFFFF" stroke="#000000" stroke-width="3" stroke-miterlimit="10" cx="750" cy="241" r="10"/>
<g>
	<path d="M752.79,221.99l4.66,1.25l-0.61,2.26l-11.6-3.11l0.9-3.35c0.35-1.31,0.89-2.23,1.61-2.74c0.84-0.59,1.82-0.74,2.91-0.45
		c1.1,0.3,1.86,0.87,2.28,1.73c0.27,0.53,0.37,1.13,0.31,1.79l5.86-2.34l-0.75,2.78l-5.5,1.88L752.79,221.99z M751.2,221.56
		l0.18-0.66c0.38-1.43-0.05-2.38-1.18-2.68c-1.16-0.31-1.93,0.25-2.32,1.71l-0.19,0.7L751.2,221.56z"/>
	<path d="M747.74,211.59c0.09-0.35,0.29-0.61,0.6-0.79c0.31-0.18,0.64-0.22,0.99-0.13c0.35,0.09,0.62,0.3,0.8,0.62
		c0.19,0.31,0.23,0.65,0.14,1c-0.09,0.35-0.3,0.61-0.61,0.79c-0.31,0.18-0.65,0.23-1,0.13c-0.35-0.09-0.62-0.3-0.8-0.62
		C747.68,212.27,747.65,211.94,747.74,211.59z M752.46,211.75l7.53,2.02l-0.56,2.1l-7.53-2.02L752.46,211.75z"/>
	<path d="M749.05,202.52l0.56-2.11l13.02,3.49l-0.56,2.11l-0.98-0.26c0.63,0.87,0.82,1.81,0.54,2.84s-0.89,1.79-1.84,2.29
		c-0.95,0.5-2,0.6-3.13,0.3c-1.13-0.3-1.99-0.92-2.58-1.83c-0.58-0.91-0.74-1.87-0.47-2.87s0.9-1.74,1.9-2.22L749.05,202.52z
		 M755.69,206.31c-0.16,0.59-0.09,1.15,0.21,1.67c0.3,0.53,0.74,0.86,1.33,1.02c0.59,0.16,1.14,0.09,1.66-0.22
		c0.53-0.3,0.86-0.74,1.02-1.32c0.15-0.58,0.08-1.13-0.22-1.66c-0.3-0.53-0.73-0.86-1.32-1.02c-0.59-0.16-1.13-0.09-1.66,0.2
		C756.19,205.28,755.85,205.73,755.69,206.31z"/>
	<path d="M761.74,193.57l-1.51,5.64c1.37,0.3,2.2-0.13,2.51-1.3c0.2-0.73,0.02-1.42-0.53-2.06l0.84-1.86
		c1.39,1.07,1.84,2.5,1.36,4.31c-0.33,1.23-0.96,2.11-1.88,2.65c-0.93,0.54-1.99,0.65-3.21,0.32c-1.21-0.33-2.09-0.94-2.62-1.86
		c-0.54-0.92-0.65-1.96-0.33-3.16s0.94-2.04,1.84-2.54c0.91-0.49,1.99-0.57,3.25-0.23L761.74,193.57z M758.9,198.79l0.96-3.57
		c-1.05-0.04-1.72,0.43-1.97,1.39C757.63,197.54,758,198.36,758.9,198.79z"/>
	<path d="M759.6,185.1l0.56-2.1l7.53,2.02l-0.56,2.1l-0.98-0.26c0.63,0.87,0.82,1.81,0.54,2.84s-0.89,1.79-1.84,2.29
		c-0.95,0.5-2,0.6-3.13,0.3c-1.13-0.3-1.99-0.92-2.58-1.83c-0.58-0.91-0.74-1.87-0.47-2.87c0.27-1,0.9-1.74,1.9-2.22L759.6,185.1z
		 M760.76,187.42c-0.16,0.59-0.09,1.15,0.21,1.67c0.3,0.53,0.74,0.86,1.33,1.02s1.14,0.09,1.66-0.22c0.53-0.3,0.86-0.74,1.02-1.32
		c0.15-0.58,0.08-1.13-0.22-1.66c-0.3-0.53-0.73-0.86-1.32-1.02c-0.59-0.16-1.13-0.08-1.66,0.2
		C761.25,186.39,760.91,186.84,760.76,187.42z"/>
	<path d="M761.27,178.88l4.26,1.14c1.15,0.31,1.86-0.05,2.14-1.08s-0.17-1.69-1.31-2l-4.26-1.14l0.56-2.11l4.61,1.24
		c2.04,0.55,2.82,2.14,2.19,4.48c-0.63,2.34-2.11,3.35-4.14,2.8l-4.61-1.24L761.27,178.88z"/>
</g>
<circle fill="#FFFFFF" stroke="#000000" stroke-width="3" stroke-miterlimit="10" cx="805" cy="241" r="10"/>
<g>
	<path d="M804.8,221.7l4.26,1.14c1.15,0.31,1.86-0.05,2.14-1.07s-0.17-1.69-1.31-2l-4.26-1.14l0.56-2.11l4.61,1.24
		c2.04,0.55,2.82,2.14,2.19,4.48c-0.63,2.34-2.11,3.35-4.14,2.8l-4.61-1.24L804.8,221.7z"/>
	<path d="M803.99,207.38c0.46-1.72,1.44-3.02,2.93-3.9c1.49-0.88,3.09-1.09,4.8-0.63c1.71,0.46,2.98,1.44,3.82,2.96
		s1.02,3.15,0.55,4.9c-0.47,1.75-1.45,3.05-2.94,3.92c-1.5,0.86-3.09,1.07-4.79,0.61s-2.97-1.45-3.81-2.98
		C803.72,210.73,803.53,209.11,803.99,207.38z M806.06,207.96c-0.28,1.06-0.14,2.08,0.43,3.05c0.57,0.97,1.41,1.61,2.51,1.9
		c1.1,0.3,2.15,0.17,3.13-0.38s1.62-1.35,1.9-2.42c0.29-1.07,0.14-2.09-0.44-3.06c-0.58-0.96-1.42-1.59-2.52-1.89
		c-1.1-0.3-2.15-0.17-3.12,0.37C806.98,206.09,806.34,206.9,806.06,207.96z"/>
	<path d="M812.84,198.99l5.71,1.53l-0.56,2.1l-5.71-1.53l-0.22,0.83l-1.83-0.49l0.22-0.83l-2.57-0.69l0.56-2.1l2.57,0.69l0.4-1.49
		l1.83,0.49L812.84,198.99z"/>
	<path d="M814.22,193.84l5.71,1.53l-0.56,2.11l-5.71-1.53l-0.22,0.83l-1.83-0.49l0.22-0.83l-2.57-0.69l0.56-2.11l2.57,0.69l0.4-1.49
		l1.83,0.49L814.22,193.84z"/>
	<path d="M814.64,184.98l0.56-2.11l7.53,2.02l-0.56,2.11l-0.98-0.26c0.63,0.87,0.82,1.81,0.54,2.84s-0.89,1.79-1.84,2.29
		c-0.95,0.5-2,0.6-3.13,0.3c-1.13-0.3-1.99-0.92-2.58-1.83c-0.58-0.91-0.74-1.87-0.47-2.87c0.27-1,0.9-1.74,1.9-2.22L814.64,184.98z
		 M815.79,187.3c-0.16,0.59-0.09,1.15,0.21,1.67c0.3,0.53,0.74,0.86,1.33,1.02c0.59,0.16,1.14,0.09,1.66-0.22
		c0.53-0.3,0.86-0.74,1.02-1.32c0.16-0.58,0.09-1.13-0.22-1.66c-0.3-0.52-0.73-0.86-1.32-1.02c-0.59-0.16-1.13-0.08-1.66,0.2
		C816.28,186.26,815.95,186.71,815.79,187.3z"/>
	<path d="M816.11,179.47l4.88-0.81l-4-3.27l0.24-0.9l5.17-0.82l-3.88-3.19l0.63-2.35l6.64,5.96l-0.25,0.95l-5.11,0.81l4.03,3.23
		l-0.26,0.97l-8.72,1.8L816.11,179.47z"/>
	<path d="M820.87,161.7l0.56-2.11l7.53,2.02l-0.56,2.11l-0.98-0.26c0.63,0.87,0.82,1.81,0.54,2.84s-0.89,1.79-1.84,2.29
		s-2,0.6-3.13,0.3c-1.13-0.3-1.99-0.92-2.58-1.83c-0.58-0.91-0.74-1.87-0.47-2.87s0.9-1.74,1.9-2.22L820.87,161.7z M822.03,164.02
		c-0.16,0.59-0.09,1.15,0.21,1.67c0.3,0.53,0.74,0.86,1.33,1.02c0.58,0.16,1.14,0.09,1.66-0.22c0.53-0.3,0.86-0.74,1.02-1.32
		c0.15-0.58,0.08-1.13-0.22-1.66c-0.3-0.53-0.73-0.86-1.32-1.02s-1.13-0.08-1.66,0.2C822.52,162.99,822.18,163.43,822.03,164.02z"/>
</g>
<circle fill="#FFFFFF" stroke="#000000" stroke-width="3" stroke-miterlimit="10" cx="860" cy="241" r="10"/>
<g>
	<path d="M855.86,220.13l9.64,2.58l0.96-3.57l1.96,0.53l-1.56,5.82l-11.6-3.11L855.86,220.13z"/>
	<path d="M867.33,210.02l-1.51,5.64c1.37,0.3,2.2-0.13,2.51-1.3c0.2-0.73,0.02-1.42-0.53-2.06l0.83-1.86
		c1.39,1.07,1.84,2.5,1.36,4.31c-0.33,1.23-0.96,2.11-1.88,2.65s-1.99,0.65-3.21,0.32c-1.21-0.33-2.09-0.94-2.62-1.86
		c-0.54-0.92-0.65-1.96-0.33-3.16s0.94-2.04,1.84-2.54c0.91-0.49,1.99-0.57,3.25-0.23L867.33,210.02z M864.5,215.24l0.96-3.57
		c-1.05-0.04-1.72,0.43-1.97,1.39C863.23,213.99,863.59,214.8,864.5,215.24z"/>
	<path d="M869.74,201.02l-1.51,5.65c1.37,0.3,2.2-0.13,2.51-1.3c0.2-0.73,0.02-1.42-0.53-2.06l0.83-1.86
		c1.39,1.07,1.84,2.5,1.36,4.31c-0.33,1.23-0.96,2.11-1.88,2.65s-1.99,0.65-3.21,0.32s-2.09-0.94-2.62-1.86
		c-0.54-0.92-0.65-1.97-0.33-3.16c0.32-1.2,0.94-2.04,1.84-2.54s1.99-0.57,3.25-0.23L869.74,201.02z M866.91,206.24l0.96-3.57
		c-1.05-0.04-1.72,0.43-1.97,1.39C865.64,204.99,866,205.8,866.91,206.24z"/>
	<path d="M868.89,194.79c-0.45,0.35-0.72,0.68-0.8,1c-0.08,0.31-0.09,0.56-0.01,0.75c0.08,0.2,0.22,0.31,0.39,0.36
		c0.18,0.05,0.34,0.01,0.5-0.12c0.15-0.13,0.41-0.46,0.77-1c0.36-0.53,0.68-0.92,0.97-1.14c0.53-0.45,1.17-0.58,1.93-0.38
		c0.76,0.2,1.31,0.67,1.66,1.39c0.35,0.73,0.4,1.56,0.15,2.49c-0.3,1.14-0.98,1.98-2.02,2.52l-0.99-1.45
		c0.74-0.43,1.2-0.94,1.36-1.55c0.14-0.53-0.12-1.06-0.57-1.18c-0.23-0.06-0.42-0.04-0.57,0.07c-0.15,0.12-0.42,0.44-0.8,1
		s-0.69,0.92-0.93,1.11c-0.48,0.41-1.07,0.51-1.77,0.33s-1.21-0.6-1.52-1.23c-0.32-0.62-0.35-1.36-0.13-2.21
		c0.23-0.85,0.71-1.56,1.44-2.13L868.89,194.79z"/>
</g>
<circle fill="#FFFFFF" stroke="#000000" stroke-width="3" stroke-miterlimit="10" cx="915" cy="241" r="10"/>
<g>
	<path d="M915.34,221.33l1.31-4.9l-4.48-1.2l0.61-2.27l11.6,3.11l-0.61,2.27l-5.14-1.38l-1.31,4.9l5.14,1.38l-0.61,2.26l-11.6-3.11
		l0.61-2.26L915.34,221.33z"/>
	<path d="M918.03,209.62l4.26,1.14c1.15,0.31,1.86-0.05,2.13-1.08s-0.17-1.69-1.31-2l-4.26-1.14l0.56-2.11l4.61,1.23
		c2.04,0.55,2.82,2.14,2.19,4.48s-2.11,3.35-4.14,2.8l-4.61-1.24L918.03,209.62z"/>
	<path d="M928.05,202.34l-0.56,2.11l-7.53-2.02l0.56-2.11l1.15,0.31c-0.79-0.77-1.06-1.62-0.8-2.56c0.08-0.3,0.22-0.59,0.43-0.87
		l1.88,0.82c-0.26,0.27-0.44,0.57-0.52,0.93c-0.32,1.21,0.27,2.01,1.77,2.41L928.05,202.34z"/>
	<path d="M917.67,189l0.56-2.11l13.02,3.49l-0.56,2.11l-0.98-0.26c0.63,0.87,0.82,1.81,0.54,2.84s-0.89,1.79-1.84,2.29
		c-0.95,0.5-2,0.6-3.13,0.3c-1.13-0.3-1.99-0.92-2.58-1.83c-0.58-0.91-0.74-1.87-0.47-2.87c0.27-1,0.9-1.74,1.9-2.22L917.67,189z
		 M924.32,192.79c-0.16,0.59-0.09,1.15,0.21,1.67c0.3,0.53,0.74,0.86,1.33,1.02s1.14,0.09,1.66-0.22c0.53-0.3,0.86-0.74,1.02-1.32
		c0.16-0.58,0.09-1.13-0.22-1.66c-0.3-0.53-0.73-0.86-1.32-1.02s-1.13-0.08-1.66,0.2C924.81,191.76,924.47,192.2,924.32,192.79z"/>
	<path d="M929.79,180.42l3.86,1.03l-0.56,2.11l-4-1.07c-0.59-0.16-1.01-0.23-1.27-0.19c-0.25,0.03-0.48,0.13-0.67,0.31
		c-0.19,0.18-0.32,0.39-0.39,0.62c-0.13,0.48,0.02,1.04,0.42,1.44c0.2,0.2,0.64,0.39,1.31,0.56l3.86,1.04l-0.56,2.11l-7.53-2.02
		l0.56-2.11l0.88,0.23c-0.56-0.85-0.72-1.75-0.47-2.7s0.91-1.58,1.97-1.87c-0.76-0.84-1-1.76-0.73-2.77s0.83-1.63,1.67-1.88
		c0.5-0.15,1.14-0.12,1.93,0.09l4.86,1.3l-0.56,2.11l-4.12-1.1c-0.54-0.15-0.96-0.19-1.25-0.15c-0.49,0.08-0.81,0.37-0.95,0.88
		C927.8,179.36,928.37,180.04,929.79,180.42z"/>
	<path d="M929.49,166.85l0.56-2.11l7.53,2.02l-0.56,2.11l-0.98-0.26c0.63,0.87,0.82,1.81,0.54,2.84s-0.89,1.79-1.84,2.29
		s-2,0.6-3.13,0.3c-1.13-0.3-1.99-0.92-2.58-1.83c-0.58-0.91-0.74-1.87-0.47-2.87s0.9-1.74,1.9-2.22L929.49,166.85z M930.65,169.17
		c-0.16,0.59-0.09,1.15,0.21,1.67c0.3,0.53,0.74,0.86,1.33,1.02c0.58,0.16,1.14,0.09,1.66-0.22c0.53-0.3,0.86-0.74,1.02-1.32
		c0.15-0.58,0.08-1.13-0.22-1.66c-0.3-0.53-0.73-0.86-1.32-1.02s-1.13-0.09-1.66,0.2C931.14,168.14,930.8,168.59,930.65,169.17z"/>
	<path d="M930.6,162.73l0.56-2.11l0.94,0.25c-0.68-0.88-0.82-1.66-0.55-2.68c0.25-0.93,0.74-1.58,1.49-1.95
		c0.56-0.28,1.31-0.29,2.25-0.03l4.78,1.28l-0.56,2.11l-4.18-1.12c-0.58-0.15-1-0.2-1.27-0.11c-0.46,0.11-0.76,0.47-0.92,1.07
		c-0.28,1.06,0.27,1.78,1.66,2.16l3.9,1.04l-0.56,2.11L930.6,162.73z"/>
</g>
<circle fill="#FFFFFF" stroke="#000000" stroke-width="3" stroke-miterlimit="10" cx="970" cy="241" r="10"/>
<g>
	<path d="M977.82,221.86l-0.61,2.27l-9.64-2.58l-0.69,2.59l-1.96-0.53l2-7.46l1.96,0.53l-0.7,2.61L977.82,221.86z"/>
	<path d="M979.25,216.54l-0.56,2.11l-7.53-2.02l0.56-2.11l1.15,0.31c-0.79-0.77-1.06-1.62-0.8-2.56c0.08-0.3,0.22-0.59,0.43-0.87
		l1.88,0.82c-0.26,0.27-0.44,0.58-0.52,0.93c-0.32,1.21,0.27,2.01,1.77,2.41L979.25,216.54z"/>
	<path d="M978.91,204.12l-1.51,5.65c1.37,0.3,2.2-0.13,2.51-1.3c0.2-0.73,0.02-1.42-0.53-2.06l0.83-1.86
		c1.39,1.07,1.84,2.5,1.37,4.31c-0.33,1.23-0.96,2.11-1.88,2.65s-1.99,0.65-3.21,0.32s-2.09-0.94-2.62-1.86
		c-0.54-0.92-0.65-1.97-0.33-3.16c0.32-1.2,0.94-2.04,1.84-2.54c0.91-0.49,1.99-0.57,3.25-0.23L978.91,204.12z M976.08,209.34
		l0.96-3.57c-1.05-0.04-1.72,0.43-1.97,1.39C974.81,208.09,975.17,208.9,976.08,209.34z"/>
	<path d="M980.75,195.48l3.86,1.04l-0.56,2.11l-4-1.07c-0.59-0.16-1.01-0.23-1.27-0.19c-0.25,0.03-0.48,0.13-0.67,0.31
		c-0.19,0.18-0.32,0.39-0.39,0.62c-0.13,0.47,0.02,1.04,0.42,1.44c0.2,0.2,0.64,0.39,1.31,0.56l3.86,1.03l-0.56,2.11l-7.53-2.02
		l0.56-2.11l0.87,0.23c-0.56-0.85-0.72-1.75-0.47-2.7s0.91-1.58,1.97-1.87c-0.76-0.84-1-1.76-0.73-2.77
		c0.27-1.01,0.83-1.63,1.67-1.88c0.5-0.15,1.14-0.12,1.93,0.09l4.87,1.3l-0.56,2.11l-4.12-1.1c-0.54-0.14-0.96-0.19-1.25-0.15
		c-0.49,0.08-0.81,0.37-0.95,0.88C978.76,194.43,979.33,195.1,980.75,195.48z"/>
	<path d="M973.98,184.12l6.47,1.73c-0.62-0.92-0.8-1.89-0.53-2.89c0.27-1,0.88-1.75,1.83-2.25c0.95-0.5,2-0.59,3.14-0.29
		c1.15,0.31,2,0.91,2.58,1.82c0.58,0.91,0.73,1.88,0.45,2.91c-0.28,1.03-0.91,1.76-1.9,2.19l0.98,0.26l-0.56,2.11l-13.02-3.49
		L973.98,184.12z M981.63,184.15c-0.16,0.59-0.08,1.13,0.21,1.66c0.3,0.53,0.74,0.86,1.33,1.02c0.58,0.16,1.14,0.09,1.66-0.22
		c0.53-0.3,0.86-0.74,1.02-1.32c0.15-0.58,0.08-1.13-0.22-1.66c-0.3-0.52-0.73-0.87-1.32-1.03c-0.59-0.16-1.13-0.09-1.66,0.22
		C982.13,183.12,981.79,183.56,981.63,184.15z"/>
	<path d="M976.63,174.23l13.02,3.49l-0.56,2.11l-13.02-3.49L976.63,174.23z"/>
	<path d="M984.21,167.91l0.56-2.1l7.53,2.02l-0.56,2.1l-0.98-0.26c0.63,0.87,0.82,1.81,0.54,2.84s-0.89,1.79-1.84,2.29
		c-0.95,0.5-2,0.6-3.13,0.3c-1.13-0.3-1.99-0.92-2.58-1.83c-0.58-0.91-0.74-1.87-0.47-2.87c0.27-1,0.9-1.74,1.9-2.22L984.21,167.91z
		 M985.36,170.23c-0.16,0.59-0.09,1.15,0.21,1.67c0.3,0.53,0.74,0.86,1.33,1.02s1.14,0.09,1.66-0.22c0.53-0.3,0.86-0.74,1.02-1.32
		c0.16-0.58,0.09-1.13-0.22-1.66c-0.3-0.53-0.73-0.86-1.32-1.02c-0.59-0.16-1.13-0.08-1.66,0.2
		C985.86,169.2,985.52,169.65,985.36,170.23z"/>
	<path d="M992.39,162.92l-7.34,1.86l0.66-2.45l4.88-1.11l-3.71-3.29l0.65-2.42l9.91,9.18l-0.64,2.38L992.39,162.92z"/>
</g>
<circle fill="#FFFFFF" stroke="#000000" stroke-width="3" stroke-miterlimit="10" cx="1025" cy="241" r="10"/>
<g>
	<path d="M1023.79,221.02c0.33,0.09,0.63,0.04,0.9-0.15c0.27-0.19,0.69-0.69,1.28-1.5c0.58-0.82,1.11-1.38,1.57-1.7
		c0.76-0.53,1.68-0.65,2.78-0.36c1.1,0.29,1.89,0.91,2.4,1.84c0.51,0.93,0.6,2,0.28,3.21c-0.44,1.64-1.53,2.76-3.27,3.39l-1.02-1.84
		c1.17-0.27,1.91-0.94,2.2-2.01c0.14-0.52,0.1-0.99-0.11-1.41c-0.22-0.41-0.56-0.69-1.04-0.82c-0.48-0.13-0.92-0.03-1.33,0.31
		c-0.2,0.16-0.6,0.68-1.21,1.54c-0.6,0.87-1.21,1.45-1.79,1.76c-0.58,0.31-1.26,0.35-2.02,0.15c-0.97-0.26-1.69-0.82-2.14-1.67
		c-0.45-0.86-0.55-1.8-0.27-2.85c0.35-1.29,1.08-2.31,2.21-3.07l1.23,1.6c-0.78,0.38-1.26,0.93-1.44,1.63
		c-0.12,0.47-0.1,0.88,0.06,1.26S1023.46,220.93,1023.79,221.02z"/>
	<path d="M1029.16,212.7l5.71,1.53l-0.56,2.11l-5.71-1.53l-0.22,0.83l-1.83-0.49l0.22-0.83l-2.57-0.69l0.56-2.11l2.57,0.69l0.4-1.49
		l1.83,0.49L1029.16,212.7z"/>
	<path d="M1030.57,210.81l1.05-3.91l1.75,0.47l-1.05,3.91L1030.57,210.81z"/>
	<path d="M1025.85,201.5l9.64,2.58l0.96-3.57l1.96,0.53l-1.56,5.82l-11.6-3.11L1025.85,201.5z"/>
	<path d="M1032.78,191.92l0.56-2.11l7.53,2.02l-0.56,2.11l-0.98-0.26c0.63,0.87,0.81,1.81,0.54,2.84c-0.28,1.03-0.89,1.79-1.84,2.29
		s-2,0.6-3.13,0.3s-1.99-0.92-2.58-1.83c-0.58-0.91-0.74-1.87-0.47-2.87c0.27-1,0.9-1.74,1.9-2.22L1032.78,191.92z M1033.93,194.24
		c-0.16,0.59-0.09,1.15,0.21,1.67c0.3,0.53,0.74,0.86,1.33,1.02c0.59,0.16,1.14,0.09,1.66-0.22c0.53-0.3,0.86-0.74,1.02-1.32
		c0.16-0.58,0.09-1.13-0.22-1.66c-0.3-0.53-0.73-0.86-1.32-1.02c-0.59-0.16-1.13-0.09-1.65,0.2
		C1034.42,193.21,1034.09,193.66,1033.93,194.24z"/>
	<path d="M1034.44,185.7l4.26,1.14c1.15,0.31,1.86-0.05,2.13-1.07c0.28-1.03-0.17-1.69-1.31-2l-4.26-1.14l0.56-2.11l4.61,1.24
		c2.04,0.55,2.82,2.14,2.19,4.48c-0.63,2.34-2.11,3.35-4.14,2.8l-4.61-1.24L1034.44,185.7z"/>
	<path d="M1044.46,178.42l-0.56,2.11l-7.53-2.02l0.56-2.11l1.15,0.31c-0.79-0.77-1.06-1.62-0.8-2.56c0.08-0.3,0.22-0.59,0.43-0.87
		l1.88,0.82c-0.26,0.27-0.44,0.58-0.52,0.93c-0.32,1.21,0.27,2.01,1.77,2.41L1044.46,178.42z"/>
	<path d="M1044.12,166l-1.51,5.64c1.37,0.3,2.2-0.13,2.51-1.3c0.2-0.73,0.02-1.42-0.53-2.06l0.83-1.86c1.39,1.07,1.84,2.5,1.37,4.31
		c-0.33,1.23-0.96,2.11-1.88,2.65c-0.93,0.54-1.99,0.65-3.21,0.32c-1.21-0.33-2.09-0.94-2.62-1.86c-0.54-0.92-0.65-1.96-0.33-3.16
		s0.94-2.04,1.84-2.54s1.99-0.57,3.26-0.23L1044.12,166z M1041.29,171.22l0.96-3.57c-1.05-0.04-1.72,0.43-1.97,1.39
		C1040.02,169.97,1040.39,170.79,1041.29,171.22z"/>
	<path d="M1040.44,163.3l0.56-2.11l0.94,0.25c-0.69-0.88-0.82-1.66-0.55-2.68c0.25-0.93,0.74-1.58,1.49-1.95
		c0.56-0.28,1.31-0.29,2.25-0.04l4.78,1.28l-0.56,2.11l-4.18-1.12c-0.58-0.16-1-0.2-1.27-0.11c-0.46,0.11-0.76,0.47-0.92,1.07
		c-0.28,1.06,0.27,1.78,1.66,2.16l3.9,1.04l-0.56,2.11L1040.44,163.3z"/>
	<path d="M1045.32,152.41l5.71,1.53l-0.56,2.11l-5.71-1.53l-0.22,0.83l-1.83-0.49l0.22-0.83l-2.57-0.69l0.56-2.11l2.57,0.69
		l0.4-1.49l1.83,0.49L1045.32,152.41z"/>
</g>
<circle fill="#FFFFFF" stroke="#000000" stroke-width="3" stroke-miterlimit="10" cx="1080" cy="241" r="10"/>
<g>
	<path d="M1080.61,214.86c-1.11,0.65-1.8,1.49-2.08,2.53c-0.28,1.04-0.12,2.02,0.45,2.96c0.58,0.95,1.44,1.57,2.57,1.87
		s2.17,0.19,3.12-0.35c0.95-0.53,1.57-1.34,1.86-2.44c0.15-0.54,0.18-1.05,0.1-1.53s-0.29-1-0.62-1.59l2.66,0.71
		c0.19,1.1,0.17,2.1-0.08,3.02c-0.46,1.72-1.43,3.01-2.91,3.88c-1.48,0.87-3.06,1.08-4.75,0.63s-2.96-1.43-3.84-2.95
		c-0.88-1.52-1.08-3.12-0.63-4.81c0.25-0.94,0.74-1.82,1.47-2.64L1080.61,214.86z"/>
	<path d="M1089.03,212.78l-7.34,1.86l0.66-2.45l4.88-1.11l-3.71-3.29l0.65-2.42l9.92,9.18l-0.64,2.39L1089.03,212.78z"/>
	<path d="M1092.54,204.26l-0.56,2.11l-7.53-2.02l0.56-2.11l1.15,0.31c-0.79-0.77-1.06-1.62-0.8-2.56c0.08-0.3,0.22-0.59,0.43-0.87
		l1.88,0.82c-0.26,0.27-0.44,0.58-0.52,0.93c-0.32,1.21,0.27,2.01,1.77,2.41L1092.54,204.26z"/>
	<path d="M1086.63,196.18l4.79-0.84l-3.74-3.1l0.63-2.37l6.64,5.94l-0.25,0.95l-8.71,1.79L1086.63,196.18z"/>
	<path d="M1084.46,186.52c0.09-0.35,0.29-0.61,0.6-0.79c0.31-0.18,0.64-0.22,0.99-0.13c0.35,0.09,0.62,0.3,0.8,0.61
		c0.19,0.31,0.23,0.65,0.14,1c-0.09,0.35-0.3,0.61-0.61,0.79c-0.31,0.18-0.65,0.23-1,0.13c-0.35-0.09-0.62-0.3-0.8-0.62
		C1084.4,187.2,1084.36,186.87,1084.46,186.52z M1089.18,186.68l7.53,2.02l-0.56,2.1l-7.53-2.02L1089.18,186.68z"/>
	<path d="M1084.78,181.12l13.02,3.49l-0.56,2.11l-13.02-3.49L1084.78,181.12z"/>
	<path d="M1085.89,177l13.02,3.49l-0.56,2.11l-13.02-3.49L1085.89,177z"/>
	<path d="M1098.01,170.16l-1.51,5.64c1.37,0.3,2.2-0.13,2.51-1.3c0.2-0.73,0.02-1.42-0.53-2.06l0.83-1.86
		c1.39,1.07,1.84,2.5,1.36,4.31c-0.33,1.23-0.96,2.11-1.88,2.65c-0.93,0.54-1.99,0.65-3.21,0.32c-1.21-0.33-2.09-0.94-2.62-1.86
		c-0.54-0.92-0.65-1.96-0.33-3.16c0.32-1.2,0.94-2.04,1.84-2.54c0.91-0.49,1.99-0.57,3.25-0.23L1098.01,170.16z M1095.17,175.38
		l0.96-3.57c-1.05-0.04-1.72,0.43-1.97,1.39C1093.91,174.13,1094.27,174.95,1095.17,175.38z"/>
</g>
<circle fill="#FFFFFF" stroke="#000000" stroke-width="3" stroke-miterlimit="10" cx="1135" cy="241" r="10"/>
<g>
	<path d="M1141.85,225.49l-11.6-3.11l0.77-2.87c0.35-1.31,0.83-2.19,1.45-2.64c0.73-0.55,1.61-0.69,2.64-0.41
		c0.64,0.17,1.15,0.46,1.54,0.88c0.18,0.22,0.33,0.56,0.47,1.02c0.34-0.66,0.72-1.09,1.13-1.32c0.7-0.4,1.52-0.48,2.46-0.23
		c0.94,0.25,1.62,0.8,2.05,1.63c0.42,0.83,0.46,1.88,0.12,3.14L1141.85,225.49z M1135.69,221.42l0.17-0.64
		c0.31-1.17-0.03-1.89-1.03-2.16s-1.66,0.17-1.96,1.32l-0.18,0.68L1135.69,221.42z M1140.63,222.75l0.26-0.98
		c0.4-1.5,0.07-2.4-0.99-2.69c-0.59-0.16-1.08-0.04-1.47,0.33c-0.31,0.27-0.57,0.81-0.79,1.62l-0.23,0.85L1140.63,222.75z"/>
	<path d="M1131.96,210.32l13.02,3.49l-0.56,2.11l-13.02-3.49L1131.96,210.32z"/>
	<path d="M1139.54,204.01l0.56-2.11l7.53,2.02l-0.56,2.11l-0.98-0.26c0.63,0.87,0.82,1.81,0.54,2.84s-0.89,1.79-1.84,2.29
		s-2,0.6-3.13,0.3s-1.99-0.92-2.58-1.83c-0.58-0.91-0.74-1.87-0.47-2.87c0.27-1,0.9-1.74,1.9-2.22L1139.54,204.01z M1140.69,206.33
		c-0.16,0.59-0.09,1.15,0.21,1.67c0.3,0.53,0.74,0.86,1.33,1.02c0.58,0.16,1.14,0.09,1.66-0.22c0.53-0.3,0.86-0.74,1.02-1.32
		c0.15-0.58,0.08-1.13-0.22-1.66c-0.3-0.53-0.73-0.86-1.32-1.02c-0.59-0.16-1.13-0.09-1.66,0.2
		C1141.18,205.3,1140.85,205.74,1140.69,206.33z"/>
	<path d="M1136.47,197.66c0.09-0.35,0.29-0.61,0.6-0.79c0.31-0.18,0.64-0.22,0.99-0.13c0.35,0.09,0.62,0.3,0.8,0.62
		c0.19,0.31,0.23,0.65,0.14,1s-0.3,0.61-0.61,0.79c-0.31,0.18-0.65,0.23-1,0.13c-0.35-0.09-0.62-0.3-0.8-0.62
		C1136.41,198.35,1136.38,198.01,1136.47,197.66z M1141.19,197.83l7.53,2.02l-0.56,2.1l-7.53-2.02L1141.19,197.83z"/>
	<path d="M1149.82,195.75l-0.56,2.11l-7.53-2.02l0.56-2.11l1.15,0.31c-0.79-0.77-1.06-1.62-0.8-2.56c0.08-0.3,0.22-0.59,0.43-0.87
		l1.88,0.82c-0.26,0.27-0.44,0.58-0.52,0.93c-0.32,1.21,0.27,2.01,1.77,2.41L1149.82,195.75z"/>
</g>
<circle fill="#FFFFFF" stroke="#000000" stroke-width="3" stroke-miterlimit="10" cx="1190" cy="241" r="10"/>
<g>
	<path d="M1196.68,226.12l-11.23-5.32l0.41-1.55l8.43-1.13l-6.7-5.32l0.42-1.56l12.33,1.23l-0.61,2.28l-7.43-0.87l6.45,5.13
		l-0.17,0.63l-8.13,1.12l6.84,3.08L1196.68,226.12z"/>
	<path d="M1194.09,204.73c0.34-1.26,0.99-2.19,1.94-2.78s2.03-0.73,3.21-0.41s2.05,0.98,2.57,1.97c0.52,1,0.62,2.14,0.27,3.42
		s-1,2.21-1.97,2.79c-0.97,0.59-2.03,0.72-3.21,0.4s-2.03-0.98-2.55-1.99S1193.75,205.99,1194.09,204.73z M1195.98,205.26
		c-0.16,0.59-0.09,1.14,0.21,1.67s0.74,0.87,1.33,1.03c0.58,0.16,1.14,0.09,1.66-0.22c0.53-0.3,0.87-0.75,1.02-1.34
		s0.09-1.15-0.21-1.68c-0.3-0.52-0.73-0.86-1.32-1.02c-0.59-0.16-1.13-0.08-1.66,0.22C1196.47,204.23,1196.13,204.67,1195.98,205.26
		z"/>
	<path d="M1195.91,198.9l0.56-2.11l0.94,0.25c-0.68-0.88-0.82-1.66-0.55-2.68c0.25-0.93,0.74-1.58,1.49-1.95
		c0.56-0.28,1.31-0.29,2.25-0.03l4.78,1.28l-0.56,2.11l-4.18-1.12c-0.58-0.16-1-0.2-1.27-0.11c-0.46,0.11-0.76,0.47-0.92,1.07
		c-0.28,1.06,0.27,1.78,1.66,2.16l3.9,1.04l-0.56,2.11L1195.91,198.9z"/>
	<path d="M1200.78,188l5.71,1.53l-0.56,2.11l-5.71-1.53l-0.22,0.83l-1.82-0.49l0.22-0.83l-2.57-0.69l0.56-2.11l2.57,0.69l0.4-1.49
		l1.82,0.49L1200.78,188z"/>
	<path d="M1207.77,184.73l-0.56,2.11l-7.53-2.02l0.56-2.11l1.15,0.31c-0.79-0.77-1.06-1.62-0.8-2.56c0.08-0.3,0.22-0.59,0.43-0.87
		l1.88,0.82c-0.26,0.27-0.44,0.58-0.52,0.93c-0.32,1.21,0.27,2.01,1.77,2.41L1207.77,184.73z"/>
	<path d="M1199.27,171.68l1.65,3.24l-0.97,0.82l-2.08-2.78L1199.27,171.68z M1207.44,172.31l-1.51,5.65c1.37,0.3,2.2-0.13,2.51-1.3
		c0.2-0.73,0.01-1.42-0.53-2.06l0.83-1.86c1.39,1.07,1.84,2.5,1.37,4.31c-0.33,1.23-0.96,2.11-1.88,2.65
		c-0.93,0.54-1.99,0.65-3.21,0.32c-1.21-0.33-2.09-0.94-2.62-1.86c-0.54-0.92-0.65-1.97-0.33-3.16c0.32-1.2,0.94-2.04,1.84-2.54
		c0.91-0.49,1.99-0.57,3.25-0.23L1207.44,172.31z M1204.6,177.53l0.96-3.57c-1.05-0.04-1.72,0.43-1.97,1.39
		C1203.33,176.28,1203.7,177.09,1204.6,177.53z"/>
	<path d="M1205.3,163.84l0.56-2.11l7.53,2.02l-0.56,2.11l-0.98-0.26c0.63,0.87,0.82,1.81,0.54,2.84c-0.28,1.03-0.89,1.79-1.84,2.29
		s-2,0.6-3.13,0.3c-1.13-0.3-1.99-0.92-2.58-1.83c-0.58-0.91-0.74-1.87-0.47-2.87c0.27-1,0.9-1.74,1.9-2.22L1205.3,163.84z
		 M1206.45,166.16c-0.16,0.59-0.09,1.15,0.21,1.67c0.3,0.53,0.74,0.86,1.33,1.02s1.14,0.09,1.66-0.22c0.53-0.3,0.86-0.74,1.02-1.32
		c0.15-0.58,0.08-1.13-0.22-1.66c-0.3-0.53-0.73-0.86-1.32-1.02s-1.13-0.08-1.66,0.2C1206.95,165.12,1206.61,165.57,1206.45,166.16z
		"/>
	<path d="M1201.48,156.14l13.02,3.49l-0.56,2.11l-13.02-3.49L1201.48,156.14z"/>
</g>
<circle fill="#FFFFFF" stroke="#000000" stroke-width="3" stroke-miterlimit="10" cx="1245" cy="241" r="10"/>
<g>
	<path d="M1241.48,217.82l7.83,2.1c1.52,0.41,2.51,1.04,2.98,1.9c0.38,0.73,0.43,1.57,0.18,2.51c-0.25,0.94-0.85,1.71-1.79,2.29
		l-1.29-1.79c0.52-0.18,0.85-0.51,0.98-0.99c0.13-0.48-0.01-0.87-0.44-1.15c-0.25-0.18-0.78-0.37-1.59-0.6l-7.46-2L1241.48,217.82z"
		/>
	<path d="M1252.26,210.26l-1.51,5.65c1.37,0.3,2.2-0.13,2.51-1.3c0.2-0.73,0.02-1.42-0.53-2.06l0.83-1.86
		c1.39,1.07,1.84,2.5,1.36,4.31c-0.33,1.23-0.96,2.11-1.88,2.65c-0.93,0.54-1.99,0.65-3.21,0.32s-2.09-0.94-2.62-1.86
		s-0.65-1.97-0.33-3.16c0.32-1.2,0.94-2.04,1.84-2.54c0.91-0.49,1.99-0.57,3.25-0.23L1252.26,210.26z M1249.43,215.48l0.96-3.57
		c-1.05-0.04-1.72,0.43-1.97,1.39C1248.16,214.23,1248.53,215.05,1249.43,215.48z"/>
	<path d="M1250.13,201.79l0.56-2.11l7.53,2.02l-0.56,2.11l-0.98-0.26c0.63,0.87,0.82,1.81,0.54,2.84c-0.28,1.03-0.89,1.79-1.84,2.29
		s-2,0.6-3.13,0.3c-1.13-0.3-1.99-0.92-2.58-1.83c-0.58-0.91-0.74-1.87-0.47-2.87s0.9-1.74,1.9-2.22L1250.13,201.79z
		 M1251.28,204.11c-0.16,0.59-0.09,1.15,0.21,1.67c0.3,0.53,0.74,0.86,1.33,1.02c0.58,0.16,1.14,0.09,1.66-0.22
		c0.53-0.3,0.86-0.74,1.02-1.32s0.08-1.13-0.22-1.66c-0.3-0.53-0.73-0.86-1.32-1.02s-1.13-0.08-1.66,0.2
		C1251.78,203.08,1251.44,203.53,1251.28,204.11z"/>
	<path d="M1251.23,197.68l0.56-2.11l0.94,0.25c-0.68-0.88-0.82-1.66-0.55-2.68c0.25-0.92,0.74-1.58,1.49-1.95
		c0.56-0.28,1.31-0.29,2.25-0.03l4.78,1.28l-0.56,2.11l-4.18-1.12c-0.58-0.15-1-0.2-1.27-0.11c-0.46,0.11-0.76,0.47-0.92,1.07
		c-0.28,1.06,0.27,1.78,1.66,2.16l3.9,1.04l-0.56,2.11L1251.23,197.68z"/>
	<path d="M1253.71,188.41l0.56-2.11l0.94,0.25c-0.68-0.88-0.82-1.66-0.55-2.68c0.25-0.93,0.74-1.58,1.49-1.95
		c0.56-0.28,1.31-0.29,2.25-0.04l4.78,1.28l-0.56,2.11l-4.18-1.12c-0.58-0.16-1-0.2-1.27-0.11c-0.46,0.11-0.76,0.47-0.92,1.07
		c-0.28,1.06,0.27,1.78,1.66,2.16l3.9,1.04l-0.56,2.11L1253.71,188.41z"/>
	<path d="M1262.29,172.85l-1.51,5.65c1.37,0.3,2.2-0.13,2.51-1.3c0.2-0.73,0.01-1.42-0.53-2.06l0.83-1.86
		c1.39,1.07,1.84,2.5,1.36,4.31c-0.33,1.23-0.96,2.11-1.88,2.65c-0.93,0.54-1.99,0.65-3.21,0.32c-1.21-0.33-2.09-0.94-2.62-1.86
		c-0.54-0.92-0.65-1.97-0.33-3.16c0.32-1.2,0.94-2.04,1.84-2.54c0.91-0.49,1.99-0.57,3.25-0.23L1262.29,172.85z M1259.45,178.07
		l0.96-3.57c-1.05-0.04-1.72,0.43-1.97,1.39C1258.19,176.82,1258.55,177.63,1259.45,178.07z"/>
	<path d="M1255.83,158.56l0.56-2.11l13.02,3.49l-0.56,2.11l-0.98-0.26c0.63,0.87,0.82,1.81,0.54,2.84
		c-0.27,1.03-0.89,1.79-1.84,2.29c-0.95,0.5-2,0.6-3.13,0.3c-1.13-0.3-1.99-0.92-2.58-1.83c-0.58-0.91-0.74-1.87-0.47-2.87
		s0.9-1.74,1.9-2.22L1255.83,158.56z M1262.47,162.35c-0.16,0.59-0.09,1.15,0.21,1.67c0.3,0.53,0.74,0.86,1.33,1.02
		c0.58,0.16,1.14,0.09,1.66-0.22c0.53-0.3,0.86-0.74,1.02-1.32c0.15-0.58,0.08-1.13-0.22-1.66c-0.3-0.52-0.73-0.86-1.32-1.02
		c-0.59-0.16-1.13-0.08-1.66,0.2C1262.97,161.32,1262.63,161.77,1262.47,162.35z"/>
	<path d="M1258.46,153.52l0.75-1.88l3.97,3.69l-0.54,1.29L1258.46,153.52z"/>
	<path d="M1270.49,146.1l-1.27,4.75l2.17,1.7l-0.64,2.4l-10.5-8.2l0.46-1.71l13.15-1.69l-0.65,2.42L1270.49,146.1z M1268.48,146.33
		l-4.6,0.5l3.72,2.8L1268.48,146.33z"/>
	<path d="M1274.7,140.21l-0.56,2.11l-7.53-2.02l0.56-2.11l1.15,0.31c-0.79-0.77-1.06-1.62-0.8-2.56c0.08-0.3,0.22-0.59,0.43-0.87
		l1.88,0.82c-0.26,0.27-0.44,0.57-0.52,0.93c-0.32,1.21,0.27,2.01,1.77,2.41L1274.7,140.21z"/>
	<path d="M1272.07,129.13c-0.58,0.44-0.95,0.96-1.11,1.56c-0.16,0.6-0.1,1.16,0.19,1.68c0.29,0.52,0.73,0.86,1.35,1.03
		c0.61,0.16,1.17,0.09,1.68-0.21c0.51-0.31,0.85-0.76,1.01-1.38s0.11-1.23-0.16-1.88l2.05,0.55c0.15,0.7,0.13,1.38-0.04,2.05
		c-0.31,1.17-0.96,2.05-1.93,2.63c-0.97,0.59-2.02,0.72-3.15,0.42s-1.98-0.96-2.55-1.96c-0.56-1-0.69-2.09-0.37-3.26
		c0.18-0.69,0.51-1.28,0.96-1.79L1272.07,129.13z"/>
</g>
<circle fill="#FFFFFF" stroke="#000000" stroke-width="3" stroke-miterlimit="10" cx="1300" cy="241" r="10"/>
<g>
	<path d="M1300.61,214.86c-1.11,0.65-1.8,1.49-2.08,2.53c-0.28,1.04-0.12,2.02,0.45,2.96c0.58,0.95,1.44,1.57,2.57,1.87
		s2.17,0.19,3.12-0.35c0.95-0.53,1.57-1.34,1.86-2.44c0.15-0.54,0.18-1.05,0.1-1.53s-0.29-1-0.62-1.59l2.66,0.71
		c0.19,1.1,0.17,2.1-0.08,3.02c-0.46,1.72-1.43,3.01-2.91,3.88c-1.48,0.87-3.06,1.08-4.75,0.63s-2.96-1.43-3.84-2.95
		c-0.88-1.52-1.08-3.12-0.63-4.81c0.25-0.94,0.74-1.82,1.47-2.64L1300.61,214.86z"/>
	<path d="M1302.84,209.39c0.34-1.27,0.99-2.19,1.94-2.78c0.95-0.59,2.02-0.73,3.21-0.41s2.05,0.98,2.57,1.97
		c0.52,1,0.62,2.14,0.27,3.42c-0.34,1.28-1,2.21-1.97,2.79c-0.97,0.59-2.03,0.72-3.21,0.4s-2.03-0.98-2.55-1.99
		S1302.5,210.65,1302.84,209.39z M1304.73,209.92c-0.16,0.58-0.09,1.14,0.21,1.67c0.3,0.53,0.74,0.87,1.33,1.03s1.14,0.09,1.66-0.22
		c0.53-0.3,0.87-0.75,1.02-1.34s0.09-1.15-0.21-1.68c-0.3-0.53-0.73-0.86-1.32-1.02s-1.13-0.09-1.66,0.22
		S1304.88,209.34,1304.73,209.92z"/>
	<path d="M1304.66,203.56l0.56-2.11l0.94,0.25c-0.68-0.88-0.82-1.66-0.55-2.68c0.25-0.93,0.74-1.58,1.49-1.95
		c0.56-0.28,1.31-0.29,2.25-0.04l4.78,1.28l-0.56,2.11l-4.18-1.12c-0.58-0.16-1-0.2-1.27-0.11c-0.46,0.11-0.76,0.47-0.92,1.07
		c-0.28,1.06,0.27,1.78,1.66,2.16l3.9,1.04l-0.56,2.11L1304.66,203.56z"/>
	<path d="M1307.43,193.22l4.79-0.84l-3.74-3.1l0.63-2.37l6.64,5.94l-0.25,0.95l-8.71,1.79L1307.43,193.22z"/>
	<path d="M1315.39,179.95l-1.51,5.65c1.37,0.3,2.2-0.13,2.51-1.3c0.2-0.73,0.02-1.42-0.53-2.06l0.83-1.86
		c1.39,1.07,1.84,2.5,1.36,4.31c-0.33,1.23-0.96,2.11-1.88,2.65c-0.93,0.54-1.99,0.65-3.21,0.32s-2.09-0.94-2.62-1.86
		c-0.54-0.92-0.65-1.97-0.33-3.16c0.32-1.2,0.94-2.04,1.84-2.54c0.91-0.49,1.99-0.57,3.26-0.23L1315.39,179.95z M1312.55,185.17
		l0.96-3.57c-1.05-0.04-1.72,0.43-1.97,1.39C1311.29,183.92,1311.65,184.73,1312.55,185.17z"/>
	<path d="M1311.71,177.25l0.56-2.11l0.94,0.25c-0.68-0.88-0.82-1.66-0.55-2.68c0.25-0.92,0.74-1.58,1.49-1.95
		c0.56-0.28,1.31-0.29,2.25-0.03l4.78,1.28l-0.56,2.11l-4.18-1.12c-0.58-0.16-1-0.2-1.27-0.11c-0.46,0.11-0.76,0.47-0.92,1.07
		c-0.28,1.06,0.27,1.78,1.66,2.16l3.9,1.04l-0.56,2.11L1311.71,177.25z"/>
	<path d="M1316.58,166.36l5.71,1.53l-0.56,2.11l-5.71-1.53l-0.22,0.83l-1.83-0.49l0.22-0.83l-2.57-0.69l0.56-2.11l2.57,0.69
		l0.4-1.49l1.83,0.49L1316.58,166.36z"/>
	<path d="M1319.59,153.14l1.42-5.3c1.53,0.42,2.62,0.93,3.28,1.52c1.69,1.47,2.3,3.55,1.68,5.86c-0.47,1.76-1.43,3.06-2.87,3.91
		s-3.03,1.03-4.79,0.56c-1.76-0.47-3.05-1.44-3.9-2.91c-0.84-1.47-1.03-3.1-0.55-4.88c0.59-2.2,1.94-3.62,4.07-4.24l0.53,2.27
		c-1.33,0.39-2.18,1.24-2.53,2.54c-0.29,1.09-0.15,2.11,0.42,3.03c0.57,0.93,1.43,1.55,2.59,1.86s2.2,0.21,3.14-0.31
		c0.94-0.52,1.55-1.32,1.85-2.42c0.22-0.82,0.18-1.57-0.11-2.26c-0.3-0.68-0.81-1.16-1.53-1.44l-0.73,2.72L1319.59,153.14z"/>
	<path d="M1315.23,142.13l13.02,3.49l-0.56,2.11l-13.02-3.49L1315.23,142.13z"/>
	<path d="M1327.35,135.29l-1.51,5.65c1.37,0.3,2.2-0.13,2.51-1.3c0.2-0.73,0.02-1.42-0.53-2.06l0.83-1.86
		c1.39,1.07,1.84,2.5,1.36,4.31c-0.33,1.23-0.96,2.11-1.88,2.65c-0.93,0.54-1.99,0.65-3.21,0.32c-1.21-0.33-2.09-0.94-2.62-1.86
		c-0.54-0.92-0.65-1.97-0.33-3.16c0.32-1.2,0.94-2.04,1.84-2.54c0.91-0.49,1.99-0.57,3.25-0.23L1327.35,135.29z M1324.52,140.51
		l0.96-3.57c-1.05-0.04-1.72,0.43-1.97,1.39C1323.25,139.26,1323.61,140.08,1324.52,140.51z"/>
	<path d="M1323.67,132.6l0.56-2.11l0.94,0.25c-0.68-0.88-0.82-1.66-0.55-2.68c0.25-0.93,0.74-1.58,1.49-1.95
		c0.56-0.28,1.31-0.29,2.25-0.03l4.78,1.28l-0.56,2.11l-4.18-1.12c-0.58-0.15-1-0.2-1.27-0.11c-0.46,0.11-0.76,0.47-0.92,1.07
		c-0.28,1.06,0.27,1.78,1.66,2.16l3.9,1.04l-0.56,2.11L1323.67,132.6z"/>
</g>
<circle fill="#FFFFFF" stroke="#000000" stroke-width="3" stroke-miterlimit="10" cx="1355" cy="241" r="10"/>
<g>
	<path d="M1358.16,222.08l4.3,1.15l-0.61,2.26l-11.6-3.11l0.91-3.39c0.2-0.76,0.43-1.34,0.68-1.76c0.26-0.42,0.6-0.78,1.02-1.06
		c0.92-0.6,1.94-0.75,3.03-0.45c1.1,0.29,1.9,0.85,2.42,1.68c0.52,0.82,0.59,1.9,0.24,3.23L1358.16,222.08z M1356.2,221.56
		l0.25-0.92c0.38-1.42,0.01-2.27-1.1-2.57c-1.18-0.32-1.88,0.22-2.31,1.8l-0.21,0.78L1356.2,221.56z"/>
	<path d="M1351.79,210.93l13.02,3.49l-0.56,2.11l-13.02-3.49L1351.79,210.93z"/>
	<path d="M1359.37,204.62l0.56-2.11l7.53,2.02l-0.56,2.11l-0.98-0.26c0.63,0.87,0.82,1.81,0.54,2.84s-0.89,1.79-1.84,2.29
		c-0.95,0.5-2,0.6-3.13,0.3s-1.99-0.92-2.58-1.83c-0.58-0.91-0.74-1.87-0.47-2.87c0.27-1,0.9-1.74,1.9-2.22L1359.37,204.62z
		 M1360.53,206.94c-0.16,0.59-0.09,1.15,0.21,1.67c0.3,0.53,0.74,0.86,1.33,1.02s1.14,0.09,1.66-0.22c0.53-0.3,0.86-0.74,1.02-1.32
		c0.16-0.58,0.09-1.13-0.22-1.66c-0.3-0.53-0.73-0.86-1.32-1.02c-0.59-0.16-1.13-0.09-1.66,0.2
		C1361.02,205.91,1360.68,206.35,1360.53,206.94z"/>
	<path d="M1364.29,195.47c-0.58,0.44-0.95,0.96-1.11,1.56c-0.16,0.6-0.1,1.16,0.19,1.68c0.29,0.52,0.73,0.86,1.35,1.02
		c0.61,0.16,1.17,0.09,1.68-0.21c0.51-0.31,0.85-0.76,1.01-1.38s0.11-1.23-0.16-1.88l2.05,0.55c0.15,0.7,0.13,1.38-0.04,2.05
		c-0.31,1.17-0.96,2.05-1.93,2.63c-0.97,0.59-2.02,0.72-3.15,0.42s-1.98-0.96-2.55-1.96c-0.56-1-0.69-2.09-0.37-3.26
		c0.18-0.69,0.51-1.28,0.96-1.79L1364.29,195.47z"/>
	<path d="M1368.51,186.95l-1.51,5.65c1.37,0.3,2.2-0.13,2.51-1.3c0.2-0.73,0.02-1.42-0.53-2.06l0.83-1.86
		c1.39,1.07,1.84,2.5,1.37,4.31c-0.33,1.23-0.96,2.11-1.88,2.65c-0.93,0.54-1.99,0.65-3.21,0.32s-2.09-0.94-2.62-1.86
		c-0.54-0.92-0.65-1.97-0.33-3.16c0.32-1.2,0.94-2.04,1.84-2.54c0.91-0.49,1.99-0.57,3.25-0.23L1368.51,186.95z M1365.68,192.17
		l0.96-3.57c-1.05-0.04-1.72,0.43-1.97,1.39C1364.41,190.92,1364.77,191.74,1365.68,192.17z"/>
	<path d="M1362.05,172.66l0.56-2.11l13.02,3.49l-0.56,2.11l-0.98-0.26c0.63,0.87,0.82,1.81,0.54,2.84
		c-0.28,1.03-0.89,1.79-1.84,2.29c-0.95,0.5-2,0.6-3.13,0.3s-1.99-0.92-2.58-1.83c-0.58-0.91-0.74-1.87-0.47-2.87s0.9-1.74,1.9-2.22
		L1362.05,172.66z M1368.69,176.45c-0.16,0.59-0.09,1.15,0.21,1.67c0.3,0.53,0.74,0.86,1.33,1.02c0.58,0.16,1.14,0.09,1.66-0.22
		c0.53-0.3,0.86-0.74,1.02-1.32c0.16-0.58,0.08-1.13-0.22-1.66c-0.3-0.53-0.73-0.86-1.32-1.02s-1.13-0.09-1.66,0.2
		C1369.19,175.42,1368.85,175.87,1368.69,176.45z"/>
	<path d="M1364.68,167.62l0.75-1.87l3.97,3.69l-0.54,1.29L1364.68,167.62z"/>
	<path d="M1367.27,157.84c0.46-1.72,1.44-3.02,2.93-3.9c1.49-0.88,3.09-1.09,4.8-0.63s2.98,1.44,3.82,2.96
		c0.84,1.52,1.02,3.15,0.55,4.9c-0.47,1.75-1.45,3.05-2.94,3.92s-3.09,1.06-4.79,0.61c-1.7-0.46-2.97-1.45-3.81-2.98
		S1366.81,159.56,1367.27,157.84z M1369.33,158.42c-0.28,1.06-0.14,2.08,0.43,3.04c0.57,0.97,1.41,1.61,2.51,1.9
		s2.15,0.17,3.13-0.38s1.62-1.35,1.9-2.42c0.29-1.07,0.14-2.09-0.44-3.06c-0.58-0.96-1.42-1.59-2.52-1.89
		c-1.1-0.3-2.15-0.17-3.12,0.37C1370.25,156.54,1369.62,157.36,1369.33,158.42z"/>
	<path d="M1381.81,150.99l-0.56,2.11l-7.53-2.02l0.56-2.11l1.15,0.31c-0.79-0.77-1.06-1.62-0.8-2.56c0.08-0.3,0.22-0.59,0.43-0.87
		l1.88,0.82c-0.26,0.27-0.44,0.58-0.52,0.93c-0.32,1.21,0.27,2.01,1.77,2.41L1381.81,150.99z"/>
	<path d="M1370.49,141.17l13.02,3.49l-0.56,2.11l-13.02-3.49L1370.49,141.17z"/>
	<path d="M1374.44,133.71l1.65,3.24l-0.97,0.82l-2.08-2.78L1374.44,133.71z M1382.61,134.33l-1.51,5.65c1.37,0.3,2.2-0.13,2.51-1.3
		c0.2-0.73,0.02-1.42-0.53-2.06l0.83-1.86c1.39,1.07,1.84,2.5,1.36,4.31c-0.33,1.23-0.96,2.11-1.88,2.65
		c-0.93,0.54-1.99,0.65-3.21,0.32c-1.21-0.33-2.09-0.94-2.62-1.86c-0.54-0.92-0.65-1.97-0.33-3.16c0.32-1.2,0.94-2.04,1.84-2.54
		c0.91-0.49,1.99-0.57,3.25-0.23L1382.61,134.33z M1379.77,139.55l0.96-3.57c-1.05-0.04-1.72,0.43-1.97,1.39
		C1378.51,138.3,1378.87,139.12,1379.77,139.55z"/>
	<path d="M1380.48,125.86l0.56-2.11l7.53,2.02l-0.56,2.11l-0.98-0.26c0.63,0.87,0.82,1.81,0.54,2.84s-0.89,1.79-1.84,2.29
		s-2,0.6-3.13,0.3c-1.13-0.3-1.99-0.92-2.58-1.83c-0.58-0.91-0.74-1.87-0.47-2.87s0.9-1.74,1.9-2.22L1380.48,125.86z
		 M1381.63,128.18c-0.16,0.59-0.09,1.15,0.21,1.67c0.3,0.53,0.74,0.86,1.33,1.02c0.58,0.16,1.14,0.09,1.66-0.22
		c0.53-0.3,0.86-0.74,1.02-1.32c0.15-0.58,0.08-1.13-0.22-1.66c-0.3-0.53-0.73-0.86-1.32-1.02s-1.13-0.08-1.66,0.2
		C1382.12,127.15,1381.79,127.6,1381.63,128.18z"/>
	<path d="M1381.58,121.75l0.56-2.11l0.94,0.25c-0.68-0.88-0.82-1.66-0.55-2.68c0.25-0.93,0.74-1.58,1.49-1.95
		c0.56-0.28,1.31-0.29,2.25-0.03l4.78,1.28l-0.56,2.11l-4.18-1.12c-0.58-0.16-1-0.2-1.27-0.11c-0.46,0.11-0.76,0.47-0.92,1.07
		c-0.28,1.06,0.27,1.78,1.66,2.16l3.9,1.04l-0.56,2.11L1381.58,121.75z"/>
	<path d="M1386.92,108.84c-0.45,0.35-0.72,0.68-0.8,1s-0.09,0.56-0.01,0.75c0.08,0.2,0.22,0.31,0.39,0.36
		c0.18,0.05,0.34,0.01,0.5-0.12s0.41-0.46,0.77-1c0.36-0.53,0.68-0.92,0.97-1.14c0.53-0.45,1.17-0.58,1.93-0.38
		c0.76,0.2,1.31,0.67,1.66,1.39c0.35,0.73,0.4,1.56,0.15,2.49c-0.3,1.14-0.98,1.98-2.02,2.52l-0.99-1.45
		c0.74-0.43,1.2-0.94,1.36-1.55c0.14-0.53-0.12-1.06-0.57-1.18c-0.23-0.06-0.42-0.04-0.57,0.07c-0.15,0.12-0.42,0.44-0.8,1
		c-0.38,0.55-0.69,0.92-0.93,1.11c-0.48,0.41-1.07,0.52-1.77,0.33c-0.71-0.19-1.21-0.6-1.52-1.23c-0.32-0.62-0.35-1.36-0.13-2.21
		c0.23-0.85,0.71-1.56,1.44-2.14L1386.92,108.84z"/>
</g>
<circle fill="#FFFFFF" stroke="#000000" stroke-width="3" stroke-miterlimit="10" cx="1410" cy="241" r="10"/>
<g>
	<path d="M1417.82,221.86l-0.61,2.27l-9.64-2.58l-0.69,2.59l-1.96-0.53l2-7.46l1.96,0.53l-0.7,2.61L1417.82,221.86z"/>
	<path d="M1419.25,216.54l-0.56,2.11l-7.53-2.02l0.56-2.11l1.15,0.31c-0.79-0.77-1.06-1.62-0.8-2.56c0.08-0.3,0.22-0.59,0.43-0.87
		l1.88,0.82c-0.26,0.27-0.44,0.58-0.52,0.93c-0.32,1.21,0.27,2.01,1.77,2.41L1419.25,216.54z"/>
	<path d="M1408.68,208.06c0.09-0.35,0.29-0.61,0.6-0.79c0.31-0.18,0.64-0.22,0.99-0.13c0.35,0.09,0.62,0.3,0.8,0.61
		c0.19,0.31,0.23,0.65,0.14,1c-0.09,0.35-0.3,0.61-0.61,0.79c-0.31,0.18-0.65,0.23-1,0.13c-0.35-0.09-0.62-0.3-0.8-0.62
		C1408.63,208.74,1408.59,208.4,1408.68,208.06z M1413.41,208.22l7.53,2.02l-0.56,2.1l-7.53-2.02L1413.41,208.22z"/>
	<path d="M1419.46,200.3l3.86,1.03l-0.56,2.11l-4-1.07c-0.59-0.16-1.01-0.23-1.27-0.19c-0.25,0.03-0.48,0.13-0.67,0.31
		c-0.19,0.17-0.32,0.39-0.39,0.62c-0.13,0.48,0.02,1.04,0.42,1.44c0.2,0.2,0.64,0.39,1.31,0.56l3.86,1.04l-0.56,2.11l-7.53-2.02
		l0.56-2.11l0.87,0.23c-0.56-0.85-0.72-1.75-0.47-2.7c0.25-0.95,0.91-1.58,1.96-1.87c-0.76-0.84-1-1.76-0.73-2.77
		c0.27-1.01,0.83-1.63,1.67-1.88c0.5-0.15,1.14-0.12,1.93,0.09l4.86,1.3l-0.56,2.11l-4.12-1.1c-0.54-0.15-0.96-0.19-1.25-0.15
		c-0.49,0.08-0.81,0.37-0.95,0.88C1417.47,199.25,1418.04,199.92,1419.46,200.3z"/>
</g>
<g>
	<path fill="#9B9B9B" d="M691.86,269.58v-7.16h3.17c0.64,0,1.12,0.06,1.46,0.19c0.33,0.13,0.6,0.36,0.8,0.68s0.3,0.69,0.3,1.08
		c0,0.51-0.16,0.94-0.49,1.28s-0.84,0.57-1.52,0.66c0.25,0.12,0.44,0.24,0.57,0.36c0.28,0.25,0.54,0.57,0.79,0.95l1.25,1.95h-1.19
		l-0.95-1.49c-0.28-0.43-0.5-0.76-0.68-0.99s-0.34-0.39-0.48-0.48s-0.29-0.15-0.43-0.19c-0.11-0.02-0.28-0.03-0.53-0.03h-1.1v3.18
		H691.86z M692.81,265.58h2.04c0.43,0,0.77-0.04,1.02-0.13c0.24-0.09,0.43-0.23,0.56-0.43c0.13-0.2,0.19-0.41,0.19-0.64
		c0-0.34-0.12-0.62-0.37-0.83s-0.63-0.33-1.16-0.33h-2.27V265.58z"/>
	<path fill="#9B9B9B" d="M702.34,268.94c-0.33,0.28-0.64,0.47-0.94,0.59s-0.62,0.17-0.97,0.17c-0.57,0-1.01-0.14-1.31-0.42
		c-0.31-0.28-0.46-0.63-0.46-1.07c0-0.25,0.06-0.49,0.17-0.7c0.12-0.21,0.27-0.38,0.45-0.51s0.4-0.22,0.63-0.29
		c0.17-0.05,0.43-0.09,0.78-0.13c0.71-0.08,1.23-0.19,1.57-0.3c0-0.12,0-0.2,0-0.23c0-0.36-0.08-0.61-0.25-0.76
		c-0.22-0.2-0.56-0.3-1-0.3c-0.41,0-0.72,0.07-0.92,0.22c-0.2,0.14-0.34,0.4-0.44,0.77l-0.86-0.12c0.08-0.37,0.21-0.67,0.39-0.89
		c0.18-0.23,0.44-0.4,0.78-0.52c0.34-0.12,0.73-0.18,1.18-0.18c0.44,0,0.8,0.05,1.08,0.16s0.48,0.24,0.61,0.39
		c0.13,0.16,0.22,0.36,0.27,0.6c0.03,0.15,0.04,0.42,0.04,0.81v1.17c0,0.82,0.02,1.33,0.06,1.55c0.04,0.22,0.11,0.42,0.22,0.62
		h-0.92C702.43,269.4,702.37,269.19,702.34,268.94z M702.27,266.98c-0.32,0.13-0.8,0.24-1.44,0.33c-0.36,0.05-0.62,0.11-0.77,0.18
		s-0.27,0.16-0.35,0.29c-0.08,0.12-0.12,0.26-0.12,0.42c0,0.23,0.09,0.43,0.27,0.59s0.44,0.23,0.78,0.23c0.34,0,0.64-0.07,0.9-0.22
		c0.26-0.15,0.46-0.35,0.58-0.61c0.09-0.2,0.14-0.49,0.14-0.88V266.98z"/>
	<path fill="#9B9B9B" d="M704.52,263.43v-1.01h0.88v1.01H704.52z M704.52,269.58v-5.19h0.88v5.19H704.52z"/>
	<path fill="#9B9B9B" d="M706.72,269.58v-7.16h0.88v7.16H706.72z"/>
	<path fill="#9B9B9B" d="M711.9,269.58v-7.16h4.83v0.84h-3.88v2.22h3.36v0.84h-3.36v3.25H711.9z"/>
	<path fill="#9B9B9B" d="M721.23,268.94c-0.33,0.28-0.64,0.47-0.94,0.59s-0.62,0.17-0.97,0.17c-0.57,0-1.01-0.14-1.31-0.42
		c-0.31-0.28-0.46-0.63-0.46-1.07c0-0.25,0.06-0.49,0.17-0.7c0.12-0.21,0.27-0.38,0.45-0.51s0.4-0.22,0.63-0.29
		c0.17-0.05,0.43-0.09,0.78-0.13c0.71-0.08,1.23-0.19,1.57-0.3c0-0.12,0-0.2,0-0.23c0-0.36-0.08-0.61-0.25-0.76
		c-0.22-0.2-0.56-0.3-1-0.3c-0.41,0-0.72,0.07-0.92,0.22c-0.2,0.14-0.34,0.4-0.44,0.77l-0.86-0.12c0.08-0.37,0.21-0.67,0.39-0.89
		c0.18-0.23,0.44-0.4,0.78-0.52c0.34-0.12,0.73-0.18,1.18-0.18c0.44,0,0.8,0.05,1.08,0.16s0.48,0.24,0.61,0.39
		c0.13,0.16,0.22,0.36,0.27,0.6c0.03,0.15,0.04,0.42,0.04,0.81v1.17c0,0.82,0.02,1.33,0.06,1.55c0.04,0.22,0.11,0.42,0.22,0.62
		h-0.92C721.32,269.4,721.26,269.19,721.23,268.94z M721.16,266.98c-0.32,0.13-0.8,0.24-1.44,0.33c-0.36,0.05-0.62,0.11-0.77,0.18
		s-0.27,0.16-0.35,0.29c-0.08,0.12-0.12,0.26-0.12,0.42c0,0.23,0.09,0.43,0.27,0.59s0.44,0.23,0.78,0.23c0.34,0,0.64-0.07,0.9-0.22
		c0.26-0.15,0.46-0.35,0.58-0.61c0.09-0.2,0.14-0.49,0.14-0.88V266.98z"/>
	<path fill="#9B9B9B" d="M723.41,269.58v-5.19h0.79v0.74c0.38-0.57,0.93-0.85,1.65-0.85c0.31,0,0.6,0.06,0.86,0.17
		c0.26,0.11,0.46,0.26,0.59,0.44s0.22,0.4,0.27,0.65c0.03,0.16,0.05,0.45,0.05,0.85v3.19h-0.88v-3.15c0-0.36-0.03-0.63-0.1-0.8
		c-0.07-0.18-0.19-0.32-0.36-0.43c-0.17-0.11-0.38-0.16-0.61-0.16c-0.37,0-0.7,0.12-0.97,0.36s-0.41,0.69-0.41,1.35v2.83H723.41z"/>
	<path fill="#9B9B9B" d="M728.62,268.03l0.87-0.14c0.05,0.35,0.18,0.62,0.41,0.8s0.53,0.28,0.94,0.28c0.4,0,0.7-0.08,0.9-0.25
		c0.2-0.17,0.29-0.36,0.29-0.58c0-0.2-0.09-0.35-0.26-0.47c-0.12-0.08-0.42-0.18-0.9-0.3c-0.64-0.16-1.09-0.3-1.34-0.42
		c-0.25-0.12-0.44-0.28-0.57-0.49c-0.13-0.21-0.19-0.44-0.19-0.7c0-0.23,0.05-0.45,0.16-0.64c0.11-0.2,0.25-0.36,0.43-0.49
		c0.14-0.1,0.32-0.19,0.56-0.26c0.24-0.07,0.49-0.11,0.76-0.11c0.41,0,0.76,0.06,1.07,0.18s0.53,0.28,0.68,0.48
		c0.15,0.2,0.25,0.47,0.3,0.8l-0.86,0.12c-0.04-0.27-0.15-0.48-0.34-0.62s-0.45-0.22-0.79-0.22c-0.4,0-0.69,0.07-0.86,0.2
		s-0.26,0.29-0.26,0.47c0,0.11,0.04,0.22,0.11,0.31c0.07,0.09,0.18,0.17,0.34,0.23c0.09,0.03,0.35,0.11,0.78,0.22
		c0.62,0.17,1.06,0.3,1.3,0.41c0.25,0.11,0.44,0.26,0.58,0.46s0.21,0.45,0.21,0.75c0,0.29-0.09,0.57-0.26,0.83
		c-0.17,0.26-0.42,0.46-0.74,0.6c-0.32,0.14-0.69,0.21-1.09,0.21c-0.67,0-1.19-0.14-1.54-0.42S728.72,268.58,728.62,268.03z"/>
	<path fill="#9B9B9B" d="M741.97,267.07l0.95,0.24c-0.2,0.78-0.56,1.37-1.07,1.78c-0.52,0.41-1.15,0.61-1.89,0.61
		c-0.77,0-1.4-0.16-1.88-0.47c-0.48-0.31-0.85-0.77-1.1-1.36s-0.38-1.24-0.38-1.92c0-0.75,0.14-1.4,0.43-1.95
		c0.28-0.55,0.69-0.98,1.22-1.26c0.53-0.29,1.1-0.43,1.74-0.43c0.72,0,1.32,0.18,1.81,0.55s0.83,0.88,1.02,1.54l-0.93,0.22
		c-0.17-0.52-0.41-0.9-0.72-1.14s-0.71-0.36-1.19-0.36c-0.55,0-1.01,0.13-1.38,0.4s-0.63,0.62-0.78,1.06
		c-0.15,0.44-0.22,0.9-0.22,1.37c0,0.61,0.09,1.14,0.27,1.59c0.18,0.45,0.45,0.79,0.83,1.02s0.78,0.34,1.22,0.34
		c0.53,0,0.98-0.15,1.35-0.46S741.84,267.67,741.97,267.07z"/>
	<path fill="#9B9B9B" d="M747.36,268.94c-0.33,0.28-0.64,0.47-0.94,0.59s-0.62,0.17-0.97,0.17c-0.57,0-1.01-0.14-1.31-0.42
		c-0.31-0.28-0.46-0.63-0.46-1.07c0-0.25,0.06-0.49,0.17-0.7c0.12-0.21,0.27-0.38,0.45-0.51s0.4-0.22,0.63-0.29
		c0.17-0.05,0.43-0.09,0.78-0.13c0.71-0.08,1.23-0.19,1.57-0.3c0-0.12,0-0.2,0-0.23c0-0.36-0.08-0.61-0.25-0.76
		c-0.22-0.2-0.56-0.3-1-0.3c-0.41,0-0.72,0.07-0.92,0.22c-0.2,0.14-0.34,0.4-0.44,0.77l-0.86-0.12c0.08-0.37,0.21-0.67,0.39-0.89
		c0.18-0.23,0.44-0.4,0.78-0.52c0.34-0.12,0.73-0.18,1.18-0.18c0.44,0,0.8,0.05,1.08,0.16s0.48,0.24,0.61,0.39
		c0.13,0.16,0.22,0.36,0.27,0.6c0.03,0.15,0.04,0.42,0.04,0.81v1.17c0,0.82,0.02,1.33,0.06,1.55c0.04,0.22,0.11,0.42,0.22,0.62
		h-0.92C747.44,269.4,747.38,269.19,747.36,268.94z M747.28,266.98c-0.32,0.13-0.8,0.24-1.44,0.33c-0.36,0.05-0.62,0.11-0.77,0.18
		s-0.27,0.16-0.35,0.29c-0.08,0.12-0.12,0.26-0.12,0.42c0,0.23,0.09,0.43,0.27,0.59s0.44,0.23,0.78,0.23c0.34,0,0.64-0.07,0.9-0.22
		c0.26-0.15,0.46-0.35,0.58-0.61c0.09-0.2,0.14-0.49,0.14-0.88V266.98z"/>
	<path fill="#9B9B9B" d="M749.53,269.58v-5.19h0.79v0.74c0.38-0.57,0.93-0.85,1.65-0.85c0.31,0,0.6,0.06,0.86,0.17
		c0.26,0.11,0.46,0.26,0.59,0.44c0.13,0.18,0.22,0.4,0.27,0.65c0.03,0.16,0.05,0.45,0.05,0.85v3.19h-0.88v-3.15
		c0-0.36-0.04-0.63-0.1-0.8c-0.07-0.18-0.19-0.32-0.36-0.43c-0.17-0.11-0.38-0.16-0.61-0.16c-0.37,0-0.7,0.12-0.97,0.36
		c-0.27,0.24-0.41,0.69-0.41,1.35v2.83H749.53z"/>
	<path fill="#9B9B9B" d="M758.48,268.94c-0.33,0.28-0.64,0.47-0.94,0.59s-0.62,0.17-0.97,0.17c-0.57,0-1.01-0.14-1.31-0.42
		c-0.31-0.28-0.46-0.63-0.46-1.07c0-0.25,0.06-0.49,0.17-0.7c0.12-0.21,0.27-0.38,0.45-0.51s0.4-0.22,0.63-0.29
		c0.17-0.05,0.43-0.09,0.78-0.13c0.71-0.08,1.23-0.19,1.57-0.3c0-0.12,0-0.2,0-0.23c0-0.36-0.08-0.61-0.25-0.76
		c-0.22-0.2-0.56-0.3-1-0.3c-0.41,0-0.72,0.07-0.92,0.22c-0.2,0.14-0.34,0.4-0.44,0.77l-0.86-0.12c0.08-0.37,0.21-0.67,0.38-0.89
		c0.18-0.23,0.44-0.4,0.78-0.52c0.34-0.12,0.73-0.18,1.18-0.18c0.44,0,0.8,0.05,1.08,0.16c0.28,0.1,0.48,0.24,0.61,0.39
		c0.13,0.16,0.22,0.36,0.27,0.6c0.03,0.15,0.04,0.42,0.04,0.81v1.17c0,0.82,0.02,1.33,0.06,1.55c0.04,0.22,0.11,0.42,0.22,0.62
		h-0.92C758.56,269.4,758.5,269.19,758.48,268.94z M758.41,266.98c-0.32,0.13-0.8,0.24-1.44,0.33c-0.36,0.05-0.62,0.11-0.77,0.18
		c-0.15,0.07-0.26,0.16-0.35,0.29c-0.08,0.12-0.12,0.26-0.12,0.42c0,0.23,0.09,0.43,0.27,0.59s0.44,0.23,0.78,0.23
		c0.34,0,0.64-0.07,0.9-0.22c0.26-0.15,0.46-0.35,0.58-0.61c0.09-0.2,0.14-0.49,0.14-0.88V266.98z"/>
	<path fill="#9B9B9B" d="M764.02,269.58v-0.65c-0.33,0.51-0.81,0.77-1.45,0.77c-0.41,0-0.79-0.11-1.14-0.34s-0.62-0.55-0.81-0.96
		c-0.19-0.41-0.29-0.88-0.29-1.41c0-0.52,0.09-0.99,0.26-1.41c0.17-0.42,0.43-0.75,0.78-0.97c0.34-0.22,0.73-0.34,1.16-0.34
		c0.31,0,0.59,0.07,0.84,0.2c0.24,0.13,0.44,0.3,0.6,0.52v-2.57h0.87v7.16H764.02z M761.24,266.99c0,0.66,0.14,1.16,0.42,1.49
		c0.28,0.33,0.61,0.49,0.99,0.49c0.38,0,0.71-0.16,0.98-0.47c0.27-0.31,0.4-0.79,0.4-1.44c0-0.71-0.14-1.23-0.41-1.56
		s-0.61-0.5-1.01-0.5c-0.39,0-0.72,0.16-0.98,0.48S761.24,266.31,761.24,266.99z"/>
	<path fill="#9B9B9B" d="M769.6,268.94c-0.33,0.28-0.64,0.47-0.94,0.59s-0.62,0.17-0.97,0.17c-0.57,0-1.01-0.14-1.31-0.42
		c-0.31-0.28-0.46-0.63-0.46-1.07c0-0.25,0.06-0.49,0.17-0.7c0.12-0.21,0.27-0.38,0.45-0.51s0.4-0.22,0.63-0.29
		c0.17-0.05,0.43-0.09,0.78-0.13c0.71-0.08,1.23-0.19,1.57-0.3c0-0.12,0-0.2,0-0.23c0-0.36-0.08-0.61-0.25-0.76
		c-0.22-0.2-0.56-0.3-1-0.3c-0.41,0-0.72,0.07-0.92,0.22c-0.2,0.14-0.34,0.4-0.44,0.77l-0.86-0.12c0.08-0.37,0.21-0.67,0.38-0.89
		c0.18-0.23,0.44-0.4,0.78-0.52c0.34-0.12,0.73-0.18,1.18-0.18c0.44,0,0.8,0.05,1.08,0.16c0.28,0.1,0.48,0.24,0.61,0.39
		c0.13,0.16,0.22,0.36,0.27,0.6c0.03,0.15,0.04,0.42,0.04,0.81v1.17c0,0.82,0.02,1.33,0.06,1.55c0.04,0.22,0.11,0.42,0.22,0.62
		h-0.92C769.69,269.4,769.63,269.19,769.6,268.94z M769.53,266.98c-0.32,0.13-0.8,0.24-1.44,0.33c-0.36,0.05-0.62,0.11-0.77,0.18
		c-0.15,0.07-0.26,0.16-0.35,0.29c-0.08,0.12-0.12,0.26-0.12,0.42c0,0.23,0.09,0.43,0.27,0.59s0.44,0.23,0.78,0.23
		c0.34,0,0.64-0.07,0.9-0.22c0.26-0.15,0.46-0.35,0.58-0.61c0.09-0.2,0.14-0.49,0.14-0.88V266.98z"/>
	<path fill="#9B9B9B" d="M773.9,267.35v-0.71h10v0.71H773.9z"/>
	<path fill="#9B9B9B" d="M791.71,268.74v0.84h-4.73c-0.01-0.21,0.03-0.42,0.1-0.61c0.12-0.32,0.31-0.64,0.58-0.95
		s0.65-0.67,1.15-1.08c0.78-0.64,1.3-1.14,1.58-1.52c0.27-0.37,0.41-0.73,0.41-1.06c0-0.35-0.12-0.64-0.37-0.88
		c-0.25-0.24-0.57-0.36-0.97-0.36c-0.42,0-0.76,0.13-1.02,0.38s-0.38,0.61-0.39,1.05l-0.9-0.09c0.06-0.67,0.29-1.19,0.7-1.54
		c0.4-0.35,0.95-0.53,1.63-0.53c0.69,0,1.23,0.19,1.63,0.57s0.6,0.85,0.6,1.42c0,0.29-0.06,0.57-0.18,0.84s-0.31,0.57-0.58,0.87
		s-0.72,0.73-1.35,1.26c-0.53,0.44-0.87,0.74-1.02,0.9c-0.15,0.16-0.27,0.32-0.37,0.48H791.71z"/>
	<path fill="#9B9B9B" d="M792.65,266.05c0-0.85,0.09-1.53,0.26-2.04c0.17-0.52,0.43-0.91,0.78-1.19s0.78-0.42,1.3-0.42
		c0.38,0,0.72,0.08,1.01,0.23c0.29,0.15,0.53,0.38,0.72,0.67c0.19,0.29,0.34,0.65,0.44,1.06c0.11,0.42,0.16,0.98,0.16,1.69
		c0,0.84-0.09,1.52-0.26,2.03c-0.17,0.52-0.43,0.91-0.77,1.2c-0.34,0.28-0.78,0.42-1.3,0.42c-0.69,0-1.23-0.25-1.63-0.74
		C792.89,268.37,792.65,267.4,792.65,266.05z M793.56,266.05c0,1.17,0.14,1.96,0.41,2.35c0.27,0.39,0.61,0.58,1.02,0.58
		c0.4,0,0.74-0.2,1.02-0.59s0.41-1.17,0.41-2.34c0-1.18-0.14-1.96-0.41-2.35s-0.62-0.58-1.03-0.58c-0.4,0-0.73,0.17-0.97,0.51
		C793.71,264.07,793.56,264.88,793.56,266.05z"/>
	<path fill="#9B9B9B" d="M802.83,268.74v0.84h-4.73c-0.01-0.21,0.03-0.42,0.1-0.61c0.12-0.32,0.31-0.64,0.58-0.95
		s0.65-0.67,1.15-1.08c0.78-0.64,1.3-1.14,1.58-1.52c0.27-0.37,0.41-0.73,0.41-1.06c0-0.35-0.12-0.64-0.37-0.88
		c-0.25-0.24-0.57-0.36-0.97-0.36c-0.42,0-0.76,0.13-1.02,0.38s-0.38,0.61-0.39,1.05l-0.9-0.09c0.06-0.67,0.29-1.19,0.7-1.54
		c0.4-0.35,0.95-0.53,1.63-0.53c0.69,0,1.23,0.19,1.63,0.57s0.6,0.85,0.6,1.42c0,0.29-0.06,0.57-0.18,0.84s-0.31,0.57-0.58,0.87
		s-0.72,0.73-1.35,1.26c-0.53,0.44-0.87,0.74-1.02,0.9c-0.15,0.16-0.27,0.32-0.37,0.48H802.83z"/>
	<path fill="#9B9B9B" d="M808.34,264.18l-0.88,0.07c-0.08-0.34-0.19-0.6-0.33-0.75c-0.24-0.25-0.53-0.38-0.88-0.38
		c-0.28,0-0.53,0.08-0.74,0.23c-0.28,0.2-0.5,0.5-0.65,0.88c-0.16,0.39-0.24,0.94-0.25,1.66c0.21-0.32,0.47-0.56,0.78-0.72
		c0.31-0.16,0.63-0.23,0.96-0.23c0.59,0,1.09,0.22,1.5,0.65c0.41,0.43,0.62,0.99,0.62,1.67c0,0.45-0.1,0.87-0.29,1.25
		c-0.19,0.39-0.46,0.68-0.8,0.89c-0.34,0.21-0.72,0.31-1.15,0.31c-0.73,0-1.33-0.27-1.79-0.81c-0.46-0.54-0.69-1.43-0.69-2.66
		c0-1.38,0.25-2.39,0.77-3.02c0.45-0.55,1.05-0.82,1.8-0.82c0.56,0,1.02,0.16,1.38,0.47S808.27,263.62,808.34,264.18z
		 M804.75,267.26c0,0.3,0.06,0.59,0.19,0.87s0.31,0.49,0.54,0.63c0.23,0.15,0.47,0.22,0.73,0.22c0.37,0,0.69-0.15,0.96-0.45
		c0.27-0.3,0.4-0.71,0.4-1.22c0-0.5-0.13-0.88-0.4-1.17c-0.26-0.29-0.6-0.43-1-0.43c-0.4,0-0.73,0.14-1.01,0.43
		C804.89,266.43,804.75,266.8,804.75,267.26z"/>
</g>
<g>
	<path d="M19.71,25.33v24.38h9.02v4.96H14V25.33H19.71z"/>
	<path d="M34.65,24.36c0.88,0,1.63,0.3,2.26,0.92s0.92,1.38,0.92,2.26s-0.32,1.65-0.95,2.28c-0.62,0.64-1.4,0.97-2.28,0.97
		s-1.63-0.32-2.26-0.95s-0.95-1.4-0.95-2.28s0.32-1.65,0.97-2.28C32.99,24.66,33.77,24.36,34.65,24.36z M37.25,35.62v19.06h-5.31
		V35.62H37.25z"/>
	<path d="M42.27,35.62h5.33V38c1.63-2.17,3.39-2.99,5.97-2.99c2.34,0,4.19,0.75,5.54,2.28c1.01,1.14,1.5,2.9,1.5,5.29v12.1h-5.33
		V44.1c0-1.46-0.17-2.49-0.54-3.07c-0.56-1.01-1.59-1.5-3.12-1.5c-2.69,0-4.04,1.76-4.04,5.29v9.86h-5.33V35.62z"/>
	<path d="M84.45,46.02H70.16c0.15,3.42,1.7,5.11,4.66,5.09c1.85,0,3.35-0.86,4.53-2.56l4.92,0.79c-1.65,3.95-4.75,5.93-9.32,5.95
		c-3.12,0-5.59-0.92-7.46-2.77s-2.79-4.3-2.79-7.37s0.9-5.52,2.73-7.37s4.23-2.77,7.26-2.77s5.41,0.92,7.15,2.75s2.6,4.34,2.6,7.54
		V46.02z M70.33,42.62h9.02c-0.58-2.51-2.11-3.78-4.53-3.78C72.48,38.84,70.78,40.21,70.33,42.62z"/>
	<path d="M106.92,30.29h-4.23v-4.96h9.95v29.35h-5.71V30.29z"/>
	<path d="M132.87,42.36h9.9v4.43h-9.9V42.36z"/>
	<path d="M162.61,32.8c0,0.84,0.3,1.53,0.92,2.02c0.62,0.52,2.06,1.2,4.36,2.06s3.95,1.74,5.01,2.64c1.74,1.46,2.6,3.57,2.6,6.34
		s-0.95,5.05-2.81,6.83s-4.34,2.69-7.39,2.69c-4.15,0-7.5-1.87-10.08-5.59l3.7-3.57c1.38,2.6,3.42,3.91,6.14,3.91
		c1.31,0,2.41-0.39,3.27-1.16c0.84-0.77,1.27-1.76,1.27-2.99s-0.52-2.19-1.57-2.94c-0.49-0.37-1.98-0.99-4.4-1.87
		s-4.19-1.93-5.29-3.12s-1.63-2.75-1.63-4.68c0-2.47,0.86-4.51,2.6-6.12s3.91-2.43,6.55-2.43c3.27,0,6.14,1.1,8.64,3.27l-3.01,3.91
		c-1.4-1.59-2.99-2.38-4.75-2.36c-1.18,0-2.15,0.32-2.94,0.95S162.61,31.96,162.61,32.8z"/>
	<path d="M185.66,40.24v14.44h-5.33V40.24h-2.11v-4.62h2.11v-6.51h5.33v6.51h3.78v4.62H185.66z"/>
	<path d="M206.84,35.62h5.33v19.06h-5.33V52.2c-1.65,2.04-3.76,3.07-6.36,3.07s-4.79-0.97-6.57-2.9s-2.69-4.34-2.69-7.2
		s0.9-5.29,2.69-7.24s3.95-2.92,6.49-2.92s4.68,1.03,6.45,3.07V35.62z M202.1,39.81c-1.5,0-2.77,0.52-3.8,1.55
		c-1.05,1.03-1.57,2.3-1.57,3.78s0.52,2.75,1.57,3.78c1.05,1.05,2.3,1.57,3.76,1.57s2.73-0.52,3.78-1.57
		c1.05-1.03,1.57-2.28,1.57-3.76s-0.52-2.73-1.53-3.78C204.85,40.32,203.58,39.81,202.1,39.81z"/>
	<path d="M237.27,35.62v18.35c0,1.96-0.15,3.48-0.45,4.55c-0.32,1.07-0.88,2.08-1.7,3.01c-1.87,2.23-4.64,3.35-8.31,3.35
		s-6.49-1.4-8.44-4.17c-0.82-1.18-1.31-2.45-1.46-3.8h5.82c0.54,2.3,2.02,3.44,4.47,3.44c1.44,0,2.62-0.47,3.57-1.4
		c0.79-0.84,1.18-2.17,1.2-3.97v-2.86c-1.01,1.14-2,1.96-2.96,2.45c-0.99,0.49-2.15,0.73-3.5,0.73c-2.6,0-4.77-0.92-6.49-2.79
		s-2.58-4.25-2.58-7.2s0.88-5.39,2.64-7.35s3.93-2.94,6.51-2.94s4.71,1.03,6.38,3.07v-2.47H237.27z M227.28,39.81
		c-1.48,0-2.73,0.52-3.78,1.55s-1.57,2.3-1.57,3.78s0.52,2.75,1.57,3.78c1.05,1.05,2.3,1.57,3.76,1.57s2.73-0.52,3.78-1.57
		c1.05-1.03,1.57-2.28,1.57-3.76s-0.52-2.73-1.55-3.78C230,40.32,228.76,39.81,227.28,39.81z"/>
	<path d="M261.29,46.02H247c0.15,3.42,1.7,5.11,4.66,5.09c1.85,0,3.35-0.86,4.53-2.56l4.92,0.79c-1.65,3.95-4.75,5.93-9.32,5.95
		c-3.12,0-5.59-0.92-7.46-2.77s-2.79-4.3-2.79-7.37s0.9-5.52,2.73-7.37s4.23-2.77,7.26-2.77s5.41,0.92,7.15,2.75s2.6,4.34,2.6,7.54
		V46.02z M247.17,42.62h9.02c-0.58-2.51-2.11-3.78-4.53-3.78C249.32,38.84,247.62,40.21,247.17,42.62z"/>
	<path d="M295.85,49.71v4.96h-21.33l8.66-9.82c2.66-3.05,4.45-5.31,5.37-6.75s1.38-2.79,1.38-4.04s-0.43-2.3-1.29-3.16
		c-0.88-0.84-1.96-1.27-3.22-1.27s-2.3,0.43-3.05,1.27c-0.77,0.84-1.18,2.04-1.25,3.57h-6.12c0.19-3.05,1.22-5.46,3.09-7.24
		c1.85-1.78,4.25-2.66,7.22-2.66c2.94,0,5.41,0.9,7.39,2.69c1.96,1.8,2.94,4.15,2.94,7.05s-1.78,6.23-5.33,9.99l-5.11,5.41H295.85z"
		/>
	<path d="M315.79,25.33l6.6,19.98l7.18-20.24h3.12l6.81,20.24l7.05-19.98h6.04l-11.04,29.93h-4.02L331,36.07l-6.85,19.19h-4.02
		l-10.38-29.93H315.79z"/>
	<path d="M372.17,46.02h-14.29c0.15,3.42,1.7,5.11,4.66,5.09c1.85,0,3.35-0.86,4.53-2.56l4.92,0.79c-1.65,3.95-4.75,5.93-9.32,5.95
		c-3.12,0-5.59-0.92-7.46-2.77s-2.79-4.3-2.79-7.37s0.9-5.52,2.73-7.37s4.23-2.77,7.26-2.77s5.41,0.92,7.15,2.75s2.6,4.34,2.6,7.54
		V46.02z M358.05,42.62h9.02c-0.58-2.51-2.11-3.78-4.53-3.78C360.2,38.84,358.5,40.21,358.05,42.62z"/>
	<path d="M386.32,40.06c-1.12-0.84-2.06-1.27-2.86-1.27s-1.38,0.15-1.78,0.45c-0.41,0.32-0.6,0.71-0.6,1.16s0.19,0.82,0.6,1.1
		s1.35,0.67,2.84,1.18s2.6,1.03,3.31,1.57c1.4,0.97,2.11,2.41,2.11,4.32s-0.75,3.52-2.23,4.79c-1.5,1.29-3.44,1.93-5.78,1.93
		c-2.88,0-5.29-1.05-7.22-3.18l2.79-3.24c1.48,1.48,2.99,2.23,4.51,2.23c1.35,0,2.43-0.95,2.43-2.08c0-0.58-0.17-1.01-0.54-1.31
		c-0.37-0.28-1.31-0.71-2.86-1.27s-2.62-1.05-3.2-1.5c-1.27-0.88-1.89-2.19-1.89-3.97s0.64-3.22,1.93-4.36
		c1.27-1.14,2.99-1.7,5.13-1.7s4.12,0.69,5.95,2.04L386.32,40.06z"/>
	<path d="M399.52,40.24v14.44h-5.33V40.24h-2.11v-4.62h2.11v-6.51h5.33v6.51h3.78v4.62H399.52z"/>
</g>
<g>
	<path fill="#5A5A5A" d="M19.73,67.42c1.59,0,2.92,0.54,4.02,1.62s1.65,2.41,1.65,3.98s-0.55,2.89-1.66,3.96s-2.47,1.6-4.08,1.6
		s-2.95-0.54-4.04-1.62S14,74.55,14,72.98s0.56-2.88,1.68-3.95S18.15,67.42,19.73,67.42z M19.71,69.33c-0.98,0-1.82,0.36-2.52,1.07
		c-0.7,0.71-1.05,1.58-1.05,2.59s0.35,1.88,1.05,2.6s1.53,1.08,2.52,1.08s1.83-0.36,2.52-1.08s1.04-1.59,1.04-2.6
		s-0.34-1.88-1.04-2.59S20.69,69.33,19.71,69.33z"/>
	<path fill="#5A5A5A" d="M35.02,70.53c-0.81-0.8-1.7-1.2-2.65-1.2s-1.77,0.36-2.44,1.07c-0.68,0.71-1.02,1.59-1.02,2.63
		s0.34,1.91,1.02,2.6c0.67,0.7,1.52,1.04,2.52,1.04c0.5,0,0.95-0.09,1.34-0.27s0.8-0.48,1.23-0.9v2.45
		c-0.9,0.41-1.77,0.62-2.61,0.62c-1.58,0-2.91-0.53-4-1.6s-1.63-2.38-1.63-3.93s0.55-2.88,1.65-3.98s2.43-1.65,3.98-1.65
		c0.87,0,1.73,0.22,2.61,0.66V70.53z"/>
	<path fill="#5A5A5A" d="M44.3,78.34h-2.09v-8.87h-2.38v-1.8h6.87v1.8h-2.4V78.34z"/>
	<path fill="#5A5A5A" d="M49.2,78.34h-1.94v-6.93h1.94v1.05c0.48-0.85,1.15-1.28,2.02-1.27c0.27,0,0.55,0.05,0.84,0.17l-0.27,1.8
		c-0.29-0.16-0.59-0.24-0.92-0.23c-1.11,0-1.66,0.7-1.66,2.08V78.34z"/>
	<path fill="#5A5A5A" d="M58.27,71.41h1.94v6.93h-1.94v-0.9c-0.6,0.74-1.37,1.12-2.31,1.12s-1.74-0.35-2.39-1.05
		s-0.98-1.58-0.98-2.62s0.33-1.92,0.98-2.63s1.44-1.06,2.36-1.06s1.7,0.38,2.34,1.12V71.41z M56.54,72.93
		c-0.55,0-1.01,0.19-1.38,0.56c-0.38,0.38-0.57,0.84-0.57,1.38s0.19,1,0.57,1.38c0.38,0.38,0.84,0.57,1.37,0.57s0.99-0.19,1.38-0.57
		c0.38-0.38,0.57-0.83,0.57-1.37s-0.19-0.99-0.55-1.38C57.54,73.12,57.08,72.93,56.54,72.93z"/>
	<path fill="#5A5A5A" d="M62.05,71.41h1.94v0.87c0.59-0.79,1.23-1.09,2.17-1.09c0.85,0,1.52,0.27,2.02,0.83
		c0.37,0.41,0.55,1.05,0.55,1.92v4.4h-1.94v-3.84c0-0.53-0.06-0.91-0.2-1.12c-0.2-0.37-0.58-0.55-1.13-0.55
		c-0.98,0-1.47,0.64-1.47,1.92v3.59h-1.94V71.41z"/>
	<path fill="#5A5A5A" d="M74.37,73.02c-0.41-0.3-0.75-0.46-1.04-0.46s-0.5,0.05-0.65,0.16c-0.15,0.12-0.22,0.26-0.22,0.42
		s0.07,0.3,0.22,0.4s0.49,0.24,1.03,0.43s0.95,0.38,1.2,0.57c0.51,0.35,0.77,0.88,0.77,1.57s-0.27,1.28-0.81,1.74
		c-0.55,0.47-1.25,0.7-2.1,0.7c-1.05,0-1.92-0.38-2.62-1.16l1.02-1.18c0.54,0.54,1.09,0.81,1.64,0.81c0.49,0,0.88-0.34,0.88-0.76
		c0-0.21-0.06-0.37-0.2-0.48c-0.13-0.1-0.48-0.26-1.04-0.46s-0.95-0.38-1.16-0.55c-0.46-0.32-0.69-0.8-0.69-1.45s0.23-1.17,0.7-1.59
		c0.46-0.41,1.09-0.62,1.87-0.62s1.5,0.25,2.16,0.74L74.37,73.02z"/>
	<path fill="#5A5A5A" d="M79.05,82.03h-1.94V71.41h1.94v0.9c0.6-0.74,1.37-1.12,2.3-1.12s1.73,0.35,2.39,1.05s0.98,1.58,0.98,2.62
		s-0.33,1.92-0.98,2.63s-1.44,1.06-2.35,1.06s-1.7-0.38-2.35-1.12V82.03z M80.79,72.93c-0.54,0-0.99,0.19-1.38,0.56
		s-0.57,0.84-0.57,1.38s0.19,1,0.57,1.38c0.38,0.38,0.84,0.57,1.37,0.57s0.99-0.19,1.38-0.57c0.38-0.38,0.58-0.83,0.58-1.37
		s-0.19-0.99-0.57-1.38S81.33,72.93,80.79,72.93z"/>
	<path fill="#5A5A5A" d="M89.84,71.19c1.16,0,2.11,0.34,2.84,1.02s1.09,1.57,1.09,2.66s-0.37,1.98-1.1,2.66
		c-0.74,0.68-1.7,1.02-2.88,1.02s-2.12-0.35-2.85-1.05s-1.09-1.58-1.09-2.66s0.38-1.97,1.12-2.65S88.67,71.19,89.84,71.19z
		 M89.81,72.93c-0.54,0-1,0.19-1.38,0.56s-0.58,0.84-0.58,1.38s0.19,1,0.57,1.38c0.38,0.38,0.84,0.57,1.38,0.57s1.01-0.19,1.39-0.57
		c0.38-0.38,0.57-0.83,0.57-1.37s-0.19-0.99-0.57-1.38S90.35,72.93,89.81,72.93z"/>
	<path fill="#5A5A5A" d="M103.69,70.7c0.61,0,1.13,0.22,1.56,0.66s0.65,0.96,0.65,1.57s-0.22,1.12-0.65,1.55s-0.95,0.65-1.56,0.65
		s-1.13-0.22-1.57-0.65s-0.66-0.95-0.66-1.56s0.22-1.14,0.66-1.57S103.08,70.7,103.69,70.7z"/>
	<path fill="#5A5A5A" d="M119.42,67.42c1.59,0,2.92,0.54,4.02,1.62s1.65,2.41,1.65,3.98s-0.55,2.89-1.66,3.96s-2.47,1.6-4.08,1.6
		s-2.95-0.54-4.04-1.62s-1.62-2.41-1.62-3.97s0.56-2.88,1.68-3.95S117.84,67.42,119.42,67.42z M119.4,69.33
		c-0.98,0-1.82,0.36-2.52,1.07c-0.7,0.71-1.05,1.58-1.05,2.59s0.35,1.88,1.05,2.6s1.53,1.08,2.52,1.08s1.83-0.36,2.52-1.08
		s1.04-1.59,1.04-2.6s-0.34-1.88-1.04-2.59S120.38,69.33,119.4,69.33z"/>
	<path fill="#5A5A5A" d="M128.66,73.09v5.25h-1.94v-5.25h-0.77v-1.68h0.77v-2.37h1.94v2.37h1.38v1.68H128.66z"/>
	<path fill="#5A5A5A" d="M133.41,73.09v5.25h-1.94v-5.25h-0.77v-1.68h0.77v-2.37h1.94v2.37h1.38v1.68H133.41z"/>
	<path fill="#5A5A5A" d="M141.11,71.41h1.94v6.93h-1.94v-0.9c-0.6,0.74-1.37,1.12-2.31,1.12s-1.74-0.35-2.39-1.05
		s-0.98-1.58-0.98-2.62s0.33-1.92,0.98-2.63s1.44-1.06,2.36-1.06s1.7,0.38,2.34,1.12V71.41z M139.38,72.93
		c-0.55,0-1.01,0.19-1.38,0.56c-0.38,0.38-0.57,0.84-0.57,1.38s0.19,1,0.57,1.38c0.38,0.38,0.84,0.57,1.37,0.57s0.99-0.19,1.38-0.57
		c0.38-0.38,0.57-0.83,0.57-1.37s-0.19-0.99-0.55-1.38C140.38,73.12,139.92,72.93,139.38,72.93z"/>
	<path fill="#5A5A5A" d="M146.18,71.41l1.82,4l1.89-4.19h0.83l1.89,4.25l1.85-4.06h2.16l-3.59,7.07h-0.88l-1.88-4.2l-1.84,4.2h-0.89
		L144,71.41H146.18z"/>
	<path fill="#5A5A5A" d="M162.53,71.41h1.94v6.93h-1.94v-0.9c-0.6,0.74-1.37,1.12-2.31,1.12s-1.74-0.35-2.39-1.05
		s-0.98-1.58-0.98-2.62s0.33-1.92,0.98-2.63s1.44-1.06,2.36-1.06s1.7,0.38,2.34,1.12V71.41z M160.8,72.93
		c-0.55,0-1.01,0.19-1.38,0.56c-0.38,0.38-0.57,0.84-0.57,1.38s0.19,1,0.57,1.38c0.38,0.38,0.84,0.57,1.37,0.57s0.99-0.19,1.38-0.57
		c0.38-0.38,0.57-0.83,0.57-1.37s-0.19-0.99-0.55-1.38C161.8,73.12,161.34,72.93,160.8,72.93z"/>
	<path fill="#5A5A5A" d="M174.75,70.7c0.61,0,1.13,0.22,1.56,0.66s0.65,0.96,0.65,1.57s-0.22,1.12-0.65,1.55s-0.95,0.65-1.56,0.65
		s-1.13-0.22-1.57-0.65s-0.66-0.95-0.66-1.56s0.22-1.14,0.66-1.57S174.14,70.7,174.75,70.7z"/>
	<path fill="#5A5A5A" d="M188.64,78.34h-2.09v-8.87h-2.38v-1.8h6.87v1.8h-2.4V78.34z"/>
	<path fill="#5A5A5A" d="M192.38,78.34V67.66h2.64c1.2,0,2.07,0.21,2.6,0.64c0.64,0.5,0.96,1.23,0.96,2.17
		c0,0.59-0.13,1.09-0.4,1.52c-0.15,0.2-0.41,0.41-0.77,0.64c0.64,0.14,1.1,0.37,1.39,0.67c0.51,0.51,0.77,1.2,0.77,2.06
		s-0.31,1.58-0.93,2.13s-1.51,0.83-2.67,0.83H192.38z M194.46,72.11h0.59c1.08,0,1.62-0.46,1.62-1.38s-0.53-1.38-1.59-1.38h-0.62
		V72.11z M194.46,76.66h0.9c1.38,0,2.08-0.49,2.08-1.47c0-0.54-0.21-0.94-0.62-1.19c-0.3-0.2-0.83-0.3-1.57-0.3h-0.78V76.66z"/>
	<path fill="#5A5A5A" d="M201.5,78.34V67.66h3.05c1.55,0,2.83,0.41,3.82,1.23c0.6,0.49,1.07,1.09,1.41,1.81s0.5,1.48,0.5,2.27
		s-0.17,1.55-0.51,2.28c-0.34,0.73-0.82,1.34-1.43,1.84c-0.97,0.82-2.23,1.23-3.8,1.23H201.5z M203.58,76.53h0.56
		c1.27,0,2.22-0.28,2.84-0.85c0.73-0.63,1.16-1.66,1.16-2.69c0-1.09-0.38-1.98-1.16-2.66c-0.64-0.58-1.59-0.87-2.84-0.87h-0.56
		V76.53z"/>
</g>
</svg>
