<?xml version="1.0" encoding="iso-8859-1"?>
<!-- Generator: Adobe Illustrator 29.8.4, SVG Export Plug-In . SVG Version: 9.03 Build 0)  -->
<svg version="1.1" id="Layer_1" xmlns="http://www.w3.org/2000/svg" xmlns:xlink="http://www.w3.org/1999/xlink" x="0px" y="0px"
	 viewBox="0 0 1600 263" enable-background="new 0 0 1600 263" xml:space="preserve">
<rect id="bg-white" fill="#FFFFFF" width="1600" height="263"/>
<line fill="none" stroke="#D30F1D" stroke-width="8" stroke-linecap="round" stroke-miterlimit="10" x1="100" y1="228" x2="1500" y2="228"/>
<circle fill="#FFFFFF" stroke="#000000" stroke-width="3" stroke-miterlimit="10" cx="100" cy="228" r="10"/>
<g>
	<path d="M105.95,210.2l-0.57,2.14l-9.1-2.44l-0.65,2.45l-1.85-0.5l1.89-7.05l1.85,0.5l-0.66,2.46L105.95,210.2z"/>
	<path d="M100.16,203.34l4.03,1.08c1.08,0.29,1.76-0.04,2.02-1.01c0.26-0.97-0.16-1.6-1.24-1.89l-4.03-1.08l0.53-1.99l4.35,1.17
		c1.92,0.52,2.66,2.02,2.07,4.23c-0.59,2.21-1.99,3.16-3.91,2.65l-4.35-1.17L100.16,203.34z"/>
	<path d="M101.98,196.55l0.53-1.99l0.89,0.24c-0.65-0.83-0.78-1.57-0.52-2.53c0.23-0.87,0.7-1.49,1.41-1.84
		c0.53-0.26,1.23-0.27,2.12-0.03l4.51,1.21l-0.53,1.99l-3.94-1.06c-0.54-0.15-0.95-0.18-1.2-0.11c-0.43,0.11-0.72,0.44-0.87,1.01
		c-0.27,1,0.25,1.68,1.57,2.04l3.68,0.99l-0.53,1.99L101.98,196.55z"/>
	<path d="M104.33,187.8l0.53-1.99l0.89,0.24c-0.65-0.83-0.78-1.57-0.52-2.53c0.23-0.87,0.7-1.49,1.41-1.84
		c0.53-0.26,1.23-0.27,2.12-0.03l4.51,1.21l-0.53,1.99l-3.94-1.06c-0.54-0.15-0.95-0.18-1.2-0.11c-0.43,0.11-0.72,0.44-0.87,1.01
		c-0.27,1,0.25,1.68,1.57,2.04l3.68,0.99l-0.53,1.99L104.33,187.8z"/>
	<path d="M112.42,173.1l-1.43,5.33c1.29,0.29,2.08-0.12,2.37-1.23c0.18-0.69,0.01-1.34-0.5-1.95l0.79-1.76
		c1.31,1.01,1.74,2.37,1.29,4.07c-0.31,1.16-0.9,1.99-1.78,2.5c-0.88,0.51-1.88,0.61-3.03,0.31c-1.15-0.31-1.97-0.89-2.48-1.75
		s-0.61-1.86-0.31-2.99c0.3-1.13,0.89-1.93,1.74-2.4c0.86-0.47,1.88-0.54,3.08-0.22L112.42,173.1z M109.75,178.03l0.9-3.37
		c-1-0.04-1.62,0.41-1.87,1.31C108.55,176.85,108.89,177.62,109.75,178.03z"/>
	<path d="M115.53,170.12l-6.93,1.75l0.62-2.32l4.61-1.05l-3.5-3.1l0.61-2.29l9.36,8.67l-0.6,2.25L115.53,170.12z"/>
	<path d="M107.59,159.38l0.71-1.77l3.75,3.49l-0.51,1.22L107.59,159.38z"/>
	<path d="M115.19,153.89c-0.42,0.33-0.68,0.64-0.76,0.94c-0.08,0.3-0.08,0.53-0.01,0.71c0.08,0.18,0.2,0.3,0.37,0.34
		s0.32,0.01,0.47-0.12c0.14-0.12,0.38-0.44,0.72-0.94c0.34-0.5,0.65-0.87,0.92-1.08c0.5-0.43,1.11-0.55,1.82-0.35
		c0.71,0.19,1.24,0.63,1.56,1.31c0.33,0.69,0.38,1.48,0.14,2.35c-0.29,1.07-0.92,1.87-1.91,2.38l-0.93-1.37
		c0.7-0.4,1.13-0.89,1.29-1.46c0.13-0.5-0.11-1-0.54-1.12c-0.22-0.06-0.39-0.04-0.54,0.07c-0.14,0.11-0.39,0.42-0.76,0.94
		c-0.36,0.52-0.66,0.87-0.88,1.04c-0.46,0.39-1.01,0.49-1.67,0.31c-0.67-0.18-1.14-0.56-1.43-1.16c-0.3-0.59-0.34-1.29-0.12-2.09
		s0.67-1.47,1.36-2.02L115.19,153.89z"/>
	<path d="M119.08,144.96l4.06,1.09l-0.57,2.13l-10.95-2.93l0.86-3.2c0.19-0.71,0.41-1.27,0.64-1.67c0.25-0.4,0.57-0.73,0.97-1
		c0.87-0.56,1.83-0.7,2.87-0.43c1.03,0.28,1.79,0.81,2.28,1.58c0.49,0.78,0.56,1.79,0.22,3.05L119.08,144.96z M117.23,144.46
		l0.23-0.87c0.36-1.34,0.01-2.15-1.04-2.43c-1.11-0.3-1.77,0.2-2.18,1.7l-0.2,0.74L117.23,144.46z"/>
	<path d="M119.1,132.66l0.53-1.99l7.11,1.91l-0.53,1.99l-0.92-0.25c0.6,0.82,0.77,1.71,0.51,2.68c-0.26,0.97-0.84,1.69-1.74,2.16
		c-0.9,0.47-1.89,0.57-2.95,0.28c-1.07-0.29-1.88-0.87-2.43-1.73c-0.55-0.86-0.7-1.77-0.44-2.71s0.85-1.65,1.79-2.1L119.1,132.66z
		 M120.19,134.85c-0.15,0.56-0.08,1.09,0.2,1.57c0.28,0.5,0.7,0.82,1.25,0.96s1.08,0.08,1.57-0.21c0.5-0.29,0.81-0.7,0.96-1.25
		c0.15-0.55,0.08-1.07-0.21-1.57c-0.28-0.5-0.69-0.81-1.25-0.96c-0.55-0.15-1.07-0.08-1.56,0.19
		C120.66,133.88,120.34,134.3,120.19,134.85z"/>
	<path d="M122.83,125.36c-0.42,0.33-0.68,0.64-0.76,0.94c-0.08,0.3-0.08,0.53-0.01,0.71c0.08,0.18,0.21,0.3,0.37,0.34
		s0.32,0.01,0.47-0.12c0.14-0.12,0.38-0.44,0.72-0.94c0.34-0.5,0.65-0.87,0.92-1.08c0.5-0.42,1.11-0.54,1.82-0.35
		c0.71,0.19,1.24,0.63,1.56,1.31c0.33,0.69,0.38,1.48,0.14,2.35c-0.29,1.07-0.92,1.87-1.91,2.38l-0.93-1.37
		c0.7-0.41,1.13-0.89,1.28-1.46c0.14-0.51-0.11-1-0.54-1.12c-0.22-0.06-0.39-0.04-0.54,0.07c-0.14,0.11-0.4,0.42-0.76,0.94
		c-0.36,0.52-0.65,0.87-0.88,1.04c-0.46,0.38-1.01,0.49-1.67,0.31c-0.67-0.18-1.14-0.56-1.43-1.16c-0.3-0.59-0.33-1.28-0.12-2.09
		s0.67-1.47,1.36-2.02L122.83,125.36z"/>
	<path d="M124.22,120.46l5.39,1.44l-0.53,1.99l-5.39-1.44l-0.21,0.79l-1.72-0.46l0.21-0.79l-2.43-0.65l0.53-1.99l2.43,0.65
		l0.38-1.41l1.72,0.46L124.22,120.46z"/>
	<path d="M123.69,115.52l4.03,1.08c1.08,0.29,1.76-0.04,2.02-1.01c0.26-0.97-0.16-1.6-1.24-1.89l-4.03-1.08l0.53-1.99l4.35,1.17
		c1.92,0.52,2.66,2.02,2.07,4.23c-0.59,2.21-1.99,3.16-3.91,2.65l-4.35-1.17L123.69,115.52z"/>
	<path d="M133.16,108.65l-0.53,1.99l-7.11-1.91l0.53-1.99l1.08,0.29c-0.74-0.72-1-1.53-0.75-2.42c0.08-0.28,0.21-0.55,0.41-0.82
		l1.78,0.78c-0.25,0.25-0.41,0.54-0.49,0.88c-0.31,1.14,0.26,1.9,1.67,2.28L133.16,108.65z"/>
	<path d="M132.84,96.92l-1.43,5.33c1.29,0.29,2.08-0.12,2.37-1.23c0.18-0.69,0.01-1.34-0.5-1.95l0.79-1.76
		c1.31,1.01,1.74,2.36,1.29,4.07c-0.31,1.16-0.9,1.99-1.78,2.5c-0.88,0.51-1.88,0.61-3.03,0.31c-1.15-0.31-1.97-0.89-2.48-1.75
		s-0.61-1.86-0.31-2.99c0.3-1.13,0.89-1.93,1.74-2.4c0.86-0.47,1.88-0.54,3.08-0.22L132.84,96.92z M130.16,101.84l0.9-3.37
		c-1-0.04-1.62,0.41-1.87,1.31C128.96,100.66,129.31,101.44,130.16,101.84z"/>
</g>
<circle fill="#FFFFFF" stroke="#000000" stroke-width="3" stroke-miterlimit="10" cx="182.35" cy="228" r="10"/>
<g>
	<path d="M187.38,213.63l-10.95-2.93l0.73-2.71c0.33-1.23,0.79-2.07,1.37-2.49c0.69-0.52,1.52-0.65,2.49-0.39
		c0.6,0.16,1.09,0.44,1.45,0.83c0.17,0.21,0.31,0.53,0.45,0.96c0.32-0.62,0.68-1.03,1.07-1.24c0.66-0.38,1.44-0.46,2.33-0.22
		c0.89,0.24,1.53,0.76,1.93,1.54c0.4,0.79,0.43,1.78,0.11,2.97L187.38,213.63z M181.56,209.79l0.16-0.61
		c0.3-1.11-0.03-1.79-0.98-2.04c-0.95-0.25-1.57,0.16-1.86,1.25l-0.17,0.64L181.56,209.79z M186.23,211.04l0.25-0.92
		c0.38-1.42,0.07-2.27-0.94-2.54c-0.55-0.15-1.02-0.04-1.39,0.32c-0.29,0.26-0.54,0.77-0.74,1.53l-0.21,0.8L186.23,211.04z"/>
	<path d="M184.15,197.23l0.53-1.99l7.11,1.91l-0.53,1.99l-0.92-0.25c0.6,0.82,0.77,1.71,0.51,2.68c-0.26,0.97-0.84,1.69-1.74,2.16
		c-0.9,0.47-1.89,0.57-2.95,0.28c-1.07-0.29-1.88-0.87-2.43-1.73c-0.55-0.86-0.7-1.77-0.44-2.71c0.25-0.95,0.85-1.65,1.79-2.1
		L184.15,197.23z M185.24,199.42c-0.15,0.56-0.08,1.09,0.2,1.57c0.28,0.5,0.7,0.82,1.25,0.96s1.08,0.08,1.57-0.21
		c0.5-0.29,0.81-0.7,0.96-1.25c0.15-0.55,0.08-1.07-0.21-1.57c-0.28-0.5-0.69-0.81-1.25-0.96c-0.55-0.15-1.07-0.08-1.56,0.19
		C185.71,198.45,185.39,198.87,185.24,199.42z"/>
	<path d="M191.88,192.51l-6.93,1.75l0.62-2.32l4.61-1.05l-3.5-3.1l0.61-2.29l9.36,8.67l-0.6,2.25L191.88,192.51z"/>
	<path d="M187.9,183.25l4.53-0.79l-3.53-2.93l0.6-2.24l6.28,5.61l-0.24,0.9l-8.23,1.69L187.9,183.25z"/>
	<path d="M185.84,174.12c0.09-0.33,0.28-0.58,0.57-0.75c0.29-0.17,0.61-0.21,0.93-0.12c0.33,0.09,0.58,0.29,0.76,0.58
		c0.18,0.3,0.22,0.62,0.13,0.95c-0.09,0.33-0.28,0.58-0.58,0.75c-0.29,0.17-0.62,0.21-0.95,0.12c-0.33-0.09-0.58-0.29-0.75-0.59
		C185.79,174.77,185.75,174.45,185.84,174.12z M190.3,174.28l7.11,1.91l-0.53,1.98l-7.11-1.91L190.3,174.28z"/>
	<path d="M196.56,166.45l-1.43,5.33c1.29,0.29,2.08-0.12,2.37-1.23c0.18-0.69,0.01-1.34-0.5-1.95l0.79-1.76
		c1.31,1.01,1.74,2.36,1.29,4.08c-0.31,1.16-0.9,1.99-1.78,2.5c-0.88,0.51-1.88,0.61-3.03,0.31c-1.15-0.31-1.97-0.89-2.48-1.76
		s-0.61-1.86-0.31-2.99c0.3-1.13,0.89-1.93,1.74-2.39c0.86-0.47,1.88-0.54,3.08-0.22L196.56,166.45z M193.88,171.38l0.9-3.37
		c-1-0.04-1.62,0.41-1.87,1.31C192.69,170.2,193.03,170.97,193.88,171.38z"/>
	<path d="M193.34,162.93l4.61-0.77l-3.78-3.09l0.23-0.85l4.88-0.77l-3.66-3.02l0.6-2.22l6.27,5.62l-0.24,0.9l-4.83,0.77l3.81,3.05
		l-0.25,0.91l-8.23,1.7L193.34,162.93z"/>
</g>
<circle fill="#FFFFFF" stroke="#000000" stroke-width="3" stroke-miterlimit="10" cx="264.71" cy="228" r="10"/>
<g>
	<path d="M266.25,210.41l4.06,1.09l-0.57,2.13l-10.95-2.93l0.86-3.2c0.19-0.71,0.41-1.27,0.64-1.67c0.24-0.4,0.57-0.73,0.97-1
		c0.87-0.57,1.83-0.71,2.86-0.43s1.79,0.81,2.28,1.58s0.56,1.79,0.22,3.05L266.25,210.41z M264.4,209.92l0.23-0.87
		c0.36-1.34,0.01-2.15-1.04-2.43c-1.11-0.3-1.77,0.2-2.18,1.7l-0.2,0.74L264.4,209.92z"/>
	<path d="M260.95,201.16c0.09-0.33,0.28-0.58,0.57-0.75c0.29-0.17,0.61-0.21,0.93-0.12c0.33,0.09,0.59,0.29,0.76,0.58
		c0.18,0.3,0.22,0.62,0.13,0.95c-0.09,0.33-0.28,0.58-0.58,0.75c-0.29,0.17-0.62,0.21-0.94,0.12c-0.33-0.09-0.58-0.29-0.75-0.59
		C260.9,201.8,260.86,201.48,260.95,201.16z M265.41,201.31l7.11,1.91l-0.53,1.98l-7.11-1.91L265.41,201.31z"/>
	<path d="M271.13,193.83l3.65,0.98l-0.53,1.99l-3.78-1.01c-0.55-0.15-0.96-0.21-1.2-0.18c-0.24,0.03-0.45,0.13-0.64,0.29
		c-0.18,0.17-0.3,0.37-0.36,0.59c-0.12,0.45,0.02,0.99,0.4,1.36c0.19,0.19,0.61,0.37,1.24,0.53l3.65,0.98l-0.53,1.99l-7.11-1.91
		l0.53-1.99l0.83,0.22c-0.53-0.8-0.68-1.65-0.44-2.55c0.24-0.9,0.86-1.49,1.86-1.76c-0.71-0.79-0.95-1.66-0.69-2.62
		c0.25-0.95,0.78-1.54,1.58-1.78c0.48-0.14,1.08-0.12,1.83,0.08l4.59,1.23l-0.53,1.99l-3.89-1.04c-0.51-0.14-0.91-0.18-1.18-0.14
		c-0.47,0.07-0.76,0.35-0.89,0.83C269.25,192.84,269.79,193.47,271.13,193.83z"/>
	<path d="M265.45,184.37c0.09-0.33,0.28-0.58,0.57-0.75c0.29-0.17,0.61-0.21,0.93-0.12c0.33,0.09,0.59,0.29,0.76,0.58
		c0.18,0.3,0.22,0.62,0.13,0.95s-0.28,0.58-0.58,0.75c-0.29,0.17-0.62,0.21-0.94,0.12s-0.59-0.29-0.75-0.59
		C265.4,185.01,265.36,184.7,265.45,184.37z M269.91,184.52l7.11,1.91l-0.53,1.98l-7.11-1.91L269.91,184.52z"/>
	<path d="M273.11,179.2c-0.42,0.33-0.68,0.64-0.76,0.94c-0.08,0.3-0.08,0.53-0.01,0.71c0.08,0.18,0.21,0.3,0.37,0.34
		s0.32,0.01,0.47-0.12c0.14-0.12,0.38-0.44,0.72-0.94c0.34-0.5,0.65-0.87,0.92-1.08c0.5-0.42,1.11-0.55,1.82-0.35
		c0.71,0.19,1.24,0.63,1.56,1.31c0.33,0.69,0.38,1.48,0.14,2.35c-0.29,1.07-0.92,1.87-1.91,2.38l-0.93-1.37
		c0.7-0.4,1.13-0.89,1.28-1.46c0.14-0.5-0.11-1-0.54-1.11c-0.22-0.06-0.39-0.04-0.54,0.07c-0.14,0.11-0.4,0.42-0.76,0.94
		c-0.36,0.52-0.65,0.87-0.88,1.04c-0.46,0.38-1.01,0.49-1.67,0.31c-0.67-0.18-1.14-0.56-1.43-1.16c-0.3-0.59-0.33-1.29-0.12-2.09
		s0.67-1.47,1.36-2.02L273.11,179.2z"/>
	<path d="M268.25,173.89c0.09-0.33,0.28-0.58,0.57-0.75c0.29-0.17,0.61-0.21,0.93-0.12c0.33,0.09,0.59,0.29,0.76,0.58
		c0.18,0.3,0.22,0.62,0.13,0.95s-0.28,0.58-0.58,0.75c-0.29,0.17-0.62,0.21-0.94,0.12c-0.33-0.09-0.58-0.29-0.75-0.59
		C268.2,174.54,268.17,174.22,268.25,173.89z M272.72,174.05l7.11,1.91l-0.53,1.98l-7.11-1.91L272.72,174.05z"/>
</g>
<circle fill="#FFFFFF" stroke="#000000" stroke-width="3" stroke-miterlimit="10" cx="347.06" cy="228" r="10"/>
<g>
	<path d="M341.7,208.57l9.1,2.44l0.9-3.37l1.85,0.5l-1.47,5.5l-10.95-2.93L341.7,208.57z"/>
	<path d="M353.23,205.02l-6.93,1.75l0.62-2.32l4.61-1.05l-3.5-3.1l0.61-2.29l9.36,8.67l-0.6,2.25L353.23,205.02z"/>
	<path d="M349.57,193.67c0.32-1.19,0.93-2.07,1.83-2.63c0.9-0.56,1.91-0.69,3.03-0.39c1.12,0.3,1.94,0.92,2.43,1.86
		c0.49,0.95,0.58,2.02,0.26,3.23s-0.94,2.08-1.86,2.64c-0.91,0.55-1.92,0.68-3.03,0.38c-1.11-0.3-1.92-0.93-2.41-1.88
		C349.33,195.95,349.25,194.87,349.57,193.67z M351.35,194.18c-0.15,0.55-0.08,1.08,0.2,1.57c0.28,0.5,0.7,0.82,1.25,0.97
		c0.55,0.15,1.08,0.08,1.57-0.21c0.5-0.29,0.82-0.71,0.97-1.26c0.15-0.55,0.08-1.09-0.2-1.58c-0.28-0.5-0.69-0.81-1.25-0.96
		c-0.55-0.15-1.07-0.08-1.57,0.21C351.82,193.2,351.5,193.62,351.35,194.18z"/>
	<path d="M351.29,188.17l0.53-1.99l0.89,0.24c-0.65-0.83-0.78-1.57-0.52-2.53c0.23-0.87,0.7-1.49,1.41-1.84
		c0.53-0.26,1.23-0.27,2.12-0.03l4.52,1.21l-0.53,1.99l-3.95-1.06c-0.54-0.15-0.95-0.18-1.2-0.11c-0.43,0.11-0.72,0.44-0.87,1.01
		c-0.27,1,0.25,1.68,1.57,2.04l3.68,0.99l-0.53,1.99L351.29,188.17z"/>
</g>
<circle fill="#FFFFFF" stroke="#000000" stroke-width="3" stroke-miterlimit="10" cx="429.41" cy="228" r="10"/>
<g>
	<path d="M430.95,210.41l4.06,1.09l-0.57,2.13l-10.95-2.93l0.86-3.2c0.19-0.71,0.41-1.27,0.64-1.67c0.24-0.4,0.57-0.73,0.97-1
		c0.87-0.57,1.83-0.71,2.86-0.43s1.79,0.81,2.28,1.58s0.56,1.79,0.22,3.05L430.95,210.41z M429.1,209.92l0.23-0.87
		c0.36-1.34,0.01-2.15-1.04-2.43c-1.11-0.3-1.77,0.2-2.18,1.7l-0.2,0.74L429.1,209.92z"/>
	<path d="M430.97,198.12l0.53-1.99l7.11,1.91l-0.53,1.99l-0.92-0.25c0.6,0.82,0.77,1.71,0.51,2.68c-0.26,0.97-0.84,1.69-1.74,2.16
		c-0.9,0.47-1.89,0.57-2.95,0.28c-1.07-0.29-1.88-0.87-2.43-1.73c-0.55-0.86-0.7-1.77-0.44-2.71c0.25-0.95,0.85-1.64,1.79-2.1
		L430.97,198.12z M432.06,200.31c-0.15,0.56-0.08,1.08,0.2,1.57c0.28,0.5,0.7,0.82,1.25,0.96c0.55,0.15,1.08,0.08,1.57-0.21
		c0.5-0.29,0.82-0.7,0.96-1.25c0.15-0.54,0.08-1.07-0.21-1.57c-0.28-0.5-0.69-0.81-1.25-0.96c-0.55-0.15-1.07-0.08-1.56,0.19
		C432.53,199.34,432.21,199.76,432.06,200.31z"/>
	<path d="M439.66,194.15l-0.53,1.99l-7.11-1.91l0.53-1.99l1.08,0.29c-0.74-0.72-1-1.53-0.75-2.42c0.08-0.28,0.21-0.55,0.41-0.82
		l1.78,0.78c-0.25,0.25-0.41,0.54-0.49,0.88c-0.3,1.14,0.26,1.9,1.68,2.28L439.66,194.15z"/>
	<path d="M428.96,184.88l12.3,3.29l-0.53,1.99l-12.3-3.29L428.96,184.88z"/>
	<path d="M430.72,182.27c0.09-0.33,0.28-0.58,0.57-0.75c0.29-0.17,0.61-0.21,0.93-0.12c0.33,0.09,0.58,0.29,0.76,0.58
		c0.18,0.3,0.22,0.62,0.13,0.95c-0.09,0.33-0.28,0.58-0.58,0.75c-0.29,0.17-0.62,0.21-0.95,0.12s-0.58-0.29-0.75-0.59
		C430.66,182.91,430.63,182.59,430.72,182.27z M435.18,182.42l7.11,1.91l-0.53,1.98l-7.11-1.91L435.18,182.42z"/>
	<path d="M437.14,175.09l0.53-1.99l7.11,1.91l-0.53,1.99l-0.92-0.25c0.6,0.82,0.77,1.71,0.51,2.68s-0.84,1.69-1.74,2.16
		c-0.9,0.47-1.89,0.57-2.96,0.28c-1.07-0.29-1.88-0.87-2.43-1.73c-0.55-0.86-0.7-1.77-0.44-2.71s0.85-1.64,1.79-2.1L437.14,175.09z
		 M438.23,177.28c-0.15,0.56-0.08,1.09,0.2,1.57c0.28,0.5,0.7,0.81,1.25,0.96s1.08,0.08,1.57-0.21c0.5-0.29,0.81-0.7,0.96-1.25
		c0.15-0.55,0.08-1.07-0.21-1.57c-0.28-0.5-0.69-0.81-1.25-0.96c-0.55-0.15-1.07-0.08-1.56,0.19
		C438.7,176.31,438.38,176.73,438.23,177.28z"/>
	<path d="M443.4,165.6l3.65,0.98l-0.53,1.99l-3.78-1.01c-0.55-0.15-0.96-0.21-1.2-0.18c-0.24,0.03-0.45,0.13-0.64,0.29
		c-0.18,0.17-0.3,0.37-0.36,0.59c-0.12,0.45,0.02,0.99,0.4,1.36c0.19,0.19,0.61,0.37,1.24,0.53l3.65,0.98l-0.53,1.99l-7.11-1.91
		l0.53-1.99l0.83,0.22c-0.53-0.8-0.68-1.65-0.44-2.55c0.24-0.9,0.86-1.49,1.86-1.76c-0.71-0.79-0.95-1.66-0.69-2.62
		c0.25-0.95,0.78-1.54,1.58-1.78c0.48-0.14,1.08-0.11,1.83,0.08l4.59,1.23l-0.53,1.99l-3.89-1.04c-0.51-0.14-0.91-0.18-1.18-0.15
		c-0.47,0.07-0.76,0.35-0.89,0.83C441.52,164.6,442.06,165.24,443.4,165.6z"/>
	<path d="M447.41,152.29l-1.43,5.33c1.29,0.29,2.08-0.12,2.37-1.23c0.18-0.69,0.01-1.34-0.5-1.95l0.79-1.76
		c1.31,1.01,1.74,2.37,1.29,4.08c-0.31,1.16-0.9,1.99-1.78,2.5c-0.88,0.51-1.88,0.61-3.03,0.31c-1.15-0.31-1.97-0.89-2.48-1.75
		s-0.61-1.86-0.31-2.99c0.3-1.13,0.89-1.93,1.74-2.4c0.86-0.47,1.88-0.54,3.08-0.22L447.41,152.29z M444.73,157.22l0.9-3.37
		c-1-0.04-1.62,0.41-1.86,1.31C443.54,156.04,443.88,156.81,444.73,157.22z"/>
	<path d="M443.94,149.74l0.53-1.99l0.89,0.24c-0.65-0.83-0.78-1.57-0.52-2.53c0.23-0.87,0.7-1.49,1.41-1.84
		c0.53-0.26,1.23-0.27,2.12-0.03l4.51,1.21l-0.53,1.99l-3.94-1.06c-0.54-0.15-0.95-0.19-1.2-0.11c-0.43,0.11-0.72,0.44-0.87,1.01
		c-0.27,1,0.25,1.68,1.57,2.04l3.68,0.99l-0.53,1.99L443.94,149.74z"/>
	<path d="M448.54,139.45l5.39,1.44l-0.53,1.99l-5.39-1.44l-0.21,0.79l-1.72-0.46l0.21-0.79l-2.43-0.65l0.53-1.99l2.43,0.65
		l0.38-1.41l1.72,0.46L448.54,139.45z"/>
</g>
<circle fill="#FFFFFF" stroke="#000000" stroke-width="3" stroke-miterlimit="10" cx="511.76" cy="228" r="10"/>
<g>
	<path d="M512.96,210.32l4.4,1.18l-0.57,2.13l-10.95-2.93l0.85-3.17c0.33-1.24,0.84-2.1,1.52-2.58c0.79-0.56,1.72-0.7,2.75-0.42
		c1.04,0.28,1.76,0.82,2.15,1.63c0.25,0.5,0.35,1.06,0.29,1.69l5.54-2.21l-0.71,2.63l-5.19,1.77L512.96,210.32z M511.45,209.92
		l0.17-0.63c0.36-1.35-0.05-2.25-1.12-2.53c-1.1-0.29-1.83,0.24-2.19,1.61l-0.18,0.66L511.45,209.92z"/>
	<path d="M508.18,200.5c0.09-0.33,0.28-0.58,0.57-0.75c0.29-0.17,0.61-0.21,0.93-0.12c0.33,0.09,0.58,0.29,0.76,0.58
		c0.18,0.3,0.22,0.62,0.13,0.95s-0.28,0.58-0.58,0.75c-0.29,0.17-0.62,0.21-0.94,0.12c-0.33-0.09-0.59-0.29-0.75-0.59
		C508.13,201.15,508.1,200.83,508.18,200.5z M512.65,200.65l7.11,1.91l-0.53,1.98l-7.11-1.91L512.65,200.65z"/>
	<path d="M509.42,191.94l0.53-1.99l12.3,3.3l-0.53,1.99l-0.92-0.25c0.6,0.82,0.77,1.71,0.51,2.68c-0.26,0.97-0.84,1.69-1.74,2.16
		c-0.9,0.47-1.89,0.57-2.95,0.28c-1.07-0.29-1.88-0.87-2.43-1.73c-0.55-0.86-0.69-1.77-0.44-2.71c0.25-0.95,0.85-1.64,1.79-2.1
		L509.42,191.94z M515.7,195.52c-0.15,0.56-0.08,1.08,0.2,1.57c0.28,0.5,0.7,0.82,1.25,0.96c0.55,0.15,1.08,0.08,1.57-0.21
		c0.5-0.29,0.81-0.7,0.96-1.25s0.08-1.07-0.21-1.57c-0.28-0.5-0.69-0.81-1.25-0.96c-0.55-0.15-1.07-0.08-1.56,0.19
		C516.17,194.54,515.85,194.96,515.7,195.52z"/>
	<path d="M521.41,183.49l-1.43,5.33c1.29,0.29,2.08-0.12,2.37-1.23c0.18-0.69,0.01-1.34-0.5-1.95l0.79-1.76
		c1.31,1.01,1.74,2.37,1.29,4.07c-0.31,1.16-0.9,1.99-1.78,2.51c-0.88,0.51-1.88,0.61-3.03,0.3c-1.15-0.31-1.97-0.89-2.48-1.75
		s-0.61-1.86-0.31-2.99c0.3-1.13,0.89-1.93,1.74-2.39c0.86-0.47,1.88-0.54,3.08-0.22L521.41,183.49z M518.73,188.41l0.9-3.37
		c-1-0.04-1.62,0.41-1.86,1.31C517.53,187.23,517.88,188.01,518.73,188.41z"/>
	<path d="M519.39,175.49l0.53-1.99l7.11,1.91l-0.53,1.99l-0.92-0.25c0.6,0.82,0.77,1.71,0.51,2.68s-0.84,1.69-1.74,2.16
		c-0.9,0.47-1.89,0.57-2.95,0.28c-1.07-0.29-1.88-0.87-2.43-1.73c-0.55-0.86-0.7-1.77-0.44-2.71s0.85-1.64,1.79-2.1L519.39,175.49z
		 M520.48,177.68c-0.15,0.56-0.08,1.08,0.2,1.57c0.28,0.5,0.7,0.82,1.25,0.96c0.55,0.15,1.08,0.08,1.57-0.21
		c0.5-0.29,0.81-0.7,0.96-1.25s0.08-1.07-0.21-1.57c-0.28-0.5-0.69-0.81-1.25-0.96c-0.55-0.15-1.07-0.08-1.56,0.19
		C520.95,176.7,520.63,177.12,520.48,177.68z"/>
	<path d="M520.96,169.61l4.03,1.08c1.08,0.29,1.76-0.04,2.02-1.02c0.26-0.97-0.16-1.6-1.24-1.89l-4.03-1.08l0.53-1.99l4.35,1.17
		c1.92,0.52,2.66,2.02,2.07,4.23c-0.59,2.21-1.99,3.16-3.91,2.65l-4.35-1.17L520.96,169.61z"/>
</g>
<circle fill="#FFFFFF" stroke="#000000" stroke-width="3" stroke-miterlimit="10" cx="594.12" cy="228" r="10"/>
<g>
	<path d="M592.48,210.05l4.03,1.08c1.08,0.29,1.76-0.05,2.02-1.02c0.26-0.97-0.16-1.6-1.24-1.89l-4.03-1.08l0.53-1.99l4.35,1.17
		c1.92,0.52,2.66,2.02,2.07,4.23s-1.99,3.16-3.91,2.65l-4.35-1.17L592.48,210.05z"/>
	<path d="M591.72,196.53c0.44-1.63,1.36-2.85,2.77-3.68c1.41-0.83,2.92-1.03,4.54-0.6c1.61,0.43,2.81,1.36,3.61,2.8
		c0.79,1.43,0.96,2.97,0.52,4.62c-0.44,1.65-1.37,2.88-2.78,3.7c-1.41,0.82-2.92,1.01-4.52,0.58s-2.8-1.37-3.6-2.81
		C591.47,199.69,591.29,198.16,591.72,196.53z M593.67,197.08c-0.27,1-0.13,1.97,0.41,2.88c0.54,0.92,1.33,1.52,2.37,1.8
		s2.03,0.16,2.96-0.36c0.93-0.52,1.53-1.27,1.8-2.29c0.27-1.01,0.13-1.97-0.41-2.89c-0.55-0.91-1.34-1.5-2.38-1.78
		c-1.04-0.28-2.03-0.16-2.95,0.35C594.54,195.31,593.94,196.07,593.67,197.08z"/>
	<path d="M600.08,188.6l5.39,1.44l-0.53,1.99l-5.39-1.44l-0.21,0.79l-1.72-0.46l0.21-0.79l-2.43-0.65l0.53-1.99l2.43,0.65l0.38-1.41
		l1.72,0.46L600.08,188.6z"/>
	<path d="M601.38,183.73l5.39,1.44l-0.53,1.99l-5.39-1.44l-0.21,0.79l-1.72-0.46l0.21-0.79l-2.43-0.65l0.53-1.99l2.43,0.65
		l0.38-1.41l1.72,0.46L601.38,183.73z"/>
	<path d="M601.77,175.37l0.53-1.99l7.11,1.91l-0.53,1.99l-0.92-0.25c0.6,0.82,0.77,1.71,0.51,2.68s-0.84,1.69-1.74,2.16
		c-0.9,0.47-1.89,0.57-2.95,0.28c-1.07-0.29-1.88-0.86-2.43-1.73c-0.55-0.86-0.69-1.77-0.44-2.71c0.25-0.95,0.85-1.64,1.79-2.1
		L601.77,175.37z M602.86,177.56c-0.15,0.56-0.08,1.09,0.2,1.57c0.28,0.5,0.7,0.82,1.25,0.96c0.55,0.15,1.08,0.08,1.57-0.21
		c0.5-0.29,0.81-0.7,0.96-1.25s0.08-1.07-0.21-1.57c-0.28-0.5-0.69-0.81-1.25-0.96c-0.55-0.15-1.07-0.08-1.56,0.19
		C603.33,176.58,603.01,177,602.86,177.56z"/>
	<path d="M603.17,170.16l4.61-0.77L604,166.3l0.23-0.85l4.88-0.77l-3.66-3.02l0.59-2.22l6.27,5.62l-0.24,0.9l-4.83,0.77l3.81,3.05
		l-0.25,0.91l-8.23,1.7L603.17,170.16z"/>
	<path d="M607.67,153.38l0.53-1.99l7.11,1.91l-0.53,1.99l-0.92-0.25c0.6,0.82,0.77,1.71,0.51,2.68s-0.84,1.69-1.74,2.16
		c-0.9,0.47-1.89,0.57-2.95,0.28s-1.88-0.87-2.43-1.73c-0.55-0.86-0.7-1.77-0.44-2.71c0.25-0.95,0.85-1.64,1.79-2.1L607.67,153.38z
		 M608.75,155.57c-0.15,0.56-0.08,1.08,0.2,1.57c0.28,0.5,0.7,0.82,1.25,0.96c0.55,0.15,1.08,0.08,1.57-0.21
		c0.5-0.29,0.82-0.7,0.96-1.25c0.15-0.54,0.08-1.07-0.21-1.57c-0.28-0.5-0.69-0.81-1.25-0.96c-0.55-0.15-1.07-0.08-1.56,0.19
		C609.22,154.6,608.9,155.02,608.75,155.57z"/>
</g>
<circle fill="#FFFFFF" stroke="#000000" stroke-width="3" stroke-miterlimit="10" cx="676.47" cy="228" r="10"/>
<g>
	<path d="M671.12,208.57l9.1,2.44l0.9-3.37l1.85,0.5l-1.47,5.5l-10.95-2.93L671.12,208.57z"/>
	<path d="M681.95,199.02l-1.43,5.33c1.29,0.29,2.08-0.12,2.37-1.23c0.18-0.69,0.01-1.34-0.5-1.95l0.79-1.76
		c1.31,1.01,1.74,2.37,1.29,4.08c-0.31,1.16-0.9,1.99-1.78,2.5c-0.88,0.51-1.88,0.61-3.03,0.31c-1.15-0.31-1.97-0.89-2.48-1.75
		c-0.51-0.87-0.61-1.86-0.31-2.99c0.3-1.13,0.89-1.93,1.74-2.4c0.86-0.47,1.88-0.54,3.08-0.22L681.95,199.02z M679.27,203.94
		l0.9-3.37c-1-0.04-1.62,0.41-1.86,1.31C678.08,202.76,678.42,203.54,679.27,203.94z"/>
	<path d="M684.23,190.52l-1.43,5.33c1.29,0.29,2.08-0.12,2.37-1.23c0.18-0.69,0.01-1.34-0.5-1.95l0.79-1.76
		c1.31,1.01,1.74,2.37,1.29,4.08c-0.31,1.16-0.9,1.99-1.78,2.5c-0.88,0.51-1.88,0.61-3.03,0.31c-1.15-0.31-1.97-0.89-2.48-1.75
		c-0.51-0.87-0.61-1.86-0.31-2.99c0.3-1.13,0.89-1.93,1.74-2.4c0.86-0.47,1.88-0.54,3.08-0.22L684.23,190.52z M681.55,195.45
		l0.9-3.37c-1-0.04-1.62,0.41-1.86,1.31C680.35,194.27,680.7,195.04,681.55,195.45z"/>
	<path d="M683.42,184.64c-0.42,0.33-0.68,0.64-0.76,0.94c-0.08,0.3-0.08,0.53-0.01,0.71c0.08,0.18,0.21,0.29,0.37,0.34
		s0.32,0.01,0.47-0.11c0.14-0.12,0.38-0.44,0.72-0.94s0.64-0.87,0.92-1.08c0.5-0.42,1.11-0.54,1.82-0.35
		c0.71,0.19,1.24,0.63,1.56,1.31c0.33,0.69,0.38,1.48,0.14,2.35c-0.29,1.07-0.92,1.87-1.91,2.38l-0.93-1.37
		c0.7-0.4,1.13-0.89,1.29-1.46c0.13-0.5-0.11-1-0.54-1.11c-0.22-0.06-0.39-0.04-0.54,0.07c-0.14,0.11-0.39,0.42-0.76,0.94
		c-0.36,0.52-0.66,0.87-0.88,1.04c-0.46,0.38-1.01,0.49-1.67,0.31c-0.67-0.18-1.14-0.56-1.43-1.16c-0.3-0.59-0.33-1.28-0.12-2.09
		s0.67-1.47,1.36-2.02L683.42,184.64z"/>
</g>
<circle fill="#FFFFFF" stroke="#000000" stroke-width="3" stroke-miterlimit="10" cx="758.82" cy="228" r="10"/>
<g>
	<path d="M757.7,209.7l1.24-4.63l-4.23-1.13l0.57-2.14l10.95,2.93l-0.57,2.14l-4.86-1.3l-1.24,4.63l4.86,1.3l-0.57,2.13l-10.95-2.93
		l0.57-2.13L757.7,209.7z"/>
	<path d="M760.24,198.64l4.03,1.08c1.08,0.29,1.76-0.04,2.02-1.02c0.26-0.97-0.16-1.6-1.24-1.89l-4.03-1.08l0.53-1.99l4.35,1.17
		c1.92,0.52,2.66,2.02,2.07,4.23c-0.59,2.21-1.99,3.16-3.91,2.65l-4.35-1.17L760.24,198.64z"/>
	<path d="M769.71,191.77l-0.53,1.99l-7.11-1.91l0.53-1.99l1.08,0.29c-0.74-0.72-1-1.53-0.75-2.42c0.08-0.28,0.21-0.55,0.41-0.82
		l1.78,0.78c-0.25,0.25-0.41,0.54-0.49,0.88c-0.31,1.14,0.26,1.9,1.67,2.28L769.71,191.77z"/>
	<path d="M759.9,179.16l0.53-1.99l12.3,3.3l-0.53,1.99l-0.92-0.25c0.6,0.82,0.77,1.71,0.51,2.68c-0.26,0.97-0.84,1.69-1.74,2.16
		c-0.9,0.47-1.89,0.57-2.95,0.28c-1.07-0.29-1.88-0.87-2.43-1.73c-0.55-0.86-0.7-1.77-0.44-2.71c0.25-0.95,0.85-1.64,1.79-2.1
		L759.9,179.16z M766.18,182.74c-0.15,0.56-0.08,1.09,0.2,1.57c0.28,0.5,0.7,0.82,1.25,0.96c0.55,0.15,1.08,0.08,1.57-0.21
		c0.5-0.29,0.81-0.7,0.96-1.25c0.15-0.54,0.08-1.07-0.21-1.57c-0.28-0.5-0.69-0.81-1.25-0.96c-0.55-0.15-1.07-0.08-1.56,0.19
		C766.65,181.77,766.33,182.19,766.18,182.74z"/>
	<path d="M771.35,171.06l3.65,0.98l-0.53,1.99l-3.78-1.01c-0.55-0.15-0.96-0.21-1.2-0.18c-0.24,0.03-0.45,0.13-0.64,0.29
		c-0.18,0.17-0.3,0.37-0.36,0.59c-0.12,0.45,0.02,0.98,0.4,1.36c0.19,0.19,0.61,0.37,1.24,0.53l3.65,0.98l-0.53,1.99l-7.11-1.91
		l0.53-1.99l0.83,0.22c-0.53-0.8-0.68-1.65-0.44-2.55c0.24-0.9,0.86-1.49,1.86-1.76c-0.71-0.79-0.95-1.66-0.69-2.62
		c0.25-0.96,0.78-1.54,1.58-1.78c0.48-0.14,1.08-0.11,1.83,0.08l4.59,1.23l-0.53,1.99l-3.89-1.04c-0.51-0.14-0.91-0.18-1.18-0.14
		c-0.47,0.07-0.76,0.35-0.89,0.83C769.47,170.06,770.01,170.7,771.35,171.06z"/>
	<path d="M771.07,158.25l0.53-1.99l7.11,1.91l-0.53,1.99l-0.92-0.25c0.6,0.82,0.77,1.71,0.51,2.68s-0.84,1.69-1.74,2.16
		c-0.9,0.47-1.89,0.57-2.95,0.28c-1.07-0.29-1.88-0.87-2.43-1.73c-0.55-0.86-0.7-1.77-0.44-2.71s0.85-1.64,1.79-2.1L771.07,158.25z
		 M772.16,160.44c-0.15,0.56-0.08,1.09,0.2,1.57c0.28,0.5,0.7,0.81,1.25,0.96s1.08,0.08,1.57-0.21c0.5-0.29,0.81-0.7,0.96-1.25
		c0.15-0.55,0.08-1.07-0.21-1.57c-0.28-0.5-0.69-0.81-1.25-0.96c-0.55-0.15-1.07-0.08-1.56,0.19
		C772.62,159.46,772.3,159.88,772.16,160.44z"/>
	<path d="M772.11,154.36l0.53-1.99l0.89,0.24c-0.65-0.83-0.78-1.57-0.52-2.53c0.23-0.87,0.7-1.49,1.41-1.84
		c0.53-0.26,1.23-0.27,2.12-0.03l4.51,1.21l-0.53,1.99l-3.94-1.06c-0.54-0.15-0.95-0.18-1.2-0.11c-0.43,0.11-0.72,0.44-0.87,1.01
		c-0.27,1,0.25,1.68,1.57,2.04l3.68,0.99l-0.53,1.99L772.11,154.36z"/>
</g>
<circle fill="#FFFFFF" stroke="#000000" stroke-width="3" stroke-miterlimit="10" cx="841.18" cy="228" r="10"/>
<g>
	<path d="M847.12,210.2l-0.57,2.14l-9.1-2.44l-0.65,2.45l-1.85-0.5l1.89-7.05l1.85,0.5l-0.66,2.46L847.12,210.2z"/>
	<path d="M848.47,205.17l-0.53,1.99l-7.11-1.91l0.53-1.99l1.08,0.29c-0.74-0.72-1-1.53-0.75-2.42c0.08-0.28,0.21-0.55,0.41-0.82
		l1.78,0.78c-0.25,0.25-0.41,0.54-0.49,0.88c-0.3,1.14,0.26,1.9,1.68,2.28L848.47,205.17z"/>
	<path d="M848.15,193.44l-1.43,5.33c1.29,0.29,2.08-0.12,2.37-1.23c0.18-0.69,0.01-1.34-0.5-1.95l0.79-1.76
		c1.31,1.01,1.74,2.37,1.29,4.08c-0.31,1.16-0.9,1.99-1.78,2.5c-0.88,0.51-1.88,0.61-3.03,0.31c-1.15-0.31-1.97-0.89-2.48-1.75
		c-0.51-0.87-0.61-1.86-0.31-2.99c0.3-1.13,0.89-1.93,1.74-2.4c0.86-0.47,1.88-0.54,3.08-0.22L848.15,193.44z M845.47,198.37
		l0.9-3.37c-1-0.04-1.62,0.41-1.86,1.31C844.28,197.19,844.62,197.96,845.47,198.37z"/>
	<path d="M849.89,185.29l3.65,0.98l-0.53,1.99l-3.78-1.01c-0.55-0.15-0.96-0.21-1.2-0.18c-0.24,0.03-0.46,0.13-0.64,0.29
		c-0.18,0.17-0.3,0.37-0.36,0.59c-0.12,0.45,0.02,0.99,0.4,1.36c0.19,0.19,0.61,0.37,1.24,0.53l3.65,0.98l-0.53,1.99l-7.11-1.91
		l0.53-1.99l0.83,0.22c-0.53-0.8-0.68-1.65-0.44-2.55c0.24-0.9,0.86-1.49,1.86-1.76c-0.72-0.79-0.95-1.66-0.69-2.62
		c0.25-0.95,0.78-1.54,1.58-1.78c0.48-0.14,1.08-0.12,1.83,0.08l4.59,1.23l-0.53,1.99l-3.89-1.04c-0.51-0.14-0.91-0.18-1.18-0.14
		c-0.47,0.07-0.76,0.35-0.89,0.83C848.01,184.3,848.55,184.93,849.89,185.29z"/>
	<path d="M843.49,174.55l6.11,1.64c-0.58-0.87-0.75-1.78-0.5-2.73c0.25-0.95,0.83-1.65,1.73-2.12c0.9-0.47,1.89-0.56,2.97-0.27
		c1.08,0.29,1.89,0.86,2.44,1.72s0.68,1.77,0.42,2.74c-0.26,0.97-0.86,1.66-1.79,2.07l0.92,0.25l-0.53,1.99l-12.3-3.3L843.49,174.55
		z M850.72,174.58c-0.15,0.55-0.08,1.07,0.2,1.57c0.28,0.5,0.7,0.82,1.25,0.96s1.08,0.08,1.57-0.21c0.5-0.29,0.82-0.7,0.96-1.25
		c0.15-0.55,0.08-1.07-0.21-1.57c-0.28-0.5-0.69-0.82-1.25-0.97c-0.55-0.15-1.07-0.08-1.57,0.21
		C851.19,173.62,850.87,174.03,850.72,174.58z"/>
	<path d="M846,165.21l12.3,3.29l-0.53,1.99l-12.3-3.29L846,165.21z"/>
	<path d="M853.15,159.25l0.53-1.99l7.11,1.91l-0.53,1.99l-0.92-0.25c0.6,0.82,0.77,1.71,0.51,2.68s-0.84,1.69-1.74,2.16
		c-0.9,0.47-1.89,0.57-2.95,0.28c-1.07-0.29-1.88-0.87-2.43-1.73c-0.55-0.86-0.69-1.77-0.44-2.71c0.25-0.95,0.85-1.64,1.79-2.1
		L853.15,159.25z M854.24,161.44c-0.15,0.56-0.08,1.08,0.2,1.57c0.28,0.5,0.7,0.82,1.25,0.96c0.55,0.15,1.08,0.08,1.57-0.21
		c0.5-0.29,0.81-0.7,0.96-1.25s0.08-1.07-0.21-1.57c-0.28-0.5-0.69-0.81-1.25-0.96c-0.55-0.15-1.07-0.08-1.56,0.19
		C854.71,160.47,854.39,160.89,854.24,161.44z"/>
	<path d="M860.88,154.53l-6.93,1.75l0.62-2.32l4.61-1.05l-3.5-3.1l0.61-2.29l9.36,8.67l-0.6,2.25L860.88,154.53z"/>
</g>
<circle fill="#FFFFFF" stroke="#000000" stroke-width="3" stroke-miterlimit="10" cx="923.53" cy="228" r="10"/>
<g>
	<path d="M920.94,209.41c0.31,0.08,0.6,0.04,0.85-0.14c0.26-0.18,0.66-0.65,1.21-1.42c0.55-0.77,1.04-1.3,1.49-1.6
		c0.72-0.5,1.59-0.61,2.62-0.34s1.79,0.86,2.27,1.73c0.48,0.88,0.57,1.89,0.26,3.03c-0.42,1.55-1.45,2.61-3.09,3.2l-0.96-1.74
		c1.11-0.25,1.8-0.88,2.07-1.9c0.13-0.49,0.1-0.94-0.11-1.33c-0.21-0.39-0.53-0.65-0.99-0.77c-0.46-0.12-0.87-0.03-1.25,0.29
		c-0.19,0.15-0.57,0.64-1.14,1.46c-0.57,0.82-1.14,1.37-1.69,1.66s-1.19,0.33-1.91,0.14c-0.92-0.25-1.6-0.77-2.02-1.58
		s-0.51-1.7-0.25-2.69c0.33-1.22,1.02-2.18,2.08-2.9l1.16,1.51c-0.73,0.36-1.19,0.88-1.36,1.54c-0.12,0.44-0.1,0.83,0.06,1.19
		C920.38,209.11,920.63,209.33,920.94,209.41z"/>
	<path d="M926.02,201.55l5.39,1.44l-0.53,1.99l-5.39-1.44l-0.21,0.79l-1.72-0.46l0.21-0.79l-2.43-0.65l0.53-1.99l2.43,0.65
		l0.38-1.41l1.72,0.46L926.02,201.55z"/>
	<path d="M927.35,199.77l0.99-3.7l1.65,0.44l-0.99,3.7L927.35,199.77z"/>
	<path d="M922.89,190.97l9.1,2.44l0.9-3.37l1.85,0.5l-1.47,5.5l-10.95-2.93L922.89,190.97z"/>
	<path d="M929.43,181.92l0.53-1.99l7.11,1.91l-0.53,1.99l-0.92-0.25c0.6,0.82,0.77,1.71,0.51,2.68c-0.26,0.97-0.84,1.69-1.74,2.16
		c-0.9,0.47-1.89,0.57-2.95,0.28c-1.07-0.29-1.88-0.87-2.43-1.73c-0.55-0.86-0.7-1.77-0.44-2.71c0.25-0.95,0.85-1.64,1.79-2.1
		L929.43,181.92z M930.52,184.12c-0.15,0.56-0.08,1.09,0.2,1.57c0.28,0.5,0.7,0.82,1.25,0.96c0.55,0.15,1.08,0.08,1.57-0.21
		c0.5-0.29,0.82-0.7,0.96-1.25c0.15-0.54,0.08-1.07-0.21-1.57c-0.28-0.5-0.69-0.81-1.25-0.96c-0.55-0.15-1.07-0.08-1.56,0.19
		C930.99,183.14,930.67,183.56,930.52,184.12z"/>
	<path d="M931,176.05l4.03,1.08c1.08,0.29,1.76-0.04,2.02-1.01c0.26-0.97-0.16-1.6-1.24-1.89l-4.03-1.08l0.53-1.99l4.35,1.17
		c1.92,0.52,2.66,2.02,2.07,4.23s-1.99,3.16-3.91,2.65l-4.35-1.17L931,176.05z"/>
	<path d="M940.47,169.17l-0.53,1.99l-7.11-1.91l0.53-1.99l1.08,0.29c-0.74-0.72-1-1.53-0.75-2.42c0.08-0.28,0.21-0.55,0.41-0.82
		l1.78,0.78c-0.25,0.25-0.41,0.54-0.49,0.88c-0.3,1.14,0.26,1.9,1.68,2.28L940.47,169.17z"/>
	<path d="M940.15,157.44l-1.43,5.33c1.29,0.29,2.08-0.12,2.37-1.23c0.19-0.69,0.02-1.34-0.5-1.95l0.79-1.76
		c1.31,1.01,1.74,2.36,1.29,4.07c-0.31,1.16-0.9,1.99-1.78,2.5c-0.88,0.51-1.88,0.61-3.03,0.31c-1.15-0.31-1.97-0.89-2.48-1.75
		c-0.51-0.87-0.61-1.86-0.31-2.99s0.89-1.93,1.74-2.4c0.86-0.47,1.88-0.54,3.08-0.22L940.15,157.44z M937.47,162.37l0.9-3.37
		c-1-0.03-1.62,0.41-1.86,1.31C936.27,161.19,936.62,161.96,937.47,162.37z"/>
	<path d="M936.67,154.9l0.53-1.99l0.89,0.24c-0.65-0.83-0.78-1.57-0.52-2.53c0.23-0.87,0.7-1.49,1.41-1.84
		c0.53-0.26,1.23-0.27,2.12-0.03l4.51,1.21l-0.53,1.99l-3.95-1.06c-0.54-0.15-0.95-0.18-1.2-0.11c-0.43,0.11-0.72,0.44-0.87,1.01
		c-0.27,1,0.25,1.68,1.57,2.04l3.68,0.99l-0.53,1.99L936.67,154.9z"/>
	<path d="M941.28,144.61l5.39,1.44l-0.53,1.99l-5.39-1.44l-0.21,0.79l-1.72-0.46l0.21-0.79l-2.43-0.65l0.53-1.99l2.43,0.65
		l0.38-1.41l1.72,0.46L941.28,144.61z"/>
</g>
<circle fill="#FFFFFF" stroke="#000000" stroke-width="3" stroke-miterlimit="10" cx="1005.88" cy="228" r="10"/>
<g>
	<path d="M1005.02,203.59c-1.05,0.61-1.7,1.41-1.96,2.39c-0.26,0.98-0.12,1.91,0.43,2.8c0.54,0.89,1.36,1.48,2.42,1.77
		c1.07,0.29,2.05,0.18,2.95-0.33c0.9-0.5,1.48-1.27,1.76-2.3c0.14-0.51,0.17-0.99,0.09-1.44c-0.08-0.45-0.27-0.95-0.58-1.51
		l2.51,0.67c0.18,1.04,0.16,1.98-0.08,2.85c-0.43,1.62-1.35,2.84-2.74,3.66c-1.4,0.82-2.89,1.02-4.48,0.6
		c-1.6-0.43-2.8-1.35-3.63-2.79c-0.83-1.43-1.02-2.95-0.6-4.54c0.24-0.89,0.7-1.72,1.39-2.5L1005.02,203.59z"/>
	<path d="M1012.96,201.63l-6.93,1.75l0.62-2.32l4.61-1.05l-3.5-3.1l0.61-2.29l9.36,8.67l-0.6,2.25L1012.96,201.63z"/>
	<path d="M1016.28,193.58l-0.53,1.99l-7.11-1.91l0.53-1.99l1.08,0.29c-0.74-0.72-1-1.53-0.75-2.42c0.08-0.28,0.21-0.55,0.41-0.82
		l1.78,0.78c-0.25,0.25-0.41,0.54-0.5,0.88c-0.3,1.14,0.26,1.9,1.68,2.28L1016.28,193.58z"/>
	<path d="M1010.7,185.95l4.53-0.79l-3.53-2.93l0.6-2.24l6.27,5.61l-0.24,0.9l-8.23,1.69L1010.7,185.95z"/>
	<path d="M1008.65,176.82c0.09-0.33,0.28-0.58,0.57-0.75c0.29-0.17,0.61-0.21,0.93-0.12c0.33,0.09,0.59,0.29,0.76,0.58
		c0.18,0.3,0.22,0.62,0.13,0.95c-0.09,0.33-0.28,0.58-0.58,0.75c-0.29,0.17-0.62,0.21-0.94,0.13c-0.33-0.09-0.59-0.29-0.75-0.59
		C1008.59,177.47,1008.56,177.15,1008.65,176.82z M1013.11,176.98l7.11,1.91l-0.53,1.98l-7.11-1.91L1013.11,176.98z"/>
	<path d="M1008.96,171.72l12.3,3.3l-0.53,1.99l-12.3-3.3L1008.96,171.72z"/>
	<path d="M1010,167.83l12.3,3.3l-0.53,1.99l-12.3-3.3L1010,167.83z"/>
	<path d="M1021.45,161.37l-1.43,5.33c1.29,0.29,2.08-0.12,2.37-1.23c0.19-0.69,0.02-1.34-0.5-1.95l0.79-1.76
		c1.31,1.01,1.74,2.37,1.29,4.07c-0.31,1.16-0.9,1.99-1.78,2.51c-0.88,0.51-1.88,0.61-3.03,0.3c-1.15-0.31-1.97-0.89-2.48-1.75
		c-0.51-0.87-0.61-1.86-0.31-2.99c0.3-1.13,0.89-1.93,1.74-2.39c0.86-0.47,1.88-0.54,3.08-0.22L1021.45,161.37z M1018.77,166.3
		l0.9-3.37c-1-0.03-1.62,0.41-1.86,1.31C1017.58,165.12,1017.92,165.89,1018.77,166.3z"/>
</g>
<circle fill="#FFFFFF" stroke="#000000" stroke-width="3" stroke-miterlimit="10" cx="1088.24" cy="228" r="10"/>
<g>
	<path d="M1093.26,213.63l-10.95-2.93l0.72-2.71c0.33-1.23,0.79-2.07,1.38-2.49c0.69-0.52,1.52-0.65,2.49-0.39
		c0.6,0.16,1.09,0.44,1.45,0.83c0.17,0.21,0.31,0.53,0.45,0.96c0.32-0.62,0.68-1.03,1.07-1.24c0.66-0.38,1.44-0.46,2.33-0.22
		c0.89,0.24,1.53,0.76,1.93,1.54c0.4,0.79,0.43,1.78,0.11,2.97L1093.26,213.63z M1087.45,209.79l0.16-0.61
		c0.3-1.11-0.03-1.79-0.97-2.04s-1.57,0.16-1.86,1.25l-0.17,0.64L1087.45,209.79z M1092.11,211.04l0.25-0.92
		c0.38-1.42,0.07-2.27-0.94-2.54c-0.55-0.15-1.02-0.04-1.39,0.32c-0.29,0.26-0.54,0.77-0.74,1.53l-0.21,0.8L1092.11,211.04z"/>
	<path d="M1083.92,199.3l12.3,3.3l-0.53,1.99l-12.3-3.3L1083.92,199.3z"/>
	<path d="M1091.08,193.34l0.53-1.99l7.11,1.91l-0.53,1.99l-0.92-0.25c0.6,0.82,0.77,1.71,0.51,2.68c-0.26,0.97-0.84,1.69-1.74,2.16
		c-0.9,0.47-1.89,0.57-2.96,0.28c-1.07-0.29-1.88-0.87-2.43-1.73c-0.55-0.86-0.7-1.77-0.44-2.71s0.85-1.65,1.79-2.1L1091.08,193.34z
		 M1092.17,195.53c-0.15,0.56-0.09,1.09,0.2,1.57c0.28,0.5,0.7,0.82,1.25,0.96s1.08,0.08,1.57-0.21c0.5-0.29,0.81-0.7,0.96-1.25
		c0.14-0.55,0.08-1.07-0.21-1.57c-0.28-0.5-0.69-0.81-1.25-0.96s-1.07-0.08-1.56,0.19C1092.63,194.56,1092.31,194.98,1092.17,195.53
		z"/>
	<path d="M1088.18,187.35c0.09-0.33,0.28-0.58,0.57-0.75s0.61-0.21,0.93-0.12c0.33,0.09,0.59,0.29,0.76,0.58
		c0.18,0.3,0.22,0.62,0.13,0.95c-0.09,0.33-0.28,0.58-0.58,0.75c-0.29,0.17-0.62,0.21-0.94,0.13c-0.33-0.09-0.59-0.29-0.75-0.59
		C1088.13,188,1088.09,187.68,1088.18,187.35z M1092.64,187.5l7.11,1.91l-0.53,1.98l-7.11-1.91L1092.64,187.5z"/>
	<path d="M1100.79,185.55l-0.53,1.99l-7.11-1.91l0.53-1.99l1.08,0.29c-0.74-0.72-1-1.53-0.75-2.42c0.07-0.28,0.21-0.55,0.41-0.82
		l1.78,0.78c-0.25,0.25-0.41,0.54-0.49,0.88c-0.3,1.14,0.26,1.9,1.68,2.28L1100.79,185.55z"/>
</g>
<circle fill="#FFFFFF" stroke="#000000" stroke-width="3" stroke-miterlimit="10" cx="1170.59" cy="228" r="10"/>
<g>
	<path d="M1175.46,214.23l-10.61-5.03l0.39-1.46l7.96-1.07l-6.33-5.02l0.39-1.48l11.64,1.16l-0.58,2.16l-7.01-0.82l6.09,4.85
		l-0.16,0.59l-7.68,1.06l6.46,2.91L1175.46,214.23z"/>
	<path d="M1173.01,194.02c0.32-1.19,0.93-2.07,1.83-2.63c0.9-0.56,1.91-0.69,3.03-0.39c1.12,0.3,1.94,0.92,2.43,1.86
		c0.49,0.95,0.58,2.02,0.26,3.23s-0.95,2.08-1.86,2.64c-0.91,0.55-1.92,0.68-3.03,0.38c-1.11-0.3-1.92-0.93-2.41-1.87
		C1172.77,196.29,1172.69,195.21,1173.01,194.02z M1174.79,194.52c-0.15,0.55-0.08,1.08,0.2,1.57c0.28,0.5,0.7,0.82,1.25,0.97
		c0.55,0.15,1.08,0.08,1.57-0.21c0.5-0.29,0.82-0.71,0.96-1.26c0.15-0.55,0.08-1.09-0.2-1.58c-0.28-0.5-0.69-0.81-1.25-0.96
		c-0.55-0.15-1.07-0.08-1.57,0.21C1175.26,193.55,1174.94,193.97,1174.79,194.52z"/>
	<path d="M1174.72,188.52l0.53-1.99l0.89,0.24c-0.65-0.83-0.78-1.57-0.52-2.53c0.23-0.87,0.7-1.49,1.41-1.84
		c0.53-0.26,1.23-0.27,2.12-0.03l4.51,1.21l-0.53,1.99l-3.94-1.06c-0.54-0.15-0.95-0.19-1.2-0.11c-0.43,0.11-0.72,0.44-0.87,1.01
		c-0.27,1,0.25,1.68,1.57,2.04l3.68,0.99l-0.53,1.99L1174.72,188.52z"/>
	<path d="M1179.33,178.22l5.39,1.44l-0.53,1.99l-5.39-1.44l-0.21,0.79l-1.72-0.46l0.21-0.79l-2.43-0.65l0.53-1.99l2.43,0.65
		l0.38-1.41l1.72,0.46L1179.33,178.22z"/>
	<path d="M1185.93,175.13l-0.53,1.99l-7.11-1.91l0.53-1.99l1.08,0.29c-0.74-0.72-1-1.53-0.75-2.42c0.08-0.28,0.21-0.55,0.41-0.82
		l1.78,0.78c-0.25,0.25-0.41,0.54-0.49,0.88c-0.31,1.14,0.25,1.9,1.67,2.28L1185.93,175.13z"/>
	<path d="M1177.9,162.81l1.56,3.06l-0.91,0.78l-1.96-2.62L1177.9,162.81z M1185.61,163.4l-1.43,5.33c1.29,0.29,2.08-0.12,2.37-1.23
		c0.18-0.69,0.01-1.34-0.5-1.95l0.79-1.76c1.31,1.01,1.74,2.36,1.29,4.08c-0.31,1.16-0.9,1.99-1.78,2.5
		c-0.88,0.51-1.88,0.61-3.03,0.31c-1.15-0.31-1.97-0.89-2.48-1.76c-0.51-0.87-0.61-1.86-0.31-2.99c0.3-1.13,0.89-1.93,1.74-2.39
		c0.86-0.47,1.88-0.54,3.08-0.22L1185.61,163.4z M1182.93,168.33l0.9-3.37c-1-0.04-1.62,0.41-1.87,1.31
		C1181.74,167.15,1182.08,167.92,1182.93,168.33z"/>
	<path d="M1183.6,155.4l0.53-1.99l7.11,1.91l-0.53,1.99l-0.92-0.25c0.6,0.82,0.77,1.71,0.51,2.68c-0.26,0.97-0.84,1.69-1.74,2.16
		c-0.9,0.47-1.89,0.57-2.95,0.28c-1.07-0.29-1.88-0.87-2.43-1.73c-0.55-0.86-0.7-1.77-0.44-2.71s0.85-1.64,1.79-2.1L1183.6,155.4z
		 M1184.68,157.59c-0.15,0.56-0.08,1.09,0.2,1.57c0.28,0.5,0.7,0.82,1.25,0.96c0.55,0.15,1.08,0.08,1.57-0.21
		c0.5-0.29,0.81-0.7,0.96-1.25s0.08-1.07-0.21-1.57c-0.28-0.5-0.69-0.81-1.25-0.96c-0.55-0.15-1.07-0.08-1.56,0.19
		C1185.15,156.62,1184.83,157.04,1184.68,157.59z"/>
	<path d="M1179.98,148.13l12.3,3.3l-0.53,1.99l-12.3-3.29L1179.98,148.13z"/>
</g>
<circle fill="#FFFFFF" stroke="#000000" stroke-width="3" stroke-miterlimit="10" cx="1252.94" cy="228" r="10"/>
<g>
	<path d="M1248.17,206.38l7.39,1.98c1.44,0.38,2.37,0.98,2.81,1.79c0.36,0.69,0.41,1.48,0.17,2.37c-0.24,0.89-0.8,1.62-1.69,2.16
		l-1.22-1.69c0.49-0.17,0.8-0.48,0.92-0.94c0.12-0.46-0.01-0.82-0.41-1.09c-0.24-0.17-0.74-0.35-1.5-0.56l-7.05-1.89L1248.17,206.38
		z"/>
	<path d="M1258.36,199.25l-1.43,5.33c1.29,0.29,2.08-0.12,2.37-1.23c0.18-0.69,0.01-1.34-0.5-1.95l0.79-1.76
		c1.31,1.01,1.74,2.37,1.29,4.07c-0.31,1.16-0.9,1.99-1.78,2.51c-0.88,0.51-1.88,0.61-3.03,0.3c-1.15-0.31-1.97-0.89-2.48-1.75
		c-0.51-0.87-0.61-1.86-0.31-2.99c0.3-1.13,0.89-1.93,1.74-2.39c0.86-0.47,1.88-0.54,3.08-0.22L1258.36,199.25z M1255.68,204.18
		l0.9-3.37c-1-0.04-1.62,0.41-1.86,1.31C1254.49,203,1254.83,203.77,1255.68,204.18z"/>
	<path d="M1256.34,191.25l0.53-1.99l7.11,1.91l-0.53,1.99l-0.92-0.25c0.6,0.82,0.77,1.71,0.51,2.68c-0.26,0.97-0.84,1.69-1.74,2.16
		c-0.9,0.47-1.89,0.57-2.95,0.28c-1.07-0.29-1.88-0.87-2.43-1.73c-0.55-0.86-0.7-1.77-0.44-2.71c0.25-0.95,0.85-1.64,1.79-2.1
		L1256.34,191.25z M1257.43,193.44c-0.15,0.56-0.08,1.08,0.2,1.57c0.28,0.5,0.7,0.82,1.25,0.96c0.55,0.15,1.08,0.08,1.57-0.21
		c0.5-0.29,0.81-0.7,0.96-1.25c0.15-0.54,0.08-1.07-0.21-1.57c-0.28-0.5-0.69-0.81-1.25-0.96c-0.55-0.15-1.07-0.08-1.56,0.19
		C1257.9,192.47,1257.58,192.89,1257.43,193.44z"/>
	<path d="M1257.38,187.36l0.53-1.99l0.89,0.24c-0.65-0.83-0.78-1.57-0.52-2.53c0.23-0.87,0.7-1.49,1.41-1.84
		c0.53-0.26,1.23-0.27,2.12-0.03l4.51,1.21l-0.53,1.99l-3.94-1.06c-0.54-0.15-0.95-0.19-1.2-0.11c-0.43,0.11-0.72,0.44-0.87,1.01
		c-0.27,1,0.25,1.68,1.57,2.04l3.68,0.99l-0.53,1.99L1257.38,187.36z"/>
	<path d="M1259.73,178.61l0.53-1.99l0.89,0.24c-0.65-0.83-0.78-1.57-0.52-2.53c0.23-0.87,0.7-1.49,1.41-1.84
		c0.53-0.26,1.23-0.27,2.12-0.03l4.51,1.21l-0.53,1.99l-3.94-1.06c-0.54-0.15-0.95-0.19-1.2-0.11c-0.43,0.11-0.72,0.44-0.87,1.01
		c-0.27,1,0.25,1.68,1.57,2.04l3.68,0.99l-0.53,1.99L1259.73,178.61z"/>
	<path d="M1267.83,163.91l-1.43,5.33c1.29,0.29,2.08-0.12,2.37-1.23c0.18-0.69,0.01-1.34-0.5-1.95l0.79-1.76
		c1.31,1.01,1.74,2.37,1.29,4.08c-0.31,1.16-0.9,1.99-1.78,2.5c-0.88,0.51-1.88,0.61-3.03,0.31c-1.15-0.31-1.97-0.89-2.48-1.76
		c-0.51-0.87-0.61-1.86-0.31-2.99c0.3-1.13,0.89-1.93,1.74-2.39c0.86-0.47,1.88-0.54,3.08-0.22L1267.83,163.91z M1265.15,168.84
		l0.9-3.37c-1-0.04-1.62,0.41-1.86,1.31C1263.95,167.66,1264.3,168.43,1265.15,168.84z"/>
	<path d="M1261.72,150.42l0.53-1.99l12.3,3.29l-0.53,1.99l-0.92-0.25c0.6,0.82,0.77,1.71,0.51,2.68c-0.26,0.97-0.84,1.69-1.74,2.16
		c-0.9,0.47-1.89,0.57-2.95,0.28c-1.07-0.29-1.88-0.87-2.43-1.73c-0.55-0.86-0.7-1.77-0.44-2.71c0.25-0.95,0.85-1.65,1.79-2.1
		L1261.72,150.42z M1268,154c-0.15,0.56-0.08,1.09,0.2,1.57c0.28,0.5,0.7,0.82,1.25,0.96s1.08,0.08,1.57-0.21
		c0.5-0.29,0.82-0.7,0.96-1.25c0.15-0.54,0.08-1.07-0.21-1.57c-0.28-0.5-0.69-0.81-1.25-0.96c-0.55-0.15-1.07-0.08-1.56,0.19
		C1268.47,153.03,1268.15,153.45,1268,154z"/>
	<path d="M1264.21,145.66l0.71-1.77l3.75,3.49l-0.51,1.22L1264.21,145.66z"/>
	<path d="M1275.58,138.65l-1.2,4.48l2.05,1.61l-0.61,2.27l-9.91-7.74l0.43-1.61l12.42-1.6l-0.61,2.29L1275.58,138.65z
		 M1273.67,138.87l-4.35,0.48l3.51,2.64L1273.67,138.87z"/>
	<path d="M1279.55,133.08l-0.53,1.99l-7.11-1.91l0.53-1.99l1.08,0.29c-0.74-0.72-1-1.53-0.75-2.42c0.08-0.28,0.21-0.55,0.41-0.82
		l1.78,0.78c-0.25,0.25-0.41,0.54-0.49,0.88c-0.3,1.14,0.26,1.9,1.68,2.28L1279.55,133.08z"/>
	<path d="M1277.06,122.62c-0.55,0.41-0.9,0.9-1.05,1.47c-0.15,0.57-0.09,1.09,0.18,1.59c0.27,0.49,0.69,0.81,1.27,0.97
		c0.58,0.16,1.1,0.09,1.58-0.2c0.48-0.29,0.8-0.72,0.96-1.3c0.16-0.58,0.11-1.17-0.15-1.78l1.93,0.52c0.14,0.67,0.12,1.3-0.04,1.94
		c-0.3,1.11-0.9,1.93-1.83,2.48c-0.91,0.56-1.91,0.68-2.98,0.4c-1.07-0.29-1.87-0.91-2.41-1.85c-0.53-0.94-0.65-1.97-0.35-3.08
		c0.17-0.65,0.48-1.21,0.91-1.69L1277.06,122.62z"/>
</g>
<circle fill="#FFFFFF" stroke="#000000" stroke-width="3" stroke-miterlimit="10" cx="1335.29" cy="228" r="10"/>
<g>
	<path d="M1334.43,203.59c-1.05,0.61-1.7,1.41-1.96,2.39c-0.26,0.98-0.12,1.91,0.43,2.8c0.54,0.89,1.36,1.48,2.42,1.77
		c1.07,0.29,2.05,0.18,2.95-0.33c0.9-0.5,1.48-1.27,1.76-2.3c0.14-0.51,0.17-0.99,0.09-1.44c-0.08-0.45-0.27-0.95-0.58-1.51
		l2.51,0.67c0.18,1.04,0.16,1.98-0.08,2.85c-0.43,1.62-1.35,2.84-2.74,3.66c-1.4,0.82-2.89,1.02-4.48,0.6
		c-1.6-0.43-2.8-1.35-3.63-2.79c-0.83-1.43-1.02-2.95-0.6-4.54c0.24-0.89,0.7-1.72,1.39-2.5L1334.43,203.59z"/>
	<path d="M1336.53,198.42c0.32-1.2,0.93-2.07,1.83-2.63c0.9-0.56,1.91-0.69,3.04-0.39c1.12,0.3,1.94,0.92,2.43,1.86
		c0.49,0.95,0.58,2.02,0.26,3.23s-0.95,2.08-1.86,2.64c-0.91,0.55-1.92,0.68-3.03,0.38c-1.11-0.3-1.92-0.93-2.41-1.88
		C1336.29,200.7,1336.21,199.62,1336.53,198.42z M1338.32,198.92c-0.15,0.55-0.08,1.08,0.2,1.57c0.28,0.5,0.7,0.82,1.25,0.97
		s1.08,0.08,1.57-0.21c0.5-0.29,0.82-0.71,0.96-1.26c0.15-0.55,0.08-1.09-0.2-1.58c-0.28-0.5-0.69-0.81-1.25-0.96
		s-1.07-0.08-1.57,0.21C1338.78,197.95,1338.46,198.37,1338.32,198.92z"/>
	<path d="M1338.25,192.92l0.53-1.99l0.89,0.24c-0.65-0.83-0.78-1.57-0.52-2.53c0.23-0.87,0.7-1.49,1.41-1.84
		c0.53-0.26,1.23-0.27,2.12-0.03l4.51,1.21l-0.53,1.99l-3.95-1.06c-0.54-0.15-0.95-0.19-1.2-0.11c-0.43,0.11-0.72,0.44-0.87,1.01
		c-0.27,1,0.25,1.68,1.57,2.04l3.68,0.99l-0.53,1.99L1338.25,192.92z"/>
	<path d="M1340.87,183.15l4.53-0.79l-3.53-2.93l0.6-2.24l6.27,5.61l-0.24,0.9l-8.23,1.69L1340.87,183.15z"/>
	<path d="M1348.38,170.62l-1.43,5.33c1.29,0.29,2.08-0.12,2.37-1.23c0.18-0.69,0.01-1.34-0.5-1.95l0.79-1.76
		c1.31,1.01,1.74,2.37,1.29,4.08c-0.31,1.16-0.9,1.99-1.78,2.5c-0.88,0.51-1.88,0.61-3.03,0.3c-1.15-0.31-1.97-0.89-2.48-1.75
		c-0.51-0.87-0.61-1.86-0.31-2.99c0.3-1.13,0.89-1.93,1.74-2.4c0.86-0.47,1.88-0.54,3.08-0.22L1348.38,170.62z M1345.71,175.54
		l0.9-3.37c-1-0.04-1.62,0.41-1.87,1.31C1344.51,174.37,1344.85,175.14,1345.71,175.54z"/>
	<path d="M1344.91,168.07l0.53-1.99l0.89,0.24c-0.65-0.83-0.78-1.57-0.52-2.53c0.23-0.87,0.7-1.49,1.41-1.84
		c0.53-0.26,1.23-0.27,2.12-0.03l4.51,1.21l-0.53,1.99l-3.94-1.06c-0.54-0.15-0.95-0.19-1.2-0.11c-0.43,0.11-0.72,0.44-0.87,1.01
		c-0.27,1,0.25,1.68,1.57,2.04l3.68,0.99l-0.53,1.99L1344.91,168.07z"/>
	<path d="M1349.51,157.78l5.39,1.44l-0.53,1.99l-5.39-1.44l-0.21,0.79l-1.72-0.46l0.21-0.79l-2.43-0.65l0.53-1.99l2.43,0.65
		l0.38-1.41l1.72,0.46L1349.51,157.78z"/>
	<path d="M1352.35,145.3l1.34-5c1.44,0.39,2.47,0.88,3.09,1.44c1.6,1.39,2.17,3.36,1.59,5.53c-0.44,1.66-1.35,2.9-2.71,3.69
		c-1.36,0.8-2.87,0.98-4.53,0.53c-1.66-0.44-2.88-1.36-3.68-2.75s-0.97-2.92-0.52-4.61c0.56-2.08,1.83-3.42,3.84-4.01l0.5,2.14
		c-1.26,0.37-2.06,1.17-2.39,2.4c-0.28,1.03-0.15,1.99,0.39,2.86s1.35,1.46,2.44,1.75c1.09,0.29,2.08,0.2,2.97-0.3
		c0.89-0.49,1.47-1.25,1.75-2.28c0.21-0.78,0.17-1.48-0.11-2.13c-0.28-0.64-0.76-1.1-1.44-1.36l-0.69,2.57L1352.35,145.3z"/>
	<path d="M1348.23,134.9l12.3,3.3l-0.53,1.99l-12.3-3.3L1348.23,134.9z"/>
	<path d="M1359.68,128.44l-1.43,5.33c1.29,0.29,2.08-0.12,2.37-1.23c0.18-0.69,0.01-1.34-0.5-1.95l0.79-1.76
		c1.31,1.01,1.74,2.37,1.29,4.07c-0.31,1.16-0.9,1.99-1.78,2.51c-0.88,0.51-1.88,0.61-3.03,0.3c-1.15-0.31-1.97-0.89-2.48-1.75
		c-0.51-0.87-0.61-1.86-0.31-2.99c0.3-1.13,0.89-1.93,1.74-2.39c0.86-0.47,1.88-0.54,3.08-0.22L1359.68,128.44z M1357.01,133.37
		l0.9-3.37c-1-0.03-1.62,0.41-1.86,1.31C1355.81,132.19,1356.15,132.96,1357.01,133.37z"/>
	<path d="M1356.21,125.9l0.53-1.99l0.89,0.24c-0.65-0.83-0.78-1.57-0.52-2.53c0.23-0.87,0.7-1.49,1.41-1.84
		c0.53-0.26,1.23-0.27,2.12-0.03l4.51,1.21l-0.53,1.99l-3.94-1.06c-0.54-0.15-0.95-0.18-1.2-0.11c-0.43,0.11-0.72,0.44-0.87,1.01
		c-0.27,1,0.25,1.68,1.57,2.04l3.68,0.99l-0.53,1.99L1356.21,125.9z"/>
</g>
<circle fill="#FFFFFF" stroke="#000000" stroke-width="3" stroke-miterlimit="10" cx="1417.65" cy="228" r="10"/>
<g>
	<path d="M1419.19,210.41l4.06,1.09l-0.57,2.13l-10.95-2.93l0.86-3.2c0.19-0.71,0.41-1.27,0.64-1.67c0.24-0.4,0.57-0.73,0.97-1
		c0.87-0.57,1.83-0.71,2.86-0.43s1.79,0.81,2.28,1.58s0.56,1.79,0.22,3.05L1419.19,210.41z M1417.34,209.92l0.23-0.87
		c0.36-1.34,0.01-2.15-1.04-2.43c-1.11-0.3-1.77,0.2-2.18,1.7l-0.2,0.74L1417.34,209.92z"/>
	<path d="M1413.18,199.88l12.3,3.3l-0.53,1.99l-12.3-3.3L1413.18,199.88z"/>
	<path d="M1420.33,193.92l0.53-1.99l7.11,1.91l-0.53,1.99l-0.92-0.25c0.6,0.82,0.77,1.71,0.51,2.68s-0.84,1.69-1.74,2.16
		c-0.9,0.47-1.89,0.57-2.95,0.28c-1.07-0.29-1.88-0.87-2.43-1.73c-0.55-0.86-0.69-1.77-0.44-2.71c0.25-0.95,0.85-1.64,1.79-2.1
		L1420.33,193.92z M1421.42,196.11c-0.15,0.56-0.08,1.09,0.2,1.57c0.28,0.5,0.7,0.81,1.25,0.96s1.08,0.08,1.57-0.21
		c0.5-0.29,0.82-0.7,0.96-1.25c0.15-0.55,0.08-1.07-0.21-1.57c-0.28-0.5-0.69-0.81-1.25-0.96c-0.55-0.15-1.07-0.08-1.56,0.19
		C1421.89,195.14,1421.57,195.56,1421.42,196.11z"/>
	<path d="M1424.98,185.28c-0.55,0.41-0.9,0.9-1.05,1.47c-0.15,0.57-0.09,1.09,0.18,1.58c0.27,0.49,0.69,0.81,1.27,0.97
		s1.1,0.09,1.58-0.2c0.48-0.29,0.8-0.72,0.96-1.3c0.15-0.58,0.11-1.17-0.15-1.78l1.93,0.52c0.14,0.67,0.12,1.31-0.04,1.94
		c-0.3,1.11-0.9,1.93-1.83,2.48c-0.91,0.55-1.91,0.68-2.98,0.4c-1.07-0.29-1.87-0.91-2.41-1.85c-0.53-0.94-0.65-1.97-0.35-3.08
		c0.17-0.65,0.48-1.21,0.91-1.69L1424.98,185.28z"/>
	<path d="M1428.96,177.23l-1.43,5.33c1.29,0.29,2.08-0.12,2.37-1.23c0.18-0.69,0.01-1.34-0.5-1.95l0.79-1.76
		c1.31,1.01,1.74,2.37,1.29,4.07c-0.31,1.16-0.9,1.99-1.78,2.51c-0.88,0.51-1.88,0.61-3.03,0.3c-1.15-0.31-1.97-0.89-2.48-1.75
		s-0.61-1.86-0.31-2.99c0.3-1.13,0.89-1.93,1.74-2.39c0.86-0.47,1.88-0.54,3.08-0.22L1428.96,177.23z M1426.29,182.16l0.9-3.37
		c-1-0.04-1.62,0.41-1.87,1.31C1425.09,180.98,1425.43,181.75,1426.29,182.16z"/>
	<path d="M1422.86,163.74l0.53-1.99l12.3,3.3l-0.53,1.99l-0.92-0.25c0.6,0.82,0.77,1.71,0.51,2.68c-0.26,0.97-0.84,1.69-1.74,2.16
		c-0.9,0.47-1.89,0.57-2.95,0.28c-1.07-0.29-1.88-0.87-2.43-1.73c-0.55-0.86-0.7-1.77-0.44-2.71c0.25-0.95,0.85-1.64,1.79-2.1
		L1422.86,163.74z M1429.14,167.32c-0.15,0.56-0.08,1.09,0.2,1.57c0.28,0.5,0.7,0.82,1.25,0.96c0.55,0.15,1.08,0.08,1.57-0.21
		c0.5-0.29,0.82-0.7,0.96-1.25c0.15-0.54,0.08-1.07-0.21-1.57c-0.28-0.5-0.69-0.81-1.25-0.96c-0.55-0.15-1.07-0.08-1.56,0.19
		C1429.6,166.34,1429.29,166.76,1429.14,167.32z"/>
	<path d="M1425.35,158.97l0.71-1.77l3.75,3.49l-0.51,1.22L1425.35,158.97z"/>
	<path d="M1427.79,149.74c0.44-1.63,1.36-2.85,2.77-3.68c1.41-0.83,2.92-1.03,4.54-0.6c1.61,0.43,2.81,1.36,3.61,2.8
		c0.79,1.43,0.96,2.97,0.52,4.63c-0.44,1.65-1.37,2.88-2.78,3.7c-1.41,0.82-2.92,1.01-4.52,0.58s-2.8-1.37-3.6-2.81
		C1427.54,152.9,1427.35,151.36,1427.79,149.74z M1429.74,150.28c-0.27,1-0.13,1.97,0.41,2.88c0.54,0.92,1.33,1.52,2.37,1.79
		c1.04,0.28,2.03,0.16,2.96-0.36c0.93-0.52,1.53-1.27,1.8-2.28c0.27-1.01,0.13-1.98-0.41-2.89c-0.55-0.91-1.34-1.5-2.38-1.78
		c-1.04-0.28-2.03-0.16-2.95,0.35S1430.01,149.28,1429.74,150.28z"/>
	<path d="M1441.53,143.27l-0.53,1.99l-7.11-1.91l0.53-1.99l1.08,0.29c-0.74-0.72-1-1.53-0.75-2.42c0.08-0.28,0.21-0.55,0.41-0.82
		l1.78,0.78c-0.25,0.25-0.41,0.54-0.49,0.88c-0.3,1.14,0.26,1.9,1.68,2.28L1441.53,143.27z"/>
	<path d="M1430.83,134l12.3,3.3l-0.53,1.99l-12.3-3.3L1430.83,134z"/>
	<path d="M1434.57,126.95l1.56,3.06l-0.91,0.78l-1.96-2.62L1434.57,126.95z M1442.28,127.54l-1.43,5.33
		c1.29,0.29,2.08-0.12,2.37-1.23c0.19-0.69,0.02-1.34-0.5-1.95l0.79-1.76c1.31,1.01,1.74,2.37,1.29,4.07
		c-0.31,1.16-0.9,1.99-1.78,2.51c-0.88,0.51-1.88,0.61-3.03,0.3c-1.15-0.31-1.97-0.89-2.48-1.75s-0.61-1.86-0.31-2.99
		c0.3-1.13,0.89-1.93,1.74-2.39s1.88-0.54,3.07-0.22L1442.28,127.54z M1439.6,132.46l0.9-3.37c-1-0.04-1.62,0.41-1.86,1.31
		C1438.41,131.29,1438.75,132.06,1439.6,132.46z"/>
	<path d="M1440.26,119.54l0.53-1.99l7.11,1.91l-0.53,1.99l-0.92-0.25c0.6,0.82,0.77,1.71,0.51,2.68c-0.26,0.97-0.84,1.69-1.74,2.16
		c-0.9,0.47-1.89,0.57-2.95,0.28c-1.07-0.29-1.88-0.87-2.43-1.73c-0.55-0.86-0.7-1.77-0.44-2.71c0.25-0.95,0.85-1.64,1.79-2.1
		L1440.26,119.54z M1441.35,121.73c-0.15,0.56-0.08,1.08,0.2,1.57c0.28,0.5,0.7,0.82,1.25,0.96c0.55,0.15,1.08,0.08,1.57-0.21
		c0.5-0.29,0.82-0.7,0.96-1.25c0.15-0.54,0.08-1.07-0.21-1.57c-0.28-0.5-0.69-0.81-1.25-0.96c-0.55-0.15-1.07-0.08-1.56,0.19
		C1441.82,120.75,1441.5,121.17,1441.35,121.73z"/>
	<path d="M1441.31,115.65l0.53-1.99l0.89,0.24c-0.65-0.83-0.78-1.57-0.52-2.53c0.23-0.87,0.7-1.49,1.41-1.84
		c0.53-0.26,1.23-0.27,2.12-0.03l4.51,1.21l-0.53,1.99l-3.95-1.06c-0.54-0.15-0.95-0.19-1.2-0.11c-0.43,0.11-0.72,0.44-0.87,1.01
		c-0.27,1,0.25,1.68,1.57,2.04l3.68,0.99l-0.53,1.99L1441.31,115.65z"/>
	<path d="M1446.35,103.46c-0.42,0.33-0.68,0.64-0.76,0.94c-0.08,0.3-0.08,0.53-0.01,0.71c0.08,0.18,0.21,0.29,0.37,0.34
		s0.32,0.01,0.47-0.11c0.14-0.12,0.38-0.44,0.72-0.94c0.34-0.5,0.65-0.87,0.92-1.08c0.5-0.42,1.11-0.54,1.82-0.35
		c0.71,0.19,1.24,0.63,1.56,1.31c0.33,0.69,0.38,1.48,0.14,2.35c-0.29,1.07-0.92,1.87-1.91,2.38l-0.93-1.37
		c0.7-0.4,1.13-0.89,1.28-1.46c0.14-0.5-0.11-1-0.53-1.11c-0.22-0.06-0.39-0.04-0.54,0.07c-0.14,0.11-0.4,0.42-0.76,0.94
		c-0.36,0.52-0.65,0.87-0.88,1.04c-0.46,0.39-1.01,0.49-1.67,0.31c-0.67-0.18-1.14-0.56-1.43-1.16c-0.3-0.59-0.34-1.28-0.12-2.09
		s0.67-1.47,1.36-2.02L1446.35,103.46z"/>
</g>
<circle fill="#FFFFFF" stroke="#000000" stroke-width="3" stroke-miterlimit="10" cx="1500" cy="228" r="10"/>
<g>
	<path d="M1505.95,210.2l-0.57,2.14l-9.1-2.44l-0.65,2.45l-1.85-0.5l1.89-7.05l1.85,0.5l-0.66,2.46L1505.95,210.2z"/>
	<path d="M1507.29,205.17l-0.53,1.99l-7.11-1.91l0.53-1.99l1.08,0.29c-0.74-0.72-1-1.53-0.75-2.42c0.08-0.28,0.21-0.55,0.41-0.82
		l1.78,0.78c-0.25,0.25-0.41,0.54-0.49,0.88c-0.3,1.14,0.26,1.9,1.68,2.28L1507.29,205.17z"/>
	<path d="M1497.31,197.16c0.09-0.33,0.28-0.58,0.57-0.75c0.29-0.17,0.61-0.21,0.93-0.12c0.33,0.09,0.59,0.29,0.76,0.58
		c0.18,0.3,0.22,0.62,0.13,0.95c-0.09,0.33-0.28,0.58-0.58,0.75s-0.62,0.21-0.94,0.12s-0.59-0.29-0.75-0.59
		C1497.26,197.81,1497.23,197.49,1497.31,197.16z M1501.78,197.32l7.11,1.91l-0.53,1.98l-7.11-1.91L1501.78,197.32z"/>
	<path d="M1507.49,189.84l3.65,0.98l-0.53,1.99l-3.78-1.01c-0.55-0.15-0.96-0.21-1.2-0.18c-0.24,0.03-0.46,0.13-0.64,0.29
		s-0.3,0.37-0.36,0.59c-0.12,0.45,0.02,0.99,0.4,1.36c0.19,0.19,0.61,0.37,1.24,0.53l3.65,0.98l-0.53,1.99l-7.11-1.91l0.53-1.99
		l0.83,0.22c-0.53-0.8-0.68-1.65-0.44-2.55c0.24-0.9,0.86-1.49,1.86-1.76c-0.72-0.79-0.95-1.66-0.69-2.62s0.78-1.54,1.58-1.78
		c0.48-0.14,1.08-0.12,1.83,0.08l4.59,1.23l-0.53,1.99l-3.89-1.04c-0.51-0.14-0.91-0.18-1.18-0.15c-0.47,0.07-0.76,0.35-0.89,0.83
		C1505.61,188.84,1506.15,189.48,1507.49,189.84z"/>
</g>
<g>
	<path fill="#9B9B9B" d="M741.86,256.58v-7.16h3.17c0.64,0,1.12,0.06,1.46,0.19c0.33,0.13,0.6,0.36,0.8,0.68s0.3,0.69,0.3,1.08
		c0,0.51-0.16,0.94-0.49,1.28s-0.84,0.57-1.52,0.66c0.25,0.12,0.44,0.24,0.57,0.36c0.28,0.25,0.54,0.57,0.79,0.95l1.25,1.95h-1.19
		l-0.95-1.49c-0.28-0.43-0.5-0.76-0.68-0.99s-0.34-0.39-0.48-0.48s-0.29-0.15-0.43-0.19c-0.11-0.02-0.28-0.03-0.53-0.03h-1.1v3.18
		H741.86z M742.81,252.58h2.04c0.43,0,0.77-0.04,1.02-0.13c0.24-0.09,0.43-0.23,0.56-0.43c0.13-0.2,0.19-0.41,0.19-0.64
		c0-0.34-0.12-0.62-0.37-0.83s-0.63-0.33-1.16-0.33h-2.27V252.58z"/>
	<path fill="#9B9B9B" d="M752.34,255.94c-0.33,0.28-0.64,0.47-0.94,0.59s-0.62,0.17-0.97,0.17c-0.57,0-1.01-0.14-1.31-0.42
		c-0.31-0.28-0.46-0.63-0.46-1.07c0-0.25,0.06-0.49,0.17-0.7c0.12-0.21,0.27-0.38,0.45-0.51s0.4-0.22,0.63-0.29
		c0.17-0.05,0.43-0.09,0.78-0.13c0.71-0.08,1.23-0.19,1.57-0.3c0-0.12,0-0.2,0-0.23c0-0.36-0.08-0.61-0.25-0.76
		c-0.22-0.2-0.56-0.3-1-0.3c-0.41,0-0.72,0.07-0.92,0.22c-0.2,0.14-0.34,0.4-0.44,0.77l-0.86-0.12c0.08-0.37,0.21-0.67,0.39-0.89
		c0.18-0.23,0.44-0.4,0.78-0.52c0.34-0.12,0.73-0.18,1.18-0.18c0.44,0,0.8,0.05,1.08,0.16s0.48,0.24,0.61,0.39
		c0.13,0.16,0.22,0.36,0.27,0.6c0.03,0.15,0.04,0.42,0.04,0.81v1.17c0,0.82,0.02,1.33,0.06,1.55c0.04,0.22,0.11,0.42,0.22,0.62
		h-0.92C752.43,256.4,752.37,256.19,752.34,255.94z M752.27,253.98c-0.32,0.13-0.8,0.24-1.44,0.33c-0.36,0.05-0.62,0.11-0.77,0.18
		s-0.27,0.16-0.35,0.29c-0.08,0.12-0.12,0.26-0.12,0.42c0,0.23,0.09,0.43,0.27,0.59s0.44,0.23,0.78,0.23c0.34,0,0.64-0.07,0.9-0.22
		c0.26-0.15,0.46-0.35,0.58-0.61c0.09-0.2,0.14-0.49,0.14-0.88V253.98z"/>
	<path fill="#9B9B9B" d="M754.52,250.43v-1.01h0.88v1.01H754.52z M754.52,256.58v-5.19h0.88v5.19H754.52z"/>
	<path fill="#9B9B9B" d="M756.72,256.58v-7.16h0.88v7.16H756.72z"/>
	<path fill="#9B9B9B" d="M761.9,256.58v-7.16h4.83v0.84h-3.88v2.22h3.36v0.84h-3.36v3.25H761.9z"/>
	<path fill="#9B9B9B" d="M771.23,255.94c-0.33,0.28-0.64,0.47-0.94,0.59s-0.62,0.17-0.97,0.17c-0.57,0-1.01-0.14-1.31-0.42
		c-0.31-0.28-0.46-0.63-0.46-1.07c0-0.25,0.06-0.49,0.17-0.7c0.12-0.21,0.27-0.38,0.45-0.51s0.4-0.22,0.63-0.29
		c0.17-0.05,0.43-0.09,0.78-0.13c0.71-0.08,1.23-0.19,1.57-0.3c0-0.12,0-0.2,0-0.23c0-0.36-0.08-0.61-0.25-0.76
		c-0.22-0.2-0.56-0.3-1-0.3c-0.41,0-0.72,0.07-0.92,0.22c-0.2,0.14-0.34,0.4-0.44,0.77l-0.86-0.12c0.08-0.37,0.21-0.67,0.39-0.89
		c0.18-0.23,0.44-0.4,0.78-0.52c0.34-0.12,0.73-0.18,1.18-0.18c0.44,0,0.8,0.05,1.08,0.16s0.48,0.24,0.61,0.39
		c0.13,0.16,0.22,0.36,0.27,0.6c0.03,0.15,0.04,0.42,0.04,0.81v1.17c0,0.82,0.02,1.33,0.06,1.55c0.04,0.22,0.11,0.42,0.22,0.62
		h-0.92C771.32,256.4,771.26,256.19,771.23,255.94z M771.16,253.98c-0.32,0.13-0.8,0.24-1.44,0.33c-0.36,0.05-0.62,0.11-0.77,0.18
		s-0.27,0.16-0.35,0.29c-0.08,0.12-0.12,0.26-0.12,0.42c0,0.23,0.09,0.43,0.27,0.59s0.44,0.23,0.78,0.23c0.34,0,0.64-0.07,0.9-0.22
		c0.26-0.15,0.46-0.35,0.58-0.61c0.09-0.2,0.14-0.49,0.14-0.88V253.98z"/>
	<path fill="#9B9B9B" d="M773.41,256.58v-5.19h0.79v0.74c0.38-0.57,0.93-0.85,1.65-0.85c0.31,0,0.6,0.06,0.86,0.17
		c0.26,0.11,0.46,0.26,0.59,0.44s0.22,0.4,0.27,0.65c0.03,0.16,0.05,0.45,0.05,0.85v3.19h-0.88v-3.15c0-0.36-0.03-0.63-0.1-0.8
		c-0.07-0.18-0.19-0.32-0.36-0.43c-0.17-0.11-0.38-0.16-0.61-0.16c-0.37,0-0.7,0.12-0.97,0.36s-0.41,0.69-0.41,1.35v2.83H773.41z"/>
	<path fill="#9B9B9B" d="M778.62,255.03l0.87-0.14c0.05,0.35,0.18,0.62,0.41,0.8s0.53,0.28,0.94,0.28c0.4,0,0.7-0.08,0.9-0.25
		c0.2-0.17,0.29-0.36,0.29-0.58c0-0.2-0.09-0.35-0.26-0.47c-0.12-0.08-0.42-0.18-0.9-0.3c-0.64-0.16-1.09-0.3-1.34-0.42
		c-0.25-0.12-0.44-0.28-0.57-0.49c-0.13-0.21-0.19-0.44-0.19-0.7c0-0.23,0.05-0.45,0.16-0.64c0.11-0.2,0.25-0.36,0.43-0.49
		c0.14-0.1,0.32-0.19,0.56-0.26c0.24-0.07,0.49-0.11,0.76-0.11c0.41,0,0.76,0.06,1.07,0.18s0.53,0.28,0.68,0.48
		c0.15,0.2,0.25,0.47,0.3,0.8l-0.86,0.12c-0.04-0.27-0.15-0.48-0.34-0.62s-0.45-0.22-0.79-0.22c-0.4,0-0.69,0.07-0.86,0.2
		s-0.26,0.29-0.26,0.47c0,0.11,0.04,0.22,0.11,0.31c0.07,0.09,0.18,0.17,0.34,0.23c0.09,0.03,0.35,0.11,0.78,0.22
		c0.62,0.17,1.06,0.3,1.3,0.41c0.25,0.11,0.44,0.26,0.58,0.46s0.21,0.45,0.21,0.75c0,0.29-0.09,0.57-0.26,0.83
		c-0.17,0.26-0.42,0.46-0.74,0.6c-0.32,0.14-0.69,0.21-1.09,0.21c-0.67,0-1.19-0.14-1.54-0.42S778.72,255.58,778.62,255.03z"/>
	<path fill="#9B9B9B" d="M791.97,254.07l0.95,0.24c-0.2,0.78-0.56,1.37-1.07,1.78c-0.52,0.41-1.15,0.61-1.89,0.61
		c-0.77,0-1.4-0.16-1.88-0.47c-0.48-0.31-0.85-0.77-1.1-1.36s-0.38-1.24-0.38-1.92c0-0.75,0.14-1.4,0.43-1.95
		c0.28-0.55,0.69-0.98,1.22-1.26c0.53-0.29,1.1-0.43,1.74-0.43c0.72,0,1.32,0.18,1.81,0.55s0.83,0.88,1.02,1.54l-0.93,0.22
		c-0.17-0.52-0.41-0.9-0.72-1.14s-0.71-0.36-1.19-0.36c-0.55,0-1.01,0.13-1.38,0.4s-0.63,0.62-0.78,1.06
		c-0.15,0.44-0.22,0.9-0.22,1.37c0,0.61,0.09,1.14,0.27,1.59c0.18,0.45,0.45,0.79,0.83,1.02s0.78,0.34,1.22,0.34
		c0.53,0,0.98-0.15,1.35-0.46S791.84,254.67,791.97,254.07z"/>
	<path fill="#9B9B9B" d="M797.36,255.94c-0.33,0.28-0.64,0.47-0.94,0.59s-0.62,0.17-0.97,0.17c-0.57,0-1.01-0.14-1.31-0.42
		c-0.31-0.28-0.46-0.63-0.46-1.07c0-0.25,0.06-0.49,0.17-0.7c0.12-0.21,0.27-0.38,0.45-0.51s0.4-0.22,0.63-0.29
		c0.17-0.05,0.43-0.09,0.78-0.13c0.71-0.08,1.23-0.19,1.57-0.3c0-0.12,0-0.2,0-0.23c0-0.36-0.08-0.61-0.25-0.76
		c-0.22-0.2-0.56-0.3-1-0.3c-0.41,0-0.72,0.07-0.92,0.22c-0.2,0.14-0.34,0.4-0.44,0.77l-0.86-0.12c0.08-0.37,0.21-0.67,0.39-0.89
		c0.18-0.23,0.44-0.4,0.78-0.52c0.34-0.12,0.73-0.18,1.18-0.18c0.44,0,0.8,0.05,1.08,0.16s0.48,0.24,0.61,0.39
		c0.13,0.16,0.22,0.36,0.27,0.6c0.03,0.15,0.04,0.42,0.04,0.81v1.17c0,0.82,0.02,1.33,0.06,1.55c0.04,0.22,0.11,0.42,0.22,0.62
		h-0.92C797.44,256.4,797.38,256.19,797.36,255.94z M797.28,253.98c-0.32,0.13-0.8,0.24-1.44,0.33c-0.36,0.05-0.62,0.11-0.77,0.18
		s-0.27,0.16-0.35,0.29c-0.08,0.12-0.12,0.26-0.12,0.42c0,0.23,0.09,0.43,0.27,0.59s0.44,0.23,0.78,0.23c0.34,0,0.64-0.07,0.9-0.22
		c0.26-0.15,0.46-0.35,0.58-0.61c0.09-0.2,0.14-0.49,0.14-0.88V253.98z"/>
	<path fill="#9B9B9B" d="M799.53,256.58v-5.19h0.79v0.74c0.38-0.57,0.93-0.85,1.65-0.85c0.31,0,0.6,0.06,0.86,0.17
		c0.26,0.11,0.46,0.26,0.59,0.44c0.13,0.18,0.22,0.4,0.27,0.65c0.03,0.16,0.05,0.45,0.05,0.85v3.19h-0.88v-3.15
		c0-0.36-0.04-0.63-0.1-0.8c-0.07-0.18-0.19-0.32-0.36-0.43c-0.17-0.11-0.38-0.16-0.61-0.16c-0.37,0-0.7,0.12-0.97,0.36
		c-0.27,0.24-0.41,0.69-0.41,1.35v2.83H799.53z"/>
	<path fill="#9B9B9B" d="M808.48,255.94c-0.33,0.28-0.64,0.47-0.94,0.59s-0.62,0.17-0.97,0.17c-0.57,0-1.01-0.14-1.31-0.42
		c-0.31-0.28-0.46-0.63-0.46-1.07c0-0.25,0.06-0.49,0.17-0.7c0.12-0.21,0.27-0.38,0.45-0.51s0.4-0.22,0.63-0.29
		c0.17-0.05,0.43-0.09,0.78-0.13c0.71-0.08,1.23-0.19,1.57-0.3c0-0.12,0-0.2,0-0.23c0-0.36-0.08-0.61-0.25-0.76
		c-0.22-0.2-0.56-0.3-1-0.3c-0.41,0-0.72,0.07-0.92,0.22c-0.2,0.14-0.34,0.4-0.44,0.77l-0.86-0.12c0.08-0.37,0.21-0.67,0.38-0.89
		c0.18-0.23,0.44-0.4,0.78-0.52c0.34-0.12,0.73-0.18,1.18-0.18c0.44,0,0.8,0.05,1.08,0.16c0.28,0.1,0.48,0.24,0.61,0.39
		c0.13,0.16,0.22,0.36,0.27,0.6c0.03,0.15,0.04,0.42,0.04,0.81v1.17c0,0.82,0.02,1.33,0.06,1.55c0.04,0.22,0.11,0.42,0.22,0.62
		h-0.92C808.56,256.4,808.5,256.19,808.48,255.94z M808.41,253.98c-0.32,0.13-0.8,0.24-1.44,0.33c-0.36,0.05-0.62,0.11-0.77,0.18
		c-0.15,0.07-0.26,0.16-0.35,0.29c-0.08,0.12-0.12,0.26-0.12,0.42c0,0.23,0.09,0.43,0.27,0.59s0.44,0.23,0.78,0.23
		c0.34,0,0.64-0.07,0.9-0.22c0.26-0.15,0.46-0.35,0.58-0.61c0.09-0.2,0.14-0.49,0.14-0.88V253.98z"/>
	<path fill="#9B9B9B" d="M814.02,256.58v-0.65c-0.33,0.51-0.81,0.77-1.45,0.77c-0.41,0-0.79-0.11-1.14-0.34s-0.62-0.55-0.81-0.96
		c-0.19-0.41-0.29-0.88-0.29-1.41c0-0.52,0.09-0.99,0.26-1.41c0.17-0.42,0.43-0.75,0.78-0.97c0.34-0.22,0.73-0.34,1.16-0.34
		c0.31,0,0.59,0.07,0.84,0.2c0.24,0.13,0.44,0.3,0.6,0.52v-2.57h0.87v7.16H814.02z M811.24,253.99c0,0.66,0.14,1.16,0.42,1.49
		c0.28,0.33,0.61,0.49,0.99,0.49c0.38,0,0.71-0.16,0.98-0.47c0.27-0.31,0.4-0.79,0.4-1.44c0-0.71-0.14-1.23-0.41-1.56
		s-0.61-0.5-1.01-0.5c-0.39,0-0.72,0.16-0.98,0.48S811.24,253.31,811.24,253.99z"/>
	<path fill="#9B9B9B" d="M819.6,255.94c-0.33,0.28-0.64,0.47-0.94,0.59s-0.62,0.17-0.97,0.17c-0.57,0-1.01-0.14-1.31-0.42
		c-0.31-0.28-0.46-0.63-0.46-1.07c0-0.25,0.06-0.49,0.17-0.7c0.12-0.21,0.27-0.38,0.45-0.51s0.4-0.22,0.63-0.29
		c0.17-0.05,0.43-0.09,0.78-0.13c0.71-0.08,1.23-0.19,1.57-0.3c0-0.12,0-0.2,0-0.23c0-0.36-0.08-0.61-0.25-0.76
		c-0.22-0.2-0.56-0.3-1-0.3c-0.41,0-0.72,0.07-0.92,0.22c-0.2,0.14-0.34,0.4-0.44,0.77l-0.86-0.12c0.08-0.37,0.21-0.67,0.38-0.89
		c0.18-0.23,0.44-0.4,0.78-0.52c0.34-0.12,0.73-0.18,1.18-0.18c0.44,0,0.8,0.05,1.08,0.16c0.28,0.1,0.48,0.24,0.61,0.39
		c0.13,0.16,0.22,0.36,0.27,0.6c0.03,0.15,0.04,0.42,0.04,0.81v1.17c0,0.82,0.02,1.33,0.06,1.55c0.04,0.22,0.11,0.42,0.22,0.62
		h-0.92C819.69,256.4,819.63,256.19,819.6,255.94z M819.53,253.98c-0.32,0.13-0.8,0.24-1.44,0.33c-0.36,0.05-0.62,0.11-0.77,0.18
		c-0.15,0.07-0.26,0.16-0.35,0.29c-0.08,0.12-0.12,0.26-0.12,0.42c0,0.23,0.09,0.43,0.27,0.59s0.44,0.23,0.78,0.23
		c0.34,0,0.64-0.07,0.9-0.22c0.26-0.15,0.46-0.35,0.58-0.61c0.09-0.2,0.14-0.49,0.14-0.88V253.98z"/>
	<path fill="#9B9B9B" d="M823.9,254.35v-0.71h10v0.71H823.9z"/>
	<path fill="#9B9B9B" d="M841.71,255.74v0.84h-4.73c-0.01-0.21,0.03-0.42,0.1-0.61c0.12-0.32,0.31-0.64,0.58-0.95
		s0.65-0.67,1.15-1.08c0.78-0.64,1.3-1.14,1.58-1.52c0.27-0.37,0.41-0.73,0.41-1.06c0-0.35-0.12-0.64-0.37-0.88
		c-0.25-0.24-0.57-0.36-0.97-0.36c-0.42,0-0.76,0.13-1.02,0.38s-0.38,0.61-0.39,1.05l-0.9-0.09c0.06-0.67,0.29-1.19,0.7-1.54
		c0.4-0.35,0.95-0.53,1.63-0.53c0.69,0,1.23,0.19,1.63,0.57s0.6,0.85,0.6,1.42c0,0.29-0.06,0.57-0.18,0.84s-0.31,0.57-0.58,0.87
		s-0.72,0.73-1.35,1.26c-0.53,0.44-0.87,0.74-1.02,0.9c-0.15,0.16-0.27,0.32-0.37,0.48H841.71z"/>
	<path fill="#9B9B9B" d="M842.65,253.05c0-0.85,0.09-1.53,0.26-2.04c0.17-0.52,0.43-0.91,0.78-1.19s0.78-0.42,1.3-0.42
		c0.38,0,0.72,0.08,1.01,0.23c0.29,0.15,0.53,0.38,0.72,0.67c0.19,0.29,0.34,0.65,0.44,1.06c0.11,0.42,0.16,0.98,0.16,1.69
		c0,0.84-0.09,1.52-0.26,2.03c-0.17,0.52-0.43,0.91-0.77,1.2c-0.34,0.28-0.78,0.42-1.3,0.42c-0.69,0-1.23-0.25-1.63-0.74
		C842.89,255.37,842.65,254.4,842.65,253.05z M843.56,253.05c0,1.17,0.14,1.96,0.41,2.35c0.27,0.39,0.61,0.58,1.02,0.58
		c0.4,0,0.74-0.2,1.02-0.59s0.41-1.17,0.41-2.34c0-1.18-0.14-1.96-0.41-2.35s-0.62-0.58-1.03-0.58c-0.4,0-0.73,0.17-0.97,0.51
		C843.71,251.07,843.56,251.88,843.56,253.05z"/>
	<path fill="#9B9B9B" d="M852.83,255.74v0.84h-4.73c-0.01-0.21,0.03-0.42,0.1-0.61c0.12-0.32,0.31-0.64,0.58-0.95
		s0.65-0.67,1.15-1.08c0.78-0.64,1.3-1.14,1.58-1.52c0.27-0.37,0.41-0.73,0.41-1.06c0-0.35-0.12-0.64-0.37-0.88
		c-0.25-0.24-0.57-0.36-0.97-0.36c-0.42,0-0.76,0.13-1.02,0.38s-0.38,0.61-0.39,1.05l-0.9-0.09c0.06-0.67,0.29-1.19,0.7-1.54
		c0.4-0.35,0.95-0.53,1.63-0.53c0.69,0,1.23,0.19,1.63,0.57s0.6,0.85,0.6,1.42c0,0.29-0.06,0.57-0.18,0.84s-0.31,0.57-0.58,0.87
		s-0.72,0.73-1.35,1.26c-0.53,0.44-0.87,0.74-1.02,0.9c-0.15,0.16-0.27,0.32-0.37,0.48H852.83z"/>
	<path fill="#9B9B9B" d="M858.34,251.18l-0.88,0.07c-0.08-0.34-0.19-0.6-0.33-0.75c-0.24-0.25-0.53-0.38-0.88-0.38
		c-0.28,0-0.53,0.08-0.74,0.23c-0.28,0.2-0.5,0.5-0.65,0.88c-0.16,0.39-0.24,0.94-0.25,1.66c0.21-0.32,0.47-0.56,0.78-0.72
		c0.31-0.16,0.63-0.23,0.96-0.23c0.59,0,1.09,0.22,1.5,0.65c0.41,0.43,0.62,0.99,0.62,1.67c0,0.45-0.1,0.87-0.29,1.25
		c-0.19,0.39-0.46,0.68-0.8,0.89c-0.34,0.21-0.72,0.31-1.15,0.31c-0.73,0-1.33-0.27-1.79-0.81c-0.46-0.54-0.69-1.43-0.69-2.66
		c0-1.38,0.25-2.39,0.77-3.02c0.45-0.55,1.05-0.82,1.8-0.82c0.56,0,1.02,0.16,1.38,0.47S858.27,250.62,858.34,251.18z
		 M854.75,254.26c0,0.3,0.06,0.59,0.19,0.87s0.31,0.49,0.54,0.63c0.23,0.15,0.47,0.22,0.73,0.22c0.37,0,0.69-0.15,0.96-0.45
		c0.27-0.3,0.4-0.71,0.4-1.22c0-0.5-0.13-0.88-0.4-1.17c-0.26-0.29-0.6-0.43-1-0.43c-0.4,0-0.73,0.14-1.01,0.43
		C854.89,253.43,854.75,253.8,854.75,254.26z"/>
</g>
<g>
	<path d="M19.71,21.33v24.38h9.02v4.96H14V21.33H19.71z"/>
	<path d="M34.65,20.36c0.88,0,1.63,0.3,2.26,0.92s0.92,1.38,0.92,2.26s-0.32,1.65-0.95,2.28c-0.62,0.64-1.4,0.97-2.28,0.97
		s-1.63-0.32-2.26-0.95s-0.95-1.4-0.95-2.28s0.32-1.65,0.97-2.28C32.99,20.66,33.77,20.36,34.65,20.36z M37.25,31.62v19.06h-5.31
		V31.62H37.25z"/>
	<path d="M42.27,31.62h5.33V34c1.63-2.17,3.39-2.99,5.97-2.99c2.34,0,4.19,0.75,5.54,2.28c1.01,1.14,1.5,2.9,1.5,5.29v12.1h-5.33
		V40.1c0-1.46-0.17-2.49-0.54-3.07c-0.56-1.01-1.59-1.5-3.12-1.5c-2.69,0-4.04,1.76-4.04,5.29v9.86h-5.33V31.62z"/>
	<path d="M84.45,42.02H70.16c0.15,3.42,1.7,5.11,4.66,5.09c1.85,0,3.35-0.86,4.53-2.56l4.92,0.79c-1.65,3.95-4.75,5.93-9.32,5.95
		c-3.12,0-5.59-0.92-7.46-2.77s-2.79-4.3-2.79-7.37s0.9-5.52,2.73-7.37s4.23-2.77,7.26-2.77s5.41,0.92,7.15,2.75s2.6,4.34,2.6,7.54
		V42.02z M70.33,38.62h9.02c-0.58-2.51-2.11-3.78-4.53-3.78C72.48,34.84,70.78,36.21,70.33,38.62z"/>
	<path d="M106.92,26.29h-4.23v-4.96h9.95v29.35h-5.71V26.29z"/>
	<path d="M132.87,38.36h9.9v4.43h-9.9V38.36z"/>
	<path d="M162.61,28.8c0,0.84,0.3,1.53,0.92,2.02c0.62,0.52,2.06,1.2,4.36,2.06s3.95,1.74,5.01,2.64c1.74,1.46,2.6,3.57,2.6,6.34
		s-0.95,5.05-2.81,6.83s-4.34,2.69-7.39,2.69c-4.15,0-7.5-1.87-10.08-5.59l3.7-3.57c1.38,2.6,3.42,3.91,6.14,3.91
		c1.31,0,2.41-0.39,3.27-1.16c0.84-0.77,1.27-1.76,1.27-2.99s-0.52-2.19-1.57-2.94c-0.49-0.37-1.98-0.99-4.4-1.87
		s-4.19-1.93-5.29-3.12s-1.63-2.75-1.63-4.68c0-2.47,0.86-4.51,2.6-6.12s3.91-2.43,6.55-2.43c3.27,0,6.14,1.1,8.64,3.27l-3.01,3.91
		c-1.4-1.59-2.99-2.38-4.75-2.36c-1.18,0-2.15,0.32-2.94,0.95S162.61,27.96,162.61,28.8z"/>
	<path d="M185.66,36.24v14.44h-5.33V36.24h-2.11v-4.62h2.11v-6.51h5.33v6.51h3.78v4.62H185.66z"/>
	<path d="M206.84,31.62h5.33v19.06h-5.33V48.2c-1.65,2.04-3.76,3.07-6.36,3.07s-4.79-0.97-6.57-2.9s-2.69-4.34-2.69-7.2
		s0.9-5.29,2.69-7.24s3.95-2.92,6.49-2.92s4.68,1.03,6.45,3.07V31.62z M202.1,35.81c-1.5,0-2.77,0.52-3.8,1.55
		c-1.05,1.03-1.57,2.3-1.57,3.78s0.52,2.75,1.57,3.78c1.05,1.05,2.3,1.57,3.76,1.57s2.73-0.52,3.78-1.57
		c1.05-1.03,1.57-2.28,1.57-3.76s-0.52-2.73-1.53-3.78C204.85,36.32,203.58,35.81,202.1,35.81z"/>
	<path d="M237.27,31.62v18.35c0,1.96-0.15,3.48-0.45,4.55c-0.32,1.07-0.88,2.08-1.7,3.01c-1.87,2.23-4.64,3.35-8.31,3.35
		s-6.49-1.4-8.44-4.17c-0.82-1.18-1.31-2.45-1.46-3.8h5.82c0.54,2.3,2.02,3.44,4.47,3.44c1.44,0,2.62-0.47,3.57-1.4
		c0.79-0.84,1.18-2.17,1.2-3.97v-2.86c-1.01,1.14-2,1.96-2.96,2.45c-0.99,0.49-2.15,0.73-3.5,0.73c-2.6,0-4.77-0.92-6.49-2.79
		s-2.58-4.25-2.58-7.2s0.88-5.39,2.64-7.35s3.93-2.94,6.51-2.94s4.71,1.03,6.38,3.07v-2.47H237.27z M227.28,35.81
		c-1.48,0-2.73,0.52-3.78,1.55s-1.57,2.3-1.57,3.78s0.52,2.75,1.57,3.78c1.05,1.05,2.3,1.57,3.76,1.57s2.73-0.52,3.78-1.57
		c1.05-1.03,1.57-2.28,1.57-3.76s-0.52-2.73-1.55-3.78C230,36.32,228.76,35.81,227.28,35.81z"/>
	<path d="M261.29,42.02H247c0.15,3.42,1.7,5.11,4.66,5.09c1.85,0,3.35-0.86,4.53-2.56l4.92,0.79c-1.65,3.95-4.75,5.93-9.32,5.95
		c-3.12,0-5.59-0.92-7.46-2.77s-2.79-4.3-2.79-7.37s0.9-5.52,2.73-7.37s4.23-2.77,7.26-2.77s5.41,0.92,7.15,2.75s2.6,4.34,2.6,7.54
		V42.02z M247.17,38.62h9.02c-0.58-2.51-2.11-3.78-4.53-3.78C249.32,34.84,247.62,36.21,247.17,38.62z"/>
	<path d="M295.85,45.71v4.96h-21.33l8.66-9.82c2.66-3.05,4.45-5.31,5.37-6.75s1.38-2.79,1.38-4.04s-0.43-2.3-1.29-3.16
		c-0.88-0.84-1.96-1.27-3.22-1.27s-2.3,0.43-3.05,1.27c-0.77,0.84-1.18,2.04-1.25,3.57h-6.12c0.19-3.05,1.22-5.46,3.09-7.24
		c1.85-1.78,4.25-2.66,7.22-2.66c2.94,0,5.41,0.9,7.39,2.69c1.96,1.8,2.94,4.15,2.94,7.05s-1.78,6.23-5.33,9.99l-5.11,5.41H295.85z"
		/>
	<path d="M329.33,26.29h-10.51v6.53h10.12v4.96h-10.12v7.93h10.51v4.96h-16.22V21.33h16.22V26.29z"/>
	<path d="M348.68,31.62h5.33v19.06h-5.33V48.2c-1.65,2.04-3.76,3.07-6.36,3.07s-4.79-0.97-6.57-2.9s-2.69-4.34-2.69-7.2
		s0.9-5.29,2.69-7.24s3.95-2.92,6.49-2.92s4.68,1.03,6.45,3.07V31.62z M343.94,35.81c-1.5,0-2.77,0.52-3.8,1.55
		c-1.05,1.03-1.57,2.3-1.57,3.78s0.52,2.75,1.57,3.78c1.05,1.05,2.3,1.57,3.76,1.57s2.73-0.52,3.78-1.57
		c1.05-1.03,1.57-2.28,1.57-3.76s-0.52-2.73-1.53-3.78C346.69,36.32,345.42,35.81,343.94,35.81z"/>
	<path d="M369.44,36.06c-1.12-0.84-2.06-1.27-2.86-1.27s-1.38,0.15-1.78,0.45c-0.41,0.32-0.6,0.71-0.6,1.16s0.19,0.82,0.6,1.1
		s1.35,0.67,2.84,1.18s2.6,1.03,3.31,1.57c1.4,0.97,2.11,2.41,2.11,4.32s-0.75,3.52-2.23,4.79c-1.5,1.29-3.44,1.93-5.78,1.93
		c-2.88,0-5.29-1.05-7.22-3.18l2.79-3.24c1.48,1.48,2.99,2.23,4.51,2.23c1.35,0,2.43-0.95,2.43-2.08c0-0.58-0.17-1.01-0.54-1.31
		c-0.37-0.28-1.31-0.71-2.86-1.27s-2.62-1.05-3.2-1.5c-1.27-0.88-1.89-2.19-1.89-3.97s0.64-3.22,1.93-4.36
		c1.27-1.14,2.99-1.7,5.13-1.7s4.12,0.69,5.95,2.04L369.44,36.06z"/>
	<path d="M382.63,36.24v14.44h-5.33V36.24h-2.11v-4.62h2.11v-6.51h5.33v6.51h3.78v4.62H382.63z"/>
</g>
<g>
	<path fill="#5A5A5A" d="M14,71.17c0-2.14,0.57-3.81,1.72-5.02c1.15-1.21,2.63-1.81,4.45-1.81c1.19,0,2.26,0.28,3.22,0.85
		s1.68,1.36,2.18,2.38s0.75,2.17,0.75,3.46c0,1.31-0.26,2.48-0.79,3.51s-1.27,1.81-2.24,2.34c-0.97,0.53-2.01,0.8-3.13,0.8
		c-1.21,0-2.3-0.29-3.25-0.88s-1.68-1.39-2.17-2.4S14,72.3,14,71.17z M15.76,71.2c0,1.55,0.42,2.78,1.25,3.67
		c0.83,0.89,1.88,1.34,3.14,1.34c1.28,0,2.34-0.45,3.17-1.35s1.24-2.18,1.24-3.84c0-1.05-0.18-1.96-0.53-2.75
		c-0.35-0.78-0.87-1.39-1.56-1.82c-0.68-0.43-1.45-0.65-2.3-0.65c-1.21,0-2.25,0.42-3.12,1.24C16.19,67.88,15.76,69.26,15.76,71.2z"
		/>
	<path fill="#5A5A5A" d="M37.71,72.93l1.71,0.43c-0.36,1.4-1,2.47-1.93,3.2s-2.06,1.1-3.41,1.1c-1.39,0-2.52-0.28-3.39-0.85
		c-0.87-0.56-1.53-1.38-1.99-2.46s-0.68-2.22-0.68-3.45c0-1.34,0.26-2.51,0.77-3.51c0.51-1,1.24-1.76,2.19-2.28
		c0.95-0.52,1.99-0.78,3.12-0.78c1.29,0,2.37,0.33,3.25,0.98s1.49,1.58,1.84,2.77l-1.68,0.4c-0.3-0.94-0.73-1.62-1.3-2.05
		s-1.28-0.64-2.14-0.64c-0.99,0-1.82,0.24-2.48,0.71s-1.13,1.11-1.4,1.91c-0.27,0.8-0.4,1.62-0.4,2.47c0,1.1,0.16,2.05,0.48,2.87
		c0.32,0.82,0.82,1.43,1.49,1.83s1.4,0.61,2.19,0.61c0.96,0,1.76-0.28,2.43-0.83S37.48,74.01,37.71,72.93z"/>
	<path fill="#5A5A5A" d="M49.47,77.45V66.08h-4.25v-1.52h10.21v1.52h-4.26v11.36H49.47z"/>
	<path fill="#5A5A5A" d="M56.3,77.45v-9.33h1.42v1.42c0.36-0.66,0.7-1.1,1.01-1.31s0.65-0.32,1.02-0.32c0.53,0,1.08,0.17,1.63,0.51
		l-0.54,1.47c-0.39-0.23-0.77-0.34-1.16-0.34c-0.35,0-0.66,0.1-0.93,0.31s-0.47,0.5-0.59,0.87c-0.18,0.56-0.26,1.18-0.26,1.85v4.89
		H56.3z"/>
	<path fill="#5A5A5A" d="M68.4,76.3c-0.59,0.5-1.15,0.85-1.69,1.05s-1.12,0.31-1.74,0.31c-1.03,0-1.81-0.25-2.36-0.75
		c-0.55-0.5-0.83-1.14-0.83-1.92c0-0.46,0.1-0.88,0.31-1.25c0.21-0.38,0.48-0.68,0.82-0.91s0.72-0.4,1.14-0.52
		c0.31-0.08,0.78-0.16,1.41-0.24c1.28-0.15,2.22-0.33,2.82-0.54c0.01-0.22,0.01-0.35,0.01-0.41c0-0.64-0.15-1.1-0.45-1.36
		c-0.4-0.36-1-0.54-1.8-0.54c-0.74,0-1.29,0.13-1.65,0.39s-0.62,0.72-0.79,1.38l-1.55-0.21c0.14-0.66,0.37-1.2,0.69-1.6
		c0.32-0.41,0.79-0.72,1.4-0.94c0.61-0.22,1.32-0.33,2.12-0.33c0.8,0,1.44,0.09,1.94,0.28s0.86,0.42,1.1,0.71
		c0.23,0.29,0.4,0.64,0.49,1.08c0.05,0.27,0.08,0.76,0.08,1.46v2.11c0,1.47,0.03,2.4,0.1,2.79c0.07,0.39,0.2,0.76,0.4,1.12h-1.65
		C68.56,77.12,68.45,76.74,68.4,76.3z M68.27,72.76c-0.57,0.23-1.44,0.43-2.58,0.6c-0.65,0.09-1.11,0.2-1.38,0.32
		s-0.48,0.29-0.62,0.51s-0.22,0.48-0.22,0.75c0,0.42,0.16,0.77,0.48,1.05s0.79,0.42,1.4,0.42c0.61,0,1.15-0.13,1.63-0.4
		s0.82-0.63,1.05-1.09c0.17-0.36,0.25-0.88,0.25-1.58V72.76z"/>
	<path fill="#5A5A5A" d="M72.32,77.45v-9.33h1.42v1.33c0.69-1.03,1.68-1.54,2.97-1.54c0.56,0,1.08,0.1,1.55,0.3
		c0.47,0.2,0.82,0.47,1.06,0.8s0.4,0.72,0.49,1.17c0.06,0.29,0.09,0.81,0.09,1.54v5.74h-1.58v-5.68c0-0.64-0.06-1.13-0.18-1.45
		s-0.34-0.57-0.65-0.77c-0.31-0.19-0.68-0.29-1.1-0.29c-0.67,0-1.26,0.21-1.74,0.64s-0.73,1.24-0.73,2.43v5.1H72.32z"/>
	<path fill="#5A5A5A" d="M81.7,74.66l1.56-0.25c0.09,0.63,0.33,1.11,0.73,1.44s0.96,0.5,1.68,0.5c0.73,0,1.27-0.15,1.62-0.44
		s0.53-0.64,0.53-1.04c0-0.36-0.16-0.64-0.47-0.84c-0.22-0.14-0.76-0.32-1.62-0.54c-1.16-0.29-1.96-0.55-2.41-0.76
		s-0.79-0.51-1.02-0.89c-0.23-0.38-0.35-0.79-0.35-1.25c0-0.42,0.1-0.8,0.29-1.16c0.19-0.35,0.45-0.65,0.78-0.88
		c0.25-0.18,0.58-0.33,1.01-0.46s0.88-0.19,1.37-0.19c0.73,0,1.38,0.11,1.93,0.32s0.96,0.5,1.23,0.86c0.26,0.36,0.45,0.84,0.54,1.45
		l-1.55,0.21c-0.07-0.48-0.27-0.86-0.61-1.12s-0.81-0.4-1.43-0.4c-0.73,0-1.25,0.12-1.56,0.36s-0.47,0.52-0.47,0.84
		c0,0.21,0.06,0.39,0.19,0.55c0.13,0.17,0.33,0.31,0.61,0.42c0.16,0.06,0.62,0.19,1.4,0.4c1.12,0.3,1.9,0.54,2.34,0.73
		s0.79,0.47,1.04,0.83s0.38,0.81,0.38,1.35c0,0.53-0.15,1.02-0.46,1.49c-0.31,0.46-0.75,0.83-1.33,1.08
		c-0.58,0.26-1.24,0.38-1.97,0.38c-1.21,0-2.14-0.25-2.77-0.76S81.88,75.65,81.7,74.66z"/>
	<path fill="#5A5A5A" d="M91.33,81.02V68.11h1.44v1.21c0.34-0.47,0.72-0.83,1.15-1.07c0.43-0.24,0.95-0.36,1.56-0.36
		c0.8,0,1.5,0.21,2.11,0.62s1.07,0.99,1.38,1.74c0.31,0.75,0.47,1.57,0.47,2.46c0,0.96-0.17,1.82-0.51,2.58
		c-0.34,0.77-0.84,1.35-1.49,1.76c-0.65,0.41-1.34,0.61-2.06,0.61c-0.53,0-1-0.11-1.42-0.33s-0.76-0.5-1.03-0.84v4.54H91.33z
		 M92.77,72.83c0,1.2,0.24,2.09,0.73,2.66s1.08,0.86,1.77,0.86c0.7,0,1.31-0.3,1.81-0.89c0.5-0.59,0.75-1.52,0.75-2.76
		c0-1.19-0.24-2.08-0.73-2.67s-1.07-0.89-1.75-0.89c-0.67,0-1.27,0.32-1.79,0.94C93.03,70.72,92.77,71.63,92.77,72.83z"/>
	<path fill="#5A5A5A" d="M100.76,72.78c0-1.73,0.48-3.01,1.44-3.84c0.8-0.69,1.78-1.04,2.94-1.04c1.28,0,2.33,0.42,3.15,1.26
		s1.22,2,1.22,3.48c0,1.2-0.18,2.15-0.54,2.83c-0.36,0.69-0.88,1.22-1.57,1.6s-1.44,0.57-2.25,0.57c-1.31,0-2.36-0.42-3.17-1.26
		S100.76,74.36,100.76,72.78z M102.38,72.78c0,1.2,0.26,2.09,0.78,2.68c0.52,0.6,1.18,0.89,1.97,0.89c0.79,0,1.44-0.3,1.96-0.9
		s0.78-1.51,0.78-2.73c0-1.15-0.26-2.03-0.79-2.62c-0.52-0.59-1.18-0.89-1.96-0.89c-0.79,0-1.45,0.3-1.97,0.89
		S102.38,71.58,102.38,72.78z"/>
	<path fill="#5A5A5A" d="M116.13,71.14c0-0.62,0.22-1.14,0.65-1.57s0.96-0.65,1.57-0.65c0.62,0,1.14,0.22,1.58,0.65
		s0.65,0.96,0.65,1.57s-0.22,1.14-0.65,1.58s-0.96,0.65-1.58,0.65c-0.61,0-1.13-0.22-1.57-0.65S116.13,71.75,116.13,71.14z"/>
	<path fill="#5A5A5A" d="M127.34,71.17c0-2.14,0.57-3.81,1.72-5.02c1.15-1.21,2.63-1.81,4.45-1.81c1.19,0,2.26,0.28,3.22,0.85
		s1.68,1.36,2.18,2.38s0.75,2.17,0.75,3.46c0,1.31-0.26,2.48-0.79,3.51s-1.27,1.81-2.24,2.34c-0.97,0.53-2.01,0.8-3.13,0.8
		c-1.21,0-2.3-0.29-3.25-0.88s-1.68-1.39-2.17-2.4S127.34,72.3,127.34,71.17z M129.1,71.2c0,1.55,0.42,2.78,1.25,3.67
		c0.83,0.89,1.88,1.34,3.14,1.34c1.28,0,2.34-0.45,3.17-1.35s1.24-2.18,1.24-3.84c0-1.05-0.18-1.96-0.53-2.75
		c-0.35-0.78-0.87-1.39-1.56-1.82c-0.68-0.43-1.45-0.65-2.3-0.65c-1.21,0-2.25,0.42-3.12,1.24C129.54,67.88,129.1,69.26,129.1,71.2z
		"/>
	<path fill="#5A5A5A" d="M145.12,76.03l0.23,1.4c-0.45,0.09-0.84,0.14-1.2,0.14c-0.57,0-1.02-0.09-1.34-0.27s-0.54-0.42-0.67-0.72
		s-0.19-0.92-0.19-1.87v-5.37h-1.16v-1.23h1.16V65.8l1.57-0.95v3.26h1.59v1.23h-1.59v5.46c0,0.45,0.03,0.74,0.08,0.87
		s0.15,0.23,0.27,0.31s0.31,0.11,0.54,0.11C144.6,76.09,144.83,76.07,145.12,76.03z"/>
	<path fill="#5A5A5A" d="M150.12,76.03l0.23,1.4c-0.45,0.09-0.84,0.14-1.2,0.14c-0.57,0-1.02-0.09-1.34-0.27s-0.54-0.42-0.67-0.72
		s-0.19-0.92-0.19-1.87v-5.37h-1.16v-1.23h1.16V65.8l1.57-0.95v3.26h1.59v1.23h-1.59v5.46c0,0.45,0.03,0.74,0.08,0.87
		s0.15,0.23,0.27,0.31s0.31,0.11,0.54,0.11C149.6,76.09,149.83,76.07,150.12,76.03z"/>
	<path fill="#5A5A5A" d="M157.75,76.3c-0.59,0.5-1.15,0.85-1.69,1.05s-1.12,0.31-1.74,0.31c-1.03,0-1.81-0.25-2.36-0.75
		c-0.55-0.5-0.83-1.14-0.83-1.92c0-0.46,0.1-0.88,0.31-1.25c0.21-0.38,0.48-0.68,0.82-0.91s0.72-0.4,1.14-0.52
		c0.31-0.08,0.78-0.16,1.41-0.24c1.28-0.15,2.22-0.33,2.82-0.54c0.01-0.22,0.01-0.35,0.01-0.41c0-0.64-0.15-1.1-0.45-1.36
		c-0.4-0.36-1-0.54-1.8-0.54c-0.74,0-1.29,0.13-1.65,0.39s-0.62,0.72-0.79,1.38l-1.55-0.21c0.14-0.66,0.37-1.2,0.69-1.6
		c0.32-0.41,0.79-0.72,1.4-0.94c0.61-0.22,1.32-0.33,2.12-0.33c0.8,0,1.44,0.09,1.94,0.28s0.86,0.42,1.1,0.71
		c0.23,0.29,0.4,0.64,0.49,1.08c0.05,0.27,0.08,0.76,0.08,1.46v2.11c0,1.47,0.03,2.4,0.1,2.79c0.07,0.39,0.2,0.76,0.4,1.12h-1.65
		C157.91,77.12,157.8,76.74,157.75,76.3z M157.62,72.76c-0.57,0.23-1.44,0.43-2.58,0.6c-0.65,0.09-1.11,0.2-1.38,0.32
		s-0.48,0.29-0.62,0.51s-0.22,0.48-0.22,0.75c0,0.42,0.16,0.77,0.48,1.05s0.79,0.42,1.4,0.42c0.61,0,1.15-0.13,1.63-0.4
		s0.82-0.63,1.05-1.09c0.17-0.36,0.25-0.88,0.25-1.58V72.76z"/>
	<path fill="#5A5A5A" d="M163.4,77.45l-2.86-9.33h1.63l1.49,5.39l0.55,2c0.02-0.1,0.18-0.74,0.48-1.92l1.49-5.47h1.63l1.4,5.41
		l0.47,1.78l0.54-1.8l1.6-5.4h1.54l-2.92,9.33h-1.64l-1.49-5.59l-0.36-1.59l-1.89,7.18H163.4z"/>
	<path fill="#5A5A5A" d="M180.76,76.3c-0.59,0.5-1.15,0.85-1.69,1.05s-1.12,0.31-1.74,0.31c-1.03,0-1.81-0.25-2.36-0.75
		c-0.55-0.5-0.83-1.14-0.83-1.92c0-0.46,0.1-0.88,0.31-1.25c0.21-0.38,0.48-0.68,0.82-0.91s0.72-0.4,1.14-0.52
		c0.31-0.08,0.78-0.16,1.41-0.24c1.28-0.15,2.22-0.33,2.82-0.54c0.01-0.22,0.01-0.35,0.01-0.41c0-0.64-0.15-1.1-0.45-1.36
		c-0.4-0.36-1-0.54-1.8-0.54c-0.74,0-1.29,0.13-1.65,0.39s-0.62,0.72-0.79,1.38l-1.55-0.21c0.14-0.66,0.37-1.2,0.69-1.6
		c0.32-0.41,0.79-0.72,1.4-0.94c0.61-0.22,1.32-0.33,2.12-0.33c0.8,0,1.44,0.09,1.94,0.28s0.86,0.42,1.1,0.71
		c0.23,0.29,0.4,0.64,0.49,1.08c0.05,0.27,0.08,0.76,0.08,1.46v2.11c0,1.47,0.03,2.4,0.1,2.79c0.07,0.39,0.2,0.76,0.4,1.12h-1.65
		C180.92,77.12,180.81,76.74,180.76,76.3z M180.63,72.76c-0.57,0.23-1.44,0.43-2.58,0.6c-0.65,0.09-1.11,0.2-1.38,0.32
		s-0.48,0.29-0.62,0.51s-0.22,0.48-0.22,0.75c0,0.42,0.16,0.77,0.48,1.05s0.79,0.42,1.4,0.42c0.61,0,1.15-0.13,1.63-0.4
		s0.82-0.63,1.05-1.09c0.17-0.36,0.25-0.88,0.25-1.58V72.76z"/>
	<path fill="#5A5A5A" d="M189.46,71.14c0-0.62,0.22-1.14,0.65-1.57s0.96-0.65,1.57-0.65c0.62,0,1.14,0.22,1.58,0.65
		s0.65,0.96,0.65,1.57s-0.22,1.14-0.65,1.58s-0.96,0.65-1.58,0.65c-0.61,0-1.13-0.22-1.57-0.65S189.46,71.75,189.46,71.14z"/>
	<path fill="#5A5A5A" d="M204.14,77.45V66.08h-4.25v-1.52h10.21v1.52h-4.26v11.36H204.14z"/>
	<path fill="#5A5A5A" d="M211.79,77.45V64.56h4.83c0.98,0,1.77,0.13,2.37,0.39c0.59,0.26,1.06,0.66,1.4,1.21s0.51,1.11,0.51,1.7
		c0,0.55-0.15,1.07-0.45,1.56s-0.75,0.88-1.35,1.18c0.78,0.23,1.38,0.62,1.8,1.17s0.63,1.2,0.63,1.95c0,0.6-0.13,1.17-0.38,1.68
		c-0.25,0.52-0.57,0.92-0.94,1.2s-0.85,0.49-1.41,0.64s-1.26,0.21-2.08,0.21H211.79z M213.49,69.98h2.79c0.76,0,1.3-0.05,1.63-0.15
		c0.43-0.13,0.76-0.34,0.98-0.64s0.33-0.67,0.33-1.12c0-0.43-0.1-0.8-0.31-1.13c-0.21-0.33-0.5-0.55-0.88-0.67s-1.03-0.18-1.96-0.18
		h-2.58V69.98z M213.49,75.93h3.21c0.55,0,0.94-0.02,1.16-0.06c0.39-0.07,0.72-0.19,0.98-0.35s0.48-0.4,0.65-0.72
		c0.17-0.31,0.25-0.67,0.25-1.08c0-0.48-0.12-0.9-0.37-1.25c-0.25-0.35-0.59-0.6-1.02-0.75s-1.06-0.22-1.89-0.22h-2.98V75.93z"/>
	<path fill="#5A5A5A" d="M223.87,77.45V64.56h4.44c1,0,1.77,0.06,2.29,0.18c0.74,0.17,1.37,0.48,1.89,0.92
		c0.68,0.57,1.19,1.31,1.52,2.2c0.34,0.89,0.51,1.92,0.51,3.06c0,0.98-0.11,1.85-0.34,2.6s-0.52,1.38-0.88,1.88
		c-0.36,0.5-0.75,0.89-1.17,1.17s-0.94,0.5-1.54,0.65s-1.29,0.22-2.07,0.22H223.87z M225.57,75.93h2.75c0.85,0,1.52-0.08,2-0.24
		s0.87-0.38,1.16-0.67c0.4-0.4,0.72-0.95,0.94-1.63c0.23-0.68,0.34-1.51,0.34-2.48c0-1.35-0.22-2.38-0.66-3.11
		c-0.44-0.72-0.98-1.21-1.61-1.45c-0.46-0.18-1.19-0.26-2.21-0.26h-2.71V75.93z"/>
</g>
</svg>
