<?xml version="1.0" encoding="iso-8859-1"?>
<!-- Generator: Adobe Illustrator 29.8.4, SVG Export Plug-In . SVG Version: 9.03 Build 0)  -->
<svg version="1.1" id="Layer_1" xmlns="http://www.w3.org/2000/svg" xmlns:xlink="http://www.w3.org/1999/xlink" x="0px" y="0px"
	 viewBox="0 0 1600 223" enable-background="new 0 0 1600 223" xml:space="preserve">
<rect id="bg-white" fill="#FFFFFF" width="1600" height="223"/>
<line fill="none" stroke="#0980A5" stroke-width="8" stroke-linecap="round" stroke-miterlimit="10" x1="100" y1="188" x2="1500" y2="188"/>
<circle fill="#FFFFFF" stroke="#000000" stroke-width="3" stroke-miterlimit="10" cx="100" cy="188" r="10"/>
<g>
	<path d="M104.45,166.53l-1.2,4.48l2.05,1.61l-0.61,2.27l-9.91-7.74l0.43-1.61l12.42-1.6l-0.61,2.29L104.45,166.53z M102.54,166.74
		l-4.35,0.48l3.51,2.64L102.54,166.74z"/>
	<path d="M96.84,158.94c0.09-0.33,0.28-0.58,0.57-0.75c0.29-0.17,0.61-0.21,0.93-0.12c0.33,0.09,0.58,0.29,0.76,0.58
		c0.18,0.3,0.22,0.62,0.13,0.95c-0.09,0.33-0.28,0.58-0.58,0.75c-0.29,0.17-0.62,0.21-0.95,0.13c-0.33-0.09-0.58-0.29-0.75-0.59
		C96.79,159.58,96.75,159.26,96.84,158.94z M101.3,159.09l7.11,1.91l-0.53,1.98l-7.11-1.91L101.3,159.09z"/>
	<path d="M109.45,157.13l-0.53,1.99l-7.11-1.91l0.53-1.99l1.08,0.29c-0.74-0.72-1-1.53-0.75-2.42c0.08-0.28,0.21-0.55,0.41-0.82
		l1.78,0.78c-0.25,0.25-0.41,0.54-0.49,0.88c-0.3,1.14,0.26,1.9,1.67,2.28L109.45,157.13z"/>
	<path d="M114.84,152.17l-0.53,1.99l-10.9-2.92l0.53-1.99l0.92,0.25c-0.6-0.82-0.77-1.71-0.51-2.67c0.26-0.96,0.84-1.68,1.74-2.16
		s1.89-0.58,2.96-0.29c1.07,0.29,1.88,0.87,2.43,1.73c0.55,0.86,0.7,1.77,0.44,2.71c-0.25,0.94-0.85,1.64-1.8,2.1L114.84,152.17z
		 M105.98,147.89c-0.15,0.55-0.08,1.07,0.2,1.57c0.28,0.5,0.7,0.82,1.25,0.96c0.55,0.15,1.08,0.08,1.57-0.21
		c0.5-0.29,0.82-0.7,0.96-1.25c0.15-0.54,0.08-1.07-0.21-1.57c-0.28-0.5-0.69-0.82-1.25-0.97c-0.55-0.15-1.07-0.08-1.57,0.21
		C106.44,146.92,106.12,147.34,105.98,147.89z"/>
	<path d="M106.68,138.13c0.32-1.19,0.93-2.07,1.83-2.63c0.9-0.56,1.91-0.69,3.04-0.39c1.12,0.3,1.94,0.92,2.43,1.86
		c0.49,0.95,0.58,2.02,0.26,3.23c-0.32,1.21-0.94,2.08-1.86,2.64c-0.91,0.55-1.92,0.68-3.03,0.38s-1.92-0.93-2.41-1.88
		C106.44,140.4,106.36,139.32,106.68,138.13z M108.46,138.63c-0.15,0.55-0.08,1.08,0.2,1.57c0.28,0.5,0.7,0.82,1.25,0.97
		s1.08,0.08,1.57-0.21c0.5-0.29,0.82-0.71,0.96-1.26c0.15-0.55,0.08-1.09-0.2-1.58c-0.28-0.5-0.69-0.81-1.25-0.96
		c-0.55-0.15-1.07-0.08-1.57,0.21C108.93,137.66,108.61,138.08,108.46,138.63z"/>
	<path d="M116.04,132.54l-0.53,1.99l-7.11-1.91l0.53-1.99l1.08,0.29c-0.74-0.72-1-1.53-0.75-2.42c0.08-0.28,0.21-0.55,0.41-0.82
		l1.78,0.78c-0.25,0.25-0.41,0.54-0.49,0.88c-0.3,1.14,0.26,1.9,1.68,2.28L116.04,132.54z"/>
	<path d="M112.36,124.71l5.39,1.44l-0.53,1.99l-5.39-1.44l-0.21,0.79l-1.72-0.46l0.21-0.79l-2.43-0.65l0.53-1.99l2.43,0.65
		l0.38-1.41l1.72,0.46L112.36,124.71z"/>
</g>
<circle fill="#FFFFFF" stroke="#000000" stroke-width="3" stroke-miterlimit="10" cx="800" cy="188" r="10"/>
<g>
	<path d="M794.65,168.57l6.27,1.68c0.55,0.15,0.97,0.23,1.23,0.26c0.27,0.03,0.56,0,0.88-0.1c0.64-0.18,1.25-0.83,1.47-1.63
		c0.21-0.8,0.01-1.67-0.46-2.14c-0.24-0.24-0.47-0.42-0.71-0.53c-0.24-0.11-0.64-0.24-1.2-0.39l-6.27-1.68l0.57-2.13l6.7,1.8
		c1.24,0.33,2.13,0.86,2.7,1.58c0.39,0.52,0.64,1.12,0.75,1.83c0.12,0.71,0.07,1.44-0.13,2.18c-0.2,0.75-0.52,1.4-0.98,1.95
		c-0.45,0.56-0.97,0.97-1.57,1.22c-0.86,0.35-1.9,0.35-3.13,0.02l-6.7-1.8L794.65,168.57z"/>
	<path d="M812.31,161.63l-0.53,1.99l-10.9-2.92l0.53-1.99l0.92,0.25c-0.6-0.82-0.77-1.71-0.51-2.67c0.26-0.96,0.84-1.68,1.74-2.16
		s1.89-0.58,2.96-0.29c1.07,0.29,1.88,0.87,2.43,1.73c0.55,0.86,0.7,1.77,0.44,2.71c-0.25,0.94-0.85,1.64-1.8,2.1L812.31,161.63z
		 M803.44,157.35c-0.15,0.55-0.08,1.07,0.2,1.57c0.28,0.5,0.7,0.82,1.25,0.96c0.55,0.15,1.08,0.08,1.57-0.21
		c0.5-0.29,0.81-0.7,0.96-1.25c0.15-0.54,0.08-1.07-0.21-1.57c-0.28-0.5-0.69-0.82-1.24-0.97c-0.55-0.15-1.07-0.08-1.57,0.21
		C803.91,156.38,803.59,156.79,803.44,157.35z"/>
	<path d="M798.72,147.97l12.3,3.3l-0.53,1.99l-12.3-3.3L798.72,147.97z"/>
	<path d="M805.88,142.01l0.53-1.99l7.11,1.91l-0.53,1.99l-0.92-0.25c0.6,0.82,0.77,1.71,0.51,2.68c-0.26,0.97-0.84,1.69-1.74,2.16
		c-0.9,0.47-1.89,0.57-2.95,0.28s-1.88-0.87-2.43-1.73c-0.55-0.86-0.7-1.77-0.44-2.71c0.25-0.95,0.85-1.65,1.79-2.1L805.88,142.01z
		 M806.97,144.2c-0.15,0.56-0.08,1.09,0.2,1.57c0.28,0.5,0.7,0.82,1.25,0.96s1.08,0.08,1.57-0.21c0.5-0.29,0.82-0.7,0.96-1.25
		c0.15-0.54,0.08-1.07-0.21-1.57c-0.28-0.5-0.69-0.81-1.25-0.96c-0.55-0.15-1.07-0.08-1.56,0.19
		C807.43,143.23,807.11,143.65,806.97,144.2z"/>
	<path d="M806.92,138.12l0.53-1.99l0.89,0.24c-0.65-0.83-0.78-1.57-0.52-2.53c0.23-0.87,0.7-1.49,1.41-1.84
		c0.52-0.26,1.23-0.27,2.12-0.03l4.51,1.21l-0.53,1.99l-3.94-1.06c-0.54-0.15-0.95-0.18-1.2-0.11c-0.43,0.11-0.72,0.44-0.87,1.01
		c-0.27,1,0.25,1.68,1.57,2.04l3.68,0.99l-0.53,1.99L806.92,138.12z"/>
	<path d="M805.54,122.53l0.53-1.99l12.3,3.3l-0.53,1.99l-0.92-0.25c0.6,0.82,0.77,1.71,0.51,2.68s-0.84,1.69-1.74,2.16
		c-0.9,0.47-1.89,0.57-2.95,0.28c-1.07-0.29-1.88-0.87-2.43-1.73c-0.55-0.86-0.7-1.77-0.44-2.71c0.25-0.95,0.85-1.64,1.79-2.1
		L805.54,122.53z M811.81,126.12c-0.15,0.56-0.08,1.09,0.2,1.57c0.28,0.5,0.7,0.81,1.25,0.96s1.08,0.08,1.57-0.21
		c0.5-0.29,0.82-0.7,0.96-1.25c0.15-0.55,0.08-1.07-0.21-1.57c-0.28-0.5-0.69-0.81-1.25-0.96c-0.55-0.15-1.07-0.08-1.56,0.19
		C812.28,125.14,811.96,125.56,811.81,126.12z"/>
	<path d="M814.47,116.59c-0.42,0.33-0.68,0.64-0.76,0.94c-0.08,0.3-0.08,0.53-0.01,0.71c0.08,0.18,0.21,0.29,0.37,0.34
		s0.32,0.01,0.47-0.11c0.14-0.12,0.38-0.44,0.72-0.94s0.65-0.87,0.92-1.08c0.5-0.42,1.11-0.54,1.82-0.35
		c0.71,0.19,1.24,0.63,1.56,1.31c0.33,0.69,0.38,1.48,0.14,2.35c-0.29,1.08-0.92,1.87-1.91,2.38l-0.93-1.37
		c0.7-0.4,1.13-0.89,1.28-1.46c0.14-0.5-0.11-1-0.54-1.11c-0.22-0.06-0.39-0.04-0.54,0.07c-0.14,0.11-0.4,0.42-0.76,0.94
		c-0.36,0.52-0.65,0.87-0.88,1.04c-0.46,0.38-1.01,0.49-1.67,0.31c-0.67-0.18-1.14-0.56-1.43-1.16c-0.3-0.59-0.33-1.28-0.12-2.09
		s0.67-1.47,1.36-2.02L814.47,116.59z"/>
</g>
<circle fill="#FFFFFF" stroke="#000000" stroke-width="3" stroke-miterlimit="10" cx="1500" cy="188" r="10"/>
<g>
	<path d="M1497.41,169.41c0.31,0.08,0.6,0.04,0.85-0.14c0.26-0.18,0.66-0.65,1.21-1.42c0.55-0.77,1.04-1.3,1.49-1.6
		c0.72-0.5,1.59-0.61,2.62-0.34s1.79,0.86,2.27,1.73c0.48,0.88,0.57,1.89,0.26,3.03c-0.42,1.55-1.45,2.61-3.09,3.2l-0.96-1.74
		c1.11-0.25,1.8-0.88,2.07-1.9c0.13-0.49,0.1-0.94-0.11-1.33c-0.21-0.39-0.53-0.65-0.99-0.77c-0.46-0.12-0.87-0.03-1.25,0.29
		c-0.19,0.15-0.57,0.64-1.14,1.46c-0.57,0.82-1.14,1.37-1.69,1.66s-1.19,0.33-1.91,0.14c-0.92-0.25-1.6-0.77-2.02-1.58
		s-0.51-1.7-0.25-2.69c0.33-1.22,1.02-2.18,2.08-2.9l1.16,1.51c-0.73,0.36-1.19,0.88-1.36,1.54c-0.12,0.44-0.1,0.83,0.06,1.19
		C1496.86,169.11,1497.1,169.33,1497.41,169.41z"/>
	<path d="M1500.98,159.39c0.32-1.19,0.93-2.07,1.83-2.63c0.9-0.56,1.91-0.69,3.03-0.39c1.12,0.3,1.94,0.92,2.43,1.86
		c0.49,0.95,0.58,2.02,0.26,3.23c-0.32,1.21-0.95,2.08-1.86,2.64c-0.91,0.55-1.92,0.68-3.03,0.38c-1.11-0.3-1.92-0.93-2.41-1.88
		C1500.74,161.67,1500.66,160.59,1500.98,159.39z M1502.76,159.89c-0.15,0.55-0.08,1.08,0.2,1.57c0.28,0.5,0.7,0.82,1.25,0.97
		c0.55,0.15,1.08,0.08,1.57-0.21c0.5-0.29,0.82-0.71,0.96-1.26c0.15-0.55,0.08-1.09-0.2-1.58c-0.28-0.5-0.69-0.81-1.25-0.96
		c-0.55-0.15-1.07-0.08-1.57,0.21C1503.23,158.92,1502.91,159.34,1502.76,159.89z"/>
	<path d="M1503.23,151.9l4.03,1.08c1.08,0.29,1.76-0.04,2.02-1.01c0.26-0.97-0.16-1.6-1.24-1.89L1504,149l0.53-1.99l4.35,1.17
		c1.92,0.52,2.66,2.02,2.07,4.23c-0.59,2.21-1.99,3.16-3.91,2.65l-4.35-1.17L1503.23,151.9z"/>
	<path d="M1507.31,143.57l5.39,1.44l-0.53,1.99l-5.39-1.44l-0.21,0.79l-1.72-0.46l0.21-0.79l-2.43-0.65l0.53-1.99l2.43,0.65
		l0.38-1.41l1.72,0.46L1507.31,143.57z"/>
	<path d="M1501.08,139.16l0.53-1.99l6.11,1.64c-0.61-0.79-0.79-1.63-0.55-2.53c0.24-0.9,0.71-1.51,1.42-1.84
		c0.55-0.26,1.26-0.26,2.16-0.02l4.47,1.2l-0.53,1.99l-3.89-1.04c-0.57-0.15-0.98-0.19-1.24-0.12c-0.44,0.11-0.74,0.46-0.89,1.01
		c-0.27,1,0.26,1.69,1.6,2.04l3.65,0.98l-0.53,1.99L1501.08,139.16z"/>
	<path d="M1517.48,127.16l-0.57,2.13l-10.95-2.93l0.57-2.13l4.63,1.24l-3.56-5.27l0.72-2.69l3.82,5.99l7.2-3.3l-0.75,2.81
		l-5.96,2.57l0.19,0.33L1517.48,127.16z"/>
	<path d="M1518.15,111.73l-1.43,5.33c1.29,0.29,2.08-0.12,2.37-1.23c0.18-0.69,0.01-1.34-0.5-1.95l0.79-1.76
		c1.31,1.01,1.74,2.36,1.29,4.08c-0.31,1.16-0.9,1.99-1.78,2.5c-0.88,0.51-1.88,0.61-3.03,0.31c-1.15-0.31-1.97-0.89-2.48-1.76
		c-0.51-0.87-0.61-1.86-0.31-2.99c0.3-1.13,0.89-1.93,1.74-2.39c0.86-0.47,1.88-0.54,3.08-0.22L1518.15,111.73z M1515.47,116.66
		l0.9-3.37c-1-0.04-1.62,0.41-1.86,1.31C1514.28,115.48,1514.62,116.25,1515.47,116.66z"/>
	<path d="M1521.25,108.75l-6.93,1.75l0.62-2.32l4.61-1.05l-3.5-3.1l0.61-2.29l9.36,8.67l-0.6,2.25L1521.25,108.75z"/>
	<path d="M1519.55,97.62c-0.42,0.33-0.68,0.64-0.76,0.94c-0.08,0.3-0.08,0.53-0.01,0.71c0.08,0.18,0.21,0.29,0.37,0.34
		s0.32,0.01,0.47-0.11c0.14-0.12,0.38-0.44,0.72-0.94c0.34-0.5,0.65-0.87,0.92-1.08c0.5-0.42,1.11-0.54,1.82-0.35
		c0.71,0.19,1.24,0.63,1.56,1.31c0.33,0.69,0.38,1.48,0.14,2.35c-0.29,1.07-0.92,1.87-1.91,2.38l-0.93-1.37
		c0.7-0.4,1.13-0.89,1.28-1.46c0.14-0.5-0.11-1-0.54-1.11c-0.22-0.06-0.39-0.04-0.54,0.07c-0.14,0.11-0.4,0.42-0.76,0.94
		c-0.36,0.52-0.65,0.87-0.88,1.04c-0.46,0.38-1.01,0.49-1.67,0.31c-0.67-0.18-1.14-0.56-1.43-1.16c-0.3-0.59-0.33-1.29-0.12-2.09
		s0.67-1.47,1.36-2.02L1519.55,97.62z"/>
</g>
<g>
	<path fill="#9B9B9B" d="M741.86,216.58v-7.16h3.17c0.64,0,1.12,0.06,1.46,0.19c0.33,0.13,0.6,0.36,0.8,0.68s0.3,0.69,0.3,1.08
		c0,0.51-0.16,0.94-0.49,1.28s-0.84,0.57-1.52,0.66c0.25,0.12,0.44,0.24,0.57,0.36c0.28,0.25,0.54,0.57,0.79,0.95l1.25,1.95h-1.19
		l-0.95-1.49c-0.28-0.43-0.5-0.76-0.68-0.99s-0.34-0.39-0.48-0.48s-0.29-0.15-0.43-0.19c-0.11-0.02-0.28-0.03-0.53-0.03h-1.1v3.18
		H741.86z M742.81,212.58h2.04c0.43,0,0.77-0.04,1.02-0.13c0.24-0.09,0.43-0.23,0.56-0.43c0.13-0.2,0.19-0.41,0.19-0.64
		c0-0.34-0.12-0.62-0.37-0.83s-0.63-0.33-1.16-0.33h-2.27V212.58z"/>
	<path fill="#9B9B9B" d="M752.34,215.94c-0.33,0.28-0.64,0.47-0.94,0.59s-0.62,0.17-0.97,0.17c-0.57,0-1.01-0.14-1.31-0.42
		c-0.31-0.28-0.46-0.63-0.46-1.07c0-0.25,0.06-0.49,0.17-0.7c0.12-0.21,0.27-0.38,0.45-0.51s0.4-0.22,0.63-0.29
		c0.17-0.05,0.43-0.09,0.78-0.13c0.71-0.08,1.23-0.19,1.57-0.3c0-0.12,0-0.2,0-0.23c0-0.36-0.08-0.61-0.25-0.76
		c-0.22-0.2-0.56-0.3-1-0.3c-0.41,0-0.72,0.07-0.92,0.22c-0.2,0.14-0.34,0.4-0.44,0.77l-0.86-0.12c0.08-0.37,0.21-0.67,0.39-0.89
		c0.18-0.23,0.44-0.4,0.78-0.52c0.34-0.12,0.73-0.18,1.18-0.18c0.44,0,0.8,0.05,1.08,0.16s0.48,0.24,0.61,0.39
		c0.13,0.16,0.22,0.36,0.27,0.6c0.03,0.15,0.04,0.42,0.04,0.81v1.17c0,0.82,0.02,1.33,0.06,1.55c0.04,0.22,0.11,0.42,0.22,0.62
		h-0.92C752.43,216.4,752.37,216.19,752.34,215.94z M752.27,213.98c-0.32,0.13-0.8,0.24-1.44,0.33c-0.36,0.05-0.62,0.11-0.77,0.18
		s-0.27,0.16-0.35,0.29c-0.08,0.12-0.12,0.26-0.12,0.42c0,0.23,0.09,0.43,0.27,0.59s0.44,0.23,0.78,0.23c0.34,0,0.64-0.07,0.9-0.22
		c0.26-0.15,0.46-0.35,0.58-0.61c0.09-0.2,0.14-0.49,0.14-0.88V213.98z"/>
	<path fill="#9B9B9B" d="M754.52,210.43v-1.01h0.88v1.01H754.52z M754.52,216.58v-5.19h0.88v5.19H754.52z"/>
	<path fill="#9B9B9B" d="M756.72,216.58v-7.16h0.88v7.16H756.72z"/>
	<path fill="#9B9B9B" d="M761.9,216.58v-7.16h4.83v0.84h-3.88v2.22h3.36v0.84h-3.36v3.25H761.9z"/>
	<path fill="#9B9B9B" d="M771.23,215.94c-0.33,0.28-0.64,0.47-0.94,0.59s-0.62,0.17-0.97,0.17c-0.57,0-1.01-0.14-1.31-0.42
		c-0.31-0.28-0.46-0.63-0.46-1.07c0-0.25,0.06-0.49,0.17-0.7c0.12-0.21,0.27-0.38,0.45-0.51s0.4-0.22,0.63-0.29
		c0.17-0.05,0.43-0.09,0.78-0.13c0.71-0.08,1.23-0.19,1.57-0.3c0-0.12,0-0.2,0-0.23c0-0.36-0.08-0.61-0.25-0.76
		c-0.22-0.2-0.56-0.3-1-0.3c-0.41,0-0.72,0.07-0.92,0.22c-0.2,0.14-0.34,0.4-0.44,0.77l-0.86-0.12c0.08-0.37,0.21-0.67,0.39-0.89
		c0.18-0.23,0.44-0.4,0.78-0.52c0.34-0.12,0.73-0.18,1.18-0.18c0.44,0,0.8,0.05,1.08,0.16s0.48,0.24,0.61,0.39
		c0.13,0.16,0.22,0.36,0.27,0.6c0.03,0.15,0.04,0.42,0.04,0.81v1.17c0,0.82,0.02,1.33,0.06,1.55c0.04,0.22,0.11,0.42,0.22,0.62
		h-0.92C771.32,216.4,771.26,216.19,771.23,215.94z M771.16,213.98c-0.32,0.13-0.8,0.24-1.44,0.33c-0.36,0.05-0.62,0.11-0.77,0.18
		s-0.27,0.16-0.35,0.29c-0.08,0.12-0.12,0.26-0.12,0.42c0,0.23,0.09,0.43,0.27,0.59s0.44,0.23,0.78,0.23c0.34,0,0.64-0.07,0.9-0.22
		c0.26-0.15,0.46-0.35,0.58-0.61c0.09-0.2,0.14-0.49,0.14-0.88V213.98z"/>
	<path fill="#9B9B9B" d="M773.41,216.58v-5.19h0.79v0.74c0.38-0.57,0.93-0.85,1.65-0.85c0.31,0,0.6,0.06,0.86,0.17
		c0.26,0.11,0.46,0.26,0.59,0.44s0.22,0.4,0.27,0.65c0.03,0.16,0.05,0.45,0.05,0.85v3.19h-0.88v-3.15c0-0.36-0.03-0.63-0.1-0.8
		c-0.07-0.18-0.19-0.32-0.36-0.43c-0.17-0.11-0.38-0.16-0.61-0.16c-0.37,0-0.7,0.12-0.97,0.36s-0.41,0.69-0.41,1.35v2.83H773.41z"/>
	<path fill="#9B9B9B" d="M778.62,215.03l0.87-0.14c0.05,0.35,0.18,0.62,0.41,0.8s0.53,0.28,0.94,0.28c0.4,0,0.7-0.08,0.9-0.25
		c0.2-0.17,0.29-0.36,0.29-0.58c0-0.2-0.09-0.35-0.26-0.47c-0.12-0.08-0.42-0.18-0.9-0.3c-0.64-0.16-1.09-0.3-1.34-0.42
		c-0.25-0.12-0.44-0.28-0.57-0.49c-0.13-0.21-0.19-0.44-0.19-0.7c0-0.23,0.05-0.45,0.16-0.64c0.11-0.2,0.25-0.36,0.43-0.49
		c0.14-0.1,0.32-0.19,0.56-0.26c0.24-0.07,0.49-0.11,0.76-0.11c0.41,0,0.76,0.06,1.07,0.18s0.53,0.28,0.68,0.48
		c0.15,0.2,0.25,0.47,0.3,0.8l-0.86,0.12c-0.04-0.27-0.15-0.48-0.34-0.62s-0.45-0.22-0.79-0.22c-0.4,0-0.69,0.07-0.86,0.2
		s-0.26,0.29-0.26,0.47c0,0.11,0.04,0.22,0.11,0.31c0.07,0.09,0.18,0.17,0.34,0.23c0.09,0.03,0.35,0.11,0.78,0.22
		c0.62,0.17,1.06,0.3,1.3,0.41c0.25,0.11,0.44,0.26,0.58,0.46s0.21,0.45,0.21,0.75c0,0.29-0.09,0.57-0.26,0.83
		c-0.17,0.26-0.42,0.46-0.74,0.6c-0.32,0.14-0.69,0.21-1.09,0.21c-0.67,0-1.19-0.14-1.54-0.42S778.72,215.58,778.62,215.03z"/>
	<path fill="#9B9B9B" d="M791.97,214.07l0.95,0.24c-0.2,0.78-0.56,1.37-1.07,1.78c-0.52,0.41-1.15,0.61-1.89,0.61
		c-0.77,0-1.4-0.16-1.88-0.47c-0.48-0.31-0.85-0.77-1.1-1.36s-0.38-1.24-0.38-1.92c0-0.75,0.14-1.4,0.43-1.95
		c0.28-0.55,0.69-0.98,1.22-1.26c0.53-0.29,1.1-0.43,1.74-0.43c0.72,0,1.32,0.18,1.81,0.55s0.83,0.88,1.02,1.54l-0.93,0.22
		c-0.17-0.52-0.41-0.9-0.72-1.14s-0.71-0.36-1.19-0.36c-0.55,0-1.01,0.13-1.38,0.4s-0.63,0.62-0.78,1.06
		c-0.15,0.44-0.22,0.9-0.22,1.37c0,0.61,0.09,1.14,0.27,1.59c0.18,0.45,0.45,0.79,0.83,1.02s0.78,0.34,1.22,0.34
		c0.53,0,0.98-0.15,1.35-0.46S791.84,214.67,791.97,214.07z"/>
	<path fill="#9B9B9B" d="M797.36,215.94c-0.33,0.28-0.64,0.47-0.94,0.59s-0.62,0.17-0.97,0.17c-0.57,0-1.01-0.14-1.31-0.42
		c-0.31-0.28-0.46-0.63-0.46-1.07c0-0.25,0.06-0.49,0.17-0.7c0.12-0.21,0.27-0.38,0.45-0.51s0.4-0.22,0.63-0.29
		c0.17-0.05,0.43-0.09,0.78-0.13c0.71-0.08,1.23-0.19,1.57-0.3c0-0.12,0-0.2,0-0.23c0-0.36-0.08-0.61-0.25-0.76
		c-0.22-0.2-0.56-0.3-1-0.3c-0.41,0-0.72,0.07-0.92,0.22c-0.2,0.14-0.34,0.4-0.44,0.77l-0.86-0.12c0.08-0.37,0.21-0.67,0.39-0.89
		c0.18-0.23,0.44-0.4,0.78-0.52c0.34-0.12,0.73-0.18,1.18-0.18c0.44,0,0.8,0.05,1.08,0.16s0.48,0.24,0.61,0.39
		c0.13,0.16,0.22,0.36,0.27,0.6c0.03,0.15,0.04,0.42,0.04,0.81v1.17c0,0.82,0.02,1.33,0.06,1.55c0.04,0.22,0.11,0.42,0.22,0.62
		h-0.92C797.44,216.4,797.38,216.19,797.36,215.94z M797.28,213.98c-0.32,0.13-0.8,0.24-1.44,0.33c-0.36,0.05-0.62,0.11-0.77,0.18
		s-0.27,0.16-0.35,0.29c-0.08,0.12-0.12,0.26-0.12,0.42c0,0.23,0.09,0.43,0.27,0.59s0.44,0.23,0.78,0.23c0.34,0,0.64-0.07,0.9-0.22
		c0.26-0.15,0.46-0.35,0.58-0.61c0.09-0.2,0.14-0.49,0.14-0.88V213.98z"/>
	<path fill="#9B9B9B" d="M799.53,216.58v-5.19h0.79v0.74c0.38-0.57,0.93-0.85,1.65-0.85c0.31,0,0.6,0.06,0.86,0.17
		c0.26,0.11,0.46,0.26,0.59,0.44c0.13,0.18,0.22,0.4,0.27,0.65c0.03,0.16,0.05,0.45,0.05,0.85v3.19h-0.88v-3.15
		c0-0.36-0.04-0.63-0.1-0.8c-0.07-0.18-0.19-0.32-0.36-0.43c-0.17-0.11-0.38-0.16-0.61-0.16c-0.37,0-0.7,0.12-0.97,0.36
		c-0.27,0.24-0.41,0.69-0.41,1.35v2.83H799.53z"/>
	<path fill="#9B9B9B" d="M808.48,215.94c-0.33,0.28-0.64,0.47-0.94,0.59s-0.62,0.17-0.97,0.17c-0.57,0-1.01-0.14-1.31-0.42
		c-0.31-0.28-0.46-0.63-0.46-1.07c0-0.25,0.06-0.49,0.17-0.7c0.12-0.21,0.27-0.38,0.45-0.51s0.4-0.22,0.63-0.29
		c0.17-0.05,0.43-0.09,0.78-0.13c0.71-0.08,1.23-0.19,1.57-0.3c0-0.12,0-0.2,0-0.23c0-0.36-0.08-0.61-0.25-0.76
		c-0.22-0.2-0.56-0.3-1-0.3c-0.41,0-0.72,0.07-0.92,0.22c-0.2,0.14-0.34,0.4-0.44,0.77l-0.86-0.12c0.08-0.37,0.21-0.67,0.38-0.89
		c0.18-0.23,0.44-0.4,0.78-0.52c0.34-0.12,0.73-0.18,1.18-0.18c0.44,0,0.8,0.05,1.08,0.16c0.28,0.1,0.48,0.24,0.61,0.39
		c0.13,0.16,0.22,0.36,0.27,0.6c0.03,0.15,0.04,0.42,0.04,0.81v1.17c0,0.82,0.02,1.33,0.06,1.55c0.04,0.22,0.11,0.42,0.22,0.62
		h-0.92C808.56,216.4,808.5,216.19,808.48,215.94z M808.41,213.98c-0.32,0.13-0.8,0.24-1.44,0.33c-0.36,0.05-0.62,0.11-0.77,0.18
		c-0.15,0.07-0.26,0.16-0.35,0.29c-0.08,0.12-0.12,0.26-0.12,0.42c0,0.23,0.09,0.43,0.27,0.59s0.44,0.23,0.78,0.23
		c0.34,0,0.64-0.07,0.9-0.22c0.26-0.15,0.46-0.35,0.58-0.61c0.09-0.2,0.14-0.49,0.14-0.88V213.98z"/>
	<path fill="#9B9B9B" d="M814.02,216.58v-0.65c-0.33,0.51-0.81,0.77-1.45,0.77c-0.41,0-0.79-0.11-1.14-0.34s-0.62-0.55-0.81-0.96
		c-0.19-0.41-0.29-0.88-0.29-1.41c0-0.52,0.09-0.99,0.26-1.41c0.17-0.42,0.43-0.75,0.78-0.97c0.34-0.22,0.73-0.34,1.16-0.34
		c0.31,0,0.59,0.07,0.84,0.2c0.24,0.13,0.44,0.3,0.6,0.52v-2.57h0.87v7.16H814.02z M811.24,213.99c0,0.66,0.14,1.16,0.42,1.49
		c0.28,0.33,0.61,0.49,0.99,0.49c0.38,0,0.71-0.16,0.98-0.47c0.27-0.31,0.4-0.79,0.4-1.44c0-0.71-0.14-1.23-0.41-1.56
		s-0.61-0.5-1.01-0.5c-0.39,0-0.72,0.16-0.98,0.48S811.24,213.31,811.24,213.99z"/>
	<path fill="#9B9B9B" d="M819.6,215.94c-0.33,0.28-0.64,0.47-0.94,0.59s-0.62,0.17-0.97,0.17c-0.57,0-1.01-0.14-1.31-0.42
		c-0.31-0.28-0.46-0.63-0.46-1.07c0-0.25,0.06-0.49,0.17-0.7c0.12-0.21,0.27-0.38,0.45-0.51s0.4-0.22,0.63-0.29
		c0.17-0.05,0.43-0.09,0.78-0.13c0.71-0.08,1.23-0.19,1.57-0.3c0-0.12,0-0.2,0-0.23c0-0.36-0.08-0.61-0.25-0.76
		c-0.22-0.2-0.56-0.3-1-0.3c-0.41,0-0.72,0.07-0.92,0.22c-0.2,0.14-0.34,0.4-0.44,0.77l-0.86-0.12c0.08-0.37,0.21-0.67,0.38-0.89
		c0.18-0.23,0.44-0.4,0.78-0.52c0.34-0.12,0.73-0.18,1.18-0.18c0.44,0,0.8,0.05,1.08,0.16c0.28,0.1,0.48,0.24,0.61,0.39
		c0.13,0.16,0.22,0.36,0.27,0.6c0.03,0.15,0.04,0.42,0.04,0.81v1.17c0,0.82,0.02,1.33,0.06,1.55c0.04,0.22,0.11,0.42,0.22,0.62
		h-0.92C819.69,216.4,819.63,216.19,819.6,215.94z M819.53,213.98c-0.32,0.13-0.8,0.24-1.44,0.33c-0.36,0.05-0.62,0.11-0.77,0.18
		c-0.15,0.07-0.26,0.16-0.35,0.29c-0.08,0.12-0.12,0.26-0.12,0.42c0,0.23,0.09,0.43,0.27,0.59s0.44,0.23,0.78,0.23
		c0.34,0,0.64-0.07,0.9-0.22c0.26-0.15,0.46-0.35,0.58-0.61c0.09-0.2,0.14-0.49,0.14-0.88V213.98z"/>
	<path fill="#9B9B9B" d="M823.9,214.35v-0.71h10v0.71H823.9z"/>
	<path fill="#9B9B9B" d="M841.71,215.74v0.84h-4.73c-0.01-0.21,0.03-0.42,0.1-0.61c0.12-0.32,0.31-0.64,0.58-0.95
		s0.65-0.67,1.15-1.08c0.78-0.64,1.3-1.14,1.58-1.52c0.27-0.37,0.41-0.73,0.41-1.06c0-0.35-0.12-0.64-0.37-0.88
		c-0.25-0.24-0.57-0.36-0.97-0.36c-0.42,0-0.76,0.13-1.02,0.38s-0.38,0.61-0.39,1.05l-0.9-0.09c0.06-0.67,0.29-1.19,0.7-1.54
		c0.4-0.35,0.95-0.53,1.63-0.53c0.69,0,1.23,0.19,1.63,0.57s0.6,0.85,0.6,1.42c0,0.29-0.06,0.57-0.18,0.84s-0.31,0.57-0.58,0.87
		s-0.72,0.73-1.35,1.26c-0.53,0.44-0.87,0.74-1.02,0.9c-0.15,0.16-0.27,0.32-0.37,0.48H841.71z"/>
	<path fill="#9B9B9B" d="M842.65,213.05c0-0.85,0.09-1.53,0.26-2.04c0.17-0.52,0.43-0.91,0.78-1.19s0.78-0.42,1.3-0.42
		c0.38,0,0.72,0.08,1.01,0.23c0.29,0.15,0.53,0.38,0.72,0.67c0.19,0.29,0.34,0.65,0.44,1.06c0.11,0.42,0.16,0.98,0.16,1.69
		c0,0.84-0.09,1.52-0.26,2.03c-0.17,0.52-0.43,0.91-0.77,1.2c-0.34,0.28-0.78,0.42-1.3,0.42c-0.69,0-1.23-0.25-1.63-0.74
		C842.89,215.37,842.65,214.4,842.65,213.05z M843.56,213.05c0,1.17,0.14,1.96,0.41,2.35c0.27,0.39,0.61,0.58,1.02,0.58
		c0.4,0,0.74-0.2,1.02-0.59s0.41-1.17,0.41-2.34c0-1.18-0.14-1.96-0.41-2.35s-0.62-0.58-1.03-0.58c-0.4,0-0.73,0.17-0.97,0.51
		C843.71,211.07,843.56,211.88,843.56,213.05z"/>
	<path fill="#9B9B9B" d="M852.83,215.74v0.84h-4.73c-0.01-0.21,0.03-0.42,0.1-0.61c0.12-0.32,0.31-0.64,0.58-0.95
		s0.65-0.67,1.15-1.08c0.78-0.64,1.3-1.14,1.58-1.52c0.27-0.37,0.41-0.73,0.41-1.06c0-0.35-0.12-0.64-0.37-0.88
		c-0.25-0.24-0.57-0.36-0.97-0.36c-0.42,0-0.76,0.13-1.02,0.38s-0.38,0.61-0.39,1.05l-0.9-0.09c0.06-0.67,0.29-1.19,0.7-1.54
		c0.4-0.35,0.95-0.53,1.63-0.53c0.69,0,1.23,0.19,1.63,0.57s0.6,0.85,0.6,1.42c0,0.29-0.06,0.57-0.18,0.84s-0.31,0.57-0.58,0.87
		s-0.72,0.73-1.35,1.26c-0.53,0.44-0.87,0.74-1.02,0.9c-0.15,0.16-0.27,0.32-0.37,0.48H852.83z"/>
	<path fill="#9B9B9B" d="M858.34,211.18l-0.88,0.07c-0.08-0.34-0.19-0.6-0.33-0.75c-0.24-0.25-0.53-0.38-0.88-0.38
		c-0.28,0-0.53,0.08-0.74,0.23c-0.28,0.2-0.5,0.5-0.65,0.88c-0.16,0.39-0.24,0.94-0.25,1.66c0.21-0.32,0.47-0.56,0.78-0.72
		c0.31-0.16,0.63-0.23,0.96-0.23c0.59,0,1.09,0.22,1.5,0.65c0.41,0.43,0.62,0.99,0.62,1.67c0,0.45-0.1,0.87-0.29,1.25
		c-0.19,0.39-0.46,0.68-0.8,0.89c-0.34,0.21-0.72,0.31-1.15,0.31c-0.73,0-1.33-0.27-1.79-0.81c-0.46-0.54-0.69-1.43-0.69-2.66
		c0-1.38,0.25-2.39,0.77-3.02c0.45-0.55,1.05-0.82,1.8-0.82c0.56,0,1.02,0.16,1.38,0.47S858.27,210.62,858.34,211.18z
		 M854.75,214.26c0,0.3,0.06,0.59,0.19,0.87s0.31,0.49,0.54,0.63c0.23,0.15,0.47,0.22,0.73,0.22c0.37,0,0.69-0.15,0.96-0.45
		c0.27-0.3,0.4-0.71,0.4-1.22c0-0.5-0.13-0.88-0.4-1.17c-0.26-0.29-0.6-0.43-1-0.43c-0.4,0-0.73,0.14-1.01,0.43
		C854.89,213.43,854.75,213.8,854.75,214.26z"/>
</g>
<g>
	<path d="M19.71,21.33v24.38h9.02v4.96H14V21.33H19.71z"/>
	<path d="M34.65,20.36c0.88,0,1.63,0.3,2.26,0.92s0.92,1.38,0.92,2.26s-0.32,1.65-0.95,2.28c-0.62,0.64-1.4,0.97-2.28,0.97
		s-1.63-0.32-2.26-0.95s-0.95-1.4-0.95-2.28s0.32-1.65,0.97-2.28C32.99,20.66,33.77,20.36,34.65,20.36z M37.25,31.62v19.06h-5.31
		V31.62H37.25z"/>
	<path d="M42.27,31.62h5.33V34c1.63-2.17,3.39-2.99,5.97-2.99c2.34,0,4.19,0.75,5.54,2.28c1.01,1.14,1.5,2.9,1.5,5.29v12.1h-5.33
		V40.1c0-1.46-0.17-2.49-0.54-3.07c-0.56-1.01-1.59-1.5-3.12-1.5c-2.69,0-4.04,1.76-4.04,5.29v9.86h-5.33V31.62z"/>
	<path d="M84.45,42.02H70.16c0.15,3.42,1.7,5.11,4.66,5.09c1.85,0,3.35-0.86,4.53-2.56l4.92,0.79c-1.65,3.95-4.75,5.93-9.32,5.95
		c-3.12,0-5.59-0.92-7.46-2.77s-2.79-4.3-2.79-7.37s0.9-5.52,2.73-7.37s4.23-2.77,7.26-2.77s5.41,0.92,7.15,2.75s2.6,4.34,2.6,7.54
		V42.02z M70.33,38.62h9.02c-0.58-2.51-2.11-3.78-4.53-3.78C72.48,34.84,70.78,36.21,70.33,38.62z"/>
	<path d="M117.51,40.9h3.48v4.58h-3.48v5.2h-5.31v-5.2H97.85v-2.54l14.52-22.15h5.13V40.9z M112.21,40.9V29.25l-7.58,11.64H112.21z"
		/>
</g>
<g>
	<path fill="#5A5A5A" d="M14,71.17c0-2.14,0.57-3.81,1.72-5.02c1.15-1.21,2.63-1.81,4.45-1.81c1.19,0,2.26,0.28,3.22,0.85
		s1.68,1.36,2.18,2.38s0.75,2.17,0.75,3.46c0,1.31-0.26,2.48-0.79,3.51s-1.27,1.81-2.24,2.34c-0.97,0.53-2.01,0.8-3.13,0.8
		c-1.21,0-2.3-0.29-3.25-0.88s-1.68-1.39-2.17-2.4S14,72.3,14,71.17z M15.76,71.2c0,1.55,0.42,2.78,1.25,3.67
		c0.83,0.89,1.88,1.34,3.14,1.34c1.28,0,2.34-0.45,3.17-1.35s1.24-2.18,1.24-3.84c0-1.05-0.18-1.96-0.53-2.75
		c-0.35-0.78-0.87-1.39-1.56-1.82c-0.68-0.43-1.45-0.65-2.3-0.65c-1.21,0-2.25,0.42-3.12,1.24C16.19,67.88,15.76,69.26,15.76,71.2z"
		/>
	<path fill="#5A5A5A" d="M37.71,72.93l1.71,0.43c-0.36,1.4-1,2.47-1.93,3.2s-2.06,1.1-3.41,1.1c-1.39,0-2.52-0.28-3.39-0.85
		c-0.87-0.56-1.53-1.38-1.99-2.46s-0.68-2.22-0.68-3.45c0-1.34,0.26-2.51,0.77-3.51c0.51-1,1.24-1.76,2.19-2.28
		c0.95-0.52,1.99-0.78,3.12-0.78c1.29,0,2.37,0.33,3.25,0.98s1.49,1.58,1.84,2.77l-1.68,0.4c-0.3-0.94-0.73-1.62-1.3-2.05
		s-1.28-0.64-2.14-0.64c-0.99,0-1.82,0.24-2.48,0.71s-1.13,1.11-1.4,1.91c-0.27,0.8-0.4,1.62-0.4,2.47c0,1.1,0.16,2.05,0.48,2.87
		c0.32,0.82,0.82,1.43,1.49,1.83s1.4,0.61,2.19,0.61c0.96,0,1.76-0.28,2.43-0.83S37.48,74.01,37.71,72.93z"/>
	<path fill="#5A5A5A" d="M49.47,77.45V66.08h-4.25v-1.52h10.21v1.52h-4.26v11.36H49.47z"/>
	<path fill="#5A5A5A" d="M56.3,77.45v-9.33h1.42v1.42c0.36-0.66,0.7-1.1,1.01-1.31s0.65-0.32,1.02-0.32c0.53,0,1.08,0.17,1.63,0.51
		l-0.54,1.47c-0.39-0.23-0.77-0.34-1.16-0.34c-0.35,0-0.66,0.1-0.93,0.31s-0.47,0.5-0.59,0.87c-0.18,0.56-0.26,1.18-0.26,1.85v4.89
		H56.3z"/>
	<path fill="#5A5A5A" d="M68.4,76.3c-0.59,0.5-1.15,0.85-1.69,1.05s-1.12,0.31-1.74,0.31c-1.03,0-1.81-0.25-2.36-0.75
		c-0.55-0.5-0.83-1.14-0.83-1.92c0-0.46,0.1-0.88,0.31-1.25c0.21-0.38,0.48-0.68,0.82-0.91s0.72-0.4,1.14-0.52
		c0.31-0.08,0.78-0.16,1.41-0.24c1.28-0.15,2.22-0.33,2.82-0.54c0.01-0.22,0.01-0.35,0.01-0.41c0-0.64-0.15-1.1-0.45-1.36
		c-0.4-0.36-1-0.54-1.8-0.54c-0.74,0-1.29,0.13-1.65,0.39s-0.62,0.72-0.79,1.38l-1.55-0.21c0.14-0.66,0.37-1.2,0.69-1.6
		c0.32-0.41,0.79-0.72,1.4-0.94c0.61-0.22,1.32-0.33,2.12-0.33c0.8,0,1.44,0.09,1.94,0.28s0.86,0.42,1.1,0.71
		c0.23,0.29,0.4,0.64,0.49,1.08c0.05,0.27,0.08,0.76,0.08,1.46v2.11c0,1.47,0.03,2.4,0.1,2.79c0.07,0.39,0.2,0.76,0.4,1.12h-1.65
		C68.56,77.12,68.45,76.74,68.4,76.3z M68.27,72.76c-0.57,0.23-1.44,0.43-2.58,0.6c-0.65,0.09-1.11,0.2-1.38,0.32
		s-0.48,0.29-0.62,0.51s-0.22,0.48-0.22,0.75c0,0.42,0.16,0.77,0.48,1.05s0.79,0.42,1.4,0.42c0.61,0,1.15-0.13,1.63-0.4
		s0.82-0.63,1.05-1.09c0.17-0.36,0.25-0.88,0.25-1.58V72.76z"/>
	<path fill="#5A5A5A" d="M72.32,77.45v-9.33h1.42v1.33c0.69-1.03,1.68-1.54,2.97-1.54c0.56,0,1.08,0.1,1.55,0.3
		c0.47,0.2,0.82,0.47,1.06,0.8s0.4,0.72,0.49,1.17c0.06,0.29,0.09,0.81,0.09,1.54v5.74h-1.58v-5.68c0-0.64-0.06-1.13-0.18-1.45
		s-0.34-0.57-0.65-0.77c-0.31-0.19-0.68-0.29-1.1-0.29c-0.67,0-1.26,0.21-1.74,0.64s-0.73,1.24-0.73,2.43v5.1H72.32z"/>
	<path fill="#5A5A5A" d="M81.7,74.66l1.56-0.25c0.09,0.63,0.33,1.11,0.73,1.44s0.96,0.5,1.68,0.5c0.73,0,1.27-0.15,1.62-0.44
		s0.53-0.64,0.53-1.04c0-0.36-0.16-0.64-0.47-0.84c-0.22-0.14-0.76-0.32-1.62-0.54c-1.16-0.29-1.96-0.55-2.41-0.76
		s-0.79-0.51-1.02-0.89c-0.23-0.38-0.35-0.79-0.35-1.25c0-0.42,0.1-0.8,0.29-1.16c0.19-0.35,0.45-0.65,0.78-0.88
		c0.25-0.18,0.58-0.33,1.01-0.46s0.88-0.19,1.37-0.19c0.73,0,1.38,0.11,1.93,0.32s0.96,0.5,1.23,0.86c0.26,0.36,0.45,0.84,0.54,1.45
		l-1.55,0.21c-0.07-0.48-0.27-0.86-0.61-1.12s-0.81-0.4-1.43-0.4c-0.73,0-1.25,0.12-1.56,0.36s-0.47,0.52-0.47,0.84
		c0,0.21,0.06,0.39,0.19,0.55c0.13,0.17,0.33,0.31,0.61,0.42c0.16,0.06,0.62,0.19,1.4,0.4c1.12,0.3,1.9,0.54,2.34,0.73
		s0.79,0.47,1.04,0.83s0.38,0.81,0.38,1.35c0,0.53-0.15,1.02-0.46,1.49c-0.31,0.46-0.75,0.83-1.33,1.08
		c-0.58,0.26-1.24,0.38-1.97,0.38c-1.21,0-2.14-0.25-2.77-0.76S81.88,75.65,81.7,74.66z"/>
	<path fill="#5A5A5A" d="M91.33,81.02V68.11h1.44v1.21c0.34-0.47,0.72-0.83,1.15-1.07c0.43-0.24,0.95-0.36,1.56-0.36
		c0.8,0,1.5,0.21,2.11,0.62s1.07,0.99,1.38,1.74c0.31,0.75,0.47,1.57,0.47,2.46c0,0.96-0.17,1.82-0.51,2.58
		c-0.34,0.77-0.84,1.35-1.49,1.76c-0.65,0.41-1.34,0.61-2.06,0.61c-0.53,0-1-0.11-1.42-0.33s-0.76-0.5-1.03-0.84v4.54H91.33z
		 M92.77,72.83c0,1.2,0.24,2.09,0.73,2.66s1.08,0.86,1.77,0.86c0.7,0,1.31-0.3,1.81-0.89c0.5-0.59,0.75-1.52,0.75-2.76
		c0-1.19-0.24-2.08-0.73-2.67s-1.07-0.89-1.75-0.89c-0.67,0-1.27,0.32-1.79,0.94C93.03,70.72,92.77,71.63,92.77,72.83z"/>
	<path fill="#5A5A5A" d="M100.76,72.78c0-1.73,0.48-3.01,1.44-3.84c0.8-0.69,1.78-1.04,2.94-1.04c1.28,0,2.33,0.42,3.15,1.26
		s1.22,2,1.22,3.48c0,1.2-0.18,2.15-0.54,2.83c-0.36,0.69-0.88,1.22-1.57,1.6s-1.44,0.57-2.25,0.57c-1.31,0-2.36-0.42-3.17-1.26
		S100.76,74.36,100.76,72.78z M102.38,72.78c0,1.2,0.26,2.09,0.78,2.68c0.52,0.6,1.18,0.89,1.97,0.89c0.79,0,1.44-0.3,1.96-0.9
		s0.78-1.51,0.78-2.73c0-1.15-0.26-2.03-0.79-2.62c-0.52-0.59-1.18-0.89-1.96-0.89c-0.79,0-1.45,0.3-1.97,0.89
		S102.38,71.58,102.38,72.78z"/>
	<path fill="#5A5A5A" d="M116.13,71.14c0-0.62,0.22-1.14,0.65-1.57s0.96-0.65,1.57-0.65c0.62,0,1.14,0.22,1.58,0.65
		s0.65,0.96,0.65,1.57s-0.22,1.14-0.65,1.58s-0.96,0.65-1.58,0.65c-0.61,0-1.13-0.22-1.57-0.65S116.13,71.75,116.13,71.14z"/>
	<path fill="#5A5A5A" d="M127.34,71.17c0-2.14,0.57-3.81,1.72-5.02c1.15-1.21,2.63-1.81,4.45-1.81c1.19,0,2.26,0.28,3.22,0.85
		s1.68,1.36,2.18,2.38s0.75,2.17,0.75,3.46c0,1.31-0.26,2.48-0.79,3.51s-1.27,1.81-2.24,2.34c-0.97,0.53-2.01,0.8-3.13,0.8
		c-1.21,0-2.3-0.29-3.25-0.88s-1.68-1.39-2.17-2.4S127.34,72.3,127.34,71.17z M129.1,71.2c0,1.55,0.42,2.78,1.25,3.67
		c0.83,0.89,1.88,1.34,3.14,1.34c1.28,0,2.34-0.45,3.17-1.35s1.24-2.18,1.24-3.84c0-1.05-0.18-1.96-0.53-2.75
		c-0.35-0.78-0.87-1.39-1.56-1.82c-0.68-0.43-1.45-0.65-2.3-0.65c-1.21,0-2.25,0.42-3.12,1.24C129.54,67.88,129.1,69.26,129.1,71.2z
		"/>
	<path fill="#5A5A5A" d="M145.12,76.03l0.23,1.4c-0.45,0.09-0.84,0.14-1.2,0.14c-0.57,0-1.02-0.09-1.34-0.27s-0.54-0.42-0.67-0.72
		s-0.19-0.92-0.19-1.87v-5.37h-1.16v-1.23h1.16V65.8l1.57-0.95v3.26h1.59v1.23h-1.59v5.46c0,0.45,0.03,0.74,0.08,0.87
		s0.15,0.23,0.27,0.31s0.31,0.11,0.54,0.11C144.6,76.09,144.83,76.07,145.12,76.03z"/>
	<path fill="#5A5A5A" d="M150.12,76.03l0.23,1.4c-0.45,0.09-0.84,0.14-1.2,0.14c-0.57,0-1.02-0.09-1.34-0.27s-0.54-0.42-0.67-0.72
		s-0.19-0.92-0.19-1.87v-5.37h-1.16v-1.23h1.16V65.8l1.57-0.95v3.26h1.59v1.23h-1.59v5.46c0,0.45,0.03,0.74,0.08,0.87
		s0.15,0.23,0.27,0.31s0.31,0.11,0.54,0.11C149.6,76.09,149.83,76.07,150.12,76.03z"/>
	<path fill="#5A5A5A" d="M157.75,76.3c-0.59,0.5-1.15,0.85-1.69,1.05s-1.12,0.31-1.74,0.31c-1.03,0-1.81-0.25-2.36-0.75
		c-0.55-0.5-0.83-1.14-0.83-1.92c0-0.46,0.1-0.88,0.31-1.25c0.21-0.38,0.48-0.68,0.82-0.91s0.72-0.4,1.14-0.52
		c0.31-0.08,0.78-0.16,1.41-0.24c1.28-0.15,2.22-0.33,2.82-0.54c0.01-0.22,0.01-0.35,0.01-0.41c0-0.64-0.15-1.1-0.45-1.36
		c-0.4-0.36-1-0.54-1.8-0.54c-0.74,0-1.29,0.13-1.65,0.39s-0.62,0.72-0.79,1.38l-1.55-0.21c0.14-0.66,0.37-1.2,0.69-1.6
		c0.32-0.41,0.79-0.72,1.4-0.94c0.61-0.22,1.32-0.33,2.12-0.33c0.8,0,1.44,0.09,1.94,0.28s0.86,0.42,1.1,0.71
		c0.23,0.29,0.4,0.64,0.49,1.08c0.05,0.27,0.08,0.76,0.08,1.46v2.11c0,1.47,0.03,2.4,0.1,2.79c0.07,0.39,0.2,0.76,0.4,1.12h-1.65
		C157.91,77.12,157.8,76.74,157.75,76.3z M157.62,72.76c-0.57,0.23-1.44,0.43-2.58,0.6c-0.65,0.09-1.11,0.2-1.38,0.32
		s-0.48,0.29-0.62,0.51s-0.22,0.48-0.22,0.75c0,0.42,0.16,0.77,0.48,1.05s0.79,0.42,1.4,0.42c0.61,0,1.15-0.13,1.63-0.4
		s0.82-0.63,1.05-1.09c0.17-0.36,0.25-0.88,0.25-1.58V72.76z"/>
	<path fill="#5A5A5A" d="M163.4,77.45l-2.86-9.33h1.63l1.49,5.39l0.55,2c0.02-0.1,0.18-0.74,0.48-1.92l1.49-5.47h1.63l1.4,5.41
		l0.47,1.78l0.54-1.8l1.6-5.4h1.54l-2.92,9.33h-1.64l-1.49-5.59l-0.36-1.59l-1.89,7.18H163.4z"/>
	<path fill="#5A5A5A" d="M180.76,76.3c-0.59,0.5-1.15,0.85-1.69,1.05s-1.12,0.31-1.74,0.31c-1.03,0-1.81-0.25-2.36-0.75
		c-0.55-0.5-0.83-1.14-0.83-1.92c0-0.46,0.1-0.88,0.31-1.25c0.21-0.38,0.48-0.68,0.82-0.91s0.72-0.4,1.14-0.52
		c0.31-0.08,0.78-0.16,1.41-0.24c1.28-0.15,2.22-0.33,2.82-0.54c0.01-0.22,0.01-0.35,0.01-0.41c0-0.64-0.15-1.1-0.45-1.36
		c-0.4-0.36-1-0.54-1.8-0.54c-0.74,0-1.29,0.13-1.65,0.39s-0.62,0.72-0.79,1.38l-1.55-0.21c0.14-0.66,0.37-1.2,0.69-1.6
		c0.32-0.41,0.79-0.72,1.4-0.94c0.61-0.22,1.32-0.33,2.12-0.33c0.8,0,1.44,0.09,1.94,0.28s0.86,0.42,1.1,0.71
		c0.23,0.29,0.4,0.64,0.49,1.08c0.05,0.27,0.08,0.76,0.08,1.46v2.11c0,1.47,0.03,2.4,0.1,2.79c0.07,0.39,0.2,0.76,0.4,1.12h-1.65
		C180.92,77.12,180.81,76.74,180.76,76.3z M180.63,72.76c-0.57,0.23-1.44,0.43-2.58,0.6c-0.65,0.09-1.11,0.2-1.38,0.32
		s-0.48,0.29-0.62,0.51s-0.22,0.48-0.22,0.75c0,0.42,0.16,0.77,0.48,1.05s0.79,0.42,1.4,0.42c0.61,0,1.15-0.13,1.63-0.4
		s0.82-0.63,1.05-1.09c0.17-0.36,0.25-0.88,0.25-1.58V72.76z"/>
	<path fill="#5A5A5A" d="M189.46,71.14c0-0.62,0.22-1.14,0.65-1.57s0.96-0.65,1.57-0.65c0.62,0,1.14,0.22,1.58,0.65
		s0.65,0.96,0.65,1.57s-0.22,1.14-0.65,1.58s-0.96,0.65-1.58,0.65c-0.61,0-1.13-0.22-1.57-0.65S189.46,71.75,189.46,71.14z"/>
	<path fill="#5A5A5A" d="M208.86,75.93v1.52h-8.52c-0.01-0.38,0.05-0.75,0.18-1.1c0.22-0.58,0.56-1.15,1.04-1.71
		s1.17-1.21,2.07-1.95c1.4-1.15,2.35-2.06,2.84-2.73s0.74-1.31,0.74-1.9c0-0.63-0.22-1.16-0.67-1.59c-0.45-0.43-1.03-0.65-1.75-0.65
		c-0.76,0-1.37,0.23-1.83,0.69s-0.69,1.09-0.69,1.9l-1.63-0.17c0.11-1.21,0.53-2.14,1.26-2.77c0.73-0.63,1.7-0.95,2.93-0.95
		c1.24,0,2.21,0.34,2.94,1.03s1.08,1.54,1.08,2.55c0,0.52-0.11,1.02-0.32,1.52s-0.56,1.02-1.05,1.57s-1.3,1.31-2.44,2.27
		c-0.95,0.8-1.56,1.34-1.83,1.62s-0.49,0.57-0.67,0.86H208.86z"/>
	<path fill="#5A5A5A" d="M210.56,71.09c0-1.52,0.16-2.75,0.47-3.68c0.31-0.93,0.78-1.64,1.4-2.15s1.4-0.76,2.33-0.76
		c0.69,0,1.3,0.14,1.82,0.42s0.95,0.68,1.29,1.2c0.34,0.53,0.61,1.16,0.8,1.92c0.19,0.75,0.29,1.77,0.29,3.05
		c0,1.51-0.16,2.73-0.47,3.66s-0.77,1.65-1.39,2.15c-0.62,0.51-1.4,0.76-2.34,0.76c-1.24,0-2.22-0.45-2.93-1.34
		C210.98,75.26,210.56,73.51,210.56,71.09z M212.18,71.09c0,2.12,0.25,3.52,0.74,4.22s1.11,1.05,1.83,1.05s1.34-0.35,1.83-1.05
		s0.74-2.11,0.74-4.22c0-2.12-0.25-3.53-0.74-4.23s-1.11-1.05-1.85-1.05c-0.73,0-1.31,0.31-1.74,0.92
		C212.46,67.53,212.18,68.98,212.18,71.09z"/>
	<path fill="#5A5A5A" d="M228.88,75.93v1.52h-8.52c-0.01-0.38,0.05-0.75,0.18-1.1c0.22-0.58,0.56-1.15,1.04-1.71
		s1.17-1.21,2.07-1.95c1.4-1.15,2.35-2.06,2.84-2.73s0.74-1.31,0.74-1.9c0-0.63-0.22-1.16-0.67-1.59c-0.45-0.43-1.03-0.65-1.75-0.65
		c-0.76,0-1.37,0.23-1.83,0.69s-0.69,1.09-0.69,1.9l-1.63-0.17c0.11-1.21,0.53-2.14,1.26-2.77c0.73-0.63,1.7-0.95,2.93-0.95
		c1.24,0,2.21,0.34,2.94,1.03s1.08,1.54,1.08,2.55c0,0.52-0.11,1.02-0.32,1.52s-0.56,1.02-1.05,1.57s-1.3,1.31-2.44,2.27
		c-0.95,0.8-1.56,1.34-1.83,1.62s-0.49,0.57-0.67,0.86H228.88z"/>
	<path fill="#5A5A5A" d="M230.58,74.07l1.66-0.14c0.12,0.81,0.41,1.42,0.86,1.82s0.99,0.61,1.62,0.61c0.76,0,1.41-0.29,1.93-0.86
		s0.79-1.34,0.79-2.29c0-0.9-0.25-1.61-0.76-2.14s-1.17-0.78-1.99-0.78c-0.51,0-0.97,0.12-1.38,0.35c-0.41,0.23-0.73,0.53-0.97,0.9
		l-1.49-0.19l1.25-6.62h6.41v1.51h-5.14l-0.69,3.46c0.77-0.54,1.58-0.81,2.43-0.81c1.12,0,2.07,0.39,2.85,1.17s1.16,1.78,1.16,3.01
		c0,1.17-0.34,2.17-1.02,3.02c-0.83,1.04-1.95,1.56-3.38,1.56c-1.17,0-2.13-0.33-2.87-0.98S230.69,75.16,230.58,74.07z"/>
</g>
</svg>
