<?xml version="1.0" encoding="iso-8859-1"?>
<!-- Generator: Adobe Illustrator 29.8.4, SVG Export Plug-In . SVG Version: 9.03 Build 0)  -->
<svg version="1.1" id="Layer_1" xmlns="http://www.w3.org/2000/svg" xmlns:xlink="http://www.w3.org/1999/xlink" x="0px" y="0px"
	 viewBox="0 0 1500 258" enable-background="new 0 0 1500 258" xml:space="preserve">
<rect id="bg-white" fill="#FFFFFF" width="1500" height="258"/>
<line fill="none" stroke="#508128" stroke-width="10" stroke-linecap="round" stroke-miterlimit="10" x1="90" y1="223" x2="1410" y2="223"/>
<circle fill="#FFFFFF" stroke="#000000" stroke-width="3" stroke-miterlimit="10" cx="90" cy="223" r="10"/>
<g>
	<path d="M96.85,207.49l-11.6-3.11l0.77-2.87c0.35-1.31,0.83-2.19,1.45-2.64c0.73-0.55,1.61-0.69,2.64-0.41
		c0.64,0.17,1.15,0.46,1.54,0.88c0.18,0.22,0.33,0.56,0.47,1.02c0.34-0.66,0.72-1.09,1.14-1.32c0.7-0.4,1.52-0.48,2.46-0.23
		s1.62,0.8,2.05,1.63c0.42,0.83,0.46,1.88,0.12,3.14L96.85,207.49z M90.69,203.42l0.17-0.64c0.31-1.17-0.03-1.89-1.03-2.16
		s-1.66,0.17-1.96,1.32l-0.18,0.68L90.69,203.42z M95.63,204.75l0.26-0.98c0.4-1.5,0.07-2.4-0.99-2.69
		c-0.59-0.16-1.08-0.04-1.47,0.33c-0.31,0.27-0.57,0.81-0.79,1.62l-0.23,0.85L95.63,204.75z"/>
	<path d="M93.43,190.13l0.56-2.11l7.53,2.02l-0.56,2.11l-0.98-0.26c0.63,0.87,0.82,1.81,0.54,2.84s-0.89,1.79-1.84,2.29
		c-0.95,0.5-2,0.6-3.13,0.3s-1.99-0.92-2.58-1.83c-0.58-0.91-0.74-1.87-0.47-2.87c0.27-1,0.9-1.74,1.9-2.22L93.43,190.13z
		 M94.59,192.45c-0.16,0.59-0.09,1.15,0.21,1.67c0.3,0.53,0.74,0.86,1.33,1.02s1.14,0.09,1.66-0.22c0.53-0.3,0.86-0.74,1.02-1.32
		c0.16-0.58,0.09-1.13-0.22-1.66c-0.3-0.53-0.73-0.86-1.32-1.02s-1.13-0.09-1.66,0.2C95.08,191.41,94.74,191.86,94.59,192.45z"/>
	<path d="M101.62,185.13l-7.34,1.85l0.66-2.45l4.88-1.11l-3.71-3.29l0.65-2.42l9.92,9.18l-0.64,2.39L101.62,185.13z"/>
	<path d="M97.4,175.32l4.79-0.84l-3.74-3.1l0.63-2.37l6.64,5.94l-0.25,0.95l-8.71,1.79L97.4,175.32z"/>
	<path d="M95.22,165.66c0.09-0.35,0.29-0.61,0.6-0.79c0.31-0.18,0.64-0.22,0.99-0.13c0.35,0.09,0.62,0.3,0.8,0.62
		c0.19,0.31,0.23,0.65,0.14,1c-0.09,0.35-0.3,0.61-0.61,0.79c-0.31,0.18-0.65,0.23-1,0.13c-0.35-0.09-0.62-0.3-0.8-0.62
		C95.17,166.34,95.13,166,95.22,165.66z M99.95,165.82l7.53,2.02l-0.56,2.1l-7.53-2.02L99.95,165.82z"/>
	<path d="M106.57,157.53l-1.51,5.65c1.37,0.3,2.2-0.13,2.51-1.3c0.2-0.73,0.01-1.42-0.53-2.06l0.83-1.86
		c1.39,1.07,1.84,2.5,1.36,4.31c-0.33,1.23-0.96,2.11-1.88,2.65c-0.93,0.54-1.99,0.65-3.21,0.32c-1.21-0.33-2.09-0.94-2.62-1.86
		c-0.54-0.92-0.65-1.97-0.33-3.16c0.32-1.2,0.94-2.04,1.84-2.54c0.91-0.49,1.99-0.57,3.25-0.23L106.57,157.53z M103.74,162.75
		l0.96-3.56c-1.05-0.04-1.72,0.43-1.97,1.39C102.47,161.5,102.83,162.32,103.74,162.75z"/>
	<path d="M103.17,153.81l4.88-0.81l-4-3.27l0.24-0.9l5.17-0.82l-3.88-3.19l0.63-2.35l6.64,5.96l-0.25,0.95l-5.11,0.81l4.03,3.23
		l-0.26,0.97l-8.72,1.8L103.17,153.81z"/>
</g>
<circle fill="#FFFFFF" stroke="#000000" stroke-width="3" stroke-miterlimit="10" cx="420" cy="223" r="10"/>
<g>
	<path d="M426.85,207.49l-11.6-3.11l0.89-3.32c0.45-1.69,1.27-2.95,2.45-3.79c0.71-0.51,1.5-0.85,2.38-1s1.75-0.11,2.62,0.12
		c0.87,0.23,1.64,0.64,2.33,1.22c0.69,0.58,1.21,1.28,1.58,2.09c0.61,1.29,0.69,2.79,0.23,4.49L426.85,207.49z M425.5,204.71
		l0.16-0.61c0.37-1.38,0.34-2.49-0.1-3.34c-0.48-0.97-1.47-1.74-2.58-2.04c-1.18-0.32-2.26-0.16-3.22,0.48
		c-0.81,0.53-1.4,1.47-1.77,2.84l-0.16,0.61L425.5,204.71z"/>
	<path d="M423.16,190.2c0.34-1.27,0.99-2.19,1.94-2.78c0.95-0.59,2.02-0.73,3.21-0.41s2.05,0.98,2.57,1.97
		c0.52,1,0.62,2.14,0.28,3.42c-0.34,1.28-1,2.21-1.97,2.79c-0.97,0.59-2.03,0.72-3.21,0.4c-1.18-0.32-2.03-0.98-2.55-1.99
		C422.91,192.61,422.82,191.46,423.16,190.2z M425.05,190.73c-0.16,0.59-0.09,1.14,0.21,1.67c0.3,0.53,0.74,0.87,1.33,1.03
		c0.59,0.16,1.14,0.09,1.66-0.22c0.53-0.3,0.87-0.75,1.02-1.34c0.16-0.59,0.09-1.15-0.21-1.68c-0.3-0.53-0.73-0.86-1.32-1.02
		s-1.13-0.09-1.66,0.22S425.2,190.15,425.05,190.73z"/>
	<path d="M425.24,183.38l4.88-0.81l-4-3.27l0.24-0.9l5.17-0.82l-3.88-3.19l0.63-2.35l6.64,5.96l-0.25,0.95l-5.11,0.81l4.03,3.23
		l-0.26,0.97l-8.72,1.8L425.24,183.38z"/>
	<path d="M424.76,168.01l0.75-1.87l3.97,3.69l-0.54,1.29L424.76,168.01z"/>
	<path d="M432.8,162.19c-0.45,0.35-0.72,0.68-0.8,1c-0.08,0.31-0.09,0.56-0.01,0.75c0.08,0.2,0.22,0.31,0.39,0.36
		c0.18,0.05,0.34,0.01,0.5-0.12c0.15-0.13,0.41-0.46,0.77-1c0.36-0.53,0.68-0.92,0.97-1.14c0.53-0.45,1.17-0.58,1.93-0.38
		c0.76,0.2,1.31,0.67,1.66,1.39c0.35,0.73,0.4,1.56,0.15,2.49c-0.3,1.14-0.98,1.98-2.02,2.52l-0.99-1.45
		c0.74-0.43,1.2-0.94,1.36-1.55c0.14-0.54-0.12-1.06-0.57-1.18c-0.23-0.06-0.42-0.04-0.58,0.07c-0.15,0.11-0.42,0.44-0.8,0.99
		c-0.38,0.55-0.69,0.92-0.93,1.11c-0.48,0.41-1.07,0.52-1.77,0.33c-0.71-0.19-1.21-0.6-1.52-1.23c-0.32-0.62-0.35-1.36-0.13-2.21
		c0.23-0.85,0.71-1.56,1.44-2.14L432.8,162.19z"/>
	<path d="M429.62,150.77l9.64,2.58l0.96-3.57l1.96,0.53l-1.56,5.82l-11.6-3.11L429.62,150.77z"/>
	<path d="M436.54,141.19l0.56-2.11l7.53,2.02l-0.56,2.11l-0.98-0.26c0.63,0.87,0.82,1.81,0.54,2.84s-0.89,1.79-1.84,2.29
		s-2,0.6-3.13,0.3c-1.13-0.3-1.99-0.92-2.58-1.83c-0.58-0.91-0.74-1.87-0.47-2.87s0.9-1.74,1.9-2.22L436.54,141.19z M437.7,143.51
		c-0.16,0.59-0.09,1.15,0.21,1.67c0.3,0.53,0.74,0.86,1.33,1.02c0.58,0.16,1.14,0.09,1.66-0.22c0.53-0.3,0.86-0.74,1.02-1.32
		c0.15-0.58,0.08-1.13-0.22-1.66c-0.3-0.53-0.73-0.86-1.32-1.02c-0.59-0.16-1.13-0.09-1.66,0.2
		C438.19,142.48,437.86,142.93,437.7,143.51z"/>
	<path d="M432.72,133.5l8.24,2.21l-2-3.55l0.76-2.85l2.36,4.42l5.25-2.68l-0.78,2.9l-3.99,1.95l0.17,0.28l3.01,0.8l-0.56,2.11
		l-13.02-3.49L432.72,133.5z"/>
	<path d="M446.04,122.17l-1.51,5.64c1.37,0.3,2.2-0.13,2.51-1.3c0.2-0.73,0.02-1.42-0.53-2.06l0.83-1.86
		c1.39,1.07,1.84,2.5,1.36,4.31c-0.33,1.23-0.96,2.11-1.88,2.65c-0.93,0.54-1.99,0.65-3.21,0.32c-1.21-0.33-2.09-0.94-2.62-1.86
		c-0.54-0.92-0.65-1.96-0.33-3.16c0.32-1.2,0.94-2.04,1.84-2.54c0.91-0.5,1.99-0.57,3.26-0.23L446.04,122.17z M443.21,127.39
		l0.96-3.57c-1.05-0.04-1.72,0.43-1.97,1.39C441.94,126.14,442.31,126.96,443.21,127.39z"/>
</g>
<circle fill="#FFFFFF" stroke="#000000" stroke-width="3" stroke-miterlimit="10" cx="750" cy="223" r="10"/>
<g>
	<path d="M750.61,196.86c-1.11,0.65-1.8,1.49-2.08,2.53c-0.28,1.04-0.12,2.02,0.45,2.96c0.58,0.95,1.44,1.57,2.57,1.87
		s2.17,0.19,3.12-0.35c0.95-0.53,1.57-1.34,1.86-2.44c0.15-0.54,0.18-1.05,0.1-1.53s-0.29-1-0.62-1.59l2.66,0.71
		c0.19,1.1,0.17,2.1-0.08,3.02c-0.46,1.72-1.43,3.01-2.91,3.88c-1.48,0.87-3.06,1.08-4.75,0.63s-2.96-1.43-3.84-2.95
		c-0.88-1.52-1.08-3.12-0.63-4.81c0.25-0.94,0.74-1.82,1.47-2.64L750.61,196.86z"/>
	<path d="M753.58,189.59l0.56-2.11l7.53,2.02l-0.56,2.11l-0.98-0.26c0.63,0.87,0.82,1.81,0.54,2.84c-0.28,1.03-0.89,1.79-1.84,2.29
		c-0.95,0.5-2,0.6-3.13,0.3s-1.99-0.92-2.58-1.83c-0.58-0.91-0.74-1.87-0.47-2.87s0.9-1.74,1.9-2.22L753.58,189.59z M754.73,191.91
		c-0.16,0.59-0.09,1.15,0.21,1.67c0.3,0.53,0.74,0.86,1.33,1.02c0.58,0.16,1.14,0.09,1.66-0.22c0.53-0.3,0.86-0.74,1.02-1.32
		c0.16-0.58,0.08-1.13-0.22-1.66c-0.3-0.53-0.73-0.86-1.32-1.02c-0.59-0.16-1.13-0.09-1.66,0.2
		C755.22,190.88,754.89,191.33,754.73,191.91z"/>
	<path d="M762.77,185.39l-0.56,2.11l-7.53-2.02l0.56-2.11l1.15,0.31c-0.79-0.77-1.06-1.62-0.8-2.56c0.08-0.3,0.22-0.59,0.43-0.87
		l1.88,0.82c-0.26,0.27-0.44,0.58-0.52,0.93c-0.32,1.21,0.27,2.01,1.77,2.41L762.77,185.39z"/>
	<path d="M751.45,175.57l13.02,3.49l-0.56,2.11l-13.02-3.49L751.45,175.57z"/>
	<path d="M763.57,168.73l-1.51,5.65c1.37,0.3,2.2-0.13,2.51-1.3c0.2-0.73,0.02-1.42-0.53-2.06l0.83-1.86
		c1.39,1.07,1.84,2.5,1.36,4.31c-0.33,1.23-0.96,2.11-1.88,2.65c-0.93,0.54-1.99,0.65-3.21,0.32s-2.09-0.94-2.62-1.86
		c-0.54-0.92-0.65-1.97-0.33-3.16c0.32-1.2,0.94-2.04,1.84-2.54s1.99-0.57,3.26-0.23L763.57,168.73z M760.73,173.95l0.96-3.57
		c-1.05-0.04-1.72,0.43-1.97,1.39C759.47,172.7,759.83,173.52,760.73,173.95z"/>
	<path d="M762.31,164.28l5.71,1.53l-0.56,2.11l-5.71-1.53l-0.22,0.83l-1.82-0.49l0.22-0.83l-2.57-0.69l0.56-2.11l2.57,0.69l0.4-1.49
		l1.82,0.49L762.31,164.28z"/>
	<path d="M762,157.22c0.34-1.26,0.99-2.19,1.94-2.78c0.95-0.59,2.03-0.73,3.21-0.41s2.05,0.98,2.57,1.97c0.52,1,0.62,2.14,0.27,3.42
		s-1,2.21-1.97,2.79s-2.03,0.72-3.21,0.4s-2.03-0.98-2.55-1.99C761.74,159.62,761.66,158.48,762,157.22z M763.88,157.75
		c-0.16,0.59-0.09,1.14,0.21,1.67s0.74,0.87,1.33,1.03c0.58,0.16,1.14,0.09,1.66-0.22c0.53-0.3,0.87-0.75,1.02-1.34
		c0.16-0.59,0.09-1.15-0.21-1.68c-0.3-0.53-0.73-0.86-1.32-1.02c-0.59-0.16-1.13-0.09-1.66,0.22
		C764.38,156.72,764.04,157.17,763.88,157.75z"/>
	<path d="M763.81,151.39l0.56-2.11l0.94,0.25c-0.68-0.88-0.82-1.66-0.55-2.68c0.25-0.92,0.74-1.58,1.49-1.95
		c0.56-0.28,1.31-0.29,2.25-0.03l4.78,1.28l-0.56,2.11l-4.18-1.12c-0.58-0.16-1-0.2-1.27-0.11c-0.46,0.11-0.76,0.47-0.92,1.07
		c-0.28,1.06,0.27,1.78,1.66,2.16l3.9,1.04l-0.56,2.11L763.81,151.39z"/>
</g>
<circle fill="#FFFFFF" stroke="#000000" stroke-width="3" stroke-miterlimit="10" cx="1080" cy="223" r="10"/>
<g>
	<path d="M1086.68,208.12l-11.23-5.32l0.41-1.55l8.43-1.13l-6.7-5.32l0.42-1.56l12.33,1.23l-0.61,2.28l-7.43-0.87l6.45,5.13
		l-0.17,0.63l-8.13,1.12l6.84,3.08L1086.68,208.12z"/>
	<path d="M1084.09,186.73c0.34-1.26,0.99-2.19,1.94-2.78s2.03-0.73,3.21-0.41s2.05,0.98,2.57,1.97c0.52,1,0.62,2.14,0.27,3.42
		s-1,2.21-1.97,2.79c-0.97,0.59-2.03,0.72-3.21,0.4s-2.03-0.98-2.55-1.99S1083.75,187.99,1084.09,186.73z M1085.98,187.26
		c-0.16,0.59-0.09,1.14,0.21,1.67s0.74,0.87,1.33,1.03c0.58,0.16,1.14,0.09,1.66-0.22c0.53-0.3,0.87-0.75,1.02-1.34
		s0.09-1.15-0.21-1.68c-0.3-0.52-0.73-0.86-1.32-1.02c-0.59-0.16-1.13-0.08-1.66,0.22C1086.47,186.23,1086.13,186.67,1085.98,187.26
		z"/>
	<path d="M1086.72,176.9c0.34-1.27,0.99-2.19,1.94-2.78s2.03-0.73,3.21-0.41s2.05,0.98,2.57,1.97c0.52,1,0.62,2.14,0.27,3.42
		c-0.34,1.28-1,2.21-1.97,2.79c-0.97,0.59-2.03,0.72-3.21,0.4s-2.03-0.98-2.55-1.99S1086.38,178.17,1086.72,176.9z M1088.61,177.44
		c-0.16,0.59-0.09,1.14,0.21,1.67s0.74,0.87,1.33,1.03s1.14,0.09,1.66-0.22c0.53-0.3,0.87-0.75,1.02-1.34s0.09-1.15-0.21-1.68
		c-0.3-0.52-0.73-0.86-1.32-1.02s-1.13-0.08-1.66,0.22C1089.1,176.4,1088.77,176.85,1088.61,177.44z"/>
	<path d="M1088.54,171.08l0.56-2.11l0.94,0.25c-0.68-0.88-0.82-1.66-0.55-2.68c0.25-0.93,0.74-1.58,1.49-1.95
		c0.56-0.28,1.31-0.29,2.25-0.04l4.78,1.28l-0.56,2.11l-4.18-1.12c-0.58-0.16-1-0.2-1.27-0.11c-0.46,0.11-0.76,0.47-0.92,1.07
		c-0.28,1.06,0.27,1.78,1.66,2.16l3.9,1.04l-0.56,2.11L1088.54,171.08z"/>
	<path d="M1097.11,155.51l-1.51,5.65c1.37,0.3,2.2-0.13,2.51-1.3c0.2-0.73,0.02-1.42-0.53-2.06l0.83-1.86
		c1.39,1.07,1.84,2.5,1.36,4.31c-0.33,1.23-0.96,2.11-1.88,2.65c-0.93,0.54-1.99,0.65-3.21,0.32c-1.21-0.33-2.09-0.94-2.62-1.86
		c-0.54-0.92-0.65-1.97-0.33-3.16c0.32-1.2,0.94-2.04,1.84-2.54s1.99-0.57,3.25-0.23L1097.11,155.51z M1094.28,160.73l0.96-3.57
		c-1.05-0.04-1.72,0.43-1.97,1.39C1093.01,159.48,1093.37,160.3,1094.28,160.73z"/>
	<path d="M1100.4,152.35l-7.34,1.85l0.66-2.45l4.88-1.11l-3.71-3.29l0.65-2.42l9.92,9.18l-0.64,2.39L1100.4,152.35z"/>
	<path d="M1092,140.98l0.75-1.88l3.97,3.69l-0.54,1.29L1092,140.98z"/>
	<path d="M1100.04,135.17c-0.45,0.35-0.72,0.68-0.8,1s-0.09,0.56-0.01,0.75c0.08,0.2,0.22,0.31,0.39,0.36
		c0.18,0.05,0.34,0.01,0.5-0.12s0.41-0.46,0.77-1c0.36-0.53,0.68-0.92,0.97-1.14c0.53-0.45,1.17-0.58,1.93-0.37s1.31,0.67,1.66,1.39
		c0.35,0.73,0.4,1.56,0.15,2.49c-0.3,1.14-0.98,1.98-2.02,2.52l-0.99-1.45c0.74-0.43,1.2-0.94,1.36-1.55
		c0.14-0.54-0.12-1.06-0.57-1.18c-0.23-0.06-0.42-0.04-0.57,0.07c-0.15,0.12-0.42,0.44-0.8,1c-0.38,0.55-0.69,0.92-0.93,1.11
		c-0.48,0.41-1.07,0.51-1.77,0.33c-0.71-0.19-1.21-0.6-1.52-1.23c-0.32-0.62-0.35-1.36-0.13-2.21c0.23-0.85,0.71-1.56,1.44-2.14
		L1100.04,135.17z"/>
	<path d="M1107.85,129.12l-11.6-3.11l0.77-2.87c0.35-1.31,0.83-2.19,1.45-2.64c0.73-0.55,1.61-0.69,2.64-0.41
		c0.64,0.17,1.15,0.46,1.54,0.88c0.18,0.22,0.33,0.56,0.47,1.02c0.34-0.66,0.72-1.09,1.14-1.32c0.7-0.4,1.52-0.48,2.46-0.23
		s1.62,0.8,2.05,1.63s0.46,1.88,0.12,3.14L1107.85,129.12z M1101.69,125.05l0.17-0.65c0.31-1.17-0.03-1.89-1.03-2.16
		c-1-0.27-1.66,0.17-1.96,1.32l-0.18,0.68L1101.69,125.05z M1106.63,126.37l0.26-0.98c0.4-1.5,0.07-2.4-0.99-2.69
		c-0.59-0.16-1.08-0.04-1.47,0.33c-0.31,0.27-0.57,0.81-0.79,1.62l-0.23,0.85L1106.63,126.37z"/>
	<path d="M1104.43,111.75l0.56-2.11l7.53,2.02l-0.56,2.11l-0.98-0.26c0.63,0.87,0.82,1.81,0.54,2.84c-0.28,1.03-0.89,1.79-1.84,2.29
		s-2,0.6-3.13,0.3c-1.13-0.3-1.99-0.92-2.58-1.83c-0.58-0.91-0.74-1.87-0.47-2.87s0.9-1.74,1.9-2.22L1104.43,111.75z
		 M1105.59,114.07c-0.16,0.59-0.09,1.15,0.21,1.67c0.3,0.53,0.74,0.86,1.33,1.02c0.58,0.16,1.14,0.09,1.66-0.22
		c0.53-0.3,0.86-0.74,1.02-1.32c0.16-0.58,0.08-1.13-0.22-1.66c-0.3-0.53-0.73-0.86-1.32-1.02s-1.13-0.08-1.66,0.2
		C1106.08,113.04,1105.74,113.48,1105.59,114.07z"/>
	<path d="M1112.62,106.75l-7.34,1.85l0.66-2.45l4.88-1.11l-3.71-3.29l0.65-2.42l9.92,9.18l-0.64,2.39L1112.62,106.75z"/>
</g>
<circle fill="#FFFFFF" stroke="#000000" stroke-width="3" stroke-miterlimit="10" cx="1410" cy="223" r="10"/>
<g>
	<path d="M1412.21,199.99l1.42-5.3c1.53,0.42,2.62,0.93,3.28,1.52c1.69,1.47,2.3,3.55,1.68,5.85c-0.47,1.76-1.43,3.07-2.87,3.91
		c-1.44,0.84-3.03,1.03-4.79,0.56c-1.76-0.47-3.05-1.44-3.9-2.91c-0.84-1.47-1.03-3.1-0.55-4.88c0.59-2.2,1.94-3.62,4.07-4.24
		l0.53,2.27c-1.33,0.39-2.18,1.24-2.53,2.54c-0.29,1.09-0.15,2.11,0.42,3.03c0.57,0.93,1.43,1.55,2.59,1.86
		c1.15,0.31,2.2,0.21,3.14-0.31s1.55-1.32,1.85-2.42c0.22-0.82,0.18-1.57-0.11-2.26c-0.3-0.68-0.81-1.16-1.53-1.44l-0.73,2.73
		L1412.21,199.99z"/>
	<path d="M1420.88,192.48l-0.56,2.11l-7.53-2.02l0.56-2.11l1.15,0.31c-0.79-0.77-1.06-1.62-0.8-2.56c0.08-0.3,0.22-0.59,0.43-0.87
		l1.88,0.82c-0.26,0.27-0.44,0.58-0.52,0.93c-0.32,1.21,0.27,2.01,1.77,2.41L1420.88,192.48z"/>
	<path d="M1420.54,180.05l-1.51,5.65c1.37,0.3,2.2-0.13,2.51-1.3c0.2-0.73,0.02-1.42-0.53-2.06l0.83-1.86
		c1.39,1.07,1.84,2.5,1.36,4.31c-0.33,1.23-0.96,2.11-1.88,2.65c-0.93,0.54-1.99,0.65-3.21,0.32c-1.21-0.33-2.09-0.94-2.62-1.86
		c-0.54-0.92-0.65-1.97-0.33-3.16c0.32-1.2,0.94-2.04,1.84-2.54c0.91-0.49,1.99-0.57,3.25-0.23L1420.54,180.05z M1417.7,185.27
		l0.96-3.57c-1.05-0.04-1.72,0.43-1.97,1.39C1416.43,184.02,1416.8,184.84,1417.7,185.27z"/>
	<path d="M1422.95,171.06l-1.51,5.64c1.37,0.3,2.2-0.13,2.51-1.3c0.2-0.73,0.02-1.42-0.53-2.06l0.83-1.86
		c1.39,1.07,1.84,2.5,1.36,4.31c-0.33,1.23-0.96,2.11-1.88,2.65c-0.93,0.54-1.99,0.65-3.21,0.32s-2.09-0.94-2.62-1.86
		s-0.65-1.97-0.33-3.16c0.32-1.2,0.94-2.04,1.84-2.54s1.99-0.57,3.25-0.23L1422.95,171.06z M1420.11,176.27l0.96-3.57
		c-1.05-0.04-1.72,0.43-1.97,1.39C1418.84,175.03,1419.21,175.84,1420.11,176.27z"/>
	<path d="M1419.27,168.36l0.56-2.11l0.94,0.25c-0.68-0.88-0.82-1.66-0.55-2.68c0.25-0.93,0.74-1.58,1.49-1.95
		c0.56-0.28,1.31-0.29,2.25-0.04l4.78,1.28l-0.56,2.11l-4.18-1.12c-0.58-0.16-1-0.2-1.27-0.11c-0.46,0.11-0.76,0.47-0.92,1.07
		c-0.28,1.06,0.27,1.78,1.66,2.16l3.9,1.04l-0.56,2.11L1419.27,168.36z"/>
	<path d="M1416.82,155.52l6.47,1.73c-0.62-0.92-0.8-1.89-0.53-2.89c0.27-1,0.88-1.75,1.83-2.25c0.95-0.5,2-0.59,3.14-0.29
		c1.15,0.31,2,0.91,2.58,1.82c0.58,0.91,0.73,1.88,0.45,2.9s-0.91,1.76-1.9,2.19l0.98,0.26l-0.56,2.11l-13.02-3.49L1416.82,155.52z
		 M1424.47,155.55c-0.16,0.59-0.08,1.13,0.21,1.66s0.74,0.86,1.33,1.02c0.58,0.16,1.14,0.09,1.66-0.22c0.53-0.3,0.86-0.74,1.02-1.32
		c0.15-0.58,0.08-1.13-0.22-1.66c-0.3-0.53-0.73-0.87-1.32-1.03c-0.59-0.16-1.13-0.09-1.66,0.22S1424.63,154.96,1424.47,155.55z"/>
	<path d="M1425.21,145.21c0.34-1.27,0.99-2.19,1.94-2.78s2.02-0.73,3.21-0.41c1.19,0.32,2.05,0.98,2.57,1.97
		c0.52,1,0.62,2.14,0.27,3.42c-0.34,1.28-1,2.21-1.97,2.79c-0.97,0.59-2.03,0.72-3.21,0.4c-1.18-0.32-2.03-0.98-2.55-1.99
		S1424.87,146.48,1425.21,145.21z M1427.1,145.75c-0.16,0.59-0.09,1.14,0.21,1.67s0.74,0.87,1.33,1.03
		c0.58,0.16,1.14,0.09,1.66-0.22c0.53-0.3,0.87-0.75,1.02-1.34c0.16-0.59,0.09-1.15-0.21-1.68c-0.3-0.53-0.73-0.86-1.32-1.02
		s-1.13-0.09-1.66,0.22S1427.26,145.16,1427.1,145.75z"/>
	<path d="M1435.12,139.3l-0.56,2.11l-7.53-2.02l0.56-2.11l1.15,0.31c-0.79-0.77-1.06-1.62-0.8-2.56c0.08-0.3,0.22-0.59,0.43-0.87
		l1.88,0.82c-0.26,0.27-0.44,0.57-0.52,0.93c-0.32,1.21,0.27,2.01,1.77,2.41L1435.12,139.3z"/>
	<path d="M1429.5,129.22c0.34-1.27,0.99-2.19,1.94-2.79c0.95-0.59,2.03-0.73,3.21-0.41s2.05,0.98,2.57,1.97
		c0.52,1,0.62,2.14,0.27,3.42c-0.34,1.28-1,2.21-1.97,2.79c-0.97,0.59-2.03,0.72-3.21,0.41c-1.18-0.32-2.03-0.98-2.55-1.99
		C1429.25,131.62,1429.16,130.48,1429.5,129.22z M1431.39,129.75c-0.16,0.59-0.09,1.14,0.21,1.67c0.3,0.53,0.74,0.87,1.33,1.03
		c0.59,0.16,1.14,0.09,1.66-0.22c0.53-0.3,0.87-0.75,1.02-1.34c0.16-0.58,0.09-1.15-0.21-1.68c-0.3-0.53-0.73-0.86-1.32-1.02
		c-0.59-0.16-1.13-0.09-1.66,0.22S1431.54,129.17,1431.39,129.75z"/>
</g>
<g>
	<path fill="#9B9B9B" d="M691.86,251.58v-7.16h3.17c0.64,0,1.12,0.06,1.46,0.19c0.33,0.13,0.6,0.36,0.8,0.68s0.3,0.69,0.3,1.08
		c0,0.51-0.16,0.94-0.49,1.28s-0.84,0.57-1.52,0.66c0.25,0.12,0.44,0.24,0.57,0.36c0.28,0.25,0.54,0.57,0.79,0.95l1.25,1.95h-1.19
		l-0.95-1.49c-0.28-0.43-0.5-0.76-0.68-0.99s-0.34-0.39-0.48-0.48s-0.29-0.15-0.43-0.19c-0.11-0.02-0.28-0.03-0.53-0.03h-1.1v3.18
		H691.86z M692.81,247.58h2.04c0.43,0,0.77-0.04,1.02-0.13c0.24-0.09,0.43-0.23,0.56-0.43c0.13-0.2,0.19-0.41,0.19-0.64
		c0-0.34-0.12-0.62-0.37-0.83s-0.63-0.33-1.16-0.33h-2.27V247.58z"/>
	<path fill="#9B9B9B" d="M702.34,250.94c-0.33,0.28-0.64,0.47-0.94,0.59s-0.62,0.17-0.97,0.17c-0.57,0-1.01-0.14-1.31-0.42
		c-0.31-0.28-0.46-0.63-0.46-1.07c0-0.25,0.06-0.49,0.17-0.7c0.12-0.21,0.27-0.38,0.45-0.51s0.4-0.22,0.63-0.29
		c0.17-0.05,0.43-0.09,0.78-0.13c0.71-0.08,1.23-0.19,1.57-0.3c0-0.12,0-0.2,0-0.23c0-0.36-0.08-0.61-0.25-0.76
		c-0.22-0.2-0.56-0.3-1-0.3c-0.41,0-0.72,0.07-0.92,0.22c-0.2,0.14-0.34,0.4-0.44,0.77l-0.86-0.12c0.08-0.37,0.21-0.67,0.39-0.89
		c0.18-0.23,0.44-0.4,0.78-0.52c0.34-0.12,0.73-0.18,1.18-0.18c0.44,0,0.8,0.05,1.08,0.16s0.48,0.24,0.61,0.39
		c0.13,0.16,0.22,0.36,0.27,0.6c0.03,0.15,0.04,0.42,0.04,0.81v1.17c0,0.82,0.02,1.33,0.06,1.55c0.04,0.22,0.11,0.42,0.22,0.62
		h-0.92C702.43,251.4,702.37,251.19,702.34,250.94z M702.27,248.98c-0.32,0.13-0.8,0.24-1.44,0.33c-0.36,0.05-0.62,0.11-0.77,0.18
		s-0.27,0.16-0.35,0.29c-0.08,0.12-0.12,0.26-0.12,0.42c0,0.23,0.09,0.43,0.27,0.59s0.44,0.23,0.78,0.23c0.34,0,0.64-0.07,0.9-0.22
		c0.26-0.15,0.46-0.35,0.58-0.61c0.09-0.2,0.14-0.49,0.14-0.88V248.98z"/>
	<path fill="#9B9B9B" d="M704.52,245.43v-1.01h0.88v1.01H704.52z M704.52,251.58v-5.19h0.88v5.19H704.52z"/>
	<path fill="#9B9B9B" d="M706.72,251.58v-7.16h0.88v7.16H706.72z"/>
	<path fill="#9B9B9B" d="M711.9,251.58v-7.16h4.83v0.84h-3.88v2.22h3.36v0.84h-3.36v3.25H711.9z"/>
	<path fill="#9B9B9B" d="M721.23,250.94c-0.33,0.28-0.64,0.47-0.94,0.59s-0.62,0.17-0.97,0.17c-0.57,0-1.01-0.14-1.31-0.42
		c-0.31-0.28-0.46-0.63-0.46-1.07c0-0.25,0.06-0.49,0.17-0.7c0.12-0.21,0.27-0.38,0.45-0.51s0.4-0.22,0.63-0.29
		c0.17-0.05,0.43-0.09,0.78-0.13c0.71-0.08,1.23-0.19,1.57-0.3c0-0.12,0-0.2,0-0.23c0-0.36-0.08-0.61-0.25-0.76
		c-0.22-0.2-0.56-0.3-1-0.3c-0.41,0-0.72,0.07-0.92,0.22c-0.2,0.14-0.34,0.4-0.44,0.77l-0.86-0.12c0.08-0.37,0.21-0.67,0.39-0.89
		c0.18-0.23,0.44-0.4,0.78-0.52c0.34-0.12,0.73-0.18,1.18-0.18c0.44,0,0.8,0.05,1.08,0.16s0.48,0.24,0.61,0.39
		c0.13,0.16,0.22,0.36,0.27,0.6c0.03,0.15,0.04,0.42,0.04,0.81v1.17c0,0.82,0.02,1.33,0.06,1.55c0.04,0.22,0.11,0.42,0.22,0.62
		h-0.92C721.32,251.4,721.26,251.19,721.23,250.94z M721.16,248.98c-0.32,0.13-0.8,0.24-1.44,0.33c-0.36,0.05-0.62,0.11-0.77,0.18
		s-0.27,0.16-0.35,0.29c-0.08,0.12-0.12,0.26-0.12,0.42c0,0.23,0.09,0.43,0.27,0.59s0.44,0.23,0.78,0.23c0.34,0,0.64-0.07,0.9-0.22
		c0.26-0.15,0.46-0.35,0.58-0.61c0.09-0.2,0.14-0.49,0.14-0.88V248.98z"/>
	<path fill="#9B9B9B" d="M723.41,251.58v-5.19h0.79v0.74c0.38-0.57,0.93-0.85,1.65-0.85c0.31,0,0.6,0.06,0.86,0.17
		c0.26,0.11,0.46,0.26,0.59,0.44s0.22,0.4,0.27,0.65c0.03,0.16,0.05,0.45,0.05,0.85v3.19h-0.88v-3.15c0-0.36-0.03-0.63-0.1-0.8
		c-0.07-0.18-0.19-0.32-0.36-0.43c-0.17-0.11-0.38-0.16-0.61-0.16c-0.37,0-0.7,0.12-0.97,0.36s-0.41,0.69-0.41,1.35v2.83H723.41z"/>
	<path fill="#9B9B9B" d="M728.62,250.03l0.87-0.14c0.05,0.35,0.18,0.62,0.41,0.8s0.53,0.28,0.94,0.28c0.4,0,0.7-0.08,0.9-0.25
		c0.2-0.17,0.29-0.36,0.29-0.58c0-0.2-0.09-0.35-0.26-0.47c-0.12-0.08-0.42-0.18-0.9-0.3c-0.64-0.16-1.09-0.3-1.34-0.42
		c-0.25-0.12-0.44-0.28-0.57-0.49c-0.13-0.21-0.19-0.44-0.19-0.7c0-0.23,0.05-0.45,0.16-0.64c0.11-0.2,0.25-0.36,0.43-0.49
		c0.14-0.1,0.32-0.19,0.56-0.26c0.24-0.07,0.49-0.11,0.76-0.11c0.41,0,0.76,0.06,1.07,0.18s0.53,0.28,0.68,0.48
		c0.15,0.2,0.25,0.47,0.3,0.8l-0.86,0.12c-0.04-0.27-0.15-0.48-0.34-0.62s-0.45-0.22-0.79-0.22c-0.4,0-0.69,0.07-0.86,0.2
		s-0.26,0.29-0.26,0.47c0,0.11,0.04,0.22,0.11,0.31c0.07,0.09,0.18,0.17,0.34,0.23c0.09,0.03,0.35,0.11,0.78,0.22
		c0.62,0.17,1.06,0.3,1.3,0.41c0.25,0.11,0.44,0.26,0.58,0.46s0.21,0.45,0.21,0.75c0,0.29-0.09,0.57-0.26,0.83
		c-0.17,0.26-0.42,0.46-0.74,0.6c-0.32,0.14-0.69,0.21-1.09,0.21c-0.67,0-1.19-0.14-1.54-0.42S728.72,250.58,728.62,250.03z"/>
	<path fill="#9B9B9B" d="M741.97,249.07l0.95,0.24c-0.2,0.78-0.56,1.37-1.07,1.78c-0.52,0.41-1.15,0.61-1.89,0.61
		c-0.77,0-1.4-0.16-1.88-0.47c-0.48-0.31-0.85-0.77-1.1-1.36s-0.38-1.24-0.38-1.92c0-0.75,0.14-1.4,0.43-1.95
		c0.28-0.55,0.69-0.98,1.22-1.26c0.53-0.29,1.1-0.43,1.74-0.43c0.72,0,1.32,0.18,1.81,0.55s0.83,0.88,1.02,1.54l-0.93,0.22
		c-0.17-0.52-0.41-0.9-0.72-1.14s-0.71-0.36-1.19-0.36c-0.55,0-1.01,0.13-1.38,0.4s-0.63,0.62-0.78,1.06
		c-0.15,0.44-0.22,0.9-0.22,1.37c0,0.61,0.09,1.14,0.27,1.59c0.18,0.45,0.45,0.79,0.83,1.02s0.78,0.34,1.22,0.34
		c0.53,0,0.98-0.15,1.35-0.46S741.84,249.67,741.97,249.07z"/>
	<path fill="#9B9B9B" d="M747.36,250.94c-0.33,0.28-0.64,0.47-0.94,0.59s-0.62,0.17-0.97,0.17c-0.57,0-1.01-0.14-1.31-0.42
		c-0.31-0.28-0.46-0.63-0.46-1.07c0-0.25,0.06-0.49,0.17-0.7c0.12-0.21,0.27-0.38,0.45-0.51s0.4-0.22,0.63-0.29
		c0.17-0.05,0.43-0.09,0.78-0.13c0.71-0.08,1.23-0.19,1.57-0.3c0-0.12,0-0.2,0-0.23c0-0.36-0.08-0.61-0.25-0.76
		c-0.22-0.2-0.56-0.3-1-0.3c-0.41,0-0.72,0.07-0.92,0.22c-0.2,0.14-0.34,0.4-0.44,0.77l-0.86-0.12c0.08-0.37,0.21-0.67,0.39-0.89
		c0.18-0.23,0.44-0.4,0.78-0.52c0.34-0.12,0.73-0.18,1.18-0.18c0.44,0,0.8,0.05,1.08,0.16s0.48,0.24,0.61,0.39
		c0.13,0.16,0.22,0.36,0.27,0.6c0.03,0.15,0.04,0.42,0.04,0.81v1.17c0,0.82,0.02,1.33,0.06,1.55c0.04,0.22,0.11,0.42,0.22,0.62
		h-0.92C747.44,251.4,747.38,251.19,747.36,250.94z M747.28,248.98c-0.32,0.13-0.8,0.24-1.44,0.33c-0.36,0.05-0.62,0.11-0.77,0.18
		s-0.27,0.16-0.35,0.29c-0.08,0.12-0.12,0.26-0.12,0.42c0,0.23,0.09,0.43,0.27,0.59s0.44,0.23,0.78,0.23c0.34,0,0.64-0.07,0.9-0.22
		c0.26-0.15,0.46-0.35,0.58-0.61c0.09-0.2,0.14-0.49,0.14-0.88V248.98z"/>
	<path fill="#9B9B9B" d="M749.53,251.58v-5.19h0.79v0.74c0.38-0.57,0.93-0.85,1.65-0.85c0.31,0,0.6,0.06,0.86,0.17
		c0.26,0.11,0.46,0.26,0.59,0.44c0.13,0.18,0.22,0.4,0.27,0.65c0.03,0.16,0.05,0.45,0.05,0.85v3.19h-0.88v-3.15
		c0-0.36-0.04-0.63-0.1-0.8c-0.07-0.18-0.19-0.32-0.36-0.43c-0.17-0.11-0.38-0.16-0.61-0.16c-0.37,0-0.7,0.12-0.97,0.36
		c-0.27,0.24-0.41,0.69-0.41,1.35v2.83H749.53z"/>
	<path fill="#9B9B9B" d="M758.48,250.94c-0.33,0.28-0.64,0.47-0.94,0.59s-0.62,0.17-0.97,0.17c-0.57,0-1.01-0.14-1.31-0.42
		c-0.31-0.28-0.46-0.63-0.46-1.07c0-0.25,0.06-0.49,0.17-0.7c0.12-0.21,0.27-0.38,0.45-0.51s0.4-0.22,0.63-0.29
		c0.17-0.05,0.43-0.09,0.78-0.13c0.71-0.08,1.23-0.19,1.57-0.3c0-0.12,0-0.2,0-0.23c0-0.36-0.08-0.61-0.25-0.76
		c-0.22-0.2-0.56-0.3-1-0.3c-0.41,0-0.72,0.07-0.92,0.22c-0.2,0.14-0.34,0.4-0.44,0.77l-0.86-0.12c0.08-0.37,0.21-0.67,0.38-0.89
		c0.18-0.23,0.44-0.4,0.78-0.52c0.34-0.12,0.73-0.18,1.18-0.18c0.44,0,0.8,0.05,1.08,0.16c0.28,0.1,0.48,0.24,0.61,0.39
		c0.13,0.16,0.22,0.36,0.27,0.6c0.03,0.15,0.04,0.42,0.04,0.81v1.17c0,0.82,0.02,1.33,0.06,1.55c0.04,0.22,0.11,0.42,0.22,0.62
		h-0.92C758.56,251.4,758.5,251.19,758.48,250.94z M758.41,248.98c-0.32,0.13-0.8,0.24-1.44,0.33c-0.36,0.05-0.62,0.11-0.77,0.18
		c-0.15,0.07-0.26,0.16-0.35,0.29c-0.08,0.12-0.12,0.26-0.12,0.42c0,0.23,0.09,0.43,0.27,0.59s0.44,0.23,0.78,0.23
		c0.34,0,0.64-0.07,0.9-0.22c0.26-0.15,0.46-0.35,0.58-0.61c0.09-0.2,0.14-0.49,0.14-0.88V248.98z"/>
	<path fill="#9B9B9B" d="M764.02,251.58v-0.65c-0.33,0.51-0.81,0.77-1.45,0.77c-0.41,0-0.79-0.11-1.14-0.34s-0.62-0.55-0.81-0.96
		c-0.19-0.41-0.29-0.88-0.29-1.41c0-0.52,0.09-0.99,0.26-1.41c0.17-0.42,0.43-0.75,0.78-0.97c0.34-0.22,0.73-0.34,1.16-0.34
		c0.31,0,0.59,0.07,0.84,0.2c0.24,0.13,0.44,0.3,0.6,0.52v-2.57h0.87v7.16H764.02z M761.24,248.99c0,0.66,0.14,1.16,0.42,1.49
		c0.28,0.33,0.61,0.49,0.99,0.49c0.38,0,0.71-0.16,0.98-0.47c0.27-0.31,0.4-0.79,0.4-1.44c0-0.71-0.14-1.23-0.41-1.56
		s-0.61-0.5-1.01-0.5c-0.39,0-0.72,0.16-0.98,0.48S761.24,248.31,761.24,248.99z"/>
	<path fill="#9B9B9B" d="M769.6,250.94c-0.33,0.28-0.64,0.47-0.94,0.59s-0.62,0.17-0.97,0.17c-0.57,0-1.01-0.14-1.31-0.42
		c-0.31-0.28-0.46-0.63-0.46-1.07c0-0.25,0.06-0.49,0.17-0.7c0.12-0.21,0.27-0.38,0.45-0.51s0.4-0.22,0.63-0.29
		c0.17-0.05,0.43-0.09,0.78-0.13c0.71-0.08,1.23-0.19,1.57-0.3c0-0.12,0-0.2,0-0.23c0-0.36-0.08-0.61-0.25-0.76
		c-0.22-0.2-0.56-0.3-1-0.3c-0.41,0-0.72,0.07-0.92,0.22c-0.2,0.14-0.34,0.4-0.44,0.77l-0.86-0.12c0.08-0.37,0.21-0.67,0.38-0.89
		c0.18-0.23,0.44-0.4,0.78-0.52c0.34-0.12,0.73-0.18,1.18-0.18c0.44,0,0.8,0.05,1.08,0.16c0.28,0.1,0.48,0.24,0.61,0.39
		c0.13,0.16,0.22,0.36,0.27,0.6c0.03,0.15,0.04,0.42,0.04,0.81v1.17c0,0.82,0.02,1.33,0.06,1.55c0.04,0.22,0.11,0.42,0.22,0.62
		h-0.92C769.69,251.4,769.63,251.19,769.6,250.94z M769.53,248.98c-0.32,0.13-0.8,0.24-1.44,0.33c-0.36,0.05-0.62,0.11-0.77,0.18
		c-0.15,0.07-0.26,0.16-0.35,0.29c-0.08,0.12-0.12,0.26-0.12,0.42c0,0.23,0.09,0.43,0.27,0.59s0.44,0.23,0.78,0.23
		c0.34,0,0.64-0.07,0.9-0.22c0.26-0.15,0.46-0.35,0.58-0.61c0.09-0.2,0.14-0.49,0.14-0.88V248.98z"/>
	<path fill="#9B9B9B" d="M773.9,249.35v-0.71h10v0.71H773.9z"/>
	<path fill="#9B9B9B" d="M791.71,250.74v0.84h-4.73c-0.01-0.21,0.03-0.42,0.1-0.61c0.12-0.32,0.31-0.64,0.58-0.95
		s0.65-0.67,1.15-1.08c0.78-0.64,1.3-1.14,1.58-1.52c0.27-0.37,0.41-0.73,0.41-1.06c0-0.35-0.12-0.64-0.37-0.88
		c-0.25-0.24-0.57-0.36-0.97-0.36c-0.42,0-0.76,0.13-1.02,0.38s-0.38,0.61-0.39,1.05l-0.9-0.09c0.06-0.67,0.29-1.19,0.7-1.54
		c0.4-0.35,0.95-0.53,1.63-0.53c0.69,0,1.23,0.19,1.63,0.57s0.6,0.85,0.6,1.42c0,0.29-0.06,0.57-0.18,0.84s-0.31,0.57-0.58,0.87
		s-0.72,0.73-1.35,1.26c-0.53,0.44-0.87,0.74-1.02,0.9c-0.15,0.16-0.27,0.32-0.37,0.48H791.71z"/>
	<path fill="#9B9B9B" d="M792.65,248.05c0-0.85,0.09-1.53,0.26-2.04c0.17-0.52,0.43-0.91,0.78-1.19s0.78-0.42,1.3-0.42
		c0.38,0,0.72,0.08,1.01,0.23c0.29,0.15,0.53,0.38,0.72,0.67c0.19,0.29,0.34,0.65,0.44,1.06c0.11,0.42,0.16,0.98,0.16,1.69
		c0,0.84-0.09,1.52-0.26,2.03c-0.17,0.52-0.43,0.91-0.77,1.2c-0.34,0.28-0.78,0.42-1.3,0.42c-0.69,0-1.23-0.25-1.63-0.74
		C792.89,250.37,792.65,249.4,792.65,248.05z M793.56,248.05c0,1.17,0.14,1.96,0.41,2.35c0.27,0.39,0.61,0.58,1.02,0.58
		c0.4,0,0.74-0.2,1.02-0.59s0.41-1.17,0.41-2.34c0-1.18-0.14-1.96-0.41-2.35s-0.62-0.58-1.03-0.58c-0.4,0-0.73,0.17-0.97,0.51
		C793.71,246.07,793.56,246.88,793.56,248.05z"/>
	<path fill="#9B9B9B" d="M802.83,250.74v0.84h-4.73c-0.01-0.21,0.03-0.42,0.1-0.61c0.12-0.32,0.31-0.64,0.58-0.95
		s0.65-0.67,1.15-1.08c0.78-0.64,1.3-1.14,1.58-1.52c0.27-0.37,0.41-0.73,0.41-1.06c0-0.35-0.12-0.64-0.37-0.88
		c-0.25-0.24-0.57-0.36-0.97-0.36c-0.42,0-0.76,0.13-1.02,0.38s-0.38,0.61-0.39,1.05l-0.9-0.09c0.06-0.67,0.29-1.19,0.7-1.54
		c0.4-0.35,0.95-0.53,1.63-0.53c0.69,0,1.23,0.19,1.63,0.57s0.6,0.85,0.6,1.42c0,0.29-0.06,0.57-0.18,0.84s-0.31,0.57-0.58,0.87
		s-0.72,0.73-1.35,1.26c-0.53,0.44-0.87,0.74-1.02,0.9c-0.15,0.16-0.27,0.32-0.37,0.48H802.83z"/>
	<path fill="#9B9B9B" d="M808.34,246.18l-0.88,0.07c-0.08-0.34-0.19-0.6-0.33-0.75c-0.24-0.25-0.53-0.38-0.88-0.38
		c-0.28,0-0.53,0.08-0.74,0.23c-0.28,0.2-0.5,0.5-0.65,0.88c-0.16,0.39-0.24,0.94-0.25,1.66c0.21-0.32,0.47-0.56,0.78-0.72
		c0.31-0.16,0.63-0.23,0.96-0.23c0.59,0,1.09,0.22,1.5,0.65c0.41,0.43,0.62,0.99,0.62,1.67c0,0.45-0.1,0.87-0.29,1.25
		c-0.19,0.39-0.46,0.68-0.8,0.89c-0.34,0.21-0.72,0.31-1.15,0.31c-0.73,0-1.33-0.27-1.79-0.81c-0.46-0.54-0.69-1.43-0.69-2.66
		c0-1.38,0.25-2.39,0.77-3.02c0.45-0.55,1.05-0.82,1.8-0.82c0.56,0,1.02,0.16,1.38,0.47S808.27,245.62,808.34,246.18z
		 M804.75,249.26c0,0.3,0.06,0.59,0.19,0.87s0.31,0.49,0.54,0.63c0.23,0.15,0.47,0.22,0.73,0.22c0.37,0,0.69-0.15,0.96-0.45
		c0.27-0.3,0.4-0.71,0.4-1.22c0-0.5-0.13-0.88-0.4-1.17c-0.26-0.29-0.6-0.43-1-0.43c-0.4,0-0.73,0.14-1.01,0.43
		C804.89,248.43,804.75,248.8,804.75,249.26z"/>
</g>
<g>
	<path d="M26.29,54.67h-5.74V30.29H14v-4.96h18.88v4.96h-6.6V54.67z"/>
	<path d="M39.76,54.67h-5.33V35.62h5.33v2.9c1.31-2.34,3.16-3.52,5.54-3.5c0.75,0,1.53,0.15,2.32,0.47l-0.75,4.96
		c-0.79-0.45-1.63-0.67-2.54-0.64c-3.05,0-4.58,1.91-4.58,5.71V54.67z"/>
	<path d="M53.1,24.36c0.88,0,1.63,0.3,2.26,0.92s0.92,1.38,0.92,2.26s-0.32,1.65-0.95,2.28c-0.62,0.64-1.4,0.97-2.28,0.97
		s-1.63-0.32-2.26-0.95s-0.95-1.4-0.95-2.28s0.32-1.65,0.97-2.28C51.45,24.66,52.22,24.36,53.1,24.36z M55.7,35.62v19.06h-5.31
		V35.62H55.7z"/>
	<path d="M66.06,21.72v32.96h-5.33V21.72H66.06z"/>
	<path d="M76.48,21.72v32.96h-5.33V21.72H76.48z"/>
	<path d="M84.19,24.36c0.88,0,1.63,0.3,2.26,0.92s0.92,1.38,0.92,2.26s-0.32,1.65-0.95,2.28c-0.62,0.64-1.4,0.97-2.28,0.97
		s-1.63-0.32-2.26-0.95s-0.95-1.4-0.95-2.28s0.32-1.65,0.97-2.28C82.54,24.66,83.31,24.36,84.19,24.36z M86.79,35.62v19.06h-5.31
		V35.62H86.79z"/>
	<path d="M97.14,35.62V46.4c0,2.9,1.29,4.36,3.89,4.36s3.89-1.46,3.89-4.36V35.62h5.33v11.67c0,5.16-3.27,8.01-9.2,8.01
		s-9.24-2.86-9.24-8.01V35.62H97.14z"/>
	<path d="M132.85,44.9v9.78h-5.33V44.55c0-1.48-0.11-2.54-0.34-3.12s-0.62-1.05-1.16-1.4s-1.12-0.52-1.72-0.52
		c-1.2,0-2.45,0.71-3.14,1.91c-0.34,0.6-0.52,1.76-0.49,3.46v9.78h-5.33V35.62h5.33v2.21c1.65-1.87,3.67-2.81,6.08-2.81
		s4.3,1.16,5.65,3.46c1.5-2.32,3.52-3.48,6.08-3.48s4.38,0.92,5.5,2.75c0.67,1.1,1.01,2.62,1.01,4.62v12.31h-5.33V44.25
		c0-1.38-0.15-2.38-0.43-3.05c-0.49-1.12-1.4-1.68-2.69-1.68C134.08,39.53,132.85,41.31,132.85,44.9z"/>
	<path d="M167.63,25.33v24.38h9.02v4.96h-14.74V25.33H167.63z"/>
	<path d="M182.57,24.36c0.88,0,1.63,0.3,2.26,0.92s0.92,1.38,0.92,2.26s-0.32,1.65-0.95,2.28c-0.62,0.64-1.4,0.97-2.28,0.97
		s-1.63-0.32-2.26-0.95s-0.95-1.4-0.95-2.28s0.32-1.65,0.97-2.28C180.91,24.66,181.69,24.36,182.57,24.36z M185.17,35.62v19.06
		h-5.31V35.62H185.17z"/>
	<path d="M190.19,35.62h5.33V38c1.63-2.17,3.39-2.99,5.97-2.99c2.34,0,4.19,0.75,5.54,2.28c1.01,1.14,1.5,2.9,1.5,5.29v12.1h-5.33
		V44.1c0-1.46-0.17-2.49-0.54-3.07c-0.56-1.01-1.59-1.5-3.12-1.5c-2.69,0-4.04,1.76-4.04,5.29v9.86h-5.33V35.62z"/>
	<path d="M232.37,46.02h-14.29c0.15,3.42,1.7,5.11,4.66,5.09c1.85,0,3.35-0.86,4.53-2.56l4.92,0.79c-1.65,3.95-4.75,5.93-9.32,5.95
		c-3.12,0-5.59-0.92-7.46-2.77s-2.79-4.3-2.79-7.37s0.9-5.52,2.73-7.37s4.23-2.77,7.26-2.77s5.41,0.92,7.15,2.75s2.6,4.34,2.6,7.54
		V46.02z M218.25,42.62h9.02c-0.58-2.51-2.11-3.78-4.53-3.78C220.4,38.84,218.7,40.21,218.25,42.62z"/>
</g>
<g>
	<path fill="#5A5A5A" d="M19.73,67.42c1.59,0,2.92,0.54,4.02,1.62s1.65,2.41,1.65,3.98s-0.55,2.89-1.66,3.96s-2.47,1.6-4.08,1.6
		s-2.95-0.54-4.04-1.62S14,74.55,14,72.98s0.56-2.88,1.68-3.95S18.15,67.42,19.73,67.42z M19.71,69.33c-0.98,0-1.82,0.36-2.52,1.07
		c-0.7,0.71-1.05,1.58-1.05,2.59s0.35,1.88,1.05,2.6s1.53,1.08,2.52,1.08s1.83-0.36,2.52-1.08s1.04-1.59,1.04-2.6
		s-0.34-1.88-1.04-2.59S20.69,69.33,19.71,69.33z"/>
	<path fill="#5A5A5A" d="M35.02,70.53c-0.81-0.8-1.7-1.2-2.65-1.2s-1.77,0.36-2.44,1.07c-0.68,0.71-1.02,1.59-1.02,2.63
		s0.34,1.91,1.02,2.6c0.67,0.7,1.52,1.04,2.52,1.04c0.5,0,0.95-0.09,1.34-0.27s0.8-0.48,1.23-0.9v2.45
		c-0.9,0.41-1.77,0.62-2.61,0.62c-1.58,0-2.91-0.53-4-1.6s-1.63-2.38-1.63-3.93s0.55-2.88,1.65-3.98s2.43-1.65,3.98-1.65
		c0.87,0,1.73,0.22,2.61,0.66V70.53z"/>
	<path fill="#5A5A5A" d="M44.3,78.34h-2.09v-8.87h-2.38v-1.8h6.87v1.8h-2.4V78.34z"/>
	<path fill="#5A5A5A" d="M49.2,78.34h-1.94v-6.93h1.94v1.05c0.48-0.85,1.15-1.28,2.02-1.27c0.27,0,0.55,0.05,0.84,0.17l-0.27,1.8
		c-0.29-0.16-0.59-0.24-0.92-0.23c-1.11,0-1.66,0.7-1.66,2.08V78.34z"/>
	<path fill="#5A5A5A" d="M58.27,71.41h1.94v6.93h-1.94v-0.9c-0.6,0.74-1.37,1.12-2.31,1.12s-1.74-0.35-2.39-1.05
		s-0.98-1.58-0.98-2.62s0.33-1.92,0.98-2.63s1.44-1.06,2.36-1.06s1.7,0.38,2.34,1.12V71.41z M56.54,72.93
		c-0.55,0-1.01,0.19-1.38,0.56c-0.38,0.38-0.57,0.84-0.57,1.38s0.19,1,0.57,1.38c0.38,0.38,0.84,0.57,1.37,0.57s0.99-0.19,1.38-0.57
		c0.38-0.38,0.57-0.83,0.57-1.37s-0.19-0.99-0.55-1.38C57.54,73.12,57.08,72.93,56.54,72.93z"/>
	<path fill="#5A5A5A" d="M62.05,71.41h1.94v0.87c0.59-0.79,1.23-1.09,2.17-1.09c0.85,0,1.52,0.27,2.02,0.83
		c0.37,0.41,0.55,1.05,0.55,1.92v4.4h-1.94v-3.84c0-0.53-0.06-0.91-0.2-1.12c-0.2-0.37-0.58-0.55-1.13-0.55
		c-0.98,0-1.47,0.64-1.47,1.92v3.59h-1.94V71.41z"/>
	<path fill="#5A5A5A" d="M74.37,73.02c-0.41-0.3-0.75-0.46-1.04-0.46s-0.5,0.05-0.65,0.16c-0.15,0.12-0.22,0.26-0.22,0.42
		s0.07,0.3,0.22,0.4s0.49,0.24,1.03,0.43s0.95,0.38,1.2,0.57c0.51,0.35,0.77,0.88,0.77,1.57s-0.27,1.28-0.81,1.74
		c-0.55,0.47-1.25,0.7-2.1,0.7c-1.05,0-1.92-0.38-2.62-1.16l1.02-1.18c0.54,0.54,1.09,0.81,1.64,0.81c0.49,0,0.88-0.34,0.88-0.76
		c0-0.21-0.06-0.37-0.2-0.48c-0.13-0.1-0.48-0.26-1.04-0.46s-0.95-0.38-1.16-0.55c-0.46-0.32-0.69-0.8-0.69-1.45s0.23-1.17,0.7-1.59
		c0.46-0.41,1.09-0.62,1.87-0.62s1.5,0.25,2.16,0.74L74.37,73.02z"/>
	<path fill="#5A5A5A" d="M79.05,82.03h-1.94V71.41h1.94v0.9c0.6-0.74,1.37-1.12,2.3-1.12s1.73,0.35,2.39,1.05s0.98,1.58,0.98,2.62
		s-0.33,1.92-0.98,2.63s-1.44,1.06-2.35,1.06s-1.7-0.38-2.35-1.12V82.03z M80.79,72.93c-0.54,0-0.99,0.19-1.38,0.56
		s-0.57,0.84-0.57,1.38s0.19,1,0.57,1.38c0.38,0.38,0.84,0.57,1.37,0.57s0.99-0.19,1.38-0.57c0.38-0.38,0.58-0.83,0.58-1.37
		s-0.19-0.99-0.57-1.38S81.33,72.93,80.79,72.93z"/>
	<path fill="#5A5A5A" d="M89.84,71.19c1.16,0,2.11,0.34,2.84,1.02s1.09,1.57,1.09,2.66s-0.37,1.98-1.1,2.66
		c-0.74,0.68-1.7,1.02-2.88,1.02s-2.12-0.35-2.85-1.05s-1.09-1.58-1.09-2.66s0.38-1.97,1.12-2.65S88.67,71.19,89.84,71.19z
		 M89.81,72.93c-0.54,0-1,0.19-1.38,0.56s-0.58,0.84-0.58,1.38s0.19,1,0.57,1.38c0.38,0.38,0.84,0.57,1.38,0.57s1.01-0.19,1.39-0.57
		c0.38-0.38,0.57-0.83,0.57-1.37s-0.19-0.99-0.57-1.38S90.35,72.93,89.81,72.93z"/>
	<path fill="#5A5A5A" d="M103.69,70.7c0.61,0,1.13,0.22,1.56,0.66s0.65,0.96,0.65,1.57s-0.22,1.12-0.65,1.55s-0.95,0.65-1.56,0.65
		s-1.13-0.22-1.57-0.65s-0.66-0.95-0.66-1.56s0.22-1.14,0.66-1.57S103.08,70.7,103.69,70.7z"/>
	<path fill="#5A5A5A" d="M119.42,67.42c1.59,0,2.92,0.54,4.02,1.62s1.65,2.41,1.65,3.98s-0.55,2.89-1.66,3.96s-2.47,1.6-4.08,1.6
		s-2.95-0.54-4.04-1.62s-1.62-2.41-1.62-3.97s0.56-2.88,1.68-3.95S117.84,67.42,119.42,67.42z M119.4,69.33
		c-0.98,0-1.82,0.36-2.52,1.07c-0.7,0.71-1.05,1.58-1.05,2.59s0.35,1.88,1.05,2.6s1.53,1.08,2.52,1.08s1.83-0.36,2.52-1.08
		s1.04-1.59,1.04-2.6s-0.34-1.88-1.04-2.59S120.38,69.33,119.4,69.33z"/>
	<path fill="#5A5A5A" d="M128.66,73.09v5.25h-1.94v-5.25h-0.77v-1.68h0.77v-2.37h1.94v2.37h1.38v1.68H128.66z"/>
	<path fill="#5A5A5A" d="M133.41,73.09v5.25h-1.94v-5.25h-0.77v-1.68h0.77v-2.37h1.94v2.37h1.38v1.68H133.41z"/>
	<path fill="#5A5A5A" d="M141.11,71.41h1.94v6.93h-1.94v-0.9c-0.6,0.74-1.37,1.12-2.31,1.12s-1.74-0.35-2.39-1.05
		s-0.98-1.58-0.98-2.62s0.33-1.92,0.98-2.63s1.44-1.06,2.36-1.06s1.7,0.38,2.34,1.12V71.41z M139.38,72.93
		c-0.55,0-1.01,0.19-1.38,0.56c-0.38,0.38-0.57,0.84-0.57,1.38s0.19,1,0.57,1.38c0.38,0.38,0.84,0.57,1.37,0.57s0.99-0.19,1.38-0.57
		c0.38-0.38,0.57-0.83,0.57-1.37s-0.19-0.99-0.55-1.38C140.38,73.12,139.92,72.93,139.38,72.93z"/>
	<path fill="#5A5A5A" d="M146.18,71.41l1.82,4l1.89-4.19h0.83l1.89,4.25l1.85-4.06h2.16l-3.59,7.07h-0.88l-1.88-4.2l-1.84,4.2h-0.89
		L144,71.41H146.18z"/>
	<path fill="#5A5A5A" d="M162.53,71.41h1.94v6.93h-1.94v-0.9c-0.6,0.74-1.37,1.12-2.31,1.12s-1.74-0.35-2.39-1.05
		s-0.98-1.58-0.98-2.62s0.33-1.92,0.98-2.63s1.44-1.06,2.36-1.06s1.7,0.38,2.34,1.12V71.41z M160.8,72.93
		c-0.55,0-1.01,0.19-1.38,0.56c-0.38,0.38-0.57,0.84-0.57,1.38s0.19,1,0.57,1.38c0.38,0.38,0.84,0.57,1.37,0.57s0.99-0.19,1.38-0.57
		c0.38-0.38,0.57-0.83,0.57-1.37s-0.19-0.99-0.55-1.38C161.8,73.12,161.34,72.93,160.8,72.93z"/>
	<path fill="#5A5A5A" d="M174.75,70.7c0.61,0,1.13,0.22,1.56,0.66s0.65,0.96,0.65,1.57s-0.22,1.12-0.65,1.55s-0.95,0.65-1.56,0.65
		s-1.13-0.22-1.57-0.65s-0.66-0.95-0.66-1.56s0.22-1.14,0.66-1.57S174.14,70.7,174.75,70.7z"/>
	<path fill="#5A5A5A" d="M192.09,76.53v1.8h-7.76l3.15-3.57c0.97-1.11,1.62-1.93,1.95-2.45s0.5-1.02,0.5-1.47s-0.16-0.84-0.47-1.15
		c-0.32-0.3-0.71-0.46-1.17-0.46s-0.84,0.16-1.11,0.46c-0.28,0.3-0.43,0.74-0.45,1.3h-2.23c0.07-1.11,0.45-1.98,1.12-2.63
		c0.67-0.65,1.55-0.97,2.62-0.97c1.07,0,1.97,0.33,2.69,0.98c0.71,0.66,1.07,1.51,1.07,2.56s-0.65,2.27-1.94,3.63l-1.86,1.97H192.09
		z"/>
	<path fill="#5A5A5A" d="M197.69,67.39c1.21,0,2.21,0.55,3.02,1.63c0.73,1.02,1.1,2.35,1.1,3.97s-0.37,2.95-1.1,3.98
		c-0.75,1.02-1.88,1.63-3.02,1.63c-1.24,0-2.24-0.53-3-1.59s-1.14-2.41-1.14-4.04s0.37-2.95,1.1-3.95
		C195.46,67.94,196.48,67.39,197.69,67.39z M197.68,69.23c-0.6,0-1.09,0.35-1.48,1.05s-0.59,1.6-0.59,2.7s0.2,2.01,0.58,2.72
		s0.88,1.06,1.48,1.06s1.1-0.35,1.48-1.05s0.57-1.61,0.57-2.71s-0.2-2.01-0.58-2.71S198.27,69.23,197.68,69.23z"/>
	<path fill="#5A5A5A" d="M206.76,67.39c1.21,0,2.21,0.55,3.02,1.63c0.73,1.02,1.1,2.35,1.1,3.97s-0.37,2.95-1.1,3.98
		c-0.75,1.02-1.88,1.63-3.02,1.63c-1.24,0-2.24-0.53-3-1.59s-1.14-2.41-1.14-4.04s0.37-2.95,1.1-3.95
		C204.53,67.94,205.55,67.39,206.76,67.39z M206.75,69.23c-0.6,0-1.09,0.35-1.48,1.05s-0.59,1.6-0.59,2.7s0.2,2.01,0.58,2.72
		s0.88,1.06,1.48,1.06s1.1-0.35,1.48-1.05s0.57-1.61,0.57-2.71s-0.2-2.01-0.58-2.71S207.34,69.23,206.75,69.23z"/>
	<path fill="#5A5A5A" d="M214.91,69.47h-1.54v-1.8h3.62v10.67h-2.08V69.47z"/>
	<path fill="#5A5A5A" d="M220.34,73.86h3.6v1.61h-3.6V73.86z"/>
	<path fill="#5A5A5A" d="M231.97,76.53v1.8h-7.76l3.15-3.57c0.97-1.11,1.62-1.93,1.95-2.45s0.5-1.02,0.5-1.47s-0.16-0.84-0.47-1.15
		c-0.32-0.3-0.71-0.46-1.17-0.46s-0.84,0.16-1.11,0.46c-0.28,0.3-0.43,0.74-0.45,1.3h-2.23c0.07-1.11,0.45-1.98,1.12-2.63
		c0.67-0.65,1.55-0.97,2.62-0.97c1.07,0,1.97,0.33,2.69,0.98c0.71,0.66,1.07,1.51,1.07,2.56s-0.65,2.27-1.94,3.63l-1.86,1.97H231.97
		z"/>
	<path fill="#5A5A5A" d="M237.56,67.39c1.21,0,2.21,0.55,3.02,1.63c0.73,1.02,1.1,2.35,1.1,3.97s-0.37,2.95-1.1,3.98
		c-0.75,1.02-1.88,1.63-3.02,1.63c-1.24,0-2.24-0.53-3-1.59s-1.14-2.41-1.14-4.04s0.37-2.95,1.1-3.95
		C235.34,67.94,236.35,67.39,237.56,67.39z M237.55,69.23c-0.6,0-1.09,0.35-1.48,1.05s-0.59,1.6-0.59,2.7s0.2,2.01,0.58,2.72
		s0.88,1.06,1.48,1.06s1.1-0.35,1.48-1.05s0.57-1.61,0.57-2.71s-0.2-2.01-0.58-2.71S238.15,69.23,237.55,69.23z"/>
	<path fill="#5A5A5A" d="M250.11,76.53v1.8h-7.76l3.15-3.57c0.97-1.11,1.62-1.93,1.95-2.45s0.5-1.02,0.5-1.47s-0.16-0.84-0.47-1.15
		c-0.32-0.3-0.71-0.46-1.17-0.46s-0.84,0.16-1.11,0.46c-0.28,0.3-0.43,0.74-0.45,1.3h-2.23c0.07-1.11,0.45-1.98,1.12-2.63
		c0.67-0.65,1.55-0.97,2.62-0.97c1.07,0,1.97,0.33,2.69,0.98c0.71,0.66,1.07,1.51,1.07,2.56s-0.65,2.27-1.94,3.63l-1.86,1.97H250.11
		z"/>
	<path fill="#5A5A5A" d="M255.7,67.39c1.21,0,2.21,0.55,3.02,1.63c0.73,1.02,1.1,2.35,1.1,3.97s-0.37,2.95-1.1,3.98
		c-0.75,1.02-1.88,1.63-3.02,1.63c-1.24,0-2.24-0.53-3-1.59s-1.14-2.41-1.14-4.04s0.37-2.95,1.1-3.95
		C253.48,67.94,254.49,67.39,255.7,67.39z M255.7,69.23c-0.6,0-1.09,0.35-1.48,1.05s-0.59,1.6-0.59,2.7s0.2,2.01,0.58,2.72
		s0.88,1.06,1.48,1.06s1.1-0.35,1.48-1.05s0.57-1.61,0.57-2.71s-0.2-2.01-0.58-2.71S256.29,69.23,255.7,69.23z"/>
</g>
</svg>
